#ifndef __MIDI_HPP
#define __MIDI_HPP

#ifndef __ODRIVE_MAIN_H
#error "This file should not be included directly. Include odrive_main.h instead."
#endif

// Table of note frequencies, stored in flash
static const double note_frequencies_float_[128] = {
		/*C*/	  /*C#*/	/*D*/	  /*D#*/	/*E*/	   /*F*/	  /*F#*/    /*G*/	   /*G#*/	  /*A*/	 /*A#*/    /*B*/
/*C-1*/ 8.176,    8.662,    9.177,    9.723,    10.301,    10.913,    11.562,   12.250,    12.979,    13.75, 14.568,   15.434,
/*C0*/  16.351,   17.324,   18.354,   19.445,   20.601,    21.827,    23.124,   24.499,    25.956,    27.5,  29.135,   30.868, 
/*C1*/  32.703,   34.648,   36.708,   38.891,   41.203,    43.654,    46.249,   48.999,    51.913,    55,    58.27,    61.735, 
/*C2*/  65.407,   69.296,   73.416,   77.782,   82.407,    87.307,    92.499,   97.999,    103.826,   110,   116.541,  123.471, 
/*C3*/  130.813,  138.591,  146.832,  155.563,  164.814,   174.614,   184.997,  195.998,   207.652,   220,   233.082,  246.942, 
/*C4*/	261.626,  277.183,  293.665,  311.127,  329.628,   349.228,   369.994,  391.995,   415.305,   440,   466.164,  493.883,
/*C5*/  523.251,  554.356,  587.33,   622.254,  659.255,   698.456,   739.989,  783.991,   830.609,   880,   932.328,  987.767, 
/*C6*/  1046.502, 1108.731, 1174.659, 1244.508, 1318.51,   1396.913,  1479.978, 1567.982,  1661.219,  1760,  1864.655, 1975.533,
/*C7*/  2093.005, 2217.461, 2349.318, 2489.016, 2637.021,  2794.826,  2959.955, 3135.694,  3322.438,  3520,  3729.31,  3951.066, 
/*C8*/  4186.009, 4434.922, 4698.636, 4978.032, 5274.042,  5587.652,  5919.91,  6271.928,  6644.876,  7040,  7458.62,  7902.132, 
/*C9*/  8372.018, 8869.844, 9397.272, 9956.064, 10548.084, 11175.304, 11839.82, 12543.856 
    };

// Cutoff frequency for bass boost
static constexpr const uint16_t  midi_bass_boost_frequency_ 		= 250;

// Constant expressions for calculating & such
static constexpr const uint8_t  midi_timing_modulations_per_loop_ 	= 6;
static constexpr const uint16_t midi_player_loop_frequency_			= midi_timing_modulations_per_loop_ * current_meas_hz;
static constexpr const uint16_t midi_modulation_table_underscan_ 	= 255;
static constexpr const uint16_t midi_modulation_table_size_ 		= (midi_player_loop_frequency_ + midi_modulation_table_underscan_) / 10;
static constexpr const uint16_t  midi_bass_boost_ 					= midi_player_loop_frequency_ / midi_bass_boost_frequency_;

class Midi {
public:
    // Periods are calculated from frequenices in class instantiation based on the midi_player_loop_frequency_ 
	uint16_t note_periods_[128] = { 0 };

    uint8_t midi_modulation_table_[midi_modulation_table_size_];

    uint16_t song_start_  = 0;
    uint16_t song_cursor_ = 0;

    TimerHandle_t tune_timer_handle_;

    volatile bool tune_playing_ = false;

    struct Config_t {
        osPriority thread_priority = osPriorityNormal;
    };

    Config_t& config_;

    Midi(Config_t& config);

    // start playing a polyphonic score
    void tune_playscore (const char *score);	

    // stop playing the score
    void tune_stopscore (void);                 
    
    // countdown for tune_timer
    volatile int32_t wait_toggle_count_ = 0;      

    bool played_first_note_ = false;
    bool volume_present_    = false;

    void tune_playnote (uint8_t chan, uint8_t note);
    void tune_stopnote (uint8_t chan);

    osThreadId thread_id_;
    volatile bool thread_id_valid_ = false;
    void start_thread();
    void tune_timer();

    // Index of the MIDI modulation table (this should be in midi...)
    uint16_t voltage_modulation_index_ = 0;
    bool music_enabled_ = 0;

private:

    void tune_stepscore (void);

    uint16_t channel_scheduler_[8] = { 0 };
};


extern Midi * midi_;

// Finally, our baller song

static const uint8_t midi_file_[32180] =
// Dragonforce - Through Fire & Flames

{
	0x4d, 0x54, 0x68, 0x64, 0x00, 0x00, 0x00, 0x06, 
	0x00, 0x01, 0x00, 0x01, 0x01, 0x00, 0x4d, 0x54, 
	0x72, 0x6b, 0x00, 0x00, 0x7d, 0x9e, 0x00, 0xff, 
	0x58, 0x04, 0x04, 0x02, 0x18, 0x08, 0x00, 0xff, 
	0x51, 0x03, 0x04, 0x93, 0xe0, 0x00, 0x90, 0x30, 
	0x52, 0x00, 0x90, 0x3c, 0x49, 0x64, 0x80, 0x3c, 
	0x30, 0x00, 0x80, 0x30, 0x30, 0x1c, 0x90, 0x3e, 
	0x44, 0x64, 0x80, 0x3e, 0x30, 0x1c, 0x90, 0x3f, 
	0x45, 0x64, 0x80, 0x3f, 0x30, 0x1c, 0x90, 0x3c, 
	0x40, 0x64, 0x80, 0x3c, 0x30, 0x1c, 0x90, 0x3e, 
	0x48, 0x64, 0x80, 0x3e, 0x30, 0x1c, 0x90, 0x3f, 
	0x43, 0x64, 0x80, 0x3f, 0x30, 0x1c, 0x90, 0x3c, 
	0x3a, 0x64, 0x80, 0x3c, 0x30, 0x1c, 0x90, 0x3e, 
	0x42, 0x64, 0x80, 0x3e, 0x30, 0x1c, 0x90, 0x43, 
	0x4a, 0x64, 0x80, 0x43, 0x30, 0x1c, 0x90, 0x3f, 
	0x3d, 0x64, 0x80, 0x3f, 0x30, 0x1c, 0x90, 0x41, 
	0x43, 0x64, 0x80, 0x41, 0x30, 0x1c, 0x90, 0x3e, 
	0x3b, 0x64, 0x80, 0x3e, 0x30, 0x1c, 0x90, 0x3f, 
	0x47, 0x64, 0x80, 0x3f, 0x30, 0x1c, 0x90, 0x3c, 
	0x37, 0x64, 0x80, 0x3c, 0x30, 0x1c, 0x90, 0x3e, 
	0x3d, 0x64, 0x80, 0x3e, 0x30, 0x1c, 0x90, 0x3a, 
	0x3e, 0x64, 0x80, 0x3a, 0x30, 0x1c, 0x90, 0x30, 
	0x53, 0x00, 0x90, 0x3c, 0x47, 0x64, 0x80, 0x3c, 
	0x30, 0x00, 0x80, 0x30, 0x30, 0x1c, 0x90, 0x3e, 
	0x43, 0x64, 0x80, 0x3e, 0x30, 0x1c, 0x90, 0x3f, 
	0x46, 0x64, 0x80, 0x3f, 0x30, 0x1c, 0x90, 0x3c, 
	0x3e, 0x64, 0x80, 0x3c, 0x30, 0x1c, 0x90, 0x3e, 
	0x43, 0x64, 0x80, 0x3e, 0x30, 0x1c, 0x90, 0x3f, 
	0x44, 0x64, 0x80, 0x3f, 0x30, 0x1c, 0x90, 0x3c, 
	0x3b, 0x64, 0x80, 0x3c, 0x30, 0x1c, 0x90, 0x3e, 
	0x44, 0x64, 0x80, 0x3e, 0x30, 0x1c, 0x90, 0x43, 
	0x4c, 0x64, 0x80, 0x43, 0x30, 0x1c, 0x90, 0x3f, 
	0x3e, 0x64, 0x80, 0x3f, 0x30, 0x1c, 0x90, 0x41, 
	0x43, 0x64, 0x80, 0x41, 0x30, 0x1c, 0x90, 0x3e, 
	0x3b, 0x64, 0x80, 0x3e, 0x30, 0x1c, 0x90, 0x3f, 
	0x3f, 0x64, 0x80, 0x3f, 0x30, 0x1c, 0x90, 0x3c, 
	0x3f, 0x64, 0x80, 0x3c, 0x30, 0x1c, 0x90, 0x3e, 
	0x41, 0x64, 0x80, 0x3e, 0x30, 0x1c, 0x90, 0x3a, 
	0x3d, 0x64, 0x80, 0x3a, 0x30, 0x1c, 0x90, 0x2c, 
	0x4d, 0x00, 0x90, 0x3c, 0x44, 0x64, 0x80, 0x3c, 
	0x30, 0x1c, 0x90, 0x3e, 0x46, 0x64, 0x80, 0x3e, 
	0x30, 0x1c, 0x90, 0x3f, 0x41, 0x64, 0x80, 0x3f, 
	0x30, 0x1c, 0x90, 0x3c, 0x38, 0x64, 0x80, 0x3c, 
	0x30, 0x1c, 0x90, 0x3e, 0x43, 0x64, 0x80, 0x3e, 
	0x30, 0x1c, 0x90, 0x3f, 0x40, 0x64, 0x80, 0x3f, 
	0x30, 0x1c, 0x90, 0x3c, 0x3c, 0x64, 0x80, 0x3c, 
	0x30, 0x1c, 0x90, 0x3e, 0x42, 0x64, 0x80, 0x3e, 
	0x30, 0x1c, 0x90, 0x43, 0x4c, 0x64, 0x80, 0x43, 
	0x30, 0x1c, 0x90, 0x3f, 0x3d, 0x64, 0x80, 0x3f, 
	0x30, 0x1c, 0x90, 0x41, 0x43, 0x64, 0x80, 0x41, 
	0x30, 0x1c, 0x90, 0x3e, 0x38, 0x64, 0x80, 0x3e, 
	0x30, 0x1c, 0x90, 0x3f, 0x45, 0x64, 0x80, 0x3f, 
	0x30, 0x1c, 0x90, 0x3c, 0x3f, 0x64, 0x80, 0x3c, 
	0x30, 0x1c, 0x90, 0x3e, 0x47, 0x64, 0x80, 0x3e, 
	0x30, 0x1c, 0x90, 0x3a, 0x41, 0x64, 0x80, 0x2c, 
	0x30, 0x00, 0x80, 0x3a, 0x30, 0x1c, 0x90, 0x2b, 
	0x56, 0x00, 0x90, 0x3c, 0x44, 0x64, 0x80, 0x3c, 
	0x30, 0x00, 0x80, 0x2b, 0x30, 0x1c, 0x90, 0x3e, 
	0x47, 0x64, 0x80, 0x3e, 0x30, 0x1c, 0x90, 0x3f, 
	0x4b, 0x64, 0x80, 0x3f, 0x30, 0x1c, 0x90, 0x3c, 
	0x3d, 0x64, 0x80, 0x3c, 0x30, 0x1c, 0x90, 0x3e, 
	0x42, 0x64, 0x80, 0x3e, 0x30, 0x1c, 0x90, 0x3f, 
	0x42, 0x64, 0x80, 0x3f, 0x30, 0x1c, 0x90, 0x3c, 
	0x3d, 0x64, 0x80, 0x3c, 0x30, 0x1c, 0x90, 0x3e, 
	0x48, 0x64, 0x80, 0x3e, 0x30, 0x1c, 0x90, 0x2e, 
	0x52, 0x00, 0x90, 0x43, 0x4c, 0x64, 0x80, 0x43, 
	0x30, 0x1c, 0x90, 0x3f, 0x3a, 0x64, 0x80, 0x3f, 
	0x30, 0x1c, 0x90, 0x41, 0x41, 0x64, 0x80, 0x41, 
	0x30, 0x1c, 0x90, 0x3e, 0x3c, 0x64, 0x80, 0x3e, 
	0x30, 0x1c, 0x90, 0x3f, 0x40, 0x64, 0x80, 0x3f, 
	0x30, 0x1c, 0x90, 0x3c, 0x3a, 0x64, 0x80, 0x3c, 
	0x30, 0x1c, 0x90, 0x3e, 0x45, 0x64, 0x80, 0x3e, 
	0x30, 0x1c, 0x90, 0x3a, 0x3d, 0x64, 0x80, 0x2e, 
	0x30, 0x00, 0x80, 0x3a, 0x30, 0x1c, 0x90, 0x30, 
	0x5d, 0x00, 0x90, 0x3c, 0x43, 0x64, 0x80, 0x3c, 
	0x30, 0x00, 0x80, 0x30, 0x30, 0x1c, 0x90, 0x3e, 
	0x44, 0x64, 0x80, 0x3e, 0x30, 0x1c, 0x90, 0x3f, 
	0x44, 0x64, 0x80, 0x3f, 0x30, 0x1c, 0x90, 0x3c, 
	0x36, 0x64, 0x80, 0x3c, 0x30, 0x1c, 0x90, 0x3e, 
	0x45, 0x64, 0x80, 0x3e, 0x30, 0x1c, 0x90, 0x3f, 
	0x46, 0x64, 0x80, 0x3f, 0x30, 0x1c, 0x90, 0x3c, 
	0x38, 0x64, 0x80, 0x3c, 0x30, 0x1c, 0x90, 0x3e, 
	0x47, 0x64, 0x80, 0x3e, 0x30, 0x1c, 0x90, 0x43, 
	0x46, 0x64, 0x80, 0x43, 0x30, 0x1c, 0x90, 0x3f, 
	0x3a, 0x64, 0x80, 0x3f, 0x30, 0x1c, 0x90, 0x41, 
	0x45, 0x64, 0x80, 0x41, 0x30, 0x1c, 0x90, 0x3e, 
	0x3c, 0x64, 0x80, 0x3e, 0x30, 0x1c, 0x90, 0x3f, 
	0x44, 0x64, 0x80, 0x3f, 0x30, 0x1c, 0x90, 0x3c, 
	0x3a, 0x64, 0x80, 0x3c, 0x30, 0x1c, 0x90, 0x3e, 
	0x42, 0x64, 0x80, 0x3e, 0x30, 0x1c, 0x90, 0x3a, 
	0x3d, 0x64, 0x80, 0x3a, 0x30, 0x1c, 0x90, 0x30, 
	0x4e, 0x00, 0x90, 0x3c, 0x43, 0x64, 0x80, 0x3c, 
	0x30, 0x00, 0x80, 0x30, 0x30, 0x1c, 0x90, 0x3e, 
	0x49, 0x64, 0x80, 0x3e, 0x30, 0x1c, 0x90, 0x3f, 
	0x43, 0x64, 0x80, 0x3f, 0x30, 0x1c, 0x90, 0x3c, 
	0x3c, 0x64, 0x80, 0x3c, 0x30, 0x1c, 0x90, 0x3e, 
	0x44, 0x64, 0x80, 0x3e, 0x30, 0x1c, 0x90, 0x3f, 
	0x44, 0x64, 0x80, 0x3f, 0x30, 0x1c, 0x90, 0x3c, 
	0x38, 0x64, 0x80, 0x3c, 0x30, 0x1c, 0x90, 0x3e, 
	0x41, 0x64, 0x80, 0x3e, 0x30, 0x1c, 0x90, 0x43, 
	0x4f, 0x64, 0x80, 0x43, 0x30, 0x1c, 0x90, 0x3f, 
	0x3b, 0x64, 0x80, 0x3f, 0x30, 0x1c, 0x90, 0x41, 
	0x3f, 0x64, 0x80, 0x41, 0x30, 0x1c, 0x90, 0x3e, 
	0x3d, 0x64, 0x80, 0x3e, 0x30, 0x1c, 0x90, 0x3f, 
	0x45, 0x64, 0x80, 0x3f, 0x30, 0x1c, 0x90, 0x3c, 
	0x3a, 0x64, 0x80, 0x3c, 0x30, 0x1c, 0x90, 0x3e, 
	0x42, 0x64, 0x80, 0x3e, 0x30, 0x1c, 0x90, 0x3a, 
	0x41, 0x64, 0x80, 0x3a, 0x30, 0x1c, 0x90, 0x2c, 
	0x53, 0x00, 0x90, 0x3c, 0x3f, 0x64, 0x80, 0x3c, 
	0x30, 0x1c, 0x90, 0x3e, 0x41, 0x64, 0x80, 0x3e, 
	0x30, 0x1c, 0x90, 0x3f, 0x43, 0x64, 0x80, 0x3f, 
	0x30, 0x1c, 0x90, 0x3c, 0x3a, 0x64, 0x80, 0x3c, 
	0x30, 0x1c, 0x90, 0x3e, 0x44, 0x64, 0x80, 0x3e, 
	0x30, 0x1c, 0x90, 0x3f, 0x42, 0x64, 0x80, 0x3f, 
	0x30, 0x1c, 0x90, 0x3c, 0x3d, 0x64, 0x80, 0x3c, 
	0x30, 0x1c, 0x90, 0x3e, 0x46, 0x64, 0x80, 0x3e, 
	0x30, 0x1c, 0x90, 0x43, 0x49, 0x64, 0x80, 0x43, 
	0x30, 0x1c, 0x90, 0x3f, 0x3b, 0x64, 0x80, 0x3f, 
	0x30, 0x1c, 0x90, 0x41, 0x43, 0x64, 0x80, 0x41, 
	0x30, 0x1c, 0x90, 0x3e, 0x37, 0x64, 0x80, 0x3e, 
	0x30, 0x1c, 0x90, 0x3f, 0x40, 0x64, 0x80, 0x3f, 
	0x30, 0x1c, 0x90, 0x3c, 0x3a, 0x64, 0x80, 0x3c, 
	0x30, 0x1c, 0x90, 0x3e, 0x46, 0x64, 0x80, 0x3e, 
	0x30, 0x1c, 0x90, 0x3a, 0x3e, 0x64, 0x80, 0x2c, 
	0x30, 0x00, 0x80, 0x3a, 0x30, 0x1c, 0x90, 0x2b, 
	0x5b, 0x00, 0x90, 0x3c, 0x43, 0x64, 0x80, 0x3c, 
	0x30, 0x00, 0x80, 0x2b, 0x30, 0x1c, 0x90, 0x3e, 
	0x46, 0x64, 0x80, 0x3e, 0x30, 0x1c, 0x90, 0x3f, 
	0x43, 0x64, 0x80, 0x3f, 0x30, 0x1c, 0x90, 0x3c, 
	0x40, 0x64, 0x80, 0x3c, 0x30, 0x1c, 0x90, 0x3e, 
	0x43, 0x64, 0x80, 0x3e, 0x30, 0x1c, 0x90, 0x3f, 
	0x46, 0x64, 0x80, 0x3f, 0x30, 0x1c, 0x90, 0x3c, 
	0x3b, 0x64, 0x80, 0x3c, 0x30, 0x1c, 0x90, 0x3e, 
	0x41, 0x64, 0x80, 0x3e, 0x30, 0x1c, 0x90, 0x2b, 
	0x4f, 0x00, 0x90, 0x46, 0x4f, 0x24, 0x80, 0x46, 
	0x30, 0x1c, 0x90, 0x43, 0x3f, 0x24, 0x80, 0x43, 
	0x30, 0x1c, 0x90, 0x3f, 0x38, 0x24, 0x80, 0x3f, 
	0x30, 0x1c, 0x90, 0x3c, 0x40, 0x24, 0x80, 0x2b, 
	0x30, 0x00, 0x80, 0x3c, 0x30, 0x1c, 0x90, 0x2b, 
	0x57, 0x00, 0x90, 0x3a, 0x3f, 0x24, 0x80, 0x3a, 
	0x30, 0x1c, 0x90, 0x3c, 0x44, 0x24, 0x80, 0x3c, 
	0x30, 0x1c, 0x90, 0x3f, 0x47, 0x24, 0x80, 0x3f, 
	0x30, 0x1c, 0x90, 0x43, 0x4a, 0x24, 0x80, 0x2b, 
	0x30, 0x00, 0x80, 0x43, 0x30, 0x1c, 0x90, 0x2b, 
	0x5d, 0x00, 0x90, 0x46, 0x48, 0x24, 0x80, 0x46, 
	0x30, 0x1c, 0x90, 0x43, 0x3d, 0x24, 0x80, 0x43, 
	0x30, 0x1c, 0x90, 0x3f, 0x37, 0x24, 0x80, 0x3f, 
	0x30, 0x1c, 0x90, 0x3e, 0x3c, 0x24, 0x80, 0x2b, 
	0x30, 0x00, 0x80, 0x3e, 0x30, 0x1c, 0x90, 0x3c, 
	0x3c, 0x24, 0x80, 0x3c, 0x30, 0x1c, 0x90, 0x3e, 
	0x44, 0x24, 0x80, 0x3e, 0x30, 0x1c, 0x90, 0x3f, 
	0x46, 0x24, 0x80, 0x3f, 0x30, 0x1c, 0x90, 0x43, 
	0x47, 0x24, 0x80, 0x43, 0x30, 0x1c, 0x90, 0x30, 
	0x41, 0x00, 0x90, 0x3f, 0x3c, 0x81, 0x64, 0x80, 
	0x3f, 0x30, 0x1c, 0x90, 0x3c, 0x33, 0x64, 0x80, 
	0x30, 0x30, 0x00, 0x80, 0x3c, 0x30, 0x1c, 0x90, 
	0x30, 0x4d, 0x00, 0x90, 0x3f, 0x47, 0x81, 0x64, 
	0x80, 0x3f, 0x30, 0x1c, 0x90, 0x3c, 0x3e, 0x64, 
	0x80, 0x30, 0x30, 0x00, 0x80, 0x3c, 0x30, 0x1c, 
	0x90, 0x30, 0x50, 0x00, 0x90, 0x3f, 0x4a, 0x64, 
	0x80, 0x3f, 0x30, 0x1c, 0x90, 0x3c, 0x3a, 0x64, 
	0x80, 0x30, 0x30, 0x00, 0x80, 0x3c, 0x30, 0x1c, 
	0x90, 0x30, 0x4e, 0x00, 0x90, 0x3f, 0x46, 0x81, 
	0x64, 0x80, 0x3f, 0x30, 0x1c, 0x90, 0x3c, 0x3f, 
	0x64, 0x80, 0x30, 0x30, 0x00, 0x80, 0x3c, 0x30, 
	0x1c, 0x90, 0x30, 0x4b, 0x00, 0x90, 0x3f, 0x3f, 
	0x81, 0x64, 0x80, 0x3f, 0x30, 0x1c, 0x90, 0x3c, 
	0x3c, 0x64, 0x80, 0x30, 0x30, 0x00, 0x80, 0x3c, 
	0x30, 0x1c, 0x90, 0x30, 0x4c, 0x00, 0x90, 0x3f, 
	0x46, 0x64, 0x80, 0x3f, 0x30, 0x1c, 0x90, 0x3c, 
	0x3c, 0x64, 0x80, 0x30, 0x30, 0x00, 0x80, 0x3c, 
	0x30, 0x1c, 0x90, 0x2c, 0x4b, 0x00, 0x90, 0x43, 
	0x4c, 0x81, 0x64, 0x80, 0x43, 0x30, 0x1c, 0x90, 
	0x3c, 0x36, 0x64, 0x80, 0x2c, 0x30, 0x00, 0x80, 
	0x3c, 0x30, 0x1c, 0x90, 0x2c, 0x4b, 0x00, 0x90, 
	0x43, 0x45, 0x81, 0x64, 0x80, 0x43, 0x30, 0x1c, 
	0x90, 0x3c, 0x35, 0x64, 0x80, 0x2c, 0x30, 0x00, 
	0x80, 0x3c, 0x30, 0x1c, 0x90, 0x2c, 0x4c, 0x00, 
	0x90, 0x43, 0x4b, 0x64, 0x80, 0x43, 0x30, 0x1c, 
	0x90, 0x3c, 0x3b, 0x64, 0x80, 0x2c, 0x30, 0x00, 
	0x80, 0x3c, 0x30, 0x1c, 0x90, 0x2c, 0x4d, 0x00, 
	0x90, 0x43, 0x4f, 0x81, 0x64, 0x80, 0x43, 0x30, 
	0x1c, 0x90, 0x3c, 0x34, 0x64, 0x80, 0x2c, 0x30, 
	0x00, 0x80, 0x3c, 0x30, 0x1c, 0x90, 0x2c, 0x4c, 
	0x00, 0x90, 0x43, 0x4e, 0x81, 0x64, 0x80, 0x43, 
	0x30, 0x1c, 0x90, 0x3c, 0x39, 0x64, 0x80, 0x2c, 
	0x30, 0x00, 0x80, 0x3c, 0x30, 0x1c, 0x90, 0x2c, 
	0x54, 0x00, 0x90, 0x43, 0x50, 0x64, 0x80, 0x43, 
	0x30, 0x1c, 0x90, 0x3c, 0x37, 0x64, 0x80, 0x2c, 
	0x30, 0x00, 0x80, 0x3c, 0x30, 0x1c, 0x90, 0x29, 
	0x48, 0x00, 0x90, 0x41, 0x46, 0x81, 0x64, 0x80, 
	0x41, 0x30, 0x1c, 0x90, 0x3c, 0x39, 0x64, 0x80, 
	0x29, 0x30, 0x00, 0x80, 0x3c, 0x30, 0x1c, 0x90, 
	0x29, 0x47, 0x00, 0x90, 0x41, 0x4b, 0x81, 0x64, 
	0x80, 0x41, 0x30, 0x1c, 0x90, 0x3c, 0x39, 0x64, 
	0x80, 0x29, 0x30, 0x00, 0x80, 0x3c, 0x30, 0x1c, 
	0x90, 0x29, 0x4c, 0x00, 0x90, 0x41, 0x42, 0x64, 
	0x80, 0x41, 0x30, 0x1c, 0x90, 0x3c, 0x3a, 0x64, 
	0x80, 0x29, 0x30, 0x00, 0x80, 0x3c, 0x30, 0x1c, 
	0x90, 0x29, 0x4c, 0x00, 0x90, 0x41, 0x46, 0x81, 
	0x64, 0x80, 0x41, 0x30, 0x1c, 0x90, 0x3c, 0x3d, 
	0x64, 0x80, 0x29, 0x30, 0x00, 0x80, 0x3c, 0x30, 
	0x1c, 0x90, 0x29, 0x49, 0x00, 0x90, 0x41, 0x49, 
	0x81, 0x64, 0x80, 0x41, 0x30, 0x1c, 0x90, 0x3c, 
	0x36, 0x64, 0x80, 0x29, 0x30, 0x00, 0x80, 0x3c, 
	0x30, 0x1c, 0x90, 0x29, 0x4d, 0x00, 0x90, 0x41, 
	0x4d, 0x64, 0x80, 0x41, 0x30, 0x1c, 0x90, 0x3c, 
	0x3c, 0x64, 0x80, 0x29, 0x30, 0x00, 0x80, 0x3c, 
	0x30, 0x1c, 0x90, 0x2c, 0x54, 0x00, 0x90, 0x3f, 
	0x46, 0x81, 0x64, 0x80, 0x3f, 0x30, 0x1c, 0x90, 
	0x3c, 0x3c, 0x64, 0x80, 0x2c, 0x30, 0x00, 0x80, 
	0x3c, 0x30, 0x1c, 0x90, 0x2c, 0x4c, 0x00, 0x90, 
	0x3f, 0x45, 0x81, 0x64, 0x80, 0x3f, 0x30, 0x1c, 
	0x90, 0x3c, 0x3a, 0x64, 0x80, 0x2c, 0x30, 0x00, 
	0x80, 0x3c, 0x30, 0x1c, 0x90, 0x2c, 0x4d, 0x00, 
	0x90, 0x3f, 0x46, 0x64, 0x80, 0x3f, 0x30, 0x1c, 
	0x90, 0x3c, 0x3e, 0x64, 0x80, 0x2c, 0x30, 0x00, 
	0x80, 0x3c, 0x30, 0x1c, 0x90, 0x2c, 0x53, 0x00, 
	0x90, 0x43, 0x4f, 0x24, 0x80, 0x43, 0x30, 0x1c, 
	0x90, 0x44, 0x47, 0x24, 0x80, 0x44, 0x30, 0x1c, 
	0x90, 0x46, 0x49, 0x24, 0x80, 0x46, 0x30, 0x1c, 
	0x90, 0x48, 0x46, 0x24, 0x80, 0x2c, 0x30, 0x00, 
	0x80, 0x48, 0x30, 0x1c, 0x90, 0x2c, 0x4d, 0x00, 
	0x90, 0x44, 0x37, 0x24, 0x80, 0x44, 0x30, 0x1c, 
	0x90, 0x46, 0x42, 0x24, 0x80, 0x46, 0x30, 0x1c, 
	0x90, 0x48, 0x40, 0x24, 0x80, 0x48, 0x30, 0x1c, 
	0x90, 0x4a, 0x46, 0x24, 0x80, 0x2c, 0x30, 0x00, 
	0x80, 0x4a, 0x30, 0x1c, 0x90, 0x2c, 0x47, 0x00, 
	0x90, 0x46, 0x37, 0x24, 0x80, 0x46, 0x30, 0x1c, 
	0x90, 0x48, 0x43, 0x24, 0x80, 0x48, 0x30, 0x1c, 
	0x90, 0x4a, 0x44, 0x24, 0x80, 0x4a, 0x30, 0x1c, 
	0x90, 0x4b, 0x42, 0x24, 0x80, 0x2c, 0x30, 0x00, 
	0x80, 0x4b, 0x30, 0x1c, 0x90, 0x2c, 0x4b, 0x00, 
	0x90, 0x48, 0x3c, 0x24, 0x80, 0x48, 0x30, 0x1c, 
	0x90, 0x4a, 0x40, 0x24, 0x80, 0x4a, 0x30, 0x1c, 
	0x90, 0x4b, 0x42, 0x24, 0x80, 0x4b, 0x30, 0x1c, 
	0x90, 0x4d, 0x49, 0x24, 0x80, 0x2c, 0x30, 0x00, 
	0x80, 0x4d, 0x30, 0x1c, 0x90, 0x30, 0x51, 0x00, 
	0x90, 0x3f, 0x33, 0x64, 0x80, 0x3f, 0x30, 0x1c, 
	0x90, 0x3f, 0x3a, 0x64, 0x80, 0x3f, 0x30, 0x1c, 
	0x90, 0x3c, 0x3b, 0x64, 0x80, 0x30, 0x30, 0x00, 
	0x80, 0x3c, 0x30, 0x1c, 0x90, 0x30, 0x4d, 0x00, 
	0x90, 0x3f, 0x45, 0x64, 0x80, 0x3f, 0x30, 0x1c, 
	0x90, 0x3f, 0x3d, 0x64, 0x80, 0x3f, 0x30, 0x1c, 
	0x90, 0x3c, 0x3e, 0x64, 0x80, 0x30, 0x30, 0x00, 
	0x80, 0x3c, 0x30, 0x1c, 0x90, 0x30, 0x4a, 0x00, 
	0x90, 0x3f, 0x47, 0x64, 0x80, 0x3f, 0x30, 0x1c, 
	0x90, 0x3c, 0x3d, 0x64, 0x80, 0x30, 0x30, 0x00, 
	0x80, 0x3c, 0x30, 0x1c, 0x90, 0x30, 0x4b, 0x00, 
	0x90, 0x3f, 0x46, 0x64, 0x80, 0x3f, 0x30, 0x1c, 
	0x90, 0x3f, 0x43, 0x64, 0x80, 0x3f, 0x30, 0x1c, 
	0x90, 0x3c, 0x3b, 0x64, 0x80, 0x30, 0x30, 0x00, 
	0x80, 0x3c, 0x30, 0x1c, 0x90, 0x30, 0x4d, 0x00, 
	0x90, 0x3f, 0x45, 0x64, 0x80, 0x3f, 0x30, 0x1c, 
	0x90, 0x3f, 0x3b, 0x64, 0x80, 0x3f, 0x30, 0x1c, 
	0x90, 0x3c, 0x42, 0x64, 0x80, 0x30, 0x30, 0x00, 
	0x80, 0x3c, 0x30, 0x1c, 0x90, 0x30, 0x51, 0x00, 
	0x90, 0x3f, 0x46, 0x64, 0x80, 0x3f, 0x30, 0x1c, 
	0x90, 0x3c, 0x3d, 0x64, 0x80, 0x30, 0x30, 0x00, 
	0x80, 0x3c, 0x30, 0x1c, 0x90, 0x2c, 0x47, 0x00, 
	0x90, 0x43, 0x4d, 0x64, 0x80, 0x43, 0x30, 0x1c, 
	0x90, 0x43, 0x41, 0x64, 0x80, 0x43, 0x30, 0x1c, 
	0x90, 0x3c, 0x37, 0x64, 0x80, 0x2c, 0x30, 0x00, 
	0x80, 0x3c, 0x30, 0x1c, 0x90, 0x2c, 0x4d, 0x00, 
	0x90, 0x43, 0x49, 0x64, 0x80, 0x43, 0x30, 0x1c, 
	0x90, 0x43, 0x46, 0x64, 0x80, 0x43, 0x30, 0x1c, 
	0x90, 0x3c, 0x33, 0x64, 0x80, 0x2c, 0x30, 0x00, 
	0x80, 0x3c, 0x30, 0x1c, 0x90, 0x2c, 0x4c, 0x00, 
	0x90, 0x43, 0x49, 0x64, 0x80, 0x43, 0x30, 0x1c, 
	0x90, 0x3c, 0x39, 0x64, 0x80, 0x2c, 0x30, 0x00, 
	0x80, 0x3c, 0x30, 0x1c, 0x90, 0x2c, 0x49, 0x00, 
	0x90, 0x43, 0x49, 0x64, 0x80, 0x43, 0x30, 0x1c, 
	0x90, 0x43, 0x42, 0x64, 0x80, 0x43, 0x30, 0x1c, 
	0x90, 0x3c, 0x37, 0x64, 0x80, 0x2c, 0x30, 0x00, 
	0x80, 0x3c, 0x30, 0x1c, 0x90, 0x2c, 0x4c, 0x00, 
	0x90, 0x43, 0x4d, 0x64, 0x80, 0x43, 0x30, 0x1c, 
	0x90, 0x43, 0x41, 0x64, 0x80, 0x43, 0x30, 0x1c, 
	0x90, 0x3c, 0x31, 0x64, 0x80, 0x2c, 0x30, 0x00, 
	0x80, 0x3c, 0x30, 0x1c, 0x90, 0x2c, 0x49, 0x00, 
	0x90, 0x43, 0x47, 0x64, 0x80, 0x43, 0x30, 0x1c, 
	0x90, 0x3c, 0x36, 0x64, 0x80, 0x2c, 0x30, 0x00, 
	0x80, 0x3c, 0x30, 0x1c, 0x90, 0x29, 0x46, 0x00, 
	0x90, 0x41, 0x46, 0x64, 0x80, 0x41, 0x30, 0x1c, 
	0x90, 0x41, 0x44, 0x64, 0x80, 0x41, 0x30, 0x1c, 
	0x90, 0x3c, 0x3b, 0x64, 0x80, 0x29, 0x30, 0x00, 
	0x80, 0x3c, 0x30, 0x1c, 0x90, 0x29, 0x51, 0x00, 
	0x90, 0x41, 0x49, 0x64, 0x80, 0x41, 0x30, 0x1c, 
	0x90, 0x41, 0x43, 0x64, 0x80, 0x41, 0x30, 0x1c, 
	0x90, 0x3c, 0x38, 0x64, 0x80, 0x29, 0x30, 0x00, 
	0x80, 0x3c, 0x30, 0x1c, 0x90, 0x29, 0x4e, 0x00, 
	0x90, 0x41, 0x47, 0x64, 0x80, 0x41, 0x30, 0x1c, 
	0x90, 0x3c, 0x3b, 0x64, 0x80, 0x29, 0x30, 0x00, 
	0x80, 0x3c, 0x30, 0x1c, 0x90, 0x29, 0x4a, 0x00, 
	0x90, 0x41, 0x47, 0x64, 0x80, 0x41, 0x30, 0x1c, 
	0x90, 0x41, 0x46, 0x64, 0x80, 0x41, 0x30, 0x1c, 
	0x90, 0x3c, 0x38, 0x64, 0x80, 0x29, 0x30, 0x00, 
	0x80, 0x3c, 0x30, 0x1c, 0x90, 0x29, 0x4a, 0x00, 
	0x90, 0x41, 0x49, 0x64, 0x80, 0x41, 0x30, 0x1c, 
	0x90, 0x41, 0x42, 0x64, 0x80, 0x41, 0x30, 0x1c, 
	0x90, 0x3c, 0x3b, 0x64, 0x80, 0x29, 0x30, 0x00, 
	0x80, 0x3c, 0x30, 0x1c, 0x90, 0x29, 0x4a, 0x00, 
	0x90, 0x41, 0x49, 0x64, 0x80, 0x41, 0x30, 0x1c, 
	0x90, 0x3c, 0x39, 0x64, 0x80, 0x29, 0x30, 0x00, 
	0x80, 0x3c, 0x30, 0x1c, 0x90, 0x2c, 0x4a, 0x00, 
	0x90, 0x3f, 0x41, 0x64, 0x80, 0x3f, 0x30, 0x1c, 
	0x90, 0x3f, 0x41, 0x64, 0x80, 0x3f, 0x30, 0x1c, 
	0x90, 0x3c, 0x3e, 0x64, 0x80, 0x2c, 0x30, 0x00, 
	0x80, 0x3c, 0x30, 0x1c, 0x90, 0x2c, 0x4e, 0x00, 
	0x90, 0x3f, 0x43, 0x64, 0x80, 0x3f, 0x30, 0x1c, 
	0x90, 0x3f, 0x42, 0x64, 0x80, 0x3f, 0x30, 0x1c, 
	0x90, 0x3c, 0x3c, 0x64, 0x80, 0x2c, 0x30, 0x00, 
	0x80, 0x3c, 0x30, 0x1c, 0x90, 0x2c, 0x4c, 0x00, 
	0x90, 0x3f, 0x48, 0x64, 0x80, 0x3f, 0x30, 0x1c, 
	0x90, 0x3c, 0x40, 0x64, 0x80, 0x2c, 0x30, 0x00, 
	0x80, 0x3c, 0x30, 0x1c, 0x90, 0x2c, 0x51, 0x00, 
	0x90, 0x43, 0x4b, 0x24, 0x80, 0x43, 0x30, 0x1c, 
	0x90, 0x41, 0x3c, 0x24, 0x80, 0x41, 0x30, 0x1c, 
	0x90, 0x43, 0x48, 0x24, 0x80, 0x43, 0x30, 0x1c, 
	0x90, 0x41, 0x3d, 0x24, 0x80, 0x2c, 0x30, 0x00, 
	0x80, 0x41, 0x30, 0x1c, 0x90, 0x2c, 0x4c, 0x00, 
	0x90, 0x43, 0x42, 0x24, 0x80, 0x43, 0x30, 0x1c, 
	0x90, 0x41, 0x3b, 0x24, 0x80, 0x41, 0x30, 0x1c, 
	0x90, 0x43, 0x43, 0x24, 0x80, 0x43, 0x30, 0x1c, 
	0x90, 0x41, 0x3e, 0x24, 0x80, 0x2c, 0x30, 0x00, 
	0x80, 0x41, 0x30, 0x1c, 0x90, 0x2c, 0x4d, 0x00, 
	0x90, 0x43, 0x47, 0x24, 0x80, 0x43, 0x30, 0x1c, 
	0x90, 0x41, 0x3b, 0x24, 0x80, 0x41, 0x30, 0x1c, 
	0x90, 0x43, 0x40, 0x24, 0x80, 0x43, 0x30, 0x1c, 
	0x90, 0x41, 0x3d, 0x24, 0x80, 0x2c, 0x30, 0x00, 
	0x80, 0x41, 0x30, 0x1c, 0x90, 0x2c, 0x4f, 0x00, 
	0x90, 0x43, 0x47, 0x24, 0x80, 0x43, 0x30, 0x1c, 
	0x90, 0x41, 0x3e, 0x24, 0x80, 0x41, 0x30, 0x1c, 
	0x90, 0x43, 0x47, 0x24, 0x80, 0x43, 0x30, 0x1c, 
	0x90, 0x41, 0x3b, 0x24, 0x80, 0x2c, 0x30, 0x00, 
	0x80, 0x41, 0x30, 0x1c, 0x90, 0x30, 0x4e, 0x81, 
	0x64, 0x80, 0x30, 0x30, 0x1c, 0x90, 0x43, 0x3b, 
	0x64, 0x80, 0x43, 0x30, 0x1c, 0x90, 0x43, 0x40, 
	0x64, 0x80, 0x43, 0x30, 0x1c, 0x90, 0x43, 0x42, 
	0x81, 0x64, 0x80, 0x43, 0x30, 0x1c, 0x90, 0x41, 
	0x3c, 0x64, 0x80, 0x41, 0x30, 0x1c, 0x90, 0x3f, 
	0x3c, 0x64, 0x80, 0x3f, 0x30, 0x1c, 0x90, 0x41, 
	0x41, 0x81, 0x64, 0x80, 0x41, 0x30, 0x1c, 0x90, 
	0x43, 0x4c, 0x81, 0x64, 0x80, 0x43, 0x30, 0x82, 
	0x1c, 0x90, 0x41, 0x36, 0x64, 0x80, 0x41, 0x30, 
	0x1c, 0x90, 0x3f, 0x38, 0x64, 0x80, 0x3f, 0x30, 
	0x1c, 0x90, 0x2c, 0x43, 0x00, 0x90, 0x41, 0x47, 
	0x81, 0x64, 0x80, 0x41, 0x30, 0x1c, 0x90, 0x43, 
	0x46, 0x64, 0x80, 0x43, 0x30, 0x1c, 0x90, 0x41, 
	0x3e, 0x81, 0x64, 0x80, 0x41, 0x30, 0x1c, 0x90, 
	0x3f, 0x42, 0x81, 0x64, 0x80, 0x3f, 0x30, 0x1c, 
	0x90, 0x3c, 0x37, 0x84, 0x64, 0x80, 0x3c, 0x30, 
	0x82, 0x1c, 0x90, 0x41, 0x3c, 0x64, 0x80, 0x41, 
	0x30, 0x1c, 0x90, 0x3f, 0x3a, 0x64, 0x80, 0x2c, 
	0x30, 0x00, 0x80, 0x3f, 0x30, 0x1c, 0x90, 0x2e, 
	0x51, 0x00, 0x90, 0x41, 0x46, 0x81, 0x64, 0x80, 
	0x41, 0x30, 0x1c, 0x90, 0x41, 0x41, 0x81, 0x64, 
	0x80, 0x41, 0x30, 0x1c, 0x90, 0x41, 0x41, 0x81, 
	0x64, 0x80, 0x41, 0x30, 0x1c, 0x90, 0x3f, 0x3a, 
	0x81, 0x64, 0x80, 0x3f, 0x30, 0x1c, 0x90, 0x41, 
	0x44, 0x81, 0x64, 0x80, 0x41, 0x30, 0x1c, 0x90, 
	0x43, 0x43, 0x64, 0x80, 0x43, 0x30, 0x1c, 0x90, 
	0x41, 0x3b, 0x82, 0x64, 0x80, 0x41, 0x30, 0x1c, 
	0x90, 0x3f, 0x3c, 0x81, 0x64, 0x80, 0x2e, 0x30, 
	0x00, 0x80, 0x3f, 0x30, 0x1c, 0x90, 0x2e, 0x4a, 
	0x00, 0x90, 0x41, 0x4b, 0x81, 0x64, 0x80, 0x41, 
	0x30, 0x00, 0x80, 0x2e, 0x30, 0x1c, 0x90, 0x2e, 
	0x48, 0x00, 0x90, 0x43, 0x42, 0x81, 0x64, 0x80, 
	0x43, 0x30, 0x00, 0x80, 0x2e, 0x30, 0x1c, 0x90, 
	0x2e, 0x4b, 0x00, 0x90, 0x41, 0x3f, 0x64, 0x80, 
	0x41, 0x30, 0x1c, 0x90, 0x3f, 0x40, 0x64, 0x80, 
	0x2e, 0x30, 0x1c, 0x90, 0x2e, 0x4e, 0x64, 0x80, 
	0x3f, 0x30, 0x1c, 0x90, 0x3c, 0x38, 0x64, 0x80, 
	0x2e, 0x30, 0x00, 0x80, 0x3c, 0x30, 0x1c, 0x90, 
	0x30, 0x4f, 0x81, 0x00, 0x90, 0x4b, 0x3b, 0x24, 
	0x80, 0x4b, 0x30, 0x1c, 0x90, 0x54, 0x54, 0x24, 
	0x80, 0x30, 0x30, 0x00, 0x80, 0x54, 0x30, 0x1c, 
	0x90, 0x30, 0x4b, 0x00, 0x90, 0x57, 0x43, 0x24, 
	0x80, 0x57, 0x30, 0x1c, 0x90, 0x54, 0x39, 0x24, 
	0x80, 0x54, 0x30, 0x1c, 0x90, 0x4f, 0x35, 0x64, 
	0x80, 0x30, 0x30, 0x00, 0x80, 0x4f, 0x30, 0x1c, 
	0x90, 0x30, 0x4c, 0x00, 0x90, 0x4b, 0x37, 0x24, 
	0x80, 0x4b, 0x30, 0x1c, 0x90, 0x4f, 0x48, 0x24, 
	0x80, 0x4f, 0x30, 0x1c, 0x90, 0x4b, 0x3a, 0x24, 
	0x80, 0x4b, 0x30, 0x1c, 0x90, 0x4f, 0x4a, 0x24, 
	0x80, 0x30, 0x30, 0x00, 0x80, 0x4f, 0x30, 0x1c, 
	0x90, 0x30, 0x4a, 0x00, 0x90, 0x54, 0x49, 0x81, 
	0x64, 0x80, 0x54, 0x30, 0x00, 0x80, 0x30, 0x30, 
	0x1c, 0x90, 0x30, 0x51, 0x64, 0x80, 0x30, 0x30, 
	0x1c, 0x90, 0x37, 0x56, 0x64, 0x80, 0x37, 0x30, 
	0x1c, 0x90, 0x30, 0x45, 0x00, 0x90, 0x43, 0x3d, 
	0x64, 0x80, 0x43, 0x30, 0x00, 0x80, 0x30, 0x30, 
	0x1c, 0x90, 0x37, 0x53, 0x00, 0x90, 0x43, 0x41, 
	0x64, 0x80, 0x43, 0x30, 0x00, 0x80, 0x37, 0x30, 
	0x1c, 0x90, 0x30, 0x46, 0x00, 0x90, 0x43, 0x40, 
	0x64, 0x80, 0x30, 0x30, 0x1c, 0x90, 0x37, 0x51, 
	0x64, 0x80, 0x43, 0x30, 0x00, 0x80, 0x37, 0x30, 
	0x1c, 0x90, 0x30, 0x43, 0x00, 0x90, 0x41, 0x3f, 
	0x64, 0x80, 0x41, 0x30, 0x00, 0x80, 0x30, 0x30, 
	0x1c, 0x90, 0x37, 0x52, 0x00, 0x90, 0x3f, 0x3a, 
	0x64, 0x80, 0x3f, 0x30, 0x00, 0x80, 0x37, 0x30, 
	0x1c, 0x90, 0x30, 0x45, 0x00, 0x90, 0x41, 0x46, 
	0x64, 0x80, 0x30, 0x30, 0x1c, 0x90, 0x37, 0x50, 
	0x64, 0x80, 0x41, 0x30, 0x00, 0x80, 0x37, 0x30, 
	0x1c, 0x90, 0x30, 0x46, 0x00, 0x90, 0x3f, 0x3c, 
	0x64, 0x80, 0x3f, 0x30, 0x00, 0x80, 0x30, 0x30, 
	0x1c, 0x90, 0x37, 0x51, 0x00, 0x90, 0x43, 0x44, 
	0x64, 0x80, 0x37, 0x30, 0x1c, 0x90, 0x30, 0x49, 
	0x64, 0x80, 0x30, 0x30, 0x1c, 0x90, 0x37, 0x52, 
	0x64, 0x80, 0x43, 0x30, 0x00, 0x80, 0x37, 0x30, 
	0x1c, 0x90, 0x30, 0x47, 0x00, 0x90, 0x3c, 0x36, 
	0x64, 0x80, 0x3c, 0x30, 0x00, 0x80, 0x30, 0x30, 
	0x1c, 0x90, 0x37, 0x4e, 0x00, 0x90, 0x3f, 0x45, 
	0x64, 0x80, 0x3f, 0x30, 0x00, 0x80, 0x37, 0x30, 
	0x1c, 0x90, 0x2c, 0x42, 0x00, 0x90, 0x41, 0x44, 
	0x64, 0x80, 0x2c, 0x30, 0x1c, 0x90, 0x33, 0x4f, 
	0x64, 0x80, 0x41, 0x30, 0x00, 0x80, 0x33, 0x30, 
	0x1c, 0x90, 0x2c, 0x48, 0x00, 0x90, 0x43, 0x42, 
	0x64, 0x80, 0x2c, 0x30, 0x1c, 0x90, 0x33, 0x50, 
	0x64, 0x80, 0x43, 0x30, 0x00, 0x80, 0x33, 0x30, 
	0x1c, 0x90, 0x2c, 0x47, 0x00, 0x90, 0x41, 0x40, 
	0x64, 0x80, 0x41, 0x30, 0x00, 0x80, 0x2c, 0x30, 
	0x1c, 0x90, 0x33, 0x50, 0x00, 0x90, 0x3f, 0x3c, 
	0x64, 0x80, 0x33, 0x30, 0x1c, 0x90, 0x2c, 0x49, 
	0x64, 0x80, 0x3f, 0x30, 0x00, 0x80, 0x2c, 0x30, 
	0x1c, 0x90, 0x33, 0x4f, 0x00, 0x90, 0x3c, 0x3a, 
	0x64, 0x80, 0x33, 0x30, 0x1c, 0x90, 0x2c, 0x44, 
	0x64, 0x80, 0x2c, 0x30, 0x1c, 0x90, 0x33, 0x58, 
	0x64, 0x80, 0x33, 0x30, 0x1c, 0x90, 0x2c, 0x47, 
	0x64, 0x80, 0x2c, 0x30, 0x1c, 0x90, 0x33, 0x54, 
	0x64, 0x80, 0x3c, 0x30, 0x00, 0x80, 0x33, 0x30, 
	0x1c, 0x90, 0x2c, 0x46, 0x64, 0x80, 0x2c, 0x30, 
	0x1c, 0x90, 0x33, 0x54, 0x64, 0x80, 0x33, 0x30, 
	0x1c, 0x90, 0x2c, 0x49, 0x00, 0x90, 0x3f, 0x39, 
	0x64, 0x80, 0x2c, 0x30, 0x1c, 0x90, 0x33, 0x50, 
	0x64, 0x80, 0x3f, 0x30, 0x00, 0x80, 0x33, 0x30, 
	0x1c, 0x90, 0x2e, 0x4a, 0x00, 0x90, 0x41, 0x41, 
	0x64, 0x80, 0x2e, 0x30, 0x1c, 0x90, 0x35, 0x55, 
	0x64, 0x80, 0x41, 0x30, 0x00, 0x80, 0x35, 0x30, 
	0x1c, 0x90, 0x2e, 0x46, 0x00, 0x90, 0x41, 0x3f, 
	0x64, 0x80, 0x41, 0x30, 0x00, 0x80, 0x2e, 0x30, 
	0x1c, 0x90, 0x35, 0x54, 0x00, 0x90, 0x41, 0x3f, 
	0x64, 0x80, 0x35, 0x30, 0x1c, 0x90, 0x2e, 0x48, 
	0x64, 0x80, 0x2e, 0x30, 0x1c, 0x90, 0x35, 0x55, 
	0x64, 0x80, 0x41, 0x30, 0x00, 0x80, 0x35, 0x30, 
	0x1c, 0x90, 0x2e, 0x45, 0x00, 0x90, 0x3f, 0x3d, 
	0x64, 0x80, 0x2e, 0x30, 0x1c, 0x90, 0x35, 0x54, 
	0x64, 0x80, 0x3f, 0x30, 0x00, 0x80, 0x35, 0x30, 
	0x1c, 0x90, 0x2e, 0x48, 0x00, 0x90, 0x41, 0x46, 
	0x64, 0x80, 0x2e, 0x30, 0x1c, 0x90, 0x35, 0x54, 
	0x64, 0x80, 0x41, 0x30, 0x00, 0x80, 0x35, 0x30, 
	0x1c, 0x90, 0x2e, 0x45, 0x00, 0x90, 0x43, 0x46, 
	0x64, 0x80, 0x43, 0x30, 0x00, 0x80, 0x2e, 0x30, 
	0x1c, 0x90, 0x35, 0x53, 0x00, 0x90, 0x41, 0x3c, 
	0x64, 0x80, 0x35, 0x30, 0x1c, 0x90, 0x2e, 0x49, 
	0x64, 0x80, 0x2e, 0x30, 0x1c, 0x90, 0x35, 0x55, 
	0x64, 0x80, 0x35, 0x30, 0x1c, 0x90, 0x2e, 0x4d, 
	0x64, 0x80, 0x2e, 0x30, 0x1c, 0x90, 0x35, 0x54, 
	0x64, 0x80, 0x41, 0x30, 0x00, 0x80, 0x35, 0x30, 
	0x1c, 0x90, 0x2e, 0x4a, 0x00, 0x90, 0x41, 0x41, 
	0x64, 0x80, 0x2e, 0x30, 0x1c, 0x90, 0x35, 0x50, 
	0x64, 0x80, 0x41, 0x30, 0x00, 0x80, 0x35, 0x30, 
	0x1c, 0x90, 0x2e, 0x47, 0x00, 0x90, 0x43, 0x44, 
	0x64, 0x80, 0x43, 0x30, 0x00, 0x80, 0x2e, 0x30, 
	0x1c, 0x90, 0x35, 0x53, 0x00, 0x90, 0x41, 0x3b, 
	0x64, 0x80, 0x35, 0x30, 0x1c, 0x90, 0x2e, 0x48, 
	0x64, 0x80, 0x2e, 0x30, 0x1c, 0x90, 0x35, 0x53, 
	0x64, 0x80, 0x41, 0x30, 0x00, 0x80, 0x35, 0x30, 
	0x1c, 0x90, 0x2e, 0x43, 0x00, 0x90, 0x3f, 0x3c, 
	0x64, 0x80, 0x2e, 0x30, 0x1c, 0x90, 0x35, 0x55, 
	0x64, 0x80, 0x3f, 0x30, 0x00, 0x80, 0x35, 0x30, 
	0x1c, 0x90, 0x30, 0x45, 0x00, 0x90, 0x3c, 0x3d, 
	0x64, 0x80, 0x30, 0x30, 0x1c, 0x90, 0x37, 0x50, 
	0x64, 0x80, 0x37, 0x30, 0x1c, 0x90, 0x30, 0x41, 
	0x64, 0x80, 0x30, 0x30, 0x1c, 0x90, 0x37, 0x51, 
	0x64, 0x80, 0x37, 0x30, 0x1c, 0x90, 0x30, 0x48, 
	0x64, 0x80, 0x30, 0x30, 0x1c, 0x90, 0x37, 0x4d, 
	0x64, 0x80, 0x3c, 0x30, 0x00, 0x80, 0x37, 0x30, 
	0x1c, 0x90, 0x30, 0x46, 0x64, 0x80, 0x30, 0x30, 
	0x1c, 0x90, 0x37, 0x4d, 0x64, 0x80, 0x37, 0x30, 
	0x1c, 0x90, 0x30, 0x46, 0x64, 0x80, 0x30, 0x30, 
	0x1c, 0x90, 0x37, 0x52, 0x64, 0x80, 0x37, 0x30, 
	0x1c, 0x90, 0x30, 0x47, 0x00, 0x90, 0x43, 0x39, 
	0x64, 0x80, 0x43, 0x30, 0x00, 0x80, 0x30, 0x30, 
	0x1c, 0x90, 0x37, 0x53, 0x00, 0x90, 0x43, 0x41, 
	0x64, 0x80, 0x43, 0x30, 0x00, 0x80, 0x37, 0x30, 
	0x1c, 0x90, 0x30, 0x46, 0x00, 0x90, 0x43, 0x3e, 
	0x64, 0x80, 0x30, 0x30, 0x1c, 0x90, 0x37, 0x52, 
	0x64, 0x80, 0x43, 0x30, 0x00, 0x80, 0x37, 0x30, 
	0x1c, 0x90, 0x30, 0x49, 0x00, 0x90, 0x41, 0x3b, 
	0x64, 0x80, 0x41, 0x30, 0x00, 0x80, 0x30, 0x30, 
	0x1c, 0x90, 0x37, 0x50, 0x00, 0x90, 0x3f, 0x3b, 
	0x64, 0x80, 0x3f, 0x30, 0x00, 0x80, 0x37, 0x30, 
	0x1c, 0x90, 0x30, 0x4a, 0x00, 0x90, 0x41, 0x48, 
	0x64, 0x80, 0x41, 0x30, 0x00, 0x80, 0x30, 0x30, 
	0x1c, 0x90, 0x37, 0x55, 0x00, 0x90, 0x41, 0x40, 
	0x64, 0x80, 0x37, 0x30, 0x1c, 0x90, 0x30, 0x45, 
	0x64, 0x80, 0x41, 0x30, 0x00, 0x80, 0x30, 0x30, 
	0x1c, 0x90, 0x37, 0x55, 0x00, 0x90, 0x3f, 0x3f, 
	0x64, 0x80, 0x3f, 0x30, 0x00, 0x80, 0x37, 0x30, 
	0x1c, 0x90, 0x30, 0x49, 0x00, 0x90, 0x43, 0x48, 
	0x64, 0x80, 0x30, 0x30, 0x1c, 0x90, 0x37, 0x54, 
	0x64, 0x80, 0x43, 0x30, 0x00, 0x80, 0x37, 0x30, 
	0x1c, 0x90, 0x30, 0x40, 0x00, 0x90, 0x3c, 0x3a, 
	0x64, 0x80, 0x3c, 0x30, 0x00, 0x80, 0x30, 0x30, 
	0x1c, 0x90, 0x37, 0x54, 0x00, 0x90, 0x3f, 0x46, 
	0x64, 0x80, 0x3f, 0x30, 0x00, 0x80, 0x37, 0x30, 
	0x1c, 0x90, 0x2c, 0x3f, 0x00, 0x90, 0x41, 0x43, 
	0x64, 0x80, 0x2c, 0x30, 0x1c, 0x90, 0x33, 0x52, 
	0x64, 0x80, 0x41, 0x30, 0x00, 0x80, 0x33, 0x30, 
	0x1c, 0x90, 0x2c, 0x47, 0x00, 0x90, 0x43, 0x42, 
	0x64, 0x80, 0x2c, 0x30, 0x1c, 0x90, 0x33, 0x50, 
	0x64, 0x80, 0x43, 0x30, 0x00, 0x80, 0x33, 0x30, 
	0x1c, 0x90, 0x2c, 0x4a, 0x00, 0x90, 0x41, 0x3a, 
	0x64, 0x80, 0x41, 0x30, 0x00, 0x80, 0x2c, 0x30, 
	0x1c, 0x90, 0x33, 0x51, 0x00, 0x90, 0x3f, 0x3d, 
	0x64, 0x80, 0x33, 0x30, 0x1c, 0x90, 0x2c, 0x49, 
	0x64, 0x80, 0x3f, 0x30, 0x00, 0x80, 0x2c, 0x30, 
	0x1c, 0x90, 0x33, 0x52, 0x00, 0x90, 0x3c, 0x3c, 
	0x64, 0x80, 0x33, 0x30, 0x1c, 0x90, 0x2c, 0x45, 
	0x64, 0x80, 0x3c, 0x30, 0x00, 0x80, 0x2c, 0x30, 
	0x1c, 0x90, 0x33, 0x54, 0x00, 0x90, 0x3f, 0x45, 
	0x64, 0x80, 0x33, 0x30, 0x1c, 0x90, 0x2c, 0x46, 
	0x64, 0x80, 0x2c, 0x30, 0x1c, 0x90, 0x33, 0x54, 
	0x64, 0x80, 0x3f, 0x30, 0x00, 0x80, 0x33, 0x30, 
	0x1c, 0x90, 0x2c, 0x4b, 0x64, 0x80, 0x2c, 0x30, 
	0x1c, 0x90, 0x33, 0x51, 0x64, 0x80, 0x33, 0x30, 
	0x1c, 0x90, 0x2c, 0x4b, 0x00, 0x90, 0x3f, 0x34, 
	0x64, 0x80, 0x2c, 0x30, 0x1c, 0x90, 0x33, 0x51, 
	0x64, 0x80, 0x3f, 0x30, 0x00, 0x80, 0x33, 0x30, 
	0x1c, 0x90, 0x2e, 0x46, 0x00, 0x90, 0x41, 0x47, 
	0x64, 0x80, 0x2e, 0x30, 0x1c, 0x90, 0x35, 0x50, 
	0x64, 0x80, 0x41, 0x30, 0x00, 0x80, 0x35, 0x30, 
	0x1c, 0x90, 0x2e, 0x47, 0x00, 0x90, 0x41, 0x40, 
	0x64, 0x80, 0x41, 0x30, 0x00, 0x80, 0x2e, 0x30, 
	0x1c, 0x90, 0x35, 0x53, 0x00, 0x90, 0x41, 0x45, 
	0x64, 0x80, 0x35, 0x30, 0x1c, 0x90, 0x2e, 0x46, 
	0x64, 0x80, 0x2e, 0x30, 0x1c, 0x90, 0x35, 0x53, 
	0x64, 0x80, 0x41, 0x30, 0x00, 0x80, 0x35, 0x30, 
	0x1c, 0x90, 0x2e, 0x45, 0x00, 0x90, 0x3f, 0x3d, 
	0x64, 0x80, 0x2e, 0x30, 0x1c, 0x90, 0x35, 0x52, 
	0x64, 0x80, 0x3f, 0x30, 0x00, 0x80, 0x35, 0x30, 
	0x1c, 0x90, 0x2e, 0x48, 0x00, 0x90, 0x41, 0x42, 
	0x64, 0x80, 0x2e, 0x30, 0x1c, 0x90, 0x35, 0x4e, 
	0x64, 0x80, 0x41, 0x30, 0x00, 0x80, 0x35, 0x30, 
	0x1c, 0x90, 0x2e, 0x47, 0x00, 0x90, 0x43, 0x43, 
	0x64, 0x80, 0x43, 0x30, 0x00, 0x80, 0x2e, 0x30, 
	0x1c, 0x90, 0x35, 0x52, 0x00, 0x90, 0x41, 0x3c, 
	0x64, 0x80, 0x35, 0x30, 0x1c, 0x90, 0x2e, 0x49, 
	0x64, 0x80, 0x2e, 0x30, 0x1c, 0x90, 0x35, 0x56, 
	0x64, 0x80, 0x41, 0x30, 0x00, 0x80, 0x35, 0x30, 
	0x1c, 0x90, 0x2e, 0x48, 0x00, 0x90, 0x3f, 0x40, 
	0x64, 0x80, 0x2e, 0x30, 0x1c, 0x90, 0x35, 0x51, 
	0x64, 0x80, 0x3f, 0x30, 0x00, 0x80, 0x35, 0x30, 
	0x1c, 0x90, 0x2e, 0x4d, 0x00, 0x90, 0x41, 0x42, 
	0x64, 0x80, 0x2e, 0x30, 0x1c, 0x90, 0x35, 0x50, 
	0x64, 0x80, 0x41, 0x30, 0x00, 0x80, 0x35, 0x30, 
	0x1c, 0x90, 0x2e, 0x42, 0x00, 0x90, 0x43, 0x45, 
	0x64, 0x80, 0x43, 0x30, 0x00, 0x80, 0x2e, 0x30, 
	0x1c, 0x90, 0x35, 0x52, 0x00, 0x90, 0x41, 0x3f, 
	0x64, 0x80, 0x35, 0x30, 0x1c, 0x90, 0x2e, 0x45, 
	0x64, 0x80, 0x2e, 0x30, 0x1c, 0x90, 0x35, 0x4f, 
	0x64, 0x80, 0x41, 0x30, 0x00, 0x80, 0x35, 0x30, 
	0x1c, 0x90, 0x2e, 0x44, 0x00, 0x90, 0x3f, 0x41, 
	0x64, 0x80, 0x2e, 0x30, 0x1c, 0x90, 0x35, 0x59, 
	0x64, 0x80, 0x3f, 0x30, 0x00, 0x80, 0x35, 0x30, 
	0x1c, 0x90, 0x30, 0x49, 0x00, 0x90, 0x3c, 0x37, 
	0x64, 0x80, 0x30, 0x30, 0x1c, 0x90, 0x37, 0x51, 
	0x64, 0x80, 0x3c, 0x30, 0x00, 0x80, 0x37, 0x30, 
	0x1c, 0x90, 0x30, 0x47, 0x64, 0x80, 0x30, 0x30, 
	0x1c, 0x90, 0x37, 0x53, 0x64, 0x80, 0x37, 0x30, 
	0x1c, 0x90, 0x30, 0x48, 0x00, 0x90, 0x41, 0x3b, 
	0x64, 0x80, 0x30, 0x30, 0x1c, 0x90, 0x37, 0x4f, 
	0x64, 0x80, 0x41, 0x30, 0x00, 0x80, 0x37, 0x30, 
	0x1c, 0x90, 0x30, 0x49, 0x00, 0x90, 0x43, 0x43, 
	0x64, 0x80, 0x30, 0x30, 0x1c, 0x90, 0x37, 0x4f, 
	0x64, 0x80, 0x43, 0x30, 0x00, 0x80, 0x37, 0x30, 
	0x1c, 0x90, 0x2c, 0x43, 0x00, 0x90, 0x44, 0x48, 
	0x64, 0x80, 0x2c, 0x30, 0x1c, 0x90, 0x33, 0x50, 
	0x64, 0x80, 0x44, 0x30, 0x00, 0x80, 0x33, 0x30, 
	0x1c, 0x90, 0x2c, 0x49, 0x00, 0x90, 0x44, 0x41, 
	0x64, 0x80, 0x44, 0x30, 0x00, 0x80, 0x2c, 0x30, 
	0x1c, 0x90, 0x33, 0x52, 0x00, 0x90, 0x43, 0x3e, 
	0x64, 0x80, 0x33, 0x30, 0x1c, 0x90, 0x2c, 0x46, 
	0x64, 0x80, 0x2c, 0x30, 0x1c, 0x90, 0x33, 0x52, 
	0x64, 0x80, 0x43, 0x30, 0x00, 0x80, 0x33, 0x30, 
	0x1c, 0x90, 0x2c, 0x44, 0x00, 0x90, 0x41, 0x3e, 
	0x64, 0x80, 0x2c, 0x30, 0x1c, 0x90, 0x33, 0x50, 
	0x64, 0x80, 0x41, 0x30, 0x00, 0x80, 0x33, 0x30, 
	0x1c, 0x90, 0x2c, 0x44, 0x00, 0x90, 0x44, 0x43, 
	0x64, 0x80, 0x2c, 0x30, 0x1c, 0x90, 0x33, 0x55, 
	0x64, 0x80, 0x44, 0x30, 0x00, 0x80, 0x33, 0x30, 
	0x1c, 0x90, 0x2c, 0x4a, 0x00, 0x90, 0x44, 0x40, 
	0x64, 0x80, 0x44, 0x30, 0x00, 0x80, 0x2c, 0x30, 
	0x1c, 0x90, 0x33, 0x50, 0x00, 0x90, 0x43, 0x3c, 
	0x64, 0x80, 0x33, 0x30, 0x1c, 0x90, 0x2c, 0x40, 
	0x64, 0x80, 0x2c, 0x30, 0x1c, 0x90, 0x33, 0x53, 
	0x64, 0x80, 0x43, 0x30, 0x00, 0x80, 0x33, 0x30, 
	0x1c, 0x90, 0x2c, 0x46, 0x00, 0x90, 0x41, 0x3c, 
	0x64, 0x80, 0x2c, 0x30, 0x1c, 0x90, 0x33, 0x54, 
	0x64, 0x80, 0x41, 0x30, 0x00, 0x80, 0x33, 0x30, 
	0x1c, 0x90, 0x30, 0x4c, 0x00, 0x90, 0x43, 0x46, 
	0x64, 0x80, 0x30, 0x30, 0x1c, 0x90, 0x37, 0x56, 
	0x64, 0x80, 0x43, 0x30, 0x00, 0x80, 0x37, 0x30, 
	0x1c, 0x90, 0x30, 0x4b, 0x00, 0x90, 0x43, 0x44, 
	0x64, 0x80, 0x43, 0x30, 0x00, 0x80, 0x30, 0x30, 
	0x1c, 0x90, 0x37, 0x51, 0x00, 0x90, 0x41, 0x3d, 
	0x64, 0x80, 0x37, 0x30, 0x1c, 0x90, 0x30, 0x46, 
	0x64, 0x80, 0x30, 0x30, 0x1c, 0x90, 0x37, 0x51, 
	0x64, 0x80, 0x41, 0x30, 0x00, 0x80, 0x37, 0x30, 
	0x1c, 0x90, 0x30, 0x48, 0x00, 0x90, 0x3f, 0x3c, 
	0x64, 0x80, 0x30, 0x30, 0x1c, 0x90, 0x37, 0x4e, 
	0x64, 0x80, 0x3f, 0x30, 0x00, 0x80, 0x37, 0x30, 
	0x1c, 0x90, 0x30, 0x45, 0x00, 0x90, 0x41, 0x45, 
	0x64, 0x80, 0x30, 0x30, 0x1c, 0x90, 0x37, 0x50, 
	0x64, 0x80, 0x41, 0x30, 0x00, 0x80, 0x37, 0x30, 
	0x1c, 0x90, 0x30, 0x47, 0x00, 0x90, 0x3f, 0x3b, 
	0x64, 0x80, 0x3f, 0x30, 0x00, 0x80, 0x30, 0x30, 
	0x1c, 0x90, 0x37, 0x4f, 0x00, 0x90, 0x3c, 0x37, 
	0x64, 0x80, 0x37, 0x30, 0x1c, 0x90, 0x30, 0x41, 
	0x64, 0x80, 0x30, 0x30, 0x1c, 0x90, 0x37, 0x51, 
	0x64, 0x80, 0x3c, 0x30, 0x00, 0x80, 0x37, 0x30, 
	0x1c, 0x90, 0x30, 0x45, 0x00, 0x90, 0x43, 0x4d, 
	0x64, 0x80, 0x30, 0x30, 0x1c, 0x90, 0x37, 0x4d, 
	0x64, 0x80, 0x43, 0x30, 0x00, 0x80, 0x37, 0x30, 
	0x1c, 0x90, 0x2c, 0x45, 0x00, 0x90, 0x44, 0x45, 
	0x64, 0x80, 0x2c, 0x30, 0x1c, 0x90, 0x33, 0x51, 
	0x64, 0x80, 0x44, 0x30, 0x00, 0x80, 0x33, 0x30, 
	0x1c, 0x90, 0x2c, 0x45, 0x00, 0x90, 0x44, 0x3e, 
	0x64, 0x80, 0x44, 0x30, 0x00, 0x80, 0x2c, 0x30, 
	0x1c, 0x90, 0x33, 0x54, 0x00, 0x90, 0x43, 0x3f, 
	0x64, 0x80, 0x33, 0x30, 0x1c, 0x90, 0x2c, 0x46, 
	0x64, 0x80, 0x2c, 0x30, 0x1c, 0x90, 0x33, 0x52, 
	0x64, 0x80, 0x43, 0x30, 0x00, 0x80, 0x33, 0x30, 
	0x1c, 0x90, 0x2c, 0x46, 0x00, 0x90, 0x41, 0x41, 
	0x64, 0x80, 0x2c, 0x30, 0x1c, 0x90, 0x33, 0x53, 
	0x64, 0x80, 0x41, 0x30, 0x00, 0x80, 0x33, 0x30, 
	0x1c, 0x90, 0x2c, 0x49, 0x00, 0x90, 0x44, 0x49, 
	0x64, 0x80, 0x2c, 0x30, 0x1c, 0x90, 0x33, 0x55, 
	0x64, 0x80, 0x44, 0x30, 0x00, 0x80, 0x33, 0x30, 
	0x1c, 0x90, 0x2c, 0x42, 0x00, 0x90, 0x44, 0x41, 
	0x64, 0x80, 0x44, 0x30, 0x00, 0x80, 0x2c, 0x30, 
	0x1c, 0x90, 0x33, 0x53, 0x00, 0x90, 0x43, 0x3e, 
	0x64, 0x80, 0x33, 0x30, 0x1c, 0x90, 0x2c, 0x41, 
	0x64, 0x80, 0x2c, 0x30, 0x1c, 0x90, 0x33, 0x53, 
	0x64, 0x80, 0x43, 0x30, 0x00, 0x80, 0x33, 0x30, 
	0x1c, 0x90, 0x2c, 0x47, 0x00, 0x90, 0x41, 0x3d, 
	0x64, 0x80, 0x2c, 0x30, 0x1c, 0x90, 0x33, 0x4f, 
	0x64, 0x80, 0x41, 0x30, 0x00, 0x80, 0x33, 0x30, 
	0x1c, 0x90, 0x2e, 0x46, 0x00, 0x90, 0x46, 0x4a, 
	0x64, 0x80, 0x2e, 0x30, 0x1c, 0x90, 0x35, 0x52, 
	0x64, 0x80, 0x35, 0x30, 0x1c, 0x90, 0x2e, 0x43, 
	0x64, 0x80, 0x2e, 0x30, 0x1c, 0x90, 0x35, 0x52, 
	0x64, 0x80, 0x35, 0x30, 0x1c, 0x90, 0x2e, 0x43, 
	0x64, 0x80, 0x2e, 0x30, 0x1c, 0x90, 0x35, 0x52, 
	0x64, 0x80, 0x35, 0x30, 0x1c, 0x90, 0x2e, 0x42, 
	0x64, 0x80, 0x2e, 0x30, 0x1c, 0x90, 0x35, 0x54, 
	0x64, 0x80, 0x46, 0x30, 0x00, 0x80, 0x35, 0x30, 
	0x1c, 0x90, 0x2e, 0x46, 0x82, 0x00, 0x90, 0x3a, 
	0x3c, 0x81, 0x64, 0x80, 0x3a, 0x30, 0x1c, 0x90, 
	0x3f, 0x42, 0x81, 0x64, 0x80, 0x3f, 0x30, 0x1c, 
	0x90, 0x41, 0x49, 0x81, 0x64, 0x80, 0x2e, 0x30, 
	0x00, 0x80, 0x41, 0x30, 0x1c, 0x90, 0x27, 0x42, 
	0x00, 0x90, 0x43, 0x45, 0x64, 0x80, 0x27, 0x30, 
	0x1c, 0x90, 0x2e, 0x52, 0x64, 0x80, 0x2e, 0x30, 
	0x1c, 0x90, 0x27, 0x44, 0x64, 0x80, 0x43, 0x30, 
	0x00, 0x80, 0x27, 0x30, 0x1c, 0x90, 0x2e, 0x56, 
	0x00, 0x90, 0x41, 0x3e, 0x64, 0x80, 0x2e, 0x30, 
	0x1c, 0x90, 0x27, 0x4b, 0x64, 0x80, 0x27, 0x30, 
	0x1c, 0x90, 0x2e, 0x55, 0x64, 0x80, 0x41, 0x30, 
	0x00, 0x80, 0x2e, 0x30, 0x1c, 0x90, 0x27, 0x4a, 
	0x00, 0x90, 0x3f, 0x3b, 0x64, 0x80, 0x27, 0x30, 
	0x1c, 0x90, 0x2e, 0x50, 0x64, 0x80, 0x3f, 0x30, 
	0x00, 0x80, 0x2e, 0x30, 0x1c, 0x90, 0x2e, 0x4a, 
	0x00, 0x90, 0x46, 0x4a, 0x64, 0x80, 0x2e, 0x30, 
	0x1c, 0x90, 0x35, 0x4e, 0x64, 0x80, 0x35, 0x30, 
	0x1c, 0x90, 0x2e, 0x49, 0x64, 0x80, 0x2e, 0x30, 
	0x1c, 0x90, 0x35, 0x57, 0x64, 0x80, 0x35, 0x30, 
	0x1c, 0x90, 0x2e, 0x4b, 0x64, 0x80, 0x2e, 0x30, 
	0x1c, 0x90, 0x35, 0x57, 0x64, 0x80, 0x46, 0x30, 
	0x00, 0x80, 0x35, 0x30, 0x1c, 0x90, 0x2e, 0x46, 
	0x00, 0x90, 0x46, 0x43, 0x64, 0x80, 0x2e, 0x30, 
	0x1c, 0x90, 0x35, 0x54, 0x64, 0x80, 0x46, 0x30, 
	0x00, 0x80, 0x35, 0x30, 0x1c, 0x90, 0x2c, 0x46, 
	0x00, 0x90, 0x46, 0x3c, 0x64, 0x80, 0x2c, 0x30, 
	0x1c, 0x90, 0x33, 0x54, 0x64, 0x80, 0x46, 0x30, 
	0x00, 0x80, 0x33, 0x30, 0x1c, 0x90, 0x2c, 0x4a, 
	0x00, 0x90, 0x46, 0x3e, 0x64, 0x80, 0x46, 0x30, 
	0x00, 0x80, 0x2c, 0x30, 0x1c, 0x90, 0x33, 0x50, 
	0x00, 0x90, 0x44, 0x3c, 0x64, 0x80, 0x33, 0x30, 
	0x1c, 0x90, 0x2c, 0x46, 0x64, 0x80, 0x2c, 0x30, 
	0x1c, 0x90, 0x33, 0x51, 0x64, 0x80, 0x44, 0x30, 
	0x00, 0x80, 0x33, 0x30, 0x1c, 0x90, 0x2c, 0x46, 
	0x00, 0x90, 0x43, 0x42, 0x64, 0x80, 0x2c, 0x30, 
	0x1c, 0x90, 0x33, 0x52, 0x64, 0x80, 0x43, 0x30, 
	0x00, 0x80, 0x33, 0x30, 0x1c, 0x90, 0x2c, 0x44, 
	0x00, 0x90, 0x3f, 0x3d, 0x64, 0x80, 0x2c, 0x30, 
	0x1c, 0x90, 0x33, 0x51, 0x64, 0x80, 0x3f, 0x30, 
	0x00, 0x80, 0x33, 0x30, 0x1c, 0x90, 0x2c, 0x45, 
	0x00, 0x90, 0x3f, 0x42, 0x64, 0x80, 0x3f, 0x30, 
	0x00, 0x80, 0x2c, 0x30, 0x1c, 0x90, 0x33, 0x52, 
	0x00, 0x90, 0x41, 0x42, 0x64, 0x80, 0x33, 0x30, 
	0x1c, 0x90, 0x2c, 0x43, 0x64, 0x80, 0x2c, 0x30, 
	0x1c, 0x90, 0x33, 0x54, 0x64, 0x80, 0x41, 0x30, 
	0x00, 0x80, 0x33, 0x30, 0x1c, 0x90, 0x2c, 0x46, 
	0x64, 0x80, 0x2c, 0x30, 0x1c, 0x90, 0x33, 0x57, 
	0x64, 0x80, 0x33, 0x30, 0x1c, 0x90, 0x30, 0x47, 
	0x00, 0x90, 0x43, 0x3b, 0x64, 0x80, 0x30, 0x30, 
	0x1c, 0x90, 0x37, 0x56, 0x64, 0x80, 0x43, 0x30, 
	0x00, 0x80, 0x37, 0x30, 0x1c, 0x90, 0x30, 0x49, 
	0x00, 0x90, 0x43, 0x3d, 0x64, 0x80, 0x43, 0x30, 
	0x00, 0x80, 0x30, 0x30, 0x1c, 0x90, 0x37, 0x51, 
	0x00, 0x90, 0x44, 0x44, 0x64, 0x80, 0x37, 0x30, 
	0x1c, 0x90, 0x30, 0x43, 0x64, 0x80, 0x30, 0x30, 
	0x1c, 0x90, 0x37, 0x54, 0x64, 0x80, 0x44, 0x30, 
	0x00, 0x80, 0x37, 0x30, 0x1c, 0x90, 0x30, 0x40, 
	0x00, 0x90, 0x43, 0x3d, 0x64, 0x80, 0x30, 0x30, 
	0x1c, 0x90, 0x37, 0x54, 0x64, 0x80, 0x43, 0x30, 
	0x00, 0x80, 0x37, 0x30, 0x1c, 0x90, 0x2e, 0x43, 
	0x00, 0x90, 0x41, 0x3c, 0x64, 0x80, 0x2e, 0x30, 
	0x1c, 0x90, 0x35, 0x50, 0x64, 0x80, 0x41, 0x30, 
	0x00, 0x80, 0x35, 0x30, 0x1c, 0x90, 0x2e, 0x45, 
	0x00, 0x90, 0x41, 0x42, 0x64, 0x80, 0x41, 0x30, 
	0x00, 0x80, 0x2e, 0x30, 0x1c, 0x90, 0x35, 0x4f, 
	0x00, 0x90, 0x43, 0x45, 0x64, 0x80, 0x35, 0x30, 
	0x1c, 0x90, 0x2e, 0x48, 0x64, 0x80, 0x2e, 0x30, 
	0x1c, 0x90, 0x35, 0x57, 0x64, 0x80, 0x43, 0x30, 
	0x00, 0x80, 0x35, 0x30, 0x1c, 0x90, 0x2e, 0x41, 
	0x00, 0x90, 0x41, 0x3d, 0x64, 0x80, 0x2e, 0x30, 
	0x1c, 0x90, 0x35, 0x54, 0x64, 0x80, 0x41, 0x30, 
	0x00, 0x80, 0x35, 0x30, 0x1c, 0x90, 0x2c, 0x44, 
	0x00, 0x90, 0x43, 0x42, 0x64, 0x80, 0x2c, 0x30, 
	0x1c, 0x90, 0x33, 0x4e, 0x64, 0x80, 0x33, 0x30, 
	0x1c, 0x90, 0x2c, 0x48, 0x64, 0x80, 0x43, 0x30, 
	0x00, 0x80, 0x2c, 0x30, 0x1c, 0x90, 0x33, 0x52, 
	0x00, 0x90, 0x41, 0x3a, 0x64, 0x80, 0x33, 0x30, 
	0x1c, 0x90, 0x2c, 0x43, 0x64, 0x80, 0x2c, 0x30, 
	0x1c, 0x90, 0x33, 0x50, 0x64, 0x80, 0x41, 0x30, 
	0x00, 0x80, 0x33, 0x30, 0x1c, 0x90, 0x2c, 0x45, 
	0x00, 0x90, 0x3f, 0x3d, 0x64, 0x80, 0x2c, 0x30, 
	0x1c, 0x90, 0x33, 0x55, 0x64, 0x80, 0x3f, 0x30, 
	0x00, 0x80, 0x33, 0x30, 0x1c, 0x90, 0x2c, 0x45, 
	0x00, 0x90, 0x3f, 0x3f, 0x64, 0x80, 0x2c, 0x30, 
	0x1c, 0x90, 0x33, 0x4e, 0x64, 0x80, 0x33, 0x30, 
	0x1c, 0x90, 0x2c, 0x41, 0x64, 0x80, 0x2c, 0x30, 
	0x1c, 0x90, 0x33, 0x53, 0x64, 0x80, 0x33, 0x30, 
	0x1c, 0x90, 0x2c, 0x47, 0x64, 0x80, 0x2c, 0x30, 
	0x1c, 0x90, 0x33, 0x4f, 0x64, 0x80, 0x33, 0x30, 
	0x1c, 0x90, 0x2c, 0x44, 0x64, 0x80, 0x2c, 0x30, 
	0x1c, 0x90, 0x33, 0x53, 0x64, 0x80, 0x3f, 0x30, 
	0x00, 0x80, 0x33, 0x30, 0x1c, 0x90, 0x30, 0x48, 
	0x00, 0x90, 0x43, 0x4b, 0x64, 0x80, 0x30, 0x30, 
	0x1c, 0x90, 0x37, 0x54, 0x64, 0x80, 0x43, 0x30, 
	0x00, 0x80, 0x37, 0x30, 0x1c, 0x90, 0x30, 0x47, 
	0x00, 0x90, 0x43, 0x49, 0x64, 0x80, 0x43, 0x30, 
	0x00, 0x80, 0x30, 0x30, 0x1c, 0x90, 0x37, 0x59, 
	0x00, 0x90, 0x41, 0x37, 0x64, 0x80, 0x37, 0x30, 
	0x1c, 0x90, 0x30, 0x44, 0x64, 0x80, 0x30, 0x30, 
	0x1c, 0x90, 0x37, 0x51, 0x64, 0x80, 0x41, 0x30, 
	0x00, 0x80, 0x37, 0x30, 0x1c, 0x90, 0x30, 0x45, 
	0x00, 0x90, 0x3f, 0x3e, 0x64, 0x80, 0x30, 0x30, 
	0x1c, 0x90, 0x37, 0x52, 0x64, 0x80, 0x3f, 0x30, 
	0x00, 0x80, 0x37, 0x30, 0x1c, 0x90, 0x2c, 0x48, 
	0x00, 0x90, 0x3f, 0x3d, 0x64, 0x80, 0x2c, 0x30, 
	0x1c, 0x90, 0x33, 0x52, 0x64, 0x80, 0x3f, 0x30, 
	0x00, 0x80, 0x33, 0x30, 0x1c, 0x90, 0x2c, 0x4a, 
	0x00, 0x90, 0x3f, 0x41, 0x64, 0x80, 0x3f, 0x30, 
	0x00, 0x80, 0x2c, 0x30, 0x1c, 0x90, 0x33, 0x54, 
	0x00, 0x90, 0x41, 0x45, 0x64, 0x80, 0x33, 0x30, 
	0x1c, 0x90, 0x2c, 0x49, 0x64, 0x80, 0x2c, 0x30, 
	0x1c, 0x90, 0x33, 0x4f, 0x64, 0x80, 0x41, 0x30, 
	0x00, 0x80, 0x33, 0x30, 0x1c, 0x90, 0x2c, 0x45, 
	0x64, 0x80, 0x2c, 0x30, 0x1c, 0x90, 0x33, 0x4f, 
	0x64, 0x80, 0x33, 0x30, 0x1c, 0x90, 0x30, 0x4b, 
	0x00, 0x90, 0x43, 0x3b, 0x64, 0x80, 0x30, 0x30, 
	0x1c, 0x90, 0x37, 0x53, 0x64, 0x80, 0x43, 0x30, 
	0x00, 0x80, 0x37, 0x30, 0x1c, 0x90, 0x30, 0x46, 
	0x00, 0x90, 0x43, 0x40, 0x64, 0x80, 0x43, 0x30, 
	0x00, 0x80, 0x30, 0x30, 0x1c, 0x90, 0x37, 0x58, 
	0x00, 0x90, 0x41, 0x3a, 0x64, 0x80, 0x37, 0x30, 
	0x1c, 0x90, 0x30, 0x42, 0x64, 0x80, 0x30, 0x30, 
	0x1c, 0x90, 0x37, 0x52, 0x64, 0x80, 0x41, 0x30, 
	0x00, 0x80, 0x37, 0x30, 0x1c, 0x90, 0x30, 0x47, 
	0x00, 0x90, 0x3f, 0x3f, 0x64, 0x80, 0x30, 0x30, 
	0x1c, 0x90, 0x37, 0x55, 0x64, 0x80, 0x3f, 0x30, 
	0x00, 0x80, 0x37, 0x30, 0x1c, 0x90, 0x2c, 0x45, 
	0x00, 0x90, 0x46, 0x4d, 0x64, 0x80, 0x2c, 0x30, 
	0x1c, 0x90, 0x33, 0x51, 0x64, 0x80, 0x33, 0x30, 
	0x1c, 0x90, 0x2c, 0x4a, 0x64, 0x80, 0x46, 0x30, 
	0x00, 0x80, 0x2c, 0x30, 0x1c, 0x90, 0x33, 0x53, 
	0x00, 0x90, 0x43, 0x41, 0x64, 0x80, 0x33, 0x30, 
	0x1c, 0x90, 0x2c, 0x44, 0x64, 0x80, 0x2c, 0x30, 
	0x1c, 0x90, 0x33, 0x54, 0x64, 0x80, 0x33, 0x30, 
	0x1c, 0x90, 0x2c, 0x44, 0x64, 0x80, 0x2c, 0x30, 
	0x1c, 0x90, 0x33, 0x53, 0x64, 0x80, 0x43, 0x30, 
	0x00, 0x80, 0x33, 0x30, 0x1c, 0x90, 0x29, 0x47, 
	0x00, 0x90, 0x44, 0x3f, 0x64, 0x80, 0x29, 0x30, 
	0x1c, 0x90, 0x30, 0x4e, 0x64, 0x80, 0x44, 0x30, 
	0x00, 0x80, 0x30, 0x30, 0x1c, 0x90, 0x29, 0x49, 
	0x00, 0x90, 0x44, 0x42, 0x64, 0x80, 0x44, 0x30, 
	0x00, 0x80, 0x29, 0x30, 0x1c, 0x90, 0x30, 0x56, 
	0x00, 0x90, 0x44, 0x45, 0x64, 0x80, 0x30, 0x30, 
	0x1c, 0x90, 0x29, 0x45, 0x64, 0x80, 0x29, 0x30, 
	0x1c, 0x90, 0x30, 0x51, 0x64, 0x80, 0x44, 0x30, 
	0x00, 0x80, 0x30, 0x30, 0x1c, 0x90, 0x29, 0x49, 
	0x00, 0x90, 0x44, 0x43, 0x64, 0x80, 0x29, 0x30, 
	0x1c, 0x90, 0x30, 0x53, 0x64, 0x80, 0x44, 0x30, 
	0x00, 0x80, 0x30, 0x30, 0x1c, 0x90, 0x29, 0x46, 
	0x00, 0x90, 0x44, 0x40, 0x64, 0x80, 0x29, 0x30, 
	0x1c, 0x90, 0x30, 0x4f, 0x64, 0x80, 0x44, 0x30, 
	0x00, 0x80, 0x30, 0x30, 0x1c, 0x90, 0x29, 0x48, 
	0x00, 0x90, 0x43, 0x3d, 0x64, 0x80, 0x43, 0x30, 
	0x00, 0x80, 0x29, 0x30, 0x1c, 0x90, 0x30, 0x57, 
	0x00, 0x90, 0x41, 0x3d, 0x64, 0x80, 0x30, 0x30, 
	0x1c, 0x90, 0x29, 0x45, 0x64, 0x80, 0x29, 0x30, 
	0x1c, 0x90, 0x30, 0x4d, 0x64, 0x80, 0x41, 0x30, 
	0x00, 0x80, 0x30, 0x30, 0x1c, 0x90, 0x29, 0x48, 
	0x00, 0x90, 0x3f, 0x42, 0x64, 0x80, 0x29, 0x30, 
	0x1c, 0x90, 0x30, 0x4f, 0x64, 0x80, 0x3f, 0x30, 
	0x00, 0x80, 0x30, 0x30, 0x1c, 0x90, 0x2e, 0x4d, 
	0x00, 0x90, 0x46, 0x50, 0x64, 0x80, 0x2e, 0x30, 
	0x1c, 0x90, 0x35, 0x55, 0x64, 0x80, 0x35, 0x30, 
	0x1c, 0x90, 0x2e, 0x4a, 0x64, 0x80, 0x2e, 0x30, 
	0x1c, 0x90, 0x35, 0x51, 0x64, 0x80, 0x35, 0x30, 
	0x1c, 0x90, 0x2e, 0x4c, 0x64, 0x80, 0x2e, 0x30, 
	0x1c, 0x90, 0x35, 0x50, 0x64, 0x80, 0x35, 0x30, 
	0x1c, 0x90, 0x2e, 0x4a, 0x64, 0x80, 0x2e, 0x30, 
	0x1c, 0x90, 0x35, 0x52, 0x64, 0x80, 0x46, 0x30, 
	0x00, 0x80, 0x35, 0x30, 0x1c, 0x90, 0x2e, 0x48, 
	0x82, 0x00, 0x90, 0x41, 0x3e, 0x81, 0x64, 0x80, 
	0x41, 0x30, 0x1c, 0x90, 0x43, 0x45, 0x81, 0x64, 
	0x80, 0x43, 0x30, 0x1c, 0x90, 0x46, 0x47, 0x81, 
	0x64, 0x80, 0x2e, 0x30, 0x00, 0x80, 0x46, 0x30, 
	0x1c, 0x90, 0x2c, 0x4b, 0x00, 0x90, 0x48, 0x43, 
	0x64, 0x80, 0x2c, 0x30, 0x1c, 0x90, 0x33, 0x55, 
	0x64, 0x80, 0x33, 0x30, 0x1c, 0x90, 0x2c, 0x43, 
	0x64, 0x80, 0x2c, 0x30, 0x1c, 0x90, 0x33, 0x4e, 
	0x64, 0x80, 0x33, 0x30, 0x1c, 0x90, 0x2c, 0x47, 
	0x64, 0x80, 0x2c, 0x30, 0x1c, 0x90, 0x33, 0x51, 
	0x64, 0x80, 0x48, 0x30, 0x00, 0x80, 0x33, 0x30, 
	0x1c, 0x90, 0x2c, 0x46, 0x00, 0x90, 0x48, 0x40, 
	0x64, 0x80, 0x2c, 0x30, 0x1c, 0x90, 0x33, 0x56, 
	0x64, 0x80, 0x48, 0x30, 0x00, 0x80, 0x33, 0x30, 
	0x1c, 0x90, 0x2c, 0x49, 0x00, 0x90, 0x48, 0x41, 
	0x64, 0x80, 0x2c, 0x30, 0x1c, 0x90, 0x33, 0x53, 
	0x64, 0x80, 0x33, 0x30, 0x1c, 0x90, 0x2c, 0x4b, 
	0x64, 0x80, 0x48, 0x30, 0x00, 0x80, 0x2c, 0x30, 
	0x1c, 0x90, 0x33, 0x52, 0x00, 0x90, 0x46, 0x3e, 
	0x64, 0x80, 0x33, 0x30, 0x1c, 0x90, 0x2c, 0x49, 
	0x64, 0x80, 0x2c, 0x30, 0x1c, 0x90, 0x33, 0x54, 
	0x64, 0x80, 0x46, 0x30, 0x00, 0x80, 0x33, 0x30, 
	0x1c, 0x90, 0x2c, 0x47, 0x00, 0x90, 0x41, 0x32, 
	0x64, 0x80, 0x2c, 0x30, 0x1c, 0x90, 0x33, 0x55, 
	0x64, 0x80, 0x41, 0x30, 0x00, 0x80, 0x33, 0x30, 
	0x1c, 0x90, 0x30, 0x4b, 0x00, 0x90, 0x43, 0x45, 
	0x64, 0x80, 0x30, 0x30, 0x1c, 0x90, 0x37, 0x55, 
	0x64, 0x80, 0x43, 0x30, 0x00, 0x80, 0x37, 0x30, 
	0x1c, 0x90, 0x30, 0x4a, 0x00, 0x90, 0x46, 0x47, 
	0x64, 0x80, 0x46, 0x30, 0x00, 0x80, 0x30, 0x30, 
	0x1c, 0x90, 0x37, 0x51, 0x00, 0x90, 0x43, 0x38, 
	0x64, 0x80, 0x37, 0x30, 0x1c, 0x90, 0x30, 0x44, 
	0x64, 0x80, 0x30, 0x30, 0x1c, 0x90, 0x37, 0x53, 
	0x64, 0x80, 0x37, 0x30, 0x1c, 0x90, 0x30, 0x48, 
	0x64, 0x80, 0x30, 0x30, 0x1c, 0x90, 0x37, 0x52, 
	0x64, 0x80, 0x37, 0x30, 0x1c, 0x90, 0x30, 0x47, 
	0x64, 0x80, 0x30, 0x30, 0x1c, 0x90, 0x37, 0x51, 
	0x64, 0x80, 0x43, 0x30, 0x00, 0x80, 0x37, 0x30, 
	0x1c, 0x90, 0x30, 0x42, 0x64, 0x80, 0x30, 0x30, 
	0x1c, 0x90, 0x37, 0x52, 0x64, 0x80, 0x37, 0x30, 
	0x1c, 0x90, 0x30, 0x49, 0x00, 0x90, 0x3f, 0x3a, 
	0x64, 0x80, 0x30, 0x30, 0x1c, 0x90, 0x37, 0x52, 
	0x64, 0x80, 0x3f, 0x30, 0x00, 0x80, 0x37, 0x30, 
	0x1c, 0x90, 0x30, 0x48, 0x00, 0x90, 0x3f, 0x43, 
	0x64, 0x80, 0x30, 0x30, 0x1c, 0x90, 0x37, 0x4e, 
	0x64, 0x80, 0x3f, 0x30, 0x00, 0x80, 0x37, 0x30, 
	0x1c, 0x90, 0x2e, 0x42, 0x00, 0x90, 0x41, 0x48, 
	0x64, 0x80, 0x2e, 0x30, 0x1c, 0x90, 0x35, 0x4e, 
	0x64, 0x80, 0x35, 0x30, 0x1c, 0x90, 0x2e, 0x49, 
	0x64, 0x80, 0x41, 0x30, 0x00, 0x80, 0x2e, 0x30, 
	0x1c, 0x90, 0x35, 0x51, 0x00, 0x90, 0x41, 0x3f, 
	0x64, 0x80, 0x35, 0x30, 0x1c, 0x90, 0x2e, 0x42, 
	0x64, 0x80, 0x2e, 0x30, 0x1c, 0x90, 0x35, 0x52, 
	0x64, 0x80, 0x41, 0x30, 0x00, 0x80, 0x35, 0x30, 
	0x1c, 0x90, 0x2e, 0x48, 0x00, 0x90, 0x41, 0x41, 
	0x64, 0x80, 0x2e, 0x30, 0x1c, 0x90, 0x35, 0x4e, 
	0x64, 0x80, 0x41, 0x30, 0x00, 0x80, 0x35, 0x30, 
	0x1c, 0x90, 0x2e, 0x45, 0x00, 0x90, 0x43, 0x47, 
	0x64, 0x80, 0x2e, 0x30, 0x1c, 0x90, 0x35, 0x54, 
	0x64, 0x80, 0x35, 0x30, 0x1c, 0x90, 0x2e, 0x48, 
	0x64, 0x80, 0x43, 0x30, 0x00, 0x80, 0x2e, 0x30, 
	0x1c, 0x90, 0x35, 0x53, 0x00, 0x90, 0x41, 0x3f, 
	0x64, 0x80, 0x35, 0x30, 0x1c, 0x90, 0x2e, 0x47, 
	0x64, 0x80, 0x2e, 0x30, 0x1c, 0x90, 0x35, 0x54, 
	0x64, 0x80, 0x41, 0x30, 0x00, 0x80, 0x35, 0x30, 
	0x1c, 0x90, 0x2e, 0x42, 0x00, 0x90, 0x3f, 0x3f, 
	0x64, 0x80, 0x2e, 0x30, 0x1c, 0x90, 0x35, 0x52, 
	0x64, 0x80, 0x3f, 0x30, 0x00, 0x80, 0x35, 0x30, 
	0x1c, 0x90, 0x2b, 0x44, 0x00, 0x90, 0x43, 0x44, 
	0x64, 0x80, 0x2b, 0x30, 0x1c, 0x90, 0x32, 0x4f, 
	0x64, 0x80, 0x32, 0x30, 0x1c, 0x90, 0x2b, 0x46, 
	0x64, 0x80, 0x2b, 0x30, 0x1c, 0x90, 0x32, 0x54, 
	0x64, 0x80, 0x32, 0x30, 0x1c, 0x90, 0x2b, 0x4a, 
	0x64, 0x80, 0x2b, 0x30, 0x1c, 0x90, 0x32, 0x53, 
	0x64, 0x80, 0x32, 0x30, 0x1c, 0x90, 0x2b, 0x46, 
	0x64, 0x80, 0x2b, 0x30, 0x1c, 0x90, 0x32, 0x51, 
	0x64, 0x80, 0x32, 0x30, 0x1c, 0x90, 0x2b, 0x47, 
	0x64, 0x80, 0x2b, 0x30, 0x1c, 0x90, 0x32, 0x52, 
	0x64, 0x80, 0x43, 0x30, 0x00, 0x80, 0x32, 0x30, 
	0x1c, 0x90, 0x2b, 0x49, 0x00, 0x90, 0x3f, 0x36, 
	0x64, 0x80, 0x2b, 0x30, 0x1c, 0x90, 0x32, 0x51, 
	0x64, 0x80, 0x3f, 0x30, 0x00, 0x80, 0x32, 0x30, 
	0x1c, 0x90, 0x2b, 0x45, 0x00, 0x90, 0x43, 0x46, 
	0x64, 0x80, 0x2b, 0x30, 0x1c, 0x90, 0x32, 0x52, 
	0x64, 0x80, 0x43, 0x30, 0x00, 0x80, 0x32, 0x30, 
	0x1c, 0x90, 0x2b, 0x47, 0x00, 0x90, 0x46, 0x49, 
	0x64, 0x80, 0x2b, 0x30, 0x1c, 0x90, 0x32, 0x52, 
	0x64, 0x80, 0x46, 0x30, 0x00, 0x80, 0x32, 0x30, 
	0x1c, 0x90, 0x2c, 0x49, 0x00, 0x90, 0x48, 0x44, 
	0x64, 0x80, 0x2c, 0x30, 0x1c, 0x90, 0x33, 0x55, 
	0x64, 0x80, 0x33, 0x30, 0x1c, 0x90, 0x2c, 0x48, 
	0x64, 0x80, 0x2c, 0x30, 0x1c, 0x90, 0x33, 0x4f, 
	0x64, 0x80, 0x33, 0x30, 0x1c, 0x90, 0x2c, 0x46, 
	0x64, 0x80, 0x2c, 0x30, 0x1c, 0x90, 0x33, 0x50, 
	0x64, 0x80, 0x48, 0x30, 0x00, 0x80, 0x33, 0x30, 
	0x1c, 0x90, 0x2c, 0x4a, 0x00, 0x90, 0x48, 0x43, 
	0x64, 0x80, 0x48, 0x30, 0x00, 0x80, 0x2c, 0x30, 
	0x1c, 0x90, 0x33, 0x51, 0x00, 0x90, 0x48, 0x3e, 
	0x64, 0x80, 0x48, 0x30, 0x00, 0x80, 0x33, 0x30, 
	0x1c, 0x90, 0x2c, 0x46, 0x00, 0x90, 0x48, 0x40, 
	0x64, 0x80, 0x2c, 0x30, 0x1c, 0x90, 0x33, 0x51, 
	0x64, 0x80, 0x33, 0x30, 0x1c, 0x90, 0x2c, 0x49, 
	0x64, 0x80, 0x48, 0x30, 0x00, 0x80, 0x2c, 0x30, 
	0x1c, 0x90, 0x33, 0x53, 0x00, 0x90, 0x46, 0x38, 
	0x64, 0x80, 0x33, 0x30, 0x1c, 0x90, 0x2c, 0x46, 
	0x64, 0x80, 0x2c, 0x30, 0x1c, 0x90, 0x33, 0x54, 
	0x64, 0x80, 0x46, 0x30, 0x00, 0x80, 0x33, 0x30, 
	0x1c, 0x90, 0x2c, 0x46, 0x00, 0x90, 0x41, 0x32, 
	0x64, 0x80, 0x2c, 0x30, 0x1c, 0x90, 0x33, 0x52, 
	0x64, 0x80, 0x41, 0x30, 0x00, 0x80, 0x33, 0x30, 
	0x1c, 0x90, 0x30, 0x4f, 0x00, 0x90, 0x43, 0x44, 
	0x64, 0x80, 0x30, 0x30, 0x1c, 0x90, 0x37, 0x51, 
	0x64, 0x80, 0x43, 0x30, 0x00, 0x80, 0x37, 0x30, 
	0x1c, 0x90, 0x30, 0x46, 0x00, 0x90, 0x46, 0x46, 
	0x64, 0x80, 0x46, 0x30, 0x00, 0x80, 0x30, 0x30, 
	0x1c, 0x90, 0x37, 0x4e, 0x00, 0x90, 0x43, 0x3b, 
	0x64, 0x80, 0x37, 0x30, 0x1c, 0x90, 0x30, 0x45, 
	0x64, 0x80, 0x30, 0x30, 0x1c, 0x90, 0x37, 0x53, 
	0x64, 0x80, 0x43, 0x30, 0x00, 0x80, 0x37, 0x30, 
	0x1c, 0x90, 0x30, 0x43, 0x00, 0x90, 0x41, 0x41, 
	0x64, 0x80, 0x30, 0x30, 0x1c, 0x90, 0x37, 0x52, 
	0x64, 0x80, 0x41, 0x30, 0x00, 0x80, 0x37, 0x30, 
	0x1c, 0x90, 0x30, 0x4a, 0x00, 0x90, 0x43, 0x46, 
	0x64, 0x80, 0x30, 0x30, 0x1c, 0x90, 0x37, 0x53, 
	0x64, 0x80, 0x37, 0x30, 0x1c, 0x90, 0x30, 0x46, 
	0x64, 0x80, 0x30, 0x30, 0x1c, 0x90, 0x37, 0x50, 
	0x64, 0x80, 0x43, 0x30, 0x00, 0x80, 0x37, 0x30, 
	0x1c, 0x90, 0x30, 0x42, 0x00, 0x90, 0x3c, 0x38, 
	0x64, 0x80, 0x30, 0x30, 0x1c, 0x90, 0x37, 0x51, 
	0x64, 0x80, 0x3c, 0x30, 0x00, 0x80, 0x37, 0x30, 
	0x1c, 0x90, 0x30, 0x45, 0x00, 0x90, 0x3f, 0x46, 
	0x64, 0x80, 0x30, 0x30, 0x1c, 0x90, 0x37, 0x51, 
	0x64, 0x80, 0x3f, 0x30, 0x00, 0x80, 0x37, 0x30, 
	0x1c, 0x90, 0x2e, 0x45, 0x00, 0x90, 0x41, 0x44, 
	0x64, 0x80, 0x2e, 0x30, 0x1c, 0x90, 0x35, 0x51, 
	0x64, 0x80, 0x41, 0x30, 0x00, 0x80, 0x35, 0x30, 
	0x1c, 0x90, 0x2e, 0x44, 0x00, 0x90, 0x41, 0x41, 
	0x64, 0x80, 0x41, 0x30, 0x00, 0x80, 0x2e, 0x30, 
	0x1c, 0x90, 0x35, 0x51, 0x00, 0x90, 0x41, 0x3f, 
	0x64, 0x80, 0x35, 0x30, 0x1c, 0x90, 0x2e, 0x42, 
	0x64, 0x80, 0x2e, 0x30, 0x1c, 0x90, 0x35, 0x4f, 
	0x64, 0x80, 0x41, 0x30, 0x00, 0x80, 0x35, 0x30, 
	0x1c, 0x90, 0x2e, 0x49, 0x00, 0x90, 0x41, 0x42, 
	0x64, 0x80, 0x2e, 0x30, 0x1c, 0x90, 0x35, 0x51, 
	0x64, 0x80, 0x41, 0x30, 0x00, 0x80, 0x35, 0x30, 
	0x1c, 0x90, 0x2e, 0x45, 0x00, 0x90, 0x41, 0x40, 
	0x81, 0x64, 0x80, 0x41, 0x30, 0x00, 0x80, 0x2e, 
	0x30, 0x1c, 0x90, 0x3f, 0x39, 0x81, 0x64, 0x80, 
	0x3f, 0x30, 0x1c, 0x90, 0x3c, 0x3a, 0x81, 0x64, 
	0x80, 0x3c, 0x30, 0x1c, 0x90, 0x46, 0x52, 0x00, 
	0x90, 0x3a, 0x52, 0x81, 0x64, 0x80, 0x3a, 0x30, 
	0x00, 0x80, 0x46, 0x30, 0x1c, 0x90, 0x30, 0x44, 
	0x00, 0x90, 0x43, 0x3b, 0x64, 0x80, 0x43, 0x30, 
	0x00, 0x80, 0x30, 0x30, 0x1c, 0x90, 0x37, 0x51, 
	0x00, 0x90, 0x43, 0x43, 0x64, 0x80, 0x37, 0x30, 
	0x1c, 0x90, 0x30, 0x47, 0x64, 0x80, 0x43, 0x30, 
	0x00, 0x80, 0x30, 0x30, 0x1c, 0x90, 0x37, 0x56, 
	0x00, 0x90, 0x41, 0x41, 0x64, 0x80, 0x41, 0x30, 
	0x00, 0x80, 0x37, 0x30, 0x1c, 0x90, 0x30, 0x46, 
	0x00, 0x90, 0x43, 0x46, 0x64, 0x80, 0x43, 0x30, 
	0x00, 0x80, 0x30, 0x30, 0x1c, 0x90, 0x37, 0x50, 
	0x00, 0x90, 0x41, 0x3f, 0x64, 0x80, 0x41, 0x30, 
	0x00, 0x80, 0x37, 0x30, 0x1c, 0x90, 0x30, 0x45, 
	0x00, 0x90, 0x3f, 0x3c, 0x64, 0x80, 0x3f, 0x30, 
	0x00, 0x80, 0x30, 0x30, 0x1c, 0x90, 0x37, 0x4e, 
	0x00, 0x90, 0x3c, 0x36, 0x64, 0x80, 0x3c, 0x30, 
	0x00, 0x80, 0x37, 0x30, 0x1c, 0x90, 0x30, 0x45, 
	0x00, 0x90, 0x43, 0x4d, 0x64, 0x80, 0x43, 0x30, 
	0x00, 0x80, 0x30, 0x30, 0x1c, 0x90, 0x37, 0x52, 
	0x00, 0x90, 0x43, 0x3e, 0x64, 0x80, 0x37, 0x30, 
	0x1c, 0x90, 0x30, 0x49, 0x64, 0x80, 0x43, 0x30, 
	0x00, 0x80, 0x30, 0x30, 0x1c, 0x90, 0x37, 0x50, 
	0x00, 0x90, 0x3f, 0x3b, 0x64, 0x80, 0x3f, 0x30, 
	0x00, 0x80, 0x37, 0x30, 0x1c, 0x90, 0x30, 0x47, 
	0x00, 0x90, 0x41, 0x46, 0x64, 0x80, 0x41, 0x30, 
	0x00, 0x80, 0x30, 0x30, 0x1c, 0x90, 0x37, 0x53, 
	0x00, 0x90, 0x43, 0x47, 0x64, 0x80, 0x43, 0x30, 
	0x00, 0x80, 0x37, 0x30, 0x1c, 0x90, 0x30, 0x48, 
	0x00, 0x90, 0x52, 0x53, 0x64, 0x80, 0x30, 0x30, 
	0x1c, 0x90, 0x37, 0x55, 0x64, 0x80, 0x52, 0x30, 
	0x00, 0x80, 0x37, 0x30, 0x1c, 0x90, 0x2c, 0x48, 
	0x00, 0x90, 0x43, 0x33, 0x64, 0x80, 0x43, 0x30, 
	0x00, 0x80, 0x2c, 0x30, 0x1c, 0x90, 0x33, 0x50, 
	0x00, 0x90, 0x43, 0x36, 0x64, 0x80, 0x33, 0x30, 
	0x1c, 0x90, 0x2c, 0x4b, 0x64, 0x80, 0x43, 0x30, 
	0x00, 0x80, 0x2c, 0x30, 0x1c, 0x90, 0x33, 0x53, 
	0x00, 0x90, 0x41, 0x3b, 0x64, 0x80, 0x41, 0x30, 
	0x00, 0x80, 0x33, 0x30, 0x1c, 0x90, 0x2c, 0x48, 
	0x00, 0x90, 0x43, 0x45, 0x64, 0x80, 0x43, 0x30, 
	0x00, 0x80, 0x2c, 0x30, 0x1c, 0x90, 0x33, 0x50, 
	0x00, 0x90, 0x44, 0x46, 0x64, 0x80, 0x44, 0x30, 
	0x00, 0x80, 0x33, 0x30, 0x1c, 0x90, 0x2c, 0x45, 
	0x00, 0x90, 0x46, 0x47, 0x64, 0x80, 0x46, 0x30, 
	0x00, 0x80, 0x2c, 0x30, 0x1c, 0x90, 0x33, 0x51, 
	0x00, 0x90, 0x43, 0x37, 0x64, 0x80, 0x43, 0x30, 
	0x00, 0x80, 0x33, 0x30, 0x1c, 0x90, 0x2e, 0x4a, 
	0x00, 0x90, 0x46, 0x48, 0x64, 0x80, 0x46, 0x30, 
	0x00, 0x80, 0x2e, 0x30, 0x1c, 0x90, 0x35, 0x58, 
	0x00, 0x90, 0x48, 0x44, 0x64, 0x80, 0x48, 0x30, 
	0x00, 0x80, 0x35, 0x30, 0x1c, 0x90, 0x2e, 0x49, 
	0x00, 0x90, 0x4a, 0x44, 0x64, 0x80, 0x4a, 0x30, 
	0x00, 0x80, 0x2e, 0x30, 0x1c, 0x90, 0x35, 0x4e, 
	0x00, 0x90, 0x57, 0x54, 0x64, 0x80, 0x35, 0x30, 
	0x1c, 0x90, 0x2e, 0x46, 0x64, 0x80, 0x2e, 0x30, 
	0x1c, 0x90, 0x35, 0x50, 0x64, 0x80, 0x35, 0x30, 
	0x1c, 0x90, 0x2e, 0x47, 0x64, 0x80, 0x2e, 0x30, 
	0x1c, 0x90, 0x35, 0x56, 0x64, 0x80, 0x57, 0x30, 
	0x00, 0x80, 0x35, 0x30, 0x1c, 0x90, 0x30, 0x47, 
	0x00, 0x90, 0x46, 0x2d, 0x64, 0x80, 0x46, 0x30, 
	0x00, 0x80, 0x30, 0x30, 0x1c, 0x90, 0x37, 0x55, 
	0x00, 0x90, 0x43, 0x36, 0x64, 0x80, 0x43, 0x30, 
	0x00, 0x80, 0x37, 0x30, 0x1c, 0x90, 0x30, 0x46, 
	0x00, 0x90, 0x3f, 0x3a, 0x64, 0x80, 0x3f, 0x30, 
	0x00, 0x80, 0x30, 0x30, 0x1c, 0x90, 0x37, 0x54, 
	0x00, 0x90, 0x4b, 0x54, 0x64, 0x80, 0x37, 0x30, 
	0x1c, 0x90, 0x30, 0x4b, 0x64, 0x80, 0x4b, 0x30, 
	0x00, 0x80, 0x30, 0x30, 0x1c, 0x90, 0x37, 0x50, 
	0x00, 0x90, 0x3f, 0x29, 0x64, 0x80, 0x3f, 0x30, 
	0x00, 0x80, 0x37, 0x30, 0x1c, 0x90, 0x30, 0x46, 
	0x00, 0x90, 0x4b, 0x4e, 0x64, 0x80, 0x4b, 0x30, 
	0x00, 0x80, 0x30, 0x30, 0x1c, 0x90, 0x37, 0x54, 
	0x00, 0x90, 0x4f, 0x4d, 0x64, 0x80, 0x37, 0x30, 
	0x1c, 0x90, 0x30, 0x46, 0x64, 0x80, 0x4f, 0x30, 
	0x00, 0x80, 0x30, 0x30, 0x1c, 0x90, 0x37, 0x54, 
	0x00, 0x90, 0x4b, 0x39, 0x64, 0x80, 0x4b, 0x30, 
	0x00, 0x80, 0x37, 0x30, 0x1c, 0x90, 0x30, 0x45, 
	0x00, 0x90, 0x4f, 0x49, 0x64, 0x80, 0x4f, 0x30, 
	0x00, 0x80, 0x30, 0x30, 0x1c, 0x90, 0x37, 0x4e, 
	0x00, 0x90, 0x50, 0x48, 0x64, 0x80, 0x50, 0x30, 
	0x00, 0x80, 0x37, 0x30, 0x1c, 0x90, 0x30, 0x48, 
	0x00, 0x90, 0x52, 0x47, 0x64, 0x80, 0x30, 0x30, 
	0x1c, 0x90, 0x37, 0x50, 0x64, 0x80, 0x52, 0x30, 
	0x00, 0x80, 0x37, 0x30, 0x1c, 0x90, 0x30, 0x46, 
	0x00, 0x90, 0x50, 0x41, 0x64, 0x80, 0x50, 0x30, 
	0x00, 0x80, 0x30, 0x30, 0x1c, 0x90, 0x37, 0x53, 
	0x00, 0x90, 0x4f, 0x39, 0x64, 0x80, 0x4f, 0x30, 
	0x00, 0x80, 0x37, 0x30, 0x1c, 0x90, 0x2c, 0x44, 
	0x00, 0x90, 0x54, 0x4d, 0x64, 0x80, 0x54, 0x30, 
	0x00, 0x80, 0x2c, 0x30, 0x1c, 0x90, 0x33, 0x4d, 
	0x00, 0x90, 0x54, 0x43, 0x64, 0x80, 0x54, 0x30, 
	0x00, 0x80, 0x33, 0x30, 0x1c, 0x90, 0x2c, 0x46, 
	0x00, 0x90, 0x50, 0x39, 0x64, 0x80, 0x50, 0x30, 
	0x00, 0x80, 0x2c, 0x30, 0x1c, 0x90, 0x33, 0x4e, 
	0x00, 0x90, 0x54, 0x4b, 0x64, 0x80, 0x54, 0x30, 
	0x00, 0x80, 0x33, 0x30, 0x1c, 0x90, 0x2c, 0x46, 
	0x00, 0x90, 0x54, 0x40, 0x64, 0x80, 0x54, 0x30, 
	0x00, 0x80, 0x2c, 0x30, 0x1c, 0x90, 0x33, 0x56, 
	0x00, 0x90, 0x50, 0x3c, 0x64, 0x80, 0x50, 0x30, 
	0x00, 0x80, 0x33, 0x30, 0x1c, 0x90, 0x2c, 0x45, 
	0x00, 0x90, 0x54, 0x46, 0x64, 0x80, 0x54, 0x30, 
	0x00, 0x80, 0x2c, 0x30, 0x1c, 0x90, 0x33, 0x50, 
	0x00, 0x90, 0x50, 0x35, 0x64, 0x80, 0x50, 0x30, 
	0x00, 0x80, 0x33, 0x30, 0x1c, 0x90, 0x2e, 0x48, 
	0x00, 0x90, 0x52, 0x4a, 0x24, 0x80, 0x52, 0x30, 
	0x1c, 0x90, 0x4d, 0x33, 0x24, 0x80, 0x2e, 0x30, 
	0x00, 0x80, 0x4d, 0x30, 0x1c, 0x90, 0x35, 0x55, 
	0x00, 0x90, 0x52, 0x45, 0x24, 0x80, 0x52, 0x30, 
	0x1c, 0x90, 0x4d, 0x37, 0x24, 0x80, 0x35, 0x30, 
	0x00, 0x80, 0x4d, 0x30, 0x1c, 0x90, 0x2e, 0x49, 
	0x00, 0x90, 0x52, 0x49, 0x24, 0x80, 0x52, 0x30, 
	0x1c, 0x90, 0x4d, 0x39, 0x24, 0x80, 0x2e, 0x30, 
	0x00, 0x80, 0x4d, 0x30, 0x1c, 0x90, 0x35, 0x50, 
	0x00, 0x90, 0x52, 0x4b, 0x24, 0x80, 0x52, 0x30, 
	0x1c, 0x90, 0x4d, 0x3c, 0x24, 0x80, 0x35, 0x30, 
	0x00, 0x80, 0x4d, 0x30, 0x1c, 0x90, 0x2e, 0x46, 
	0x00, 0x90, 0x52, 0x4a, 0x24, 0x80, 0x52, 0x30, 
	0x1c, 0x90, 0x4d, 0x38, 0x24, 0x80, 0x2e, 0x30, 
	0x00, 0x80, 0x4d, 0x30, 0x1c, 0x90, 0x35, 0x54, 
	0x00, 0x90, 0x52, 0x46, 0x24, 0x80, 0x52, 0x30, 
	0x1c, 0x90, 0x4d, 0x35, 0x24, 0x80, 0x35, 0x30, 
	0x00, 0x80, 0x4d, 0x30, 0x1c, 0x90, 0x2e, 0x48, 
	0x00, 0x90, 0x52, 0x45, 0x24, 0x80, 0x52, 0x30, 
	0x1c, 0x90, 0x4d, 0x3e, 0x24, 0x80, 0x2e, 0x30, 
	0x00, 0x80, 0x4d, 0x30, 0x1c, 0x90, 0x35, 0x55, 
	0x00, 0x90, 0x52, 0x4b, 0x24, 0x80, 0x52, 0x30, 
	0x1c, 0x90, 0x4d, 0x39, 0x24, 0x80, 0x35, 0x30, 
	0x00, 0x80, 0x4d, 0x30, 0x1c, 0x90, 0x30, 0x47, 
	0x00, 0x90, 0x43, 0x33, 0x64, 0x80, 0x43, 0x30, 
	0x00, 0x80, 0x30, 0x30, 0x1c, 0x90, 0x37, 0x52, 
	0x00, 0x90, 0x43, 0x3b, 0x64, 0x80, 0x37, 0x30, 
	0x1c, 0x90, 0x30, 0x43, 0x64, 0x80, 0x43, 0x30, 
	0x00, 0x80, 0x30, 0x30, 0x1c, 0x90, 0x37, 0x50, 
	0x00, 0x90, 0x41, 0x3d, 0x64, 0x80, 0x41, 0x30, 
	0x00, 0x80, 0x37, 0x30, 0x1c, 0x90, 0x30, 0x44, 
	0x00, 0x90, 0x43, 0x46, 0x64, 0x80, 0x43, 0x30, 
	0x00, 0x80, 0x30, 0x30, 0x1c, 0x90, 0x37, 0x55, 
	0x00, 0x90, 0x41, 0x3f, 0x64, 0x80, 0x41, 0x30, 
	0x00, 0x80, 0x37, 0x30, 0x1c, 0x90, 0x30, 0x45, 
	0x00, 0x90, 0x3f, 0x43, 0x64, 0x80, 0x3f, 0x30, 
	0x00, 0x80, 0x30, 0x30, 0x1c, 0x90, 0x37, 0x4c, 
	0x00, 0x90, 0x3c, 0x39, 0x64, 0x80, 0x3c, 0x30, 
	0x00, 0x80, 0x37, 0x30, 0x1c, 0x90, 0x30, 0x44, 
	0x00, 0x90, 0x43, 0x4c, 0x64, 0x80, 0x43, 0x30, 
	0x00, 0x80, 0x30, 0x30, 0x1c, 0x90, 0x37, 0x50, 
	0x00, 0x90, 0x43, 0x3f, 0x64, 0x80, 0x37, 0x30, 
	0x1c, 0x90, 0x30, 0x45, 0x64, 0x80, 0x43, 0x30, 
	0x00, 0x80, 0x30, 0x30, 0x1c, 0x90, 0x37, 0x4e, 
	0x00, 0x90, 0x3f, 0x39, 0x64, 0x80, 0x3f, 0x30, 
	0x00, 0x80, 0x37, 0x30, 0x1c, 0x90, 0x30, 0x45, 
	0x00, 0x90, 0x41, 0x48, 0x64, 0x80, 0x41, 0x30, 
	0x00, 0x80, 0x30, 0x30, 0x1c, 0x90, 0x37, 0x58, 
	0x00, 0x90, 0x43, 0x43, 0x64, 0x80, 0x43, 0x30, 
	0x00, 0x80, 0x37, 0x30, 0x1c, 0x90, 0x30, 0x48, 
	0x00, 0x90, 0x52, 0x54, 0x64, 0x80, 0x30, 0x30, 
	0x1c, 0x90, 0x37, 0x52, 0x64, 0x80, 0x52, 0x30, 
	0x00, 0x80, 0x37, 0x30, 0x1c, 0x90, 0x2c, 0x43, 
	0x00, 0x90, 0x4b, 0x37, 0x24, 0x80, 0x4b, 0x30, 
	0x1c, 0x90, 0x46, 0x3a, 0x24, 0x80, 0x2c, 0x30, 
	0x00, 0x80, 0x46, 0x30, 0x1c, 0x90, 0x33, 0x51, 
	0x00, 0x90, 0x4b, 0x46, 0x24, 0x80, 0x4b, 0x30, 
	0x1c, 0x90, 0x46, 0x37, 0x24, 0x80, 0x33, 0x30, 
	0x00, 0x80, 0x46, 0x30, 0x1c, 0x90, 0x2c, 0x48, 
	0x00, 0x90, 0x4b, 0x4a, 0x24, 0x80, 0x4b, 0x30, 
	0x1c, 0x90, 0x46, 0x33, 0x24, 0x80, 0x2c, 0x30, 
	0x00, 0x80, 0x46, 0x30, 0x1c, 0x90, 0x33, 0x52, 
	0x00, 0x90, 0x48, 0x44, 0x24, 0x80, 0x48, 0x30, 
	0x1c, 0x90, 0x44, 0x3a, 0x24, 0x80, 0x33, 0x30, 
	0x00, 0x80, 0x44, 0x30, 0x1c, 0x90, 0x2c, 0x45, 
	0x00, 0x90, 0x48, 0x47, 0x24, 0x80, 0x48, 0x30, 
	0x1c, 0x90, 0x44, 0x38, 0x24, 0x80, 0x2c, 0x30, 
	0x00, 0x80, 0x44, 0x30, 0x1c, 0x90, 0x33, 0x50, 
	0x00, 0x90, 0x48, 0x4d, 0x24, 0x80, 0x48, 0x30, 
	0x1c, 0x90, 0x44, 0x3c, 0x24, 0x80, 0x33, 0x30, 
	0x00, 0x80, 0x44, 0x30, 0x1c, 0x90, 0x2c, 0x44, 
	0x00, 0x90, 0x46, 0x47, 0x24, 0x80, 0x46, 0x30, 
	0x1c, 0x90, 0x44, 0x3b, 0x24, 0x80, 0x2c, 0x30, 
	0x00, 0x80, 0x44, 0x30, 0x1c, 0x90, 0x33, 0x54, 
	0x00, 0x90, 0x46, 0x48, 0x24, 0x80, 0x46, 0x30, 
	0x1c, 0x90, 0x44, 0x40, 0x24, 0x80, 0x33, 0x30, 
	0x00, 0x80, 0x44, 0x30, 0x1c, 0x90, 0x2e, 0x44, 
	0x00, 0x90, 0x46, 0x46, 0x64, 0x80, 0x46, 0x30, 
	0x00, 0x80, 0x2e, 0x30, 0x1c, 0x90, 0x35, 0x53, 
	0x00, 0x90, 0x48, 0x42, 0x64, 0x80, 0x48, 0x30, 
	0x00, 0x80, 0x35, 0x30, 0x1c, 0x90, 0x2e, 0x48, 
	0x00, 0x90, 0x4a, 0x43, 0x64, 0x80, 0x4a, 0x30, 
	0x00, 0x80, 0x2e, 0x30, 0x1c, 0x90, 0x35, 0x54, 
	0x00, 0x90, 0x57, 0x53, 0x64, 0x80, 0x35, 0x30, 
	0x1c, 0x90, 0x2e, 0x49, 0x64, 0x80, 0x2e, 0x30, 
	0x1c, 0x90, 0x35, 0x54, 0x64, 0x80, 0x35, 0x30, 
	0x1c, 0x90, 0x2e, 0x42, 0x64, 0x80, 0x2e, 0x30, 
	0x1c, 0x90, 0x35, 0x53, 0x64, 0x80, 0x57, 0x30, 
	0x00, 0x80, 0x35, 0x30, 0x1c, 0x90, 0x30, 0x43, 
	0x00, 0x90, 0x46, 0x30, 0x64, 0x80, 0x46, 0x30, 
	0x00, 0x80, 0x30, 0x30, 0x1c, 0x90, 0x37, 0x54, 
	0x00, 0x90, 0x46, 0x3d, 0x64, 0x80, 0x37, 0x30, 
	0x1c, 0x90, 0x30, 0x3f, 0x64, 0x80, 0x46, 0x30, 
	0x00, 0x80, 0x30, 0x30, 0x1c, 0x90, 0x37, 0x4f, 
	0x00, 0x90, 0x43, 0x3b, 0x24, 0x80, 0x43, 0x30, 
	0x1c, 0x90, 0x44, 0x44, 0x24, 0x80, 0x37, 0x30, 
	0x00, 0x80, 0x44, 0x30, 0x1c, 0x90, 0x30, 0x42, 
	0x00, 0x90, 0x46, 0x45, 0x64, 0x80, 0x46, 0x30, 
	0x00, 0x80, 0x30, 0x30, 0x1c, 0x90, 0x37, 0x56, 
	0x00, 0x90, 0x44, 0x3d, 0x64, 0x80, 0x44, 0x30, 
	0x00, 0x80, 0x37, 0x30, 0x1c, 0x90, 0x30, 0x42, 
	0x00, 0x90, 0x43, 0x39, 0x64, 0x80, 0x43, 0x30, 
	0x00, 0x80, 0x30, 0x30, 0x1c, 0x90, 0x37, 0x53, 
	0x00, 0x90, 0x3f, 0x3a, 0x64, 0x80, 0x3f, 0x30, 
	0x00, 0x80, 0x37, 0x30, 0x1c, 0x90, 0x30, 0x44, 
	0x00, 0x90, 0x46, 0x4b, 0x64, 0x80, 0x46, 0x30, 
	0x00, 0x80, 0x30, 0x30, 0x1c, 0x90, 0x37, 0x54, 
	0x00, 0x90, 0x46, 0x3f, 0x64, 0x80, 0x37, 0x30, 
	0x1c, 0x90, 0x30, 0x47, 0x64, 0x80, 0x46, 0x30, 
	0x00, 0x80, 0x30, 0x30, 0x1c, 0x90, 0x37, 0x50, 
	0x00, 0x90, 0x43, 0x3a, 0x24, 0x80, 0x43, 0x30, 
	0x1c, 0x90, 0x44, 0x46, 0x24, 0x80, 0x37, 0x30, 
	0x00, 0x80, 0x44, 0x30, 0x1c, 0x90, 0x30, 0x45, 
	0x00, 0x90, 0x46, 0x45, 0x64, 0x80, 0x46, 0x30, 
	0x00, 0x80, 0x30, 0x30, 0x1c, 0x90, 0x37, 0x53, 
	0x00, 0x90, 0x4b, 0x4b, 0x64, 0x80, 0x4b, 0x30, 
	0x00, 0x80, 0x37, 0x30, 0x1c, 0x90, 0x30, 0x44, 
	0x00, 0x90, 0x57, 0x53, 0x64, 0x80, 0x30, 0x30, 
	0x1c, 0x90, 0x37, 0x55, 0x64, 0x80, 0x57, 0x30, 
	0x00, 0x80, 0x37, 0x30, 0x1c, 0x90, 0x2c, 0x42, 
	0x00, 0x90, 0x57, 0x47, 0x24, 0x80, 0x57, 0x30, 
	0x1c, 0x90, 0x52, 0x37, 0x24, 0x80, 0x2c, 0x30, 
	0x00, 0x80, 0x52, 0x30, 0x1c, 0x90, 0x33, 0x51, 
	0x00, 0x90, 0x57, 0x4b, 0x24, 0x80, 0x57, 0x30, 
	0x1c, 0x90, 0x52, 0x39, 0x24, 0x80, 0x33, 0x30, 
	0x00, 0x80, 0x52, 0x30, 0x1c, 0x90, 0x2c, 0x45, 
	0x00, 0x90, 0x57, 0x47, 0x24, 0x80, 0x57, 0x30, 
	0x1c, 0x90, 0x52, 0x3a, 0x24, 0x80, 0x2c, 0x30, 
	0x00, 0x80, 0x52, 0x30, 0x1c, 0x90, 0x33, 0x54, 
	0x00, 0x90, 0x57, 0x46, 0x24, 0x80, 0x57, 0x30, 
	0x1c, 0x90, 0x52, 0x3b, 0x24, 0x80, 0x33, 0x30, 
	0x00, 0x80, 0x52, 0x30, 0x1c, 0x90, 0x2c, 0x47, 
	0x00, 0x90, 0x57, 0x49, 0x24, 0x80, 0x57, 0x30, 
	0x1c, 0x90, 0x52, 0x36, 0x24, 0x80, 0x2c, 0x30, 
	0x00, 0x80, 0x52, 0x30, 0x1c, 0x90, 0x33, 0x51, 
	0x00, 0x90, 0x57, 0x48, 0x24, 0x80, 0x57, 0x30, 
	0x1c, 0x90, 0x52, 0x36, 0x24, 0x80, 0x33, 0x30, 
	0x00, 0x80, 0x52, 0x30, 0x1c, 0x90, 0x2c, 0x47, 
	0x00, 0x90, 0x57, 0x47, 0x24, 0x80, 0x57, 0x30, 
	0x1c, 0x90, 0x52, 0x3a, 0x24, 0x80, 0x2c, 0x30, 
	0x00, 0x80, 0x52, 0x30, 0x1c, 0x90, 0x33, 0x57, 
	0x00, 0x90, 0x57, 0x48, 0x24, 0x80, 0x57, 0x30, 
	0x1c, 0x90, 0x52, 0x36, 0x24, 0x80, 0x33, 0x30, 
	0x00, 0x80, 0x52, 0x30, 0x1c, 0x90, 0x2e, 0x52, 
	0x00, 0x90, 0x50, 0x3d, 0x81, 0x64, 0x80, 0x50, 
	0x30, 0x00, 0x80, 0x2e, 0x30, 0x1c, 0x90, 0x30, 
	0x51, 0x00, 0x90, 0x52, 0x40, 0x81, 0x64, 0x80, 
	0x52, 0x30, 0x00, 0x80, 0x30, 0x30, 0x1c, 0x90, 
	0x2e, 0x47, 0x00, 0x90, 0x50, 0x40, 0x81, 0x24, 
	0x80, 0x50, 0x30, 0x00, 0x80, 0x2e, 0x30, 0x1c, 
	0x90, 0x2c, 0x4a, 0x00, 0x90, 0x4f, 0x40, 0x81, 
	0x24, 0x80, 0x4f, 0x30, 0x00, 0x80, 0x2c, 0x30, 
	0x1c, 0x90, 0x2b, 0x4c, 0x00, 0x90, 0x4d, 0x3a, 
	0x64, 0x80, 0x4d, 0x30, 0x00, 0x80, 0x2b, 0x30, 
	0x1c, 0x90, 0x30, 0x45, 0x00, 0x90, 0x5b, 0x55, 
	0x64, 0x80, 0x30, 0x30, 0x1c, 0x90, 0x27, 0x3e, 
	0x64, 0x80, 0x27, 0x30, 0x1c, 0x90, 0x2b, 0x4e, 
	0x64, 0x80, 0x2b, 0x30, 0x1c, 0x90, 0x30, 0x4f, 
	0x64, 0x80, 0x5b, 0x30, 0x00, 0x80, 0x30, 0x30, 
	0x1c, 0x90, 0x27, 0x42, 0x64, 0x80, 0x27, 0x30, 
	0x1c, 0x90, 0x2b, 0x4d, 0x64, 0x80, 0x2b, 0x30, 
	0x1c, 0x90, 0x30, 0x4f, 0x64, 0x80, 0x30, 0x30, 
	0x1c, 0x90, 0x27, 0x42, 0x64, 0x80, 0x27, 0x30, 
	0x1c, 0x90, 0x2b, 0x53, 0x64, 0x80, 0x2b, 0x30, 
	0x1c, 0x90, 0x30, 0x4e, 0x64, 0x80, 0x30, 0x30, 
	0x1c, 0x90, 0x27, 0x46, 0x64, 0x80, 0x27, 0x30, 
	0x1c, 0x90, 0x2b, 0x4c, 0x64, 0x80, 0x2b, 0x30, 
	0x1c, 0x90, 0x30, 0x4e, 0x64, 0x80, 0x30, 0x30, 
	0x1c, 0x90, 0x27, 0x42, 0x64, 0x80, 0x27, 0x30, 
	0x1c, 0x90, 0x2b, 0x4f, 0x64, 0x80, 0x2b, 0x30, 
	0x1c, 0x90, 0x30, 0x54, 0x64, 0x80, 0x30, 0x30, 
	0x1c, 0x90, 0x24, 0x45, 0x64, 0x80, 0x24, 0x30, 
	0x1c, 0x90, 0x30, 0x54, 0x64, 0x80, 0x30, 0x30, 
	0x1c, 0x90, 0x24, 0x41, 0x00, 0x90, 0x43, 0x36, 
	0x64, 0x80, 0x43, 0x30, 0x00, 0x80, 0x24, 0x30, 
	0x1c, 0x90, 0x30, 0x57, 0x00, 0x90, 0x43, 0x40, 
	0x64, 0x80, 0x43, 0x30, 0x00, 0x80, 0x30, 0x30, 
	0x1c, 0x90, 0x24, 0x41, 0x00, 0x90, 0x43, 0x41, 
	0x64, 0x80, 0x24, 0x30, 0x1c, 0x90, 0x30, 0x54, 
	0x64, 0x80, 0x43, 0x30, 0x00, 0x80, 0x30, 0x30, 
	0x1c, 0x90, 0x24, 0x47, 0x00, 0x90, 0x41, 0x3a, 
	0x64, 0x80, 0x41, 0x30, 0x00, 0x80, 0x24, 0x30, 
	0x1c, 0x90, 0x30, 0x53, 0x00, 0x90, 0x3f, 0x40, 
	0x64, 0x80, 0x3f, 0x30, 0x00, 0x80, 0x30, 0x30, 
	0x1c, 0x90, 0x24, 0x41, 0x00, 0x90, 0x41, 0x4a, 
	0x64, 0x80, 0x24, 0x30, 0x1c, 0x90, 0x30, 0x57, 
	0x64, 0x80, 0x41, 0x30, 0x00, 0x80, 0x30, 0x30, 
	0x1c, 0x90, 0x24, 0x45, 0x00, 0x90, 0x43, 0x41, 
	0x64, 0x80, 0x24, 0x30, 0x1c, 0x90, 0x30, 0x53, 
	0x64, 0x80, 0x43, 0x30, 0x00, 0x80, 0x30, 0x30, 
	0x1c, 0x90, 0x24, 0x49, 0x64, 0x80, 0x24, 0x30, 
	0x1c, 0x90, 0x30, 0x52, 0x64, 0x80, 0x30, 0x30, 
	0x1c, 0x90, 0x24, 0x43, 0x00, 0x90, 0x3c, 0x3b, 
	0x64, 0x80, 0x3c, 0x30, 0x00, 0x80, 0x24, 0x30, 
	0x1c, 0x90, 0x30, 0x51, 0x00, 0x90, 0x3f, 0x41, 
	0x64, 0x80, 0x3f, 0x30, 0x00, 0x80, 0x30, 0x30, 
	0x1c, 0x90, 0x20, 0x42, 0x00, 0x90, 0x41, 0x42, 
	0x64, 0x80, 0x20, 0x30, 0x1c, 0x90, 0x2c, 0x54, 
	0x64, 0x80, 0x41, 0x30, 0x00, 0x80, 0x2c, 0x30, 
	0x1c, 0x90, 0x20, 0x42, 0x00, 0x90, 0x43, 0x47, 
	0x64, 0x80, 0x20, 0x30, 0x1c, 0x90, 0x2c, 0x54, 
	0x64, 0x80, 0x43, 0x30, 0x00, 0x80, 0x2c, 0x30, 
	0x1c, 0x90, 0x20, 0x43, 0x00, 0x90, 0x41, 0x3b, 
	0x64, 0x80, 0x20, 0x30, 0x1c, 0x90, 0x2c, 0x59, 
	0x64, 0x80, 0x41, 0x30, 0x00, 0x80, 0x2c, 0x30, 
	0x1c, 0x90, 0x20, 0x44, 0x00, 0x90, 0x3f, 0x39, 
	0x64, 0x80, 0x3f, 0x30, 0x00, 0x80, 0x20, 0x30, 
	0x1c, 0x90, 0x2c, 0x58, 0x00, 0x90, 0x3c, 0x3a, 
	0x64, 0x80, 0x2c, 0x30, 0x1c, 0x90, 0x20, 0x41, 
	0x64, 0x80, 0x20, 0x30, 0x1c, 0x90, 0x2c, 0x55, 
	0x64, 0x80, 0x2c, 0x30, 0x1c, 0x90, 0x20, 0x47, 
	0x64, 0x80, 0x20, 0x30, 0x1c, 0x90, 0x2c, 0x56, 
	0x64, 0x80, 0x3c, 0x30, 0x00, 0x80, 0x2c, 0x30, 
	0x1c, 0x90, 0x20, 0x45, 0x64, 0x80, 0x20, 0x30, 
	0x1c, 0x90, 0x2c, 0x51, 0x64, 0x80, 0x2c, 0x30, 
	0x1c, 0x90, 0x20, 0x45, 0x00, 0x90, 0x3f, 0x38, 
	0x64, 0x80, 0x20, 0x30, 0x1c, 0x90, 0x2c, 0x55, 
	0x64, 0x80, 0x3f, 0x30, 0x00, 0x80, 0x2c, 0x30, 
	0x1c, 0x90, 0x22, 0x46, 0x00, 0x90, 0x41, 0x43, 
	0x64, 0x80, 0x22, 0x30, 0x1c, 0x90, 0x2e, 0x54, 
	0x64, 0x80, 0x41, 0x30, 0x00, 0x80, 0x2e, 0x30, 
	0x1c, 0x90, 0x22, 0x43, 0x00, 0x90, 0x41, 0x46, 
	0x64, 0x80, 0x22, 0x30, 0x1c, 0x90, 0x2e, 0x55, 
	0x64, 0x80, 0x41, 0x30, 0x00, 0x80, 0x2e, 0x30, 
	0x1c, 0x90, 0x22, 0x42, 0x00, 0x90, 0x41, 0x3f, 
	0x64, 0x80, 0x22, 0x30, 0x1c, 0x90, 0x2e, 0x51, 
	0x64, 0x80, 0x41, 0x30, 0x00, 0x80, 0x2e, 0x30, 
	0x1c, 0x90, 0x22, 0x44, 0x00, 0x90, 0x3f, 0x3b, 
	0x64, 0x80, 0x22, 0x30, 0x1c, 0x90, 0x2e, 0x56, 
	0x64, 0x80, 0x3f, 0x30, 0x00, 0x80, 0x2e, 0x30, 
	0x1c, 0x90, 0x22, 0x43, 0x00, 0x90, 0x41, 0x44, 
	0x64, 0x80, 0x22, 0x30, 0x1c, 0x90, 0x2e, 0x58, 
	0x64, 0x80, 0x41, 0x30, 0x00, 0x80, 0x2e, 0x30, 
	0x1c, 0x90, 0x22, 0x3d, 0x00, 0x90, 0x43, 0x44, 
	0x64, 0x80, 0x43, 0x30, 0x00, 0x80, 0x22, 0x30, 
	0x1c, 0x90, 0x2e, 0x54, 0x00, 0x90, 0x41, 0x3d, 
	0x64, 0x80, 0x2e, 0x30, 0x1c, 0x90, 0x22, 0x45, 
	0x64, 0x80, 0x22, 0x30, 0x1c, 0x90, 0x2e, 0x54, 
	0x64, 0x80, 0x41, 0x30, 0x00, 0x80, 0x2e, 0x30, 
	0x1c, 0x90, 0x22, 0x43, 0x00, 0x90, 0x3c, 0x39, 
	0x64, 0x80, 0x3c, 0x30, 0x00, 0x80, 0x22, 0x30, 
	0x1c, 0x90, 0x2e, 0x53, 0x00, 0x90, 0x3f, 0x43, 
	0x64, 0x80, 0x3f, 0x30, 0x00, 0x80, 0x2e, 0x30, 
	0x1c, 0x90, 0x22, 0x42, 0x00, 0x90, 0x41, 0x44, 
	0x64, 0x80, 0x22, 0x30, 0x1c, 0x90, 0x2e, 0x55, 
	0x64, 0x80, 0x41, 0x30, 0x00, 0x80, 0x2e, 0x30, 
	0x1c, 0x90, 0x22, 0x46, 0x00, 0x90, 0x43, 0x43, 
	0x64, 0x80, 0x22, 0x30, 0x1c, 0x90, 0x2e, 0x57, 
	0x64, 0x80, 0x43, 0x30, 0x00, 0x80, 0x2e, 0x30, 
	0x1c, 0x90, 0x22, 0x41, 0x00, 0x90, 0x41, 0x3b, 
	0x64, 0x80, 0x41, 0x30, 0x00, 0x80, 0x22, 0x30, 
	0x1c, 0x90, 0x2e, 0x53, 0x00, 0x90, 0x3f, 0x3f, 
	0x64, 0x80, 0x2e, 0x30, 0x1c, 0x90, 0x22, 0x41, 
	0x64, 0x80, 0x3f, 0x30, 0x00, 0x80, 0x22, 0x30, 
	0x1c, 0x90, 0x2e, 0x56, 0x00, 0x90, 0x3c, 0x3a, 
	0x64, 0x80, 0x2e, 0x30, 0x1c, 0x90, 0x30, 0x52, 
	0x64, 0x80, 0x3c, 0x30, 0x00, 0x80, 0x30, 0x30, 
	0x87, 0x1c, 0x90, 0x24, 0x43, 0x64, 0x80, 0x24, 
	0x30, 0x1c, 0x90, 0x30, 0x56, 0x64, 0x80, 0x30, 
	0x30, 0x1c, 0x90, 0x24, 0x45, 0x00, 0x90, 0x43, 
	0x38, 0x64, 0x80, 0x43, 0x30, 0x00, 0x80, 0x24, 
	0x30, 0x1c, 0x90, 0x30, 0x53, 0x00, 0x90, 0x43, 
	0x3f, 0x64, 0x80, 0x43, 0x30, 0x00, 0x80, 0x30, 
	0x30, 0x1c, 0x90, 0x24, 0x41, 0x00, 0x90, 0x43, 
	0x3c, 0x64, 0x80, 0x24, 0x30, 0x1c, 0x90, 0x30, 
	0x55, 0x64, 0x80, 0x43, 0x30, 0x00, 0x80, 0x30, 
	0x30, 0x1c, 0x90, 0x24, 0x47, 0x00, 0x90, 0x41, 
	0x3a, 0x64, 0x80, 0x41, 0x30, 0x00, 0x80, 0x24, 
	0x30, 0x1c, 0x90, 0x30, 0x59, 0x00, 0x90, 0x3f, 
	0x3c, 0x64, 0x80, 0x3f, 0x30, 0x00, 0x80, 0x30, 
	0x30, 0x1c, 0x90, 0x24, 0x4a, 0x00, 0x90, 0x41, 
	0x3f, 0x64, 0x80, 0x41, 0x30, 0x00, 0x80, 0x24, 
	0x30, 0x1c, 0x90, 0x30, 0x52, 0x00, 0x90, 0x41, 
	0x44, 0x64, 0x80, 0x30, 0x30, 0x1c, 0x90, 0x24, 
	0x45, 0x64, 0x80, 0x41, 0x30, 0x00, 0x80, 0x24, 
	0x30, 0x1c, 0x90, 0x30, 0x57, 0x00, 0x90, 0x3f, 
	0x3e, 0x64, 0x80, 0x3f, 0x30, 0x00, 0x80, 0x30, 
	0x30, 0x1c, 0x90, 0x24, 0x41, 0x00, 0x90, 0x43, 
	0x49, 0x64, 0x80, 0x24, 0x30, 0x1c, 0x90, 0x30, 
	0x52, 0x64, 0x80, 0x43, 0x30, 0x00, 0x80, 0x30, 
	0x30, 0x1c, 0x90, 0x24, 0x41, 0x00, 0x90, 0x3c, 
	0x35, 0x64, 0x80, 0x3c, 0x30, 0x00, 0x80, 0x24, 
	0x30, 0x1c, 0x90, 0x30, 0x53, 0x00, 0x90, 0x3f, 
	0x42, 0x64, 0x80, 0x3f, 0x30, 0x00, 0x80, 0x30, 
	0x30, 0x1c, 0x90, 0x20, 0x42, 0x00, 0x90, 0x41, 
	0x44, 0x64, 0x80, 0x20, 0x30, 0x1c, 0x90, 0x2c, 
	0x57, 0x64, 0x80, 0x41, 0x30, 0x00, 0x80, 0x2c, 
	0x30, 0x1c, 0x90, 0x20, 0x42, 0x00, 0x90, 0x43, 
	0x45, 0x64, 0x80, 0x43, 0x30, 0x00, 0x80, 0x20, 
	0x30, 0x1c, 0x90, 0x2c, 0x51, 0x00, 0x90, 0x41, 
	0x3d, 0x64, 0x80, 0x2c, 0x30, 0x1c, 0x90, 0x20, 
	0x44, 0x64, 0x80, 0x41, 0x30, 0x00, 0x80, 0x20, 
	0x30, 0x1c, 0x90, 0x2c, 0x57, 0x00, 0x90, 0x3f, 
	0x41, 0x64, 0x80, 0x2c, 0x30, 0x1c, 0x90, 0x20, 
	0x45, 0x64, 0x80, 0x3f, 0x30, 0x00, 0x80, 0x20, 
	0x30, 0x1c, 0x90, 0x2c, 0x57, 0x00, 0x90, 0x3c, 
	0x43, 0x64, 0x80, 0x2c, 0x30, 0x1c, 0x90, 0x20, 
	0x44, 0x64, 0x80, 0x20, 0x30, 0x1c, 0x90, 0x2c, 
	0x55, 0x64, 0x80, 0x3c, 0x30, 0x00, 0x80, 0x2c, 
	0x30, 0x1c, 0x90, 0x20, 0x45, 0x64, 0x80, 0x20, 
	0x30, 0x1c, 0x90, 0x2c, 0x51, 0x64, 0x80, 0x2c, 
	0x30, 0x1c, 0x90, 0x20, 0x42, 0x64, 0x80, 0x20, 
	0x30, 0x1c, 0x90, 0x2c, 0x52, 0x64, 0x80, 0x2c, 
	0x30, 0x1c, 0x90, 0x20, 0x44, 0x00, 0x90, 0x3f, 
	0x3a, 0x64, 0x80, 0x20, 0x30, 0x1c, 0x90, 0x2c, 
	0x53, 0x64, 0x80, 0x3f, 0x30, 0x00, 0x80, 0x2c, 
	0x30, 0x1c, 0x90, 0x22, 0x48, 0x00, 0x90, 0x41, 
	0x44, 0x64, 0x80, 0x22, 0x30, 0x1c, 0x90, 0x2e, 
	0x55, 0x64, 0x80, 0x41, 0x30, 0x00, 0x80, 0x2e, 
	0x30, 0x1c, 0x90, 0x22, 0x41, 0x00, 0x90, 0x41, 
	0x3f, 0x64, 0x80, 0x41, 0x30, 0x00, 0x80, 0x22, 
	0x30, 0x1c, 0x90, 0x2e, 0x55, 0x00, 0x90, 0x41, 
	0x40, 0x64, 0x80, 0x2e, 0x30, 0x1c, 0x90, 0x22, 
	0x3f, 0x64, 0x80, 0x22, 0x30, 0x1c, 0x90, 0x2e, 
	0x55, 0x64, 0x80, 0x41, 0x30, 0x00, 0x80, 0x2e, 
	0x30, 0x1c, 0x90, 0x22, 0x44, 0x00, 0x90, 0x3f, 
	0x3e, 0x64, 0x80, 0x22, 0x30, 0x1c, 0x90, 0x2e, 
	0x57, 0x64, 0x80, 0x3f, 0x30, 0x00, 0x80, 0x2e, 
	0x30, 0x1c, 0x90, 0x22, 0x43, 0x00, 0x90, 0x41, 
	0x47, 0x64, 0x80, 0x22, 0x30, 0x1c, 0x90, 0x2e, 
	0x58, 0x64, 0x80, 0x41, 0x30, 0x00, 0x80, 0x2e, 
	0x30, 0x1c, 0x90, 0x22, 0x41, 0x00, 0x90, 0x43, 
	0x46, 0x64, 0x80, 0x43, 0x30, 0x00, 0x80, 0x22, 
	0x30, 0x1c, 0x90, 0x2e, 0x58, 0x00, 0x90, 0x41, 
	0x39, 0x64, 0x80, 0x2e, 0x30, 0x1c, 0x90, 0x22, 
	0x40, 0x64, 0x80, 0x22, 0x30, 0x1c, 0x90, 0x2e, 
	0x59, 0x64, 0x80, 0x41, 0x30, 0x00, 0x80, 0x2e, 
	0x30, 0x1c, 0x90, 0x22, 0x45, 0x00, 0x90, 0x3f, 
	0x40, 0x64, 0x80, 0x22, 0x30, 0x1c, 0x90, 0x2e, 
	0x58, 0x64, 0x80, 0x3f, 0x30, 0x00, 0x80, 0x2e, 
	0x30, 0x1c, 0x90, 0x22, 0x45, 0x00, 0x90, 0x41, 
	0x46, 0x64, 0x80, 0x22, 0x30, 0x1c, 0x90, 0x2e, 
	0x57, 0x64, 0x80, 0x41, 0x30, 0x00, 0x80, 0x2e, 
	0x30, 0x1c, 0x90, 0x22, 0x40, 0x00, 0x90, 0x43, 
	0x45, 0x64, 0x80, 0x43, 0x30, 0x00, 0x80, 0x22, 
	0x30, 0x1c, 0x90, 0x2e, 0x55, 0x00, 0x90, 0x41, 
	0x42, 0x64, 0x80, 0x2e, 0x30, 0x1c, 0x90, 0x22, 
	0x45, 0x64, 0x80, 0x22, 0x30, 0x1c, 0x90, 0x2e, 
	0x59, 0x64, 0x80, 0x41, 0x30, 0x00, 0x80, 0x2e, 
	0x30, 0x1c, 0x90, 0x22, 0x46, 0x00, 0x90, 0x3f, 
	0x3e, 0x64, 0x80, 0x22, 0x30, 0x1c, 0x90, 0x2e, 
	0x56, 0x64, 0x80, 0x3f, 0x30, 0x00, 0x80, 0x2e, 
	0x30, 0x1c, 0x90, 0x24, 0x43, 0x00, 0x90, 0x3c, 
	0x39, 0x64, 0x80, 0x24, 0x30, 0x1c, 0x90, 0x30, 
	0x59, 0x64, 0x80, 0x30, 0x30, 0x1c, 0x90, 0x24, 
	0x42, 0x64, 0x80, 0x24, 0x30, 0x1c, 0x90, 0x30, 
	0x5b, 0x64, 0x80, 0x3c, 0x30, 0x00, 0x80, 0x30, 
	0x30, 0x1c, 0x90, 0x24, 0x47, 0x00, 0x90, 0x41, 
	0x45, 0x64, 0x80, 0x24, 0x30, 0x1c, 0x90, 0x30, 
	0x56, 0x64, 0x80, 0x41, 0x30, 0x00, 0x80, 0x30, 
	0x30, 0x1c, 0x90, 0x24, 0x41, 0x00, 0x90, 0x43, 
	0x45, 0x64, 0x80, 0x24, 0x30, 0x1c, 0x90, 0x30, 
	0x57, 0x64, 0x80, 0x43, 0x30, 0x00, 0x80, 0x30, 
	0x30, 0x1c, 0x90, 0x20, 0x43, 0x00, 0x90, 0x44, 
	0x4a, 0x64, 0x80, 0x20, 0x30, 0x1c, 0x90, 0x2c, 
	0x51, 0x64, 0x80, 0x44, 0x30, 0x00, 0x80, 0x2c, 
	0x30, 0x1c, 0x90, 0x20, 0x43, 0x00, 0x90, 0x44, 
	0x43, 0x64, 0x80, 0x44, 0x30, 0x00, 0x80, 0x20, 
	0x30, 0x1c, 0x90, 0x2c, 0x55, 0x00, 0x90, 0x43, 
	0x3e, 0x64, 0x80, 0x2c, 0x30, 0x1c, 0x90, 0x20, 
	0x43, 0x64, 0x80, 0x20, 0x30, 0x1c, 0x90, 0x2c, 
	0x57, 0x64, 0x80, 0x43, 0x30, 0x00, 0x80, 0x2c, 
	0x30, 0x1c, 0x90, 0x20, 0x43, 0x00, 0x90, 0x41, 
	0x3e, 0x64, 0x80, 0x20, 0x30, 0x1c, 0x90, 0x2c, 
	0x51, 0x64, 0x80, 0x41, 0x30, 0x00, 0x80, 0x2c, 
	0x30, 0x1c, 0x90, 0x20, 0x40, 0x00, 0x90, 0x44, 
	0x48, 0x64, 0x80, 0x20, 0x30, 0x1c, 0x90, 0x2c, 
	0x55, 0x64, 0x80, 0x44, 0x30, 0x00, 0x80, 0x2c, 
	0x30, 0x1c, 0x90, 0x20, 0x48, 0x00, 0x90, 0x44, 
	0x3f, 0x64, 0x80, 0x44, 0x30, 0x00, 0x80, 0x20, 
	0x30, 0x1c, 0x90, 0x2c, 0x55, 0x00, 0x90, 0x43, 
	0x40, 0x64, 0x80, 0x2c, 0x30, 0x1c, 0x90, 0x20, 
	0x44, 0x64, 0x80, 0x20, 0x30, 0x1c, 0x90, 0x2c, 
	0x53, 0x64, 0x80, 0x43, 0x30, 0x00, 0x80, 0x2c, 
	0x30, 0x1c, 0x90, 0x20, 0x45, 0x00, 0x90, 0x41, 
	0x41, 0x64, 0x80, 0x20, 0x30, 0x1c, 0x90, 0x2c, 
	0x54, 0x64, 0x80, 0x41, 0x30, 0x00, 0x80, 0x2c, 
	0x30, 0x1c, 0x90, 0x24, 0x49, 0x00, 0x90, 0x43, 
	0x40, 0x64, 0x80, 0x24, 0x30, 0x1c, 0x90, 0x30, 
	0x57, 0x64, 0x80, 0x43, 0x30, 0x00, 0x80, 0x30, 
	0x30, 0x1c, 0x90, 0x24, 0x42, 0x00, 0x90, 0x43, 
	0x44, 0x64, 0x80, 0x43, 0x30, 0x00, 0x80, 0x24, 
	0x30, 0x1c, 0x90, 0x30, 0x52, 0x00, 0x90, 0x41, 
	0x39, 0x64, 0x80, 0x30, 0x30, 0x1c, 0x90, 0x24, 
	0x43, 0x64, 0x80, 0x24, 0x30, 0x1c, 0x90, 0x30, 
	0x55, 0x64, 0x80, 0x41, 0x30, 0x00, 0x80, 0x30, 
	0x30, 0x1c, 0x90, 0x24, 0x43, 0x00, 0x90, 0x3f, 
	0x40, 0x64, 0x80, 0x24, 0x30, 0x1c, 0x90, 0x30, 
	0x54, 0x64, 0x80, 0x3f, 0x30, 0x00, 0x80, 0x30, 
	0x30, 0x1c, 0x90, 0x24, 0x43, 0x00, 0x90, 0x41, 
	0x49, 0x64, 0x80, 0x24, 0x30, 0x1c, 0x90, 0x30, 
	0x5b, 0x64, 0x80, 0x41, 0x30, 0x00, 0x80, 0x30, 
	0x30, 0x1c, 0x90, 0x24, 0x42, 0x00, 0x90, 0x3f, 
	0x3e, 0x64, 0x80, 0x3f, 0x30, 0x00, 0x80, 0x24, 
	0x30, 0x1c, 0x90, 0x30, 0x58, 0x00, 0x90, 0x3c, 
	0x3b, 0x64, 0x80, 0x30, 0x30, 0x1c, 0x90, 0x24, 
	0x44, 0x64, 0x80, 0x24, 0x30, 0x1c, 0x90, 0x30, 
	0x53, 0x64, 0x80, 0x3c, 0x30, 0x00, 0x80, 0x30, 
	0x30, 0x1c, 0x90, 0x24, 0x41, 0x00, 0x90, 0x43, 
	0x4c, 0x64, 0x80, 0x24, 0x30, 0x1c, 0x90, 0x30, 
	0x50, 0x64, 0x80, 0x43, 0x30, 0x00, 0x80, 0x30, 
	0x30, 0x1c, 0x90, 0x20, 0x44, 0x00, 0x90, 0x44, 
	0x45, 0x64, 0x80, 0x20, 0x30, 0x1c, 0x90, 0x2c, 
	0x58, 0x64, 0x80, 0x44, 0x30, 0x00, 0x80, 0x2c, 
	0x30, 0x1c, 0x90, 0x20, 0x46, 0x00, 0x90, 0x44, 
	0x44, 0x64, 0x80, 0x44, 0x30, 0x00, 0x80, 0x20, 
	0x30, 0x1c, 0x90, 0x2c, 0x55, 0x00, 0x90, 0x43, 
	0x40, 0x64, 0x80, 0x2c, 0x30, 0x1c, 0x90, 0x20, 
	0x45, 0x64, 0x80, 0x20, 0x30, 0x1c, 0x90, 0x2c, 
	0x52, 0x64, 0x80, 0x43, 0x30, 0x00, 0x80, 0x2c, 
	0x30, 0x1c, 0x90, 0x20, 0x42, 0x00, 0x90, 0x41, 
	0x38, 0x64, 0x80, 0x20, 0x30, 0x1c, 0x90, 0x2c, 
	0x57, 0x64, 0x80, 0x41, 0x30, 0x00, 0x80, 0x2c, 
	0x30, 0x1c, 0x90, 0x20, 0x47, 0x00, 0x90, 0x44, 
	0x47, 0x64, 0x80, 0x20, 0x30, 0x1c, 0x90, 0x2c, 
	0x51, 0x64, 0x80, 0x44, 0x30, 0x00, 0x80, 0x2c, 
	0x30, 0x1c, 0x90, 0x20, 0x47, 0x00, 0x90, 0x44, 
	0x3e, 0x64, 0x80, 0x44, 0x30, 0x00, 0x80, 0x20, 
	0x30, 0x1c, 0x90, 0x2c, 0x58, 0x00, 0x90, 0x43, 
	0x3b, 0x64, 0x80, 0x2c, 0x30, 0x1c, 0x90, 0x20, 
	0x40, 0x64, 0x80, 0x20, 0x30, 0x1c, 0x90, 0x2c, 
	0x54, 0x64, 0x80, 0x43, 0x30, 0x00, 0x80, 0x2c, 
	0x30, 0x1c, 0x90, 0x20, 0x45, 0x00, 0x90, 0x41, 
	0x3e, 0x64, 0x80, 0x20, 0x30, 0x1c, 0x90, 0x2c, 
	0x52, 0x64, 0x80, 0x41, 0x30, 0x00, 0x80, 0x2c, 
	0x30, 0x1c, 0x90, 0x22, 0x47, 0x00, 0x90, 0x46, 
	0x50, 0x64, 0x80, 0x22, 0x30, 0x1c, 0x90, 0x2e, 
	0x52, 0x64, 0x80, 0x2e, 0x30, 0x1c, 0x90, 0x22, 
	0x45, 0x64, 0x80, 0x22, 0x30, 0x1c, 0x90, 0x2e, 
	0x57, 0x64, 0x80, 0x2e, 0x30, 0x1c, 0x90, 0x22, 
	0x47, 0x64, 0x80, 0x22, 0x30, 0x1c, 0x90, 0x2e, 
	0x56, 0x64, 0x80, 0x2e, 0x30, 0x1c, 0x90, 0x22, 
	0x41, 0x64, 0x80, 0x22, 0x30, 0x1c, 0x90, 0x2e, 
	0x53, 0x64, 0x80, 0x46, 0x30, 0x00, 0x80, 0x2e, 
	0x30, 0x1c, 0x90, 0x22, 0x46, 0x81, 0x64, 0x80, 
	0x22, 0x30, 0x1c, 0x90, 0x3a, 0x3d, 0x81, 0x64, 
	0x80, 0x3a, 0x30, 0x1c, 0x90, 0x3f, 0x4b, 0x81, 
	0x64, 0x80, 0x3f, 0x30, 0x1c, 0x90, 0x41, 0x4a, 
	0x81, 0x64, 0x80, 0x41, 0x30, 0x1c, 0x90, 0x1b, 
	0x47, 0x00, 0x90, 0x43, 0x45, 0x64, 0x80, 0x1b, 
	0x30, 0x1c, 0x90, 0x27, 0x56, 0x64, 0x80, 0x27, 
	0x30, 0x1c, 0x90, 0x1b, 0x43, 0x64, 0x80, 0x43, 
	0x30, 0x00, 0x80, 0x1b, 0x30, 0x1c, 0x90, 0x27, 
	0x57, 0x00, 0x90, 0x41, 0x3e, 0x64, 0x80, 0x27, 
	0x30, 0x1c, 0x90, 0x1b, 0x47, 0x64, 0x80, 0x1b, 
	0x30, 0x1c, 0x90, 0x27, 0x56, 0x64, 0x80, 0x41, 
	0x30, 0x00, 0x80, 0x27, 0x30, 0x1c, 0x90, 0x1b, 
	0x45, 0x00, 0x90, 0x3f, 0x3b, 0x64, 0x80, 0x1b, 
	0x30, 0x1c, 0x90, 0x27, 0x54, 0x64, 0x80, 0x3f, 
	0x30, 0x00, 0x80, 0x27, 0x30, 0x1c, 0x90, 0x22, 
	0x4c, 0x00, 0x90, 0x46, 0x4c, 0x64, 0x80, 0x22, 
	0x30, 0x1c, 0x90, 0x2e, 0x54, 0x64, 0x80, 0x2e, 
	0x30, 0x1c, 0x90, 0x22, 0x47, 0x64, 0x80, 0x22, 
	0x30, 0x1c, 0x90, 0x2e, 0x56, 0x64, 0x80, 0x2e, 
	0x30, 0x1c, 0x90, 0x22, 0x46, 0x64, 0x80, 0x22, 
	0x30, 0x1c, 0x90, 0x2e, 0x5a, 0x64, 0x80, 0x46, 
	0x30, 0x00, 0x80, 0x2e, 0x30, 0x1c, 0x90, 0x22, 
	0x46, 0x00, 0x90, 0x46, 0x44, 0x64, 0x80, 0x22, 
	0x30, 0x1c, 0x90, 0x2e, 0x56, 0x64, 0x80, 0x46, 
	0x30, 0x00, 0x80, 0x2e, 0x30, 0x1c, 0x90, 0x20, 
	0x42, 0x00, 0x90, 0x46, 0x44, 0x64, 0x80, 0x20, 
	0x30, 0x1c, 0x90, 0x2c, 0x54, 0x64, 0x80, 0x46, 
	0x30, 0x00, 0x80, 0x2c, 0x30, 0x1c, 0x90, 0x20, 
	0x4a, 0x00, 0x90, 0x46, 0x3b, 0x64, 0x80, 0x46, 
	0x30, 0x00, 0x80, 0x20, 0x30, 0x1c, 0x90, 0x2c, 
	0x59, 0x00, 0x90, 0x44, 0x3e, 0x64, 0x80, 0x2c, 
	0x30, 0x1c, 0x90, 0x20, 0x43, 0x64, 0x80, 0x20, 
	0x30, 0x1c, 0x90, 0x2c, 0x56, 0x64, 0x80, 0x44, 
	0x30, 0x00, 0x80, 0x2c, 0x30, 0x1c, 0x90, 0x20, 
	0x44, 0x00, 0x90, 0x43, 0x40, 0x64, 0x80, 0x20, 
	0x30, 0x1c, 0x90, 0x2c, 0x51, 0x64, 0x80, 0x43, 
	0x30, 0x00, 0x80, 0x2c, 0x30, 0x1c, 0x90, 0x20, 
	0x42, 0x00, 0x90, 0x3f, 0x37, 0x64, 0x80, 0x20, 
	0x30, 0x1c, 0x90, 0x2c, 0x51, 0x64, 0x80, 0x3f, 
	0x30, 0x00, 0x80, 0x2c, 0x30, 0x1c, 0x90, 0x20, 
	0x44, 0x00, 0x90, 0x3f, 0x3e, 0x64, 0x80, 0x3f, 
	0x30, 0x00, 0x80, 0x20, 0x30, 0x1c, 0x90, 0x2c, 
	0x58, 0x00, 0x90, 0x41, 0x46, 0x64, 0x80, 0x2c, 
	0x30, 0x1c, 0x90, 0x20, 0x44, 0x64, 0x80, 0x20, 
	0x30, 0x1c, 0x90, 0x2c, 0x58, 0x64, 0x80, 0x41, 
	0x30, 0x00, 0x80, 0x2c, 0x30, 0x1c, 0x90, 0x20, 
	0x41, 0x64, 0x80, 0x20, 0x30, 0x1c, 0x90, 0x2c, 
	0x52, 0x64, 0x80, 0x2c, 0x30, 0x1c, 0x90, 0x24, 
	0x44, 0x00, 0x90, 0x43, 0x3e, 0x64, 0x80, 0x24, 
	0x30, 0x1c, 0x90, 0x30, 0x59, 0x64, 0x80, 0x43, 
	0x30, 0x00, 0x80, 0x30, 0x30, 0x1c, 0x90, 0x24, 
	0x44, 0x00, 0x90, 0x43, 0x40, 0x64, 0x80, 0x43, 
	0x30, 0x00, 0x80, 0x24, 0x30, 0x1c, 0x90, 0x30, 
	0x58, 0x00, 0x90, 0x44, 0x40, 0x64, 0x80, 0x30, 
	0x30, 0x1c, 0x90, 0x24, 0x43, 0x64, 0x80, 0x24, 
	0x30, 0x1c, 0x90, 0x30, 0x55, 0x64, 0x80, 0x44, 
	0x30, 0x00, 0x80, 0x30, 0x30, 0x1c, 0x90, 0x24, 
	0x45, 0x00, 0x90, 0x43, 0x3d, 0x64, 0x80, 0x24, 
	0x30, 0x1c, 0x90, 0x30, 0x54, 0x64, 0x80, 0x43, 
	0x30, 0x00, 0x80, 0x30, 0x30, 0x1c, 0x90, 0x22, 
	0x44, 0x00, 0x90, 0x41, 0x3e, 0x64, 0x80, 0x22, 
	0x30, 0x1c, 0x90, 0x2e, 0x58, 0x64, 0x80, 0x41, 
	0x30, 0x00, 0x80, 0x2e, 0x30, 0x1c, 0x90, 0x22, 
	0x44, 0x00, 0x90, 0x41, 0x3f, 0x64, 0x80, 0x41, 
	0x30, 0x00, 0x80, 0x22, 0x30, 0x1c, 0x90, 0x2e, 
	0x52, 0x00, 0x90, 0x43, 0x46, 0x64, 0x80, 0x2e, 
	0x30, 0x1c, 0x90, 0x22, 0x44, 0x64, 0x80, 0x22, 
	0x30, 0x1c, 0x90, 0x2e, 0x57, 0x64, 0x80, 0x43, 
	0x30, 0x00, 0x80, 0x2e, 0x30, 0x1c, 0x90, 0x22, 
	0x3e, 0x00, 0x90, 0x41, 0x41, 0x64, 0x80, 0x22, 
	0x30, 0x1c, 0x90, 0x2e, 0x54, 0x64, 0x80, 0x41, 
	0x30, 0x00, 0x80, 0x2e, 0x30, 0x1c, 0x90, 0x20, 
	0x40, 0x00, 0x90, 0x43, 0x48, 0x64, 0x80, 0x20, 
	0x30, 0x1c, 0x90, 0x2c, 0x55, 0x64, 0x80, 0x2c, 
	0x30, 0x1c, 0x90, 0x20, 0x46, 0x64, 0x80, 0x43, 
	0x30, 0x00, 0x80, 0x20, 0x30, 0x1c, 0x90, 0x2c, 
	0x56, 0x00, 0x90, 0x41, 0x3b, 0x64, 0x80, 0x2c, 
	0x30, 0x1c, 0x90, 0x20, 0x42, 0x64, 0x80, 0x20, 
	0x30, 0x1c, 0x90, 0x2c, 0x54, 0x64, 0x80, 0x41, 
	0x30, 0x00, 0x80, 0x2c, 0x30, 0x1c, 0x90, 0x20, 
	0x46, 0x00, 0x90, 0x3f, 0x41, 0x64, 0x80, 0x20, 
	0x30, 0x1c, 0x90, 0x2c, 0x56, 0x64, 0x80, 0x3f, 
	0x30, 0x00, 0x80, 0x2c, 0x30, 0x1c, 0x90, 0x20, 
	0x40, 0x00, 0x90, 0x3f, 0x42, 0x64, 0x80, 0x20, 
	0x30, 0x1c, 0x90, 0x2c, 0x56, 0x64, 0x80, 0x2c, 
	0x30, 0x1c, 0x90, 0x20, 0x40, 0x64, 0x80, 0x20, 
	0x30, 0x1c, 0x90, 0x2c, 0x56, 0x64, 0x80, 0x2c, 
	0x30, 0x1c, 0x90, 0x20, 0x43, 0x64, 0x80, 0x20, 
	0x30, 0x1c, 0x90, 0x2c, 0x54, 0x64, 0x80, 0x2c, 
	0x30, 0x1c, 0x90, 0x20, 0x4a, 0x64, 0x80, 0x20, 
	0x30, 0x1c, 0x90, 0x2c, 0x5a, 0x64, 0x80, 0x3f, 
	0x30, 0x00, 0x80, 0x2c, 0x30, 0x1c, 0x90, 0x24, 
	0x45, 0x00, 0x90, 0x43, 0x44, 0x64, 0x80, 0x24, 
	0x30, 0x1c, 0x90, 0x30, 0x55, 0x64, 0x80, 0x43, 
	0x30, 0x00, 0x80, 0x30, 0x30, 0x1c, 0x90, 0x24, 
	0x40, 0x00, 0x90, 0x43, 0x41, 0x64, 0x80, 0x43, 
	0x30, 0x00, 0x80, 0x24, 0x30, 0x1c, 0x90, 0x30, 
	0x59, 0x00, 0x90, 0x41, 0x3c, 0x64, 0x80, 0x30, 
	0x30, 0x1c, 0x90, 0x24, 0x3f, 0x64, 0x80, 0x24, 
	0x30, 0x1c, 0x90, 0x30, 0x57, 0x64, 0x80, 0x41, 
	0x30, 0x00, 0x80, 0x30, 0x30, 0x1c, 0x90, 0x24, 
	0x45, 0x00, 0x90, 0x3f, 0x3c, 0x64, 0x80, 0x24, 
	0x30, 0x1c, 0x90, 0x30, 0x51, 0x64, 0x80, 0x3f, 
	0x30, 0x00, 0x80, 0x30, 0x30, 0x1c, 0x90, 0x20, 
	0x42, 0x00, 0x90, 0x3f, 0x41, 0x64, 0x80, 0x20, 
	0x30, 0x1c, 0x90, 0x2c, 0x51, 0x64, 0x80, 0x3f, 
	0x30, 0x00, 0x80, 0x2c, 0x30, 0x1c, 0x90, 0x20, 
	0x45, 0x00, 0x90, 0x3f, 0x3f, 0x64, 0x80, 0x3f, 
	0x30, 0x00, 0x80, 0x20, 0x30, 0x1c, 0x90, 0x2c, 
	0x57, 0x00, 0x90, 0x41, 0x45, 0x64, 0x80, 0x2c, 
	0x30, 0x1c, 0x90, 0x20, 0x43, 0x64, 0x80, 0x20, 
	0x30, 0x1c, 0x90, 0x2c, 0x56, 0x64, 0x80, 0x41, 
	0x30, 0x00, 0x80, 0x2c, 0x30, 0x1c, 0x90, 0x20, 
	0x44, 0x64, 0x80, 0x20, 0x30, 0x1c, 0x90, 0x2c, 
	0x59, 0x64, 0x80, 0x2c, 0x30, 0x1c, 0x90, 0x24, 
	0x48, 0x00, 0x90, 0x43, 0x37, 0x64, 0x80, 0x24, 
	0x30, 0x1c, 0x90, 0x30, 0x54, 0x64, 0x80, 0x43, 
	0x30, 0x00, 0x80, 0x30, 0x30, 0x1c, 0x90, 0x24, 
	0x43, 0x00, 0x90, 0x43, 0x3f, 0x64, 0x80, 0x43, 
	0x30, 0x00, 0x80, 0x24, 0x30, 0x1c, 0x90, 0x30, 
	0x51, 0x00, 0x90, 0x41, 0x3e, 0x64, 0x80, 0x30, 
	0x30, 0x1c, 0x90, 0x24, 0x40, 0x64, 0x80, 0x24, 
	0x30, 0x1c, 0x90, 0x30, 0x55, 0x64, 0x80, 0x41, 
	0x30, 0x00, 0x80, 0x30, 0x30, 0x1c, 0x90, 0x24, 
	0x44, 0x00, 0x90, 0x3f, 0x3e, 0x64, 0x80, 0x24, 
	0x30, 0x1c, 0x90, 0x30, 0x55, 0x64, 0x80, 0x3f, 
	0x30, 0x00, 0x80, 0x30, 0x30, 0x1c, 0x90, 0x20, 
	0x44, 0x00, 0x90, 0x46, 0x4b, 0x64, 0x80, 0x20, 
	0x30, 0x1c, 0x90, 0x2c, 0x50, 0x64, 0x80, 0x2c, 
	0x30, 0x1c, 0x90, 0x20, 0x40, 0x64, 0x80, 0x46, 
	0x30, 0x00, 0x80, 0x20, 0x30, 0x1c, 0x90, 0x2c, 
	0x54, 0x00, 0x90, 0x43, 0x3f, 0x64, 0x80, 0x2c, 
	0x30, 0x1c, 0x90, 0x20, 0x42, 0x64, 0x80, 0x20, 
	0x30, 0x1c, 0x90, 0x2c, 0x55, 0x64, 0x80, 0x2c, 
	0x30, 0x1c, 0x90, 0x20, 0x46, 0x64, 0x80, 0x20, 
	0x30, 0x1c, 0x90, 0x2c, 0x53, 0x64, 0x80, 0x43, 
	0x30, 0x00, 0x80, 0x2c, 0x30, 0x1c, 0x90, 0x1d, 
	0x43, 0x00, 0x90, 0x44, 0x43, 0x64, 0x80, 0x44, 
	0x30, 0x00, 0x80, 0x1d, 0x30, 0x1c, 0x90, 0x29, 
	0x58, 0x00, 0x90, 0x44, 0x3a, 0x64, 0x80, 0x29, 
	0x30, 0x1c, 0x90, 0x1d, 0x45, 0x64, 0x80, 0x44, 
	0x30, 0x00, 0x80, 0x1d, 0x30, 0x1c, 0x90, 0x29, 
	0x55, 0x00, 0x90, 0x44, 0x44, 0x64, 0x80, 0x44, 
	0x30, 0x00, 0x80, 0x29, 0x30, 0x1c, 0x90, 0x1d, 
	0x44, 0x00, 0x90, 0x44, 0x45, 0x64, 0x80, 0x1d, 
	0x30, 0x1c, 0x90, 0x29, 0x53, 0x64, 0x80, 0x44, 
	0x30, 0x00, 0x80, 0x29, 0x30, 0x1c, 0x90, 0x1d, 
	0x42, 0x00, 0x90, 0x44, 0x40, 0x64, 0x80, 0x1d, 
	0x30, 0x1c, 0x90, 0x29, 0x53, 0x64, 0x80, 0x44, 
	0x30, 0x00, 0x80, 0x29, 0x30, 0x1c, 0x90, 0x1d, 
	0x41, 0x00, 0x90, 0x44, 0x43, 0x64, 0x80, 0x44, 
	0x30, 0x00, 0x80, 0x1d, 0x30, 0x1c, 0x90, 0x29, 
	0x53, 0x00, 0x90, 0x44, 0x40, 0x64, 0x80, 0x44, 
	0x30, 0x00, 0x80, 0x29, 0x30, 0x1c, 0x90, 0x1d, 
	0x46, 0x00, 0x90, 0x44, 0x3f, 0x64, 0x80, 0x1d, 
	0x30, 0x1c, 0x90, 0x29, 0x58, 0x64, 0x80, 0x44, 
	0x30, 0x00, 0x80, 0x29, 0x30, 0x1c, 0x90, 0x1d, 
	0x44, 0x00, 0x90, 0x46, 0x45, 0x64, 0x80, 0x1d, 
	0x30, 0x1c, 0x90, 0x29, 0x57, 0x64, 0x80, 0x46, 
	0x30, 0x00, 0x80, 0x29, 0x30, 0x1c, 0x90, 0x1d, 
	0x45, 0x00, 0x90, 0x48, 0x45, 0x64, 0x80, 0x48, 
	0x30, 0x00, 0x80, 0x1d, 0x30, 0x1c, 0x90, 0x29, 
	0x56, 0x00, 0x90, 0x46, 0x3f, 0x64, 0x80, 0x29, 
	0x30, 0x1c, 0x90, 0x22, 0x47, 0x64, 0x80, 0x22, 
	0x30, 0x1c, 0x90, 0x2e, 0x57, 0x64, 0x80, 0x46, 
	0x30, 0x00, 0x80, 0x2e, 0x30, 0x1c, 0x90, 0x22, 
	0x45, 0x00, 0x90, 0x46, 0x47, 0x64, 0x80, 0x22, 
	0x30, 0x1c, 0x90, 0x2e, 0x54, 0x64, 0x80, 0x2e, 
	0x30, 0x1c, 0x90, 0x22, 0x44, 0x64, 0x80, 0x22, 
	0x30, 0x1c, 0x90, 0x2e, 0x55, 0x64, 0x80, 0x2e, 
	0x30, 0x1c, 0x90, 0x22, 0x44, 0x64, 0x80, 0x22, 
	0x30, 0x1c, 0x90, 0x2e, 0x57, 0x64, 0x80, 0x46, 
	0x30, 0x00, 0x80, 0x2e, 0x30, 0x1c, 0x90, 0x22, 
	0x42, 0x81, 0x64, 0x80, 0x22, 0x30, 0x1c, 0x90, 
	0x3f, 0x38, 0x81, 0x64, 0x80, 0x3f, 0x30, 0x1c, 
	0x90, 0x43, 0x47, 0x81, 0x64, 0x80, 0x43, 0x30, 
	0x1c, 0x90, 0x46, 0x48, 0x81, 0x64, 0x80, 0x46, 
	0x30, 0x1c, 0x90, 0x20, 0x43, 0x00, 0x90, 0x48, 
	0x47, 0x64, 0x80, 0x20, 0x30, 0x1c, 0x90, 0x2c, 
	0x52, 0x64, 0x80, 0x2c, 0x30, 0x1c, 0x90, 0x20, 
	0x3e, 0x64, 0x80, 0x20, 0x30, 0x1c, 0x90, 0x2c, 
	0x52, 0x64, 0x80, 0x2c, 0x30, 0x1c, 0x90, 0x20, 
	0x40, 0x64, 0x80, 0x20, 0x30, 0x1c, 0x90, 0x2c, 
	0x54, 0x64, 0x80, 0x48, 0x30, 0x00, 0x80, 0x2c, 
	0x30, 0x1c, 0x90, 0x20, 0x45, 0x00, 0x90, 0x48, 
	0x43, 0x64, 0x80, 0x20, 0x30, 0x1c, 0x90, 0x2c, 
	0x54, 0x64, 0x80, 0x48, 0x30, 0x00, 0x80, 0x2c, 
	0x30, 0x1c, 0x90, 0x20, 0x43, 0x00, 0x90, 0x48, 
	0x40, 0x64, 0x80, 0x20, 0x30, 0x1c, 0x90, 0x2c, 
	0x57, 0x64, 0x80, 0x2c, 0x30, 0x1c, 0x90, 0x20, 
	0x44, 0x64, 0x80, 0x48, 0x30, 0x00, 0x80, 0x20, 
	0x30, 0x1c, 0x90, 0x2c, 0x5a, 0x00, 0x90, 0x46, 
	0x40, 0x64, 0x80, 0x2c, 0x30, 0x1c, 0x90, 0x20, 
	0x44, 0x64, 0x80, 0x20, 0x30, 0x1c, 0x90, 0x2c, 
	0x54, 0x64, 0x80, 0x46, 0x30, 0x00, 0x80, 0x2c, 
	0x30, 0x1c, 0x90, 0x20, 0x48, 0x00, 0x90, 0x41, 
	0x38, 0x64, 0x80, 0x20, 0x30, 0x1c, 0x90, 0x2c, 
	0x55, 0x64, 0x80, 0x41, 0x30, 0x00, 0x80, 0x2c, 
	0x30, 0x1c, 0x90, 0x24, 0x43, 0x00, 0x90, 0x43, 
	0x42, 0x64, 0x80, 0x24, 0x30, 0x1c, 0x90, 0x30, 
	0x53, 0x64, 0x80, 0x43, 0x30, 0x00, 0x80, 0x30, 
	0x30, 0x1c, 0x90, 0x24, 0x42, 0x00, 0x90, 0x46, 
	0x49, 0x64, 0x80, 0x46, 0x30, 0x00, 0x80, 0x24, 
	0x30, 0x1c, 0x90, 0x30, 0x56, 0x00, 0x90, 0x43, 
	0x3e, 0x64, 0x80, 0x30, 0x30, 0x1c, 0x90, 0x24, 
	0x41, 0x64, 0x80, 0x24, 0x30, 0x1c, 0x90, 0x30, 
	0x57, 0x64, 0x80, 0x30, 0x30, 0x1c, 0x90, 0x24, 
	0x43, 0x64, 0x80, 0x24, 0x30, 0x1c, 0x90, 0x30, 
	0x50, 0x64, 0x80, 0x30, 0x30, 0x1c, 0x90, 0x24, 
	0x46, 0x64, 0x80, 0x24, 0x30, 0x1c, 0x90, 0x30, 
	0x53, 0x64, 0x80, 0x43, 0x30, 0x00, 0x80, 0x30, 
	0x30, 0x1c, 0x90, 0x24, 0x45, 0x64, 0x80, 0x24, 
	0x30, 0x1c, 0x90, 0x30, 0x54, 0x64, 0x80, 0x30, 
	0x30, 0x1c, 0x90, 0x24, 0x41, 0x00, 0x90, 0x3f, 
	0x3c, 0x64, 0x80, 0x24, 0x30, 0x1c, 0x90, 0x30, 
	0x54, 0x64, 0x80, 0x3f, 0x30, 0x00, 0x80, 0x30, 
	0x30, 0x1c, 0x90, 0x24, 0x40, 0x00, 0x90, 0x3f, 
	0x42, 0x64, 0x80, 0x24, 0x30, 0x1c, 0x90, 0x30, 
	0x57, 0x64, 0x80, 0x3f, 0x30, 0x00, 0x80, 0x30, 
	0x30, 0x1c, 0x90, 0x22, 0x42, 0x00, 0x90, 0x41, 
	0x43, 0x64, 0x80, 0x22, 0x30, 0x1c, 0x90, 0x2e, 
	0x56, 0x64, 0x80, 0x2e, 0x30, 0x1c, 0x90, 0x22, 
	0x43, 0x64, 0x80, 0x41, 0x30, 0x00, 0x80, 0x22, 
	0x30, 0x1c, 0x90, 0x2e, 0x54, 0x00, 0x90, 0x41, 
	0x41, 0x64, 0x80, 0x2e, 0x30, 0x1c, 0x90, 0x22, 
	0x48, 0x64, 0x80, 0x22, 0x30, 0x1c, 0x90, 0x2e, 
	0x55, 0x64, 0x80, 0x41, 0x30, 0x00, 0x80, 0x2e, 
	0x30, 0x1c, 0x90, 0x22, 0x41, 0x00, 0x90, 0x41, 
	0x42, 0x64, 0x80, 0x22, 0x30, 0x1c, 0x90, 0x2e, 
	0x51, 0x64, 0x80, 0x41, 0x30, 0x00, 0x80, 0x2e, 
	0x30, 0x1c, 0x90, 0x22, 0x44, 0x00, 0x90, 0x43, 
	0x48, 0x64, 0x80, 0x22, 0x30, 0x1c, 0x90, 0x2e, 
	0x57, 0x64, 0x80, 0x2e, 0x30, 0x1c, 0x90, 0x22, 
	0x40, 0x64, 0x80, 0x43, 0x30, 0x00, 0x80, 0x22, 
	0x30, 0x1c, 0x90, 0x2e, 0x58, 0x00, 0x90, 0x41, 
	0x3c, 0x64, 0x80, 0x2e, 0x30, 0x1c, 0x90, 0x22, 
	0x47, 0x64, 0x80, 0x22, 0x30, 0x1c, 0x90, 0x2e, 
	0x54, 0x64, 0x80, 0x41, 0x30, 0x00, 0x80, 0x2e, 
	0x30, 0x1c, 0x90, 0x22, 0x40, 0x00, 0x90, 0x3f, 
	0x40, 0x64, 0x80, 0x22, 0x30, 0x1c, 0x90, 0x2e, 
	0x59, 0x64, 0x80, 0x3f, 0x30, 0x00, 0x80, 0x2e, 
	0x30, 0x1c, 0x90, 0x1f, 0x46, 0x00, 0x90, 0x43, 
	0x47, 0x64, 0x80, 0x1f, 0x30, 0x1c, 0x90, 0x2b, 
	0x54, 0x64, 0x80, 0x2b, 0x30, 0x1c, 0x90, 0x1f, 
	0x42, 0x64, 0x80, 0x1f, 0x30, 0x1c, 0x90, 0x2b, 
	0x59, 0x64, 0x80, 0x2b, 0x30, 0x1c, 0x90, 0x1f, 
	0x44, 0x64, 0x80, 0x1f, 0x30, 0x1c, 0x90, 0x2b, 
	0x53, 0x64, 0x80, 0x2b, 0x30, 0x1c, 0x90, 0x1f, 
	0x48, 0x64, 0x80, 0x1f, 0x30, 0x1c, 0x90, 0x2b, 
	0x5a, 0x64, 0x80, 0x2b, 0x30, 0x1c, 0x90, 0x1f, 
	0x3c, 0x64, 0x80, 0x1f, 0x30, 0x1c, 0x90, 0x2b, 
	0x53, 0x64, 0x80, 0x43, 0x30, 0x00, 0x80, 0x2b, 
	0x30, 0x1c, 0x90, 0x1f, 0x41, 0x00, 0x90, 0x3f, 
	0x37, 0x64, 0x80, 0x1f, 0x30, 0x1c, 0x90, 0x2b, 
	0x53, 0x64, 0x80, 0x3f, 0x30, 0x00, 0x80, 0x2b, 
	0x30, 0x1c, 0x90, 0x1f, 0x43, 0x00, 0x90, 0x43, 
	0x44, 0x64, 0x80, 0x1f, 0x30, 0x1c, 0x90, 0x2b, 
	0x52, 0x64, 0x80, 0x43, 0x30, 0x00, 0x80, 0x2b, 
	0x30, 0x1c, 0x90, 0x1f, 0x48, 0x00, 0x90, 0x46, 
	0x48, 0x64, 0x80, 0x1f, 0x30, 0x1c, 0x90, 0x2b, 
	0x55, 0x64, 0x80, 0x46, 0x30, 0x00, 0x80, 0x2b, 
	0x30, 0x1c, 0x90, 0x20, 0x45, 0x00, 0x90, 0x48, 
	0x49, 0x64, 0x80, 0x20, 0x30, 0x1c, 0x90, 0x2c, 
	0x58, 0x64, 0x80, 0x2c, 0x30, 0x1c, 0x90, 0x20, 
	0x48, 0x64, 0x80, 0x20, 0x30, 0x1c, 0x90, 0x2c, 
	0x54, 0x64, 0x80, 0x2c, 0x30, 0x1c, 0x90, 0x20, 
	0x41, 0x64, 0x80, 0x20, 0x30, 0x1c, 0x90, 0x2c, 
	0x53, 0x64, 0x80, 0x48, 0x30, 0x00, 0x80, 0x2c, 
	0x30, 0x1c, 0x90, 0x20, 0x46, 0x00, 0x90, 0x48, 
	0x42, 0x64, 0x80, 0x48, 0x30, 0x00, 0x80, 0x20, 
	0x30, 0x1c, 0x90, 0x2c, 0x55, 0x00, 0x90, 0x48, 
	0x3e, 0x64, 0x80, 0x48, 0x30, 0x00, 0x80, 0x2c, 
	0x30, 0x1c, 0x90, 0x20, 0x43, 0x00, 0x90, 0x48, 
	0x42, 0x64, 0x80, 0x20, 0x30, 0x1c, 0x90, 0x2c, 
	0x56, 0x64, 0x80, 0x2c, 0x30, 0x1c, 0x90, 0x20, 
	0x48, 0x64, 0x80, 0x48, 0x30, 0x00, 0x80, 0x20, 
	0x30, 0x1c, 0x90, 0x2c, 0x53, 0x00, 0x90, 0x46, 
	0x3c, 0x64, 0x80, 0x2c, 0x30, 0x1c, 0x90, 0x20, 
	0x42, 0x64, 0x80, 0x20, 0x30, 0x1c, 0x90, 0x2c, 
	0x55, 0x64, 0x80, 0x46, 0x30, 0x00, 0x80, 0x2c, 
	0x30, 0x1c, 0x90, 0x20, 0x43, 0x00, 0x90, 0x41, 
	0x3a, 0x64, 0x80, 0x20, 0x30, 0x1c, 0x90, 0x2c, 
	0x58, 0x64, 0x80, 0x41, 0x30, 0x00, 0x80, 0x2c, 
	0x30, 0x1c, 0x90, 0x24, 0x48, 0x00, 0x90, 0x43, 
	0x44, 0x64, 0x80, 0x24, 0x30, 0x1c, 0x90, 0x30, 
	0x57, 0x64, 0x80, 0x43, 0x30, 0x00, 0x80, 0x30, 
	0x30, 0x1c, 0x90, 0x24, 0x44, 0x00, 0x90, 0x46, 
	0x44, 0x64, 0x80, 0x46, 0x30, 0x00, 0x80, 0x24, 
	0x30, 0x1c, 0x90, 0x30, 0x54, 0x00, 0x90, 0x43, 
	0x37, 0x64, 0x80, 0x30, 0x30, 0x1c, 0x90, 0x24, 
	0x45, 0x64, 0x80, 0x24, 0x30, 0x1c, 0x90, 0x30, 
	0x59, 0x64, 0x80, 0x43, 0x30, 0x00, 0x80, 0x30, 
	0x30, 0x1c, 0x90, 0x24, 0x43, 0x00, 0x90, 0x41, 
	0x3b, 0x64, 0x80, 0x24, 0x30, 0x1c, 0x90, 0x30, 
	0x51, 0x64, 0x80, 0x41, 0x30, 0x00, 0x80, 0x30, 
	0x30, 0x1c, 0x90, 0x24, 0x44, 0x00, 0x90, 0x43, 
	0x47, 0x64, 0x80, 0x24, 0x30, 0x1c, 0x90, 0x30, 
	0x56, 0x64, 0x80, 0x30, 0x30, 0x1c, 0x90, 0x24, 
	0x42, 0x64, 0x80, 0x24, 0x30, 0x1c, 0x90, 0x30, 
	0x53, 0x64, 0x80, 0x43, 0x30, 0x00, 0x80, 0x30, 
	0x30, 0x1c, 0x90, 0x24, 0x46, 0x00, 0x90, 0x3c, 
	0x35, 0x64, 0x80, 0x24, 0x30, 0x1c, 0x90, 0x30, 
	0x56, 0x64, 0x80, 0x3c, 0x30, 0x00, 0x80, 0x30, 
	0x30, 0x1c, 0x90, 0x24, 0x3f, 0x00, 0x90, 0x3f, 
	0x46, 0x64, 0x80, 0x24, 0x30, 0x1c, 0x90, 0x30, 
	0x56, 0x64, 0x80, 0x3f, 0x30, 0x00, 0x80, 0x30, 
	0x30, 0x1c, 0x90, 0x22, 0x42, 0x00, 0x90, 0x41, 
	0x48, 0x64, 0x80, 0x22, 0x30, 0x1c, 0x90, 0x2e, 
	0x56, 0x64, 0x80, 0x2e, 0x30, 0x1c, 0x90, 0x22, 
	0x45, 0x64, 0x80, 0x41, 0x30, 0x00, 0x80, 0x22, 
	0x30, 0x1c, 0x90, 0x2e, 0x52, 0x00, 0x90, 0x41, 
	0x42, 0x64, 0x80, 0x2e, 0x30, 0x1c, 0x90, 0x22, 
	0x42, 0x64, 0x80, 0x22, 0x30, 0x1c, 0x90, 0x2e, 
	0x55, 0x64, 0x80, 0x41, 0x30, 0x00, 0x80, 0x2e, 
	0x30, 0x1c, 0x90, 0x22, 0x3e, 0x00, 0x90, 0x41, 
	0x45, 0x64, 0x80, 0x22, 0x30, 0x1c, 0x90, 0x2e, 
	0x54, 0x64, 0x80, 0x41, 0x30, 0x00, 0x80, 0x2e, 
	0x30, 0x1c, 0x90, 0x22, 0x45, 0x00, 0x90, 0x41, 
	0x3f, 0x81, 0x64, 0x80, 0x41, 0x30, 0x00, 0x80, 
	0x22, 0x30, 0x1c, 0x90, 0x3f, 0x3e, 0x81, 0x64, 
	0x80, 0x3f, 0x30, 0x1c, 0x90, 0x3c, 0x3a, 0x81, 
	0x64, 0x80, 0x3c, 0x30, 0x1c, 0x90, 0x46, 0x4d, 
	0x00, 0x90, 0x3a, 0x4d, 0x81, 0x64, 0x80, 0x3a, 
	0x30, 0x00, 0x80, 0x46, 0x30, 0x1c, 0x90, 0x24, 
	0x44, 0x00, 0x90, 0x43, 0x3d, 0x64, 0x80, 0x43, 
	0x30, 0x00, 0x80, 0x24, 0x30, 0x1c, 0x90, 0x30, 
	0x53, 0x00, 0x90, 0x43, 0x3f, 0x64, 0x80, 0x30, 
	0x30, 0x1c, 0x90, 0x24, 0x44, 0x64, 0x80, 0x43, 
	0x30, 0x00, 0x80, 0x24, 0x30, 0x1c, 0x90, 0x30, 
	0x56, 0x00, 0x90, 0x41, 0x3f, 0x64, 0x80, 0x41, 
	0x30, 0x00, 0x80, 0x30, 0x30, 0x1c, 0x90, 0x24, 
	0x43, 0x00, 0x90, 0x43, 0x46, 0x64, 0x80, 0x43, 
	0x30, 0x00, 0x80, 0x24, 0x30, 0x1c, 0x90, 0x30, 
	0x57, 0x00, 0x90, 0x41, 0x3b, 0x64, 0x80, 0x41, 
	0x30, 0x00, 0x80, 0x30, 0x30, 0x1c, 0x90, 0x24, 
	0x43, 0x00, 0x90, 0x3f, 0x3a, 0x64, 0x80, 0x3f, 
	0x30, 0x00, 0x80, 0x24, 0x30, 0x1c, 0x90, 0x30, 
	0x52, 0x00, 0x90, 0x3c, 0x3e, 0x64, 0x80, 0x3c, 
	0x30, 0x00, 0x80, 0x30, 0x30, 0x1c, 0x90, 0x24, 
	0x40, 0x00, 0x90, 0x43, 0x4b, 0x64, 0x80, 0x43, 
	0x30, 0x00, 0x80, 0x24, 0x30, 0x1c, 0x90, 0x30, 
	0x54, 0x00, 0x90, 0x43, 0x49, 0x64, 0x80, 0x30, 
	0x30, 0x1c, 0x90, 0x24, 0x44, 0x64, 0x80, 0x43, 
	0x30, 0x00, 0x80, 0x24, 0x30, 0x1c, 0x90, 0x30, 
	0x54, 0x00, 0x90, 0x3f, 0x3b, 0x64, 0x80, 0x3f, 
	0x30, 0x00, 0x80, 0x30, 0x30, 0x1c, 0x90, 0x24, 
	0x43, 0x00, 0x90, 0x41, 0x45, 0x64, 0x80, 0x41, 
	0x30, 0x00, 0x80, 0x24, 0x30, 0x1c, 0x90, 0x30, 
	0x55, 0x00, 0x90, 0x43, 0x49, 0x64, 0x80, 0x43, 
	0x30, 0x00, 0x80, 0x30, 0x30, 0x1c, 0x90, 0x24, 
	0x4a, 0x00, 0x90, 0x52, 0x52, 0x64, 0x80, 0x24, 
	0x30, 0x1c, 0x90, 0x30, 0x52, 0x64, 0x80, 0x52, 
	0x30, 0x00, 0x80, 0x30, 0x30, 0x1c, 0x90, 0x20, 
	0x45, 0x00, 0x90, 0x4b, 0x36, 0x64, 0x80, 0x4b, 
	0x30, 0x00, 0x80, 0x20, 0x30, 0x1c, 0x90, 0x2c, 
	0x55, 0x00, 0x90, 0x4b, 0x3f, 0x64, 0x80, 0x2c, 
	0x30, 0x1c, 0x90, 0x20, 0x43, 0x64, 0x80, 0x4b, 
	0x30, 0x00, 0x80, 0x20, 0x30, 0x1c, 0x90, 0x2c, 
	0x55, 0x00, 0x90, 0x4a, 0x3d, 0x64, 0x80, 0x4a, 
	0x30, 0x00, 0x80, 0x2c, 0x30, 0x1c, 0x90, 0x20, 
	0x3f, 0x00, 0x90, 0x4b, 0x3f, 0x64, 0x80, 0x4b, 
	0x30, 0x00, 0x80, 0x20, 0x30, 0x1c, 0x90, 0x2c, 
	0x57, 0x00, 0x90, 0x4d, 0x46, 0x64, 0x80, 0x4d, 
	0x30, 0x00, 0x80, 0x2c, 0x30, 0x1c, 0x90, 0x20, 
	0x44, 0x00, 0x90, 0x4f, 0x47, 0x64, 0x80, 0x4f, 
	0x30, 0x00, 0x80, 0x20, 0x30, 0x1c, 0x90, 0x2c, 
	0x54, 0x00, 0x90, 0x4b, 0x3b, 0x64, 0x80, 0x4b, 
	0x30, 0x00, 0x80, 0x2c, 0x30, 0x1c, 0x90, 0x22, 
	0x47, 0x00, 0x90, 0x4f, 0x48, 0x64, 0x80, 0x4f, 
	0x30, 0x00, 0x80, 0x22, 0x30, 0x1c, 0x90, 0x2e, 
	0x56, 0x00, 0x90, 0x4d, 0x3f, 0x64, 0x80, 0x4d, 
	0x30, 0x00, 0x80, 0x2e, 0x30, 0x1c, 0x90, 0x22, 
	0x44, 0x00, 0x90, 0x4b, 0x3c, 0x64, 0x80, 0x4b, 
	0x30, 0x00, 0x80, 0x22, 0x30, 0x1c, 0x90, 0x2e, 
	0x56, 0x00, 0x90, 0x4d, 0x4a, 0x64, 0x80, 0x2e, 
	0x30, 0x1c, 0x90, 0x22, 0x42, 0x64, 0x80, 0x22, 
	0x30, 0x1c, 0x90, 0x2e, 0x57, 0x64, 0x80, 0x2e, 
	0x30, 0x1c, 0x90, 0x22, 0x42, 0x64, 0x80, 0x22, 
	0x30, 0x1c, 0x90, 0x2e, 0x52, 0x64, 0x80, 0x4d, 
	0x30, 0x00, 0x80, 0x2e, 0x30, 0x1c, 0x90, 0x24, 
	0x47, 0x00, 0x90, 0x52, 0x45, 0x64, 0x80, 0x52, 
	0x30, 0x00, 0x80, 0x24, 0x30, 0x1c, 0x90, 0x30, 
	0x51, 0x00, 0x90, 0x43, 0x2e, 0x64, 0x80, 0x43, 
	0x30, 0x00, 0x80, 0x30, 0x30, 0x1c, 0x90, 0x24, 
	0x46, 0x00, 0x90, 0x3f, 0x36, 0x64, 0x80, 0x3f, 
	0x30, 0x00, 0x80, 0x24, 0x30, 0x1c, 0x90, 0x30, 
	0x53, 0x00, 0x90, 0x4b, 0x50, 0x64, 0x80, 0x30, 
	0x30, 0x1c, 0x90, 0x24, 0x41, 0x64, 0x80, 0x4b, 
	0x30, 0x00, 0x80, 0x24, 0x30, 0x1c, 0x90, 0x30, 
	0x56, 0x00, 0x90, 0x3f, 0x2e, 0x64, 0x80, 0x3f, 
	0x30, 0x00, 0x80, 0x30, 0x30, 0x1c, 0x90, 0x24, 
	0x3a, 0x00, 0x90, 0x4b, 0x4f, 0x64, 0x80, 0x4b, 
	0x30, 0x00, 0x80, 0x24, 0x30, 0x1c, 0x90, 0x30, 
	0x56, 0x00, 0x90, 0x4f, 0x4d, 0x64, 0x80, 0x30, 
	0x30, 0x1c, 0x90, 0x24, 0x47, 0x64, 0x80, 0x4f, 
	0x30, 0x00, 0x80, 0x24, 0x30, 0x1c, 0x90, 0x30, 
	0x54, 0x00, 0x90, 0x4b, 0x3e, 0x64, 0x80, 0x4b, 
	0x30, 0x00, 0x80, 0x30, 0x30, 0x1c, 0x90, 0x24, 
	0x40, 0x00, 0x90, 0x4f, 0x46, 0x64, 0x80, 0x4f, 
	0x30, 0x00, 0x80, 0x24, 0x30, 0x1c, 0x90, 0x30, 
	0x56, 0x00, 0x90, 0x50, 0x45, 0x64, 0x80, 0x50, 
	0x30, 0x00, 0x80, 0x30, 0x30, 0x1c, 0x90, 0x24, 
	0x45, 0x00, 0x90, 0x52, 0x45, 0x64, 0x80, 0x24, 
	0x30, 0x1c, 0x90, 0x30, 0x56, 0x64, 0x80, 0x52, 
	0x30, 0x00, 0x80, 0x30, 0x30, 0x1c, 0x90, 0x24, 
	0x43, 0x00, 0x90, 0x50, 0x40, 0x64, 0x80, 0x50, 
	0x30, 0x00, 0x80, 0x24, 0x30, 0x1c, 0x90, 0x30, 
	0x54, 0x00, 0x90, 0x4f, 0x3f, 0x64, 0x80, 0x4f, 
	0x30, 0x00, 0x80, 0x30, 0x30, 0x1c, 0x90, 0x20, 
	0x44, 0x00, 0x90, 0x4b, 0x35, 0x64, 0x80, 0x4b, 
	0x30, 0x00, 0x80, 0x20, 0x30, 0x1c, 0x90, 0x2c, 
	0x55, 0x00, 0x90, 0x4b, 0x40, 0x64, 0x80, 0x4b, 
	0x30, 0x00, 0x80, 0x2c, 0x30, 0x1c, 0x90, 0x20, 
	0x42, 0x00, 0x90, 0x46, 0x34, 0x64, 0x80, 0x46, 
	0x30, 0x00, 0x80, 0x20, 0x30, 0x1c, 0x90, 0x2c, 
	0x4f, 0x00, 0x90, 0x4b, 0x46, 0x64, 0x80, 0x4b, 
	0x30, 0x00, 0x80, 0x2c, 0x30, 0x1c, 0x90, 0x20, 
	0x49, 0x00, 0x90, 0x4b, 0x48, 0x64, 0x80, 0x4b, 
	0x30, 0x00, 0x80, 0x20, 0x30, 0x1c, 0x90, 0x2c, 
	0x55, 0x00, 0x90, 0x46, 0x38, 0x64, 0x80, 0x46, 
	0x30, 0x00, 0x80, 0x2c, 0x30, 0x1c, 0x90, 0x20, 
	0x45, 0x00, 0x90, 0x44, 0x3c, 0x64, 0x80, 0x44, 
	0x30, 0x00, 0x80, 0x20, 0x30, 0x1c, 0x90, 0x2c, 
	0x57, 0x00, 0x90, 0x43, 0x3d, 0x64, 0x80, 0x43, 
	0x30, 0x00, 0x80, 0x2c, 0x30, 0x1c, 0x90, 0x22, 
	0x42, 0x00, 0x90, 0x46, 0x46, 0x64, 0x80, 0x46, 
	0x30, 0x00, 0x80, 0x22, 0x30, 0x1c, 0x90, 0x2e, 
	0x52, 0x00, 0x90, 0x43, 0x3c, 0x64, 0x80, 0x43, 
	0x30, 0x00, 0x80, 0x2e, 0x30, 0x1c, 0x90, 0x22, 
	0x46, 0x00, 0x90, 0x4b, 0x4d, 0x64, 0x80, 0x4b, 
	0x30, 0x00, 0x80, 0x22, 0x30, 0x1c, 0x90, 0x2e, 
	0x57, 0x00, 0x90, 0x41, 0x36, 0x64, 0x80, 0x2e, 
	0x30, 0x1c, 0x90, 0x22, 0x43, 0x64, 0x80, 0x22, 
	0x30, 0x1c, 0x90, 0x2e, 0x53, 0x64, 0x80, 0x2e, 
	0x30, 0x1c, 0x90, 0x22, 0x3f, 0x64, 0x80, 0x22, 
	0x30, 0x1c, 0x90, 0x2e, 0x55, 0x64, 0x80, 0x41, 
	0x30, 0x00, 0x80, 0x2e, 0x30, 0x1c, 0x90, 0x24, 
	0x44, 0x64, 0x80, 0x24, 0x30, 0x1c, 0x90, 0x30, 
	0x53, 0x00, 0x90, 0x41, 0x35, 0x64, 0x80, 0x41, 
	0x30, 0x00, 0x80, 0x30, 0x30, 0x1c, 0x90, 0x24, 
	0x41, 0x00, 0x90, 0x43, 0x44, 0x64, 0x80, 0x43, 
	0x30, 0x00, 0x80, 0x24, 0x30, 0x1c, 0x90, 0x30, 
	0x54, 0x00, 0x90, 0x41, 0x3c, 0x64, 0x80, 0x41, 
	0x30, 0x00, 0x80, 0x30, 0x30, 0x1c, 0x90, 0x24, 
	0x41, 0x00, 0x90, 0x43, 0x46, 0x64, 0x80, 0x43, 
	0x30, 0x00, 0x80, 0x24, 0x30, 0x1c, 0x90, 0x30, 
	0x57, 0x00, 0x90, 0x41, 0x3e, 0x64, 0x80, 0x41, 
	0x30, 0x00, 0x80, 0x30, 0x30, 0x1c, 0x90, 0x24, 
	0x45, 0x00, 0x90, 0x3f, 0x3b, 0x64, 0x80, 0x3f, 
	0x30, 0x00, 0x80, 0x24, 0x30, 0x1c, 0x90, 0x30, 
	0x53, 0x00, 0x90, 0x3c, 0x3c, 0x64, 0x80, 0x3c, 
	0x30, 0x00, 0x80, 0x30, 0x30, 0x1c, 0x90, 0x24, 
	0x41, 0x64, 0x80, 0x24, 0x30, 0x1c, 0x90, 0x30, 
	0x55, 0x00, 0x90, 0x41, 0x39, 0x64, 0x80, 0x41, 
	0x30, 0x00, 0x80, 0x30, 0x30, 0x1c, 0x90, 0x24, 
	0x42, 0x00, 0x90, 0x43, 0x42, 0x64, 0x80, 0x43, 
	0x30, 0x00, 0x80, 0x24, 0x30, 0x1c, 0x90, 0x30, 
	0x55, 0x00, 0x90, 0x41, 0x3f, 0x64, 0x80, 0x41, 
	0x30, 0x00, 0x80, 0x30, 0x30, 0x1c, 0x90, 0x24, 
	0x42, 0x00, 0x90, 0x43, 0x44, 0x64, 0x80, 0x43, 
	0x30, 0x00, 0x80, 0x24, 0x30, 0x1c, 0x90, 0x30, 
	0x58, 0x00, 0x90, 0x44, 0x44, 0x64, 0x80, 0x44, 
	0x30, 0x00, 0x80, 0x30, 0x30, 0x1c, 0x90, 0x24, 
	0x43, 0x00, 0x90, 0x52, 0x51, 0x64, 0x80, 0x24, 
	0x30, 0x1c, 0x90, 0x30, 0x55, 0x64, 0x80, 0x52, 
	0x30, 0x00, 0x80, 0x30, 0x30, 0x1c, 0x90, 0x20, 
	0x44, 0x00, 0x90, 0x4b, 0x39, 0x24, 0x80, 0x4b, 
	0x30, 0x1c, 0x90, 0x46, 0x38, 0x24, 0x80, 0x20, 
	0x30, 0x00, 0x80, 0x46, 0x30, 0x1c, 0x90, 0x2c, 
	0x56, 0x00, 0x90, 0x4b, 0x47, 0x24, 0x80, 0x4b, 
	0x30, 0x1c, 0x90, 0x46, 0x34, 0x24, 0x80, 0x2c, 
	0x30, 0x00, 0x80, 0x46, 0x30, 0x1c, 0x90, 0x20, 
	0x45, 0x00, 0x90, 0x4b, 0x4d, 0x24, 0x80, 0x4b, 
	0x30, 0x1c, 0x90, 0x46, 0x39, 0x24, 0x80, 0x20, 
	0x30, 0x00, 0x80, 0x46, 0x30, 0x1c, 0x90, 0x2c, 
	0x55, 0x00, 0x90, 0x48, 0x48, 0x24, 0x80, 0x48, 
	0x30, 0x1c, 0x90, 0x44, 0x3c, 0x24, 0x80, 0x2c, 
	0x30, 0x00, 0x80, 0x44, 0x30, 0x1c, 0x90, 0x20, 
	0x45, 0x00, 0x90, 0x48, 0x47, 0x24, 0x80, 0x48, 
	0x30, 0x1c, 0x90, 0x44, 0x40, 0x24, 0x80, 0x20, 
	0x30, 0x00, 0x80, 0x44, 0x30, 0x1c, 0x90, 0x2c, 
	0x55, 0x00, 0x90, 0x48, 0x4a, 0x24, 0x80, 0x48, 
	0x30, 0x1c, 0x90, 0x44, 0x3a, 0x24, 0x80, 0x2c, 
	0x30, 0x00, 0x80, 0x44, 0x30, 0x1c, 0x90, 0x20, 
	0x41, 0x00, 0x90, 0x46, 0x49, 0x24, 0x80, 0x46, 
	0x30, 0x1c, 0x90, 0x43, 0x40, 0x24, 0x80, 0x20, 
	0x30, 0x00, 0x80, 0x43, 0x30, 0x1c, 0x90, 0x2c, 
	0x56, 0x00, 0x90, 0x46, 0x42, 0x24, 0x80, 0x46, 
	0x30, 0x1c, 0x90, 0x43, 0x3d, 0x24, 0x80, 0x2c, 
	0x30, 0x00, 0x80, 0x43, 0x30, 0x1c, 0x90, 0x22, 
	0x45, 0x00, 0x90, 0x46, 0x48, 0x64, 0x80, 0x46, 
	0x30, 0x00, 0x80, 0x22, 0x30, 0x1c, 0x90, 0x2e, 
	0x55, 0x00, 0x90, 0x48, 0x41, 0x64, 0x80, 0x48, 
	0x30, 0x00, 0x80, 0x2e, 0x30, 0x1c, 0x90, 0x22, 
	0x4b, 0x00, 0x90, 0x4a, 0x48, 0x64, 0x80, 0x4a, 
	0x30, 0x00, 0x80, 0x22, 0x30, 0x1c, 0x90, 0x2e, 
	0x55, 0x00, 0x90, 0x57, 0x4f, 0x64, 0x80, 0x2e, 
	0x30, 0x1c, 0x90, 0x22, 0x41, 0x64, 0x80, 0x22, 
	0x30, 0x1c, 0x90, 0x2e, 0x57, 0x64, 0x80, 0x2e, 
	0x30, 0x1c, 0x90, 0x22, 0x42, 0x64, 0x80, 0x22, 
	0x30, 0x1c, 0x90, 0x2e, 0x52, 0x64, 0x80, 0x57, 
	0x30, 0x00, 0x80, 0x2e, 0x30, 0x1c, 0x90, 0x24, 
	0x45, 0x00, 0x90, 0x4f, 0x33, 0x64, 0x80, 0x4f, 
	0x30, 0x00, 0x80, 0x24, 0x30, 0x1c, 0x90, 0x30, 
	0x4f, 0x00, 0x90, 0x4f, 0x43, 0x64, 0x80, 0x30, 
	0x30, 0x1c, 0x90, 0x24, 0x44, 0x64, 0x80, 0x4f, 
	0x30, 0x00, 0x80, 0x24, 0x30, 0x1c, 0x90, 0x30, 
	0x50, 0x00, 0x90, 0x4f, 0x42, 0x24, 0x80, 0x4f, 
	0x30, 0x1c, 0x90, 0x4d, 0x40, 0x24, 0x80, 0x30, 
	0x30, 0x00, 0x80, 0x4d, 0x30, 0x1c, 0x90, 0x24, 
	0x45, 0x00, 0x90, 0x4f, 0x43, 0x64, 0x80, 0x4f, 
	0x30, 0x00, 0x80, 0x24, 0x30, 0x1c, 0x90, 0x30, 
	0x56, 0x00, 0x90, 0x4d, 0x3d, 0x64, 0x80, 0x4d, 
	0x30, 0x00, 0x80, 0x30, 0x30, 0x1c, 0x90, 0x24, 
	0x43, 0x00, 0x90, 0x4b, 0x3e, 0x64, 0x80, 0x4b, 
	0x30, 0x00, 0x80, 0x24, 0x30, 0x1c, 0x90, 0x30, 
	0x52, 0x00, 0x90, 0x48, 0x3b, 0x64, 0x80, 0x48, 
	0x30, 0x00, 0x80, 0x30, 0x30, 0x1c, 0x90, 0x24, 
	0x44, 0x00, 0x90, 0x4f, 0x4e, 0x64, 0x80, 0x4f, 
	0x30, 0x00, 0x80, 0x24, 0x30, 0x1c, 0x90, 0x30, 
	0x53, 0x00, 0x90, 0x4f, 0x40, 0x64, 0x80, 0x30, 
	0x30, 0x1c, 0x90, 0x24, 0x45, 0x64, 0x80, 0x4f, 
	0x30, 0x00, 0x80, 0x24, 0x30, 0x1c, 0x90, 0x30, 
	0x56, 0x00, 0x90, 0x4d, 0x3c, 0x24, 0x80, 0x4d, 
	0x30, 0x1c, 0x90, 0x4f, 0x44, 0x24, 0x80, 0x30, 
	0x30, 0x00, 0x80, 0x4f, 0x30, 0x1c, 0x90, 0x24, 
	0x44, 0x00, 0x90, 0x4d, 0x3a, 0x64, 0x80, 0x4d, 
	0x30, 0x00, 0x80, 0x24, 0x30, 0x1c, 0x90, 0x30, 
	0x52, 0x00, 0x90, 0x4f, 0x42, 0x64, 0x80, 0x4f, 
	0x30, 0x00, 0x80, 0x30, 0x30, 0x1c, 0x90, 0x24, 
	0x45, 0x00, 0x90, 0x54, 0x45, 0x64, 0x80, 0x24, 
	0x30, 0x1c, 0x90, 0x30, 0x57, 0x64, 0x80, 0x54, 
	0x30, 0x00, 0x80, 0x30, 0x30, 0x1c, 0x90, 0x20, 
	0x3f, 0x00, 0x90, 0x52, 0x3c, 0x24, 0x80, 0x52, 
	0x30, 0x1c, 0x90, 0x4f, 0x3d, 0x24, 0x80, 0x20, 
	0x30, 0x00, 0x80, 0x4f, 0x30, 0x1c, 0x90, 0x2c, 
	0x57, 0x00, 0x90, 0x52, 0x43, 0x24, 0x80, 0x52, 
	0x30, 0x1c, 0x90, 0x4f, 0x3e, 0x24, 0x80, 0x2c, 
	0x30, 0x00, 0x80, 0x4f, 0x30, 0x1c, 0x90, 0x20, 
	0x44, 0x00, 0x90, 0x52, 0x46, 0x24, 0x80, 0x52, 
	0x30, 0x1c, 0x90, 0x4f, 0x3b, 0x24, 0x80, 0x20, 
	0x30, 0x00, 0x80, 0x4f, 0x30, 0x1c, 0x90, 0x2c, 
	0x52, 0x00, 0x90, 0x52, 0x49, 0x24, 0x80, 0x52, 
	0x30, 0x1c, 0x90, 0x4f, 0x39, 0x24, 0x80, 0x2c, 
	0x30, 0x00, 0x80, 0x4f, 0x30, 0x1c, 0x90, 0x20, 
	0x42, 0x00, 0x90, 0x52, 0x46, 0x24, 0x80, 0x52, 
	0x30, 0x1c, 0x90, 0x4f, 0x3d, 0x24, 0x80, 0x20, 
	0x30, 0x00, 0x80, 0x4f, 0x30, 0x1c, 0x90, 0x2c, 
	0x58, 0x00, 0x90, 0x52, 0x45, 0x24, 0x80, 0x52, 
	0x30, 0x1c, 0x90, 0x4f, 0x3c, 0x24, 0x80, 0x2c, 
	0x30, 0x00, 0x80, 0x4f, 0x30, 0x1c, 0x90, 0x20, 
	0x44, 0x00, 0x90, 0x52, 0x48, 0x24, 0x80, 0x52, 
	0x30, 0x1c, 0x90, 0x4f, 0x3c, 0x24, 0x80, 0x20, 
	0x30, 0x00, 0x80, 0x4f, 0x30, 0x1c, 0x90, 0x2c, 
	0x52, 0x00, 0x90, 0x52, 0x44, 0x24, 0x80, 0x52, 
	0x30, 0x1c, 0x90, 0x4f, 0x36, 0x24, 0x80, 0x2c, 
	0x30, 0x00, 0x80, 0x4f, 0x30, 0x1c, 0x90, 0x20, 
	0x44, 0x00, 0x90, 0x50, 0x45, 0x81, 0x64, 0x80, 
	0x50, 0x30, 0x00, 0x80, 0x20, 0x30, 0x1c, 0x90, 
	0x22, 0x4d, 0x00, 0x90, 0x52, 0x49, 0x81, 0x64, 
	0x80, 0x52, 0x30, 0x00, 0x80, 0x22, 0x30, 0x1c, 
	0x90, 0x20, 0x4d, 0x00, 0x90, 0x50, 0x3f, 0x81, 
	0x24, 0x80, 0x50, 0x30, 0x00, 0x80, 0x20, 0x30, 
	0x1c, 0x90, 0x1f, 0x4a, 0x00, 0x90, 0x4f, 0x3d, 
	0x81, 0x24, 0x80, 0x4f, 0x30, 0x00, 0x80, 0x1f, 
	0x30, 0x1c, 0x90, 0x1d, 0x49, 0x00, 0x90, 0x4d, 
	0x39, 0x64, 0x80, 0x4d, 0x30, 0x00, 0x80, 0x1d, 
	0x30, 0x1c, 0x90, 0x24, 0x56, 0x00, 0x90, 0x4f, 
	0x41, 0x8b, 0x64, 0x80, 0x24, 0x30, 0x82, 0x1c, 
	0x90, 0x2e, 0x44, 0x81, 0x64, 0x80, 0x4f, 0x30, 
	0x00, 0x80, 0x2e, 0x30, 0x1c, 0x90, 0x30, 0x4a, 
	0x81, 0x64, 0x80, 0x30, 0x30, 0x82, 0x1c, 0x90, 
	0x4b, 0x3b, 0x83, 0x64, 0x80, 0x4b, 0x30, 0x1c, 
	0x90, 0x4a, 0x3c, 0x83, 0x64, 0x80, 0x4a, 0x30, 
	0x1c, 0x90, 0x48, 0x3b, 0x83, 0x00, 0x90, 0x2e, 
	0x48, 0x64, 0x80, 0x48, 0x30, 0x00, 0x80, 0x2e, 
	0x30, 0x1c, 0x90, 0x30, 0x50, 0x81, 0x64, 0x80, 
	0x30, 0x30, 0x82, 0x1c, 0x90, 0x4f, 0x3b, 0x83, 
	0x64, 0x80, 0x4f, 0x30, 0x1c, 0x90, 0x4d, 0x3f, 
	0x83, 0x64, 0x80, 0x4d, 0x30, 0x1c, 0x90, 0x4b, 
	0x3b, 0x82, 0x00, 0x90, 0x2e, 0x43, 0x81, 0x64, 
	0x80, 0x4b, 0x30, 0x00, 0x80, 0x2e, 0x30, 0x1c, 
	0x90, 0x30, 0x4f, 0x81, 0x64, 0x80, 0x30, 0x30, 
	0x82, 0x1c, 0x90, 0x4b, 0x3b, 0x83, 0x64, 0x80, 
	0x4b, 0x30, 0x1c, 0x90, 0x4a, 0x3f, 0x82, 0x64, 
	0x80, 0x4a, 0x30, 0x1c, 0x90, 0x4b, 0x44, 0x82, 
	0x64, 0x80, 0x4b, 0x30, 0x1c, 0x90, 0x4a, 0x3d, 
	0x81, 0x64, 0x80, 0x4a, 0x30, 0x1c, 0x90, 0x2c, 
	0x47, 0x00, 0x90, 0x48, 0x3c, 0x8d, 0x64, 0x80, 
	0x48, 0x30, 0x00, 0x80, 0x2c, 0x30, 0x1c, 0x90, 
	0x2e, 0x4f, 0x81, 0x64, 0x80, 0x2e, 0x30, 0x1c, 
	0x90, 0x30, 0x4f, 0x81, 0x64, 0x80, 0x30, 0x30, 
	0x1c, 0x90, 0x4b, 0x5f, 0x64, 0x80, 0x4b, 0x30, 
	0x1c, 0x90, 0x4f, 0x53, 0x64, 0x80, 0x4f, 0x30, 
	0x1c, 0x90, 0x54, 0x59, 0x00, 0x90, 0x4b, 0x3b, 
	0x64, 0x80, 0x54, 0x30, 0x1c, 0x90, 0x57, 0x50, 
	0x64, 0x80, 0x57, 0x30, 0x1c, 0x90, 0x5b, 0x57, 
	0x81, 0x64, 0x80, 0x4b, 0x30, 0x00, 0x80, 0x5b, 
	0x30, 0x1c, 0x90, 0x4a, 0x3d, 0x82, 0x00, 0x90, 
	0x4b, 0x41, 0x64, 0x80, 0x4b, 0x30, 0x1c, 0x90, 
	0x4f, 0x4e, 0x64, 0x80, 0x4a, 0x30, 0x00, 0x80, 
	0x4f, 0x30, 0x1c, 0x90, 0x54, 0x57, 0x00, 0x90, 
	0x48, 0x3d, 0x64, 0x80, 0x54, 0x30, 0x1c, 0x90, 
	0x57, 0x52, 0x64, 0x80, 0x57, 0x30, 0x81, 0x1c, 
	0x90, 0x2e, 0x42, 0x64, 0x80, 0x48, 0x30, 0x00, 
	0x80, 0x2e, 0x30, 0x1c, 0x90, 0x30, 0x4f, 0x81, 
	0x64, 0x80, 0x30, 0x30, 0x1c, 0x90, 0x4b, 0x61, 
	0x64, 0x80, 0x4b, 0x30, 0x1c, 0x90, 0x4f, 0x57, 
	0x64, 0x80, 0x4f, 0x30, 0x1c, 0x90, 0x54, 0x56, 
	0x00, 0x90, 0x4f, 0x3b, 0x64, 0x80, 0x54, 0x30, 
	0x1c, 0x90, 0x57, 0x50, 0x64, 0x80, 0x57, 0x30, 
	0x1c, 0x90, 0x5b, 0x55, 0x81, 0x64, 0x80, 0x4f, 
	0x30, 0x00, 0x80, 0x5b, 0x30, 0x1c, 0x90, 0x4d, 
	0x3a, 0x82, 0x00, 0x90, 0x4b, 0x46, 0x64, 0x80, 
	0x4b, 0x30, 0x1c, 0x90, 0x4f, 0x57, 0x64, 0x80, 
	0x4d, 0x30, 0x00, 0x80, 0x4f, 0x30, 0x1c, 0x90, 
	0x54, 0x58, 0x00, 0x90, 0x4b, 0x3b, 0x64, 0x80, 
	0x54, 0x30, 0x1c, 0x90, 0x57, 0x53, 0x64, 0x80, 
	0x57, 0x30, 0x1c, 0x90, 0x2e, 0x43, 0x81, 0x64, 
	0x80, 0x4b, 0x30, 0x00, 0x80, 0x2e, 0x30, 0x1c, 
	0x90, 0x30, 0x4d, 0x81, 0x64, 0x80, 0x30, 0x30, 
	0x1c, 0x90, 0x4b, 0x61, 0x64, 0x80, 0x4b, 0x30, 
	0x1c, 0x90, 0x4f, 0x56, 0x64, 0x80, 0x4f, 0x30, 
	0x1c, 0x90, 0x54, 0x59, 0x00, 0x90, 0x4b, 0x3a, 
	0x64, 0x80, 0x54, 0x30, 0x1c, 0x90, 0x57, 0x53, 
	0x64, 0x80, 0x57, 0x30, 0x1c, 0x90, 0x5b, 0x53, 
	0x81, 0x64, 0x80, 0x4b, 0x30, 0x00, 0x80, 0x5b, 
	0x30, 0x1c, 0x90, 0x4a, 0x3b, 0x82, 0x00, 0x90, 
	0x4b, 0x41, 0x64, 0x80, 0x4a, 0x30, 0x00, 0x80, 
	0x4b, 0x30, 0x1c, 0x90, 0x4f, 0x51, 0x00, 0x90, 
	0x4b, 0x42, 0x64, 0x80, 0x4f, 0x30, 0x1c, 0x90, 
	0x54, 0x55, 0x64, 0x80, 0x54, 0x30, 0x1c, 0x90, 
	0x57, 0x57, 0x64, 0x80, 0x4b, 0x30, 0x00, 0x80, 
	0x57, 0x30, 0x1c, 0x90, 0x4a, 0x41, 0x81, 0x64, 
	0x80, 0x4a, 0x30, 0x1c, 0x90, 0x48, 0x3e, 0x87, 
	0x64, 0x80, 0x48, 0x30, 0x1c, 0x90, 0x48, 0x42, 
	0x82, 0x64, 0x80, 0x48, 0x30, 0x1c, 0x90, 0x48, 
	0x42, 0x82, 0x64, 0x80, 0x48, 0x30, 0x1c, 0x90, 
	0x48, 0x45, 0x81, 0x64, 0x80, 0x48, 0x30, 0x1c, 
	0x90, 0x48, 0x41, 0x81, 0x64, 0x80, 0x48, 0x30, 
	0x1c, 0x90, 0x48, 0x44, 0x81, 0x64, 0x80, 0x48, 
	0x30, 0x1c, 0x90, 0x2c, 0x51, 0x00, 0x90, 0x48, 
	0x3c, 0x24, 0x80, 0x48, 0x30, 0x1c, 0x90, 0x43, 
	0x37, 0x24, 0x80, 0x43, 0x30, 0x1c, 0x90, 0x3f, 
	0x37, 0x24, 0x80, 0x3f, 0x30, 0x1c, 0x90, 0x3c, 
	0x3a, 0x24, 0x80, 0x2c, 0x30, 0x00, 0x80, 0x3c, 
	0x30, 0x1c, 0x90, 0x2c, 0x4b, 0x00, 0x90, 0x48, 
	0x51, 0x24, 0x80, 0x48, 0x30, 0x1c, 0x90, 0x43, 
	0x3d, 0x24, 0x80, 0x43, 0x30, 0x1c, 0x90, 0x3f, 
	0x38, 0x24, 0x80, 0x3f, 0x30, 0x1c, 0x90, 0x3c, 
	0x3b, 0x24, 0x80, 0x2c, 0x30, 0x00, 0x80, 0x3c, 
	0x30, 0x1c, 0x90, 0x30, 0x50, 0x00, 0x90, 0x48, 
	0x53, 0x81, 0x64, 0x80, 0x30, 0x30, 0x1c, 0x90, 
	0x30, 0x4d, 0x81, 0x64, 0x80, 0x48, 0x30, 0x00, 
	0x80, 0x30, 0x30, 0x1c, 0x90, 0x30, 0x51, 0x00, 
	0x90, 0x4b, 0x4d, 0x24, 0x80, 0x4b, 0x30, 0x1c, 
	0x90, 0x48, 0x39, 0x81, 0x24, 0x80, 0x30, 0x30, 
	0x1c, 0x90, 0x30, 0x4b, 0x81, 0x64, 0x80, 0x48, 
	0x30, 0x00, 0x80, 0x30, 0x30, 0x1c, 0x90, 0x30, 
	0x4a, 0x00, 0x90, 0x4f, 0x4d, 0x81, 0x24, 0x80, 
	0x4f, 0x30, 0x1c, 0x90, 0x4d, 0x43, 0x24, 0x80, 
	0x30, 0x30, 0x1c, 0x90, 0x30, 0x51, 0x64, 0x80, 
	0x4d, 0x30, 0x1c, 0x90, 0x4b, 0x3f, 0x64, 0x80, 
	0x30, 0x30, 0x00, 0x80, 0x4b, 0x30, 0x1c, 0x90, 
	0x30, 0x4f, 0x00, 0x90, 0x4d, 0x45, 0x81, 0x24, 
	0x80, 0x4d, 0x30, 0x1c, 0x90, 0x4b, 0x3d, 0x24, 
	0x80, 0x30, 0x30, 0x1c, 0x90, 0x30, 0x4c, 0x64, 
	0x80, 0x4b, 0x30, 0x1c, 0x90, 0x4a, 0x40, 0x64, 
	0x80, 0x30, 0x30, 0x00, 0x80, 0x4a, 0x30, 0x1c, 
	0x90, 0x2c, 0x46, 0x00, 0x90, 0x48, 0x41, 0x81, 
	0x64, 0x80, 0x2c, 0x30, 0x1c, 0x90, 0x2c, 0x4f, 
	0x81, 0x64, 0x80, 0x48, 0x30, 0x00, 0x80, 0x2c, 
	0x30, 0x1c, 0x90, 0x2c, 0x4c, 0x00, 0x90, 0x4b, 
	0x49, 0x24, 0x80, 0x4b, 0x30, 0x1c, 0x90, 0x48, 
	0x3f, 0x81, 0x24, 0x80, 0x2c, 0x30, 0x1c, 0x90, 
	0x2c, 0x4c, 0x81, 0x64, 0x80, 0x48, 0x30, 0x00, 
	0x80, 0x2c, 0x30, 0x1c, 0x90, 0x2c, 0x49, 0x00, 
	0x90, 0x4f, 0x4c, 0x81, 0x24, 0x80, 0x4f, 0x30, 
	0x1c, 0x90, 0x4d, 0x40, 0x24, 0x80, 0x2c, 0x30, 
	0x1c, 0x90, 0x2c, 0x4f, 0x64, 0x80, 0x4d, 0x30, 
	0x1c, 0x90, 0x4b, 0x3b, 0x64, 0x80, 0x2c, 0x30, 
	0x00, 0x80, 0x4b, 0x30, 0x1c, 0x90, 0x2e, 0x51, 
	0x00, 0x90, 0x4d, 0x4a, 0x81, 0x24, 0x80, 0x4d, 
	0x30, 0x1c, 0x90, 0x4b, 0x40, 0x24, 0x80, 0x2e, 
	0x30, 0x1c, 0x90, 0x2e, 0x4d, 0x64, 0x80, 0x4b, 
	0x30, 0x1c, 0x90, 0x4a, 0x3f, 0x64, 0x80, 0x2e, 
	0x30, 0x00, 0x80, 0x4a, 0x30, 0x1c, 0x90, 0x30, 
	0x4d, 0x00, 0x90, 0x48, 0x3d, 0x81, 0x64, 0x80, 
	0x30, 0x30, 0x1c, 0x90, 0x30, 0x49, 0x81, 0x64, 
	0x80, 0x48, 0x30, 0x00, 0x80, 0x30, 0x30, 0x1c, 
	0x90, 0x30, 0x4c, 0x00, 0x90, 0x4b, 0x47, 0x24, 
	0x80, 0x4b, 0x30, 0x1c, 0x90, 0x48, 0x3b, 0x81, 
	0x24, 0x80, 0x30, 0x30, 0x1c, 0x90, 0x30, 0x4d, 
	0x81, 0x64, 0x80, 0x48, 0x30, 0x00, 0x80, 0x30, 
	0x30, 0x1c, 0x90, 0x30, 0x48, 0x00, 0x90, 0x4f, 
	0x4b, 0x81, 0x24, 0x80, 0x4f, 0x30, 0x1c, 0x90, 
	0x4d, 0x3c, 0x24, 0x80, 0x30, 0x30, 0x1c, 0x90, 
	0x30, 0x4c, 0x64, 0x80, 0x4d, 0x30, 0x1c, 0x90, 
	0x4b, 0x3d, 0x64, 0x80, 0x30, 0x30, 0x00, 0x80, 
	0x4b, 0x30, 0x1c, 0x90, 0x30, 0x50, 0x00, 0x90, 
	0x4d, 0x42, 0x81, 0x24, 0x80, 0x4d, 0x30, 0x1c, 
	0x90, 0x4b, 0x3c, 0x24, 0x80, 0x30, 0x30, 0x1c, 
	0x90, 0x30, 0x4c, 0x64, 0x80, 0x4b, 0x30, 0x1c, 
	0x90, 0x4a, 0x3c, 0x64, 0x80, 0x30, 0x30, 0x00, 
	0x80, 0x4a, 0x30, 0x1c, 0x90, 0x2c, 0x45, 0x00, 
	0x90, 0x48, 0x3e, 0x81, 0x64, 0x80, 0x2c, 0x30, 
	0x1c, 0x90, 0x2c, 0x49, 0x81, 0x64, 0x80, 0x48, 
	0x30, 0x00, 0x80, 0x2c, 0x30, 0x1c, 0x90, 0x2c, 
	0x4a, 0x00, 0x90, 0x4b, 0x46, 0x24, 0x80, 0x4b, 
	0x30, 0x1c, 0x90, 0x48, 0x39, 0x81, 0x24, 0x80, 
	0x2c, 0x30, 0x1c, 0x90, 0x2c, 0x50, 0x81, 0x64, 
	0x80, 0x48, 0x30, 0x00, 0x80, 0x2c, 0x30, 0x1c, 
	0x90, 0x2c, 0x47, 0x00, 0x90, 0x4f, 0x4b, 0x81, 
	0x24, 0x80, 0x4f, 0x30, 0x1c, 0x90, 0x4d, 0x41, 
	0x24, 0x80, 0x2c, 0x30, 0x1c, 0x90, 0x2c, 0x4d, 
	0x64, 0x80, 0x4d, 0x30, 0x1c, 0x90, 0x4b, 0x38, 
	0x64, 0x80, 0x2c, 0x30, 0x00, 0x80, 0x4b, 0x30, 
	0x1c, 0x90, 0x2e, 0x4e, 0x00, 0x90, 0x4d, 0x44, 
	0x81, 0x24, 0x80, 0x4d, 0x30, 0x1c, 0x90, 0x4b, 
	0x3d, 0x24, 0x80, 0x2e, 0x30, 0x1c, 0x90, 0x2e, 
	0x4b, 0x64, 0x80, 0x4b, 0x30, 0x1c, 0x90, 0x4a, 
	0x3c, 0x64, 0x80, 0x2e, 0x30, 0x00, 0x80, 0x4a, 
	0x30, 0x1c, 0x90, 0x2c, 0x47, 0x00, 0x90, 0x43, 
	0x32, 0x64, 0x80, 0x43, 0x30, 0x1c, 0x90, 0x43, 
	0x41, 0x64, 0x80, 0x2c, 0x30, 0x1c, 0x90, 0x2c, 
	0x4d, 0x64, 0x80, 0x43, 0x30, 0x1c, 0x90, 0x44, 
	0x44, 0x64, 0x80, 0x2c, 0x30, 0x00, 0x80, 0x44, 
	0x30, 0x1c, 0x90, 0x30, 0x51, 0x00, 0x90, 0x43, 
	0x41, 0x64, 0x80, 0x43, 0x30, 0x1c, 0x90, 0x41, 
	0x3d, 0x64, 0x80, 0x30, 0x30, 0x00, 0x80, 0x41, 
	0x30, 0x1c, 0x90, 0x30, 0x4b, 0x00, 0x90, 0x3f, 
	0x3a, 0x81, 0x64, 0x80, 0x3f, 0x30, 0x00, 0x80, 
	0x30, 0x30, 0x1c, 0x90, 0x2e, 0x4b, 0x00, 0x90, 
	0x41, 0x44, 0x64, 0x80, 0x41, 0x30, 0x1c, 0x90, 
	0x41, 0x44, 0x64, 0x80, 0x2e, 0x30, 0x1c, 0x90, 
	0x2e, 0x4b, 0x64, 0x80, 0x41, 0x30, 0x1c, 0x90, 
	0x43, 0x48, 0x64, 0x80, 0x2e, 0x30, 0x00, 0x80, 
	0x43, 0x30, 0x1c, 0x90, 0x30, 0x50, 0x00, 0x90, 
	0x41, 0x3e, 0x24, 0x80, 0x41, 0x30, 0x1c, 0x90, 
	0x3f, 0x3b, 0x24, 0x80, 0x3f, 0x30, 0x1c, 0x90, 
	0x3c, 0x39, 0x24, 0x80, 0x3c, 0x30, 0x1c, 0x90, 
	0x3a, 0x42, 0x24, 0x80, 0x30, 0x30, 0x00, 0x80, 
	0x3a, 0x30, 0x1c, 0x90, 0x30, 0x4b, 0x00, 0x90, 
	0x3c, 0x47, 0x81, 0x64, 0x80, 0x3c, 0x30, 0x00, 
	0x80, 0x30, 0x30, 0x1c, 0x90, 0x2c, 0x40, 0x00, 
	0x90, 0x46, 0x50, 0x81, 0x64, 0x80, 0x46, 0x30, 
	0x00, 0x80, 0x2c, 0x30, 0x1c, 0x90, 0x2c, 0x48, 
	0x00, 0x90, 0x4b, 0x4f, 0x81, 0x64, 0x80, 0x4b, 
	0x30, 0x00, 0x80, 0x2c, 0x30, 0x1c, 0x90, 0x2c, 
	0x4f, 0x00, 0x90, 0x4d, 0x4d, 0x81, 0x64, 0x80, 
	0x4d, 0x30, 0x00, 0x80, 0x2c, 0x30, 0x1c, 0x90, 
	0x2c, 0x50, 0x00, 0x90, 0x46, 0x38, 0x81, 0x64, 
	0x80, 0x46, 0x30, 0x00, 0x80, 0x2c, 0x30, 0x1c, 
	0x90, 0x2e, 0x51, 0x00, 0x90, 0x48, 0x46, 0x64, 
	0x80, 0x48, 0x30, 0x1c, 0x90, 0x46, 0x3e, 0x64, 
	0x80, 0x2e, 0x30, 0x00, 0x80, 0x46, 0x30, 0x1c, 
	0x90, 0x2e, 0x4e, 0x00, 0x90, 0x41, 0x38, 0x64, 
	0x80, 0x41, 0x30, 0x1c, 0x90, 0x46, 0x48, 0x64, 
	0x80, 0x2e, 0x30, 0x00, 0x80, 0x46, 0x30, 0x1c, 
	0x90, 0x2e, 0x4b, 0x00, 0x90, 0x46, 0x3f, 0x81, 
	0x64, 0x80, 0x46, 0x30, 0x00, 0x80, 0x2e, 0x30, 
	0x1c, 0x90, 0x2e, 0x4c, 0x00, 0x90, 0x48, 0x43, 
	0x24, 0x80, 0x48, 0x30, 0x1c, 0x90, 0x4b, 0x4a, 
	0x24, 0x80, 0x4b, 0x30, 0x1c, 0x90, 0x57, 0x53, 
	0x64, 0x80, 0x2e, 0x30, 0x00, 0x80, 0x57, 0x30, 
	0x1c, 0x90, 0x30, 0x4f, 0x00, 0x90, 0x48, 0x32, 
	0x64, 0x80, 0x48, 0x30, 0x1c, 0x90, 0x48, 0x3d, 
	0x64, 0x80, 0x30, 0x30, 0x1c, 0x90, 0x30, 0x4d, 
	0x64, 0x80, 0x48, 0x30, 0x1c, 0x90, 0x46, 0x39, 
	0x24, 0x80, 0x46, 0x30, 0x1c, 0x90, 0x48, 0x42, 
	0x24, 0x80, 0x30, 0x30, 0x00, 0x80, 0x48, 0x30, 
	0x1c, 0x90, 0x2c, 0x49, 0x00, 0x90, 0x4b, 0x46, 
	0x81, 0x24, 0x80, 0x4b, 0x30, 0x1c, 0x90, 0x46, 
	0x3a, 0x24, 0x80, 0x2c, 0x30, 0x1c, 0x90, 0x2c, 
	0x4b, 0x64, 0x80, 0x46, 0x30, 0x1c, 0x90, 0x43, 
	0x39, 0x64, 0x80, 0x2c, 0x30, 0x1c, 0x90, 0x2e, 
	0x4d, 0x64, 0x80, 0x43, 0x30, 0x1c, 0x90, 0x43, 
	0x43, 0x64, 0x80, 0x2e, 0x30, 0x1c, 0x90, 0x2e, 
	0x4e, 0x64, 0x80, 0x43, 0x30, 0x1c, 0x90, 0x3f, 
	0x3d, 0x64, 0x80, 0x2e, 0x30, 0x00, 0x80, 0x3f, 
	0x30, 0x1c, 0x90, 0x30, 0x51, 0x00, 0x90, 0x41, 
	0x46, 0x24, 0x80, 0x41, 0x30, 0x1c, 0x90, 0x43, 
	0x47, 0x24, 0x80, 0x43, 0x30, 0x1c, 0x90, 0x41, 
	0x3d, 0x24, 0x80, 0x41, 0x30, 0x1c, 0x90, 0x43, 
	0x46, 0x24, 0x80, 0x30, 0x30, 0x00, 0x80, 0x43, 
	0x30, 0x1c, 0x90, 0x30, 0x4b, 0x00, 0x90, 0x3c, 
	0x33, 0x81, 0x64, 0x80, 0x3c, 0x30, 0x00, 0x80, 
	0x30, 0x30, 0x1c, 0x90, 0x2b, 0x46, 0x00, 0x90, 
	0x43, 0x4c, 0x81, 0x24, 0x80, 0x43, 0x30, 0x1c, 
	0x90, 0x41, 0x3d, 0x24, 0x80, 0x2b, 0x30, 0x00, 
	0x80, 0x41, 0x30, 0x1c, 0x90, 0x2b, 0x51, 0x00, 
	0x90, 0x43, 0x43, 0x24, 0x80, 0x43, 0x30, 0x1c, 
	0x90, 0x46, 0x43, 0x24, 0x80, 0x46, 0x30, 0x1c, 
	0x90, 0x43, 0x3e, 0x24, 0x80, 0x43, 0x30, 0x1c, 
	0x90, 0x41, 0x3e, 0x24, 0x80, 0x2b, 0x30, 0x00, 
	0x80, 0x41, 0x30, 0x1c, 0x90, 0x2b, 0x47, 0x00, 
	0x90, 0x43, 0x45, 0x81, 0x24, 0x80, 0x43, 0x30, 
	0x1c, 0x90, 0x41, 0x3b, 0x24, 0x80, 0x2b, 0x30, 
	0x00, 0x80, 0x41, 0x30, 0x1c, 0x90, 0x2b, 0x4c, 
	0x00, 0x90, 0x43, 0x46, 0x24, 0x80, 0x43, 0x30, 
	0x1c, 0x90, 0x46, 0x45, 0x24, 0x80, 0x46, 0x30, 
	0x1c, 0x90, 0x43, 0x40, 0x24, 0x80, 0x43, 0x30, 
	0x1c, 0x90, 0x41, 0x36, 0x24, 0x80, 0x2b, 0x30, 
	0x00, 0x80, 0x41, 0x30, 0x1c, 0x90, 0x2c, 0x4e, 
	0x00, 0x90, 0x4b, 0x4f, 0x24, 0x80, 0x4b, 0x30, 
	0x1c, 0x90, 0x46, 0x3c, 0x24, 0x80, 0x46, 0x30, 
	0x1c, 0x90, 0x4b, 0x48, 0x24, 0x80, 0x4b, 0x30, 
	0x1c, 0x90, 0x4d, 0x44, 0x24, 0x80, 0x2c, 0x30, 
	0x00, 0x80, 0x4d, 0x30, 0x1c, 0x90, 0x2c, 0x4d, 
	0x00, 0x90, 0x4f, 0x46, 0x24, 0x80, 0x4f, 0x30, 
	0x1c, 0x90, 0x4d, 0x3d, 0x24, 0x80, 0x4d, 0x30, 
	0x1c, 0x90, 0x4b, 0x3d, 0x24, 0x80, 0x4b, 0x30, 
	0x1c, 0x90, 0x48, 0x3b, 0x24, 0x80, 0x2c, 0x30, 
	0x00, 0x80, 0x48, 0x30, 0x1c, 0x90, 0x2e, 0x4d, 
	0x00, 0x90, 0x46, 0x3b, 0x81, 0x64, 0x80, 0x2e, 
	0x30, 0x1c, 0x90, 0x2e, 0x50, 0x81, 0x64, 0x80, 
	0x46, 0x30, 0x00, 0x80, 0x2e, 0x30, 0x1c, 0x90, 
	0x30, 0x4b, 0x00, 0x90, 0x48, 0x44, 0x81, 0x64, 
	0x80, 0x30, 0x30, 0x1c, 0x90, 0x30, 0x4b, 0x81, 
	0x64, 0x80, 0x48, 0x30, 0x00, 0x80, 0x30, 0x30, 
	0x1c, 0x90, 0x30, 0x4a, 0x00, 0x90, 0x4b, 0x49, 
	0x24, 0x80, 0x4b, 0x30, 0x1c, 0x90, 0x48, 0x39, 
	0x81, 0x24, 0x80, 0x30, 0x30, 0x1c, 0x90, 0x30, 
	0x4d, 0x81, 0x64, 0x80, 0x48, 0x30, 0x00, 0x80, 
	0x30, 0x30, 0x1c, 0x90, 0x30, 0x4d, 0x00, 0x90, 
	0x4f, 0x51, 0x81, 0x24, 0x80, 0x4f, 0x30, 0x1c, 
	0x90, 0x4d, 0x42, 0x24, 0x80, 0x30, 0x30, 0x1c, 
	0x90, 0x30, 0x4e, 0x64, 0x80, 0x4d, 0x30, 0x1c, 
	0x90, 0x4b, 0x40, 0x64, 0x80, 0x30, 0x30, 0x00, 
	0x80, 0x4b, 0x30, 0x1c, 0x90, 0x30, 0x4f, 0x00, 
	0x90, 0x4d, 0x45, 0x81, 0x24, 0x80, 0x4d, 0x30, 
	0x1c, 0x90, 0x4b, 0x42, 0x24, 0x80, 0x30, 0x30, 
	0x1c, 0x90, 0x30, 0x4e, 0x64, 0x80, 0x4b, 0x30, 
	0x1c, 0x90, 0x4a, 0x3b, 0x64, 0x80, 0x30, 0x30, 
	0x00, 0x80, 0x4a, 0x30, 0x1c, 0x90, 0x2c, 0x4a, 
	0x00, 0x90, 0x48, 0x3d, 0x81, 0x64, 0x80, 0x2c, 
	0x30, 0x1c, 0x90, 0x2c, 0x4c, 0x81, 0x64, 0x80, 
	0x48, 0x30, 0x00, 0x80, 0x2c, 0x30, 0x1c, 0x90, 
	0x2c, 0x4d, 0x00, 0x90, 0x4b, 0x47, 0x24, 0x80, 
	0x4b, 0x30, 0x1c, 0x90, 0x48, 0x38, 0x81, 0x24, 
	0x80, 0x2c, 0x30, 0x1c, 0x90, 0x2c, 0x50, 0x81, 
	0x64, 0x80, 0x48, 0x30, 0x00, 0x80, 0x2c, 0x30, 
	0x1c, 0x90, 0x2c, 0x4a, 0x00, 0x90, 0x4f, 0x50, 
	0x81, 0x24, 0x80, 0x4f, 0x30, 0x1c, 0x90, 0x4d, 
	0x42, 0x24, 0x80, 0x2c, 0x30, 0x1c, 0x90, 0x2c, 
	0x47, 0x64, 0x80, 0x4d, 0x30, 0x1c, 0x90, 0x4b, 
	0x39, 0x64, 0x80, 0x2c, 0x30, 0x00, 0x80, 0x4b, 
	0x30, 0x1c, 0x90, 0x2e, 0x54, 0x00, 0x90, 0x4d, 
	0x40, 0x81, 0x24, 0x80, 0x4d, 0x30, 0x1c, 0x90, 
	0x4b, 0x40, 0x24, 0x80, 0x2e, 0x30, 0x1c, 0x90, 
	0x2e, 0x4e, 0x64, 0x80, 0x4b, 0x30, 0x1c, 0x90, 
	0x4a, 0x42, 0x64, 0x80, 0x2e, 0x30, 0x00, 0x80, 
	0x4a, 0x30, 0x1c, 0x90, 0x30, 0x4d, 0x00, 0x90, 
	0x48, 0x3a, 0x81, 0x64, 0x80, 0x30, 0x30, 0x1c, 
	0x90, 0x30, 0x52, 0x81, 0x64, 0x80, 0x48, 0x30, 
	0x00, 0x80, 0x30, 0x30, 0x1c, 0x90, 0x30, 0x4f, 
	0x00, 0x90, 0x4b, 0x45, 0x24, 0x80, 0x4b, 0x30, 
	0x1c, 0x90, 0x48, 0x40, 0x81, 0x24, 0x80, 0x30, 
	0x30, 0x1c, 0x90, 0x30, 0x4b, 0x81, 0x64, 0x80, 
	0x48, 0x30, 0x00, 0x80, 0x30, 0x30, 0x1c, 0x90, 
	0x30, 0x4a, 0x00, 0x90, 0x4f, 0x4e, 0x81, 0x24, 
	0x80, 0x4f, 0x30, 0x1c, 0x90, 0x4d, 0x3f, 0x24, 
	0x80, 0x30, 0x30, 0x1c, 0x90, 0x30, 0x4d, 0x64, 
	0x80, 0x4d, 0x30, 0x1c, 0x90, 0x4b, 0x3c, 0x64, 
	0x80, 0x30, 0x30, 0x00, 0x80, 0x4b, 0x30, 0x1c, 
	0x90, 0x30, 0x4c, 0x00, 0x90, 0x4d, 0x42, 0x81, 
	0x24, 0x80, 0x4d, 0x30, 0x1c, 0x90, 0x4b, 0x3d, 
	0x24, 0x80, 0x30, 0x30, 0x1c, 0x90, 0x30, 0x4b, 
	0x64, 0x80, 0x4b, 0x30, 0x1c, 0x90, 0x4a, 0x3c, 
	0x64, 0x80, 0x30, 0x30, 0x00, 0x80, 0x4a, 0x30, 
	0x1c, 0x90, 0x2c, 0x49, 0x00, 0x90, 0x48, 0x3e, 
	0x81, 0x64, 0x80, 0x2c, 0x30, 0x1c, 0x90, 0x2c, 
	0x4a, 0x81, 0x64, 0x80, 0x48, 0x30, 0x00, 0x80, 
	0x2c, 0x30, 0x1c, 0x90, 0x2c, 0x4e, 0x00, 0x90, 
	0x4b, 0x44, 0x24, 0x80, 0x4b, 0x30, 0x1c, 0x90, 
	0x48, 0x3d, 0x81, 0x24, 0x80, 0x2c, 0x30, 0x1c, 
	0x90, 0x2c, 0x4c, 0x81, 0x64, 0x80, 0x48, 0x30, 
	0x00, 0x80, 0x2c, 0x30, 0x1c, 0x90, 0x2c, 0x4b, 
	0x00, 0x90, 0x4f, 0x4a, 0x81, 0x24, 0x80, 0x4f, 
	0x30, 0x1c, 0x90, 0x4d, 0x3f, 0x24, 0x80, 0x2c, 
	0x30, 0x1c, 0x90, 0x2c, 0x49, 0x64, 0x80, 0x4d, 
	0x30, 0x1c, 0x90, 0x4b, 0x3d, 0x64, 0x80, 0x2c, 
	0x30, 0x00, 0x80, 0x4b, 0x30, 0x1c, 0x90, 0x2e, 
	0x50, 0x00, 0x90, 0x4d, 0x44, 0x81, 0x24, 0x80, 
	0x4d, 0x30, 0x1c, 0x90, 0x4b, 0x3b, 0x24, 0x80, 
	0x2e, 0x30, 0x1c, 0x90, 0x2e, 0x49, 0x64, 0x80, 
	0x4b, 0x30, 0x1c, 0x90, 0x4a, 0x3d, 0x64, 0x80, 
	0x2e, 0x30, 0x00, 0x80, 0x4a, 0x30, 0x1c, 0x90, 
	0x2c, 0x49, 0x00, 0x90, 0x3c, 0x31, 0x64, 0x80, 
	0x3c, 0x30, 0x1c, 0x90, 0x3c, 0x3b, 0x64, 0x80, 
	0x2c, 0x30, 0x00, 0x80, 0x3c, 0x30, 0x1c, 0x90, 
	0x2c, 0x51, 0x00, 0x90, 0x4b, 0x52, 0x64, 0x80, 
	0x4b, 0x30, 0x1c, 0x90, 0x3c, 0x33, 0x64, 0x80, 
	0x2c, 0x30, 0x00, 0x80, 0x3c, 0x30, 0x1c, 0x90, 
	0x30, 0x51, 0x00, 0x90, 0x3e, 0x47, 0x64, 0x80, 
	0x3e, 0x30, 0x1c, 0x90, 0x3a, 0x3d, 0x64, 0x80, 
	0x30, 0x30, 0x00, 0x80, 0x3a, 0x30, 0x1c, 0x90, 
	0x30, 0x4b, 0x00, 0x90, 0x37, 0x3e, 0x64, 0x80, 
	0x37, 0x30, 0x1c, 0x90, 0x4a, 0x51, 0x64, 0x80, 
	0x30, 0x30, 0x00, 0x80, 0x4a, 0x30, 0x1c, 0x90, 
	0x2b, 0x44, 0x00, 0x90, 0x37, 0x3b, 0x81, 0x24, 
	0x80, 0x37, 0x30, 0x1c, 0x90, 0x38, 0x44, 0x24, 
	0x80, 0x2b, 0x30, 0x1c, 0x90, 0x2b, 0x4d, 0x64, 
	0x80, 0x38, 0x30, 0x1c, 0x90, 0x3a, 0x46, 0x64, 
	0x80, 0x2b, 0x30, 0x00, 0x80, 0x3a, 0x30, 0x1c, 
	0x90, 0x30, 0x51, 0x00, 0x90, 0x4a, 0x58, 0x81, 
	0x64, 0x80, 0x30, 0x30, 0x1c, 0x90, 0x30, 0x4f, 
	0x81, 0x64, 0x80, 0x4a, 0x30, 0x00, 0x80, 0x30, 
	0x30, 0x1c, 0x90, 0x2c, 0x48, 0x00, 0x90, 0x38, 
	0x3c, 0x24, 0x80, 0x38, 0x30, 0x1c, 0x90, 0x3a, 
	0x42, 0x24, 0x80, 0x3a, 0x30, 0x1c, 0x90, 0x3c, 
	0x47, 0x24, 0x80, 0x3c, 0x30, 0x1c, 0x90, 0x3e, 
	0x43, 0x24, 0x80, 0x2c, 0x30, 0x00, 0x80, 0x3e, 
	0x30, 0x1c, 0x90, 0x2c, 0x4c, 0x00, 0x90, 0x3f, 
	0x4a, 0x24, 0x80, 0x3f, 0x30, 0x1c, 0x90, 0x3e, 
	0x3c, 0x24, 0x80, 0x3e, 0x30, 0x1c, 0x90, 0x3c, 
	0x3d, 0x24, 0x80, 0x3c, 0x30, 0x1c, 0x90, 0x3e, 
	0x46, 0x24, 0x80, 0x2c, 0x30, 0x00, 0x80, 0x3e, 
	0x30, 0x1c, 0x90, 0x2c, 0x4c, 0x00, 0x90, 0x3c, 
	0x3f, 0x24, 0x80, 0x3c, 0x30, 0x1c, 0x90, 0x3a, 
	0x3c, 0x24, 0x80, 0x3a, 0x30, 0x1c, 0x90, 0x3e, 
	0x49, 0x24, 0x80, 0x3e, 0x30, 0x1c, 0x90, 0x3f, 
	0x47, 0x24, 0x80, 0x2c, 0x30, 0x00, 0x80, 0x3f, 
	0x30, 0x1c, 0x90, 0x2c, 0x4d, 0x00, 0x90, 0x44, 
	0x49, 0x24, 0x80, 0x44, 0x30, 0x1c, 0x90, 0x43, 
	0x3a, 0x24, 0x80, 0x43, 0x30, 0x1c, 0x90, 0x41, 
	0x40, 0x24, 0x80, 0x41, 0x30, 0x1c, 0x90, 0x43, 
	0x45, 0x24, 0x80, 0x2c, 0x30, 0x00, 0x80, 0x43, 
	0x30, 0x1c, 0x90, 0x2e, 0x50, 0x00, 0x90, 0x3c, 
	0x37, 0x24, 0x80, 0x3c, 0x30, 0x1c, 0x90, 0x3a, 
	0x3b, 0x24, 0x80, 0x3a, 0x30, 0x1c, 0x90, 0x3c, 
	0x3d, 0x24, 0x80, 0x3c, 0x30, 0x1c, 0x90, 0x3e, 
	0x42, 0x24, 0x80, 0x2e, 0x30, 0x00, 0x80, 0x3e, 
	0x30, 0x1c, 0x90, 0x2e, 0x4b, 0x00, 0x90, 0x3f, 
	0x43, 0x24, 0x80, 0x3f, 0x30, 0x1c, 0x90, 0x41, 
	0x48, 0x24, 0x80, 0x41, 0x30, 0x1c, 0x90, 0x43, 
	0x44, 0x24, 0x80, 0x43, 0x30, 0x1c, 0x90, 0x44, 
	0x42, 0x24, 0x80, 0x2e, 0x30, 0x00, 0x80, 0x44, 
	0x30, 0x1c, 0x90, 0x2e, 0x51, 0x00, 0x90, 0x43, 
	0x3f, 0x24, 0x80, 0x43, 0x30, 0x1c, 0x90, 0x41, 
	0x3d, 0x24, 0x80, 0x41, 0x30, 0x1c, 0x90, 0x43, 
	0x44, 0x24, 0x80, 0x43, 0x30, 0x1c, 0x90, 0x44, 
	0x48, 0x24, 0x80, 0x2e, 0x30, 0x00, 0x80, 0x44, 
	0x30, 0x1c, 0x90, 0x2e, 0x4a, 0x00, 0x90, 0x52, 
	0x57, 0x81, 0x64, 0x80, 0x52, 0x30, 0x00, 0x80, 
	0x2e, 0x30, 0x1c, 0x90, 0x30, 0x4f, 0x00, 0x90, 
	0x43, 0x31, 0x81, 0x24, 0x80, 0x43, 0x30, 0x1c, 
	0x90, 0x52, 0x4f, 0x24, 0x80, 0x30, 0x30, 0x1c, 
	0x90, 0x30, 0x4c, 0x64, 0x80, 0x52, 0x30, 0x1c, 
	0x90, 0x43, 0x2f, 0x64, 0x80, 0x30, 0x30, 0x00, 
	0x80, 0x43, 0x30, 0x1c, 0x90, 0x2c, 0x4b, 0x00, 
	0x90, 0x41, 0x39, 0x81, 0x24, 0x80, 0x41, 0x30, 
	0x1c, 0x90, 0x4f, 0x51, 0x24, 0x80, 0x2c, 0x30, 
	0x1c, 0x90, 0x2c, 0x4e, 0x64, 0x80, 0x4f, 0x30, 
	0x1c, 0x90, 0x41, 0x2c, 0x64, 0x80, 0x2c, 0x30, 
	0x00, 0x80, 0x41, 0x30, 0x1c, 0x90, 0x2e, 0x49, 
	0x00, 0x90, 0x3f, 0x3f, 0x64, 0x80, 0x3f, 0x30, 
	0x1c, 0x90, 0x3f, 0x41, 0x64, 0x80, 0x2e, 0x30, 
	0x00, 0x80, 0x3f, 0x30, 0x1c, 0x90, 0x2e, 0x47, 
	0x00, 0x90, 0x4d, 0x52, 0x81, 0x64, 0x80, 0x4d, 
	0x30, 0x00, 0x80, 0x2e, 0x30, 0x1c, 0x90, 0x30, 
	0x52, 0x00, 0x90, 0x4d, 0x45, 0x24, 0x80, 0x4d, 
	0x30, 0x1c, 0x90, 0x4b, 0x3b, 0x24, 0x80, 0x4b, 
	0x30, 0x1c, 0x90, 0x4a, 0x3d, 0x24, 0x80, 0x4a, 
	0x30, 0x1c, 0x90, 0x4b, 0x44, 0x24, 0x80, 0x30, 
	0x30, 0x1c, 0x90, 0x30, 0x4a, 0x81, 0x64, 0x80, 
	0x4b, 0x30, 0x00, 0x80, 0x30, 0x30, 0x1c, 0x90, 
	0x2b, 0x47, 0x00, 0x90, 0x4d, 0x42, 0x24, 0x80, 
	0x4d, 0x30, 0x1c, 0x90, 0x48, 0x3b, 0x24, 0x80, 
	0x48, 0x30, 0x1c, 0x90, 0x4f, 0x49, 0x24, 0x80, 
	0x4f, 0x30, 0x1c, 0x90, 0x48, 0x39, 0x24, 0x80, 
	0x2b, 0x30, 0x00, 0x80, 0x48, 0x30, 0x1c, 0x90, 
	0x2b, 0x4a, 0x00, 0x90, 0x48, 0x3f, 0x24, 0x80, 
	0x48, 0x30, 0x1c, 0x90, 0x43, 0x35, 0x24, 0x80, 
	0x43, 0x30, 0x1c, 0x90, 0x4a, 0x46, 0x24, 0x80, 
	0x4a, 0x30, 0x1c, 0x90, 0x43, 0x39, 0x24, 0x80, 
	0x2b, 0x30, 0x00, 0x80, 0x43, 0x30, 0x1c, 0x90, 
	0x2b, 0x4e, 0x00, 0x90, 0x44, 0x41, 0x24, 0x80, 
	0x44, 0x30, 0x1c, 0x90, 0x41, 0x40, 0x24, 0x80, 
	0x41, 0x30, 0x1c, 0x90, 0x3f, 0x3d, 0x24, 0x80, 
	0x3f, 0x30, 0x1c, 0x90, 0x3c, 0x37, 0x24, 0x80, 
	0x2b, 0x30, 0x00, 0x80, 0x3c, 0x30, 0x1c, 0x90, 
	0x2b, 0x4e, 0x00, 0x90, 0x3f, 0x48, 0x24, 0x80, 
	0x3f, 0x30, 0x1c, 0x90, 0x3a, 0x3d, 0x24, 0x80, 
	0x3a, 0x30, 0x1c, 0x90, 0x3c, 0x42, 0x24, 0x80, 
	0x3c, 0x30, 0x1c, 0x90, 0x3a, 0x3c, 0x24, 0x80, 
	0x2b, 0x30, 0x00, 0x80, 0x3a, 0x30, 0x1c, 0x90, 
	0x2c, 0x4f, 0x00, 0x90, 0x37, 0x3a, 0x24, 0x80, 
	0x37, 0x30, 0x1c, 0x90, 0x3a, 0x40, 0x24, 0x80, 
	0x3a, 0x30, 0x1c, 0x90, 0x3c, 0x44, 0x24, 0x80, 
	0x3c, 0x30, 0x1c, 0x90, 0x3a, 0x40, 0x24, 0x80, 
	0x2c, 0x30, 0x00, 0x80, 0x3a, 0x30, 0x1c, 0x90, 
	0x2c, 0x4c, 0x00, 0x90, 0x3c, 0x41, 0x24, 0x80, 
	0x3c, 0x30, 0x1c, 0x90, 0x3f, 0x46, 0x24, 0x80, 
	0x3f, 0x30, 0x1c, 0x90, 0x3c, 0x3e, 0x24, 0x80, 
	0x3c, 0x30, 0x1c, 0x90, 0x3f, 0x47, 0x24, 0x80, 
	0x2c, 0x30, 0x00, 0x80, 0x3f, 0x30, 0x1c, 0x90, 
	0x2e, 0x4e, 0x00, 0x90, 0x41, 0x40, 0x24, 0x80, 
	0x41, 0x30, 0x1c, 0x90, 0x3f, 0x39, 0x24, 0x80, 
	0x3f, 0x30, 0x1c, 0x90, 0x41, 0x45, 0x24, 0x80, 
	0x41, 0x30, 0x1c, 0x90, 0x43, 0x45, 0x24, 0x80, 
	0x2e, 0x30, 0x00, 0x80, 0x43, 0x30, 0x1c, 0x90, 
	0x2e, 0x4c, 0x00, 0x90, 0x48, 0x49, 0x24, 0x80, 
	0x48, 0x30, 0x1c, 0x90, 0x4b, 0x44, 0x24, 0x80, 
	0x4b, 0x30, 0x1c, 0x90, 0x48, 0x3b, 0x24, 0x80, 
	0x48, 0x30, 0x1c, 0x90, 0x4b, 0x47, 0x24, 0x80, 
	0x2e, 0x30, 0x00, 0x80, 0x4b, 0x30, 0x1c, 0x90, 
	0x30, 0x4e, 0x00, 0x90, 0x4f, 0x47, 0x64, 0x80, 
	0x4f, 0x30, 0x1c, 0x90, 0x4f, 0x43, 0x24, 0x80, 
	0x4f, 0x30, 0x1c, 0x90, 0x4f, 0x3f, 0x24, 0x80, 
	0x30, 0x30, 0x00, 0x80, 0x4f, 0x30, 0x1c, 0x90, 
	0x4f, 0x3e, 0x64, 0x80, 0x4f, 0x30, 0x1c, 0x90, 
	0x4d, 0x3f, 0x64, 0x80, 0x4d, 0x30, 0x1c, 0x90, 
	0x4b, 0x3e, 0x64, 0x80, 0x4b, 0x30, 0x1c, 0x90, 
	0x48, 0x3a, 0x64, 0x80, 0x48, 0x30, 0x1c, 0x90, 
	0x4b, 0x43, 0x64, 0x80, 0x4b, 0x30, 0x1c, 0x90, 
	0x4d, 0x48, 0x64, 0x80, 0x4d, 0x30, 0x1c, 0x90, 
	0x30, 0x45, 0x00, 0x90, 0x4f, 0x46, 0x64, 0x80, 
	0x4f, 0x30, 0x1c, 0x90, 0x4f, 0x42, 0x24, 0x80, 
	0x4f, 0x30, 0x1c, 0x90, 0x4f, 0x44, 0x24, 0x80, 
	0x30, 0x30, 0x00, 0x80, 0x4f, 0x30, 0x1c, 0x90, 
	0x4f, 0x43, 0x64, 0x80, 0x4f, 0x30, 0x1c, 0x90, 
	0x4d, 0x3b, 0x64, 0x80, 0x4d, 0x30, 0x1c, 0x90, 
	0x4b, 0x3d, 0x64, 0x80, 0x4b, 0x30, 0x1c, 0x90, 
	0x52, 0x4a, 0x64, 0x80, 0x52, 0x30, 0x1c, 0x90, 
	0x4f, 0x3f, 0x81, 0x64, 0x80, 0x4f, 0x30, 0x1c, 
	0x90, 0x30, 0x45, 0x00, 0x90, 0x4f, 0x47, 0x64, 
	0x80, 0x4f, 0x30, 0x1c, 0x90, 0x4f, 0x42, 0x24, 
	0x80, 0x4f, 0x30, 0x1c, 0x90, 0x4f, 0x3f, 0x24, 
	0x80, 0x30, 0x30, 0x00, 0x80, 0x4f, 0x30, 0x1c, 
	0x90, 0x4f, 0x3f, 0x64, 0x80, 0x4f, 0x30, 0x1c, 
	0x90, 0x4d, 0x45, 0x64, 0x80, 0x4d, 0x30, 0x1c, 
	0x90, 0x4b, 0x40, 0x64, 0x80, 0x4b, 0x30, 0x1c, 
	0x90, 0x48, 0x38, 0x64, 0x80, 0x48, 0x30, 0x1c, 
	0x90, 0x4b, 0x46, 0x64, 0x80, 0x4b, 0x30, 0x1c, 
	0x90, 0x4d, 0x47, 0x64, 0x80, 0x4d, 0x30, 0x1c, 
	0x90, 0x2c, 0x4a, 0x00, 0x90, 0x4d, 0x42, 0x24, 
	0x80, 0x4d, 0x30, 0x1c, 0x90, 0x4f, 0x49, 0x24, 
	0x80, 0x4f, 0x30, 0x1c, 0x90, 0x4d, 0x3d, 0x24, 
	0x80, 0x4d, 0x30, 0x1c, 0x90, 0x4b, 0x3f, 0x24, 
	0x80, 0x4b, 0x30, 0x1c, 0x90, 0x48, 0x3f, 0x24, 
	0x80, 0x48, 0x30, 0x1c, 0x90, 0x4b, 0x45, 0x24, 
	0x80, 0x4b, 0x30, 0x1c, 0x90, 0x4d, 0x49, 0x24, 
	0x80, 0x4d, 0x30, 0x1c, 0x90, 0x4f, 0x47, 0x24, 
	0x80, 0x4f, 0x30, 0x1c, 0x90, 0x52, 0x46, 0x24, 
	0x80, 0x52, 0x30, 0x1c, 0x90, 0x4f, 0x3c, 0x24, 
	0x80, 0x4f, 0x30, 0x1c, 0x90, 0x4d, 0x3c, 0x24, 
	0x80, 0x4d, 0x30, 0x1c, 0x90, 0x4f, 0x43, 0x24, 
	0x80, 0x4f, 0x30, 0x1c, 0x90, 0x5b, 0x58, 0x81, 
	0x64, 0x80, 0x2c, 0x30, 0x00, 0x80, 0x5b, 0x30, 
	0x1c, 0x90, 0x30, 0x4d, 0x00, 0x90, 0x4f, 0x31, 
	0x64, 0x80, 0x4f, 0x30, 0x1c, 0x90, 0x4f, 0x40, 
	0x24, 0x80, 0x4f, 0x30, 0x1c, 0x90, 0x4f, 0x3f, 
	0x24, 0x80, 0x30, 0x30, 0x00, 0x80, 0x4f, 0x30, 
	0x1c, 0x90, 0x4f, 0x3e, 0x64, 0x80, 0x4f, 0x30, 
	0x1c, 0x90, 0x4d, 0x38, 0x64, 0x80, 0x4d, 0x30, 
	0x1c, 0x90, 0x4b, 0x40, 0x64, 0x80, 0x4b, 0x30, 
	0x1c, 0x90, 0x48, 0x3c, 0x64, 0x80, 0x48, 0x30, 
	0x1c, 0x90, 0x4b, 0x47, 0x64, 0x80, 0x4b, 0x30, 
	0x1c, 0x90, 0x4d, 0x44, 0x64, 0x80, 0x4d, 0x30, 
	0x1c, 0x90, 0x30, 0x47, 0x00, 0x90, 0x4f, 0x43, 
	0x64, 0x80, 0x4f, 0x30, 0x1c, 0x90, 0x4f, 0x43, 
	0x24, 0x80, 0x4f, 0x30, 0x1c, 0x90, 0x4f, 0x3f, 
	0x24, 0x80, 0x30, 0x30, 0x00, 0x80, 0x4f, 0x30, 
	0x1c, 0x90, 0x4f, 0x40, 0x64, 0x80, 0x4f, 0x30, 
	0x1c, 0x90, 0x4d, 0x3a, 0x64, 0x80, 0x4d, 0x30, 
	0x1c, 0x90, 0x4b, 0x3c, 0x64, 0x80, 0x4b, 0x30, 
	0x1c, 0x90, 0x52, 0x4a, 0x64, 0x80, 0x52, 0x30, 
	0x1c, 0x90, 0x4f, 0x43, 0x81, 0x64, 0x80, 0x4f, 
	0x30, 0x1c, 0x90, 0x30, 0x44, 0x00, 0x90, 0x4f, 
	0x3f, 0x64, 0x80, 0x4f, 0x30, 0x1c, 0x90, 0x4f, 
	0x42, 0x24, 0x80, 0x4f, 0x30, 0x1c, 0x90, 0x4f, 
	0x43, 0x24, 0x80, 0x30, 0x30, 0x00, 0x80, 0x4f, 
	0x30, 0x1c, 0x90, 0x4f, 0x3e, 0x64, 0x80, 0x4f, 
	0x30, 0x1c, 0x90, 0x4d, 0x3c, 0x64, 0x80, 0x4d, 
	0x30, 0x1c, 0x90, 0x4b, 0x3d, 0x64, 0x80, 0x4b, 
	0x30, 0x1c, 0x90, 0x48, 0x39, 0x64, 0x80, 0x48, 
	0x30, 0x1c, 0x90, 0x4b, 0x47, 0x64, 0x80, 0x4b, 
	0x30, 0x1c, 0x90, 0x4d, 0x47, 0x64, 0x80, 0x4d, 
	0x30, 0x1c, 0x90, 0x2c, 0x46, 0x00, 0x90, 0x4f, 
	0x47, 0x24, 0x80, 0x4f, 0x30, 0x1c, 0x90, 0x4d, 
	0x3c, 0x24, 0x80, 0x4d, 0x30, 0x1c, 0x90, 0x4b, 
	0x3c, 0x24, 0x80, 0x4b, 0x30, 0x1c, 0x90, 0x48, 
	0x3c, 0x24, 0x80, 0x48, 0x30, 0x1c, 0x90, 0x4b, 
	0x47, 0x24, 0x80, 0x4b, 0x30, 0x1c, 0x90, 0x4d, 
	0x44, 0x24, 0x80, 0x4d, 0x30, 0x1c, 0x90, 0x4f, 
	0x41, 0x24, 0x80, 0x4f, 0x30, 0x1c, 0x90, 0x4d, 
	0x38, 0x24, 0x80, 0x4d, 0x30, 0x1c, 0x90, 0x48, 
	0x44, 0x64, 0x80, 0x48, 0x30, 0x1c, 0x90, 0x4b, 
	0x54, 0x64, 0x80, 0x4b, 0x30, 0x1c, 0x90, 0x4d, 
	0x58, 0x64, 0x80, 0x4d, 0x30, 0x1c, 0x90, 0x4f, 
	0x52, 0x64, 0x80, 0x2c, 0x30, 0x00, 0x80, 0x4f, 
	0x30, 0x1c, 0x90, 0x2b, 0x49, 0x00, 0x90, 0x4f, 
	0x45, 0x24, 0x80, 0x4f, 0x30, 0x1c, 0x90, 0x4d, 
	0x3e, 0x24, 0x80, 0x4d, 0x30, 0x1c, 0x90, 0x4b, 
	0x3d, 0x24, 0x80, 0x4b, 0x30, 0x1c, 0x90, 0x48, 
	0x37, 0x24, 0x80, 0x48, 0x30, 0x1c, 0x90, 0x4b, 
	0x41, 0x24, 0x80, 0x4b, 0x30, 0x1c, 0x90, 0x4d, 
	0x46, 0x24, 0x80, 0x4d, 0x30, 0x1c, 0x90, 0x4b, 
	0x39, 0x24, 0x80, 0x4b, 0x30, 0x1c, 0x90, 0x48, 
	0x3b, 0x24, 0x80, 0x48, 0x30, 0x1c, 0x90, 0x4f, 
	0x58, 0x64, 0x80, 0x4f, 0x30, 0x1c, 0x90, 0x4d, 
	0x46, 0x64, 0x80, 0x4d, 0x30, 0x1c, 0x90, 0x4b, 
	0x43, 0x64, 0x80, 0x4b, 0x30, 0x1c, 0x90, 0x48, 
	0x48, 0x64, 0x80, 0x2b, 0x30, 0x00, 0x80, 0x48, 
	0x30, 0x1c, 0x90, 0x2b, 0x4e, 0x64, 0x80, 0x2b, 
	0x30, 0x87, 0x1c, 0x90, 0x30, 0x45, 0x00, 0x90, 
	0x3f, 0x2d, 0x24, 0x80, 0x3f, 0x30, 0x1c, 0x90, 
	0x3e, 0x3c, 0x24, 0x80, 0x3e, 0x30, 0x1c, 0x90, 
	0x3c, 0x3a, 0x24, 0x80, 0x3c, 0x30, 0x1c, 0x90, 
	0x3e, 0x44, 0x24, 0x80, 0x30, 0x30, 0x00, 0x80, 
	0x3e, 0x30, 0x1c, 0x90, 0x30, 0x51, 0x00, 0x90, 
	0x3c, 0x3f, 0x24, 0x80, 0x3c, 0x30, 0x1c, 0x90, 
	0x38, 0x39, 0x24, 0x80, 0x38, 0x30, 0x1c, 0x90, 
	0x37, 0x40, 0x24, 0x80, 0x37, 0x30, 0x1c, 0x90, 
	0x38, 0x43, 0x24, 0x80, 0x30, 0x30, 0x00, 0x80, 
	0x38, 0x30, 0x1c, 0x90, 0x30, 0x50, 0x00, 0x90, 
	0x3c, 0x44, 0x24, 0x80, 0x3c, 0x30, 0x1c, 0x90, 
	0x3e, 0x49, 0x24, 0x80, 0x3e, 0x30, 0x1c, 0x90, 
	0x3f, 0x49, 0x24, 0x80, 0x3f, 0x30, 0x1c, 0x90, 
	0x41, 0x47, 0x24, 0x80, 0x30, 0x30, 0x00, 0x80, 
	0x41, 0x30, 0x1c, 0x90, 0x30, 0x45, 0x00, 0x90, 
	0x43, 0x43, 0x24, 0x80, 0x43, 0x30, 0x1c, 0x90, 
	0x41, 0x3d, 0x24, 0x80, 0x41, 0x30, 0x1c, 0x90, 
	0x43, 0x42, 0x24, 0x80, 0x43, 0x30, 0x1c, 0x90, 
	0x44, 0x46, 0x24, 0x80, 0x30, 0x30, 0x00, 0x80, 
	0x44, 0x30, 0x1c, 0x90, 0x30, 0x50, 0x00, 0x90, 
	0x43, 0x41, 0x24, 0x80, 0x43, 0x30, 0x1c, 0x90, 
	0x44, 0x45, 0x24, 0x80, 0x44, 0x30, 0x1c, 0x90, 
	0x48, 0x4a, 0x24, 0x80, 0x48, 0x30, 0x1c, 0x90, 
	0x46, 0x3a, 0x24, 0x80, 0x30, 0x30, 0x00, 0x80, 
	0x46, 0x30, 0x1c, 0x90, 0x30, 0x4a, 0x00, 0x90, 
	0x48, 0x44, 0x64, 0x80, 0x48, 0x30, 0x1c, 0x90, 
	0x4a, 0x42, 0x24, 0x80, 0x4a, 0x30, 0x1c, 0x90, 
	0x4b, 0x43, 0x24, 0x80, 0x30, 0x30, 0x00, 0x80, 
	0x4b, 0x30, 0x1c, 0x90, 0x30, 0x4b, 0x00, 0x90, 
	0x4a, 0x3f, 0x24, 0x80, 0x4a, 0x30, 0x1c, 0x90, 
	0x4b, 0x43, 0x24, 0x80, 0x4b, 0x30, 0x1c, 0x90, 
	0x4d, 0x41, 0x24, 0x80, 0x4d, 0x30, 0x1c, 0x90, 
	0x4b, 0x3e, 0x24, 0x80, 0x30, 0x30, 0x00, 0x80, 
	0x4b, 0x30, 0x1c, 0x90, 0x30, 0x4d, 0x00, 0x90, 
	0x4d, 0x44, 0x81, 0x64, 0x80, 0x4d, 0x30, 0x00, 
	0x80, 0x30, 0x30, 0x1c, 0x90, 0x2c, 0x47, 0x00, 
	0x90, 0x4d, 0x44, 0x24, 0x80, 0x4d, 0x30, 0x1c, 
	0x90, 0x4b, 0x3c, 0x24, 0x80, 0x4b, 0x30, 0x1c, 
	0x90, 0x4a, 0x3f, 0x24, 0x80, 0x4a, 0x30, 0x1c, 
	0x90, 0x48, 0x3f, 0x24, 0x80, 0x2c, 0x30, 0x00, 
	0x80, 0x48, 0x30, 0x1c, 0x90, 0x2c, 0x4b, 0x00, 
	0x90, 0x44, 0x3b, 0x24, 0x80, 0x44, 0x30, 0x1c, 
	0x90, 0x48, 0x4d, 0x24, 0x80, 0x48, 0x30, 0x1c, 
	0x90, 0x4a, 0x49, 0x24, 0x80, 0x4a, 0x30, 0x1c, 
	0x90, 0x4b, 0x45, 0x24, 0x80, 0x2c, 0x30, 0x00, 
	0x80, 0x4b, 0x30, 0x1c, 0x90, 0x2c, 0x51, 0x00, 
	0x90, 0x4d, 0x46, 0x24, 0x80, 0x4d, 0x30, 0x1c, 
	0x90, 0x4b, 0x3a, 0x24, 0x80, 0x4b, 0x30, 0x1c, 
	0x90, 0x4d, 0x44, 0x24, 0x80, 0x4d, 0x30, 0x1c, 
	0x90, 0x4f, 0x48, 0x24, 0x80, 0x2c, 0x30, 0x00, 
	0x80, 0x4f, 0x30, 0x1c, 0x90, 0x2c, 0x4b, 0x00, 
	0x90, 0x4d, 0x41, 0x24, 0x80, 0x4d, 0x30, 0x1c, 
	0x90, 0x4f, 0x46, 0x24, 0x80, 0x4f, 0x30, 0x1c, 
	0x90, 0x50, 0x47, 0x24, 0x80, 0x50, 0x30, 0x1c, 
	0x90, 0x4d, 0x3b, 0x24, 0x80, 0x2c, 0x30, 0x00, 
	0x80, 0x4d, 0x30, 0x1c, 0x90, 0x2c, 0x4a, 0x00, 
	0x90, 0x50, 0x4a, 0x24, 0x80, 0x50, 0x30, 0x1c, 
	0x90, 0x4f, 0x3b, 0x24, 0x80, 0x4f, 0x30, 0x1c, 
	0x90, 0x52, 0x48, 0x24, 0x80, 0x52, 0x30, 0x1c, 
	0x90, 0x4f, 0x3f, 0x24, 0x80, 0x2c, 0x30, 0x00, 
	0x80, 0x4f, 0x30, 0x1c, 0x90, 0x2c, 0x47, 0x00, 
	0x90, 0x4d, 0x3e, 0x24, 0x80, 0x4d, 0x30, 0x1c, 
	0x90, 0x4b, 0x41, 0x24, 0x80, 0x4b, 0x30, 0x1c, 
	0x90, 0x4a, 0x3f, 0x24, 0x80, 0x4a, 0x30, 0x1c, 
	0x90, 0x4b, 0x41, 0x24, 0x80, 0x2c, 0x30, 0x00, 
	0x80, 0x4b, 0x30, 0x1c, 0x90, 0x2c, 0x4f, 0x00, 
	0x90, 0x54, 0x4f, 0x81, 0x64, 0x80, 0x2c, 0x30, 
	0x1c, 0x90, 0x2c, 0x4e, 0x81, 0x64, 0x80, 0x54, 
	0x30, 0x00, 0x80, 0x2c, 0x30, 0x1c, 0x90, 0x2e, 
	0x50, 0x00, 0x90, 0x54, 0x40, 0x24, 0x80, 0x54, 
	0x30, 0x1c, 0x90, 0x52, 0x43, 0x24, 0x80, 0x52, 
	0x30, 0x1c, 0x90, 0x54, 0x45, 0x24, 0x80, 0x54, 
	0x30, 0x1c, 0x90, 0x50, 0x3a, 0x24, 0x80, 0x2e, 
	0x30, 0x00, 0x80, 0x50, 0x30, 0x1c, 0x90, 0x2e, 
	0x4d, 0x00, 0x90, 0x54, 0x45, 0x24, 0x80, 0x54, 
	0x30, 0x1c, 0x90, 0x4f, 0x37, 0x24, 0x80, 0x4f, 
	0x30, 0x1c, 0x90, 0x4d, 0x3c, 0x24, 0x80, 0x4d, 
	0x30, 0x1c, 0x90, 0x4b, 0x3f, 0x24, 0x80, 0x2e, 
	0x30, 0x00, 0x80, 0x4b, 0x30, 0x1c, 0x90, 0x2e, 
	0x4d, 0x00, 0x90, 0x4a, 0x39, 0x24, 0x80, 0x4a, 
	0x30, 0x1c, 0x90, 0x48, 0x3a, 0x24, 0x80, 0x48, 
	0x30, 0x1c, 0x90, 0x4a, 0x43, 0x24, 0x80, 0x4a, 
	0x30, 0x1c, 0x90, 0x4d, 0x45, 0x24, 0x80, 0x2e, 
	0x30, 0x00, 0x80, 0x4d, 0x30, 0x1c, 0x90, 0x2e, 
	0x4c, 0x00, 0x90, 0x4f, 0x48, 0x24, 0x80, 0x4f, 
	0x30, 0x1c, 0x90, 0x50, 0x44, 0x24, 0x80, 0x50, 
	0x30, 0x1c, 0x90, 0x52, 0x44, 0x64, 0x80, 0x2e, 
	0x30, 0x00, 0x80, 0x52, 0x30, 0x1c, 0x90, 0x2e, 
	0x4a, 0x00, 0x90, 0x52, 0x40, 0x24, 0x80, 0x52, 
	0x30, 0x1c, 0x90, 0x50, 0x3f, 0x24, 0x80, 0x50, 
	0x30, 0x1c, 0x90, 0x52, 0x43, 0x24, 0x80, 0x52, 
	0x30, 0x1c, 0x90, 0x4f, 0x35, 0x24, 0x80, 0x2e, 
	0x30, 0x00, 0x80, 0x4f, 0x30, 0x1c, 0x90, 0x2e, 
	0x4d, 0x00, 0x90, 0x52, 0x43, 0x24, 0x80, 0x52, 
	0x30, 0x1c, 0x90, 0x4d, 0x3b, 0x24, 0x80, 0x4d, 
	0x30, 0x1c, 0x90, 0x4b, 0x39, 0x24, 0x80, 0x4b, 
	0x30, 0x1c, 0x90, 0x4a, 0x36, 0x24, 0x80, 0x2e, 
	0x30, 0x00, 0x80, 0x4a, 0x30, 0x1c, 0x90, 0x2e, 
	0x50, 0x00, 0x90, 0x48, 0x39, 0x24, 0x80, 0x48, 
	0x30, 0x1c, 0x90, 0x4a, 0x3d, 0x24, 0x80, 0x4a, 
	0x30, 0x1c, 0x90, 0x4b, 0x48, 0x24, 0x80, 0x4b, 
	0x30, 0x1c, 0x90, 0x4d, 0x45, 0x24, 0x80, 0x2e, 
	0x30, 0x00, 0x80, 0x4d, 0x30, 0x1c, 0x90, 0x2e, 
	0x4b, 0x00, 0x90, 0x50, 0x45, 0x81, 0x64, 0x80, 
	0x50, 0x30, 0x00, 0x80, 0x2e, 0x30, 0x1c, 0x90, 
	0x30, 0x4c, 0x00, 0x90, 0x48, 0x34, 0x24, 0x80, 
	0x48, 0x30, 0x1c, 0x90, 0x4b, 0x41, 0x24, 0x80, 
	0x4b, 0x30, 0x1c, 0x90, 0x4d, 0x49, 0x24, 0x80, 
	0x4d, 0x30, 0x1c, 0x90, 0x4b, 0x42, 0x24, 0x80, 
	0x30, 0x30, 0x00, 0x80, 0x4b, 0x30, 0x1c, 0x90, 
	0x30, 0x47, 0x00, 0x90, 0x4d, 0x49, 0x24, 0x80, 
	0x4d, 0x30, 0x1c, 0x90, 0x4f, 0x4a, 0x24, 0x80, 
	0x4f, 0x30, 0x1c, 0x90, 0x4d, 0x41, 0x24, 0x80, 
	0x4d, 0x30, 0x1c, 0x90, 0x4b, 0x40, 0x24, 0x80, 
	0x30, 0x30, 0x00, 0x80, 0x4b, 0x30, 0x1c, 0x90, 
	0x30, 0x4e, 0x00, 0x90, 0x4d, 0x43, 0x24, 0x80, 
	0x4d, 0x30, 0x1c, 0x90, 0x4b, 0x42, 0x24, 0x80, 
	0x4b, 0x30, 0x1c, 0x90, 0x4a, 0x3e, 0x24, 0x80, 
	0x4a, 0x30, 0x1c, 0x90, 0x4b, 0x42, 0x24, 0x80, 
	0x30, 0x30, 0x00, 0x80, 0x4b, 0x30, 0x1c, 0x90, 
	0x30, 0x4d, 0x00, 0x90, 0x4a, 0x41, 0x24, 0x80, 
	0x4a, 0x30, 0x1c, 0x90, 0x48, 0x40, 0x24, 0x80, 
	0x48, 0x30, 0x1c, 0x90, 0x46, 0x39, 0x24, 0x80, 
	0x46, 0x30, 0x1c, 0x90, 0x43, 0x39, 0x24, 0x80, 
	0x30, 0x30, 0x00, 0x80, 0x43, 0x30, 0x1c, 0x90, 
	0x30, 0x4d, 0x00, 0x90, 0x44, 0x42, 0x24, 0x80, 
	0x44, 0x30, 0x1c, 0x90, 0x46, 0x49, 0x24, 0x80, 
	0x46, 0x30, 0x1c, 0x90, 0x44, 0x42, 0x24, 0x80, 
	0x44, 0x30, 0x1c, 0x90, 0x43, 0x3d, 0x24, 0x80, 
	0x30, 0x30, 0x00, 0x80, 0x43, 0x30, 0x1c, 0x90, 
	0x30, 0x51, 0x00, 0x90, 0x41, 0x3d, 0x24, 0x80, 
	0x41, 0x30, 0x1c, 0x90, 0x3f, 0x39, 0x24, 0x80, 
	0x3f, 0x30, 0x1c, 0x90, 0x3e, 0x3c, 0x24, 0x80, 
	0x3e, 0x30, 0x1c, 0x90, 0x3c, 0x3d, 0x24, 0x80, 
	0x30, 0x30, 0x00, 0x80, 0x3c, 0x30, 0x1c, 0x90, 
	0x30, 0x4c, 0x00, 0x90, 0x3e, 0x42, 0x24, 0x80, 
	0x3e, 0x30, 0x1c, 0x90, 0x3f, 0x46, 0x24, 0x80, 
	0x3f, 0x30, 0x1c, 0x90, 0x41, 0x45, 0x24, 0x80, 
	0x41, 0x30, 0x1c, 0x90, 0x43, 0x48, 0x24, 0x80, 
	0x30, 0x30, 0x00, 0x80, 0x43, 0x30, 0x1c, 0x90, 
	0x30, 0x4f, 0x00, 0x90, 0x44, 0x46, 0x24, 0x80, 
	0x44, 0x30, 0x1c, 0x90, 0x46, 0x43, 0x24, 0x80, 
	0x46, 0x30, 0x1c, 0x90, 0x48, 0x40, 0x24, 0x80, 
	0x48, 0x30, 0x1c, 0x90, 0x4a, 0x45, 0x24, 0x80, 
	0x30, 0x30, 0x00, 0x80, 0x4a, 0x30, 0x1c, 0x90, 
	0x30, 0x4f, 0x00, 0x90, 0x54, 0x54, 0x81, 0x64, 
	0x80, 0x54, 0x30, 0x00, 0x80, 0x30, 0x30, 0x1c, 
	0x90, 0x30, 0x50, 0x00, 0x90, 0x52, 0x41, 0x64, 
	0x80, 0x52, 0x30, 0x1c, 0x90, 0x57, 0x48, 0x64, 
	0x80, 0x30, 0x30, 0x1c, 0x90, 0x30, 0x4e, 0x64, 
	0x80, 0x57, 0x30, 0x1c, 0x90, 0x52, 0x39, 0x64, 
	0x80, 0x30, 0x30, 0x00, 0x80, 0x52, 0x30, 0x1c, 
	0x90, 0x30, 0x4c, 0x00, 0x90, 0x54, 0x44, 0x64, 
	0x80, 0x54, 0x30, 0x1c, 0x90, 0x52, 0x3c, 0x64, 
	0x80, 0x30, 0x30, 0x00, 0x80, 0x52, 0x30, 0x1c, 
	0x90, 0x30, 0x4c, 0x00, 0x90, 0x54, 0x45, 0x64, 
	0x80, 0x54, 0x30, 0x1c, 0x90, 0x52, 0x3f, 0x64, 
	0x80, 0x30, 0x30, 0x00, 0x80, 0x52, 0x30, 0x1c, 
	0x90, 0x30, 0x49, 0x00, 0x90, 0x4f, 0x3c, 0x64, 
	0x80, 0x4f, 0x30, 0x1c, 0x90, 0x4d, 0x3c, 0x64, 
	0x80, 0x30, 0x30, 0x00, 0x80, 0x4d, 0x30, 0x1c, 
	0x90, 0x30, 0x4c, 0x00, 0x90, 0x48, 0x3a, 0x64, 
	0x80, 0x48, 0x30, 0x1c, 0x90, 0x46, 0x39, 0x64, 
	0x80, 0x30, 0x30, 0x00, 0x80, 0x46, 0x30, 0x1c, 
	0x90, 0x30, 0x4b, 0x00, 0x90, 0x4f, 0x4f, 0x81, 
	0x64, 0x80, 0x4f, 0x30, 0x00, 0x80, 0x30, 0x30, 
	0x1c, 0x90, 0x2c, 0x48, 0x00, 0x90, 0x56, 0x4a, 
	0x64, 0x80, 0x56, 0x30, 0x1c, 0x90, 0x56, 0x42, 
	0x64, 0x80, 0x2c, 0x30, 0x00, 0x80, 0x56, 0x30, 
	0x1c, 0x90, 0x2c, 0x4d, 0x00, 0x90, 0x52, 0x37, 
	0x64, 0x80, 0x52, 0x30, 0x1c, 0x90, 0x57, 0x47, 
	0x64, 0x80, 0x2c, 0x30, 0x00, 0x80, 0x57, 0x30, 
	0x1c, 0x90, 0x2c, 0x4b, 0x00, 0x90, 0x56, 0x44, 
	0x64, 0x80, 0x56, 0x30, 0x1c, 0x90, 0x54, 0x3d, 
	0x64, 0x80, 0x2c, 0x30, 0x00, 0x80, 0x54, 0x30, 
	0x1c, 0x90, 0x2c, 0x4b, 0x00, 0x90, 0x52, 0x3d, 
	0x81, 0x64, 0x80, 0x52, 0x30, 0x00, 0x80, 0x2c, 
	0x30, 0x1c, 0x90, 0x2c, 0x4e, 0x00, 0x90, 0x59, 
	0x50, 0x64, 0x80, 0x59, 0x30, 0x1c, 0x90, 0x59, 
	0x41, 0x64, 0x80, 0x2c, 0x30, 0x00, 0x80, 0x59, 
	0x30, 0x1c, 0x90, 0x2c, 0x51, 0x00, 0x90, 0x4d, 
	0x2f, 0x64, 0x80, 0x4d, 0x30, 0x1c, 0x90, 0x4f, 
	0x42, 0x64, 0x80, 0x2c, 0x30, 0x00, 0x80, 0x4f, 
	0x30, 0x1c, 0x90, 0x2c, 0x4e, 0x00, 0x90, 0x4d, 
	0x39, 0x81, 0x64, 0x80, 0x2c, 0x30, 0x1c, 0x90, 
	0x2c, 0x50, 0x81, 0x64, 0x80, 0x4d, 0x30, 0x00, 
	0x80, 0x2c, 0x30, 0x1c, 0x90, 0x2e, 0x54, 0x00, 
	0x90, 0x48, 0x39, 0x24, 0x80, 0x48, 0x30, 0x1c, 
	0x90, 0x4b, 0x43, 0x24, 0x80, 0x4b, 0x30, 0x1c, 
	0x90, 0x4f, 0x49, 0x24, 0x80, 0x4f, 0x30, 0x1c, 
	0x90, 0x54, 0x49, 0x24, 0x80, 0x2e, 0x30, 0x00, 
	0x80, 0x54, 0x30, 0x1c, 0x90, 0x2e, 0x4b, 0x00, 
	0x90, 0x57, 0x46, 0x24, 0x80, 0x57, 0x30, 0x1c, 
	0x90, 0x4f, 0x35, 0x24, 0x80, 0x4f, 0x30, 0x1c, 
	0x90, 0x54, 0x48, 0x64, 0x80, 0x2e, 0x30, 0x00, 
	0x80, 0x54, 0x30, 0x1c, 0x90, 0x2e, 0x4a, 0x00, 
	0x90, 0x57, 0x44, 0x24, 0x80, 0x57, 0x30, 0x1c, 
	0x90, 0x54, 0x3b, 0x24, 0x80, 0x54, 0x30, 0x1c, 
	0x90, 0x4f, 0x39, 0x24, 0x80, 0x4f, 0x30, 0x1c, 
	0x90, 0x54, 0x49, 0x24, 0x80, 0x2e, 0x30, 0x00, 
	0x80, 0x54, 0x30, 0x1c, 0x90, 0x2e, 0x4b, 0x00, 
	0x90, 0x57, 0x48, 0x24, 0x80, 0x57, 0x30, 0x1c, 
	0x90, 0x54, 0x3a, 0x24, 0x80, 0x54, 0x30, 0x1c, 
	0x90, 0x5b, 0x49, 0x24, 0x80, 0x5b, 0x30, 0x1c, 
	0x90, 0x57, 0x39, 0x24, 0x80, 0x2e, 0x30, 0x00, 
	0x80, 0x57, 0x30, 0x1c, 0x90, 0x2e, 0x4d, 0x00, 
	0x90, 0x48, 0x2f, 0x24, 0x80, 0x48, 0x30, 0x1c, 
	0x90, 0x4b, 0x44, 0x24, 0x80, 0x4b, 0x30, 0x1c, 
	0x90, 0x4f, 0x4c, 0x24, 0x80, 0x4f, 0x30, 0x1c, 
	0x90, 0x54, 0x4b, 0x24, 0x80, 0x2e, 0x30, 0x1c, 
	0x90, 0x2e, 0x51, 0x24, 0x80, 0x54, 0x30, 0x1c, 
	0x90, 0x57, 0x48, 0x24, 0x80, 0x57, 0x30, 0x1c, 
	0x90, 0x54, 0x40, 0x24, 0x80, 0x54, 0x30, 0x1c, 
	0x90, 0x57, 0x44, 0x24, 0x80, 0x2e, 0x30, 0x00, 
	0x80, 0x57, 0x30, 0x1c, 0x90, 0x2e, 0x4e, 0x00, 
	0x90, 0x54, 0x3d, 0x24, 0x80, 0x54, 0x30, 0x1c, 
	0x90, 0x48, 0x2e, 0x64, 0x80, 0x48, 0x30, 0x1c, 
	0x90, 0x57, 0x4d, 0x24, 0x80, 0x2e, 0x30, 0x00, 
	0x80, 0x57, 0x30, 0x1c, 0x90, 0x2e, 0x49, 0x00, 
	0x90, 0x54, 0x42, 0x81, 0x64, 0x80, 0x54, 0x30, 
	0x00, 0x80, 0x2e, 0x30, 0x1c, 0x90, 0x30, 0x51, 
	0x00, 0x90, 0x54, 0x3c, 0x24, 0x80, 0x54, 0x30, 
	0x1c, 0x90, 0x4f, 0x3d, 0x24, 0x80, 0x4f, 0x30, 
	0x1c, 0x90, 0x54, 0x49, 0x24, 0x80, 0x54, 0x30, 
	0x1c, 0x90, 0x4f, 0x3a, 0x24, 0x80, 0x4f, 0x30, 
	0x1c, 0x90, 0x54, 0x49, 0x24, 0x80, 0x54, 0x30, 
	0x1c, 0x90, 0x4f, 0x39, 0x24, 0x80, 0x4f, 0x30, 
	0x1c, 0x90, 0x4d, 0x3e, 0x24, 0x80, 0x4d, 0x30, 
	0x1c, 0x90, 0x4f, 0x4a, 0x24, 0x80, 0x4f, 0x30, 
	0x1c, 0x90, 0x54, 0x44, 0x24, 0x80, 0x54, 0x30, 
	0x1c, 0x90, 0x4f, 0x38, 0x24, 0x80, 0x4f, 0x30, 
	0x1c, 0x90, 0x54, 0x4d, 0x24, 0x80, 0x54, 0x30, 
	0x1c, 0x90, 0x4f, 0x3a, 0x24, 0x80, 0x4f, 0x30, 
	0x1c, 0x90, 0x54, 0x47, 0x24, 0x80, 0x54, 0x30, 
	0x1c, 0x90, 0x4f, 0x35, 0x24, 0x80, 0x4f, 0x30, 
	0x1c, 0x90, 0x4d, 0x41, 0x24, 0x80, 0x4d, 0x30, 
	0x1c, 0x90, 0x4f, 0x47, 0x24, 0x80, 0x30, 0x30, 
	0x00, 0x80, 0x4f, 0x30, 0x1c, 0x90, 0x30, 0x4b, 
	0x00, 0x90, 0x54, 0x4c, 0x24, 0x80, 0x54, 0x30, 
	0x1c, 0x90, 0x4f, 0x37, 0x24, 0x80, 0x4f, 0x30, 
	0x1c, 0x90, 0x54, 0x4a, 0x24, 0x80, 0x54, 0x30, 
	0x1c, 0x90, 0x4f, 0x39, 0x24, 0x80, 0x4f, 0x30, 
	0x1c, 0x90, 0x54, 0x49, 0x24, 0x80, 0x54, 0x30, 
	0x1c, 0x90, 0x4f, 0x3a, 0x24, 0x80, 0x4f, 0x30, 
	0x1c, 0x90, 0x4d, 0x38, 0x24, 0x80, 0x4d, 0x30, 
	0x1c, 0x90, 0x4f, 0x45, 0x24, 0x80, 0x4f, 0x30, 
	0x1c, 0x90, 0x54, 0x46, 0x83, 0x64, 0x80, 0x30, 
	0x30, 0x00, 0x80, 0x54, 0x30, 0x1c, 0x90, 0x2b, 
	0x43, 0x00, 0x90, 0x37, 0x35, 0x64, 0x80, 0x37, 
	0x30, 0x1c, 0x90, 0x38, 0x48, 0x24, 0x80, 0x38, 
	0x30, 0x1c, 0x90, 0x3a, 0x3f, 0x24, 0x80, 0x2b, 
	0x30, 0x00, 0x80, 0x3a, 0x30, 0x1c, 0x90, 0x2b, 
	0x53, 0x00, 0x90, 0x3c, 0x48, 0x24, 0x80, 0x3c, 
	0x30, 0x1c, 0x90, 0x3e, 0x46, 0x24, 0x80, 0x3e, 
	0x30, 0x1c, 0x90, 0x3f, 0x46, 0x24, 0x80, 0x3f, 
	0x30, 0x1c, 0x90, 0x41, 0x47, 0x24, 0x80, 0x2b, 
	0x30, 0x00, 0x80, 0x41, 0x30, 0x1c, 0x90, 0x2b, 
	0x4a, 0x00, 0x90, 0x43, 0x48, 0x24, 0x80, 0x43, 
	0x30, 0x1c, 0x90, 0x44, 0x44, 0x24, 0x80, 0x44, 
	0x30, 0x1c, 0x90, 0x46, 0x48, 0x24, 0x80, 0x46, 
	0x30, 0x1c, 0x90, 0x48, 0x4a, 0x24, 0x80, 0x2b, 
	0x30, 0x00, 0x80, 0x48, 0x30, 0x1c, 0x90, 0x2b, 
	0x4a, 0x00, 0x90, 0x4a, 0x45, 0x24, 0x80, 0x4a, 
	0x30, 0x1c, 0x90, 0x4b, 0x46, 0x24, 0x80, 0x4b, 
	0x30, 0x1c, 0x90, 0x4d, 0x45, 0x24, 0x80, 0x4d, 
	0x30, 0x1c, 0x90, 0x4f, 0x46, 0x24, 0x80, 0x2b, 
	0x30, 0x00, 0x80, 0x4f, 0x30, 0x1c, 0x90, 0x2b, 
	0x4e, 0x00, 0x90, 0x52, 0x4a, 0x64, 0x80, 0x52, 
	0x30, 0x00, 0x80, 0x2b, 0x30, 0x1c, 0x90, 0x2b, 
	0x4f, 0x00, 0x90, 0x52, 0x41, 0x64, 0x80, 0x2b, 
	0x30, 0x81, 0x00, 0x80, 0x52, 0x30, 0x1c, 0x90, 
	0x2b, 0x42, 0x00, 0x90, 0x54, 0x47, 0x64, 0x80, 
	0x54, 0x30, 0x00, 0x80, 0x2b, 0x30, 0x1c, 0x90, 
	0x2b, 0x4a, 0x00, 0x90, 0x52, 0x3a, 0x64, 0x80, 
	0x52, 0x30, 0x1c, 0x90, 0x4f, 0x39, 0x64, 0x80, 
	0x4f, 0x30, 0x1c, 0x90, 0x4b, 0x3a, 0x81, 0x64, 
	0x80, 0x2b, 0x30, 0x00, 0x80, 0x4b, 0x30, 0x1c, 
	0x90, 0x30, 0x4e, 0x00, 0x90, 0x54, 0x4c, 0x2a, 
	0x90, 0x4f, 0x3b, 0x14, 0x80, 0x54, 0x30, 0x17, 
	0x90, 0x4b, 0x38, 0x0f, 0x80, 0x30, 0x30, 0x04, 
	0x80, 0x4f, 0x30, 0x18, 0x90, 0x30, 0x4f, 0x00, 
	0x90, 0x54, 0x4b, 0x14, 0x80, 0x4b, 0x30, 0x16, 
	0x90, 0x4f, 0x39, 0x14, 0x80, 0x54, 0x30, 0x17, 
	0x90, 0x4b, 0x39, 0x0f, 0x80, 0x30, 0x30, 0x04, 
	0x80, 0x4f, 0x30, 0x18, 0x90, 0x54, 0x51, 0x14, 
	0x80, 0x4b, 0x30, 0x16, 0x90, 0x4f, 0x3a, 0x14, 
	0x80, 0x54, 0x30, 0x17, 0x90, 0x4b, 0x3c, 0x13, 
	0x80, 0x4f, 0x30, 0x18, 0x90, 0x54, 0x4d, 0x14, 
	0x80, 0x4b, 0x30, 0x16, 0x90, 0x4f, 0x3a, 0x14, 
	0x80, 0x54, 0x30, 0x17, 0x90, 0x4b, 0x3b, 0x13, 
	0x80, 0x4f, 0x30, 0x18, 0x90, 0x54, 0x4e, 0x14, 
	0x80, 0x4b, 0x30, 0x16, 0x90, 0x4f, 0x37, 0x14, 
	0x80, 0x54, 0x30, 0x17, 0x90, 0x4b, 0x37, 0x13, 
	0x80, 0x4f, 0x30, 0x18, 0x90, 0x54, 0x4b, 0x14, 
	0x80, 0x4b, 0x30, 0x16, 0x90, 0x4f, 0x3b, 0x14, 
	0x80, 0x54, 0x30, 0x17, 0x90, 0x4b, 0x36, 0x13, 
	0x80, 0x4f, 0x30, 0x18, 0x90, 0x54, 0x4b, 0x14, 
	0x80, 0x4b, 0x30, 0x16, 0x90, 0x4f, 0x3c, 0x14, 
	0x80, 0x54, 0x30, 0x17, 0x90, 0x4b, 0x3b, 0x13, 
	0x80, 0x4f, 0x30, 0x18, 0x90, 0x30, 0x45, 0x00, 
	0x90, 0x54, 0x50, 0x14, 0x80, 0x4b, 0x30, 0x16, 
	0x90, 0x4f, 0x3b, 0x14, 0x80, 0x54, 0x30, 0x17, 
	0x90, 0x4b, 0x35, 0x0f, 0x80, 0x30, 0x30, 0x04, 
	0x80, 0x4f, 0x30, 0x18, 0x90, 0x30, 0x4f, 0x00, 
	0x90, 0x54, 0x4d, 0x14, 0x80, 0x4b, 0x30, 0x50, 
	0x80, 0x54, 0x30, 0x00, 0x80, 0x30, 0x30, 0x1c, 
	0x90, 0x30, 0x4a, 0x00, 0x90, 0x54, 0x47, 0x64, 
	0x80, 0x54, 0x30, 0x00, 0x80, 0x30, 0x30, 0x1c, 
	0x90, 0x52, 0x40, 0x64, 0x80, 0x52, 0x30, 0x1c, 
	0x90, 0x4f, 0x3b, 0x64, 0x80, 0x4f, 0x30, 0x1c, 
	0x90, 0x52, 0x47, 0x64, 0x80, 0x52, 0x30, 0x1c, 
	0x90, 0x4f, 0x3a, 0x64, 0x80, 0x4f, 0x30, 0x1c, 
	0x90, 0x4d, 0x40, 0x64, 0x80, 0x4d, 0x30, 0x1c, 
	0x90, 0x4f, 0x48, 0x64, 0x80, 0x4f, 0x30, 0x1c, 
	0x90, 0x2c, 0x44, 0x00, 0x90, 0x54, 0x4d, 0x2a, 
	0x90, 0x4b, 0x35, 0x14, 0x80, 0x54, 0x30, 0x17, 
	0x90, 0x54, 0x4a, 0x13, 0x80, 0x4b, 0x30, 0x18, 
	0x90, 0x52, 0x3e, 0x14, 0x80, 0x54, 0x30, 0x16, 
	0x90, 0x4b, 0x33, 0x14, 0x80, 0x52, 0x30, 0x17, 
	0x90, 0x52, 0x49, 0x0f, 0x80, 0x2c, 0x30, 0x04, 
	0x80, 0x4b, 0x30, 0x18, 0x90, 0x2c, 0x4a, 0x00, 
	0x90, 0x54, 0x48, 0x14, 0x80, 0x52, 0x30, 0x16, 
	0x90, 0x4b, 0x35, 0x14, 0x80, 0x54, 0x30, 0x17, 
	0x90, 0x54, 0x4f, 0x13, 0x80, 0x4b, 0x30, 0x18, 
	0x90, 0x50, 0x3c, 0x14, 0x80, 0x54, 0x30, 0x16, 
	0x90, 0x4b, 0x39, 0x14, 0x80, 0x50, 0x30, 0x17, 
	0x90, 0x50, 0x4a, 0x0f, 0x80, 0x2c, 0x30, 0x04, 
	0x80, 0x4b, 0x30, 0x18, 0x90, 0x2c, 0x4b, 0x00, 
	0x90, 0x54, 0x4c, 0x14, 0x80, 0x50, 0x30, 0x16, 
	0x90, 0x4b, 0x36, 0x14, 0x80, 0x54, 0x30, 0x17, 
	0x90, 0x54, 0x4d, 0x13, 0x80, 0x4b, 0x30, 0x18, 
	0x90, 0x52, 0x45, 0x14, 0x80, 0x54, 0x30, 0x16, 
	0x90, 0x4b, 0x37, 0x14, 0x80, 0x52, 0x30, 0x17, 
	0x90, 0x52, 0x4e, 0x0f, 0x80, 0x2c, 0x30, 0x04, 
	0x80, 0x4b, 0x30, 0x18, 0x90, 0x2c, 0x47, 0x00, 
	0x90, 0x54, 0x44, 0x14, 0x80, 0x52, 0x30, 0x16, 
	0x90, 0x4b, 0x35, 0x14, 0x80, 0x54, 0x30, 0x17, 
	0x90, 0x54, 0x50, 0x13, 0x80, 0x4b, 0x30, 0x18, 
	0x90, 0x50, 0x3e, 0x14, 0x80, 0x54, 0x30, 0x16, 
	0x90, 0x4b, 0x35, 0x14, 0x80, 0x50, 0x30, 0x17, 
	0x90, 0x50, 0x45, 0x0f, 0x80, 0x2c, 0x30, 0x04, 
	0x80, 0x4b, 0x30, 0x18, 0x90, 0x2c, 0x4e, 0x00, 
	0x90, 0x54, 0x4c, 0x14, 0x80, 0x50, 0x30, 0x10, 
	0x80, 0x54, 0x30, 0x1c, 0x90, 0x50, 0x3b, 0x24, 
	0x80, 0x50, 0x30, 0x1c, 0x90, 0x4b, 0x36, 0x24, 
	0x80, 0x4b, 0x30, 0x1c, 0x90, 0x48, 0x3c, 0x24, 
	0x80, 0x2c, 0x30, 0x00, 0x80, 0x48, 0x30, 0x1c, 
	0x90, 0x2c, 0x4a, 0x00, 0x90, 0x44, 0x3a, 0x24, 
	0x80, 0x44, 0x30, 0x1c, 0x90, 0x48, 0x44, 0x24, 
	0x80, 0x48, 0x30, 0x1c, 0x90, 0x4b, 0x49, 0x24, 
	0x80, 0x4b, 0x30, 0x1c, 0x90, 0x50, 0x4b, 0x24, 
	0x80, 0x2c, 0x30, 0x00, 0x80, 0x50, 0x30, 0x1c, 
	0x90, 0x2c, 0x4d, 0x00, 0x90, 0x52, 0x48, 0x24, 
	0x80, 0x52, 0x30, 0x1c, 0x90, 0x50, 0x3d, 0x24, 
	0x80, 0x50, 0x30, 0x1c, 0x90, 0x52, 0x40, 0x24, 
	0x80, 0x52, 0x30, 0x1c, 0x90, 0x54, 0x47, 0x24, 
	0x80, 0x2c, 0x30, 0x00, 0x80, 0x54, 0x30, 0x1c, 
	0x90, 0x2c, 0x4f, 0x00, 0x90, 0x57, 0x4f, 0x64, 
	0x80, 0x57, 0x30, 0x1c, 0x90, 0x50, 0x36, 0x64, 
	0x80, 0x2c, 0x30, 0x00, 0x80, 0x50, 0x30, 0x1c, 
	0x90, 0x2e, 0x4f, 0x00, 0x90, 0x4d, 0x3e, 0x24, 
	0x80, 0x4d, 0x30, 0x1c, 0x90, 0x52, 0x4a, 0x24, 
	0x80, 0x52, 0x30, 0x1c, 0x90, 0x4d, 0x39, 0x24, 
	0x80, 0x4d, 0x30, 0x1c, 0x90, 0x52, 0x4b, 0x24, 
	0x80, 0x2e, 0x30, 0x00, 0x80, 0x52, 0x30, 0x1c, 
	0x90, 0x4d, 0x33, 0x24, 0x80, 0x4d, 0x30, 0x1c, 
	0x90, 0x56, 0x4d, 0x24, 0x80, 0x56, 0x30, 0x1c, 
	0x90, 0x4d, 0x32, 0x24, 0x80, 0x4d, 0x30, 0x1c, 
	0x90, 0x56, 0x4b, 0x24, 0x80, 0x56, 0x30, 0x1c, 
	0x90, 0x4d, 0x36, 0x24, 0x80, 0x4d, 0x30, 0x1c, 
	0x90, 0x56, 0x4e, 0x83, 0x24, 0x80, 0x56, 0x30, 
	0x1c, 0x90, 0x3e, 0x31, 0x24, 0x80, 0x3e, 0x30, 
	0x1c, 0x90, 0x3f, 0x40, 0x24, 0x80, 0x3f, 0x30, 
	0x1c, 0x90, 0x41, 0x43, 0x24, 0x80, 0x41, 0x30, 
	0x1c, 0x90, 0x43, 0x43, 0x24, 0x80, 0x43, 0x30, 
	0x1c, 0x90, 0x44, 0x43, 0x24, 0x80, 0x44, 0x30, 
	0x1c, 0x90, 0x46, 0x48, 0x24, 0x80, 0x46, 0x30, 
	0x1c, 0x90, 0x48, 0x48, 0x24, 0x80, 0x48, 0x30, 
	0x1c, 0x90, 0x4a, 0x47, 0x24, 0x80, 0x4a, 0x30, 
	0x1c, 0x90, 0x50, 0x49, 0x83, 0x64, 0x80, 0x50, 
	0x30, 0x1c, 0x90, 0x27, 0x43, 0x00, 0x90, 0x4f, 
	0x3f, 0x81, 0x64, 0x80, 0x27, 0x30, 0x1c, 0x90, 
	0x27, 0x4b, 0x81, 0x64, 0x80, 0x4f, 0x30, 0x00, 
	0x80, 0x27, 0x30, 0x1c, 0x90, 0x27, 0x50, 0x00, 
	0x90, 0x4f, 0x3f, 0x81, 0x64, 0x80, 0x27, 0x30, 
	0x1c, 0x90, 0x27, 0x4c, 0x64, 0x80, 0x4f, 0x30, 
	0x1c, 0x90, 0x4d, 0x3d, 0x24, 0x80, 0x4d, 0x30, 
	0x1c, 0x90, 0x4b, 0x3c, 0x24, 0x80, 0x27, 0x30, 
	0x00, 0x80, 0x4b, 0x30, 0x1c, 0x90, 0x2e, 0x56, 
	0x00, 0x90, 0x4d, 0x44, 0x64, 0x80, 0x4d, 0x30, 
	0x1c, 0x90, 0x4b, 0x3f, 0x64, 0x80, 0x2e, 0x30, 
	0x00, 0x80, 0x4b, 0x30, 0x1c, 0x90, 0x2e, 0x52, 
	0x00, 0x90, 0x48, 0x37, 0x64, 0x80, 0x48, 0x30, 
	0x1c, 0x90, 0x46, 0x3b, 0x64, 0x80, 0x2e, 0x30, 
	0x1c, 0x90, 0x2e, 0x47, 0x81, 0x64, 0x80, 0x2e, 
	0x30, 0x1c, 0x90, 0x2e, 0x4a, 0x64, 0x80, 0x46, 
	0x30, 0x1c, 0x90, 0x41, 0x38, 0x24, 0x80, 0x41, 
	0x30, 0x1c, 0x90, 0x43, 0x44, 0x24, 0x80, 0x2e, 
	0x30, 0x00, 0x80, 0x43, 0x30, 0x1c, 0x90, 0x2c, 
	0x4e, 0x00, 0x90, 0x46, 0x48, 0x64, 0x80, 0x46, 
	0x30, 0x1c, 0x90, 0x43, 0x3b, 0x64, 0x80, 0x2c, 
	0x30, 0x00, 0x80, 0x43, 0x30, 0x1c, 0x90, 0x2c, 
	0x49, 0x00, 0x90, 0x43, 0x44, 0x64, 0x80, 0x43, 
	0x30, 0x1c, 0x90, 0x41, 0x3e, 0x64, 0x80, 0x2c, 
	0x30, 0x00, 0x80, 0x41, 0x30, 0x1c, 0x90, 0x2c, 
	0x4a, 0x00, 0x90, 0x3f, 0x40, 0x64, 0x80, 0x3f, 
	0x30, 0x1c, 0x90, 0x41, 0x49, 0x64, 0x80, 0x2c, 
	0x30, 0x00, 0x80, 0x41, 0x30, 0x1c, 0x90, 0x2c, 
	0x4b, 0x00, 0x90, 0x43, 0x41, 0x64, 0x80, 0x43, 
	0x30, 0x1c, 0x90, 0x46, 0x4b, 0x64, 0x80, 0x2c, 
	0x30, 0x00, 0x80, 0x46, 0x30, 0x1c, 0x90, 0x2c, 
	0x4a, 0x00, 0x90, 0x48, 0x45, 0x64, 0x80, 0x48, 
	0x30, 0x1c, 0x90, 0x4b, 0x47, 0x64, 0x80, 0x2c, 
	0x30, 0x00, 0x80, 0x4b, 0x30, 0x1c, 0x90, 0x2c, 
	0x49, 0x00, 0x90, 0x4d, 0x47, 0x64, 0x80, 0x4d, 
	0x30, 0x1c, 0x90, 0x46, 0x32, 0x64, 0x80, 0x2c, 
	0x30, 0x00, 0x80, 0x46, 0x30, 0x1c, 0x90, 0x2c, 
	0x4c, 0x00, 0x90, 0x57, 0x4d, 0x81, 0x64, 0x80, 
	0x2c, 0x30, 0x1c, 0x90, 0x2c, 0x4a, 0x81, 0x64, 
	0x80, 0x57, 0x30, 0x00, 0x80, 0x2c, 0x30, 0x1c, 
	0x90, 0x30, 0x52, 0x81, 0x64, 0x80, 0x30, 0x30, 
	0x1c, 0x90, 0x30, 0x4b, 0x00, 0x90, 0x4f, 0x35, 
	0x81, 0x64, 0x80, 0x4f, 0x30, 0x00, 0x80, 0x30, 
	0x30, 0x1c, 0x90, 0x30, 0x50, 0x00, 0x90, 0x50, 
	0x46, 0x81, 0x64, 0x80, 0x50, 0x30, 0x00, 0x80, 
	0x30, 0x30, 0x1c, 0x90, 0x30, 0x4d, 0x00, 0x90, 
	0x52, 0x43, 0x64, 0x80, 0x52, 0x30, 0x1c, 0x90, 
	0x50, 0x3a, 0x64, 0x80, 0x30, 0x30, 0x00, 0x80, 
	0x50, 0x30, 0x1c, 0x90, 0x2e, 0x50, 0x00, 0x90, 
	0x54, 0x49, 0x64, 0x80, 0x54, 0x30, 0x1c, 0x90, 
	0x52, 0x37, 0x64, 0x80, 0x2e, 0x30, 0x1c, 0x90, 
	0x2e, 0x4c, 0x64, 0x80, 0x52, 0x30, 0x1c, 0x90, 
	0x52, 0x40, 0x64, 0x80, 0x2e, 0x30, 0x1c, 0x90, 
	0x2e, 0x53, 0x64, 0x80, 0x52, 0x30, 0x1c, 0x90, 
	0x50, 0x3d, 0x64, 0x80, 0x2e, 0x30, 0x1c, 0x90, 
	0x2e, 0x4f, 0x64, 0x80, 0x50, 0x30, 0x1c, 0x90, 
	0x4f, 0x3d, 0x64, 0x80, 0x2e, 0x30, 0x00, 0x80, 
	0x4f, 0x30, 0x1c, 0x90, 0x2c, 0x49, 0x00, 0x90, 
	0x50, 0x44, 0x64, 0x80, 0x50, 0x30, 0x1c, 0x90, 
	0x4f, 0x3d, 0x64, 0x80, 0x2c, 0x30, 0x00, 0x80, 
	0x4f, 0x30, 0x1c, 0x90, 0x2c, 0x4c, 0x00, 0x90, 
	0x4b, 0x39, 0x64, 0x80, 0x4b, 0x30, 0x1c, 0x90, 
	0x46, 0x37, 0x64, 0x80, 0x2c, 0x30, 0x00, 0x80, 
	0x46, 0x30, 0x1c, 0x90, 0x2c, 0x4a, 0x00, 0x90, 
	0x43, 0x38, 0x64, 0x80, 0x43, 0x30, 0x1c, 0x90, 
	0x46, 0x46, 0x64, 0x80, 0x2c, 0x30, 0x00, 0x80, 
	0x46, 0x30, 0x1c, 0x90, 0x2c, 0x4f, 0x00, 0x90, 
	0x4d, 0x4e, 0x64, 0x80, 0x4d, 0x30, 0x1c, 0x90, 
	0x4b, 0x3e, 0x64, 0x80, 0x2c, 0x30, 0x1c, 0x90, 
	0x2c, 0x4b, 0x81, 0x64, 0x80, 0x4b, 0x30, 0x00, 
	0x80, 0x2c, 0x30, 0x1c, 0x90, 0x2c, 0x4a, 0x00, 
	0x90, 0x4d, 0x45, 0x64, 0x80, 0x4d, 0x30, 0x1c, 
	0x90, 0x4b, 0x3d, 0x64, 0x80, 0x2c, 0x30, 0x00, 
	0x80, 0x4b, 0x30, 0x1c, 0x90, 0x2c, 0x4c, 0x00, 
	0x90, 0x4d, 0x44, 0x81, 0x24, 0x80, 0x4d, 0x30, 
	0x1c, 0x90, 0x4b, 0x3e, 0x24, 0x80, 0x2c, 0x30, 
	0x00, 0x80, 0x4b, 0x30, 0x1c, 0x90, 0x2c, 0x4e, 
	0x00, 0x90, 0x46, 0x39, 0x81, 0x64, 0x80, 0x46, 
	0x30, 0x00, 0x80, 0x2c, 0x30, 0x1c, 0x90, 0x30, 
	0x4e, 0x00, 0x90, 0x4b, 0x4c, 0x64, 0x80, 0x4b, 
	0x30, 0x1c, 0x90, 0x52, 0x4f, 0x64, 0x80, 0x30, 
	0x30, 0x00, 0x80, 0x52, 0x30, 0x1c, 0x90, 0x30, 
	0x4e, 0x00, 0x90, 0x4b, 0x37, 0x64, 0x80, 0x4b, 
	0x30, 0x1c, 0x90, 0x48, 0x37, 0x64, 0x80, 0x30, 
	0x30, 0x1c, 0x90, 0x30, 0x4e, 0x64, 0x80, 0x48, 
	0x30, 0x1c, 0x90, 0x4f, 0x4f, 0x64, 0x80, 0x30, 
	0x30, 0x00, 0x80, 0x4f, 0x30, 0x1c, 0x90, 0x30, 
	0x4c, 0x00, 0x90, 0x48, 0x35, 0x64, 0x80, 0x48, 
	0x30, 0x1c, 0x90, 0x46, 0x3a, 0x64, 0x80, 0x30, 
	0x30, 0x00, 0x80, 0x46, 0x30, 0x1c, 0x90, 0x2c, 
	0x43, 0x00, 0x90, 0x44, 0x3d, 0x64, 0x80, 0x44, 
	0x30, 0x1c, 0x90, 0x46, 0x46, 0x64, 0x80, 0x2c, 
	0x30, 0x00, 0x80, 0x46, 0x30, 0x1c, 0x90, 0x2c, 
	0x4e, 0x00, 0x90, 0x4b, 0x4c, 0x64, 0x80, 0x4b, 
	0x30, 0x1c, 0x90, 0x4d, 0x46, 0x64, 0x80, 0x2c, 
	0x30, 0x00, 0x80, 0x4d, 0x30, 0x1c, 0x90, 0x2c, 
	0x4a, 0x00, 0x90, 0x4f, 0x47, 0x24, 0x80, 0x4f, 
	0x30, 0x1c, 0x90, 0x4d, 0x3f, 0x24, 0x80, 0x4d, 
	0x30, 0x1c, 0x90, 0x4b, 0x3e, 0x24, 0x80, 0x4b, 
	0x30, 0x1c, 0x90, 0x4d, 0x43, 0x24, 0x80, 0x2c, 
	0x30, 0x00, 0x80, 0x4d, 0x30, 0x1c, 0x90, 0x2c, 
	0x4e, 0x00, 0x90, 0x52, 0x48, 0x81, 0x64, 0x80, 
	0x52, 0x30, 0x00, 0x80, 0x2c, 0x30, 0x1c, 0x90, 
	0x30, 0x4f, 0x00, 0x90, 0x5e, 0x58, 0x81, 0x64, 
	0x80, 0x5e, 0x30, 0x00, 0x80, 0x30, 0x30, 0x1c, 
	0x90, 0x30, 0x51, 0x00, 0x90, 0x59, 0x3d, 0x81, 
	0x64, 0x80, 0x59, 0x30, 0x00, 0x80, 0x30, 0x30, 
	0x1c, 0x90, 0x30, 0x49, 0x00, 0x90, 0x57, 0x3a, 
	0x81, 0x64, 0x80, 0x57, 0x30, 0x00, 0x80, 0x30, 
	0x30, 0x1c, 0x90, 0x30, 0x4d, 0x00, 0x90, 0x54, 
	0x3e, 0x81, 0x64, 0x80, 0x54, 0x30, 0x00, 0x80, 
	0x30, 0x30, 0x1c, 0x90, 0x27, 0x45, 0x00, 0x90, 
	0x4d, 0x30, 0x81, 0x64, 0x80, 0x27, 0x30, 0x1c, 
	0x90, 0x27, 0x4c, 0x64, 0x80, 0x4d, 0x30, 0x1c, 
	0x90, 0x4f, 0x40, 0x64, 0x80, 0x27, 0x30, 0x1c, 
	0x90, 0x27, 0x4e, 0x81, 0x64, 0x80, 0x27, 0x30, 
	0x1c, 0x90, 0x27, 0x52, 0x81, 0x64, 0x80, 0x4f, 
	0x30, 0x00, 0x80, 0x27, 0x30, 0x1c, 0x90, 0x29, 
	0x4e, 0x00, 0x90, 0x54, 0x4d, 0x24, 0x80, 0x54, 
	0x30, 0x1c, 0x90, 0x50, 0x3d, 0x24, 0x80, 0x50, 
	0x30, 0x1c, 0x90, 0x4f, 0x3c, 0x24, 0x80, 0x4f, 
	0x30, 0x1c, 0x90, 0x4b, 0x3b, 0x24, 0x80, 0x29, 
	0x30, 0x00, 0x80, 0x4b, 0x30, 0x1c, 0x90, 0x29, 
	0x4c, 0x00, 0x90, 0x4f, 0x46, 0x24, 0x80, 0x4f, 
	0x30, 0x1c, 0x90, 0x50, 0x45, 0x24, 0x80, 0x50, 
	0x30, 0x1c, 0x90, 0x54, 0x47, 0x24, 0x80, 0x54, 
	0x30, 0x1c, 0x90, 0x50, 0x38, 0x24, 0x80, 0x29, 
	0x30, 0x00, 0x80, 0x50, 0x30, 0x1c, 0x90, 0x29, 
	0x4d, 0x00, 0x90, 0x54, 0x4a, 0x24, 0x80, 0x54, 
	0x30, 0x1c, 0x90, 0x50, 0x3e, 0x24, 0x80, 0x50, 
	0x30, 0x1c, 0x90, 0x4f, 0x43, 0x24, 0x80, 0x4f, 
	0x30, 0x1c, 0x90, 0x4b, 0x38, 0x24, 0x80, 0x29, 
	0x30, 0x00, 0x80, 0x4b, 0x30, 0x1c, 0x90, 0x29, 
	0x50, 0x00, 0x90, 0x4f, 0x4b, 0x24, 0x80, 0x4f, 
	0x30, 0x1c, 0x90, 0x50, 0x46, 0x24, 0x80, 0x50, 
	0x30, 0x1c, 0x90, 0x54, 0x45, 0x24, 0x80, 0x54, 
	0x30, 0x1c, 0x90, 0x50, 0x38, 0x24, 0x80, 0x29, 
	0x30, 0x00, 0x80, 0x50, 0x30, 0x1c, 0x90, 0x29, 
	0x4f, 0x00, 0x90, 0x54, 0x48, 0x24, 0x80, 0x54, 
	0x30, 0x1c, 0x90, 0x50, 0x3e, 0x24, 0x80, 0x50, 
	0x30, 0x1c, 0x90, 0x4f, 0x3a, 0x24, 0x80, 0x4f, 
	0x30, 0x1c, 0x90, 0x4b, 0x3b, 0x24, 0x80, 0x29, 
	0x30, 0x00, 0x80, 0x4b, 0x30, 0x1c, 0x90, 0x29, 
	0x47, 0x00, 0x90, 0x4a, 0x3a, 0x24, 0x80, 0x4a, 
	0x30, 0x1c, 0x90, 0x48, 0x3f, 0x24, 0x80, 0x48, 
	0x30, 0x1c, 0x90, 0x46, 0x3b, 0x24, 0x80, 0x46, 
	0x30, 0x1c, 0x90, 0x44, 0x3f, 0x24, 0x80, 0x29, 
	0x30, 0x00, 0x80, 0x44, 0x30, 0x1c, 0x90, 0x29, 
	0x4a, 0x00, 0x90, 0x41, 0x3d, 0x24, 0x80, 0x41, 
	0x30, 0x1c, 0x90, 0x3f, 0x3c, 0x24, 0x80, 0x3f, 
	0x30, 0x1c, 0x90, 0x41, 0x46, 0x24, 0x80, 0x41, 
	0x30, 0x1c, 0x90, 0x44, 0x47, 0x24, 0x80, 0x29, 
	0x30, 0x00, 0x80, 0x44, 0x30, 0x1c, 0x90, 0x29, 
	0x49, 0x00, 0x90, 0x43, 0x3e, 0x64, 0x80, 0x43, 
	0x30, 0x1c, 0x90, 0x41, 0x3d, 0x64, 0x80, 0x29, 
	0x30, 0x00, 0x80, 0x41, 0x30, 0x1c, 0x90, 0x30, 
	0x51, 0x00, 0x90, 0x3f, 0x3e, 0x64, 0x80, 0x3f, 
	0x30, 0x1c, 0x90, 0x43, 0x48, 0x24, 0x80, 0x43, 
	0x30, 0x1c, 0x90, 0x46, 0x44, 0x24, 0x80, 0x30, 
	0x30, 0x00, 0x80, 0x46, 0x30, 0x1c, 0x90, 0x30, 
	0x4b, 0x00, 0x90, 0x4b, 0x4b, 0x24, 0x80, 0x4b, 
	0x30, 0x1c, 0x90, 0x52, 0x4f, 0x24, 0x80, 0x52, 
	0x30, 0x1c, 0x90, 0x50, 0x41, 0x24, 0x80, 0x50, 
	0x30, 0x1c, 0x90, 0x4f, 0x3e, 0x24, 0x80, 0x30, 
	0x30, 0x00, 0x80, 0x4f, 0x30, 0x1c, 0x90, 0x30, 
	0x4f, 0x00, 0x90, 0x4d, 0x3b, 0x24, 0x80, 0x4d, 
	0x30, 0x1c, 0x90, 0x4b, 0x3d, 0x24, 0x80, 0x4b, 
	0x30, 0x1c, 0x90, 0x4a, 0x3a, 0x24, 0x80, 0x4a, 
	0x30, 0x1c, 0x90, 0x48, 0x3c, 0x24, 0x80, 0x30, 
	0x30, 0x00, 0x80, 0x48, 0x30, 0x1c, 0x90, 0x30, 
	0x4d, 0x00, 0x90, 0x46, 0x38, 0x24, 0x80, 0x46, 
	0x30, 0x1c, 0x90, 0x44, 0x3a, 0x24, 0x80, 0x44, 
	0x30, 0x1c, 0x90, 0x43, 0x3e, 0x24, 0x80, 0x43, 
	0x30, 0x1c, 0x90, 0x41, 0x3a, 0x24, 0x80, 0x30, 
	0x30, 0x00, 0x80, 0x41, 0x30, 0x1c, 0x90, 0x2e, 
	0x4a, 0x00, 0x90, 0x3f, 0x3d, 0x24, 0x80, 0x3f, 
	0x30, 0x1c, 0x90, 0x41, 0x47, 0x24, 0x80, 0x41, 
	0x30, 0x1c, 0x90, 0x43, 0x45, 0x24, 0x80, 0x43, 
	0x30, 0x1c, 0x90, 0x44, 0x46, 0x24, 0x80, 0x2e, 
	0x30, 0x00, 0x80, 0x44, 0x30, 0x1c, 0x90, 0x2e, 
	0x4e, 0x00, 0x90, 0x46, 0x4a, 0x24, 0x80, 0x46, 
	0x30, 0x1c, 0x90, 0x48, 0x45, 0x24, 0x80, 0x48, 
	0x30, 0x1c, 0x90, 0x4a, 0x44, 0x24, 0x80, 0x4a, 
	0x30, 0x1c, 0x90, 0x4b, 0x46, 0x24, 0x80, 0x2e, 
	0x30, 0x00, 0x80, 0x4b, 0x30, 0x1c, 0x90, 0x2e, 
	0x4c, 0x00, 0x90, 0x4a, 0x3a, 0x24, 0x80, 0x4a, 
	0x30, 0x1c, 0x90, 0x48, 0x3b, 0x24, 0x80, 0x48, 
	0x30, 0x1c, 0x90, 0x46, 0x3f, 0x24, 0x80, 0x46, 
	0x30, 0x1c, 0x90, 0x44, 0x3e, 0x24, 0x80, 0x2e, 
	0x30, 0x00, 0x80, 0x44, 0x30, 0x1c, 0x90, 0x2e, 
	0x4b, 0x00, 0x90, 0x46, 0x44, 0x24, 0x80, 0x46, 
	0x30, 0x1c, 0x90, 0x48, 0x48, 0x24, 0x80, 0x48, 
	0x30, 0x1c, 0x90, 0x4a, 0x45, 0x24, 0x80, 0x4a, 
	0x30, 0x1c, 0x90, 0x4b, 0x46, 0x24, 0x80, 0x2e, 
	0x30, 0x1c, 0x90, 0x2c, 0x4d, 0x81, 0x64, 0x80, 
	0x2c, 0x30, 0x1c, 0x90, 0x2c, 0x4b, 0x64, 0x80, 
	0x4b, 0x30, 0x1c, 0x90, 0x4b, 0x41, 0x64, 0x80, 
	0x2c, 0x30, 0x1c, 0x90, 0x2c, 0x4f, 0x64, 0x80, 
	0x4b, 0x30, 0x1c, 0x90, 0x48, 0x3a, 0x64, 0x80, 
	0x2c, 0x30, 0x1c, 0x90, 0x2c, 0x4a, 0x64, 0x80, 
	0x48, 0x30, 0x1c, 0x90, 0x48, 0x3d, 0x64, 0x80, 
	0x2c, 0x30, 0x00, 0x80, 0x48, 0x30, 0x1c, 0x90, 
	0x2c, 0x48, 0x00, 0x90, 0x4b, 0x48, 0x64, 0x80, 
	0x4b, 0x30, 0x1c, 0x90, 0x4d, 0x48, 0x64, 0x80, 
	0x2c, 0x30, 0x1c, 0x90, 0x2c, 0x4f, 0x64, 0x80, 
	0x4d, 0x30, 0x1c, 0x90, 0x4f, 0x48, 0x64, 0x80, 
	0x2c, 0x30, 0x1c, 0x90, 0x2c, 0x47, 0x64, 0x80, 
	0x4f, 0x30, 0x1c, 0x90, 0x4b, 0x3b, 0x64, 0x80, 
	0x2c, 0x30, 0x1c, 0x90, 0x2c, 0x4d, 0x64, 0x80, 
	0x4b, 0x30, 0x1c, 0x90, 0x4a, 0x38, 0x64, 0x80, 
	0x2c, 0x30, 0x00, 0x80, 0x4a, 0x30, 0x1c, 0x90, 
	0x30, 0x54, 0x00, 0x90, 0x48, 0x3a, 0x24, 0x80, 
	0x48, 0x30, 0x1c, 0x90, 0x46, 0x3e, 0x24, 0x80, 
	0x46, 0x30, 0x1c, 0x90, 0x43, 0x3a, 0x24, 0x80, 
	0x43, 0x30, 0x1c, 0x90, 0x3f, 0x35, 0x24, 0x80, 
	0x30, 0x30, 0x00, 0x80, 0x3f, 0x30, 0x1c, 0x90, 
	0x30, 0x51, 0x00, 0x90, 0x41, 0x40, 0x24, 0x80, 
	0x41, 0x30, 0x1c, 0x90, 0x43, 0x45, 0x24, 0x80, 
	0x43, 0x30, 0x1c, 0x90, 0x41, 0x3c, 0x24, 0x80, 
	0x41, 0x30, 0x1c, 0x90, 0x3f, 0x37, 0x24, 0x80, 
	0x30, 0x30, 0x00, 0x80, 0x3f, 0x30, 0x1c, 0x90, 
	0x30, 0x4c, 0x00, 0x90, 0x41, 0x40, 0x81, 0x64, 
	0x80, 0x30, 0x30, 0x1c, 0x90, 0x30, 0x4d, 0x81, 
	0x64, 0x80, 0x41, 0x30, 0x00, 0x80, 0x30, 0x30, 
	0x1c, 0x90, 0x30, 0x4d, 0x00, 0x90, 0x41, 0x41, 
	0x64, 0x80, 0x41, 0x30, 0x1c, 0x90, 0x3f, 0x3c, 
	0x64, 0x80, 0x30, 0x30, 0x00, 0x80, 0x3f, 0x30, 
	0x1c, 0x90, 0x30, 0x4d, 0x00, 0x90, 0x43, 0x46, 
	0x64, 0x80, 0x43, 0x30, 0x1c, 0x90, 0x4b, 0x50, 
	0x64, 0x80, 0x30, 0x30, 0x1c, 0x90, 0x30, 0x4d, 
	0x81, 0x64, 0x80, 0x30, 0x30, 0x1c, 0x90, 0x30, 
	0x4f, 0x81, 0x64, 0x80, 0x4b, 0x30, 0x00, 0x80, 
	0x30, 0x30, 0x1c, 0x90, 0x2e, 0x47, 0x00, 0x90, 
	0x4f, 0x48, 0x64, 0x80, 0x4f, 0x30, 0x1c, 0x90, 
	0x4f, 0x41, 0x64, 0x80, 0x2e, 0x30, 0x00, 0x80, 
	0x4f, 0x30, 0x1c, 0x90, 0x2e, 0x4f, 0x00, 0x90, 
	0x4b, 0x3a, 0x64, 0x80, 0x4b, 0x30, 0x1c, 0x90, 
	0x4f, 0x44, 0x64, 0x80, 0x2e, 0x30, 0x00, 0x80, 
	0x4f, 0x30, 0x1c, 0x90, 0x2e, 0x50, 0x00, 0x90, 
	0x4f, 0x43, 0x64, 0x80, 0x4f, 0x30, 0x1c, 0x90, 
	0x4b, 0x40, 0x64, 0x80, 0x2e, 0x30, 0x00, 0x80, 
	0x4b, 0x30, 0x1c, 0x90, 0x2e, 0x4d, 0x00, 0x90, 
	0x4f, 0x40, 0x64, 0x80, 0x4f, 0x30, 0x1c, 0x90, 
	0x4b, 0x3e, 0x64, 0x80, 0x2e, 0x30, 0x00, 0x80, 
	0x4b, 0x30, 0x1c, 0x90, 0x2e, 0x4b, 0x00, 0x90, 
	0x4f, 0x46, 0x64, 0x80, 0x4f, 0x30, 0x1c, 0x90, 
	0x50, 0x46, 0x64, 0x80, 0x2e, 0x30, 0x00, 0x80, 
	0x50, 0x30, 0x1c, 0x90, 0x2e, 0x4c, 0x81, 0x00, 
	0x90, 0x4f, 0x3a, 0x64, 0x80, 0x2e, 0x30, 0x00, 
	0x80, 0x4f, 0x30, 0x1c, 0x90, 0x2e, 0x4a, 0x81, 
	0x00, 0x90, 0x4b, 0x3b, 0x64, 0x80, 0x2e, 0x30, 
	0x00, 0x80, 0x4b, 0x30, 0x1c, 0x90, 0x2e, 0x4e, 
	0x00, 0x90, 0x57, 0x51, 0x81, 0x64, 0x80, 0x57, 
	0x30, 0x00, 0x80, 0x2e, 0x30, 0x1c, 0x90, 0x2b, 
	0x48, 0x00, 0x90, 0x3c, 0x31, 0x24, 0x80, 0x3c, 
	0x30, 0x1c, 0x90, 0x3e, 0x3f, 0x24, 0x80, 0x3e, 
	0x30, 0x1c, 0x90, 0x3f, 0x45, 0x24, 0x80, 0x3f, 
	0x30, 0x1c, 0x90, 0x41, 0x45, 0x24, 0x80, 0x2b, 
	0x30, 0x00, 0x80, 0x41, 0x30, 0x1c, 0x90, 0x2b, 
	0x4b, 0x00, 0x90, 0x43, 0x49, 0x24, 0x80, 0x43, 
	0x30, 0x1c, 0x90, 0x3f, 0x3e, 0x24, 0x80, 0x3f, 
	0x30, 0x1c, 0x90, 0x41, 0x45, 0x24, 0x80, 0x41, 
	0x30, 0x1c, 0x90, 0x43, 0x45, 0x24, 0x80, 0x2b, 
	0x30, 0x00, 0x80, 0x43, 0x30, 0x1c, 0x90, 0x2b, 
	0x4b, 0x00, 0x90, 0x44, 0x41, 0x24, 0x80, 0x44, 
	0x30, 0x1c, 0x90, 0x41, 0x38, 0x24, 0x80, 0x41, 
	0x30, 0x1c, 0x90, 0x43, 0x43, 0x24, 0x80, 0x43, 
	0x30, 0x1c, 0x90, 0x44, 0x45, 0x24, 0x80, 0x2b, 
	0x30, 0x00, 0x80, 0x44, 0x30, 0x1c, 0x90, 0x2b, 
	0x4b, 0x00, 0x90, 0x46, 0x44, 0x24, 0x80, 0x46, 
	0x30, 0x1c, 0x90, 0x43, 0x3b, 0x24, 0x80, 0x43, 
	0x30, 0x1c, 0x90, 0x44, 0x46, 0x24, 0x80, 0x44, 
	0x30, 0x1c, 0x90, 0x46, 0x43, 0x24, 0x80, 0x2b, 
	0x30, 0x00, 0x80, 0x46, 0x30, 0x1c, 0x90, 0x2c, 
	0x50, 0x00, 0x90, 0x4b, 0x4c, 0x24, 0x80, 0x4b, 
	0x30, 0x1c, 0x90, 0x48, 0x41, 0x24, 0x80, 0x48, 
	0x30, 0x1c, 0x90, 0x4d, 0x47, 0x24, 0x80, 0x4d, 
	0x30, 0x1c, 0x90, 0x48, 0x3b, 0x24, 0x80, 0x2c, 
	0x30, 0x00, 0x80, 0x48, 0x30, 0x1c, 0x90, 0x2c, 
	0x4d, 0x00, 0x90, 0x4f, 0x4e, 0x24, 0x80, 0x4f, 
	0x30, 0x1c, 0x90, 0x4d, 0x41, 0x24, 0x80, 0x4d, 
	0x30, 0x1c, 0x90, 0x4b, 0x40, 0x24, 0x80, 0x4b, 
	0x30, 0x1c, 0x90, 0x48, 0x38, 0x24, 0x80, 0x2c, 
	0x30, 0x00, 0x80, 0x48, 0x30, 0x1c, 0x90, 0x2e, 
	0x52, 0x00, 0x90, 0x4d, 0x45, 0x24, 0x80, 0x4d, 
	0x30, 0x1c, 0x90, 0x4a, 0x3e, 0x24, 0x80, 0x4a, 
	0x30, 0x1c, 0x90, 0x4f, 0x4a, 0x24, 0x80, 0x4f, 
	0x30, 0x1c, 0x90, 0x4a, 0x36, 0x24, 0x80, 0x2e, 
	0x30, 0x00, 0x80, 0x4a, 0x30, 0x1c, 0x90, 0x2e, 
	0x4c, 0x00, 0x90, 0x52, 0x4a, 0x24, 0x80, 0x52, 
	0x30, 0x1c, 0x90, 0x4f, 0x40, 0x24, 0x80, 0x4f, 
	0x30, 0x1c, 0x90, 0x4b, 0x3c, 0x24, 0x80, 0x4b, 
	0x30, 0x1c, 0x90, 0x48, 0x3a, 0x24, 0x80, 0x2e, 
	0x30, 0x00, 0x80, 0x48, 0x30, 0x1c, 0x90, 0x2c, 
	0x4a, 0x00, 0x90, 0x4b, 0x40, 0x64, 0x80, 0x4b, 
	0x30, 0x1c, 0x90, 0x48, 0x37, 0x64, 0x80, 0x2c, 
	0x30, 0x00, 0x80, 0x48, 0x30, 0x1c, 0x90, 0x2c, 
	0x4a, 0x00, 0x90, 0x4d, 0x49, 0x64, 0x80, 0x4d, 
	0x30, 0x1c, 0x90, 0x48, 0x37, 0x64, 0x80, 0x2c, 
	0x30, 0x00, 0x80, 0x48, 0x30, 0x1c, 0x90, 0x2c, 
	0x47, 0x00, 0x90, 0x4f, 0x4c, 0x64, 0x80, 0x4f, 
	0x30, 0x1c, 0x90, 0x48, 0x38, 0x64, 0x80, 0x2c, 
	0x30, 0x00, 0x80, 0x48, 0x30, 0x1c, 0x90, 0x2c, 
	0x4f, 0x00, 0x90, 0x4d, 0x4a, 0x64, 0x80, 0x4d, 
	0x30, 0x1c, 0x90, 0x48, 0x3a, 0x64, 0x80, 0x2c, 
	0x30, 0x00, 0x80, 0x48, 0x30, 0x1c, 0x90, 0x2c, 
	0x4c, 0x00, 0x90, 0x50, 0x4e, 0x2a, 0x90, 0x4b, 
	0x3e, 0x14, 0x80, 0x50, 0x30, 0x17, 0x90, 0x48, 
	0x3c, 0x13, 0x80, 0x4b, 0x30, 0x18, 0x90, 0x50, 
	0x50, 0x14, 0x80, 0x48, 0x30, 0x16, 0x90, 0x4b, 
	0x38, 0x14, 0x80, 0x50, 0x30, 0x17, 0x90, 0x48, 
	0x39, 0x0f, 0x80, 0x2c, 0x30, 0x04, 0x80, 0x4b, 
	0x30, 0x18, 0x90, 0x2c, 0x4e, 0x00, 0x90, 0x50, 
	0x4f, 0x14, 0x80, 0x48, 0x30, 0x16, 0x90, 0x4b, 
	0x3a, 0x14, 0x80, 0x50, 0x30, 0x17, 0x90, 0x48, 
	0x3a, 0x13, 0x80, 0x4b, 0x30, 0x18, 0x90, 0x50, 
	0x4a, 0x14, 0x80, 0x48, 0x30, 0x16, 0x90, 0x4b, 
	0x3b, 0x14, 0x80, 0x50, 0x30, 0x17, 0x90, 0x48, 
	0x3a, 0x0f, 0x80, 0x2c, 0x30, 0x04, 0x80, 0x4b, 
	0x30, 0x18, 0x90, 0x2c, 0x4f, 0x00, 0x90, 0x50, 
	0x4d, 0x14, 0x80, 0x48, 0x30, 0x16, 0x90, 0x4b, 
	0x3b, 0x14, 0x80, 0x50, 0x30, 0x17, 0x90, 0x48, 
	0x3a, 0x13, 0x80, 0x4b, 0x30, 0x18, 0x90, 0x50, 
	0x44, 0x14, 0x80, 0x48, 0x30, 0x16, 0x90, 0x4b, 
	0x3c, 0x14, 0x80, 0x50, 0x30, 0x17, 0x90, 0x48, 
	0x3a, 0x0f, 0x80, 0x2c, 0x30, 0x04, 0x80, 0x4b, 
	0x30, 0x18, 0x90, 0x2c, 0x4f, 0x00, 0x90, 0x50, 
	0x4b, 0x14, 0x80, 0x48, 0x30, 0x16, 0x90, 0x4b, 
	0x3f, 0x14, 0x80, 0x50, 0x30, 0x17, 0x90, 0x48, 
	0x3c, 0x13, 0x80, 0x4b, 0x30, 0x18, 0x90, 0x50, 
	0x4e, 0x14, 0x80, 0x48, 0x30, 0x16, 0x90, 0x4b, 
	0x3e, 0x14, 0x80, 0x50, 0x30, 0x17, 0x90, 0x48, 
	0x3a, 0x0f, 0x80, 0x2c, 0x30, 0x04, 0x80, 0x4b, 
	0x30, 0x18, 0x90, 0x30, 0x50, 0x00, 0x90, 0x48, 
	0x42, 0x14, 0x80, 0x48, 0x30, 0x10, 0x80, 0x48, 
	0x30, 0x1c, 0x90, 0x46, 0x38, 0x24, 0x80, 0x46, 
	0x30, 0x1c, 0x90, 0x48, 0x45, 0x24, 0x80, 0x48, 
	0x30, 0x1c, 0x90, 0x4b, 0x45, 0x24, 0x80, 0x30, 
	0x30, 0x00, 0x80, 0x4b, 0x30, 0x1c, 0x90, 0x30, 
	0x4e, 0x00, 0x90, 0x4d, 0x45, 0x24, 0x80, 0x4d, 
	0x30, 0x1c, 0x90, 0x4f, 0x42, 0x24, 0x80, 0x4f, 
	0x30, 0x1c, 0x90, 0x4d, 0x3b, 0x24, 0x80, 0x4d, 
	0x30, 0x1c, 0x90, 0x4b, 0x3b, 0x24, 0x80, 0x30, 
	0x30, 0x00, 0x80, 0x4b, 0x30, 0x1c, 0x90, 0x30, 
	0x52, 0x00, 0x90, 0x4d, 0x47, 0x24, 0x80, 0x4d, 
	0x30, 0x1c, 0x90, 0x4b, 0x40, 0x24, 0x80, 0x4b, 
	0x30, 0x1c, 0x90, 0x48, 0x3c, 0x24, 0x80, 0x48, 
	0x30, 0x1c, 0x90, 0x46, 0x3b, 0x24, 0x80, 0x30, 
	0x30, 0x00, 0x80, 0x46, 0x30, 0x1c, 0x90, 0x30, 
	0x4d, 0x00, 0x90, 0x43, 0x40, 0x24, 0x80, 0x43, 
	0x30, 0x1c, 0x90, 0x41, 0x3e, 0x24, 0x80, 0x41, 
	0x30, 0x1c, 0x90, 0x43, 0x44, 0x24, 0x80, 0x43, 
	0x30, 0x1c, 0x90, 0x46, 0x44, 0x24, 0x80, 0x30, 
	0x30, 0x00, 0x80, 0x46, 0x30, 0x1c, 0x90, 0x30, 
	0x4e, 0x00, 0x90, 0x48, 0x46, 0x64, 0x80, 0x48, 
	0x30, 0x1c, 0x90, 0x46, 0x3e, 0x24, 0x80, 0x46, 
	0x30, 0x1c, 0x90, 0x43, 0x3a, 0x24, 0x80, 0x30, 
	0x30, 0x00, 0x80, 0x43, 0x30, 0x1c, 0x90, 0x30, 
	0x4e, 0x00, 0x90, 0x46, 0x48, 0x64, 0x80, 0x46, 
	0x30, 0x1c, 0x90, 0x43, 0x3a, 0x64, 0x80, 0x30, 
	0x30, 0x00, 0x80, 0x43, 0x30, 0x1c, 0x90, 0x30, 
	0x4c, 0x00, 0x90, 0x41, 0x39, 0x24, 0x80, 0x41, 
	0x30, 0x1c, 0x90, 0x43, 0x4a, 0x24, 0x80, 0x43, 
	0x30, 0x1c, 0x90, 0x41, 0x3d, 0x24, 0x80, 0x41, 
	0x30, 0x1c, 0x90, 0x3f, 0x3c, 0x24, 0x80, 0x30, 
	0x30, 0x00, 0x80, 0x3f, 0x30, 0x1c, 0x90, 0x30, 
	0x4c, 0x00, 0x90, 0x57, 0x53, 0x81, 0x64, 0x80, 
	0x57, 0x30, 0x00, 0x80, 0x30, 0x30, 0x1c, 0x90, 
	0x2e, 0x47, 0x00, 0x90, 0x4b, 0x36, 0x64, 0x80, 
	0x4b, 0x30, 0x1c, 0x90, 0x4a, 0x3c, 0x64, 0x80, 
	0x2e, 0x30, 0x00, 0x80, 0x4a, 0x30, 0x1c, 0x90, 
	0x2e, 0x4a, 0x00, 0x90, 0x4b, 0x42, 0x64, 0x80, 
	0x4b, 0x30, 0x1c, 0x90, 0x4a, 0x38, 0x64, 0x80, 
	0x2e, 0x30, 0x00, 0x80, 0x4a, 0x30, 0x1c, 0x90, 
	0x2e, 0x47, 0x81, 0x00, 0x90, 0x46, 0x3e, 0x64, 
	0x80, 0x2e, 0x30, 0x1c, 0x90, 0x2e, 0x4e, 0x64, 
	0x80, 0x46, 0x30, 0x1c, 0x90, 0x46, 0x3d, 0x64, 
	0x80, 0x2e, 0x30, 0x00, 0x80, 0x46, 0x30, 0x1c, 
	0x90, 0x2e, 0x50, 0x00, 0x90, 0x56, 0x4f, 0x81, 
	0x64, 0x80, 0x2e, 0x30, 0x1c, 0x90, 0x2e, 0x4d, 
	0x64, 0x80, 0x56, 0x30, 0x1c, 0x90, 0x43, 0x2f, 
	0x64, 0x80, 0x2e, 0x30, 0x00, 0x80, 0x43, 0x30, 
	0x1c, 0x90, 0x2e, 0x4b, 0x00, 0x90, 0x41, 0x38, 
	0x64, 0x80, 0x41, 0x30, 0x1c, 0x90, 0x3f, 0x3e, 
	0x64, 0x80, 0x2e, 0x30, 0x00, 0x80, 0x3f, 0x30, 
	0x1c, 0x90, 0x2e, 0x48, 0x00, 0x90, 0x4b, 0x54, 
	0x81, 0x64, 0x80, 0x4b, 0x30, 0x00, 0x80, 0x2e, 
	0x30, 0x1c, 0x90, 0x30, 0x4f, 0x00, 0x90, 0x3c, 
	0x34, 0x24, 0x80, 0x3c, 0x30, 0x1c, 0x90, 0x3e, 
	0x44, 0x24, 0x80, 0x3e, 0x30, 0x1c, 0x90, 0x3f, 
	0x41, 0x24, 0x80, 0x3f, 0x30, 0x1c, 0x90, 0x41, 
	0x49, 0x24, 0x80, 0x30, 0x30, 0x00, 0x80, 0x41, 
	0x30, 0x1c, 0x90, 0x30, 0x4e, 0x00, 0x90, 0x43, 
	0x45, 0x24, 0x80, 0x43, 0x30, 0x1c, 0x90, 0x44, 
	0x46, 0x24, 0x80, 0x44, 0x30, 0x1c, 0x90, 0x46, 
	0x4b, 0x24, 0x80, 0x46, 0x30, 0x1c, 0x90, 0x48, 
	0x45, 0x24, 0x80, 0x30, 0x30, 0x00, 0x80, 0x48, 
	0x30, 0x1c, 0x90, 0x30, 0x4f, 0x00, 0x90, 0x48, 
	0x3a, 0x24, 0x80, 0x48, 0x30, 0x1c, 0x90, 0x43, 
	0x39, 0x24, 0x80, 0x43, 0x30, 0x1c, 0x90, 0x48, 
	0x4b, 0x24, 0x80, 0x48, 0x30, 0x1c, 0x90, 0x43, 
	0x3e, 0x24, 0x80, 0x30, 0x30, 0x00, 0x80, 0x43, 
	0x30, 0x1c, 0x90, 0x30, 0x4d, 0x00, 0x90, 0x48, 
	0x47, 0x24, 0x80, 0x48, 0x30, 0x1c, 0x90, 0x43, 
	0x37, 0x24, 0x80, 0x43, 0x30, 0x1c, 0x90, 0x48, 
	0x45, 0x24, 0x80, 0x48, 0x30, 0x1c, 0x90, 0x43, 
	0x39, 0x24, 0x80, 0x30, 0x30, 0x00, 0x80, 0x43, 
	0x30, 0x1c, 0x90, 0x30, 0x4f, 0x00, 0x90, 0x54, 
	0x53, 0x81, 0x64, 0x80, 0x54, 0x30, 0x00, 0x80, 
	0x30, 0x30, 0x1c, 0x90, 0x30, 0x4a, 0x00, 0x90, 
	0x3c, 0x35, 0x81, 0x64, 0x80, 0x3c, 0x30, 0x00, 
	0x80, 0x30, 0x30, 0x1c, 0x90, 0x30, 0x4b, 0x00, 
	0x90, 0x3f, 0x48, 0x81, 0x64, 0x80, 0x3f, 0x30, 
	0x00, 0x80, 0x30, 0x30, 0x1c, 0x90, 0x30, 0x50, 
	0x00, 0x90, 0x41, 0x44, 0x81, 0x64, 0x80, 0x41, 
	0x30, 0x00, 0x80, 0x30, 0x30, 0x1c, 0x90, 0x30, 
	0x4f, 0x00, 0x90, 0x43, 0x46, 0x82, 0x64, 0x80, 
	0x43, 0x30, 0x1c, 0x90, 0x43, 0x41, 0x82, 0x64, 
	0x80, 0x43, 0x30, 0x1c, 0x90, 0x43, 0x3f, 0x81, 
	0x64, 0x80, 0x43, 0x30, 0x1c, 0x90, 0x43, 0x41, 
	0x82, 0x64, 0x80, 0x30, 0x30, 0x00, 0x80, 0x43, 
	0x30, 0x1c, 0x90, 0x24, 0x40, 0x00, 0x90, 0x41, 
	0x3f, 0x82, 0x64, 0x80, 0x41, 0x30, 0x00, 0x80, 
	0x24, 0x30, 0x1c, 0x90, 0x27, 0x4c, 0x00, 0x90, 
	0x3f, 0x3e, 0x81, 0x64, 0x80, 0x3f, 0x30, 0x00, 
	0x80, 0x27, 0x30, 0x1c, 0x90, 0x2c, 0x51, 0x00, 
	0x90, 0x3c, 0x39, 0x87, 0x64, 0x80, 0x3c, 0x30, 
	0x82, 0x1c, 0x90, 0x3c, 0x3d, 0x81, 0x64, 0x80, 
	0x3c, 0x30, 0x1c, 0x90, 0x3e, 0x41, 0x81, 0x64, 
	0x80, 0x3e, 0x30, 0x1c, 0x90, 0x3f, 0x43, 0x81, 
	0x64, 0x80, 0x2c, 0x30, 0x00, 0x80, 0x3f, 0x30, 
	0x1c, 0x90, 0x22, 0x41, 0x00, 0x90, 0x41, 0x43, 
	0x82, 0x64, 0x80, 0x41, 0x30, 0x1c, 0x90, 0x41, 
	0x40, 0x82, 0x64, 0x80, 0x41, 0x30, 0x1c, 0x90, 
	0x41, 0x3f, 0x81, 0x64, 0x80, 0x41, 0x30, 0x1c, 
	0x90, 0x41, 0x3e, 0x82, 0x64, 0x80, 0x22, 0x30, 
	0x00, 0x80, 0x41, 0x30, 0x1c, 0x90, 0x2b, 0x51, 
	0x00, 0x90, 0x3f, 0x3b, 0x82, 0x64, 0x80, 0x3f, 
	0x30, 0x00, 0x80, 0x2b, 0x30, 0x1c, 0x90, 0x29, 
	0x47, 0x00, 0x90, 0x41, 0x44, 0x81, 0x64, 0x80, 
	0x41, 0x30, 0x00, 0x80, 0x29, 0x30, 0x1c, 0x90, 
	0x27, 0x49, 0x00, 0x90, 0x43, 0x41, 0x87, 0x64, 
	0x80, 0x43, 0x30, 0x82, 0x00, 0x80, 0x27, 0x30, 
	0x1c, 0x90, 0x29, 0x52, 0x00, 0x90, 0x3c, 0x3b, 
	0x81, 0x64, 0x80, 0x3c, 0x30, 0x00, 0x80, 0x29, 
	0x30, 0x1c, 0x90, 0x2b, 0x4d, 0x00, 0x90, 0x3f, 
	0x43, 0x81, 0x64, 0x80, 0x3f, 0x30, 0x00, 0x80, 
	0x2b, 0x30, 0x1c, 0x90, 0x2e, 0x54, 0x00, 0x90, 
	0x41, 0x45, 0x81, 0x64, 0x80, 0x41, 0x30, 0x00, 
	0x80, 0x2e, 0x30, 0x1c, 0x90, 0x30, 0x4e, 0x00, 
	0x90, 0x43, 0x45, 0x82, 0x64, 0x80, 0x43, 0x30, 
	0x1c, 0x90, 0x43, 0x43, 0x82, 0x64, 0x80, 0x43, 
	0x30, 0x1c, 0x90, 0x43, 0x45, 0x81, 0x64, 0x80, 
	0x43, 0x30, 0x1c, 0x90, 0x43, 0x3e, 0x82, 0x64, 
	0x80, 0x30, 0x30, 0x00, 0x80, 0x43, 0x30, 0x1c, 
	0x90, 0x33, 0x4f, 0x00, 0x90, 0x41, 0x3e, 0x82, 
	0x64, 0x80, 0x41, 0x30, 0x00, 0x80, 0x33, 0x30, 
	0x1c, 0x90, 0x2e, 0x4d, 0x00, 0x90, 0x3f, 0x3a, 
	0x81, 0x64, 0x80, 0x3f, 0x30, 0x00, 0x80, 0x2e, 
	0x30, 0x1c, 0x90, 0x2c, 0x4f, 0x00, 0x90, 0x3f, 
	0x3d, 0x82, 0x64, 0x80, 0x3f, 0x30, 0x1c, 0x90, 
	0x41, 0x45, 0x82, 0x64, 0x80, 0x41, 0x30, 0x1c, 
	0x90, 0x3f, 0x3a, 0x81, 0x64, 0x80, 0x3f, 0x30, 
	0x1c, 0x90, 0x3c, 0x3b, 0x82, 0x64, 0x80, 0x2c, 
	0x30, 0x1c, 0x90, 0x2e, 0x4e, 0x64, 0x80, 0x3c, 
	0x30, 0x82, 0x00, 0x80, 0x2e, 0x30, 0x1c, 0x90, 
	0x30, 0x4f, 0x00, 0x90, 0x3f, 0x3e, 0x81, 0x64, 
	0x80, 0x3f, 0x30, 0x00, 0x80, 0x30, 0x30, 0x1c, 
	0x90, 0x2e, 0x46, 0x00, 0x90, 0x41, 0x3f, 0x82, 
	0x64, 0x80, 0x41, 0x30, 0x1c, 0x90, 0x41, 0x40, 
	0x82, 0x64, 0x80, 0x41, 0x30, 0x1c, 0x90, 0x41, 
	0x44, 0x81, 0x64, 0x80, 0x41, 0x30, 0x1c, 0x90, 
	0x41, 0x42, 0x82, 0x64, 0x80, 0x41, 0x30, 0x1c, 
	0x90, 0x43, 0x46, 0x82, 0x64, 0x80, 0x43, 0x30, 
	0x1c, 0x90, 0x44, 0x43, 0x81, 0x64, 0x80, 0x2e, 
	0x30, 0x00, 0x80, 0x44, 0x30, 0x1c, 0x90, 0x1f, 
	0x42, 0x00, 0x90, 0x43, 0x3f, 0x81, 0x64, 0x80, 
	0x43, 0x30, 0x00, 0x80, 0x1f, 0x30, 0x88, 0x1c, 
	0x90, 0x3f, 0x3a, 0x81, 0x64, 0x80, 0x3f, 0x30, 
	0x1c, 0x90, 0x43, 0x46, 0x81, 0x64, 0x80, 0x43, 
	0x30, 0x1c, 0x90, 0x46, 0x47, 0x81, 0x64, 0x80, 
	0x46, 0x30, 0x1c, 0x90, 0x20, 0x49, 0x00, 0x90, 
	0x48, 0x4d, 0x64, 0x80, 0x20, 0x30, 0x1c, 0x90, 
	0x2c, 0x52, 0x64, 0x80, 0x2c, 0x30, 0x1c, 0x90, 
	0x20, 0x43, 0x64, 0x80, 0x20, 0x30, 0x1c, 0x90, 
	0x2c, 0x56, 0x64, 0x80, 0x2c, 0x30, 0x1c, 0x90, 
	0x20, 0x40, 0x64, 0x80, 0x20, 0x30, 0x1c, 0x90, 
	0x2c, 0x51, 0x64, 0x80, 0x48, 0x30, 0x00, 0x80, 
	0x2c, 0x30, 0x1c, 0x90, 0x20, 0x45, 0x00, 0x90, 
	0x48, 0x44, 0x64, 0x80, 0x20, 0x30, 0x1c, 0x90, 
	0x2c, 0x57, 0x64, 0x80, 0x48, 0x30, 0x00, 0x80, 
	0x2c, 0x30, 0x1c, 0x90, 0x20, 0x40, 0x00, 0x90, 
	0x48, 0x42, 0x64, 0x80, 0x20, 0x30, 0x1c, 0x90, 
	0x2c, 0x53, 0x64, 0x80, 0x2c, 0x30, 0x1c, 0x90, 
	0x20, 0x43, 0x64, 0x80, 0x48, 0x30, 0x00, 0x80, 
	0x20, 0x30, 0x1c, 0x90, 0x2c, 0x52, 0x00, 0x90, 
	0x46, 0x38, 0x64, 0x80, 0x2c, 0x30, 0x1c, 0x90, 
	0x20, 0x45, 0x64, 0x80, 0x20, 0x30, 0x1c, 0x90, 
	0x2c, 0x4f, 0x64, 0x80, 0x46, 0x30, 0x00, 0x80, 
	0x2c, 0x30, 0x1c, 0x90, 0x20, 0x43, 0x00, 0x90, 
	0x41, 0x39, 0x64, 0x80, 0x20, 0x30, 0x1c, 0x90, 
	0x2c, 0x57, 0x64, 0x80, 0x41, 0x30, 0x00, 0x80, 
	0x2c, 0x30, 0x1c, 0x90, 0x24, 0x46, 0x00, 0x90, 
	0x43, 0x41, 0x64, 0x80, 0x24, 0x30, 0x1c, 0x90, 
	0x30, 0x58, 0x64, 0x80, 0x43, 0x30, 0x00, 0x80, 
	0x30, 0x30, 0x1c, 0x90, 0x24, 0x3d, 0x00, 0x90, 
	0x46, 0x47, 0x64, 0x80, 0x46, 0x30, 0x00, 0x80, 
	0x24, 0x30, 0x1c, 0x90, 0x30, 0x54, 0x00, 0x90, 
	0x43, 0x3d, 0x64, 0x80, 0x30, 0x30, 0x1c, 0x90, 
	0x24, 0x45, 0x64, 0x80, 0x24, 0x30, 0x1c, 0x90, 
	0x30, 0x55, 0x64, 0x80, 0x30, 0x30, 0x1c, 0x90, 
	0x24, 0x3f, 0x64, 0x80, 0x24, 0x30, 0x1c, 0x90, 
	0x30, 0x56, 0x64, 0x80, 0x30, 0x30, 0x1c, 0x90, 
	0x24, 0x45, 0x64, 0x80, 0x24, 0x30, 0x1c, 0x90, 
	0x30, 0x56, 0x64, 0x80, 0x43, 0x30, 0x00, 0x80, 
	0x30, 0x30, 0x1c, 0x90, 0x24, 0x48, 0x64, 0x80, 
	0x24, 0x30, 0x1c, 0x90, 0x30, 0x51, 0x64, 0x80, 
	0x30, 0x30, 0x1c, 0x90, 0x24, 0x43, 0x00, 0x90, 
	0x3f, 0x38, 0x64, 0x80, 0x24, 0x30, 0x1c, 0x90, 
	0x30, 0x57, 0x64, 0x80, 0x3f, 0x30, 0x00, 0x80, 
	0x30, 0x30, 0x1c, 0x90, 0x24, 0x46, 0x00, 0x90, 
	0x3f, 0x43, 0x64, 0x80, 0x24, 0x30, 0x1c, 0x90, 
	0x30, 0x55, 0x64, 0x80, 0x3f, 0x30, 0x00, 0x80, 
	0x30, 0x30, 0x1c, 0x90, 0x22, 0x42, 0x00, 0x90, 
	0x41, 0x45, 0x64, 0x80, 0x22, 0x30, 0x1c, 0x90, 
	0x2e, 0x58, 0x64, 0x80, 0x2e, 0x30, 0x1c, 0x90, 
	0x22, 0x41, 0x64, 0x80, 0x41, 0x30, 0x00, 0x80, 
	0x22, 0x30, 0x1c, 0x90, 0x2e, 0x53, 0x00, 0x90, 
	0x41, 0x40, 0x64, 0x80, 0x2e, 0x30, 0x1c, 0x90, 
	0x22, 0x3f, 0x64, 0x80, 0x22, 0x30, 0x1c, 0x90, 
	0x2e, 0x56, 0x64, 0x80, 0x41, 0x30, 0x00, 0x80, 
	0x2e, 0x30, 0x1c, 0x90, 0x22, 0x46, 0x00, 0x90, 
	0x41, 0x3b, 0x64, 0x80, 0x22, 0x30, 0x1c, 0x90, 
	0x2e, 0x55, 0x64, 0x80, 0x41, 0x30, 0x00, 0x80, 
	0x2e, 0x30, 0x1c, 0x90, 0x22, 0x42, 0x00, 0x90, 
	0x43, 0x3c, 0x64, 0x80, 0x22, 0x30, 0x1c, 0x90, 
	0x2e, 0x51, 0x64, 0x80, 0x2e, 0x30, 0x1c, 0x90, 
	0x22, 0x41, 0x64, 0x80, 0x43, 0x30, 0x00, 0x80, 
	0x22, 0x30, 0x1c, 0x90, 0x2e, 0x55, 0x00, 0x90, 
	0x41, 0x3e, 0x64, 0x80, 0x2e, 0x30, 0x1c, 0x90, 
	0x22, 0x45, 0x64, 0x80, 0x22, 0x30, 0x1c, 0x90, 
	0x2e, 0x54, 0x64, 0x80, 0x41, 0x30, 0x00, 0x80, 
	0x2e, 0x30, 0x1c, 0x90, 0x22, 0x45, 0x00, 0x90, 
	0x3f, 0x3a, 0x64, 0x80, 0x22, 0x30, 0x1c, 0x90, 
	0x2e, 0x56, 0x64, 0x80, 0x3f, 0x30, 0x00, 0x80, 
	0x2e, 0x30, 0x1c, 0x90, 0x1f, 0x41, 0x00, 0x90, 
	0x43, 0x48, 0x64, 0x80, 0x1f, 0x30, 0x1c, 0x90, 
	0x2b, 0x53, 0x64, 0x80, 0x2b, 0x30, 0x1c, 0x90, 
	0x1f, 0x40, 0x64, 0x80, 0x1f, 0x30, 0x1c, 0x90, 
	0x2b, 0x56, 0x64, 0x80, 0x2b, 0x30, 0x1c, 0x90, 
	0x1f, 0x44, 0x64, 0x80, 0x1f, 0x30, 0x1c, 0x90, 
	0x2b, 0x59, 0x64, 0x80, 0x2b, 0x30, 0x1c, 0x90, 
	0x1f, 0x3e, 0x64, 0x80, 0x1f, 0x30, 0x1c, 0x90, 
	0x2b, 0x51, 0x64, 0x80, 0x2b, 0x30, 0x1c, 0x90, 
	0x1f, 0x45, 0x64, 0x80, 0x1f, 0x30, 0x1c, 0x90, 
	0x2b, 0x59, 0x64, 0x80, 0x43, 0x30, 0x00, 0x80, 
	0x2b, 0x30, 0x1c, 0x90, 0x1f, 0x41, 0x00, 0x90, 
	0x3f, 0x33, 0x64, 0x80, 0x1f, 0x30, 0x1c, 0x90, 
	0x2b, 0x55, 0x64, 0x80, 0x3f, 0x30, 0x00, 0x80, 
	0x2b, 0x30, 0x1c, 0x90, 0x1f, 0x44, 0x00, 0x90, 
	0x43, 0x47, 0x64, 0x80, 0x1f, 0x30, 0x1c, 0x90, 
	0x2b, 0x4e, 0x64, 0x80, 0x43, 0x30, 0x00, 0x80, 
	0x2b, 0x30, 0x1c, 0x90, 0x1f, 0x41, 0x00, 0x90, 
	0x46, 0x47, 0x64, 0x80, 0x1f, 0x30, 0x1c, 0x90, 
	0x2b, 0x56, 0x64, 0x80, 0x46, 0x30, 0x00, 0x80, 
	0x2b, 0x30, 0x1c, 0x90, 0x20, 0x46, 0x00, 0x90, 
	0x48, 0x46, 0x64, 0x80, 0x20, 0x30, 0x1c, 0x90, 
	0x2c, 0x53, 0x64, 0x80, 0x2c, 0x30, 0x1c, 0x90, 
	0x20, 0x47, 0x64, 0x80, 0x20, 0x30, 0x1c, 0x90, 
	0x2c, 0x5a, 0x64, 0x80, 0x2c, 0x30, 0x1c, 0x90, 
	0x20, 0x43, 0x64, 0x80, 0x20, 0x30, 0x1c, 0x90, 
	0x2c, 0x54, 0x64, 0x80, 0x48, 0x30, 0x00, 0x80, 
	0x2c, 0x30, 0x1c, 0x90, 0x20, 0x42, 0x00, 0x90, 
	0x48, 0x40, 0x64, 0x80, 0x48, 0x30, 0x00, 0x80, 
	0x20, 0x30, 0x1c, 0x90, 0x2c, 0x56, 0x00, 0x90, 
	0x48, 0x42, 0x64, 0x80, 0x48, 0x30, 0x00, 0x80, 
	0x2c, 0x30, 0x1c, 0x90, 0x20, 0x42, 0x00, 0x90, 
	0x48, 0x40, 0x64, 0x80, 0x20, 0x30, 0x1c, 0x90, 
	0x2c, 0x52, 0x64, 0x80, 0x2c, 0x30, 0x1c, 0x90, 
	0x20, 0x44, 0x64, 0x80, 0x48, 0x30, 0x00, 0x80, 
	0x20, 0x30, 0x1c, 0x90, 0x2c, 0x55, 0x00, 0x90, 
	0x46, 0x3a, 0x64, 0x80, 0x2c, 0x30, 0x1c, 0x90, 
	0x20, 0x44, 0x64, 0x80, 0x20, 0x30, 0x1c, 0x90, 
	0x2c, 0x58, 0x64, 0x80, 0x46, 0x30, 0x00, 0x80, 
	0x2c, 0x30, 0x1c, 0x90, 0x20, 0x40, 0x00, 0x90, 
	0x41, 0x38, 0x64, 0x80, 0x20, 0x30, 0x1c, 0x90, 
	0x2c, 0x54, 0x64, 0x80, 0x41, 0x30, 0x00, 0x80, 
	0x2c, 0x30, 0x1c, 0x90, 0x24, 0x47, 0x00, 0x90, 
	0x43, 0x42, 0x64, 0x80, 0x24, 0x30, 0x1c, 0x90, 
	0x30, 0x56, 0x64, 0x80, 0x43, 0x30, 0x00, 0x80, 
	0x30, 0x30, 0x1c, 0x90, 0x24, 0x45, 0x00, 0x90, 
	0x46, 0x45, 0x64, 0x80, 0x46, 0x30, 0x00, 0x80, 
	0x24, 0x30, 0x1c, 0x90, 0x30, 0x56, 0x00, 0x90, 
	0x43, 0x3a, 0x64, 0x80, 0x30, 0x30, 0x1c, 0x90, 
	0x24, 0x42, 0x64, 0x80, 0x24, 0x30, 0x1c, 0x90, 
	0x30, 0x56, 0x64, 0x80, 0x43, 0x30, 0x00, 0x80, 
	0x30, 0x30, 0x1c, 0x90, 0x24, 0x43, 0x00, 0x90, 
	0x41, 0x3e, 0x64, 0x80, 0x24, 0x30, 0x1c, 0x90, 
	0x30, 0x53, 0x64, 0x80, 0x41, 0x30, 0x00, 0x80, 
	0x30, 0x30, 0x1c, 0x90, 0x24, 0x43, 0x00, 0x90, 
	0x43, 0x43, 0x64, 0x80, 0x24, 0x30, 0x1c, 0x90, 
	0x30, 0x57, 0x64, 0x80, 0x30, 0x30, 0x1c, 0x90, 
	0x24, 0x44, 0x64, 0x80, 0x24, 0x30, 0x1c, 0x90, 
	0x30, 0x55, 0x64, 0x80, 0x43, 0x30, 0x00, 0x80, 
	0x30, 0x30, 0x1c, 0x90, 0x24, 0x44, 0x00, 0x90, 
	0x3c, 0x32, 0x64, 0x80, 0x24, 0x30, 0x1c, 0x90, 
	0x30, 0x55, 0x64, 0x80, 0x3c, 0x30, 0x00, 0x80, 
	0x30, 0x30, 0x1c, 0x90, 0x24, 0x42, 0x00, 0x90, 
	0x3f, 0x42, 0x64, 0x80, 0x24, 0x30, 0x1c, 0x90, 
	0x30, 0x58, 0x64, 0x80, 0x3f, 0x30, 0x00, 0x80, 
	0x30, 0x30, 0x1c, 0x90, 0x22, 0x44, 0x00, 0x90, 
	0x41, 0x48, 0x64, 0x80, 0x22, 0x30, 0x1c, 0x90, 
	0x2e, 0x52, 0x64, 0x80, 0x41, 0x30, 0x00, 0x80, 
	0x2e, 0x30, 0x1c, 0x90, 0x22, 0x48, 0x00, 0x90, 
	0x41, 0x41, 0x64, 0x80, 0x41, 0x30, 0x00, 0x80, 
	0x22, 0x30, 0x1c, 0x90, 0x2e, 0x52, 0x00, 0x90, 
	0x41, 0x3f, 0x64, 0x80, 0x2e, 0x30, 0x1c, 0x90, 
	0x22, 0x3f, 0x64, 0x80, 0x22, 0x30, 0x1c, 0x90, 
	0x2e, 0x53, 0x64, 0x80, 0x41, 0x30, 0x00, 0x80, 
	0x2e, 0x30, 0x1c, 0x90, 0x22, 0x46, 0x00, 0x90, 
	0x41, 0x42, 0x64, 0x80, 0x22, 0x30, 0x1c, 0x90, 
	0x2e, 0x58, 0x64, 0x80, 0x41, 0x30, 0x00, 0x80, 
	0x2e, 0x30, 0x1c, 0x90, 0x22, 0x46, 0x00, 0x90, 
	0x41, 0x3e, 0x81, 0x64, 0x80, 0x41, 0x30, 0x00, 
	0x80, 0x22, 0x30, 0x1c, 0x90, 0x3f, 0x3c, 0x81, 
	0x64, 0x80, 0x3f, 0x30, 0x1c, 0x90, 0x3c, 0x3c, 
	0x81, 0x64, 0x80, 0x3c, 0x30, 0x1c, 0x90, 0x46, 
	0x4d, 0x00, 0x90, 0x3a, 0x4d, 0x81, 0x64, 0x80, 
	0x3a, 0x30, 0x00, 0x80, 0x46, 0x30, 0x1c, 0x90, 
	0x30, 0x42, 0x00, 0x90, 0x4b, 0x4c, 0x81, 0x64, 
	0x80, 0x4b, 0x30, 0x1c, 0x90, 0x48, 0x39, 0x64, 
	0x80, 0x30, 0x30, 0x00, 0x80, 0x48, 0x30, 0x1c, 
	0x90, 0x30, 0x47, 0x00, 0x90, 0x4b, 0x4b, 0x81, 
	0x64, 0x80, 0x4b, 0x30, 0x1c, 0x90, 0x48, 0x3b, 
	0x64, 0x80, 0x30, 0x30, 0x00, 0x80, 0x48, 0x30, 
	0x1c, 0x90, 0x30, 0x4c, 0x00, 0x90, 0x4b, 0x41, 
	0x64, 0x80, 0x4b, 0x30, 0x1c, 0x90, 0x48, 0x3d, 
	0x64, 0x80, 0x30, 0x30, 0x00, 0x80, 0x48, 0x30, 
	0x1c, 0x90, 0x30, 0x4b, 0x00, 0x90, 0x4b, 0x49, 
	0x81, 0x64, 0x80, 0x4b, 0x30, 0x1c, 0x90, 0x48, 
	0x3d, 0x64, 0x80, 0x30, 0x30, 0x00, 0x80, 0x48, 
	0x30, 0x1c, 0x90, 0x30, 0x4e, 0x00, 0x90, 0x4b, 
	0x46, 0x81, 0x64, 0x80, 0x4b, 0x30, 0x1c, 0x90, 
	0x48, 0x3b, 0x64, 0x80, 0x30, 0x30, 0x00, 0x80, 
	0x48, 0x30, 0x1c, 0x90, 0x30, 0x49, 0x00, 0x90, 
	0x4b, 0x46, 0x64, 0x80, 0x4b, 0x30, 0x1c, 0x90, 
	0x48, 0x3b, 0x64, 0x80, 0x30, 0x30, 0x00, 0x80, 
	0x48, 0x30, 0x1c, 0x90, 0x2c, 0x48, 0x00, 0x90, 
	0x4f, 0x4f, 0x81, 0x64, 0x80, 0x4f, 0x30, 0x1c, 
	0x90, 0x48, 0x36, 0x64, 0x80, 0x2c, 0x30, 0x00, 
	0x80, 0x48, 0x30, 0x1c, 0x90, 0x2c, 0x4c, 0x00, 
	0x90, 0x4f, 0x49, 0x81, 0x64, 0x80, 0x4f, 0x30, 
	0x1c, 0x90, 0x48, 0x3a, 0x64, 0x80, 0x2c, 0x30, 
	0x00, 0x80, 0x48, 0x30, 0x1c, 0x90, 0x2c, 0x4d, 
	0x00, 0x90, 0x4f, 0x4d, 0x64, 0x80, 0x4f, 0x30, 
	0x1c, 0x90, 0x48, 0x39, 0x64, 0x80, 0x2c, 0x30, 
	0x00, 0x80, 0x48, 0x30, 0x1c, 0x90, 0x2c, 0x4d, 
	0x00, 0x90, 0x4f, 0x4c, 0x81, 0x64, 0x80, 0x4f, 
	0x30, 0x1c, 0x90, 0x48, 0x38, 0x64, 0x80, 0x2c, 
	0x30, 0x00, 0x80, 0x48, 0x30, 0x1c, 0x90, 0x2c, 
	0x4b, 0x00, 0x90, 0x4f, 0x4a, 0x81, 0x64, 0x80, 
	0x4f, 0x30, 0x1c, 0x90, 0x48, 0x36, 0x64, 0x80, 
	0x2c, 0x30, 0x00, 0x80, 0x48, 0x30, 0x1c, 0x90, 
	0x2c, 0x4a, 0x00, 0x90, 0x4f, 0x49, 0x64, 0x80, 
	0x4f, 0x30, 0x1c, 0x90, 0x48, 0x39, 0x64, 0x80, 
	0x2c, 0x30, 0x00, 0x80, 0x48, 0x30, 0x1c, 0x90, 
	0x29, 0x4a, 0x00, 0x90, 0x4d, 0x4a, 0x81, 0x64, 
	0x80, 0x4d, 0x30, 0x1c, 0x90, 0x48, 0x37, 0x64, 
	0x80, 0x29, 0x30, 0x00, 0x80, 0x48, 0x30, 0x1c, 
	0x90, 0x29, 0x4f, 0x00, 0x90, 0x4d, 0x4a, 0x81, 
	0x64, 0x80, 0x4d, 0x30, 0x1c, 0x90, 0x48, 0x3a, 
	0x64, 0x80, 0x29, 0x30, 0x00, 0x80, 0x48, 0x30, 
	0x1c, 0x90, 0x29, 0x4c, 0x00, 0x90, 0x4d, 0x48, 
	0x64, 0x80, 0x4d, 0x30, 0x1c, 0x90, 0x48, 0x3b, 
	0x64, 0x80, 0x29, 0x30, 0x00, 0x80, 0x48, 0x30, 
	0x1c, 0x90, 0x29, 0x4c, 0x00, 0x90, 0x4d, 0x46, 
	0x81, 0x64, 0x80, 0x4d, 0x30, 0x1c, 0x90, 0x48, 
	0x3d, 0x64, 0x80, 0x29, 0x30, 0x00, 0x80, 0x48, 
	0x30, 0x1c, 0x90, 0x29, 0x4d, 0x00, 0x90, 0x4d, 
	0x47, 0x81, 0x64, 0x80, 0x4d, 0x30, 0x1c, 0x90, 
	0x48, 0x38, 0x64, 0x80, 0x29, 0x30, 0x00, 0x80, 
	0x48, 0x30, 0x1c, 0x90, 0x29, 0x4a, 0x00, 0x90, 
	0x4d, 0x48, 0x64, 0x80, 0x4d, 0x30, 0x1c, 0x90, 
	0x48, 0x3b, 0x64, 0x80, 0x29, 0x30, 0x00, 0x80, 
	0x48, 0x30, 0x1c, 0x90, 0x2c, 0x4d, 0x00, 0x90, 
	0x4b, 0x47, 0x81, 0x64, 0x80, 0x4b, 0x30, 0x1c, 
	0x90, 0x48, 0x36, 0x64, 0x80, 0x2c, 0x30, 0x00, 
	0x80, 0x48, 0x30, 0x1c, 0x90, 0x2c, 0x49, 0x00, 
	0x90, 0x4b, 0x46, 0x81, 0x64, 0x80, 0x4b, 0x30, 
	0x1c, 0x90, 0x48, 0x3d, 0x64, 0x80, 0x2c, 0x30, 
	0x00, 0x80, 0x48, 0x30, 0x1c, 0x90, 0x2c, 0x4c, 
	0x00, 0x90, 0x4b, 0x47, 0x64, 0x80, 0x4b, 0x30, 
	0x1c, 0x90, 0x48, 0x3d, 0x64, 0x80, 0x2c, 0x30, 
	0x00, 0x80, 0x48, 0x30, 0x1c, 0x90, 0x2c, 0x4a, 
	0x00, 0x90, 0x46, 0x3a, 0x24, 0x80, 0x46, 0x30, 
	0x1c, 0x90, 0x48, 0x42, 0x24, 0x80, 0x48, 0x30, 
	0x1c, 0x90, 0x4a, 0x49, 0x24, 0x80, 0x4a, 0x30, 
	0x1c, 0x90, 0x4b, 0x43, 0x24, 0x80, 0x2c, 0x30, 
	0x00, 0x80, 0x4b, 0x30, 0x1c, 0x90, 0x2c, 0x4a, 
	0x00, 0x90, 0x4a, 0x3e, 0x24, 0x80, 0x4a, 0x30, 
	0x1c, 0x90, 0x4b, 0x44, 0x24, 0x80, 0x4b, 0x30, 
	0x1c, 0x90, 0x4d, 0x49, 0x24, 0x80, 0x4d, 0x30, 
	0x1c, 0x90, 0x4b, 0x39, 0x24, 0x80, 0x2c, 0x30, 
	0x00, 0x80, 0x4b, 0x30, 0x1c, 0x90, 0x2c, 0x47, 
	0x00, 0x90, 0x4d, 0x45, 0x24, 0x80, 0x4d, 0x30, 
	0x1c, 0x90, 0x4f, 0x44, 0x24, 0x80, 0x4f, 0x30, 
	0x1c, 0x90, 0x4d, 0x3d, 0x24, 0x80, 0x4d, 0x30, 
	0x1c, 0x90, 0x4b, 0x3b, 0x24, 0x80, 0x2c, 0x30, 
	0x00, 0x80, 0x4b, 0x30, 0x1c, 0x90, 0x2c, 0x49, 
	0x00, 0x90, 0x4d, 0x44, 0x24, 0x80, 0x4d, 0x30, 
	0x1c, 0x90, 0x4b, 0x3c, 0x24, 0x80, 0x4b, 0x30, 
	0x1c, 0x90, 0x48, 0x3a, 0x24, 0x80, 0x48, 0x30, 
	0x1c, 0x90, 0x46, 0x3b, 0x24, 0x80, 0x2c, 0x30, 
	0x00, 0x80, 0x46, 0x30, 0x1c, 0x90, 0x30, 0x51, 
	0x00, 0x90, 0x4b, 0x47, 0x64, 0x80, 0x4b, 0x30, 
	0x1c, 0x90, 0x4b, 0x46, 0x64, 0x80, 0x4b, 0x30, 
	0x1c, 0x90, 0x48, 0x3e, 0x64, 0x80, 0x30, 0x30, 
	0x00, 0x80, 0x48, 0x30, 0x1c, 0x90, 0x30, 0x49, 
	0x00, 0x90, 0x4b, 0x46, 0x64, 0x80, 0x4b, 0x30, 
	0x1c, 0x90, 0x4b, 0x41, 0x64, 0x80, 0x4b, 0x30, 
	0x1c, 0x90, 0x48, 0x3c, 0x64, 0x80, 0x30, 0x30, 
	0x00, 0x80, 0x48, 0x30, 0x1c, 0x90, 0x30, 0x4a, 
	0x00, 0x90, 0x4b, 0x48, 0x64, 0x80, 0x4b, 0x30, 
	0x1c, 0x90, 0x48, 0x38, 0x64, 0x80, 0x30, 0x30, 
	0x00, 0x80, 0x48, 0x30, 0x1c, 0x90, 0x30, 0x4d, 
	0x00, 0x90, 0x4b, 0x44, 0x64, 0x80, 0x4b, 0x30, 
	0x1c, 0x90, 0x4b, 0x3c, 0x64, 0x80, 0x4b, 0x30, 
	0x1c, 0x90, 0x48, 0x3b, 0x64, 0x80, 0x30, 0x30, 
	0x00, 0x80, 0x48, 0x30, 0x1c, 0x90, 0x30, 0x4d, 
	0x00, 0x90, 0x4b, 0x46, 0x64, 0x80, 0x4b, 0x30, 
	0x1c, 0x90, 0x4b, 0x41, 0x64, 0x80, 0x4b, 0x30, 
	0x1c, 0x90, 0x48, 0x3c, 0x64, 0x80, 0x30, 0x30, 
	0x00, 0x80, 0x48, 0x30, 0x1c, 0x90, 0x30, 0x4f, 
	0x00, 0x90, 0x4b, 0x49, 0x64, 0x80, 0x4b, 0x30, 
	0x1c, 0x90, 0x48, 0x3e, 0x64, 0x80, 0x30, 0x30, 
	0x00, 0x80, 0x48, 0x30, 0x1c, 0x90, 0x2c, 0x4c, 
	0x00, 0x90, 0x4f, 0x4a, 0x64, 0x80, 0x4f, 0x30, 
	0x1c, 0x90, 0x4f, 0x43, 0x64, 0x80, 0x4f, 0x30, 
	0x1c, 0x90, 0x48, 0x36, 0x64, 0x80, 0x2c, 0x30, 
	0x00, 0x80, 0x48, 0x30, 0x1c, 0x90, 0x2c, 0x4f, 
	0x00, 0x90, 0x4f, 0x4e, 0x64, 0x80, 0x4f, 0x30, 
	0x1c, 0x90, 0x4f, 0x40, 0x64, 0x80, 0x4f, 0x30, 
	0x1c, 0x90, 0x48, 0x2f, 0x64, 0x80, 0x2c, 0x30, 
	0x00, 0x80, 0x48, 0x30, 0x1c, 0x90, 0x2c, 0x4e, 
	0x00, 0x90, 0x4f, 0x4b, 0x64, 0x80, 0x4f, 0x30, 
	0x1c, 0x90, 0x48, 0x35, 0x64, 0x80, 0x2c, 0x30, 
	0x00, 0x80, 0x48, 0x30, 0x1c, 0x90, 0x2c, 0x4c, 
	0x00, 0x90, 0x4f, 0x4c, 0x64, 0x80, 0x4f, 0x30, 
	0x1c, 0x90, 0x4f, 0x43, 0x64, 0x80, 0x4f, 0x30, 
	0x1c, 0x90, 0x48, 0x36, 0x64, 0x80, 0x2c, 0x30, 
	0x00, 0x80, 0x48, 0x30, 0x1c, 0x90, 0x2c, 0x4e, 
	0x00, 0x90, 0x4f, 0x4a, 0x64, 0x80, 0x4f, 0x30, 
	0x1c, 0x90, 0x4f, 0x41, 0x64, 0x80, 0x4f, 0x30, 
	0x1c, 0x90, 0x48, 0x33, 0x64, 0x80, 0x2c, 0x30, 
	0x00, 0x80, 0x48, 0x30, 0x1c, 0x90, 0x2c, 0x4b, 
	0x00, 0x90, 0x4f, 0x4d, 0x64, 0x80, 0x4f, 0x30, 
	0x1c, 0x90, 0x48, 0x32, 0x64, 0x80, 0x2c, 0x30, 
	0x00, 0x80, 0x48, 0x30, 0x1c, 0x90, 0x29, 0x4b, 
	0x00, 0x90, 0x4d, 0x4b, 0x64, 0x80, 0x4d, 0x30, 
	0x1c, 0x90, 0x4d, 0x40, 0x64, 0x80, 0x4d, 0x30, 
	0x1c, 0x90, 0x48, 0x36, 0x64, 0x80, 0x29, 0x30, 
	0x00, 0x80, 0x48, 0x30, 0x1c, 0x90, 0x29, 0x4d, 
	0x00, 0x90, 0x4d, 0x4a, 0x64, 0x80, 0x4d, 0x30, 
	0x1c, 0x90, 0x4d, 0x42, 0x64, 0x80, 0x4d, 0x30, 
	0x1c, 0x90, 0x48, 0x37, 0x64, 0x80, 0x29, 0x30, 
	0x00, 0x80, 0x48, 0x30, 0x1c, 0x90, 0x29, 0x49, 
	0x00, 0x90, 0x4d, 0x48, 0x64, 0x80, 0x4d, 0x30, 
	0x1c, 0x90, 0x48, 0x3a, 0x64, 0x80, 0x29, 0x30, 
	0x00, 0x80, 0x48, 0x30, 0x1c, 0x90, 0x29, 0x4c, 
	0x00, 0x90, 0x4d, 0x4c, 0x64, 0x80, 0x4d, 0x30, 
	0x1c, 0x90, 0x4d, 0x44, 0x64, 0x80, 0x4d, 0x30, 
	0x1c, 0x90, 0x48, 0x38, 0x64, 0x80, 0x29, 0x30, 
	0x00, 0x80, 0x48, 0x30, 0x1c, 0x90, 0x29, 0x4c, 
	0x00, 0x90, 0x4d, 0x4a, 0x64, 0x80, 0x4d, 0x30, 
	0x1c, 0x90, 0x4d, 0x41, 0x64, 0x80, 0x4d, 0x30, 
	0x1c, 0x90, 0x48, 0x38, 0x64, 0x80, 0x29, 0x30, 
	0x00, 0x80, 0x48, 0x30, 0x1c, 0x90, 0x29, 0x4f, 
	0x00, 0x90, 0x4d, 0x49, 0x64, 0x80, 0x4d, 0x30, 
	0x1c, 0x90, 0x48, 0x3b, 0x64, 0x80, 0x29, 0x30, 
	0x00, 0x80, 0x48, 0x30, 0x1c, 0x90, 0x2e, 0x54, 
	0x00, 0x90, 0x3f, 0x30, 0x24, 0x80, 0x3f, 0x30, 
	0x1c, 0x90, 0x43, 0x44, 0x24, 0x80, 0x43, 0x30, 
	0x1c, 0x90, 0x48, 0x4a, 0x24, 0x80, 0x48, 0x30, 
	0x1c, 0x90, 0x4b, 0x44, 0x24, 0x80, 0x4b, 0x30, 
	0x1c, 0x90, 0x4f, 0x4b, 0x24, 0x80, 0x4f, 0x30, 
	0x1c, 0x90, 0x50, 0x46, 0x24, 0x80, 0x50, 0x30, 
	0x1c, 0x90, 0x4b, 0x35, 0x24, 0x80, 0x4b, 0x30, 
	0x1c, 0x90, 0x48, 0x3e, 0x24, 0x80, 0x48, 0x30, 
	0x1c, 0x90, 0x4b, 0x45, 0x24, 0x80, 0x4b, 0x30, 
	0x1c, 0x90, 0x48, 0x3c, 0x24, 0x80, 0x48, 0x30, 
	0x1c, 0x90, 0x43, 0x35, 0x24, 0x80, 0x43, 0x30, 
	0x1c, 0x90, 0x48, 0x47, 0x24, 0x80, 0x48, 0x30, 
	0x1c, 0x90, 0x43, 0x35, 0x24, 0x80, 0x43, 0x30, 
	0x1c, 0x90, 0x3f, 0x39, 0x24, 0x80, 0x3f, 0x30, 
	0x1c, 0x90, 0x43, 0x47, 0x24, 0x80, 0x43, 0x30, 
	0x1c, 0x90, 0x3f, 0x3e, 0x24, 0x80, 0x2e, 0x30, 
	0x00, 0x80, 0x3f, 0x30, 0x1c, 0x90, 0x3c, 0x41, 
	0x24, 0x80, 0x3c, 0x30, 0x1c, 0x90, 0x3f, 0x45, 
	0x24, 0x80, 0x3f, 0x30, 0x1c, 0x90, 0x43, 0x4b, 
	0x24, 0x80, 0x43, 0x30, 0x1c, 0x90, 0x48, 0x47, 
	0x24, 0x80, 0x48, 0x30, 0x1c, 0x90, 0x4b, 0x49, 
	0x24, 0x80, 0x4b, 0x30, 0x1c, 0x90, 0x48, 0x3d, 
	0x24, 0x80, 0x48, 0x30, 0x1c, 0x90, 0x4f, 0x4d, 
	0x24, 0x80, 0x4f, 0x30, 0x1c, 0x90, 0x4b, 0x40, 
	0x24, 0x80, 0x4b, 0x30, 0x1c, 0x90, 0x50, 0x4f, 
	0x24, 0x80, 0x50, 0x30, 0x1c, 0x90, 0x4f, 0x3d, 
	0x24, 0x80, 0x4f, 0x30, 0x1c, 0x90, 0x4b, 0x3a, 
	0x24, 0x80, 0x4b, 0x30, 0x1c, 0x90, 0x4f, 0x47, 
	0x24, 0x80, 0x4f, 0x30, 0x1c, 0x90, 0x50, 0x43, 
	0x24, 0x80, 0x50, 0x30, 0x1c, 0x90, 0x4f, 0x42, 
	0x24, 0x80, 0x4f, 0x30, 0x1c, 0x90, 0x4b, 0x3a, 
	0x24, 0x80, 0x4b, 0x30, 0x1c, 0x90, 0x50, 0x4b, 
	0x24, 0x80, 0x50, 0x30, 0x1c, 0x90, 0x30, 0x54, 
	0x00, 0x90, 0x4f, 0x3f, 0x64, 0x80, 0x4f, 0x30, 
	0x00, 0x80, 0x30, 0x30, 0x1c, 0x90, 0x30, 0x4b, 
	0x00, 0x90, 0x52, 0x46, 0x64, 0x80, 0x52, 0x30, 
	0x00, 0x80, 0x30, 0x30, 0x1c, 0x90, 0x30, 0x4e, 
	0x00, 0x90, 0x52, 0x46, 0x64, 0x80, 0x52, 0x30, 
	0x00, 0x80, 0x30, 0x30, 0x1c, 0x90, 0x30, 0x4e, 
	0x00, 0x90, 0x4f, 0x3e, 0x64, 0x80, 0x4f, 0x30, 
	0x00, 0x80, 0x30, 0x30, 0x1c, 0x90, 0x52, 0x48, 
	0x64, 0x80, 0x52, 0x30, 0x1c, 0x90, 0x30, 0x4a, 
	0x00, 0x90, 0x52, 0x42, 0x64, 0x80, 0x52, 0x30, 
	0x00, 0x80, 0x30, 0x30, 0x1c, 0x90, 0x4f, 0x38, 
	0x64, 0x80, 0x4f, 0x30, 0x1c, 0x90, 0x30, 0x45, 
	0x00, 0x90, 0x52, 0x49, 0x64, 0x80, 0x52, 0x30, 
	0x00, 0x80, 0x30, 0x30, 0x1c, 0x90, 0x52, 0x47, 
	0x64, 0x80, 0x52, 0x30, 0x1c, 0x90, 0x30, 0x43, 
	0x00, 0x90, 0x4f, 0x3f, 0x64, 0x80, 0x4f, 0x30, 
	0x00, 0x80, 0x30, 0x30, 0x1c, 0x90, 0x4f, 0x3e, 
	0x64, 0x80, 0x4f, 0x30, 0x1c, 0x90, 0x30, 0x3d, 
	0x00, 0x90, 0x52, 0x4c, 0x64, 0x80, 0x52, 0x30, 
	0x00, 0x80, 0x30, 0x30, 0x1c, 0x90, 0x30, 0x4b, 
	0x00, 0x90, 0x52, 0x40, 0x64, 0x80, 0x52, 0x30, 
	0x00, 0x80, 0x30, 0x30, 0x1c, 0x90, 0x30, 0x4f, 
	0x00, 0x90, 0x4f, 0x3d, 0x64, 0x80, 0x4f, 0x30, 
	0x00, 0x80, 0x30, 0x30, 0x1c, 0x90, 0x30, 0x4a, 
	0x00, 0x90, 0x4d, 0x3d, 0x64, 0x80, 0x4d, 0x30, 
	0x00, 0x80, 0x30, 0x30, 0x1c, 0x90, 0x4b, 0x3b, 
	0x64, 0x80, 0x4b, 0x30, 0x1c, 0x90, 0x27, 0x44, 
	0x00, 0x90, 0x4d, 0x45, 0x64, 0x80, 0x4d, 0x30, 
	0x00, 0x80, 0x27, 0x30, 0x1c, 0x90, 0x27, 0x4a, 
	0x00, 0x90, 0x4f, 0x46, 0x64, 0x80, 0x4f, 0x30, 
	0x00, 0x80, 0x27, 0x30, 0x1c, 0x90, 0x27, 0x49, 
	0x00, 0x90, 0x4f, 0x46, 0x64, 0x80, 0x4f, 0x30, 
	0x00, 0x80, 0x27, 0x30, 0x1c, 0x90, 0x27, 0x4b, 
	0x00, 0x90, 0x4d, 0x3e, 0x64, 0x80, 0x4d, 0x30, 
	0x00, 0x80, 0x27, 0x30, 0x1c, 0x90, 0x4f, 0x40, 
	0x64, 0x80, 0x4f, 0x30, 0x1c, 0x90, 0x27, 0x43, 
	0x00, 0x90, 0x4f, 0x43, 0x64, 0x80, 0x4f, 0x30, 
	0x00, 0x80, 0x27, 0x30, 0x1c, 0x90, 0x4d, 0x39, 
	0x64, 0x80, 0x4d, 0x30, 0x1c, 0x90, 0x27, 0x42, 
	0x00, 0x90, 0x4f, 0x44, 0x64, 0x80, 0x4f, 0x30, 
	0x00, 0x80, 0x27, 0x30, 0x1c, 0x90, 0x4f, 0x44, 
	0x64, 0x80, 0x4f, 0x30, 0x1c, 0x90, 0x27, 0x46, 
	0x00, 0x90, 0x4d, 0x3d, 0x64, 0x80, 0x4d, 0x30, 
	0x00, 0x80, 0x27, 0x30, 0x1c, 0x90, 0x4f, 0x41, 
	0x64, 0x80, 0x4f, 0x30, 0x1c, 0x90, 0x27, 0x44, 
	0x00, 0x90, 0x4f, 0x41, 0x64, 0x80, 0x4f, 0x30, 
	0x00, 0x80, 0x27, 0x30, 0x1c, 0x90, 0x27, 0x4f, 
	0x00, 0x90, 0x50, 0x47, 0x64, 0x80, 0x50, 0x30, 
	0x00, 0x80, 0x27, 0x30, 0x1c, 0x90, 0x27, 0x4d, 
	0x00, 0x90, 0x4f, 0x3e, 0x64, 0x80, 0x4f, 0x30, 
	0x00, 0x80, 0x27, 0x30, 0x1c, 0x90, 0x27, 0x4d, 
	0x00, 0x90, 0x4d, 0x36, 0x64, 0x80, 0x4d, 0x30, 
	0x00, 0x80, 0x27, 0x30, 0x1c, 0x90, 0x4b, 0x3b, 
	0x64, 0x80, 0x4b, 0x30, 0x1c, 0x90, 0x29, 0x48, 
	0x64, 0x80, 0x29, 0x30, 0x1c, 0x90, 0x29, 0x48, 
	0x64, 0x80, 0x29, 0x30, 0x1c, 0x90, 0x29, 0x50, 
	0x64, 0x80, 0x29, 0x30, 0x1c, 0x90, 0x29, 0x4c, 
	0x64, 0x80, 0x29, 0x30, 0x81, 0x1c, 0x90, 0x29, 
	0x48, 0x64, 0x80, 0x29, 0x30, 0x81, 0x1c, 0x90, 
	0x29, 0x44, 0x64, 0x80, 0x29, 0x30, 0x81, 0x1c, 
	0x90, 0x29, 0x43, 0x64, 0x80, 0x29, 0x30, 0x81, 
	0x1c, 0x90, 0x29, 0x42, 0x64, 0x80, 0x29, 0x30, 
	0x1c, 0x90, 0x29, 0x4e, 0x64, 0x80, 0x29, 0x30, 
	0x1c, 0x90, 0x29, 0x48, 0x64, 0x80, 0x29, 0x30, 
	0x1c, 0x90, 0x29, 0x4f, 0x64, 0x80, 0x29, 0x30, 
	0x81, 0x1c, 0x90, 0x2b, 0x40, 0x00, 0x90, 0x52, 
	0x4f, 0x24, 0x80, 0x52, 0x30, 0x1c, 0x90, 0x4f, 
	0x3a, 0x24, 0x80, 0x4f, 0x30, 0x1c, 0x90, 0x52, 
	0x48, 0x24, 0x80, 0x52, 0x30, 0x1c, 0x90, 0x4f, 
	0x3c, 0x24, 0x80, 0x4f, 0x30, 0x1c, 0x90, 0x52, 
	0x43, 0x24, 0x80, 0x52, 0x30, 0x1c, 0x90, 0x4f, 
	0x3d, 0x24, 0x80, 0x4f, 0x30, 0x1c, 0x90, 0x52, 
	0x44, 0x24, 0x80, 0x52, 0x30, 0x1c, 0x90, 0x4f, 
	0x3c, 0x24, 0x80, 0x4f, 0x30, 0x1c, 0x90, 0x52, 
	0x49, 0x24, 0x80, 0x52, 0x30, 0x1c, 0x90, 0x4f, 
	0x38, 0x24, 0x80, 0x4f, 0x30, 0x1c, 0x90, 0x52, 
	0x45, 0x24, 0x80, 0x52, 0x30, 0x1c, 0x90, 0x4f, 
	0x38, 0x24, 0x80, 0x4f, 0x30, 0x1c, 0x90, 0x52, 
	0x46, 0x24, 0x80, 0x52, 0x30, 0x1c, 0x90, 0x4f, 
	0x3d, 0x24, 0x80, 0x4f, 0x30, 0x1c, 0x90, 0x52, 
	0x47, 0x24, 0x80, 0x52, 0x30, 0x1c, 0x90, 0x4f, 
	0x3a, 0x24, 0x80, 0x4f, 0x30, 0x1c, 0x90, 0x52, 
	0x43, 0x24, 0x80, 0x52, 0x30, 0x1c, 0x90, 0x4f, 
	0x3b, 0x24, 0x80, 0x4f, 0x30, 0x1c, 0x90, 0x52, 
	0x47, 0x24, 0x80, 0x52, 0x30, 0x1c, 0x90, 0x4f, 
	0x3d, 0x24, 0x80, 0x4f, 0x30, 0x1c, 0x90, 0x52, 
	0x42, 0x24, 0x80, 0x52, 0x30, 0x1c, 0x90, 0x4f, 
	0x3b, 0x24, 0x80, 0x4f, 0x30, 0x1c, 0x90, 0x52, 
	0x44, 0x24, 0x80, 0x52, 0x30, 0x1c, 0x90, 0x4f, 
	0x3a, 0x24, 0x80, 0x4f, 0x30, 0x1c, 0x90, 0x52, 
	0x45, 0x24, 0x80, 0x52, 0x30, 0x1c, 0x90, 0x4f, 
	0x37, 0x24, 0x80, 0x4f, 0x30, 0x1c, 0x90, 0x52, 
	0x42, 0x24, 0x80, 0x52, 0x30, 0x1c, 0x90, 0x4f, 
	0x3d, 0x24, 0x80, 0x4f, 0x30, 0x1c, 0x90, 0x52, 
	0x47, 0x24, 0x80, 0x52, 0x30, 0x1c, 0x90, 0x4f, 
	0x3c, 0x24, 0x80, 0x4f, 0x30, 0x1c, 0x90, 0x52, 
	0x42, 0x24, 0x80, 0x52, 0x30, 0x1c, 0x90, 0x4f, 
	0x3b, 0x24, 0x80, 0x4f, 0x30, 0x1c, 0x90, 0x52, 
	0x46, 0x24, 0x80, 0x52, 0x30, 0x1c, 0x90, 0x4f, 
	0x3c, 0x24, 0x80, 0x4f, 0x30, 0x1c, 0x90, 0x52, 
	0x44, 0x24, 0x80, 0x52, 0x30, 0x1c, 0x90, 0x4f, 
	0x41, 0x24, 0x80, 0x4f, 0x30, 0x1c, 0x90, 0x52, 
	0x49, 0x24, 0x80, 0x52, 0x30, 0x1c, 0x90, 0x4f, 
	0x3d, 0x24, 0x80, 0x4f, 0x30, 0x1c, 0x90, 0x52, 
	0x49, 0x24, 0x80, 0x52, 0x30, 0x1c, 0x90, 0x4f, 
	0x3c, 0x24, 0x80, 0x4f, 0x30, 0x1c, 0x90, 0x52, 
	0x4b, 0x24, 0x80, 0x52, 0x30, 0x1c, 0x90, 0x4f, 
	0x3c, 0x24, 0x80, 0x4f, 0x30, 0x1c, 0x90, 0x52, 
	0x45, 0x24, 0x80, 0x52, 0x30, 0x1c, 0x90, 0x4f, 
	0x3e, 0x24, 0x80, 0x4f, 0x30, 0x1c, 0x90, 0x52, 
	0x47, 0x24, 0x80, 0x52, 0x30, 0x1c, 0x90, 0x4f, 
	0x3a, 0x24, 0x80, 0x4f, 0x30, 0x1c, 0x90, 0x52, 
	0x47, 0x24, 0x80, 0x52, 0x30, 0x1c, 0x90, 0x4f, 
	0x38, 0x24, 0x80, 0x4f, 0x30, 0x1c, 0x90, 0x52, 
	0x42, 0x24, 0x80, 0x52, 0x30, 0x1c, 0x90, 0x4f, 
	0x3c, 0x24, 0x80, 0x4f, 0x30, 0x1c, 0x90, 0x52, 
	0x49, 0x24, 0x80, 0x52, 0x30, 0x1c, 0x90, 0x4f, 
	0x38, 0x24, 0x80, 0x4f, 0x30, 0x1c, 0x90, 0x52, 
	0x41, 0x24, 0x80, 0x52, 0x30, 0x1c, 0x90, 0x4f, 
	0x3c, 0x24, 0x80, 0x4f, 0x30, 0x1c, 0x90, 0x52, 
	0x42, 0x24, 0x80, 0x52, 0x30, 0x1c, 0x90, 0x4f, 
	0x3a, 0x24, 0x80, 0x4f, 0x30, 0x1c, 0x90, 0x52, 
	0x46, 0x24, 0x80, 0x52, 0x30, 0x1c, 0x90, 0x4f, 
	0x3c, 0x24, 0x80, 0x4f, 0x30, 0x1c, 0x90, 0x52, 
	0x42, 0x24, 0x80, 0x52, 0x30, 0x1c, 0x90, 0x4f, 
	0x3e, 0x24, 0x80, 0x4f, 0x30, 0x1c, 0x90, 0x52, 
	0x46, 0x24, 0x80, 0x52, 0x30, 0x1c, 0x90, 0x4f, 
	0x37, 0x24, 0x80, 0x4f, 0x30, 0x1c, 0x90, 0x52, 
	0x47, 0x24, 0x80, 0x52, 0x30, 0x1c, 0x90, 0x4f, 
	0x3b, 0x24, 0x80, 0x4f, 0x30, 0x1c, 0x90, 0x52, 
	0x3f, 0x24, 0x80, 0x52, 0x30, 0x1c, 0x90, 0x4f, 
	0x3a, 0x24, 0x80, 0x4f, 0x30, 0x1c, 0x90, 0x52, 
	0x41, 0x24, 0x80, 0x52, 0x30, 0x1c, 0x90, 0x4f, 
	0x3c, 0x24, 0x80, 0x4f, 0x30, 0x1c, 0x90, 0x52, 
	0x43, 0x24, 0x80, 0x52, 0x30, 0x1c, 0x90, 0x4f, 
	0x3d, 0x24, 0x80, 0x4f, 0x30, 0x1c, 0x90, 0x52, 
	0x43, 0x24, 0x80, 0x52, 0x30, 0x1c, 0x90, 0x4f, 
	0x3c, 0x24, 0x80, 0x4f, 0x30, 0x1c, 0x90, 0x52, 
	0x46, 0x24, 0x80, 0x52, 0x30, 0x1c, 0x90, 0x4f, 
	0x39, 0x24, 0x80, 0x4f, 0x30, 0x1c, 0x90, 0x52, 
	0x49, 0x24, 0x80, 0x52, 0x30, 0x1c, 0x90, 0x4f, 
	0x39, 0x24, 0x80, 0x4f, 0x30, 0x1c, 0x90, 0x52, 
	0x44, 0x24, 0x80, 0x52, 0x30, 0x1c, 0x90, 0x4f, 
	0x3a, 0x24, 0x80, 0x4f, 0x30, 0x1c, 0x90, 0x52, 
	0x4a, 0x24, 0x80, 0x52, 0x30, 0x1c, 0x90, 0x4f, 
	0x39, 0x24, 0x80, 0x4f, 0x30, 0x1c, 0x90, 0x52, 
	0x45, 0x24, 0x80, 0x52, 0x30, 0x1c, 0x90, 0x4f, 
	0x3b, 0x24, 0x80, 0x4f, 0x30, 0x1c, 0x90, 0x52, 
	0x46, 0x24, 0x80, 0x52, 0x30, 0x1c, 0x90, 0x4f, 
	0x39, 0x24, 0x80, 0x4f, 0x30, 0x1c, 0x90, 0x52, 
	0x47, 0x24, 0x80, 0x52, 0x30, 0x1c, 0x90, 0x4f, 
	0x3d, 0x24, 0x80, 0x4f, 0x30, 0x1c, 0x90, 0x52, 
	0x43, 0x24, 0x80, 0x52, 0x30, 0x1c, 0x90, 0x4f, 
	0x3d, 0x24, 0x80, 0x4f, 0x30, 0x1c, 0x90, 0x52, 
	0x42, 0x24, 0x80, 0x52, 0x30, 0x1c, 0x90, 0x4f, 
	0x3d, 0x24, 0x80, 0x4f, 0x30, 0x1c, 0x90, 0x52, 
	0x45, 0x24, 0x80, 0x52, 0x30, 0x1c, 0x90, 0x4f, 
	0x3b, 0x24, 0x80, 0x4f, 0x30, 0x1c, 0x90, 0x52, 
	0x42, 0x24, 0x80, 0x52, 0x30, 0x1c, 0x90, 0x4f, 
	0x3b, 0x24, 0x80, 0x4f, 0x30, 0x1c, 0x90, 0x52, 
	0x47, 0x24, 0x80, 0x52, 0x30, 0x1c, 0x90, 0x4f, 
	0x36, 0x24, 0x80, 0x2b, 0x30, 0x00, 0x80, 0x4f, 
	0x30, 0x1c, 0x90, 0x2b, 0x49, 0x00, 0x90, 0x50, 
	0x42, 0x00, 0x90, 0x44, 0x42, 0x64, 0x80, 0x44, 
	0x30, 0x00, 0x80, 0x50, 0x30, 0x00, 0x80, 0x2b, 
	0x30, 0x1c, 0x90, 0x2b, 0x4e, 0x00, 0x90, 0x4f, 
	0x3d, 0x00, 0x90, 0x43, 0x3d, 0x64, 0x80, 0x43, 
	0x30, 0x00, 0x80, 0x4f, 0x30, 0x00, 0x80, 0x2b, 
	0x30, 0x1c, 0x90, 0x2b, 0x51, 0x00, 0x90, 0x4d, 
	0x39, 0x00, 0x90, 0x41, 0x39, 0x64, 0x80, 0x41, 
	0x30, 0x00, 0x80, 0x4d, 0x30, 0x00, 0x80, 0x2b, 
	0x30, 0x1c, 0x90, 0x2b, 0x49, 0x00, 0x90, 0x4b, 
	0x3b, 0x00, 0x90, 0x3f, 0x3b, 0x64, 0x80, 0x3f, 
	0x30, 0x00, 0x80, 0x4b, 0x30, 0x00, 0x80, 0x2b, 
	0x30, 0x1c, 0x90, 0x2b, 0x4c, 0x00, 0x90, 0x4f, 
	0x44, 0x00, 0x90, 0x43, 0x44, 0x64, 0x80, 0x43, 
	0x30, 0x00, 0x80, 0x4f, 0x30, 0x00, 0x80, 0x2b, 
	0x30, 0x1c, 0x90, 0x2b, 0x51, 0x00, 0x90, 0x4d, 
	0x3e, 0x00, 0x90, 0x41, 0x3e, 0x64, 0x80, 0x41, 
	0x30, 0x00, 0x80, 0x4d, 0x30, 0x00, 0x80, 0x2b, 
	0x30, 0x1c, 0x90, 0x2b, 0x4f, 0x00, 0x90, 0x4b, 
	0x39, 0x00, 0x90, 0x3f, 0x39, 0x64, 0x80, 0x3f, 
	0x30, 0x00, 0x80, 0x4b, 0x30, 0x00, 0x80, 0x2b, 
	0x30, 0x1c, 0x90, 0x2b, 0x4f, 0x00, 0x90, 0x4a, 
	0x3c, 0x00, 0x90, 0x3e, 0x3c, 0x64, 0x80, 0x3e, 
	0x30, 0x00, 0x80, 0x4a, 0x30, 0x00, 0x80, 0x2b, 
	0x30, 0x1c, 0x90, 0x2b, 0x4f, 0x00, 0x90, 0x5b, 
	0x53, 0x81, 0x64, 0x80, 0x2b, 0x30, 0x82, 0x00, 
	0x80, 0x5b, 0x30, 0x1c, 0x90, 0x3e, 0x34, 0x83, 
	0x64, 0x80, 0x3e, 0x30, 0x1c, 0x90, 0x30, 0x42, 
	0x00, 0x90, 0x4b, 0x4a, 0x24, 0x80, 0x4b, 0x30, 
	0x1c, 0x90, 0x4d, 0x48, 0x24, 0x80, 0x30, 0x30, 
	0x00, 0x80, 0x4d, 0x30, 0x1c, 0x90, 0x30, 0x52, 
	0x00, 0x90, 0x4b, 0x3c, 0x64, 0x80, 0x4b, 0x30, 
	0x00, 0x80, 0x30, 0x30, 0x1c, 0x90, 0x30, 0x4e, 
	0x00, 0x90, 0x48, 0x37, 0x64, 0x80, 0x48, 0x30, 
	0x1c, 0x90, 0x46, 0x3b, 0x64, 0x80, 0x30, 0x30, 
	0x00, 0x80, 0x46, 0x30, 0x1c, 0x90, 0x30, 0x4e, 
	0x00, 0x90, 0x43, 0x3a, 0x81, 0x0f, 0x80, 0x43, 
	0x30, 0x00, 0x80, 0x30, 0x30, 0x1b, 0x90, 0x30, 
	0x49, 0x00, 0x90, 0x46, 0x45, 0x81, 0x10, 0x80, 
	0x46, 0x30, 0x00, 0x80, 0x30, 0x30, 0x1b, 0x90, 
	0x30, 0x4b, 0x00, 0x90, 0x48, 0x46, 0x81, 0x0f, 
	0x80, 0x48, 0x30, 0x00, 0x80, 0x30, 0x30, 0x1c, 
	0x90, 0x30, 0x4d, 0x00, 0x90, 0x60, 0x52, 0x83, 
	0x64, 0x80, 0x60, 0x30, 0x00, 0x80, 0x30, 0x30, 
	0x71, 0xff, 0x2f, 0x00, 
};

#endif
