// Imperial March (long)
{
  0x4d, 0x54, 0x68, 0x64, 0x00, 0x00, 0x00, 0x06, 0x00, 0x01, 0x00, 0x0f,
  0x00, 0xc0, 0x4d, 0x54, 0x72, 0x6b, 0x00, 0x00, 0x01, 0x55, 0x00, 0xff,
  0x58, 0x04, 0x04, 0x02, 0x18, 0x08, 0x00, 0xff, 0x51, 0x03, 0x08, 0xf9,
  0xcb, 0xe9, 0x00, 0xff, 0x51, 0x03, 0x09, 0xa3, 0x1a, 0x82, 0x00, 0xff,
  0x51, 0x03, 0x09, 0xa3, 0x1a, 0x08, 0xff, 0x51, 0x03, 0x09, 0xa3, 0x1a,
  0x70, 0xff, 0x51, 0x03, 0x09, 0xd8, 0x29, 0x08, 0xff, 0x51, 0x03, 0x09,
  0xd8, 0x29, 0x68, 0xff, 0x51, 0x03, 0x09, 0xf3, 0x8d, 0x08, 0xff, 0x51,
  0x03, 0x0a, 0x0f, 0x8c, 0x68, 0xff, 0x51, 0x03, 0x0a, 0x2c, 0x2a, 0x08,
  0xff, 0x51, 0x03, 0x0a, 0x49, 0x6d, 0x60, 0xff, 0x51, 0x03, 0x0a, 0x67,
  0x5a, 0x08, 0xff, 0x51, 0x03, 0x0a, 0x85, 0xf7, 0x58, 0xff, 0x51, 0x03,
  0x0a, 0x85, 0xf7, 0x08, 0xff, 0x51, 0x03, 0x0a, 0xc5, 0x5a, 0x58, 0xff,
  0x51, 0x03, 0x0a, 0xc5, 0x5a, 0x08, 0xff, 0x51, 0x03, 0x0a, 0xe6, 0x2d,
  0x58, 0xff, 0x51, 0x03, 0x0b, 0x07, 0xcb, 0x08, 0xff, 0x51, 0x03, 0x0b,
  0x2a, 0x3b, 0x50, 0xff, 0x51, 0x03, 0x0b, 0x4d, 0x84, 0x08, 0xff, 0x51,
  0x03, 0x0b, 0x71, 0xb0, 0x50, 0xff, 0x51, 0x03, 0x0b, 0x96, 0xc5, 0x50,
  0xff, 0x51, 0x03, 0x0b, 0xe3, 0xd4, 0x08, 0xff, 0x51, 0x03, 0x0b, 0xe3,
  0xd4, 0x40, 0xff, 0x51, 0x03, 0x0b, 0xe3, 0xd4, 0x08, 0xff, 0x51, 0x03,
  0x0c, 0x0b, 0xe1, 0x48, 0xff, 0x51, 0x03, 0x0c, 0x35, 0x00, 0x08, 0xff,
  0x51, 0x03, 0x0c, 0x5f, 0x3a, 0x40, 0xff, 0x51, 0x03, 0x0c, 0x8a, 0x9d,
  0x08, 0xff, 0x51, 0x03, 0x0c, 0x8a, 0x9d, 0x40, 0xff, 0x51, 0x03, 0x0c,
  0xe5, 0x0e, 0x08, 0xff, 0x51, 0x03, 0x0c, 0xe5, 0x0e, 0x38, 0xff, 0x51,
  0x03, 0x0d, 0x14, 0x36, 0x08, 0xff, 0x51, 0x03, 0x0d, 0x14, 0x36, 0x38,
  0xff, 0x51, 0x03, 0x0d, 0x44, 0xbd, 0x08, 0xff, 0x51, 0x03, 0x0d, 0x76,
  0xb0, 0x38, 0xff, 0x51, 0x03, 0x0d, 0xaa, 0x22, 0x08, 0xff, 0x51, 0x03,
  0x0d, 0xaa, 0x22, 0x30, 0xff, 0x51, 0x03, 0x0d, 0xaa, 0x22, 0x08, 0xff,
  0x51, 0x03, 0x0d, 0xdf, 0x22, 0x38, 0xff, 0x51, 0x03, 0x0e, 0x15, 0xc4,
  0x08, 0xff, 0x51, 0x03, 0x0e, 0x4e, 0x1c, 0x30, 0xff, 0x51, 0x03, 0x0e,
  0x4e, 0x1c, 0x08, 0xff, 0x51, 0x03, 0x09, 0x27, 0xc0, 0xa2, 0x48, 0xff,
  0x51, 0x03, 0x08, 0xcd, 0x9b, 0x8d, 0x38, 0xff, 0x51, 0x03, 0x04, 0x93,
  0xe0, 0x86, 0x00, 0xff, 0x51, 0x03, 0x09, 0x89, 0x68, 0x8e, 0xd1, 0x7f,
  0xff, 0x2f, 0x00, 0x4d, 0x54, 0x72, 0x6b, 0x00, 0x00, 0x00, 0x9a, 0x00,
  0xff, 0x01, 0x05, 0x46, 0x6c, 0x75, 0x74, 0x65, 0x02, 0xc0, 0x49, 0x00,
  0xb0, 0x12, 0x40, 0x00, 0xb0, 0x07, 0x7b, 0x00, 0xb0, 0x0a, 0x37, 0xd7,
  0x03, 0x90, 0x50, 0x55, 0x01, 0x90, 0x4c, 0x55, 0x04, 0x90, 0x55, 0x59,
  0x81, 0x20, 0x80, 0x50, 0x55, 0x03, 0x80, 0x55, 0x59, 0x05, 0x80, 0x4c,
  0x55, 0x1a, 0x90, 0x49, 0x51, 0x03, 0x90, 0x50, 0x55, 0x01, 0x90, 0x4c,
  0x59, 0x81, 0x02, 0x80, 0x50, 0x55, 0x05, 0x80, 0x4c, 0x59, 0x01, 0x80,
  0x49, 0x51, 0xa8, 0x67, 0x90, 0x48, 0x36, 0x24, 0x80, 0x48, 0x36, 0x5f,
  0x90, 0x4e, 0x45, 0x2e, 0x80, 0x4e, 0x45, 0x00, 0x90, 0x4b, 0x47, 0x39,
  0x80, 0x4b, 0x47, 0x86, 0x6a, 0x90, 0x48, 0x49, 0x04, 0x90, 0x4b, 0x49,
  0x02, 0x90, 0x4e, 0x46, 0x12, 0x80, 0x4b, 0x49, 0x02, 0x80, 0x4e, 0x46,
  0x03, 0x80, 0x48, 0x49, 0x9c, 0x0b, 0x90, 0x54, 0x56, 0x04, 0x90, 0x57,
  0x56, 0x02, 0x90, 0x5a, 0x52, 0x12, 0x80, 0x57, 0x56, 0x02, 0x80, 0x5a,
  0x52, 0x03, 0x80, 0x54, 0x56, 0x00, 0xff, 0x2f, 0x00, 0x4d, 0x54, 0x72,
  0x6b, 0x00, 0x00, 0x00, 0x80, 0x00, 0xff, 0x01, 0x08, 0x43, 0x6c, 0x61,
  0x72, 0x69, 0x6e, 0x65, 0x74, 0x06, 0xb1, 0x12, 0x00, 0x00, 0xb1, 0x07,
  0x78, 0x00, 0xb1, 0x0a, 0x37, 0x00, 0xc1, 0x47, 0xe7, 0x3a, 0xb1, 0x12,
  0x41, 0x83, 0x0f, 0x91, 0x33, 0x1c, 0x20, 0x81, 0x33, 0x1c, 0x6f, 0x91,
  0x2e, 0x13, 0x1f, 0x81, 0x2e, 0x13, 0x14, 0x91, 0x2a, 0x2e, 0x81, 0x2f,
  0xb1, 0x12, 0x00, 0x87, 0x08, 0x81, 0x2a, 0x2e, 0x95, 0x18, 0xb1, 0x12,
  0x43, 0x81, 0x28, 0x91, 0x36, 0x3e, 0x23, 0x81, 0x36, 0x3e, 0x14, 0x91,
  0x3a, 0x40, 0x81, 0x3a, 0x91, 0x2a, 0x1e, 0x27, 0x81, 0x2a, 0x1e, 0x02,
  0x91, 0x29, 0x2d, 0x3e, 0x81, 0x29, 0x2d, 0x00, 0x91, 0x28, 0x2c, 0x31,
  0x91, 0x27, 0x2b, 0x03, 0x81, 0x28, 0x2c, 0x81, 0x1c, 0x81, 0x3a, 0x40,
  0x81, 0x3b, 0xb1, 0x12, 0x00, 0x3d, 0x81, 0x27, 0x2b, 0x00, 0xff, 0x2f,
  0x00, 0x4d, 0x54, 0x72, 0x6b, 0x00, 0x00, 0x00, 0xa2, 0x00, 0xff, 0x01,
  0x07, 0x42, 0x61, 0x73, 0x73, 0x6f, 0x6f, 0x6e, 0x08, 0xb2, 0x07, 0x68,
  0x00, 0xb2, 0x12, 0x3f, 0x00, 0xb2, 0x0a, 0x46, 0x00, 0xc2, 0x46, 0xe5,
  0x78, 0xb2, 0x12, 0x41, 0x8d, 0x3e, 0x92, 0x24, 0x35, 0x01, 0x92, 0x27,
  0x31, 0x2d, 0x82, 0x27, 0x31, 0x08, 0x82, 0x24, 0x35, 0x52, 0x92, 0x2d,
  0x21, 0x05, 0x92, 0x29, 0x1f, 0x1c, 0x82, 0x29, 0x1f, 0x01, 0x82, 0x2d,
  0x21, 0x1f, 0x92, 0x2a, 0x21, 0x02, 0x92, 0x27, 0x35, 0x86, 0x12, 0x82,
  0x2a, 0x21, 0x03, 0x82, 0x27, 0x35, 0x81, 0x43, 0xb2, 0x07, 0x55, 0x82,
  0x66, 0x92, 0x45, 0x06, 0x1a, 0x82, 0x45, 0x06, 0x78, 0x92, 0x4b, 0x04,
  0x31, 0x92, 0x48, 0x09, 0x03, 0x82, 0x4b, 0x04, 0x22, 0x82, 0x48, 0x09,
  0x81, 0x50, 0xb2, 0x07, 0x64, 0x88, 0x07, 0x92, 0x2a, 0x05, 0x03, 0x92,
  0x2e, 0x05, 0x17, 0x82, 0x2a, 0x05, 0x01, 0x82, 0x2e, 0x05, 0x9c, 0x4d,
  0x92, 0x2a, 0x3d, 0x03, 0x92, 0x2e, 0x41, 0x01, 0x92, 0x27, 0x41, 0x16,
  0x82, 0x2a, 0x3d, 0x01, 0x82, 0x2e, 0x41, 0x02, 0x82, 0x27, 0x41, 0x00,
  0xff, 0x2f, 0x00, 0x4d, 0x54, 0x72, 0x6b, 0x00, 0x00, 0x01, 0x44, 0x00,
  0xff, 0x01, 0x07, 0x46, 0x72, 0x20, 0x48, 0x6f, 0x72, 0x6e, 0x0a, 0xb3,
  0x12, 0x42, 0x00, 0xb3, 0x07, 0x76, 0x00, 0xb3, 0x0a, 0x4b, 0x00, 0xc3,
  0x3c, 0xb3, 0x55, 0x93, 0x3a, 0x6e, 0x02, 0x93, 0x3e, 0x6e, 0x12, 0x83,
  0x3a, 0x6e, 0x02, 0x83, 0x3e, 0x6e, 0x09, 0x93, 0x3a, 0x6b, 0x02, 0x93,
  0x3e, 0x6b, 0x14, 0x83, 0x3a, 0x6b, 0x02, 0x83, 0x3e, 0x6b, 0x09, 0x93,
  0x3a, 0x71, 0x02, 0x93, 0x3e, 0x71, 0x13, 0x83, 0x3a, 0x71, 0x02, 0x83,
  0x3e, 0x71, 0x08, 0x93, 0x3b, 0x6e, 0x01, 0x93, 0x3f, 0x6e, 0x14, 0x83,
  0x3b, 0x6e, 0x01, 0x83, 0x3f, 0x6e, 0x0a, 0x93, 0x3b, 0x71, 0x02, 0x93,
  0x3f, 0x6e, 0x12, 0x83, 0x3b, 0x71, 0x02, 0x83, 0x3f, 0x6e, 0x0a, 0x93,
  0x3b, 0x7f, 0x01, 0x93, 0x3f, 0x6e, 0x15, 0x83, 0x3b, 0x7f, 0x01, 0x83,
  0x3f, 0x6e, 0x0a, 0x93, 0x41, 0x6e, 0x00, 0x93, 0x3d, 0x6e, 0x13, 0x83,
  0x3d, 0x6e, 0x00, 0x83, 0x41, 0x6e, 0x0c, 0x93, 0x3d, 0x6e, 0x00, 0x93,
  0x41, 0x6e, 0x14, 0x83, 0x41, 0x6e, 0x00, 0x83, 0x3d, 0x6e, 0x0a, 0x93,
  0x41, 0x6e, 0x02, 0x93, 0x3d, 0x6e, 0x10, 0x83, 0x41, 0x6e, 0x02, 0x83,
  0x3d, 0x6e, 0xb0, 0x70, 0x93, 0x3a, 0x70, 0x01, 0x93, 0x3e, 0x6e, 0x11,
  0x83, 0x3a, 0x70, 0x03, 0x83, 0x3e, 0x6e, 0x09, 0x93, 0x3a, 0x6b, 0x02,
  0x93, 0x3e, 0x6b, 0x14, 0x83, 0x3a, 0x6b, 0x02, 0x83, 0x3e, 0x6b, 0x09,
  0x93, 0x3a, 0x71, 0x02, 0x93, 0x3e, 0x71, 0x13, 0x83, 0x3a, 0x71, 0x02,
  0x83, 0x3e, 0x71, 0x08, 0x93, 0x3b, 0x6e, 0x01, 0x93, 0x3f, 0x6e, 0x14,
  0x83, 0x3b, 0x6e, 0x01, 0x83, 0x3f, 0x6e, 0x0a, 0x93, 0x3b, 0x71, 0x02,
  0x93, 0x3f, 0x6e, 0x12, 0x83, 0x3b, 0x71, 0x02, 0x83, 0x3f, 0x6e, 0x0a,
  0x93, 0x3b, 0x7f, 0x01, 0x93, 0x3f, 0x6e, 0x15, 0x83, 0x3b, 0x7f, 0x01,
  0x83, 0x3f, 0x6e, 0x0a, 0x93, 0x41, 0x6e, 0x00, 0x93, 0x3d, 0x6e, 0x13,
  0x83, 0x3d, 0x6e, 0x00, 0x83, 0x41, 0x6e, 0x0c, 0x93, 0x3d, 0x6e, 0x01,
  0x93, 0x41, 0x6e, 0x13, 0x83, 0x3d, 0x6e, 0x02, 0x83, 0x41, 0x6e, 0x0a,
  0x93, 0x3d, 0x6e, 0x01, 0x93, 0x41, 0x6e, 0x01, 0xb3, 0x12, 0x00, 0x10,
  0x83, 0x3d, 0x6e, 0x01, 0x83, 0x41, 0x6e, 0x00, 0xff, 0x2f, 0x00, 0x4d,
  0x54, 0x72, 0x6b, 0x00, 0x00, 0x07, 0x44, 0x00, 0xff, 0x01, 0x07, 0x54,
  0x72, 0x75, 0x6d, 0x70, 0x65, 0x74, 0x0c, 0xb4, 0x0a, 0x46, 0x00, 0xc4,
  0x38, 0x00, 0xb4, 0x12, 0x43, 0x00, 0xb4, 0x07, 0x76, 0x9d, 0x73, 0x94,
  0x43, 0x6e, 0x7d, 0x84, 0x43, 0x6e, 0x4c, 0x94, 0x43, 0x6e, 0x81, 0x02,
  0x84, 0x43, 0x6e, 0x44, 0x94, 0x43, 0x6e, 0x74, 0x84, 0x43, 0x6e, 0x3e,
  0x94, 0x3f, 0x75, 0x62, 0x84, 0x3f, 0x75, 0x29, 0x94, 0x46, 0x6e, 0x1d,
  0x84, 0x46, 0x6e, 0x17, 0x94, 0x43, 0x6e, 0x81, 0x19, 0x84, 0x43, 0x6e,
  0x2a, 0x94, 0x3f, 0x75, 0x54, 0x84, 0x3f, 0x75, 0x3f, 0x94, 0x46, 0x72,
  0x1d, 0x84, 0x46, 0x72, 0x15, 0x94, 0x43, 0x6e, 0x81, 0x7d, 0x84, 0x43,
  0x6e, 0x81, 0x01, 0x94, 0x4a, 0x6e, 0x81, 0x03, 0x84, 0x4a, 0x6e, 0x3b,
  0x94, 0x4a, 0x72, 0x81, 0x00, 0x84, 0x4a, 0x72, 0x44, 0x94, 0x4a, 0x6e,
  0x7f, 0x84, 0x4a, 0x6e, 0x41, 0x94, 0x4b, 0x70, 0x56, 0x84, 0x4b, 0x70,
  0x35, 0x94, 0x46, 0x6e, 0x1a, 0x84, 0x46, 0x6e, 0x18, 0x94, 0x42, 0x6e,
  0x7a, 0x84, 0x42, 0x6e, 0x42, 0x94, 0x3f, 0x6e, 0x67, 0x84, 0x3f, 0x6e,
  0x29, 0x94, 0x46, 0x74, 0x20, 0x84, 0x46, 0x74, 0x15, 0x94, 0x43, 0x6e,
  0x81, 0x6a, 0x84, 0x43, 0x6e, 0x81, 0x1b, 0x94, 0x4f, 0x6e, 0x75, 0x84,
  0x4f, 0x6e, 0x40, 0x94, 0x43, 0x74, 0x47, 0x84, 0x43, 0x74, 0x56, 0x94,
  0x43, 0x75, 0x1f, 0x84, 0x43, 0x75, 0x0e, 0x94, 0x4f, 0x71, 0x81, 0x03,
  0x84, 0x4f, 0x71, 0x3c, 0x94, 0x4e, 0x75, 0x64, 0x84, 0x4e, 0x75, 0x31,
  0x94, 0x4d, 0x6e, 0x20, 0x84, 0x4d, 0x6e, 0x0a, 0x94, 0x4c, 0x6e, 0x23,
  0x84, 0x4c, 0x6e, 0x0a, 0x94, 0x4b, 0x75, 0x1d, 0x84, 0x4b, 0x75, 0x0a,
  0x94, 0x4c, 0x6e, 0x3f, 0x84, 0x4c, 0x6e, 0x81, 0x08, 0x94, 0x44, 0x75,
  0x23, 0x84, 0x44, 0x75, 0x42, 0x94, 0x49, 0x75, 0x81, 0x10, 0x84, 0x49,
  0x75, 0x2e, 0x94, 0x48, 0x75, 0x77, 0x84, 0x48, 0x75, 0x1a, 0x94, 0x47,
  0x70, 0x22, 0x84, 0x47, 0x70, 0x11, 0x94, 0x46, 0x75, 0x23, 0x84, 0x46,
  0x75, 0x0b, 0x94, 0x45, 0x75, 0x21, 0x84, 0x45, 0x75, 0x11, 0x94, 0x46,
  0x70, 0x1c, 0x84, 0x46, 0x70, 0x81, 0x24, 0x94, 0x3f, 0x75, 0x24, 0x84,
  0x3f, 0x75, 0x38, 0x94, 0x42, 0x70, 0x81, 0x08, 0x84, 0x42, 0x70, 0x36,
  0x94, 0x3f, 0x75, 0x79, 0x84, 0x3f, 0x75, 0x1b, 0x94, 0x42, 0x6e, 0x1c,
  0x84, 0x42, 0x6e, 0x15, 0x94, 0x46, 0x6e, 0x81, 0x05, 0x84, 0x46, 0x6e,
  0x3d, 0x94, 0x43, 0x70, 0x61, 0x84, 0x43, 0x70, 0x2c, 0x94, 0x46, 0x6e,
  0x1b, 0x84, 0x46, 0x6e, 0x17, 0x94, 0x4a, 0x6e, 0x82, 0x0d, 0x84, 0x4a,
  0x6e, 0x74, 0x94, 0x4f, 0x6e, 0x75, 0x84, 0x4f, 0x6e, 0x40, 0x94, 0x43,
  0x74, 0x47, 0x84, 0x43, 0x74, 0x56, 0x94, 0x43, 0x75, 0x1f, 0x84, 0x43,
  0x75, 0x0e, 0x94, 0x4f, 0x71, 0x81, 0x03, 0x84, 0x4f, 0x71, 0x3c, 0x94,
  0x4e, 0x75, 0x64, 0x84, 0x4e, 0x75, 0x31, 0x94, 0x4d, 0x6e, 0x20, 0x84,
  0x4d, 0x6e, 0x0a, 0x94, 0x4c, 0x6e, 0x23, 0x84, 0x4c, 0x6e, 0x0a, 0x94,
  0x4b, 0x75, 0x1d, 0x84, 0x4b, 0x75, 0x0a, 0x94, 0x4c, 0x6e, 0x3f, 0x84,
  0x4c, 0x6e, 0x81, 0x08, 0x94, 0x44, 0x75, 0x23, 0x84, 0x44, 0x75, 0x42,
  0x94, 0x49, 0x75, 0x81, 0x10, 0x84, 0x49, 0x75, 0x2e, 0x94, 0x48, 0x75,
  0x77, 0x84, 0x48, 0x75, 0x1a, 0x94, 0x47, 0x70, 0x22, 0x84, 0x47, 0x70,
  0x11, 0x94, 0x46, 0x75, 0x23, 0x84, 0x46, 0x75, 0x0b, 0x94, 0x45, 0x75,
  0x21, 0x84, 0x45, 0x75, 0x11, 0x94, 0x46, 0x70, 0x1c, 0x84, 0x46, 0x70,
  0x81, 0x24, 0x94, 0x3f, 0x75, 0x24, 0x84, 0x3f, 0x75, 0x38, 0x94, 0x42,
  0x70, 0x81, 0x08, 0x84, 0x42, 0x70, 0x36, 0x94, 0x3f, 0x75, 0x79, 0x84,
  0x3f, 0x75, 0x1b, 0x94, 0x46, 0x6e, 0x1c, 0x84, 0x46, 0x6e, 0x15, 0x94,
  0x43, 0x6e, 0x81, 0x05, 0x84, 0x43, 0x6e, 0x3d, 0x94, 0x3f, 0x70, 0x61,
  0x84, 0x3f, 0x70, 0x2c, 0x94, 0x46, 0x6e, 0x1b, 0x84, 0x46, 0x6e, 0x17,
  0x94, 0x43, 0x6e, 0x82, 0x0d, 0x84, 0x43, 0x6e, 0x6a, 0xb4, 0x12, 0x00,
  0x8c, 0x00, 0xb4, 0x12, 0x41, 0xb5, 0x3e, 0x94, 0x3a, 0x64, 0x23, 0x84,
  0x3a, 0x64, 0x14, 0x94, 0x3e, 0x65, 0x84, 0x70, 0x84, 0x3e, 0x65, 0x8d,
  0x1f, 0x94, 0x3e, 0x75, 0x68, 0x84, 0x3e, 0x75, 0x82, 0x1c, 0x94, 0x3e,
  0x75, 0x56, 0x84, 0x3e, 0x75, 0x82, 0x2c, 0x94, 0x3e, 0x75, 0x4d, 0x84,
  0x3e, 0x75, 0x8c, 0x0b, 0x94, 0x3c, 0x6d, 0x00, 0x94, 0x40, 0x6c, 0x01,
  0x94, 0x44, 0x70, 0x0e, 0x84, 0x44, 0x70, 0x02, 0x84, 0x40, 0x6c, 0x01,
  0x84, 0x3c, 0x6d, 0x12, 0x94, 0x3c, 0x69, 0x00, 0x94, 0x44, 0x70, 0x00,
  0x94, 0x40, 0x62, 0x0c, 0x84, 0x44, 0x70, 0x02, 0x84, 0x40, 0x62, 0x02,
  0x84, 0x3c, 0x69, 0x0c, 0x94, 0x40, 0x64, 0x00, 0x94, 0x44, 0x62, 0x02,
  0x94, 0x3c, 0x64, 0x0d, 0x84, 0x44, 0x62, 0x02, 0x84, 0x40, 0x64, 0x02,
  0x84, 0x3c, 0x64, 0x0e, 0x94, 0x41, 0x58, 0x01, 0x94, 0x45, 0x5d, 0x01,
  0x94, 0x3d, 0x70, 0x0d, 0x84, 0x41, 0x58, 0x02, 0x84, 0x3d, 0x70, 0x00,
  0x84, 0x45, 0x5d, 0x0e, 0x94, 0x45, 0x5b, 0x00, 0x94, 0x41, 0x5b, 0x03,
  0x94, 0x3d, 0x6d, 0x0b, 0x84, 0x45, 0x5b, 0x01, 0x84, 0x3d, 0x6d, 0x01,
  0x84, 0x41, 0x5b, 0x0f, 0x94, 0x45, 0x5d, 0x00, 0x94, 0x41, 0x5d, 0x00,
  0x94, 0x3d, 0x74, 0x0e, 0x84, 0x45, 0x5d, 0x01, 0x84, 0x41, 0x5d, 0x01,
  0x84, 0x3d, 0x74, 0x15, 0x94, 0x3a, 0x69, 0x01, 0x94, 0x42, 0x75, 0x01,
  0x94, 0x3e, 0x68, 0x0c, 0x84, 0x42, 0x75, 0x02, 0x84, 0x3a, 0x69, 0x02,
  0x84, 0x3e, 0x68, 0x0d, 0x94, 0x3e, 0x56, 0x00, 0x94, 0x42, 0x6c, 0x02,
  0x94, 0x3a, 0x74, 0x0a, 0x84, 0x42, 0x6c, 0x01, 0x84, 0x3e, 0x56, 0x02,
  0x84, 0x3a, 0x74, 0x0d, 0x94, 0x3e, 0x5b, 0x01, 0x94, 0x42, 0x73, 0x02,
  0x94, 0x3a, 0x6b, 0x11, 0x84, 0x42, 0x73, 0x01, 0x84, 0x3a, 0x6b, 0x00,
  0x84, 0x3e, 0x5b, 0x6e, 0x94, 0x40, 0x67, 0x00, 0x94, 0x44, 0x75, 0x01,
  0x94, 0x3c, 0x67, 0x0e, 0x84, 0x44, 0x75, 0x01, 0x84, 0x40, 0x67, 0x02,
  0x84, 0x3c, 0x67, 0x10, 0x94, 0x44, 0x66, 0x00, 0x94, 0x40, 0x67, 0x01,
  0x94, 0x3c, 0x69, 0x0b, 0x84, 0x44, 0x66, 0x02, 0x84, 0x3c, 0x69, 0x01,
  0x84, 0x40, 0x67, 0x0c, 0x94, 0x40, 0x67, 0x00, 0x94, 0x44, 0x67, 0x02,
  0x94, 0x3c, 0x5e, 0x0c, 0x84, 0x44, 0x67, 0x02, 0x84, 0x40, 0x67, 0x02,
  0x84, 0x3c, 0x5e, 0x12, 0x94, 0x41, 0x64, 0x00, 0x94, 0x3d, 0x75, 0x01,
  0x94, 0x45, 0x65, 0x0d, 0x84, 0x45, 0x65, 0x01, 0x84, 0x41, 0x64, 0x02,
  0x84, 0x3d, 0x75, 0x0e, 0x94, 0x45, 0x62, 0x00, 0x94, 0x41, 0x5e, 0x03,
  0x94, 0x3d, 0x6d, 0x0a, 0x84, 0x45, 0x62, 0x01, 0x84, 0x41, 0x5e, 0x01,
  0x84, 0x3d, 0x6d, 0x0f, 0x94, 0x41, 0x5e, 0x01, 0x94, 0x45, 0x67, 0x00,
  0x94, 0x3d, 0x74, 0x0d, 0x84, 0x45, 0x67, 0x02, 0x84, 0x41, 0x5e, 0x01,
  0x84, 0x3d, 0x74, 0x16, 0x94, 0x3e, 0x6a, 0x00, 0x94, 0x42, 0x75, 0x02,
  0x94, 0x3a, 0x75, 0x0d, 0x84, 0x42, 0x75, 0x03, 0x84, 0x3e, 0x6a, 0x01,
  0x84, 0x3a, 0x75, 0x0c, 0x94, 0x42, 0x75, 0x01, 0x94, 0x3e, 0x5f, 0x01,
  0x94, 0x3a, 0x6a, 0x0b, 0x84, 0x42, 0x75, 0x02, 0x84, 0x3e, 0x5f, 0x05,
  0x84, 0x3a, 0x6a, 0x05, 0x94, 0x3e, 0x5c, 0x01, 0x94, 0x42, 0x74, 0x02,
  0x94, 0x3a, 0x6c, 0x11, 0x84, 0x42, 0x74, 0x01, 0x84, 0x3a, 0x6c, 0x00,
  0x84, 0x3e, 0x5c, 0x6c, 0x94, 0x40, 0x6e, 0x00, 0x94, 0x44, 0x6d, 0x01,
  0x94, 0x48, 0x71, 0x0e, 0x84, 0x48, 0x71, 0x02, 0x84, 0x44, 0x6d, 0x01,
  0x84, 0x40, 0x6e, 0x12, 0x94, 0x40, 0x6a, 0x00, 0x94, 0x48, 0x71, 0x00,
  0x94, 0x44, 0x63, 0x0c, 0x84, 0x48, 0x71, 0x02, 0x84, 0x44, 0x63, 0x02,
  0x84, 0x40, 0x6a, 0x0c, 0x94, 0x44, 0x65, 0x00, 0x94, 0x48, 0x63, 0x02,
  0x94, 0x40, 0x65, 0x0d, 0x84, 0x48, 0x63, 0x02, 0x84, 0x44, 0x65, 0x02,
  0x84, 0x40, 0x65, 0x0e, 0x94, 0x45, 0x59, 0x01, 0x94, 0x49, 0x5e, 0x01,
  0x94, 0x41, 0x71, 0x0d, 0x84, 0x45, 0x59, 0x02, 0x84, 0x41, 0x71, 0x00,
  0x84, 0x49, 0x5e, 0x0e, 0x94, 0x49, 0x5c, 0x00, 0x94, 0x45, 0x5c, 0x03,
  0x94, 0x41, 0x6e, 0x0b, 0x84, 0x49, 0x5c, 0x01, 0x84, 0x41, 0x6e, 0x01,
  0x84, 0x45, 0x5c, 0x0f, 0x94, 0x49, 0x5e, 0x00, 0x94, 0x45, 0x5e, 0x00,
  0x94, 0x41, 0x75, 0x0e, 0x84, 0x49, 0x5e, 0x01, 0x84, 0x45, 0x5e, 0x01,
  0x84, 0x41, 0x75, 0x15, 0x94, 0x3e, 0x6a, 0x01, 0x94, 0x46, 0x75, 0x01,
  0x94, 0x42, 0x69, 0x0c, 0x84, 0x46, 0x75, 0x02, 0x84, 0x3e, 0x6a, 0x02,
  0x84, 0x42, 0x69, 0x0d, 0x94, 0x42, 0x57, 0x00, 0x94, 0x46, 0x6d, 0x02,
  0x94, 0x3e, 0x75, 0x0a, 0x84, 0x46, 0x6d, 0x01, 0x84, 0x42, 0x57, 0x02,
  0x84, 0x3e, 0x75, 0x0d, 0x94, 0x42, 0x5c, 0x01, 0x94, 0x46, 0x74, 0x02,
  0x94, 0x3e, 0x6c, 0x11, 0x84, 0x46, 0x74, 0x01, 0x84, 0x3e, 0x6c, 0x00,
  0x84, 0x42, 0x5c, 0x6e, 0x94, 0x44, 0x68, 0x00, 0x94, 0x48, 0x75, 0x01,
  0x94, 0x40, 0x68, 0x11, 0x84, 0x48, 0x75, 0x02, 0x84, 0x44, 0x68, 0x01,
  0x84, 0x40, 0x68, 0x0d, 0x94, 0x48, 0x67, 0x00, 0x94, 0x44, 0x68, 0x01,
  0x94, 0x40, 0x6a, 0x0e, 0x84, 0x48, 0x67, 0x02, 0x84, 0x40, 0x6a, 0x01,
  0x84, 0x44, 0x68, 0x09, 0x94, 0x44, 0x68, 0x00, 0x94, 0x48, 0x68, 0x02,
  0x94, 0x40, 0x5f, 0x0f, 0x84, 0x48, 0x68, 0x02, 0x84, 0x44, 0x68, 0x02,
  0x84, 0x40, 0x5f, 0x0f, 0x94, 0x45, 0x66, 0x00, 0x94, 0x41, 0x75, 0x01,
  0x94, 0x49, 0x67, 0x0f, 0x84, 0x49, 0x67, 0x01, 0x84, 0x45, 0x66, 0x03,
  0x84, 0x41, 0x75, 0x0b, 0x94, 0x49, 0x64, 0x00, 0x94, 0x45, 0x60, 0x03,
  0x94, 0x41, 0x6f, 0x0d, 0x84, 0x49, 0x64, 0x01, 0x84, 0x45, 0x60, 0x01,
  0x84, 0x41, 0x6f, 0x0c, 0x94, 0x45, 0x60, 0x01, 0x94, 0x49, 0x69, 0x00,
  0x94, 0x41, 0x75, 0x10, 0x84, 0x49, 0x69, 0x02, 0x84, 0x45, 0x60, 0x01,
  0x84, 0x41, 0x75, 0x13, 0x94, 0x42, 0x6b, 0x00, 0x94, 0x46, 0x75, 0x02,
  0x94, 0x3e, 0x75, 0x0f, 0x84, 0x46, 0x75, 0x05, 0x84, 0x3e, 0x75, 0x00,
  0x84, 0x42, 0x6b, 0x09, 0x94, 0x46, 0x75, 0x01, 0x94, 0x42, 0x60, 0x01,
  0x94, 0x3e, 0x6b, 0x0e, 0x84, 0x46, 0x75, 0x02, 0x84, 0x42, 0x60, 0x05,
  0x84, 0x3e, 0x6b, 0x05, 0x94, 0x42, 0x69, 0x00, 0x94, 0x46, 0x73, 0x01,
  0x94, 0x3e, 0x75, 0x13, 0x84, 0x46, 0x73, 0x02, 0x84, 0x3e, 0x75, 0x02,
  0x84, 0x42, 0x69, 0x15, 0x94, 0x43, 0x72, 0x00, 0x94, 0x48, 0x75, 0x02,
  0x94, 0x3c, 0x6f, 0x4e, 0x84, 0x48, 0x75, 0x00, 0x84, 0x43, 0x72, 0x02,
  0x84, 0x3c, 0x6f, 0x67, 0x94, 0x43, 0x75, 0x00, 0x94, 0x3c, 0x73, 0x01,
  0x94, 0x48, 0x73, 0x27, 0x84, 0x48, 0x73, 0x01, 0x84, 0x43, 0x75, 0x05,
  0x84, 0x3c, 0x73, 0x35, 0x94, 0x48, 0x75, 0x02, 0x94, 0x43, 0x6d, 0x01,
  0x94, 0x3c, 0x75, 0x4d, 0x84, 0x48, 0x75, 0x02, 0x84, 0x43, 0x6d, 0x01,
  0x84, 0x3c, 0x75, 0x67, 0x94, 0x43, 0x75, 0x02, 0x94, 0x48, 0x75, 0x01,
  0x94, 0x3c, 0x74, 0x4d, 0x84, 0x43, 0x75, 0x02, 0x84, 0x48, 0x75, 0x01,
  0x84, 0x3c, 0x74, 0x6a, 0x94, 0x3c, 0x75, 0x00, 0x94, 0x43, 0x75, 0x00,
  0x94, 0x48, 0x75, 0x50, 0x84, 0x48, 0x75, 0x00, 0x84, 0x43, 0x75, 0x00,
  0x84, 0x3c, 0x75, 0x70, 0x94, 0x48, 0x75, 0x00, 0x94, 0x43, 0x75, 0x00,
  0x94, 0x3c, 0x75, 0x50, 0x84, 0x3c, 0x75, 0x00, 0x84, 0x43, 0x75, 0x00,
  0x84, 0x48, 0x75, 0x73, 0x94, 0x43, 0x75, 0x02, 0x94, 0x48, 0x75, 0x01,
  0x94, 0x3c, 0x74, 0x4d, 0x84, 0x43, 0x75, 0x02, 0x84, 0x48, 0x75, 0x01,
  0x84, 0x3c, 0x74, 0x70, 0x94, 0x43, 0x75, 0x00, 0x94, 0x3c, 0x75, 0x01,
  0x94, 0x48, 0x75, 0x27, 0x84, 0x48, 0x75, 0x01, 0x84, 0x43, 0x75, 0x05,
  0x84, 0x3c, 0x75, 0x35, 0x94, 0x48, 0x75, 0x02, 0x94, 0x43, 0x70, 0x01,
  0x94, 0x3c, 0x75, 0x4d, 0x84, 0x48, 0x75, 0x02, 0x84, 0x43, 0x70, 0x01,
  0x84, 0x3c, 0x75, 0x67, 0x94, 0x43, 0x75, 0x02, 0x94, 0x48, 0x75, 0x01,
  0x94, 0x3c, 0x75, 0x4d, 0x84, 0x43, 0x75, 0x02, 0x84, 0x48, 0x75, 0x01,
  0x84, 0x3c, 0x75, 0x6a, 0x94, 0x3c, 0x75, 0x00, 0x94, 0x43, 0x75, 0x00,
  0x94, 0x48, 0x75, 0x50, 0x84, 0x48, 0x75, 0x00, 0x84, 0x43, 0x75, 0x00,
  0x84, 0x3c, 0x75, 0x70, 0x94, 0x48, 0x75, 0x00, 0x94, 0x43, 0x75, 0x00,
  0x94, 0x3c, 0x75, 0x50, 0x84, 0x3c, 0x75, 0x00, 0x84, 0x43, 0x75, 0x00,
  0x84, 0x48, 0x75, 0x73, 0x94, 0x43, 0x75, 0x02, 0x94, 0x48, 0x75, 0x01,
  0x94, 0x3c, 0x75, 0x4d, 0x84, 0x43, 0x75, 0x02, 0x84, 0x48, 0x75, 0x01,
  0x84, 0x3c, 0x75, 0x6a, 0x94, 0x48, 0x75, 0x00, 0x94, 0x43, 0x75, 0x00,
  0x94, 0x3c, 0x75, 0x25, 0x84, 0x48, 0x75, 0x01, 0x84, 0x43, 0x75, 0x04,
  0x84, 0x3c, 0x75, 0x3c, 0x94, 0x48, 0x75, 0x00, 0x94, 0x43, 0x75, 0x00,
  0x94, 0x3c, 0x75, 0x2e, 0x84, 0x43, 0x75, 0x01, 0x84, 0x48, 0x75, 0x08,
  0x84, 0x3c, 0x75, 0x00, 0xff, 0x2f, 0x00, 0x4d, 0x54, 0x72, 0x6b, 0x00,
  0x00, 0x07, 0xc8, 0x00, 0xff, 0x01, 0x08, 0x54, 0x72, 0x6f, 0x6d, 0x62,
  0x6f, 0x6e, 0x65, 0x0e, 0xc5, 0x39, 0x00, 0xb5, 0x12, 0x42, 0x00, 0xb5,
  0x07, 0x70, 0x00, 0xb5, 0x0a, 0x5a, 0x9d, 0x7e, 0x95, 0x37, 0x75, 0x6c,
  0x85, 0x37, 0x75, 0x4f, 0x95, 0x37, 0x75, 0x76, 0x85, 0x37, 0x75, 0x4c,
  0x95, 0x37, 0x75, 0x78, 0x85, 0x37, 0x75, 0x42, 0x95, 0x33, 0x75, 0x5e,
  0x85, 0x33, 0x75, 0x34, 0x95, 0x3a, 0x75, 0x17, 0x85, 0x3a, 0x75, 0x1a,
  0x95, 0x37, 0x6d, 0x81, 0x08, 0x85, 0x37, 0x6d, 0x32, 0x95, 0x33, 0x75,
  0x5e, 0x85, 0x33, 0x75, 0x37, 0x95, 0x3a, 0x6d, 0x1c, 0x85, 0x3a, 0x6d,
  0x11, 0x95, 0x37, 0x6d, 0x81, 0x74, 0x85, 0x37, 0x6d, 0x81, 0x0a, 0x95,
  0x3e, 0x75, 0x7b, 0x85, 0x3e, 0x75, 0x47, 0x95, 0x3e, 0x75, 0x79, 0x85,
  0x3e, 0x75, 0x44, 0x95, 0x3e, 0x6d, 0x7e, 0x85, 0x3e, 0x6d, 0x49, 0x95,
  0x3f, 0x75, 0x54, 0x85, 0x3f, 0x75, 0x36, 0x95, 0x3a, 0x75, 0x1f, 0x85,
  0x3a, 0x75, 0x17, 0x95, 0x36, 0x6d, 0x81, 0x08, 0x85, 0x36, 0x6d, 0x33,
  0x95, 0x33, 0x75, 0x51, 0x85, 0x33, 0x75, 0x3a, 0x95, 0x3a, 0x75, 0x1c,
  0x85, 0x3a, 0x75, 0x1a, 0x95, 0x37, 0x6d, 0x81, 0x6a, 0x85, 0x37, 0x6d,
  0x81, 0x12, 0x95, 0x43, 0x75, 0x81, 0x15, 0x85, 0x43, 0x75, 0x2d, 0x95,
  0x37, 0x6d, 0x61, 0x85, 0x37, 0x6d, 0x35, 0x95, 0x37, 0x75, 0x26, 0x85,
  0x37, 0x75, 0x0b, 0x95, 0x43, 0x73, 0x79, 0x85, 0x43, 0x73, 0x36, 0x95,
  0x42, 0x75, 0x68, 0x85, 0x42, 0x75, 0x34, 0x95, 0x41, 0x6d, 0x20, 0x85,
  0x41, 0x6d, 0x0a, 0x95, 0x40, 0x6d, 0x2e, 0x85, 0x40, 0x6d, 0x11, 0x95,
  0x3f, 0x70, 0x21, 0x85, 0x3f, 0x70, 0x03, 0x95, 0x40, 0x6d, 0x2b, 0x85,
  0x40, 0x6d, 0x81, 0x1a, 0x95, 0x38, 0x6a, 0x25, 0x85, 0x38, 0x6a, 0x3c,
  0x95, 0x3d, 0x6a, 0x7f, 0x85, 0x3d, 0x6a, 0x41, 0x95, 0x3c, 0x6a, 0x69,
  0x85, 0x3c, 0x6a, 0x27, 0x95, 0x3b, 0x65, 0x23, 0x85, 0x3b, 0x65, 0x0f,
  0x95, 0x3a, 0x6a, 0x25, 0x85, 0x3a, 0x6a, 0x07, 0x95, 0x39, 0x65, 0x1d,
  0x85, 0x39, 0x65, 0x14, 0x95, 0x3a, 0x6a, 0x2a, 0x85, 0x3a, 0x6a, 0x81,
  0x19, 0x95, 0x33, 0x6a, 0x20, 0x85, 0x33, 0x6a, 0x3f, 0x95, 0x36, 0x64,
  0x74, 0x85, 0x36, 0x64, 0x50, 0x95, 0x33, 0x6a, 0x6e, 0x85, 0x33, 0x6a,
  0x22, 0x95, 0x36, 0x64, 0x18, 0x85, 0x36, 0x64, 0x1d, 0x95, 0x3a, 0x65,
  0x81, 0x01, 0x85, 0x3a, 0x65, 0x36, 0x95, 0x37, 0x65, 0x6c, 0x85, 0x37,
  0x65, 0x24, 0x95, 0x3a, 0x65, 0x1a, 0x85, 0x3a, 0x65, 0x1a, 0x95, 0x3e,
  0x64, 0x81, 0x73, 0x85, 0x3e, 0x64, 0x81, 0x01, 0x95, 0x43, 0x75, 0x81,
  0x15, 0x85, 0x43, 0x75, 0x2d, 0x95, 0x37, 0x6d, 0x61, 0x85, 0x37, 0x6d,
  0x35, 0x95, 0x37, 0x75, 0x26, 0x85, 0x37, 0x75, 0x0b, 0x95, 0x43, 0x73,
  0x79, 0x85, 0x43, 0x73, 0x36, 0x95, 0x42, 0x75, 0x68, 0x85, 0x42, 0x75,
  0x34, 0x95, 0x41, 0x6d, 0x20, 0x85, 0x41, 0x6d, 0x0a, 0x95, 0x40, 0x6d,
  0x2e, 0x85, 0x40, 0x6d, 0x11, 0x95, 0x3f, 0x70, 0x21, 0x85, 0x3f, 0x70,
  0x03, 0x95, 0x40, 0x6d, 0x2b, 0x85, 0x40, 0x6d, 0x81, 0x1a, 0x95, 0x38,
  0x6a, 0x25, 0x85, 0x38, 0x6a, 0x3c, 0x95, 0x3d, 0x6a, 0x01, 0x95, 0x38,
  0x6a, 0x7e, 0x85, 0x3d, 0x6a, 0x04, 0x85, 0x38, 0x6a, 0x3d, 0x95, 0x3c,
  0x6a, 0x01, 0x95, 0x38, 0x6a, 0x56, 0x85, 0x38, 0x6a, 0x12, 0x85, 0x3c,
  0x6a, 0x27, 0x95, 0x3b, 0x65, 0x00, 0x95, 0x38, 0x6a, 0x1b, 0x85, 0x3b,
  0x65, 0x02, 0x85, 0x38, 0x6a, 0x11, 0x95, 0x3a, 0x6a, 0x03, 0x95, 0x36,
  0x6f, 0x20, 0x85, 0x36, 0x6f, 0x02, 0x85, 0x3a, 0x6a, 0x09, 0x95, 0x35,
  0x6f, 0x00, 0x95, 0x39, 0x65, 0x1d, 0x85, 0x39, 0x65, 0x04, 0x85, 0x35,
  0x6f, 0x10, 0x95, 0x3a, 0x6a, 0x02, 0x95, 0x36, 0x6f, 0x25, 0x85, 0x36,
  0x6f, 0x03, 0x85, 0x3a, 0x6a, 0x81, 0x1b, 0x95, 0x33, 0x6a, 0x20, 0x85,
  0x33, 0x6a, 0x3f, 0x95, 0x36, 0x64, 0x74, 0x85, 0x36, 0x64, 0x47, 0x95,
  0x36, 0x65, 0x03, 0x95, 0x3a, 0x65, 0x01, 0x95, 0x33, 0x6a, 0x6e, 0x85,
  0x33, 0x6a, 0x09, 0x85, 0x36, 0x65, 0x08, 0x85, 0x3a, 0x65, 0x15, 0x95,
  0x3a, 0x64, 0x18, 0x85, 0x3a, 0x64, 0x14, 0x95, 0x37, 0x65, 0x81, 0x02,
  0x85, 0x37, 0x65, 0x37, 0x95, 0x36, 0x64, 0x02, 0x95, 0x3a, 0x64, 0x01,
  0x95, 0x33, 0x65, 0x6c, 0x85, 0x33, 0x65, 0x02, 0x85, 0x36, 0x64, 0x02,
  0x85, 0x3a, 0x64, 0x2a, 0x95, 0x3a, 0x65, 0x1a, 0x85, 0x3a, 0x65, 0x10,
  0x95, 0x37, 0x64, 0x81, 0x3b, 0xb5, 0x07, 0x64, 0x37, 0x85, 0x37, 0x64,
  0x91, 0x4a, 0x95, 0x36, 0x55, 0x27, 0x85, 0x36, 0x55, 0x5b, 0x95, 0x3e,
  0x55, 0x24, 0x85, 0x3e, 0x55, 0x1c, 0x95, 0x3b, 0x55, 0x83, 0x3b, 0x85,
  0x3b, 0x55, 0x90, 0x07, 0x95, 0x3c, 0x31, 0x01, 0x95, 0x42, 0x31, 0x83,
  0x74, 0x85, 0x42, 0x31, 0x02, 0x85, 0x3c, 0x31, 0x98, 0x02, 0x95, 0x36,
  0x64, 0x23, 0x85, 0x36, 0x64, 0x12, 0x95, 0x3f, 0x48, 0x01, 0x95, 0x45,
  0x3c, 0x01, 0x95, 0x3a, 0x65, 0x84, 0x57, 0x85, 0x3a, 0x65, 0x18, 0x85,
  0x45, 0x3c, 0x0c, 0x85, 0x3f, 0x48, 0x8d, 0x11, 0x95, 0x32, 0x70, 0x03,
  0x95, 0x3e, 0x66, 0x58, 0x85, 0x3e, 0x66, 0x03, 0x85, 0x32, 0x70, 0x82,
  0x25, 0x95, 0x32, 0x68, 0x02, 0x95, 0x3e, 0x62, 0x48, 0x85, 0x3e, 0x62,
  0x06, 0x85, 0x32, 0x68, 0x82, 0x30, 0x95, 0x32, 0x75, 0x00, 0x95, 0x3e,
  0x66, 0x4a, 0x85, 0x3e, 0x66, 0x03, 0x85, 0x32, 0x75, 0x8c, 0x11, 0x95,
  0x3c, 0x6d, 0x00, 0x95, 0x40, 0x6c, 0x01, 0x95, 0x44, 0x70, 0x0e, 0x85,
  0x44, 0x70, 0x02, 0x85, 0x40, 0x6c, 0x01, 0x85, 0x3c, 0x6d, 0x12, 0x95,
  0x3c, 0x69, 0x00, 0x95, 0x44, 0x70, 0x00, 0x95, 0x40, 0x62, 0x0c, 0x85,
  0x44, 0x70, 0x02, 0x85, 0x40, 0x62, 0x02, 0x85, 0x3c, 0x69, 0x0c, 0x95,
  0x40, 0x64, 0x00, 0x95, 0x44, 0x62, 0x02, 0x95, 0x3c, 0x64, 0x0d, 0x85,
  0x44, 0x62, 0x02, 0x85, 0x40, 0x64, 0x02, 0x85, 0x3c, 0x64, 0x0e, 0x95,
  0x41, 0x58, 0x01, 0x95, 0x45, 0x5d, 0x01, 0x95, 0x3d, 0x70, 0x0d, 0x85,
  0x41, 0x58, 0x02, 0x85, 0x3d, 0x70, 0x00, 0x85, 0x45, 0x5d, 0x0e, 0x95,
  0x45, 0x5b, 0x00, 0x95, 0x41, 0x5b, 0x03, 0x95, 0x3d, 0x6d, 0x0b, 0x85,
  0x45, 0x5b, 0x01, 0x85, 0x3d, 0x6d, 0x01, 0x85, 0x41, 0x5b, 0x0f, 0x95,
  0x45, 0x5d, 0x00, 0x95, 0x41, 0x5d, 0x00, 0x95, 0x3d, 0x74, 0x0e, 0x85,
  0x45, 0x5d, 0x01, 0x85, 0x41, 0x5d, 0x01, 0x85, 0x3d, 0x74, 0x15, 0x95,
  0x3a, 0x69, 0x01, 0x95, 0x42, 0x75, 0x01, 0x95, 0x3e, 0x68, 0x0c, 0x85,
  0x42, 0x75, 0x02, 0x85, 0x3a, 0x69, 0x02, 0x85, 0x3e, 0x68, 0x0d, 0x95,
  0x3e, 0x56, 0x00, 0x95, 0x42, 0x6c, 0x02, 0x95, 0x3a, 0x74, 0x0a, 0x85,
  0x42, 0x6c, 0x01, 0x85, 0x3e, 0x56, 0x02, 0x85, 0x3a, 0x74, 0x0d, 0x95,
  0x3e, 0x5b, 0x01, 0x95, 0x42, 0x73, 0x02, 0x95, 0x3a, 0x6b, 0x11, 0x85,
  0x42, 0x73, 0x01, 0x85, 0x3a, 0x6b, 0x00, 0x85, 0x3e, 0x5b, 0x6e, 0x95,
  0x40, 0x67, 0x00, 0x95, 0x44, 0x75, 0x01, 0x95, 0x3c, 0x67, 0x0e, 0x85,
  0x44, 0x75, 0x01, 0x85, 0x40, 0x67, 0x02, 0x85, 0x3c, 0x67, 0x10, 0x95,
  0x44, 0x66, 0x00, 0x95, 0x40, 0x67, 0x01, 0x95, 0x3c, 0x69, 0x0b, 0x85,
  0x44, 0x66, 0x02, 0x85, 0x3c, 0x69, 0x01, 0x85, 0x40, 0x67, 0x0c, 0x95,
  0x40, 0x67, 0x00, 0x95, 0x44, 0x67, 0x02, 0x95, 0x3c, 0x5e, 0x0c, 0x85,
  0x44, 0x67, 0x02, 0x85, 0x40, 0x67, 0x02, 0x85, 0x3c, 0x5e, 0x12, 0x95,
  0x41, 0x64, 0x00, 0x95, 0x3d, 0x75, 0x01, 0x95, 0x45, 0x65, 0x0d, 0x85,
  0x45, 0x65, 0x01, 0x85, 0x41, 0x64, 0x02, 0x85, 0x3d, 0x75, 0x0e, 0x95,
  0x45, 0x62, 0x00, 0x95, 0x41, 0x5e, 0x03, 0x95, 0x3d, 0x6d, 0x0a, 0x85,
  0x45, 0x62, 0x01, 0x85, 0x41, 0x5e, 0x01, 0x85, 0x3d, 0x6d, 0x0f, 0x95,
  0x41, 0x5e, 0x01, 0x95, 0x45, 0x67, 0x00, 0x95, 0x3d, 0x74, 0x0d, 0x85,
  0x45, 0x67, 0x02, 0x85, 0x41, 0x5e, 0x01, 0x85, 0x3d, 0x74, 0x16, 0x95,
  0x3e, 0x6a, 0x00, 0x95, 0x42, 0x75, 0x02, 0x95, 0x3a, 0x75, 0x0d, 0x85,
  0x42, 0x75, 0x03, 0x85, 0x3e, 0x6a, 0x01, 0x85, 0x3a, 0x75, 0x0c, 0x95,
  0x42, 0x75, 0x01, 0x95, 0x3e, 0x5f, 0x01, 0x95, 0x3a, 0x6a, 0x0b, 0x85,
  0x42, 0x75, 0x02, 0x85, 0x3e, 0x5f, 0x05, 0x85, 0x3a, 0x6a, 0x81, 0x06,
  0x95, 0x3c, 0x6e, 0x00, 0x95, 0x40, 0x6d, 0x01, 0x95, 0x44, 0x71, 0x0e,
  0x85, 0x44, 0x71, 0x02, 0x85, 0x40, 0x6d, 0x01, 0x85, 0x3c, 0x6e, 0x12,
  0x95, 0x3c, 0x6a, 0x00, 0x95, 0x44, 0x71, 0x00, 0x95, 0x40, 0x63, 0x0c,
  0x85, 0x44, 0x71, 0x02, 0x85, 0x40, 0x63, 0x02, 0x85, 0x3c, 0x6a, 0x0c,
  0x95, 0x40, 0x65, 0x00, 0x95, 0x44, 0x63, 0x02, 0x95, 0x3c, 0x65, 0x0d,
  0x85, 0x44, 0x63, 0x02, 0x85, 0x40, 0x65, 0x02, 0x85, 0x3c, 0x65, 0x0e,
  0x95, 0x41, 0x59, 0x01, 0x95, 0x45, 0x5e, 0x01, 0x95, 0x3d, 0x71, 0x0d,
  0x85, 0x41, 0x59, 0x02, 0x85, 0x3d, 0x71, 0x00, 0x85, 0x45, 0x5e, 0x0e,
  0x95, 0x45, 0x5c, 0x00, 0x95, 0x41, 0x5c, 0x03, 0x95, 0x3d, 0x6e, 0x0b,
  0x85, 0x45, 0x5c, 0x01, 0x85, 0x3d, 0x6e, 0x01, 0x85, 0x41, 0x5c, 0x0f,
  0x95, 0x45, 0x5e, 0x00, 0x95, 0x41, 0x5e, 0x00, 0x95, 0x3d, 0x75, 0x0e,
  0x85, 0x45, 0x5e, 0x01, 0x85, 0x41, 0x5e, 0x01, 0x85, 0x3d, 0x75, 0x15,
  0x95, 0x3a, 0x6a, 0x01, 0x95, 0x42, 0x75, 0x01, 0x95, 0x3e, 0x69, 0x0c,
  0x85, 0x42, 0x75, 0x02, 0x85, 0x3a, 0x6a, 0x02, 0x85, 0x3e, 0x69, 0x0d,
  0x95, 0x3e, 0x57, 0x00, 0x95, 0x42, 0x6d, 0x02, 0x95, 0x3a, 0x75, 0x0a,
  0x85, 0x42, 0x6d, 0x01, 0x85, 0x3e, 0x57, 0x02, 0x85, 0x3a, 0x75, 0x0d,
  0x95, 0x3e, 0x5c, 0x01, 0x95, 0x42, 0x74, 0x02, 0x95, 0x3a, 0x6c, 0x11,
  0x85, 0x42, 0x74, 0x01, 0x85, 0x3a, 0x6c, 0x00, 0x85, 0x3e, 0x5c, 0x6e,
  0x95, 0x40, 0x68, 0x00, 0x95, 0x44, 0x75, 0x01, 0x95, 0x3c, 0x68, 0x0e,
  0x85, 0x44, 0x75, 0x01, 0x85, 0x40, 0x68, 0x02, 0x85, 0x3c, 0x68, 0x10,
  0x95, 0x44, 0x67, 0x00, 0x95, 0x40, 0x68, 0x01, 0x95, 0x3c, 0x6a, 0x0b,
  0x85, 0x44, 0x67, 0x02, 0x85, 0x3c, 0x6a, 0x01, 0x85, 0x40, 0x68, 0x0c,
  0x95, 0x40, 0x68, 0x00, 0x95, 0x44, 0x68, 0x02, 0x95, 0x3c, 0x5f, 0x0c,
  0x85, 0x44, 0x68, 0x02, 0x85, 0x40, 0x68, 0x02, 0x85, 0x3c, 0x5f, 0x12,
  0x95, 0x41, 0x66, 0x00, 0x95, 0x3d, 0x75, 0x01, 0x95, 0x45, 0x67, 0x0d,
  0x85, 0x45, 0x67, 0x01, 0x85, 0x41, 0x66, 0x02, 0x85, 0x3d, 0x75, 0x0e,
  0x95, 0x45, 0x64, 0x00, 0x95, 0x41, 0x60, 0x03, 0x95, 0x3d, 0x6f, 0x0a,
  0x85, 0x45, 0x64, 0x01, 0x85, 0x41, 0x60, 0x01, 0x85, 0x3d, 0x6f, 0x0f,
  0x95, 0x41, 0x60, 0x01, 0x95, 0x45, 0x69, 0x00, 0x95, 0x3d, 0x75, 0x0d,
  0x85, 0x45, 0x69, 0x02, 0x85, 0x41, 0x60, 0x01, 0x85, 0x3d, 0x75, 0x16,
  0x95, 0x3e, 0x6b, 0x00, 0x95, 0x42, 0x75, 0x02, 0x95, 0x3a, 0x75, 0x0d,
  0x85, 0x42, 0x75, 0x03, 0x85, 0x3e, 0x6b, 0x01, 0x85, 0x3a, 0x75, 0x0c,
  0x95, 0x42, 0x75, 0x01, 0x95, 0x3e, 0x60, 0x01, 0x95, 0x3a, 0x6b, 0x0b,
  0x85, 0x42, 0x75, 0x02, 0x85, 0x3e, 0x60, 0x05, 0x85, 0x3a, 0x6b, 0x08,
  0x95, 0x3e, 0x69, 0x00, 0x95, 0x42, 0x73, 0x01, 0x95, 0x3a, 0x75, 0x10,
  0x85, 0x42, 0x73, 0x01, 0x85, 0x3a, 0x75, 0x02, 0x85, 0x3e, 0x69, 0x12,
  0x95, 0x36, 0x75, 0x04, 0x95, 0x31, 0x75, 0x00, 0x95, 0x2a, 0x74, 0x4c,
  0x85, 0x36, 0x75, 0x04, 0x85, 0x2a, 0x74, 0x00, 0x85, 0x31, 0x75, 0x70,
  0x95, 0x36, 0x75, 0x02, 0x95, 0x31, 0x75, 0x01, 0x95, 0x2a, 0x6e, 0x28,
  0x85, 0x2a, 0x6e, 0x00, 0x85, 0x31, 0x75, 0x03, 0x85, 0x36, 0x75, 0x2d,
  0x95, 0x36, 0x75, 0x00, 0x95, 0x31, 0x75, 0x01, 0x95, 0x2a, 0x6e, 0x4f,
  0x85, 0x31, 0x75, 0x00, 0x85, 0x36, 0x75, 0x01, 0x85, 0x2a, 0x6e, 0x70,
  0x95, 0x36, 0x75, 0x03, 0x95, 0x31, 0x75, 0x02, 0x95, 0x2a, 0x70, 0x4b,
  0x85, 0x36, 0x75, 0x03, 0x85, 0x31, 0x75, 0x02, 0x85, 0x2a, 0x70, 0x65,
  0x95, 0x36, 0x75, 0x02, 0x95, 0x31, 0x75, 0x03, 0x95, 0x2a, 0x75, 0x4b,
  0x85, 0x36, 0x75, 0x02, 0x85, 0x31, 0x75, 0x03, 0x85, 0x2a, 0x75, 0x6d,
  0x95, 0x36, 0x75, 0x03, 0x95, 0x31, 0x75, 0x00, 0x95, 0x2a, 0x75, 0x4d,
  0x85, 0x36, 0x75, 0x03, 0x85, 0x2a, 0x75, 0x00, 0x85, 0x31, 0x75, 0x71,
  0x95, 0x36, 0x75, 0x03, 0x95, 0x31, 0x75, 0x02, 0x95, 0x2a, 0x70, 0x4b,
  0x85, 0x36, 0x75, 0x03, 0x85, 0x31, 0x75, 0x02, 0x85, 0x2a, 0x70, 0x6f,
  0x95, 0x36, 0x75, 0x02, 0x95, 0x31, 0x75, 0x01, 0x95, 0x2a, 0x71, 0x28,
  0x85, 0x2a, 0x71, 0x00, 0x85, 0x31, 0x75, 0x03, 0x85, 0x36, 0x75, 0x2d,
  0x95, 0x36, 0x75, 0x00, 0x95, 0x31, 0x75, 0x01, 0x95, 0x2a, 0x71, 0x4f,
  0x85, 0x31, 0x75, 0x00, 0x85, 0x36, 0x75, 0x01, 0x85, 0x2a, 0x71, 0x70,
  0x95, 0x36, 0x75, 0x03, 0x95, 0x31, 0x75, 0x02, 0x95, 0x2a, 0x71, 0x4b,
  0x85, 0x36, 0x75, 0x03, 0x85, 0x31, 0x75, 0x02, 0x85, 0x2a, 0x71, 0x65,
  0x95, 0x36, 0x75, 0x02, 0x95, 0x31, 0x75, 0x03, 0x95, 0x2a, 0x75, 0x4b,
  0x85, 0x36, 0x75, 0x02, 0x85, 0x31, 0x75, 0x03, 0x85, 0x2a, 0x75, 0x6d,
  0x95, 0x36, 0x75, 0x03, 0x95, 0x31, 0x75, 0x00, 0x95, 0x2a, 0x75, 0x4d,
  0x85, 0x36, 0x75, 0x03, 0x85, 0x2a, 0x75, 0x00, 0x85, 0x31, 0x75, 0x71,
  0x95, 0x36, 0x75, 0x03, 0x95, 0x31, 0x75, 0x02, 0x95, 0x2a, 0x72, 0x4b,
  0x85, 0x36, 0x75, 0x03, 0x85, 0x31, 0x75, 0x02, 0x85, 0x2a, 0x72, 0x61,
  0x95, 0x36, 0x75, 0x01, 0x95, 0x31, 0x75, 0x00, 0x95, 0x2a, 0x75, 0x23,
  0x85, 0x2a, 0x75, 0x02, 0x85, 0x31, 0x75, 0x00, 0x85, 0x36, 0x75, 0x3c,
  0x95, 0x36, 0x75, 0x01, 0x95, 0x31, 0x75, 0x00, 0x95, 0x2a, 0x75, 0x2f,
  0x85, 0x2a, 0x75, 0x04, 0x85, 0x36, 0x75, 0x05, 0x85, 0x31, 0x75, 0x00,
  0xff, 0x2f, 0x00, 0x4d, 0x54, 0x72, 0x6b, 0x00, 0x00, 0x06, 0x15, 0x00,
  0xff, 0x01, 0x07, 0x54, 0x69, 0x6d, 0x70, 0x61, 0x6e, 0x69, 0x10, 0xb6,
  0x12, 0x40, 0x00, 0xb6, 0x07, 0x64, 0x00, 0xb6, 0x0a, 0x2d, 0x00, 0xc6,
  0x2f, 0x8a, 0x29, 0x96, 0x27, 0x60, 0x14, 0x86, 0x27, 0x60, 0x0d, 0x96,
  0x27, 0x50, 0x14, 0x86, 0x27, 0x50, 0x0f, 0x96, 0x27, 0x56, 0x17, 0x86,
  0x27, 0x56, 0x06, 0x96, 0x27, 0x6c, 0x14, 0x86, 0x27, 0x6c, 0x85, 0x12,
  0x96, 0x27, 0x62, 0x15, 0x86, 0x27, 0x62, 0x0b, 0x96, 0x27, 0x5a, 0x14,
  0x86, 0x27, 0x5a, 0x0f, 0x96, 0x27, 0x6c, 0x17, 0x86, 0x27, 0x6c, 0x09,
  0x96, 0x27, 0x5d, 0x14, 0x86, 0x27, 0x5d, 0x85, 0x05, 0x96, 0x27, 0x60,
  0x16, 0x86, 0x27, 0x60, 0x09, 0x96, 0x27, 0x5d, 0x13, 0x86, 0x27, 0x5d,
  0x12, 0x96, 0x27, 0x69, 0x14, 0x86, 0x27, 0x69, 0x0f, 0x96, 0x27, 0x65,
  0x14, 0x86, 0x27, 0x65, 0x85, 0x07, 0x96, 0x27, 0x6c, 0x15, 0x86, 0x27,
  0x6c, 0x11, 0x96, 0x27, 0x5f, 0x11, 0x86, 0x27, 0x5f, 0x16, 0x96, 0x27,
  0x68, 0x11, 0x86, 0x27, 0x68, 0x0a, 0x96, 0x27, 0x5d, 0x14, 0x86, 0x27,
  0x5d, 0x84, 0x7f, 0x96, 0x27, 0x78, 0x17, 0x86, 0x27, 0x78, 0x11, 0x96,
  0x27, 0x5a, 0x11, 0x86, 0x27, 0x5a, 0x11, 0x96, 0x27, 0x76, 0x14, 0x86,
  0x27, 0x76, 0x0b, 0x96, 0x27, 0x5a, 0x11, 0x86, 0x27, 0x5a, 0x85, 0x08,
  0x96, 0x27, 0x78, 0x15, 0x86, 0x27, 0x78, 0x0b, 0x96, 0x27, 0x5d, 0x15,
  0x86, 0x27, 0x5d, 0x10, 0x96, 0x27, 0x76, 0x14, 0x86, 0x27, 0x76, 0x0c,
  0x96, 0x27, 0x56, 0x10, 0x86, 0x27, 0x56, 0x85, 0x0c, 0x96, 0x27, 0x60,
  0x16, 0x86, 0x27, 0x60, 0x09, 0x96, 0x27, 0x5d, 0x13, 0x86, 0x27, 0x5d,
  0x12, 0x96, 0x27, 0x69, 0x14, 0x86, 0x27, 0x69, 0x0f, 0x96, 0x27, 0x65,
  0x14, 0x86, 0x27, 0x65, 0x85, 0x07, 0x96, 0x27, 0x6c, 0x15, 0x86, 0x27,
  0x6c, 0x11, 0x96, 0x27, 0x5f, 0x11, 0x86, 0x27, 0x5f, 0x16, 0x96, 0x27,
  0x68, 0x11, 0x86, 0x27, 0x68, 0x0a, 0x96, 0x27, 0x5d, 0x14, 0x86, 0x27,
  0x5d, 0x85, 0x0f, 0x96, 0x2b, 0x78, 0x17, 0x86, 0x2b, 0x78, 0x11, 0x96,
  0x2b, 0x5a, 0x11, 0x86, 0x2b, 0x5a, 0x11, 0x96, 0x2b, 0x76, 0x14, 0x86,
  0x2b, 0x76, 0x0b, 0x96, 0x2b, 0x5a, 0x11, 0x86, 0x2b, 0x5a, 0x42, 0x96,
  0x31, 0x6d, 0x2f, 0x86, 0x31, 0x6d, 0x84, 0x0b, 0x96, 0x31, 0x78, 0x15,
  0x86, 0x31, 0x78, 0x0b, 0x96, 0x31, 0x5d, 0x15, 0x86, 0x31, 0x5d, 0x10,
  0x96, 0x31, 0x76, 0x14, 0x86, 0x31, 0x76, 0x0c, 0x96, 0x31, 0x56, 0x10,
  0x86, 0x31, 0x56, 0x85, 0x0d, 0x96, 0x2a, 0x78, 0x17, 0x86, 0x2a, 0x78,
  0x11, 0x96, 0x2a, 0x5a, 0x11, 0x86, 0x2a, 0x5a, 0x11, 0x96, 0x2a, 0x76,
  0x14, 0x86, 0x2a, 0x76, 0x0b, 0x96, 0x2a, 0x5a, 0x11, 0x86, 0x2a, 0x5a,
  0x85, 0x10, 0x96, 0x2b, 0x78, 0x15, 0x86, 0x2b, 0x78, 0x0b, 0x96, 0x2b,
  0x5d, 0x15, 0x86, 0x2b, 0x5d, 0x10, 0x96, 0x2b, 0x76, 0x14, 0x86, 0x2b,
  0x76, 0x0c, 0x96, 0x2b, 0x78, 0x16, 0x86, 0x2b, 0x78, 0x0a, 0x96, 0x2b,
  0x5d, 0x16, 0x86, 0x2b, 0x5d, 0x0f, 0x96, 0x2b, 0x76, 0x0f, 0x96, 0x33,
  0x6d, 0x05, 0x86, 0x2b, 0x76, 0x28, 0x86, 0x33, 0x6d, 0x84, 0x18, 0x96,
  0x2b, 0x78, 0x17, 0x86, 0x2b, 0x78, 0x11, 0x96, 0x2b, 0x5a, 0x11, 0x86,
  0x2b, 0x5a, 0x11, 0x96, 0x2b, 0x76, 0x14, 0x86, 0x2b, 0x76, 0x0b, 0x96,
  0x2b, 0x5a, 0x11, 0x86, 0x2b, 0x5a, 0x42, 0x96, 0x31, 0x6d, 0x2f, 0x86,
  0x31, 0x6d, 0x84, 0x0f, 0x96, 0x31, 0x78, 0x15, 0x86, 0x31, 0x78, 0x0b,
  0x96, 0x31, 0x5d, 0x15, 0x86, 0x31, 0x5d, 0x10, 0x96, 0x31, 0x76, 0x14,
  0x86, 0x31, 0x76, 0x0c, 0x96, 0x31, 0x56, 0x10, 0x86, 0x31, 0x56, 0x85,
  0x09, 0x96, 0x2a, 0x78, 0x17, 0x86, 0x2a, 0x78, 0x11, 0x96, 0x2a, 0x5a,
  0x11, 0x86, 0x2a, 0x5a, 0x11, 0x96, 0x2a, 0x76, 0x14, 0x86, 0x2a, 0x76,
  0x0b, 0x96, 0x2a, 0x5a, 0x11, 0x86, 0x2a, 0x5a, 0x85, 0x0a, 0x96, 0x2b,
  0x78, 0x16, 0x86, 0x2b, 0x78, 0x0a, 0x96, 0x2b, 0x5d, 0x15, 0x86, 0x2b,
  0x5d, 0x1e, 0x96, 0x2b, 0x76, 0x14, 0x86, 0x2b, 0x76, 0x0c, 0x96, 0x2b,
  0x56, 0x10, 0x86, 0x2b, 0x56, 0x38, 0xb6, 0x12, 0x43, 0x02, 0x96, 0x32,
  0x73, 0x06, 0x96, 0x32, 0x71, 0x06, 0x86, 0x32, 0x73, 0x32, 0x86, 0x32,
  0x71, 0x7e, 0x96, 0x27, 0x6c, 0x15, 0x86, 0x27, 0x6c, 0x11, 0x96, 0x27,
  0x5f, 0x11, 0x86, 0x27, 0x5f, 0x16, 0x96, 0x27, 0x68, 0x11, 0x86, 0x27,
  0x68, 0x0a, 0x96, 0x27, 0x5d, 0x14, 0x86, 0x27, 0x5d, 0x4c, 0x96, 0x32,
  0x73, 0x59, 0x86, 0x32, 0x73, 0x61, 0xb6, 0x12, 0x40, 0x96, 0x31, 0x96,
  0x2b, 0x31, 0x1c, 0x86, 0x2b, 0x31, 0x0b, 0x96, 0x2a, 0x47, 0x16, 0x86,
  0x2a, 0x47, 0x04, 0x96, 0x2b, 0x3c, 0x1c, 0x86, 0x2b, 0x3c, 0x07, 0x96,
  0x2a, 0x40, 0x16, 0x86, 0x2a, 0x40, 0x02, 0x96, 0x2b, 0x3c, 0x1f, 0x86,
  0x2b, 0x3c, 0x00, 0x96, 0x2a, 0x47, 0x16, 0x86, 0x2a, 0x47, 0x04, 0x96,
  0x2b, 0x45, 0x18, 0x86, 0x2b, 0x45, 0x04, 0x96, 0x2a, 0x47, 0x14, 0x86,
  0x2a, 0x47, 0x05, 0x96, 0x2b, 0x47, 0x16, 0x86, 0x2b, 0x47, 0x07, 0x96,
  0x2a, 0x47, 0x13, 0x86, 0x2a, 0x47, 0x04, 0x96, 0x2b, 0x50, 0x16, 0x86,
  0x2b, 0x50, 0x07, 0x96, 0x2a, 0x5a, 0x15, 0x86, 0x2a, 0x5a, 0x07, 0x96,
  0x2b, 0x5a, 0x14, 0x86, 0x2b, 0x5a, 0x06, 0x96, 0x2a, 0x67, 0x12, 0x86,
  0x2a, 0x67, 0x04, 0x96, 0x2b, 0x60, 0x15, 0x86, 0x2b, 0x60, 0x07, 0x96,
  0x2a, 0x60, 0x12, 0x86, 0x2a, 0x60, 0x08, 0x96, 0x2b, 0x53, 0x16, 0x86,
  0x2b, 0x53, 0x04, 0x96, 0x2a, 0x53, 0x14, 0x86, 0x2a, 0x53, 0x07, 0x96,
  0x2b, 0x4b, 0x17, 0x86, 0x2b, 0x4b, 0x03, 0x96, 0x2a, 0x53, 0x15, 0x86,
  0x2a, 0x53, 0x05, 0x96, 0x2b, 0x45, 0x16, 0x86, 0x2b, 0x45, 0x03, 0x96,
  0x2a, 0x4e, 0x15, 0x86, 0x2a, 0x4e, 0x04, 0x96, 0x2b, 0x42, 0x18, 0x86,
  0x2b, 0x42, 0x04, 0x96, 0x2a, 0x4b, 0x15, 0x86, 0x2a, 0x4b, 0x07, 0x96,
  0x2b, 0x3c, 0x18, 0x86, 0x2b, 0x3c, 0x02, 0x96, 0x2a, 0x4e, 0x17, 0x86,
  0x2a, 0x4e, 0x09, 0x96, 0x2b, 0x3b, 0x18, 0x86, 0x2b, 0x3b, 0x05, 0x96,
  0x2a, 0x42, 0x1b, 0x86, 0x2a, 0x42, 0x08, 0x96, 0x2b, 0x3a, 0x21, 0x86,
  0x2b, 0x3a, 0x07, 0x96, 0x2a, 0x47, 0x1a, 0x86, 0x2a, 0x47, 0x10, 0x96,
  0x2b, 0x38, 0x1e, 0x86, 0x2b, 0x38, 0x0b, 0x96, 0x2a, 0x45, 0x1a, 0x86,
  0x2a, 0x45, 0x18, 0x96, 0x2b, 0x33, 0x23, 0x86, 0x2b, 0x33, 0x99, 0x4e,
  0x96, 0x2b, 0x31, 0x1c, 0x86, 0x2b, 0x31, 0x0b, 0x96, 0x2a, 0x47, 0x16,
  0x86, 0x2a, 0x47, 0x04, 0x96, 0x2b, 0x3c, 0x1c, 0x86, 0x2b, 0x3c, 0x07,
  0x96, 0x2a, 0x40, 0x16, 0x86, 0x2a, 0x40, 0x02, 0x96, 0x2b, 0x3c, 0x1f,
  0x86, 0x2b, 0x3c, 0x00, 0x96, 0x2a, 0x47, 0x16, 0x86, 0x2a, 0x47, 0x04,
  0x96, 0x2b, 0x45, 0x18, 0x86, 0x2b, 0x45, 0x04, 0x96, 0x2a, 0x47, 0x14,
  0x86, 0x2a, 0x47, 0x05, 0x96, 0x2b, 0x47, 0x16, 0x86, 0x2b, 0x47, 0x07,
  0x96, 0x2a, 0x47, 0x13, 0x86, 0x2a, 0x47, 0x04, 0x96, 0x2b, 0x50, 0x16,
  0x86, 0x2b, 0x50, 0x07, 0x96, 0x2a, 0x5a, 0x15, 0x86, 0x2a, 0x5a, 0x07,
  0x96, 0x2b, 0x5a, 0x14, 0x86, 0x2b, 0x5a, 0x06, 0x96, 0x2a, 0x67, 0x12,
  0x86, 0x2a, 0x67, 0x04, 0x96, 0x2b, 0x60, 0x15, 0x86, 0x2b, 0x60, 0x07,
  0x96, 0x2a, 0x60, 0x12, 0x86, 0x2a, 0x60, 0x08, 0x96, 0x2b, 0x53, 0x16,
  0x86, 0x2b, 0x53, 0x04, 0x96, 0x2a, 0x53, 0x14, 0x86, 0x2a, 0x53, 0x07,
  0x96, 0x2b, 0x4b, 0x17, 0x86, 0x2b, 0x4b, 0x03, 0x96, 0x2a, 0x53, 0x15,
  0x86, 0x2a, 0x53, 0x05, 0x96, 0x2b, 0x45, 0x16, 0x86, 0x2b, 0x45, 0x03,
  0x96, 0x2a, 0x4e, 0x15, 0x86, 0x2a, 0x4e, 0x04, 0x96, 0x2b, 0x42, 0x18,
  0x86, 0x2b, 0x42, 0x04, 0x96, 0x2a, 0x4b, 0x15, 0x86, 0x2a, 0x4b, 0x07,
  0x96, 0x2b, 0x3c, 0x18, 0x86, 0x2b, 0x3c, 0x02, 0x96, 0x2a, 0x4e, 0x17,
  0x86, 0x2a, 0x4e, 0x09, 0x96, 0x2b, 0x3b, 0x18, 0x86, 0x2b, 0x3b, 0x05,
  0x96, 0x2a, 0x42, 0x1b, 0x86, 0x2a, 0x42, 0x08, 0x96, 0x2b, 0x3a, 0x21,
  0x86, 0x2b, 0x3a, 0x07, 0x96, 0x2a, 0x47, 0x1a, 0x86, 0x2a, 0x47, 0x10,
  0x96, 0x2b, 0x38, 0x1e, 0x86, 0x2b, 0x38, 0x0b, 0x96, 0x2a, 0x45, 0x1a,
  0x86, 0x2a, 0x45, 0x84, 0x48, 0x96, 0x2b, 0x33, 0x23, 0x86, 0x2b, 0x33,
  0x8b, 0x61, 0x96, 0x32, 0x74, 0x50, 0x86, 0x32, 0x74, 0x82, 0x39, 0x96,
  0x32, 0x7f, 0x49, 0x86, 0x32, 0x7f, 0x82, 0x31, 0x96, 0x32, 0x7f, 0x47,
  0x86, 0x32, 0x7f, 0x8b, 0x33, 0x96, 0x34, 0x7f, 0x4a, 0x86, 0x34, 0x7f,
  0x18, 0x96, 0x2e, 0x7e, 0x47, 0x86, 0x2e, 0x7e, 0x1a, 0x96, 0x34, 0x7f,
  0x3f, 0x86, 0x34, 0x7f, 0x23, 0x96, 0x2e, 0x7f, 0x3e, 0x86, 0x2e, 0x7f,
  0x1f, 0x96, 0x34, 0x7b, 0x3a, 0x86, 0x34, 0x7b, 0x25, 0x96, 0x2e, 0x67,
  0x41, 0x86, 0x2e, 0x67, 0x23, 0x96, 0x34, 0x7f, 0x3c, 0x86, 0x34, 0x7f,
  0x22, 0x96, 0x2e, 0x7f, 0x44, 0x86, 0x2e, 0x7f, 0x19, 0x96, 0x34, 0x7f,
  0x4a, 0x86, 0x34, 0x7f, 0x18, 0x96, 0x2e, 0x7f, 0x47, 0x86, 0x2e, 0x7f,
  0x1a, 0x96, 0x34, 0x7f, 0x3f, 0x86, 0x34, 0x7f, 0x23, 0x96, 0x2e, 0x7f,
  0x3e, 0x86, 0x2e, 0x7f, 0x1f, 0x96, 0x34, 0x7c, 0x3a, 0x86, 0x34, 0x7c,
  0x25, 0x96, 0x2e, 0x69, 0x41, 0x86, 0x2e, 0x69, 0x23, 0x96, 0x34, 0x7f,
  0x3c, 0x86, 0x34, 0x7f, 0x22, 0x96, 0x2e, 0x7f, 0x44, 0x86, 0x2e, 0x7f,
  0x1b, 0x96, 0x34, 0x7f, 0x37, 0x86, 0x34, 0x7f, 0x27, 0x96, 0x2e, 0x7d,
  0x3f, 0x86, 0x2e, 0x7d, 0x21, 0x96, 0x34, 0x7f, 0x3b, 0x86, 0x34, 0x7f,
  0x25, 0x96, 0x2e, 0x7f, 0x3f, 0x86, 0x2e, 0x7f, 0x23, 0x96, 0x34, 0x7f,
  0x3b, 0x86, 0x34, 0x7f, 0x21, 0x96, 0x2e, 0x7f, 0x3f, 0x86, 0x2e, 0x7f,
  0x24, 0x96, 0x34, 0x7f, 0x3c, 0x86, 0x34, 0x7f, 0x21, 0x96, 0x2e, 0x7f,
  0x36, 0x86, 0x2e, 0x7f, 0x2b, 0x96, 0x34, 0x7f, 0x37, 0x86, 0x34, 0x7f,
  0x27, 0x96, 0x2e, 0x7f, 0x3f, 0x86, 0x2e, 0x7f, 0x21, 0x96, 0x34, 0x7f,
  0x3a, 0x86, 0x34, 0x7f, 0x27, 0x96, 0x2e, 0x7f, 0x3f, 0x86, 0x2e, 0x7f,
  0x24, 0x96, 0x34, 0x7f, 0x3c, 0x86, 0x34, 0x7f, 0x23, 0x96, 0x34, 0x7f,
  0x3b, 0x86, 0x34, 0x7f, 0x25, 0x96, 0x2e, 0x7f, 0x3f, 0x86, 0x2e, 0x7f,
  0x23, 0x96, 0x34, 0x7f, 0x3b, 0x86, 0x34, 0x7f, 0x21, 0x96, 0x2e, 0x7f,
  0x3f, 0x86, 0x2e, 0x7f, 0x24, 0x96, 0x34, 0x7f, 0x3c, 0x86, 0x34, 0x7f,
  0x21, 0x96, 0x2e, 0x7f, 0x36, 0x86, 0x2e, 0x7f, 0x2b, 0x96, 0x34, 0x7f,
  0x37, 0x86, 0x34, 0x7f, 0x27, 0x96, 0x2e, 0x7f, 0x3f, 0x86, 0x2e, 0x7f,
  0x21, 0x96, 0x34, 0x7f, 0x3a, 0x86, 0x34, 0x7f, 0x27, 0x96, 0x2e, 0x7f,
  0x3f, 0x86, 0x2e, 0x7f, 0x24, 0x96, 0x34, 0x7f, 0x3c, 0x86, 0x34, 0x7f,
  0x20, 0x96, 0x2e, 0x7f, 0x3f, 0x86, 0x2e, 0x7f, 0x23, 0x96, 0x34, 0x7f,
  0x3b, 0x86, 0x34, 0x7f, 0x00, 0xff, 0x2f, 0x00, 0x4d, 0x54, 0x72, 0x6b,
  0x00, 0x00, 0x04, 0x8c, 0x00, 0xff, 0x01, 0x04, 0x48, 0x61, 0x72, 0x70,
  0x12, 0xb7, 0x12, 0x00, 0x00, 0xb7, 0x07, 0x78, 0x00, 0xb7, 0x0a, 0x23,
  0x00, 0xc7, 0x2e, 0xe5, 0x6e, 0xb7, 0x12, 0x41, 0x83, 0x1f, 0x97, 0x32,
  0x70, 0x82, 0x15, 0x87, 0x32, 0x70, 0x91, 0x22, 0x97, 0x31, 0x3d, 0x2a,
  0x87, 0x31, 0x3d, 0x0e, 0x97, 0x30, 0x47, 0x2a, 0x97, 0x31, 0x3f, 0x02,
  0x87, 0x30, 0x47, 0x24, 0x87, 0x31, 0x3f, 0x0a, 0x97, 0x30, 0x4e, 0x1c,
  0x97, 0x31, 0x4b, 0x03, 0x87, 0x30, 0x4e, 0x1a, 0x87, 0x31, 0x4b, 0x13,
  0x97, 0x30, 0x4e, 0x15, 0x97, 0x31, 0x4e, 0x05, 0x87, 0x30, 0x4e, 0x18,
  0x87, 0x31, 0x4e, 0x0c, 0x97, 0x30, 0x50, 0x1c, 0x97, 0x31, 0x50, 0x02,
  0x87, 0x30, 0x50, 0x1b, 0x87, 0x31, 0x50, 0x0b, 0x97, 0x30, 0x4e, 0x1c,
  0x97, 0x31, 0x55, 0x01, 0x87, 0x30, 0x4e, 0x1c, 0x87, 0x31, 0x55, 0x06,
  0x97, 0x30, 0x50, 0x1a, 0x97, 0x31, 0x50, 0x02, 0x87, 0x30, 0x50, 0x1b,
  0x87, 0x31, 0x50, 0x08, 0x97, 0x30, 0x55, 0x1d, 0x87, 0x30, 0x55, 0x02,
  0x97, 0x31, 0x55, 0x1a, 0x87, 0x31, 0x55, 0x07, 0x97, 0x30, 0x55, 0x1c,
  0x87, 0x30, 0x55, 0x03, 0x97, 0x31, 0x5e, 0x1a, 0x87, 0x31, 0x5e, 0x08,
  0x97, 0x30, 0x50, 0x1c, 0x87, 0x30, 0x50, 0x00, 0x97, 0x31, 0x59, 0x1d,
  0x87, 0x31, 0x59, 0x04, 0x97, 0x30, 0x50, 0x1e, 0x87, 0x30, 0x50, 0x01,
  0x97, 0x31, 0x55, 0x1a, 0x87, 0x31, 0x55, 0x05, 0x97, 0x30, 0x50, 0x1d,
  0x87, 0x30, 0x50, 0x03, 0x97, 0x31, 0x59, 0x19, 0x87, 0x31, 0x59, 0x06,
  0x97, 0x30, 0x50, 0x18, 0x87, 0x30, 0x50, 0x05, 0x97, 0x31, 0x59, 0x1c,
  0x87, 0x31, 0x59, 0x06, 0x97, 0x30, 0x55, 0x1a, 0x87, 0x30, 0x55, 0x04,
  0x97, 0x31, 0x5e, 0x19, 0x87, 0x31, 0x5e, 0x08, 0x97, 0x30, 0x50, 0x1a,
  0x87, 0x30, 0x50, 0x03, 0x97, 0x31, 0x5e, 0x1c, 0x87, 0x31, 0x5e, 0x07,
  0x97, 0x30, 0x50, 0x1a, 0x87, 0x30, 0x50, 0x05, 0x97, 0x31, 0x59, 0x18,
  0x87, 0x31, 0x59, 0x0a, 0x97, 0x30, 0x55, 0x1c, 0x87, 0x30, 0x55, 0x00,
  0x97, 0x31, 0x59, 0x18, 0x87, 0x31, 0x59, 0x0c, 0x97, 0x30, 0x50, 0x19,
  0x97, 0x31, 0x55, 0x01, 0x87, 0x30, 0x50, 0x18, 0x87, 0x31, 0x55, 0x0a,
  0x97, 0x30, 0x50, 0x1a, 0x87, 0x30, 0x50, 0x02, 0x97, 0x31, 0x55, 0x1a,
  0x87, 0x31, 0x55, 0x0b, 0x97, 0x30, 0x50, 0x18, 0x87, 0x30, 0x50, 0x02,
  0x97, 0x31, 0x55, 0x19, 0x87, 0x31, 0x55, 0x06, 0x97, 0x30, 0x50, 0x1b,
  0x87, 0x30, 0x50, 0x02, 0x97, 0x31, 0x55, 0x17, 0x87, 0x31, 0x55, 0x09,
  0x97, 0x30, 0x50, 0x19, 0x87, 0x30, 0x50, 0x01, 0x97, 0x31, 0x55, 0x16,
  0x87, 0x31, 0x55, 0x09, 0x97, 0x30, 0x50, 0x17, 0x97, 0x31, 0x4e, 0x03,
  0x87, 0x30, 0x50, 0x17, 0x87, 0x31, 0x4e, 0x00, 0x97, 0x3c, 0x4b, 0x0e,
  0x97, 0x3f, 0x49, 0x00, 0x97, 0x30, 0x4b, 0x17, 0x97, 0x31, 0x59, 0x03,
  0x87, 0x30, 0x4b, 0x05, 0x97, 0x42, 0x40, 0x03, 0x87, 0x3c, 0x4b, 0x0c,
  0x97, 0x45, 0x52, 0x01, 0x87, 0x31, 0x59, 0x0a, 0x97, 0x30, 0x5e, 0x03,
  0x87, 0x3f, 0x49, 0x0c, 0x87, 0x42, 0x40, 0x01, 0x87, 0x30, 0x5e, 0x20,
  0x87, 0x45, 0x52, 0x8e, 0x3e, 0x97, 0x34, 0x5e, 0x02, 0x97, 0x3d, 0x59,
  0x81, 0x25, 0x97, 0x37, 0x45, 0x03, 0x87, 0x34, 0x5e, 0x06, 0x87, 0x3d,
  0x59, 0x18, 0x97, 0x40, 0x43, 0x02, 0x97, 0x3a, 0x45, 0x82, 0x26, 0x87,
  0x3a, 0x45, 0x01, 0x87, 0x37, 0x45, 0x01, 0x87, 0x40, 0x43, 0x82, 0x4c,
  0x97, 0x28, 0x3d, 0x2a, 0x87, 0x28, 0x3d, 0x0e, 0x97, 0x27, 0x47, 0x2a,
  0x97, 0x28, 0x3f, 0x02, 0x87, 0x27, 0x47, 0x24, 0x87, 0x28, 0x3f, 0x0a,
  0x97, 0x27, 0x4e, 0x1c, 0x97, 0x28, 0x4b, 0x03, 0x87, 0x27, 0x4e, 0x1a,
  0x87, 0x28, 0x4b, 0x13, 0x97, 0x27, 0x4e, 0x15, 0x97, 0x28, 0x4e, 0x05,
  0x87, 0x27, 0x4e, 0x18, 0x87, 0x28, 0x4e, 0x0c, 0x97, 0x27, 0x50, 0x1c,
  0x97, 0x28, 0x50, 0x02, 0x87, 0x27, 0x50, 0x1b, 0x87, 0x28, 0x50, 0x0b,
  0x97, 0x27, 0x4e, 0x1c, 0x97, 0x28, 0x55, 0x01, 0x87, 0x27, 0x4e, 0x1c,
  0x87, 0x28, 0x55, 0x06, 0x97, 0x27, 0x50, 0x1a, 0x97, 0x28, 0x50, 0x02,
  0x87, 0x27, 0x50, 0x1b, 0x87, 0x28, 0x50, 0x08, 0x97, 0x27, 0x55, 0x1d,
  0x87, 0x27, 0x55, 0x02, 0x97, 0x28, 0x55, 0x1a, 0x87, 0x28, 0x55, 0x07,
  0x97, 0x27, 0x55, 0x1c, 0x87, 0x27, 0x55, 0x03, 0x97, 0x28, 0x5e, 0x1a,
  0x87, 0x28, 0x5e, 0x08, 0x97, 0x27, 0x50, 0x1c, 0x87, 0x27, 0x50, 0x00,
  0x97, 0x28, 0x59, 0x1d, 0x87, 0x28, 0x59, 0x04, 0x97, 0x27, 0x50, 0x1e,
  0x87, 0x27, 0x50, 0x01, 0x97, 0x28, 0x55, 0x1a, 0x87, 0x28, 0x55, 0x05,
  0x97, 0x27, 0x50, 0x1d, 0x87, 0x27, 0x50, 0x03, 0x97, 0x28, 0x59, 0x19,
  0x87, 0x28, 0x59, 0x06, 0x97, 0x27, 0x50, 0x18, 0x87, 0x27, 0x50, 0x05,
  0x97, 0x28, 0x59, 0x1c, 0x87, 0x28, 0x59, 0x06, 0x97, 0x27, 0x55, 0x1a,
  0x87, 0x27, 0x55, 0x04, 0x97, 0x28, 0x5e, 0x19, 0x87, 0x28, 0x5e, 0x08,
  0x97, 0x27, 0x50, 0x1a, 0x87, 0x27, 0x50, 0x03, 0x97, 0x28, 0x5e, 0x1c,
  0x87, 0x28, 0x5e, 0x07, 0x97, 0x27, 0x50, 0x1a, 0x87, 0x27, 0x50, 0x05,
  0x97, 0x28, 0x59, 0x18, 0x87, 0x28, 0x59, 0x0a, 0x97, 0x27, 0x55, 0x1c,
  0x87, 0x27, 0x55, 0x00, 0x97, 0x28, 0x59, 0x18, 0x87, 0x28, 0x59, 0x0c,
  0x97, 0x27, 0x50, 0x19, 0x97, 0x28, 0x55, 0x01, 0x87, 0x27, 0x50, 0x18,
  0x87, 0x28, 0x55, 0x0a, 0x97, 0x27, 0x50, 0x1a, 0x87, 0x27, 0x50, 0x02,
  0x97, 0x28, 0x55, 0x1a, 0x87, 0x28, 0x55, 0x0b, 0x97, 0x27, 0x50, 0x18,
  0x87, 0x27, 0x50, 0x02, 0x97, 0x28, 0x55, 0x19, 0x87, 0x28, 0x55, 0x06,
  0x97, 0x27, 0x50, 0x1b, 0x87, 0x27, 0x50, 0x02, 0x97, 0x28, 0x55, 0x17,
  0x87, 0x28, 0x55, 0x09, 0x97, 0x27, 0x50, 0x19, 0x87, 0x27, 0x50, 0x01,
  0x97, 0x28, 0x55, 0x16, 0x87, 0x28, 0x55, 0x09, 0x97, 0x27, 0x50, 0x17,
  0x97, 0x28, 0x4e, 0x03, 0x87, 0x27, 0x50, 0x17, 0x87, 0x28, 0x4e, 0x0e,
  0x97, 0x27, 0x4b, 0x17, 0x97, 0x28, 0x59, 0x03, 0x87, 0x27, 0x4b, 0x15,
  0x87, 0x28, 0x59, 0x0a, 0x97, 0x27, 0x5e, 0x10, 0x87, 0x27, 0x5e, 0x84,
  0x02, 0x97, 0x3c, 0x4e, 0x02, 0x97, 0x30, 0x4b, 0x4b, 0x87, 0x30, 0x4b,
  0x05, 0x87, 0x3c, 0x4e, 0x8b, 0x2e, 0x97, 0x3e, 0x4e, 0x02, 0x97, 0x32,
  0x4b, 0x4b, 0x87, 0x32, 0x4b, 0x05, 0x87, 0x3e, 0x4e, 0x8f, 0x32, 0x97,
  0x34, 0x50, 0x08, 0x97, 0x35, 0x37, 0x1d, 0x87, 0x34, 0x50, 0x03, 0x97,
  0x37, 0x3a, 0x11, 0x87, 0x35, 0x37, 0x04, 0x97, 0x39, 0x46, 0x0d, 0x87,
  0x37, 0x3a, 0x06, 0x97, 0x3b, 0x43, 0x09, 0x87, 0x39, 0x46, 0x0b, 0x97,
  0x3c, 0x48, 0x07, 0x87, 0x3b, 0x43, 0x05, 0x97, 0x3e, 0x49, 0x08, 0x87,
  0x3c, 0x48, 0x06, 0x97, 0x40, 0x4b, 0x08, 0x87, 0x3e, 0x49, 0x06, 0x97,
  0x41, 0x4e, 0x06, 0x87, 0x40, 0x4b, 0x08, 0x97, 0x43, 0x46, 0x06, 0x87,
  0x41, 0x4e, 0x06, 0x97, 0x45, 0x49, 0x08, 0x87, 0x43, 0x46, 0x06, 0x97,
  0x47, 0x45, 0x09, 0x87, 0x45, 0x49, 0x09, 0x97, 0x48, 0x45, 0x08, 0x87,
  0x47, 0x45, 0x0a, 0x97, 0x4a, 0x48, 0x06, 0x87, 0x48, 0x45, 0x0e, 0x97,
  0x4c, 0x55, 0x06, 0x87, 0x4a, 0x48, 0x22, 0x87, 0x4c, 0x55, 0x92, 0x55,
  0x97, 0x3e, 0x46, 0x0d, 0x87, 0x3e, 0x46, 0x04, 0x97, 0x40, 0x33, 0x16,
  0x87, 0x40, 0x33, 0x03, 0x97, 0x41, 0x3a, 0x0b, 0x87, 0x41, 0x3a, 0x06,
  0x97, 0x43, 0x3f, 0x0c, 0x87, 0x43, 0x3f, 0x04, 0x97, 0x45, 0x3f, 0x0c,
  0x87, 0x45, 0x3f, 0x02, 0x97, 0x47, 0x45, 0x0c, 0x87, 0x47, 0x45, 0x04,
  0x97, 0x48, 0x42, 0x0d, 0x87, 0x48, 0x42, 0x89, 0x12, 0x97, 0x4a, 0x46,
  0x0b, 0x87, 0x4a, 0x46, 0x03, 0x97, 0x4c, 0x45, 0x0c, 0x87, 0x4c, 0x45,
  0x02, 0x97, 0x4d, 0x45, 0x0c, 0x87, 0x4d, 0x45, 0x01, 0x97, 0x4f, 0x45,
  0x0b, 0x87, 0x4f, 0x45, 0x02, 0x97, 0x51, 0x49, 0x0e, 0x87, 0x51, 0x49,
  0x03, 0x97, 0x53, 0x3f, 0x0c, 0x87, 0x53, 0x3f, 0x03, 0x97, 0x54, 0x49,
  0x0d, 0x87, 0x54, 0x49, 0x06, 0x97, 0x56, 0x5d, 0x16, 0x87, 0x56, 0x5d,
  0x00, 0xff, 0x2f, 0x00, 0x4d, 0x54, 0x72, 0x6b, 0x00, 0x00, 0x11, 0x9f,
  0x00, 0xff, 0x01, 0x07, 0x53, 0x74, 0x72, 0x69, 0x6e, 0x67, 0x73, 0x16,
  0xb8, 0x0a, 0x28, 0x00, 0xb8, 0x12, 0x41, 0x00, 0xb8, 0x07, 0x73, 0x00,
  0xc8, 0x30, 0x00, 0xe8, 0x00, 0x40, 0x85, 0x6a, 0x98, 0x37, 0x62, 0x0e,
  0x88, 0x37, 0x62, 0x81, 0x33, 0x98, 0x37, 0x5d, 0x0d, 0x88, 0x37, 0x5d,
  0x54, 0x98, 0x37, 0x60, 0x0c, 0x88, 0x37, 0x60, 0x13, 0x98, 0x37, 0x5d,
  0x0e, 0x88, 0x37, 0x5d, 0x11, 0x98, 0x37, 0x64, 0x0e, 0x88, 0x37, 0x64,
  0x10, 0x98, 0x37, 0x5d, 0x0f, 0x88, 0x37, 0x5d, 0x58, 0x98, 0x37, 0x64,
  0x0f, 0x88, 0x37, 0x64, 0x0f, 0x98, 0x37, 0x5d, 0x10, 0x88, 0x37, 0x5d,
  0x0f, 0x98, 0x37, 0x62, 0x11, 0x88, 0x37, 0x62, 0x0d, 0x98, 0x3f, 0x64,
  0x00, 0x98, 0x3a, 0x5d, 0x10, 0x88, 0x3f, 0x64, 0x05, 0x88, 0x3a, 0x5d,
  0x0a, 0x98, 0x3f, 0x6a, 0x02, 0x98, 0x3a, 0x5d, 0x0f, 0x88, 0x3f, 0x6a,
  0x03, 0x88, 0x3a, 0x5d, 0x0b, 0x98, 0x3f, 0x61, 0x04, 0x98, 0x3a, 0x5d,
  0x0e, 0x88, 0x3f, 0x61, 0x02, 0x88, 0x3a, 0x5d, 0x0c, 0x98, 0x3f, 0x6a,
  0x02, 0x98, 0x3a, 0x5d, 0x0c, 0x88, 0x3f, 0x6a, 0x06, 0x88, 0x3a, 0x5d,
  0x4e, 0x98, 0x37, 0x6a, 0x10, 0x88, 0x37, 0x6a, 0x81, 0x30, 0x98, 0x37,
  0x5e, 0x0c, 0x88, 0x37, 0x5e, 0x56, 0x98, 0x37, 0x5d, 0x0d, 0x88, 0x37,
  0x5d, 0x13, 0x98, 0x37, 0x62, 0x12, 0x88, 0x37, 0x62, 0x0e, 0x98, 0x37,
  0x64, 0x0e, 0x88, 0x37, 0x64, 0x10, 0x98, 0x37, 0x5d, 0x12, 0x88, 0x37,
  0x5d, 0x50, 0x98, 0x37, 0x5d, 0x10, 0x88, 0x37, 0x5d, 0x11, 0x98, 0x37,
  0x69, 0x13, 0x88, 0x37, 0x69, 0x0c, 0x98, 0x37, 0x66, 0x12, 0x88, 0x37,
  0x66, 0x0c, 0x98, 0x3f, 0x60, 0x01, 0x98, 0x3a, 0x62, 0x10, 0x88, 0x3f,
  0x60, 0x03, 0x88, 0x3a, 0x62, 0x0c, 0x98, 0x3f, 0x67, 0x01, 0x98, 0x3a,
  0x5d, 0x12, 0x88, 0x3a, 0x5d, 0x00, 0x88, 0x3f, 0x67, 0x0c, 0x98, 0x3f,
  0x64, 0x02, 0x98, 0x3a, 0x5d, 0x0e, 0x88, 0x3f, 0x64, 0x04, 0x88, 0x3a,
  0x5d, 0x0c, 0x98, 0x3a, 0x5d, 0x01, 0x98, 0x3f, 0x69, 0x10, 0x88, 0x3f,
  0x69, 0x06, 0x88, 0x3a, 0x5d, 0x4c, 0x98, 0x37, 0x6a, 0x0f, 0x88, 0x37,
  0x6a, 0x81, 0x30, 0x98, 0x37, 0x6a, 0x11, 0x88, 0x37, 0x6a, 0x59, 0x98,
  0x37, 0x63, 0x0e, 0x88, 0x37, 0x63, 0x10, 0x98, 0x37, 0x62, 0x12, 0x88,
  0x37, 0x62, 0x0f, 0x98, 0x37, 0x61, 0x10, 0x88, 0x37, 0x61, 0x09, 0x98,
  0x37, 0x65, 0x13, 0x88, 0x37, 0x65, 0x4b, 0x98, 0x37, 0x66, 0x10, 0x88,
  0x37, 0x66, 0x10, 0x98, 0x37, 0x60, 0x13, 0x88, 0x37, 0x60, 0x0d, 0x98,
  0x37, 0x64, 0x12, 0x88, 0x37, 0x64, 0x0c, 0x98, 0x42, 0x5d, 0x01, 0x88,
  0x3a, 0x65, 0x00, 0x98, 0x3a, 0x65, 0x00, 0x98, 0x3a, 0x6a, 0x12, 0x88,
  0x42, 0x5d, 0x01, 0x88, 0x3a, 0x6a, 0x0b, 0x98, 0x42, 0x67, 0x01, 0x98,
  0x3a, 0x5d, 0x01, 0x98, 0x3a, 0x5d, 0x01, 0x88, 0x3a, 0x5d, 0x11, 0x88,
  0x42, 0x67, 0x01, 0x88, 0x3a, 0x5d, 0x0b, 0x98, 0x42, 0x5d, 0x02, 0x98,
  0x3a, 0x5d, 0x02, 0x98, 0x3a, 0x66, 0x02, 0x88, 0x3a, 0x5d, 0x0b, 0x88,
  0x42, 0x5d, 0x07, 0x88, 0x3a, 0x66, 0x08, 0x98, 0x3a, 0x5d, 0x00, 0x98,
  0x42, 0x6a, 0x01, 0x98, 0x3a, 0x62, 0x01, 0x88, 0x3a, 0x5d, 0x0f, 0x88,
  0x42, 0x6a, 0x01, 0x88, 0x3a, 0x62, 0x53, 0x98, 0x37, 0x6a, 0x11, 0x88,
  0x37, 0x6a, 0x81, 0x2a, 0x98, 0x37, 0x6a, 0x10, 0x88, 0x37, 0x6a, 0x60,
  0x98, 0x37, 0x68, 0x10, 0x88, 0x37, 0x68, 0x0c, 0x98, 0x37, 0x60, 0x13,
  0x88, 0x37, 0x60, 0x0a, 0x98, 0x37, 0x5f, 0x12, 0x88, 0x37, 0x5f, 0x0a,
  0x98, 0x37, 0x5e, 0x12, 0x88, 0x37, 0x5e, 0x53, 0x98, 0x37, 0x6a, 0x10,
  0x88, 0x37, 0x6a, 0x0d, 0x98, 0x37, 0x64, 0x14, 0x88, 0x37, 0x64, 0x0c,
  0x98, 0x37, 0x68, 0x11, 0x88, 0x37, 0x68, 0x09, 0x98, 0x42, 0x60, 0x00,
  0x98, 0x3f, 0x6a, 0x00, 0x98, 0x3a, 0x60, 0x12, 0x88, 0x3a, 0x60, 0x00,
  0x88, 0x42, 0x60, 0x01, 0x88, 0x3f, 0x6a, 0x0b, 0x98, 0x42, 0x68, 0x01,
  0x98, 0x3f, 0x5d, 0x01, 0x98, 0x3a, 0x5d, 0x12, 0x88, 0x3f, 0x5d, 0x00,
  0x88, 0x42, 0x68, 0x03, 0x88, 0x3a, 0x5d, 0x06, 0x98, 0x42, 0x68, 0x06,
  0x98, 0x3f, 0x61, 0x01, 0x98, 0x3a, 0x5d, 0x0c, 0x88, 0x42, 0x68, 0x06,
  0x88, 0x3a, 0x5d, 0x00, 0x88, 0x3f, 0x61, 0x09, 0x98, 0x42, 0x68, 0x01,
  0x98, 0x3f, 0x62, 0x02, 0x98, 0x3a, 0x5d, 0x0d, 0x88, 0x42, 0x68, 0x08,
  0x88, 0x3a, 0x5d, 0x00, 0x88, 0x3f, 0x62, 0x4d, 0x98, 0x37, 0x60, 0x10,
  0x88, 0x37, 0x60, 0x81, 0x2d, 0x98, 0x37, 0x6a, 0x13, 0x88, 0x37, 0x6a,
  0x58, 0x98, 0x37, 0x60, 0x0f, 0x88, 0x37, 0x60, 0x0e, 0x98, 0x37, 0x5d,
  0x12, 0x88, 0x37, 0x5d, 0x0e, 0x98, 0x37, 0x5e, 0x12, 0x88, 0x37, 0x5e,
  0x07, 0x98, 0x37, 0x66, 0x15, 0x88, 0x37, 0x66, 0x50, 0x98, 0x37, 0x68,
  0x0f, 0x88, 0x37, 0x68, 0x0f, 0x98, 0x37, 0x60, 0x12, 0x88, 0x37, 0x60,
  0x0f, 0x98, 0x37, 0x6a, 0x11, 0x88, 0x37, 0x6a, 0x0a, 0x98, 0x3f, 0x6a,
  0x02, 0x98, 0x37, 0x60, 0x12, 0x88, 0x37, 0x60, 0x02, 0x88, 0x3f, 0x6a,
  0x0c, 0x98, 0x37, 0x6a, 0x01, 0x98, 0x3f, 0x5d, 0x11, 0x88, 0x3f, 0x5d,
  0x00, 0x88, 0x37, 0x6a, 0x0a, 0x98, 0x37, 0x68, 0x04, 0x98, 0x3f, 0x5d,
  0x0b, 0x88, 0x37, 0x68, 0x07, 0x88, 0x3f, 0x5d, 0x0c, 0x98, 0x37, 0x6a,
  0x01, 0x98, 0x3f, 0x5d, 0x0e, 0x88, 0x37, 0x6a, 0x07, 0x88, 0x3f, 0x5d,
  0x52, 0x98, 0x37, 0x6a, 0x0f, 0x88, 0x37, 0x6a, 0x81, 0x2f, 0x98, 0x37,
  0x6a, 0x0e, 0x88, 0x37, 0x6a, 0x56, 0x98, 0x37, 0x6a, 0x0e, 0x88, 0x37,
  0x6a, 0x0c, 0x98, 0x37, 0x5f, 0x11, 0x88, 0x37, 0x5f, 0x0f, 0x98, 0x37,
  0x63, 0x12, 0x88, 0x37, 0x63, 0x06, 0x98, 0x37, 0x6a, 0x14, 0x88, 0x37,
  0x6a, 0x57, 0x98, 0x37, 0x6a, 0x0f, 0x88, 0x37, 0x6a, 0x11, 0x98, 0x37,
  0x5d, 0x11, 0x88, 0x37, 0x5d, 0x0b, 0x98, 0x37, 0x60, 0x13, 0x88, 0x37,
  0x60, 0x09, 0x98, 0x37, 0x62, 0x00, 0x98, 0x3a, 0x6a, 0x12, 0x88, 0x37,
  0x62, 0x01, 0x88, 0x3a, 0x6a, 0x0e, 0x98, 0x3a, 0x5d, 0x01, 0x98, 0x37,
  0x5e, 0x12, 0x88, 0x37, 0x5e, 0x00, 0x88, 0x3a, 0x5d, 0x06, 0x98, 0x37,
  0x6a, 0x05, 0x98, 0x3a, 0x62, 0x0d, 0x88, 0x37, 0x6a, 0x07, 0x88, 0x3a,
  0x62, 0x0b, 0x98, 0x3a, 0x5e, 0x01, 0x98, 0x37, 0x6a, 0x10, 0x88, 0x37,
  0x6a, 0x04, 0x88, 0x3a, 0x5e, 0x52, 0x98, 0x37, 0x6a, 0x0f, 0x88, 0x37,
  0x6a, 0x81, 0x30, 0x98, 0x37, 0x6a, 0x11, 0x88, 0x37, 0x6a, 0x59, 0x98,
  0x37, 0x63, 0x0e, 0x88, 0x37, 0x63, 0x10, 0x98, 0x37, 0x62, 0x12, 0x88,
  0x37, 0x62, 0x0f, 0x98, 0x37, 0x61, 0x10, 0x88, 0x37, 0x61, 0x09, 0x98,
  0x37, 0x65, 0x13, 0x88, 0x37, 0x65, 0x4b, 0x98, 0x37, 0x66, 0x10, 0x88,
  0x37, 0x66, 0x10, 0x98, 0x37, 0x60, 0x13, 0x88, 0x37, 0x60, 0x0d, 0x98,
  0x37, 0x64, 0x12, 0x88, 0x37, 0x64, 0x0c, 0x98, 0x42, 0x5d, 0x01, 0x88,
  0x3a, 0x65, 0x00, 0x98, 0x3a, 0x65, 0x00, 0x98, 0x3a, 0x6a, 0x12, 0x88,
  0x42, 0x5d, 0x01, 0x88, 0x3a, 0x6a, 0x0b, 0x98, 0x42, 0x67, 0x01, 0x98,
  0x3a, 0x5d, 0x01, 0x98, 0x3a, 0x5d, 0x01, 0x88, 0x3a, 0x5d, 0x11, 0x88,
  0x42, 0x67, 0x01, 0x88, 0x3a, 0x5d, 0x0b, 0x98, 0x42, 0x5d, 0x02, 0x88,
  0x3a, 0x5d, 0x00, 0x98, 0x3a, 0x5d, 0x00, 0x98, 0x3a, 0x66, 0x0f, 0x88,
  0x42, 0x5d, 0x05, 0x88, 0x3a, 0x66, 0x0a, 0x98, 0x3a, 0x5d, 0x00, 0x98,
  0x42, 0x6a, 0x01, 0x98, 0x3a, 0x62, 0x01, 0x88, 0x3a, 0x5d, 0x0f, 0x88,
  0x42, 0x6a, 0x01, 0x88, 0x3a, 0x62, 0x53, 0x98, 0x3f, 0x6a, 0x02, 0x98,
  0x3a, 0x5d, 0x0f, 0x88, 0x3f, 0x6a, 0x11, 0x88, 0x3a, 0x5d, 0x81, 0x19,
  0x98, 0x3f, 0x6a, 0x04, 0x98, 0x3f, 0x5d, 0x04, 0x88, 0x3f, 0x6a, 0x08,
  0x88, 0x3f, 0x5d, 0x60, 0x98, 0x3f, 0x68, 0x10, 0x88, 0x3f, 0x68, 0x0c,
  0x98, 0x3f, 0x60, 0x13, 0x88, 0x3f, 0x60, 0x0a, 0x98, 0x3f, 0x5f, 0x0b,
  0x88, 0x3f, 0x5f, 0x11, 0x98, 0x37, 0x5e, 0x12, 0x88, 0x37, 0x5e, 0x4a,
  0x98, 0x3a, 0x4d, 0x01, 0x98, 0x3e, 0x54, 0x10, 0x88, 0x3e, 0x54, 0x03,
  0x88, 0x3a, 0x4d, 0x0b, 0x98, 0x3e, 0x5d, 0x00, 0x98, 0x3a, 0x5d, 0x16,
  0x88, 0x3a, 0x5d, 0x00, 0x88, 0x3e, 0x5d, 0x0b, 0x98, 0x3a, 0x66, 0x00,
  0x98, 0x3e, 0x66, 0x15, 0x88, 0x3e, 0x66, 0x00, 0x88, 0x3a, 0x66, 0x0a,
  0x98, 0x3f, 0x62, 0x00, 0x98, 0x3b, 0x62, 0x05, 0x98, 0x32, 0x60, 0x10,
  0x88, 0x3b, 0x62, 0x00, 0x88, 0x3f, 0x62, 0x02, 0x88, 0x32, 0x60, 0x09,
  0x98, 0x3b, 0x62, 0x00, 0x98, 0x3f, 0x66, 0x05, 0x98, 0x32, 0x5d, 0x0f,
  0x88, 0x3f, 0x66, 0x00, 0x88, 0x3b, 0x62, 0x06, 0x88, 0x32, 0x5d, 0x07,
  0x98, 0x3b, 0x62, 0x00, 0x98, 0x3f, 0x62, 0x06, 0x98, 0x32, 0x5d, 0x10,
  0x88, 0x3f, 0x62, 0x00, 0x88, 0x3b, 0x62, 0x02, 0x88, 0x32, 0x5d, 0x08,
  0x98, 0x3d, 0x62, 0x00, 0x98, 0x41, 0x62, 0x04, 0x98, 0x32, 0x5d, 0x0f,
  0x88, 0x41, 0x62, 0x00, 0x88, 0x3d, 0x62, 0x06, 0x88, 0x32, 0x5d, 0x06,
  0x98, 0x3d, 0x62, 0x00, 0x98, 0x41, 0x62, 0x15, 0x88, 0x41, 0x62, 0x00,
  0x88, 0x3d, 0x62, 0x0b, 0x98, 0x41, 0x62, 0x00, 0x98, 0x3d, 0x62, 0x12,
  0x88, 0x3d, 0x62, 0x00, 0x88, 0x41, 0x62, 0x11, 0x98, 0x43, 0x60, 0x10,
  0x88, 0x43, 0x60, 0x81, 0x2d, 0x98, 0x43, 0x65, 0x13, 0x88, 0x43, 0x65,
  0x58, 0x98, 0x43, 0x60, 0x0f, 0x88, 0x43, 0x60, 0x0e, 0x98, 0x43, 0x5d,
  0x12, 0x88, 0x43, 0x5d, 0x0e, 0x98, 0x43, 0x5e, 0x12, 0x88, 0x43, 0x5e,
  0x07, 0x98, 0x43, 0x65, 0x15, 0x88, 0x43, 0x65, 0x50, 0x98, 0x43, 0x65,
  0x0f, 0x88, 0x43, 0x65, 0x0f, 0x98, 0x43, 0x60, 0x12, 0x88, 0x43, 0x60,
  0x0f, 0x98, 0x43, 0x65, 0x11, 0x88, 0x43, 0x65, 0x0a, 0x98, 0x3f, 0x63,
  0x02, 0x98, 0x43, 0x60, 0x12, 0x88, 0x43, 0x60, 0x02, 0x88, 0x3f, 0x63,
  0x0c, 0x98, 0x43, 0x65, 0x01, 0x98, 0x3f, 0x60, 0x11, 0x88, 0x3f, 0x60,
  0x00, 0x88, 0x43, 0x65, 0x0a, 0x98, 0x43, 0x65, 0x04, 0x98, 0x3f, 0x60,
  0x0b, 0x88, 0x43, 0x65, 0x07, 0x88, 0x3f, 0x60, 0x0c, 0x98, 0x43, 0x65,
  0x01, 0x98, 0x3f, 0x60, 0x0e, 0x88, 0x43, 0x65, 0x07, 0x88, 0x3f, 0x60,
  0x4e, 0x98, 0x40, 0x63, 0x00, 0x98, 0x44, 0x65, 0x0f, 0x88, 0x44, 0x65,
  0x00, 0x88, 0x40, 0x63, 0x81, 0x33, 0x98, 0x44, 0x65, 0x00, 0x98, 0x40,
  0x63, 0x0e, 0x88, 0x40, 0x63, 0x00, 0x88, 0x44, 0x65, 0x58, 0x98, 0x40,
  0x63, 0x00, 0x98, 0x44, 0x65, 0x0e, 0x88, 0x44, 0x65, 0x00, 0x88, 0x40,
  0x63, 0x0c, 0x98, 0x44, 0x5f, 0x00, 0x98, 0x40, 0x60, 0x11, 0x88, 0x40,
  0x60, 0x00, 0x88, 0x44, 0x5f, 0x0f, 0x98, 0x40, 0x60, 0x00, 0x98, 0x44,
  0x63, 0x12, 0x88, 0x44, 0x63, 0x00, 0x88, 0x40, 0x60, 0x06, 0x98, 0x44,
  0x65, 0x00, 0x98, 0x40, 0x63, 0x14, 0x88, 0x40, 0x63, 0x00, 0x88, 0x44,
  0x65, 0x57, 0x98, 0x40, 0x63, 0x00, 0x98, 0x44, 0x65, 0x0f, 0x88, 0x44,
  0x65, 0x00, 0x88, 0x40, 0x63, 0x11, 0x98, 0x44, 0x5d, 0x00, 0x98, 0x40,
  0x60, 0x11, 0x88, 0x40, 0x60, 0x00, 0x88, 0x44, 0x5d, 0x0b, 0x98, 0x40,
  0x60, 0x00, 0x98, 0x44, 0x60, 0x13, 0x88, 0x44, 0x60, 0x00, 0x88, 0x40,
  0x60, 0x09, 0x98, 0x44, 0x62, 0x00, 0x98, 0x40, 0x60, 0x12, 0x88, 0x40,
  0x60, 0x00, 0x88, 0x44, 0x62, 0x10, 0x98, 0x40, 0x60, 0x00, 0x98, 0x44,
  0x5e, 0x12, 0x88, 0x44, 0x5e, 0x00, 0x88, 0x40, 0x60, 0x06, 0x98, 0x44,
  0x65, 0x00, 0x98, 0x40, 0x63, 0x12, 0x88, 0x40, 0x63, 0x00, 0x88, 0x44,
  0x65, 0x13, 0x98, 0x40, 0x63, 0x00, 0x98, 0x44, 0x65, 0x10, 0x88, 0x44,
  0x65, 0x00, 0x88, 0x40, 0x63, 0x56, 0x98, 0x42, 0x65, 0x00, 0x98, 0x3f,
  0x63, 0x12, 0x88, 0x3f, 0x63, 0x00, 0x88, 0x42, 0x65, 0x81, 0x25, 0x98,
  0x3f, 0x63, 0x00, 0x98, 0x42, 0x65, 0x11, 0x88, 0x42, 0x65, 0x00, 0x88,
  0x3f, 0x63, 0x54, 0x98, 0x42, 0x62, 0x00, 0x98, 0x3f, 0x60, 0x12, 0x88,
  0x3f, 0x60, 0x00, 0x88, 0x42, 0x62, 0x0d, 0x98, 0x3f, 0x60, 0x00, 0x98,
  0x42, 0x5d, 0x12, 0x88, 0x42, 0x5d, 0x00, 0x88, 0x3f, 0x60, 0x0e, 0x98,
  0x42, 0x65, 0x00, 0x98, 0x3f, 0x63, 0x13, 0x88, 0x3f, 0x63, 0x00, 0x88,
  0x42, 0x65, 0x0d, 0x98, 0x3f, 0x60, 0x00, 0x98, 0x42, 0x5e, 0x12, 0x88,
  0x42, 0x5e, 0x00, 0x88, 0x3f, 0x60, 0x81, 0x2d, 0x98, 0x42, 0x63, 0x00,
  0x98, 0x3f, 0x60, 0x12, 0x88, 0x3f, 0x60, 0x00, 0x88, 0x42, 0x63, 0x0e,
  0x98, 0x3f, 0x63, 0x00, 0x98, 0x42, 0x65, 0x15, 0x88, 0x42, 0x65, 0x00,
  0x88, 0x3f, 0x63, 0x0a, 0x98, 0x42, 0x65, 0x00, 0x98, 0x3f, 0x61, 0x12,
  0x88, 0x3f, 0x61, 0x00, 0x88, 0x42, 0x65, 0x0f, 0x98, 0x3f, 0x63, 0x00,
  0x98, 0x42, 0x65, 0x14, 0x88, 0x42, 0x65, 0x00, 0x88, 0x3f, 0x63, 0x4e,
  0x98, 0x43, 0x65, 0x13, 0x88, 0x43, 0x65, 0x81, 0x2b, 0x98, 0x43, 0x63,
  0x00, 0x98, 0x3f, 0x60, 0x12, 0x88, 0x3f, 0x60, 0x00, 0x88, 0x43, 0x63,
  0x0e, 0x98, 0x3f, 0x63, 0x00, 0x98, 0x43, 0x65, 0x15, 0x88, 0x43, 0x65,
  0x00, 0x88, 0x3f, 0x63, 0x0a, 0x98, 0x43, 0x65, 0x00, 0x98, 0x3f, 0x61,
  0x12, 0x88, 0x3f, 0x61, 0x00, 0x88, 0x43, 0x65, 0x0f, 0x98, 0x3f, 0x63,
  0x00, 0x98, 0x43, 0x65, 0x14, 0x88, 0x43, 0x65, 0x00, 0x88, 0x3f, 0x63,
  0x51, 0x98, 0x43, 0x5e, 0x11, 0x88, 0x43, 0x5e, 0x4d, 0x98, 0x43, 0x65,
  0x12, 0x88, 0x43, 0x65, 0x0e, 0x98, 0x43, 0x5d, 0x12, 0x88, 0x43, 0x5d,
  0x0d, 0x98, 0x43, 0x61, 0x11, 0x88, 0x43, 0x61, 0x10, 0x98, 0x43, 0x5d,
  0x0f, 0x88, 0x43, 0x5d, 0x10, 0x98, 0x43, 0x60, 0x14, 0x88, 0x43, 0x60,
  0x0b, 0x98, 0x43, 0x65, 0x12, 0x88, 0x43, 0x65, 0x10, 0x98, 0x43, 0x5d,
  0x0f, 0x88, 0x43, 0x5d, 0x10, 0x98, 0x43, 0x60, 0x14, 0x88, 0x43, 0x60,
  0x0b, 0x98, 0x43, 0x65, 0x12, 0x88, 0x43, 0x65, 0x10, 0x98, 0x43, 0x60,
  0x10, 0x88, 0x43, 0x60, 0x81, 0x2d, 0x98, 0x43, 0x65, 0x13, 0x88, 0x43,
  0x65, 0x58, 0x98, 0x43, 0x60, 0x0f, 0x88, 0x43, 0x60, 0x0e, 0x98, 0x43,
  0x5d, 0x12, 0x88, 0x43, 0x5d, 0x0e, 0x98, 0x43, 0x5e, 0x12, 0x88, 0x43,
  0x5e, 0x07, 0x98, 0x43, 0x65, 0x15, 0x88, 0x43, 0x65, 0x50, 0x98, 0x43,
  0x65, 0x0f, 0x88, 0x43, 0x65, 0x0f, 0x98, 0x43, 0x60, 0x12, 0x88, 0x43,
  0x60, 0x0f, 0x98, 0x43, 0x65, 0x11, 0x88, 0x43, 0x65, 0x0a, 0x98, 0x3f,
  0x63, 0x02, 0x98, 0x43, 0x60, 0x12, 0x88, 0x43, 0x60, 0x02, 0x88, 0x3f,
  0x63, 0x0c, 0x98, 0x43, 0x65, 0x01, 0x98, 0x3f, 0x60, 0x11, 0x88, 0x3f,
  0x60, 0x00, 0x88, 0x43, 0x65, 0x0a, 0x98, 0x43, 0x65, 0x04, 0x98, 0x3f,
  0x60, 0x0b, 0x88, 0x43, 0x65, 0x07, 0x88, 0x3f, 0x60, 0x0c, 0x98, 0x43,
  0x65, 0x01, 0x98, 0x3f, 0x60, 0x0e, 0x88, 0x43, 0x65, 0x07, 0x88, 0x3f,
  0x60, 0x4e, 0x98, 0x40, 0x63, 0x00, 0x98, 0x44, 0x65, 0x0f, 0x88, 0x44,
  0x65, 0x00, 0x88, 0x40, 0x63, 0x81, 0x33, 0x98, 0x44, 0x65, 0x00, 0x98,
  0x40, 0x63, 0x0e, 0x88, 0x40, 0x63, 0x00, 0x88, 0x44, 0x65, 0x52, 0x98,
  0x40, 0x63, 0x06, 0x98, 0x44, 0x65, 0x09, 0x88, 0x40, 0x63, 0x05, 0x88,
  0x44, 0x65, 0x0a, 0x98, 0x40, 0x60, 0x02, 0x98, 0x44, 0x5f, 0x0f, 0x88,
  0x40, 0x60, 0x02, 0x88, 0x44, 0x5f, 0x0d, 0x98, 0x40, 0x60, 0x02, 0x98,
  0x44, 0x63, 0x10, 0x88, 0x40, 0x60, 0x02, 0x88, 0x44, 0x63, 0x06, 0x98,
  0x44, 0x65, 0x02, 0x98, 0x40, 0x63, 0x12, 0x88, 0x44, 0x65, 0x01, 0x88,
  0x40, 0x63, 0x52, 0x98, 0x40, 0x63, 0x04, 0x98, 0x44, 0x65, 0x0b, 0x88,
  0x40, 0x63, 0x04, 0x88, 0x44, 0x65, 0x0d, 0x98, 0x40, 0x60, 0x04, 0x98,
  0x44, 0x5d, 0x0d, 0x88, 0x40, 0x60, 0x04, 0x88, 0x44, 0x5d, 0x09, 0x98,
  0x40, 0x60, 0x02, 0x98, 0x44, 0x60, 0x12, 0x88, 0x40, 0x60, 0x01, 0x88,
  0x44, 0x60, 0x09, 0x98, 0x44, 0x62, 0x00, 0x98, 0x40, 0x60, 0x12, 0x88,
  0x40, 0x60, 0x00, 0x88, 0x44, 0x62, 0x10, 0x98, 0x40, 0x60, 0x00, 0x98,
  0x44, 0x5e, 0x12, 0x88, 0x44, 0x5e, 0x00, 0x88, 0x40, 0x60, 0x06, 0x98,
  0x44, 0x65, 0x03, 0x98, 0x40, 0x63, 0x0f, 0x88, 0x44, 0x65, 0x03, 0x88,
  0x40, 0x63, 0x10, 0x98, 0x44, 0x65, 0x01, 0x98, 0x40, 0x63, 0x0f, 0x88,
  0x44, 0x65, 0x01, 0x88, 0x40, 0x63, 0x55, 0x98, 0x3f, 0x63, 0x00, 0x98,
  0x42, 0x65, 0x12, 0x88, 0x42, 0x65, 0x00, 0x88, 0x3f, 0x63, 0x81, 0x25,
  0x98, 0x42, 0x65, 0x00, 0x98, 0x3f, 0x63, 0x11, 0x88, 0x3f, 0x63, 0x00,
  0x88, 0x42, 0x65, 0x54, 0x98, 0x3f, 0x60, 0x00, 0x98, 0x42, 0x62, 0x12,
  0x88, 0x42, 0x62, 0x00, 0x88, 0x3f, 0x60, 0x0d, 0x98, 0x42, 0x5d, 0x00,
  0x98, 0x3f, 0x60, 0x12, 0x88, 0x3f, 0x60, 0x00, 0x88, 0x42, 0x5d, 0x0e,
  0x98, 0x3f, 0x63, 0x00, 0x98, 0x42, 0x65, 0x13, 0x88, 0x42, 0x65, 0x00,
  0x88, 0x3f, 0x63, 0x0d, 0x98, 0x42, 0x5e, 0x00, 0x98, 0x3f, 0x60, 0x12,
  0x88, 0x3f, 0x60, 0x00, 0x88, 0x42, 0x5e, 0x81, 0x2d, 0x98, 0x3f, 0x60,
  0x00, 0x98, 0x42, 0x63, 0x12, 0x88, 0x42, 0x63, 0x00, 0x88, 0x3f, 0x60,
  0x0e, 0x98, 0x42, 0x65, 0x00, 0x98, 0x3f, 0x63, 0x15, 0x88, 0x3f, 0x63,
  0x00, 0x88, 0x42, 0x65, 0x0a, 0x98, 0x3f, 0x61, 0x00, 0x98, 0x42, 0x65,
  0x12, 0x88, 0x42, 0x65, 0x00, 0x88, 0x3f, 0x61, 0x0f, 0x98, 0x42, 0x65,
  0x00, 0x98, 0x3f, 0x63, 0x14, 0x88, 0x3f, 0x63, 0x00, 0x88, 0x42, 0x65,
  0x4e, 0x98, 0x43, 0x65, 0x13, 0x88, 0x43, 0x65, 0x81, 0x2b, 0x98, 0x42,
  0x63, 0x00, 0x98, 0x3f, 0x60, 0x12, 0x88, 0x3f, 0x60, 0x00, 0x88, 0x42,
  0x63, 0x0e, 0x98, 0x3f, 0x63, 0x00, 0x98, 0x42, 0x65, 0x15, 0x88, 0x42,
  0x65, 0x00, 0x88, 0x3f, 0x63, 0x0a, 0x98, 0x42, 0x65, 0x00, 0x98, 0x3f,
  0x61, 0x12, 0x88, 0x3f, 0x61, 0x00, 0x88, 0x42, 0x65, 0x0f, 0x98, 0x3f,
  0x63, 0x00, 0x98, 0x42, 0x65, 0x14, 0x88, 0x42, 0x65, 0x00, 0x88, 0x3f,
  0x63, 0x51, 0x98, 0x43, 0x5e, 0x11, 0x88, 0x43, 0x5e, 0x4d, 0x98, 0x43,
  0x65, 0x12, 0x88, 0x43, 0x65, 0x0d, 0x98, 0x43, 0x5d, 0x12, 0x88, 0x43,
  0x5d, 0x0e, 0x98, 0x43, 0x61, 0x11, 0x88, 0x43, 0x61, 0x10, 0x98, 0x43,
  0x5d, 0x0f, 0x88, 0x43, 0x5d, 0x10, 0x98, 0x43, 0x60, 0x14, 0x88, 0x43,
  0x60, 0x0b, 0x98, 0x43, 0x65, 0x12, 0x88, 0x43, 0x65, 0x10, 0x98, 0x43,
  0x65, 0x15, 0x88, 0x43, 0x65, 0x81, 0x29, 0x98, 0x3a, 0x4d, 0x01, 0x98,
  0x3e, 0x54, 0x10, 0x88, 0x3e, 0x54, 0x03, 0x88, 0x3a, 0x4d, 0x0b, 0x98,
  0x3e, 0x5d, 0x00, 0x98, 0x3a, 0x5d, 0x16, 0x88, 0x3a, 0x5d, 0x00, 0x88,
  0x3e, 0x5d, 0x0b, 0x98, 0x3a, 0x66, 0x00, 0x98, 0x3e, 0x66, 0x15, 0x88,
  0x3e, 0x66, 0x00, 0x88, 0x3a, 0x66, 0x0a, 0x98, 0x3f, 0x62, 0x00, 0x98,
  0x3b, 0x62, 0x05, 0x98, 0x32, 0x60, 0x10, 0x88, 0x3b, 0x62, 0x00, 0x88,
  0x3f, 0x62, 0x02, 0x88, 0x32, 0x60, 0x09, 0x98, 0x3b, 0x62, 0x00, 0x98,
  0x3f, 0x66, 0x05, 0x98, 0x32, 0x5d, 0x0f, 0x88, 0x3f, 0x66, 0x00, 0x88,
  0x3b, 0x62, 0x06, 0x88, 0x32, 0x5d, 0x06, 0x98, 0x3f, 0x62, 0x01, 0x98,
  0x3b, 0x62, 0x06, 0x98, 0x32, 0x5d, 0x0f, 0x88, 0x3f, 0x62, 0x01, 0x88,
  0x3b, 0x62, 0x02, 0x88, 0x32, 0x5d, 0x07, 0x98, 0x41, 0x62, 0x01, 0x98,
  0x3d, 0x62, 0x04, 0x98, 0x32, 0x5d, 0x0e, 0x88, 0x41, 0x62, 0x01, 0x88,
  0x3d, 0x62, 0x06, 0x88, 0x32, 0x5d, 0x05, 0x98, 0x41, 0x62, 0x01, 0x98,
  0x3d, 0x62, 0x14, 0x88, 0x41, 0x62, 0x01, 0x88, 0x3d, 0x62, 0x09, 0x98,
  0x41, 0x62, 0x02, 0x98, 0x3d, 0x62, 0x10, 0x88, 0x41, 0x62, 0x02, 0x88,
  0x3d, 0x62, 0x81, 0x5f, 0x98, 0x3f, 0x44, 0x2b, 0x88, 0x3f, 0x44, 0x6c,
  0x98, 0x3a, 0x44, 0x1d, 0x88, 0x3a, 0x44, 0x22, 0x98, 0x36, 0x41, 0x3a,
  0x98, 0x3f, 0x41, 0x64, 0x98, 0x3c, 0x3d, 0x09, 0x88, 0x3f, 0x41, 0x61,
  0x98, 0x3e, 0x45, 0x0a, 0x88, 0x3c, 0x3d, 0x2a, 0x88, 0x3e, 0x45, 0x81,
  0x0b, 0x98, 0x3d, 0x3b, 0x68, 0x98, 0x3a, 0x3b, 0x05, 0x88, 0x3d, 0x3b,
  0x61, 0x98, 0x3c, 0x3c, 0x11, 0x88, 0x3a, 0x3b, 0x23, 0x88, 0x3c, 0x3c,
  0x84, 0x7c, 0x88, 0x36, 0x41, 0x85, 0x78, 0x98, 0x48, 0x36, 0x17, 0x88,
  0x48, 0x36, 0x81, 0x29, 0x98, 0x48, 0x36, 0x16, 0x88, 0x48, 0x36, 0x81,
  0x10, 0x98, 0x45, 0x35, 0x22, 0x88, 0x45, 0x35, 0x60, 0x98, 0x4b, 0x33,
  0x1f, 0x88, 0x4b, 0x33, 0x1f, 0x98, 0x48, 0x37, 0x1d, 0x88, 0x48, 0x37,
  0x81, 0x10, 0x98, 0x45, 0x37, 0x03, 0x98, 0x42, 0x36, 0x1e, 0x88, 0x42,
  0x36, 0x00, 0x88, 0x45, 0x37, 0x64, 0x98, 0x4b, 0x35, 0x1b, 0x88, 0x4b,
  0x35, 0x1f, 0x98, 0x48, 0x37, 0x07, 0x98, 0x42, 0x3a, 0x13, 0x88, 0x48,
  0x37, 0x13, 0x88, 0x42, 0x3a, 0x81, 0x14, 0x98, 0x43, 0x37, 0x26, 0x88,
  0x43, 0x37, 0x5f, 0x98, 0x3f, 0x3b, 0x1f, 0x88, 0x3f, 0x3b, 0x26, 0x98,
  0x3c, 0x37, 0x2d, 0x88, 0x3c, 0x37, 0x8f, 0x3a, 0xb8, 0x07, 0x24, 0x75,
  0xe8, 0x54, 0x69, 0x13, 0x98, 0x60, 0x2d, 0x08, 0x98, 0x5f, 0x2d, 0x3e,
  0xe8, 0x52, 0x69, 0x02, 0xb8, 0x07, 0x28, 0x04, 0xe8, 0x0a, 0x69, 0x06,
  0xe8, 0x47, 0x68, 0x06, 0xe8, 0x17, 0x68, 0x06, 0xe8, 0x68, 0x67, 0x06,
  0xe8, 0x3b, 0x67, 0x06, 0xe8, 0x12, 0x67, 0x06, 0xe8, 0x68, 0x66, 0x04,
  0xe8, 0x4c, 0x66, 0x17, 0xe8, 0x4a, 0x65, 0x59, 0xe8, 0x48, 0x64, 0x17,
  0xe8, 0x46, 0x63, 0x11, 0xb8, 0x07, 0x2c, 0x02, 0xe8, 0x44, 0x62, 0x1a,
  0xe8, 0x42, 0x61, 0x12, 0xe8, 0x40, 0x60, 0x19, 0xe8, 0x3e, 0x5f, 0x06,
  0xe8, 0x6a, 0x5e, 0x06, 0xe8, 0x15, 0x5e, 0x06, 0xe8, 0x40, 0x5d, 0x06,
  0xe8, 0x00, 0x5d, 0x06, 0xe8, 0x41, 0x5c, 0x06, 0xe8, 0x60, 0x5b, 0x06,
  0xe8, 0x4c, 0x5a, 0x06, 0xe8, 0x76, 0x59, 0x06, 0xe8, 0x2d, 0x59, 0x06,
  0xe8, 0x58, 0x58, 0x06, 0xe8, 0x6f, 0x57, 0x06, 0xe8, 0x5c, 0x56, 0x06,
  0xe8, 0x53, 0x55, 0x06, 0xe8, 0x54, 0x54, 0x06, 0xe8, 0x52, 0x53, 0x06,
  0xe8, 0x62, 0x52, 0x06, 0xe8, 0x74, 0x51, 0x06, 0xe8, 0x06, 0x51, 0x06,
  0xe8, 0x31, 0x50, 0x02, 0xb8, 0x07, 0x30, 0x04, 0xe8, 0x5d, 0x4f, 0x06,
  0xe8, 0x03, 0x4f, 0x06, 0xe8, 0x1c, 0x4e, 0x06, 0xe8, 0x36, 0x4d, 0x06,
  0xe8, 0x4f, 0x4c, 0x06, 0xe8, 0x60, 0x4b, 0x06, 0xe8, 0x6d, 0x4a, 0x06,
  0xe8, 0x03, 0x4a, 0x06, 0xe8, 0x05, 0x49, 0x06, 0xe8, 0x24, 0x48, 0x06,
  0xe8, 0x04, 0x47, 0x06, 0xe8, 0x5d, 0x45, 0x06, 0xe8, 0x08, 0x44, 0x06,
  0xe8, 0x45, 0x42, 0x06, 0xe8, 0x0d, 0x41, 0x03, 0xe8, 0x00, 0x40, 0x57,
  0xb8, 0x07, 0x34, 0x37, 0xe8, 0x00, 0x3f, 0x13, 0xe8, 0x00, 0x3e, 0x06,
  0xe8, 0x67, 0x3c, 0x06, 0xe8, 0x70, 0x3b, 0x06, 0xe8, 0x1c, 0x3b, 0x06,
  0xe8, 0x5c, 0x3a, 0x06, 0xe8, 0x25, 0x3a, 0x06, 0xe8, 0x69, 0x39, 0x06,
  0xe8, 0x22, 0x39, 0x06, 0xe8, 0x54, 0x38, 0x06, 0xe8, 0x00, 0x38, 0x06,
  0xe8, 0x00, 0x37, 0x06, 0xe8, 0x08, 0x36, 0x06, 0xe8, 0x33, 0x35, 0x06,
  0xe8, 0x58, 0x34, 0x06, 0xe8, 0x5c, 0x33, 0x06, 0xe8, 0x16, 0x32, 0x04,
  0xb8, 0x07, 0x38, 0x02, 0xe8, 0x78, 0x30, 0x06, 0xe8, 0x00, 0x30, 0x3d,
  0xe8, 0x00, 0x31, 0x06, 0xe8, 0x50, 0x31, 0x06, 0xe8, 0x28, 0x32, 0x06,
  0xe8, 0x11, 0x33, 0x06, 0xe8, 0x11, 0x34, 0x06, 0xe8, 0x06, 0x35, 0x06,
  0xe8, 0x37, 0x35, 0x06, 0xe8, 0x69, 0x35, 0x06, 0xe8, 0x44, 0x36, 0x06,
  0xe8, 0x40, 0x37, 0x06, 0xe8, 0x3b, 0x38, 0x06, 0xe8, 0x2f, 0x39, 0x06,
  0xe8, 0x30, 0x3a, 0x06, 0xe8, 0x74, 0x3b, 0x06, 0xe8, 0x40, 0x3e, 0x01,
  0xe8, 0x00, 0x3f, 0x07, 0xb8, 0x07, 0x3c, 0x2d, 0x98, 0x5e, 0x2d, 0x2b,
  0xe8, 0x02, 0x41, 0x06, 0xe8, 0x06, 0x43, 0x06, 0xe8, 0x0c, 0x46, 0x06,
  0xe8, 0x28, 0x47, 0x06, 0xe8, 0x23, 0x48, 0x06, 0xe8, 0x05, 0x49, 0x06,
  0xe8, 0x02, 0x4a, 0x06, 0xe8, 0x04, 0x4b, 0x06, 0xe8, 0x23, 0x4c, 0x06,
  0xe8, 0x42, 0x4d, 0x06, 0xe8, 0x37, 0x4e, 0x04, 0xb8, 0x07, 0x40, 0x02,
  0xe8, 0x1e, 0x4f, 0x06, 0xe8, 0x20, 0x50, 0x06, 0xe8, 0x36, 0x51, 0x06,
  0xe8, 0x1d, 0x52, 0x06, 0xe8, 0x46, 0x53, 0x06, 0xe8, 0x69, 0x54, 0x06,
  0xe8, 0x67, 0x55, 0x06, 0xe8, 0x57, 0x56, 0x06, 0xe8, 0x4a, 0x57, 0x06,
  0xe8, 0x1f, 0x58, 0x06, 0xe8, 0x32, 0x59, 0x06, 0xe8, 0x4a, 0x5a, 0x06,
  0xe8, 0x1f, 0x5b, 0x06, 0xe8, 0x2d, 0x5c, 0x03, 0xe8, 0x3a, 0x5d, 0x06,
  0xe8, 0x0e, 0x5e, 0x06, 0xe8, 0x69, 0x5e, 0x06, 0xe8, 0x49, 0x5f, 0x06,
  0xe8, 0x1e, 0x60, 0x06, 0xe8, 0x0e, 0x61, 0x06, 0xe8, 0x10, 0x62, 0x06,
  0xe8, 0x25, 0x63, 0x06, 0xe8, 0x58, 0x64, 0x06, 0xe8, 0x0f, 0x66, 0x03,
  0xe8, 0x4c, 0x66, 0x06, 0xb8, 0x07, 0x44, 0x17, 0xe8, 0x4a, 0x65, 0x0c,
  0xe8, 0x25, 0x64, 0x0c, 0xe8, 0x55, 0x62, 0x0c, 0xe8, 0x7f, 0x5f, 0x0c,
  0xe8, 0x7b, 0x5d, 0x0c, 0xe8, 0x14, 0x5a, 0x0c, 0xe8, 0x0e, 0x57, 0x0c,
  0xe8, 0x06, 0x53, 0x0c, 0xe8, 0x02, 0x51, 0x0c, 0xe8, 0x1a, 0x4d, 0x09,
  0xb8, 0x07, 0x48, 0x03, 0xe8, 0x12, 0x49, 0x0c, 0xe8, 0x1d, 0x46, 0x01,
  0xe8, 0x0c, 0x46, 0x02, 0xe8, 0x08, 0x44, 0x37, 0xe8, 0x00, 0x3f, 0x06,
  0xe8, 0x4a, 0x3c, 0x06, 0xe8, 0x0b, 0x3b, 0x06, 0xe8, 0x68, 0x39, 0x06,
  0xe8, 0x69, 0x38, 0x06, 0xe8, 0x40, 0x37, 0x06, 0xe8, 0x34, 0x36, 0x06,
  0xe8, 0x38, 0x35, 0x06, 0xe8, 0x76, 0x33, 0x06, 0xe8, 0x6e, 0x32, 0x06,
  0xb8, 0x07, 0x4c, 0x00, 0xe8, 0x26, 0x32, 0x03, 0xe8, 0x00, 0x32, 0x26,
  0xe8, 0x00, 0x33, 0x06, 0xe8, 0x16, 0x34, 0x06, 0xe8, 0x69, 0x34, 0x06,
  0xe8, 0x4a, 0x35, 0x06, 0xe8, 0x2c, 0x36, 0x06, 0xe8, 0x11, 0x37, 0x06,
  0xe8, 0x17, 0x38, 0x06, 0xe8, 0x40, 0x39, 0x06, 0xe8, 0x4c, 0x3a, 0x06,
  0xe8, 0x60, 0x3b, 0x06, 0xe8, 0x49, 0x3d, 0x06, 0xe8, 0x00, 0x40, 0x12,
  0xe8, 0x02, 0x41, 0x02, 0xb8, 0x07, 0x50, 0x04, 0xe8, 0x67, 0x43, 0x06,
  0xe8, 0x7b, 0x45, 0x06, 0xe8, 0x56, 0x48, 0x06, 0xe8, 0x55, 0x4a, 0x06,
  0xe8, 0x74, 0x4c, 0x06, 0xe8, 0x57, 0x4e, 0x06, 0xe8, 0x30, 0x50, 0x06,
  0xe8, 0x34, 0x52, 0x06, 0xe8, 0x28, 0x54, 0x06, 0xe8, 0x2c, 0x56, 0x06,
  0xe8, 0x1f, 0x58, 0x06, 0xe8, 0x23, 0x5a, 0x06, 0xe8, 0x17, 0x5c, 0x06,
  0xe8, 0x51, 0x5d, 0x06, 0xe8, 0x7d, 0x5e, 0x06, 0xe8, 0x0c, 0x60, 0x06,
  0xe8, 0x21, 0x61, 0x06, 0xe8, 0x2a, 0x62, 0x06, 0xe8, 0x5c, 0x63, 0x06,
  0xe8, 0x31, 0x64, 0x04, 0xb8, 0x07, 0x54, 0x02, 0xe8, 0x6a, 0x65, 0x06,
  0xe8, 0x03, 0x67, 0x02, 0xe8, 0x4e, 0x67, 0x31, 0xe8, 0x4c, 0x66, 0x06,
  0xe8, 0x04, 0x65, 0x06, 0xe8, 0x55, 0x62, 0x06, 0xe8, 0x19, 0x5f, 0x06,
  0xe8, 0x08, 0x5c, 0x06, 0xe8, 0x56, 0x59, 0x06, 0xe8, 0x0c, 0x56, 0x06,
  0xe8, 0x14, 0x52, 0x06, 0xe8, 0x00, 0x50, 0x06, 0xe8, 0x1a, 0x4d, 0x05,
  0xb8, 0x07, 0x58, 0x01, 0xe8, 0x55, 0x4a, 0x06, 0xe8, 0x21, 0x47, 0x06,
  0xe8, 0x15, 0x45, 0x06, 0xe8, 0x23, 0x41, 0x02, 0xe8, 0x00, 0x40, 0x34,
  0xe8, 0x00, 0x3e, 0x06, 0xe8, 0x40, 0x3c, 0x06, 0xe8, 0x00, 0x3a, 0x06,
  0xe8, 0x50, 0x37, 0x06, 0xe8, 0x10, 0x35, 0x06, 0xe8, 0x5c, 0x32, 0x02,
  0xe8, 0x00, 0x32, 0x07, 0xb8, 0x07, 0x5c, 0x15, 0xe8, 0x00, 0x33, 0x06,
  0xe8, 0x22, 0x34, 0x06, 0xe8, 0x30, 0x36, 0x06, 0xe8, 0x6d, 0x38, 0x06,
  0xe8, 0x20, 0x3c, 0x02, 0xe8, 0x00, 0x3d, 0x01, 0xe8, 0x00, 0x3f, 0x28,
  0xe8, 0x02, 0x41, 0x06, 0xe8, 0x67, 0x43, 0x06, 0xe8, 0x00, 0x46, 0x06,
  0xe8, 0x5a, 0x48, 0x02, 0xb8, 0x07, 0x60, 0x04, 0xe8, 0x57, 0x4b, 0x06,
  0xe8, 0x3c, 0x4e, 0x06, 0xe8, 0x59, 0x51, 0x06, 0xe8, 0x46, 0x53, 0x06,
  0xe8, 0x3c, 0x56, 0x06, 0xe8, 0x30, 0x58, 0x06, 0xe8, 0x73, 0x59, 0x06,
  0xe8, 0x36, 0x5b, 0x06, 0xe8, 0x19, 0x5d, 0x01, 0xe8, 0x3a, 0x5d, 0x06,
  0xe8, 0x3c, 0x5e, 0x06, 0xe8, 0x75, 0x5f, 0x06, 0xe8, 0x62, 0x61, 0x06,
  0xe8, 0x33, 0x63, 0x06, 0xe8, 0x6d, 0x64, 0x06, 0xe8, 0x36, 0x66, 0x01,
  0x88, 0x5e, 0x2d, 0x01, 0x88, 0x5f, 0x2d, 0x02, 0x88, 0x60, 0x2d, 0x02,
  0xe8, 0x38, 0x68, 0x06, 0xe8, 0x62, 0x69, 0x03, 0xb8, 0x07, 0x64, 0x03,
  0xe8, 0x66, 0x6b, 0x06, 0xe8, 0x36, 0x6d, 0x83, 0x3b, 0xe8, 0x00, 0x40,
  0x8d, 0x19, 0x98, 0x3e, 0x5a, 0x3d, 0x88, 0x3e, 0x5a, 0x82, 0x4c, 0x98,
  0x3e, 0x65, 0x3a, 0x88, 0x3e, 0x65, 0x82, 0x47, 0x98, 0x3e, 0x6a, 0x31,
  0x88, 0x3e, 0x6a, 0x85, 0x4a, 0x98, 0x47, 0x4d, 0x03, 0x98, 0x44, 0x52,
  0x1c, 0x98, 0x48, 0x4d, 0x04, 0x88, 0x47, 0x4d, 0x03, 0x98, 0x43, 0x47,
  0x01, 0x88, 0x44, 0x52, 0x17, 0x98, 0x4a, 0x49, 0x06, 0x88, 0x48, 0x4d,
  0x01, 0x98, 0x40, 0x4d, 0x08, 0x88, 0x43, 0x47, 0x13, 0x98, 0x4d, 0x45,
  0x03, 0x88, 0x40, 0x4d, 0x01, 0x98, 0x3c, 0x52, 0x01, 0x88, 0x4a, 0x49,
  0x16, 0x88, 0x4d, 0x45, 0x04, 0x98, 0x4c, 0x45, 0x01, 0x88, 0x3c, 0x52,
  0x04, 0x98, 0x3b, 0x4b, 0x18, 0x88, 0x3b, 0x4b, 0x00, 0x98, 0x3c, 0x47,
  0x01, 0x88, 0x4c, 0x45, 0x01, 0x98, 0x4d, 0x47, 0x20, 0x98, 0x40, 0x4d,
  0x01, 0x98, 0x48, 0x4d, 0x01, 0x88, 0x3c, 0x47, 0x02, 0x88, 0x4d, 0x47,
  0x1a, 0x88, 0x48, 0x4d, 0x01, 0x98, 0x3f, 0x49, 0x00, 0x98, 0x47, 0x4b,
  0x01, 0x88, 0x40, 0x4d, 0x18, 0x98, 0x40, 0x49, 0x01, 0x88, 0x3f, 0x49,
  0x07, 0x98, 0x48, 0x4d, 0x07, 0x88, 0x47, 0x4b, 0x15, 0x88, 0x40, 0x49,
  0x02, 0x98, 0x44, 0x52, 0x02, 0x98, 0x4c, 0x45, 0x06, 0x88, 0x48, 0x4d,
  0x12, 0x88, 0x4c, 0x45, 0x02, 0x98, 0x43, 0x49, 0x04, 0x88, 0x44, 0x52,
  0x02, 0x98, 0x4b, 0x34, 0x19, 0x98, 0x44, 0x52, 0x03, 0x88, 0x43, 0x49,
  0x03, 0x98, 0x4c, 0x4b, 0x02, 0x88, 0x4b, 0x34, 0x16, 0x88, 0x44, 0x52,
  0x03, 0x88, 0x4c, 0x4b, 0x09, 0x98, 0x45, 0x56, 0x01, 0x98, 0x4d, 0x4d,
  0x1b, 0x88, 0x45, 0x56, 0x01, 0x98, 0x4c, 0x4d, 0x00, 0x98, 0x44, 0x49,
  0x03, 0x88, 0x4d, 0x4d, 0x1b, 0x98, 0x4d, 0x4b, 0x02, 0x98, 0x45, 0x4b,
  0x02, 0x88, 0x4c, 0x4d, 0x04, 0x88, 0x44, 0x49, 0x1c, 0x88, 0x4d, 0x4b,
  0x01, 0x98, 0x47, 0x4d, 0x00, 0x98, 0x50, 0x4b, 0x05, 0x88, 0x45, 0x4b,
  0x17, 0x98, 0x45, 0x49, 0x01, 0x88, 0x47, 0x4d, 0x01, 0x98, 0x4f, 0x4b,
  0x04, 0x88, 0x50, 0x4b, 0x17, 0x98, 0x47, 0x4d, 0x04, 0x98, 0x50, 0x49,
  0x02, 0x88, 0x4f, 0x4b, 0x02, 0x88, 0x45, 0x49, 0x18, 0x88, 0x47, 0x4d,
  0x04, 0x88, 0x50, 0x49, 0x00, 0x98, 0x53, 0x52, 0x05, 0x98, 0x3b, 0x56,
  0x1a, 0x98, 0x52, 0x49, 0x02, 0x88, 0x53, 0x52, 0x02, 0x98, 0x3c, 0x4d,
  0x07, 0x88, 0x3b, 0x56, 0x12, 0x98, 0x53, 0x52, 0x06, 0x88, 0x3c, 0x4d,
  0x00, 0x88, 0x52, 0x49, 0x00, 0x98, 0x40, 0x4b, 0x17, 0x88, 0x53, 0x52,
  0x02, 0x88, 0x40, 0x4b, 0x04, 0x98, 0x41, 0x4b, 0x02, 0x98, 0x47, 0x56,
  0x1d, 0x98, 0x48, 0x4d, 0x01, 0x98, 0x44, 0x4d, 0x06, 0x88, 0x47, 0x56,
  0x00, 0x88, 0x41, 0x4b, 0x18, 0x98, 0x47, 0x4d, 0x01, 0x88, 0x44, 0x4d,
  0x00, 0x88, 0x48, 0x4d, 0x00, 0x98, 0x4c, 0x4b, 0x1e, 0x88, 0x47, 0x4d,
  0x02, 0x88, 0x4c, 0x4b, 0x82, 0x7e, 0x98, 0x39, 0x59, 0x04, 0x98, 0x41,
  0x5e, 0x31, 0x88, 0x39, 0x59, 0x01, 0x88, 0x41, 0x5e, 0x82, 0x51, 0x98,
  0x39, 0x5e, 0x01, 0x98, 0x41, 0x5e, 0x30, 0x88, 0x39, 0x5e, 0x0c, 0x88,
  0x41, 0x5e, 0x82, 0x3c, 0x98, 0x39, 0x64, 0x02, 0x98, 0x41, 0x64, 0x33,
  0x88, 0x39, 0x64, 0x05, 0x88, 0x41, 0x64, 0x00, 0xff, 0x2f, 0x00, 0x4d,
  0x54, 0x72, 0x6b, 0x00, 0x00, 0x00, 0x6a, 0x00, 0xff, 0x01, 0x0a, 0x50,
  0x69, 0x7a, 0x7a, 0x20, 0x53, 0x74, 0x72, 0x69, 0x6e, 0x81, 0xac, 0x62,
  0xba, 0x07, 0x64, 0x00, 0xea, 0x00, 0x40, 0x06, 0xca, 0x2d, 0x81, 0x1a,
  0x9a, 0x24, 0x4e, 0x0c, 0x9a, 0x30, 0x61, 0x00, 0x9a, 0x3c, 0x68, 0x27,
  0x8a, 0x3c, 0x68, 0x00, 0x8a, 0x24, 0x4e, 0x0a, 0x8a, 0x30, 0x61, 0x82,
  0x45, 0x9a, 0x24, 0x57, 0x00, 0x9a, 0x30, 0x50, 0x01, 0x9a, 0x3c, 0x65,
  0x1d, 0x8a, 0x3c, 0x65, 0x00, 0x8a, 0x30, 0x50, 0x04, 0x8a, 0x24, 0x57,
  0x82, 0x59, 0x9a, 0x3c, 0x61, 0x00, 0x9a, 0x24, 0x6e, 0x01, 0x9a, 0x30,
  0x76, 0x18, 0x8a, 0x3c, 0x61, 0x04, 0x8a, 0x30, 0x76, 0x02, 0x8a, 0x24,
  0x6e, 0x00, 0xff, 0x2f, 0x00, 0x4d, 0x54, 0x72, 0x6b, 0x00, 0x00, 0x1b,
  0x47, 0x00, 0xff, 0x01, 0x05, 0x43, 0x65, 0x6c, 0x6c, 0x6f, 0x18, 0xbb,
  0x12, 0x41, 0x00, 0xbb, 0x07, 0x78, 0x00, 0xbb, 0x0a, 0x4b, 0x00, 0xcb,
  0x2a, 0x85, 0x68, 0x9b, 0x1f, 0x73, 0x00, 0x9b, 0x2b, 0x6d, 0x00, 0x9b,
  0x37, 0x74, 0x12, 0x8b, 0x2b, 0x6d, 0x00, 0x8b, 0x1f, 0x73, 0x0d, 0x8b,
  0x37, 0x74, 0x81, 0x20, 0x9b, 0x37, 0x6e, 0x00, 0x9b, 0x2b, 0x6a, 0x00,
  0x9b, 0x1f, 0x6e, 0x0f, 0x8b, 0x1f, 0x6e, 0x00, 0x8b, 0x2b, 0x6a, 0x03,
  0x8b, 0x37, 0x6e, 0x4b, 0x9b, 0x1f, 0x74, 0x00, 0x9b, 0x2b, 0x71, 0x04,
  0x9b, 0x37, 0x6c, 0x0c, 0x8b, 0x2b, 0x71, 0x00, 0x8b, 0x1f, 0x74, 0x06,
  0x8b, 0x37, 0x6c, 0x0a, 0x9b, 0x2b, 0x66, 0x00, 0x9b, 0x1f, 0x66, 0x03,
  0x9b, 0x37, 0x66, 0x0d, 0x8b, 0x1f, 0x66, 0x00, 0x8b, 0x2b, 0x66, 0x05,
  0x8b, 0x37, 0x66, 0x0a, 0x9b, 0x1f, 0x6e, 0x00, 0x9b, 0x2b, 0x6a, 0x03,
  0x9b, 0x37, 0x66, 0x0b, 0x8b, 0x2b, 0x6a, 0x00, 0x8b, 0x1f, 0x6e, 0x07,
  0x8b, 0x37, 0x66, 0x0f, 0x9b, 0x2b, 0x66, 0x00, 0x9b, 0x1f, 0x66, 0x01,
  0x9b, 0x37, 0x74, 0x12, 0x8b, 0x37, 0x74, 0x0a, 0x8b, 0x1f, 0x66, 0x00,
  0x8b, 0x2b, 0x66, 0x42, 0x9b, 0x1f, 0x6b, 0x00, 0x9b, 0x2b, 0x66, 0x03,
  0x9b, 0x37, 0x66, 0x10, 0x8b, 0x2b, 0x66, 0x00, 0x8b, 0x1f, 0x6b, 0x02,
  0x8b, 0x37, 0x66, 0x0c, 0x9b, 0x2b, 0x67, 0x00, 0x9b, 0x1f, 0x6c, 0x01,
  0x9b, 0x37, 0x66, 0x0f, 0x8b, 0x1f, 0x6c, 0x00, 0x8b, 0x2b, 0x67, 0x03,
  0x8b, 0x37, 0x66, 0x0b, 0x9b, 0x37, 0x66, 0x02, 0x9b, 0x1f, 0x74, 0x00,
  0x9b, 0x2b, 0x72, 0x11, 0x8b, 0x2b, 0x72, 0x00, 0x8b, 0x1f, 0x74, 0x01,
  0x8b, 0x37, 0x66, 0x0c, 0x9b, 0x27, 0x6c, 0x00, 0x9b, 0x1b, 0x71, 0x02,
  0x9b, 0x36, 0x6b, 0x0f, 0x8b, 0x1b, 0x71, 0x00, 0x8b, 0x27, 0x6c, 0x05,
  0x8b, 0x36, 0x6b, 0x09, 0x9b, 0x1b, 0x74, 0x00, 0x9b, 0x27, 0x73, 0x02,
  0x9b, 0x36, 0x68, 0x11, 0x8b, 0x27, 0x73, 0x00, 0x8b, 0x1b, 0x74, 0x04,
  0x8b, 0x36, 0x68, 0x08, 0x9b, 0x27, 0x6b, 0x00, 0x9b, 0x1b, 0x70, 0x01,
  0x9b, 0x36, 0x6d, 0x0f, 0x8b, 0x1b, 0x70, 0x00, 0x8b, 0x27, 0x6b, 0x03,
  0x8b, 0x36, 0x6d, 0x0e, 0x9b, 0x1b, 0x70, 0x00, 0x9b, 0x27, 0x6b, 0x02,
  0x9b, 0x36, 0x74, 0x14, 0x8b, 0x36, 0x74, 0x01, 0x8b, 0x27, 0x6b, 0x00,
  0x8b, 0x1b, 0x70, 0x4d, 0x9b, 0x37, 0x74, 0x01, 0x9b, 0x2b, 0x74, 0x00,
  0x9b, 0x1f, 0x74, 0x11, 0x8b, 0x1f, 0x74, 0x00, 0x8b, 0x2b, 0x74, 0x00,
  0x8b, 0x37, 0x74, 0x81, 0x30, 0x9b, 0x1f, 0x70, 0x00, 0x9b, 0x2b, 0x6b,
  0x00, 0x9b, 0x37, 0x74, 0x0d, 0x8b, 0x2b, 0x6b, 0x00, 0x8b, 0x1f, 0x70,
  0x06, 0x8b, 0x37, 0x74, 0x4c, 0x9b, 0x2b, 0x6d, 0x00, 0x9b, 0x1f, 0x73,
  0x01, 0x9b, 0x37, 0x6e, 0x0e, 0x8b, 0x1f, 0x73, 0x00, 0x8b, 0x2b, 0x6d,
  0x04, 0x8b, 0x37, 0x6e, 0x0d, 0x9b, 0x1f, 0x66, 0x00, 0x9b, 0x2b, 0x66,
  0x01, 0x9b, 0x37, 0x66, 0x0d, 0x8b, 0x2b, 0x66, 0x00, 0x8b, 0x1f, 0x66,
  0x05, 0x8b, 0x37, 0x66, 0x0c, 0x9b, 0x2b, 0x74, 0x00, 0x9b, 0x1f, 0x74,
  0x02, 0x9b, 0x37, 0x70, 0x10, 0x8b, 0x1f, 0x74, 0x00, 0x8b, 0x2b, 0x74,
  0x02, 0x8b, 0x37, 0x70, 0x0c, 0x9b, 0x1f, 0x71, 0x00, 0x9b, 0x2b, 0x6c,
  0x01, 0x9b, 0x37, 0x69, 0x10, 0x8b, 0x2b, 0x6c, 0x00, 0x8b, 0x1f, 0x71,
  0x02, 0x8b, 0x37, 0x69, 0x4f, 0x9b, 0x37, 0x73, 0x05, 0x9b, 0x2b, 0x69,
  0x00, 0x9b, 0x1f, 0x6d, 0x0d, 0x8b, 0x37, 0x73, 0x04, 0x8b, 0x1f, 0x6d,
  0x00, 0x8b, 0x2b, 0x69, 0x0a, 0x9b, 0x37, 0x69, 0x06, 0x9b, 0x1f, 0x66,
  0x00, 0x9b, 0x2b, 0x66, 0x0d, 0x8b, 0x37, 0x69, 0x04, 0x8b, 0x2b, 0x66,
  0x00, 0x8b, 0x1f, 0x66, 0x07, 0x9b, 0x37, 0x6e, 0x04, 0x9b, 0x2b, 0x6a,
  0x00, 0x9b, 0x1f, 0x6e, 0x11, 0x8b, 0x37, 0x6e, 0x02, 0x8b, 0x1f, 0x6e,
  0x00, 0x8b, 0x2b, 0x6a, 0x09, 0x9b, 0x36, 0x6b, 0x03, 0x9b, 0x1b, 0x6d,
  0x00, 0x9b, 0x27, 0x69, 0x11, 0x8b, 0x27, 0x69, 0x00, 0x8b, 0x1b, 0x6d,
  0x00, 0x8b, 0x36, 0x6b, 0x0b, 0x9b, 0x36, 0x68, 0x03, 0x9b, 0x27, 0x74,
  0x00, 0x9b, 0x1b, 0x74, 0x12, 0x8b, 0x36, 0x68, 0x02, 0x8b, 0x1b, 0x74,
  0x00, 0x8b, 0x27, 0x74, 0x07, 0x9b, 0x36, 0x6d, 0x02, 0x9b, 0x1b, 0x74,
  0x00, 0x9b, 0x27, 0x71, 0x10, 0x8b, 0x36, 0x6d, 0x01, 0x8b, 0x27, 0x71,
  0x00, 0x8b, 0x1b, 0x74, 0x0e, 0x9b, 0x36, 0x74, 0x02, 0x9b, 0x27, 0x74,
  0x00, 0x9b, 0x1b, 0x74, 0x13, 0x8b, 0x1b, 0x74, 0x00, 0x8b, 0x27, 0x74,
  0x00, 0x8b, 0x36, 0x74, 0x4f, 0x9b, 0x37, 0x73, 0x01, 0x9b, 0x1f, 0x74,
  0x00, 0x9b, 0x2b, 0x74, 0x11, 0x8b, 0x2b, 0x74, 0x00, 0x8b, 0x1f, 0x74,
  0x00, 0x8b, 0x37, 0x73, 0x81, 0x2d, 0x9b, 0x37, 0x73, 0x02, 0x9b, 0x2b,
  0x74, 0x00, 0x9b, 0x1f, 0x74, 0x10, 0x8b, 0x37, 0x73, 0x03, 0x8b, 0x1f,
  0x74, 0x00, 0x8b, 0x2b, 0x74, 0x49, 0x9b, 0x37, 0x74, 0x05, 0x9b, 0x1f,
  0x73, 0x00, 0x9b, 0x2b, 0x6d, 0x0d, 0x8b, 0x37, 0x74, 0x03, 0x8b, 0x2b,
  0x6d, 0x00, 0x8b, 0x1f, 0x73, 0x09, 0x9b, 0x37, 0x66, 0x06, 0x9b, 0x2b,
  0x66, 0x00, 0x9b, 0x1f, 0x66, 0x0c, 0x8b, 0x37, 0x66, 0x05, 0x8b, 0x1f,
  0x66, 0x00, 0x8b, 0x2b, 0x66, 0x09, 0x9b, 0x37, 0x70, 0x06, 0x9b, 0x1f,
  0x74, 0x00, 0x9b, 0x2b, 0x71, 0x0c, 0x8b, 0x37, 0x70, 0x07, 0x8b, 0x2b,
  0x71, 0x00, 0x8b, 0x1f, 0x74, 0x05, 0x9b, 0x37, 0x6c, 0x06, 0x9b, 0x2b,
  0x71, 0x00, 0x9b, 0x1f, 0x74, 0x0c, 0x8b, 0x37, 0x6c, 0x07, 0x8b, 0x1f,
  0x74, 0x00, 0x8b, 0x2b, 0x71, 0x4b, 0x9b, 0x37, 0x70, 0x04, 0x9b, 0x1f,
  0x70, 0x00, 0x9b, 0x2b, 0x6b, 0x0e, 0x8b, 0x37, 0x70, 0x03, 0x8b, 0x2b,
  0x6b, 0x00, 0x8b, 0x1f, 0x70, 0x0b, 0x9b, 0x37, 0x71, 0x03, 0x9b, 0x2b,
  0x66, 0x00, 0x9b, 0x1f, 0x67, 0x10, 0x8b, 0x37, 0x71, 0x01, 0x8b, 0x1f,
  0x67, 0x00, 0x8b, 0x2b, 0x66, 0x0b, 0x9b, 0x37, 0x66, 0x04, 0x9b, 0x1f,
  0x70, 0x00, 0x9b, 0x2b, 0x6b, 0x0e, 0x8b, 0x37, 0x66, 0x07, 0x8b, 0x2b,
  0x6b, 0x00, 0x8b, 0x1f, 0x70, 0x05, 0x9b, 0x36, 0x6b, 0x05, 0x9b, 0x27,
  0x6b, 0x00, 0x9b, 0x1b, 0x70, 0x0f, 0x8b, 0x36, 0x6b, 0x02, 0x8b, 0x1b,
  0x70, 0x00, 0x8b, 0x27, 0x6b, 0x09, 0x9b, 0x36, 0x6e, 0x06, 0x9b, 0x1b,
  0x74, 0x00, 0x9b, 0x27, 0x74, 0x0f, 0x8b, 0x36, 0x6e, 0x04, 0x8b, 0x27,
  0x74, 0x00, 0x8b, 0x1b, 0x74, 0x07, 0x9b, 0x36, 0x70, 0x06, 0x9b, 0x27,
  0x74, 0x00, 0x9b, 0x1b, 0x74, 0x0c, 0x8b, 0x36, 0x70, 0x06, 0x8b, 0x1b,
  0x74, 0x00, 0x8b, 0x27, 0x74, 0x09, 0x9b, 0x36, 0x74, 0x06, 0x9b, 0x1b,
  0x74, 0x00, 0x9b, 0x27, 0x74, 0x0e, 0x8b, 0x36, 0x74, 0x07, 0x8b, 0x27,
  0x74, 0x00, 0x8b, 0x1b, 0x74, 0x45, 0x9b, 0x2b, 0x71, 0x00, 0x9b, 0x1f,
  0x74, 0x04, 0x9b, 0x37, 0x74, 0x10, 0x8b, 0x1f, 0x74, 0x00, 0x8b, 0x2b,
  0x71, 0x02, 0x8b, 0x37, 0x74, 0x81, 0x2c, 0x9b, 0x1f, 0x74, 0x00, 0x9b,
  0x2b, 0x74, 0x01, 0x9b, 0x37, 0x67, 0x12, 0x8b, 0x37, 0x67, 0x01, 0x8b,
  0x2b, 0x74, 0x00, 0x8b, 0x1f, 0x74, 0x4f, 0x9b, 0x2b, 0x74, 0x00, 0x9b,
  0x1f, 0x74, 0x01, 0x9b, 0x37, 0x71, 0x12, 0x8b, 0x37, 0x71, 0x00, 0x8b,
  0x1f, 0x74, 0x00, 0x8b, 0x2b, 0x74, 0x0c, 0x9b, 0x37, 0x66, 0x01, 0x9b,
  0x1f, 0x6a, 0x00, 0x9b, 0x2b, 0x66, 0x11, 0x8b, 0x37, 0x66, 0x01, 0x8b,
  0x2b, 0x66, 0x00, 0x8b, 0x1f, 0x6a, 0x0d, 0x9b, 0x2b, 0x72, 0x00, 0x9b,
  0x1f, 0x74, 0x00, 0x9b, 0x37, 0x6e, 0x12, 0x8b, 0x37, 0x6e, 0x02, 0x8b,
  0x1f, 0x74, 0x00, 0x8b, 0x2b, 0x72, 0x09, 0x9b, 0x37, 0x73, 0x01, 0x9b,
  0x1f, 0x74, 0x00, 0x9b, 0x2b, 0x74, 0x11, 0x8b, 0x2b, 0x74, 0x00, 0x8b,
  0x1f, 0x74, 0x01, 0x8b, 0x37, 0x73, 0x4f, 0x9b, 0x2b, 0x74, 0x00, 0x9b,
  0x1f, 0x74, 0x01, 0x9b, 0x37, 0x73, 0x12, 0x8b, 0x37, 0x73, 0x02, 0x8b,
  0x1f, 0x74, 0x00, 0x8b, 0x2b, 0x74, 0x0c, 0x9b, 0x1f, 0x66, 0x00, 0x9b,
  0x2b, 0x66, 0x00, 0x9b, 0x37, 0x68, 0x12, 0x8b, 0x2b, 0x66, 0x00, 0x8b,
  0x1f, 0x66, 0x02, 0x8b, 0x37, 0x68, 0x0b, 0x9b, 0x2b, 0x6a, 0x00, 0x9b,
  0x1f, 0x6e, 0x01, 0x9b, 0x37, 0x67, 0x12, 0x8b, 0x37, 0x67, 0x03, 0x8b,
  0x1f, 0x6e, 0x00, 0x8b, 0x2b, 0x6a, 0x0a, 0x9b, 0x36, 0x68, 0x01, 0x9b,
  0x1b, 0x6c, 0x00, 0x9b, 0x27, 0x67, 0x12, 0x8b, 0x36, 0x68, 0x01, 0x8b,
  0x27, 0x67, 0x00, 0x8b, 0x1b, 0x6c, 0x0c, 0x9b, 0x27, 0x67, 0x00, 0x9b,
  0x1b, 0x6c, 0x00, 0x9b, 0x36, 0x6e, 0x13, 0x8b, 0x36, 0x6e, 0x03, 0x8b,
  0x1b, 0x6c, 0x00, 0x8b, 0x27, 0x67, 0x08, 0x9b, 0x36, 0x67, 0x01, 0x9b,
  0x1b, 0x74, 0x00, 0x9b, 0x27, 0x71, 0x11, 0x8b, 0x36, 0x67, 0x03, 0x8b,
  0x27, 0x71, 0x00, 0x8b, 0x1b, 0x74, 0x0c, 0x9b, 0x27, 0x74, 0x00, 0x9b,
  0x1b, 0x74, 0x01, 0x9b, 0x36, 0x74, 0x12, 0x8b, 0x36, 0x74, 0x03, 0x8b,
  0x1b, 0x74, 0x00, 0x8b, 0x27, 0x74, 0x4a, 0x9b, 0x1f, 0x74, 0x00, 0x9b,
  0x2b, 0x74, 0x04, 0x9b, 0x37, 0x74, 0x0f, 0x8b, 0x2b, 0x74, 0x00, 0x8b,
  0x1f, 0x74, 0x03, 0x8b, 0x37, 0x74, 0x81, 0x2a, 0x9b, 0x37, 0x6a, 0x02,
  0x9b, 0x2b, 0x74, 0x00, 0x9b, 0x1f, 0x74, 0x12, 0x8b, 0x37, 0x6a, 0x01,
  0x8b, 0x1f, 0x74, 0x00, 0x8b, 0x2b, 0x74, 0x4d, 0x9b, 0x37, 0x6d, 0x04,
  0x9b, 0x1f, 0x74, 0x00, 0x9b, 0x2b, 0x74, 0x0e, 0x8b, 0x37, 0x6d, 0x03,
  0x8b, 0x2b, 0x74, 0x00, 0x8b, 0x1f, 0x74, 0x0a, 0x9b, 0x37, 0x68, 0x05,
  0x9b, 0x2b, 0x66, 0x00, 0x9b, 0x1f, 0x6a, 0x0d, 0x8b, 0x37, 0x68, 0x04,
  0x8b, 0x1f, 0x6a, 0x00, 0x8b, 0x2b, 0x66, 0x0a, 0x9b, 0x37, 0x73, 0x04,
  0x9b, 0x1f, 0x74, 0x00, 0x9b, 0x2b, 0x74, 0x0e, 0x8b, 0x37, 0x73, 0x04,
  0x8b, 0x2b, 0x74, 0x00, 0x8b, 0x1f, 0x74, 0x09, 0x9b, 0x37, 0x68, 0x03,
  0x9b, 0x2b, 0x67, 0x00, 0x9b, 0x1f, 0x6c, 0x0f, 0x8b, 0x37, 0x68, 0x02,
  0x8b, 0x1f, 0x6c, 0x00, 0x8b, 0x2b, 0x67, 0x4c, 0x9b, 0x37, 0x70, 0x02,
  0x9b, 0x1f, 0x74, 0x00, 0x9b, 0x2b, 0x74, 0x10, 0x8b, 0x37, 0x70, 0x02,
  0x8b, 0x2b, 0x74, 0x00, 0x8b, 0x1f, 0x74, 0x0c, 0x9b, 0x37, 0x66, 0x03,
  0x9b, 0x2b, 0x66, 0x00, 0x9b, 0x1f, 0x66, 0x10, 0x8b, 0x37, 0x66, 0x02,
  0x8b, 0x1f, 0x66, 0x00, 0x8b, 0x2b, 0x66, 0x0b, 0x9b, 0x37, 0x66, 0x01,
  0x9b, 0x1f, 0x70, 0x00, 0x9b, 0x2b, 0x6b, 0x14, 0x8b, 0x37, 0x66, 0x01,
  0x8b, 0x2b, 0x6b, 0x00, 0x8b, 0x1f, 0x70, 0x0a, 0x9b, 0x36, 0x66, 0x02,
  0x9b, 0x27, 0x66, 0x00, 0x9b, 0x1b, 0x66, 0x10, 0x8b, 0x1b, 0x66, 0x00,
  0x8b, 0x27, 0x66, 0x00, 0x8b, 0x36, 0x66, 0x0e, 0x9b, 0x1b, 0x6e, 0x00,
  0x9b, 0x27, 0x6a, 0x00, 0x9b, 0x36, 0x72, 0x13, 0x8b, 0x36, 0x72, 0x03,
  0x8b, 0x27, 0x6a, 0x00, 0x8b, 0x1b, 0x6e, 0x08, 0x9b, 0x36, 0x6e, 0x01,
  0x9b, 0x27, 0x74, 0x00, 0x9b, 0x1b, 0x74, 0x11, 0x8b, 0x36, 0x6e, 0x01,
  0x8b, 0x1b, 0x74, 0x00, 0x8b, 0x27, 0x74, 0x0f, 0x9b, 0x36, 0x74, 0x01,
  0x9b, 0x1b, 0x74, 0x00, 0x9b, 0x27, 0x74, 0x11, 0x8b, 0x36, 0x74, 0x04,
  0x8b, 0x27, 0x74, 0x00, 0x8b, 0x1b, 0x74, 0x4c, 0x9b, 0x37, 0x68, 0x04,
  0x9b, 0x2b, 0x74, 0x00, 0x9b, 0x1f, 0x74, 0x0e, 0x8b, 0x37, 0x68, 0x05,
  0x8b, 0x1f, 0x74, 0x00, 0x8b, 0x2b, 0x74, 0x81, 0x28, 0x9b, 0x1f, 0x74,
  0x00, 0x9b, 0x2b, 0x74, 0x01, 0x9b, 0x37, 0x72, 0x10, 0x8b, 0x2b, 0x74,
  0x00, 0x8b, 0x1f, 0x74, 0x02, 0x8b, 0x37, 0x72, 0x4d, 0x9b, 0x37, 0x71,
  0x01, 0x9b, 0x2b, 0x6c, 0x00, 0x9b, 0x1f, 0x71, 0x11, 0x8b, 0x37, 0x71,
  0x01, 0x8b, 0x1f, 0x71, 0x00, 0x8b, 0x2b, 0x6c, 0x0c, 0x9b, 0x37, 0x66,
  0x01, 0x9b, 0x1f, 0x66, 0x00, 0x9b, 0x2b, 0x66, 0x11, 0x8b, 0x37, 0x66,
  0x01, 0x8b, 0x2b, 0x66, 0x00, 0x8b, 0x1f, 0x66, 0x0d, 0x9b, 0x37, 0x73,
  0x01, 0x9b, 0x2b, 0x74, 0x00, 0x9b, 0x1f, 0x74, 0x13, 0x8b, 0x1f, 0x74,
  0x00, 0x8b, 0x2b, 0x74, 0x00, 0x8b, 0x37, 0x73, 0x0a, 0x9b, 0x37, 0x6b,
  0x03, 0x9b, 0x1f, 0x6c, 0x00, 0x9b, 0x2b, 0x67, 0x11, 0x8b, 0x37, 0x6b,
  0x01, 0x8b, 0x2b, 0x67, 0x00, 0x8b, 0x1f, 0x6c, 0x4b, 0x9b, 0x2b, 0x74,
  0x00, 0x9b, 0x1f, 0x74, 0x05, 0x9b, 0x37, 0x74, 0x0f, 0x8b, 0x1f, 0x74,
  0x00, 0x8b, 0x2b, 0x74, 0x04, 0x8b, 0x37, 0x74, 0x09, 0x9b, 0x1f, 0x67,
  0x00, 0x9b, 0x2b, 0x66, 0x03, 0x9b, 0x37, 0x6e, 0x0f, 0x8b, 0x2b, 0x66,
  0x00, 0x8b, 0x1f, 0x67, 0x05, 0x8b, 0x37, 0x6e, 0x0a, 0x9b, 0x2b, 0x73,
  0x00, 0x9b, 0x1f, 0x74, 0x02, 0x9b, 0x37, 0x74, 0x12, 0x8b, 0x1f, 0x74,
  0x00, 0x8b, 0x2b, 0x73, 0x02, 0x8b, 0x37, 0x74, 0x0a, 0x9b, 0x1b, 0x73,
  0x00, 0x9b, 0x27, 0x6d, 0x02, 0x9b, 0x36, 0x69, 0x10, 0x8b, 0x27, 0x6d,
  0x00, 0x8b, 0x1b, 0x73, 0x02, 0x8b, 0x36, 0x69, 0x0c, 0x9b, 0x27, 0x74,
  0x00, 0x9b, 0x1b, 0x74, 0x03, 0x9b, 0x36, 0x71, 0x12, 0x8b, 0x1b, 0x74,
  0x00, 0x8b, 0x27, 0x74, 0x03, 0x8b, 0x36, 0x71, 0x07, 0x9b, 0x1b, 0x74,
  0x00, 0x9b, 0x27, 0x71, 0x03, 0x9b, 0x36, 0x67, 0x0f, 0x8b, 0x27, 0x71,
  0x00, 0x8b, 0x1b, 0x74, 0x05, 0x8b, 0x36, 0x67, 0x0a, 0x9b, 0x27, 0x74,
  0x00, 0x9b, 0x1b, 0x74, 0x04, 0x9b, 0x36, 0x73, 0x10, 0x8b, 0x1b, 0x74,
  0x00, 0x8b, 0x27, 0x74, 0x04, 0x8b, 0x36, 0x73, 0x4c, 0x9b, 0x37, 0x73,
  0x01, 0x9b, 0x1f, 0x74, 0x00, 0x9b, 0x2b, 0x74, 0x11, 0x8b, 0x2b, 0x74,
  0x00, 0x8b, 0x1f, 0x74, 0x00, 0x8b, 0x37, 0x73, 0x81, 0x2d, 0x9b, 0x37,
  0x73, 0x02, 0x9b, 0x2b, 0x74, 0x00, 0x9b, 0x1f, 0x74, 0x10, 0x8b, 0x37,
  0x73, 0x03, 0x8b, 0x1f, 0x74, 0x00, 0x8b, 0x2b, 0x74, 0x49, 0x9b, 0x37,
  0x74, 0x05, 0x9b, 0x1f, 0x73, 0x00, 0x9b, 0x2b, 0x6d, 0x0d, 0x8b, 0x37,
  0x74, 0x03, 0x8b, 0x2b, 0x6d, 0x00, 0x8b, 0x1f, 0x73, 0x09, 0x9b, 0x37,
  0x66, 0x06, 0x9b, 0x2b, 0x66, 0x00, 0x9b, 0x1f, 0x66, 0x0c, 0x8b, 0x37,
  0x66, 0x05, 0x8b, 0x1f, 0x66, 0x00, 0x8b, 0x2b, 0x66, 0x09, 0x9b, 0x37,
  0x70, 0x06, 0x9b, 0x1f, 0x74, 0x00, 0x9b, 0x2b, 0x71, 0x0c, 0x8b, 0x37,
  0x70, 0x07, 0x8b, 0x2b, 0x71, 0x00, 0x8b, 0x1f, 0x74, 0x05, 0x9b, 0x37,
  0x6c, 0x06, 0x9b, 0x2b, 0x71, 0x00, 0x9b, 0x1f, 0x74, 0x0c, 0x8b, 0x37,
  0x6c, 0x07, 0x8b, 0x1f, 0x74, 0x00, 0x8b, 0x2b, 0x71, 0x4b, 0x9b, 0x37,
  0x70, 0x04, 0x9b, 0x1f, 0x70, 0x00, 0x9b, 0x2b, 0x6b, 0x0e, 0x8b, 0x37,
  0x70, 0x03, 0x8b, 0x2b, 0x6b, 0x00, 0x8b, 0x1f, 0x70, 0x0b, 0x9b, 0x37,
  0x71, 0x03, 0x9b, 0x2b, 0x66, 0x00, 0x9b, 0x1f, 0x67, 0x10, 0x8b, 0x37,
  0x71, 0x01, 0x8b, 0x1f, 0x67, 0x00, 0x8b, 0x2b, 0x66, 0x0b, 0x9b, 0x37,
  0x66, 0x04, 0x9b, 0x1f, 0x70, 0x00, 0x9b, 0x2b, 0x6b, 0x0e, 0x8b, 0x37,
  0x66, 0x07, 0x8b, 0x2b, 0x6b, 0x00, 0x8b, 0x1f, 0x70, 0x05, 0x9b, 0x36,
  0x6b, 0x05, 0x9b, 0x27, 0x6b, 0x00, 0x9b, 0x1b, 0x70, 0x0f, 0x8b, 0x36,
  0x6b, 0x02, 0x8b, 0x1b, 0x70, 0x00, 0x8b, 0x27, 0x6b, 0x09, 0x9b, 0x36,
  0x6e, 0x06, 0x9b, 0x1b, 0x74, 0x00, 0x9b, 0x27, 0x74, 0x0f, 0x8b, 0x36,
  0x6e, 0x04, 0x8b, 0x27, 0x74, 0x00, 0x8b, 0x1b, 0x74, 0x07, 0x9b, 0x36,
  0x70, 0x06, 0x9b, 0x27, 0x74, 0x00, 0x9b, 0x1b, 0x74, 0x0c, 0x8b, 0x36,
  0x70, 0x06, 0x8b, 0x1b, 0x74, 0x00, 0x8b, 0x27, 0x74, 0x09, 0x9b, 0x36,
  0x74, 0x06, 0x9b, 0x1b, 0x74, 0x00, 0x9b, 0x27, 0x74, 0x0e, 0x8b, 0x36,
  0x74, 0x07, 0x8b, 0x27, 0x74, 0x00, 0x8b, 0x1b, 0x74, 0x45, 0x9b, 0x33,
  0x74, 0x00, 0x9b, 0x27, 0x74, 0x04, 0x9b, 0x36, 0x74, 0x12, 0x8b, 0x36,
  0x74, 0x01, 0x8b, 0x33, 0x74, 0x03, 0x8b, 0x27, 0x74, 0x81, 0x28, 0x9b,
  0x24, 0x74, 0x00, 0x9b, 0x30, 0x74, 0x01, 0x9b, 0x3a, 0x67, 0x12, 0x8b,
  0x3a, 0x67, 0x05, 0x8b, 0x30, 0x74, 0x02, 0x8b, 0x24, 0x74, 0x49, 0x9b,
  0x30, 0x74, 0x00, 0x9b, 0x24, 0x74, 0x01, 0x9b, 0x3a, 0x71, 0x12, 0x8b,
  0x3a, 0x71, 0x03, 0x8b, 0x30, 0x74, 0x03, 0x8b, 0x24, 0x74, 0x06, 0x9b,
  0x3a, 0x66, 0x01, 0x9b, 0x24, 0x6a, 0x00, 0x9b, 0x30, 0x6a, 0x11, 0x8b,
  0x3a, 0x66, 0x04, 0x8b, 0x30, 0x6a, 0x03, 0x8b, 0x24, 0x6a, 0x07, 0x9b,
  0x30, 0x74, 0x00, 0x9b, 0x24, 0x74, 0x00, 0x9b, 0x3a, 0x6e, 0x12, 0x8b,
  0x3a, 0x6e, 0x04, 0x8b, 0x30, 0x74, 0x04, 0x8b, 0x24, 0x74, 0x03, 0x9b,
  0x37, 0x73, 0x01, 0x9b, 0x1f, 0x74, 0x00, 0x9b, 0x2b, 0x74, 0x11, 0x8b,
  0x2b, 0x74, 0x00, 0x8b, 0x1f, 0x74, 0x01, 0x8b, 0x37, 0x73, 0x50, 0x9b,
  0x37, 0x73, 0x12, 0x8b, 0x37, 0x73, 0x0e, 0x9b, 0x2b, 0x66, 0x00, 0x9b,
  0x1f, 0x66, 0x00, 0x9b, 0x37, 0x68, 0x12, 0x8b, 0x1f, 0x66, 0x00, 0x8b,
  0x2b, 0x66, 0x02, 0x8b, 0x37, 0x68, 0x0b, 0x9b, 0x1f, 0x6e, 0x00, 0x9b,
  0x2b, 0x6a, 0x01, 0x9b, 0x37, 0x67, 0x12, 0x8b, 0x37, 0x67, 0x03, 0x8b,
  0x2b, 0x6a, 0x00, 0x8b, 0x1f, 0x6e, 0x0a, 0x9b, 0x37, 0x68, 0x01, 0x9b,
  0x2b, 0x67, 0x00, 0x9b, 0x1f, 0x6c, 0x12, 0x8b, 0x37, 0x68, 0x01, 0x8b,
  0x1f, 0x6c, 0x00, 0x8b, 0x2b, 0x67, 0x0c, 0x9b, 0x1f, 0x6c, 0x00, 0x9b,
  0x2b, 0x67, 0x00, 0x9b, 0x37, 0x6e, 0x13, 0x8b, 0x37, 0x6e, 0x03, 0x8b,
  0x2b, 0x67, 0x00, 0x8b, 0x1f, 0x6c, 0x08, 0x9b, 0x37, 0x67, 0x01, 0x9b,
  0x2b, 0x71, 0x00, 0x9b, 0x1f, 0x74, 0x11, 0x8b, 0x37, 0x67, 0x03, 0x8b,
  0x1f, 0x74, 0x00, 0x8b, 0x2b, 0x71, 0x0c, 0x9b, 0x1f, 0x74, 0x00, 0x9b,
  0x2b, 0x74, 0x01, 0x9b, 0x37, 0x74, 0x12, 0x8b, 0x37, 0x74, 0x03, 0x8b,
  0x2b, 0x74, 0x00, 0x8b, 0x1f, 0x74, 0x4a, 0x9b, 0x2b, 0x74, 0x00, 0x9b,
  0x1f, 0x74, 0x04, 0x9b, 0x37, 0x74, 0x0f, 0x8b, 0x1f, 0x74, 0x00, 0x8b,
  0x2b, 0x74, 0x03, 0x8b, 0x37, 0x74, 0x81, 0x2a, 0x9b, 0x37, 0x6a, 0x02,
  0x9b, 0x1f, 0x74, 0x00, 0x9b, 0x2b, 0x74, 0x12, 0x8b, 0x37, 0x6a, 0x01,
  0x8b, 0x2b, 0x74, 0x00, 0x8b, 0x1f, 0x74, 0x4d, 0x9b, 0x37, 0x6d, 0x04,
  0x9b, 0x2b, 0x74, 0x00, 0x9b, 0x1f, 0x74, 0x0e, 0x8b, 0x37, 0x6d, 0x03,
  0x8b, 0x1f, 0x74, 0x00, 0x8b, 0x2b, 0x74, 0x0a, 0x9b, 0x37, 0x68, 0x05,
  0x9b, 0x1f, 0x6a, 0x00, 0x9b, 0x2b, 0x66, 0x0d, 0x8b, 0x37, 0x68, 0x04,
  0x8b, 0x2b, 0x66, 0x00, 0x8b, 0x1f, 0x6a, 0x0a, 0x9b, 0x37, 0x73, 0x04,
  0x9b, 0x2b, 0x74, 0x00, 0x9b, 0x1f, 0x74, 0x0e, 0x8b, 0x37, 0x73, 0x04,
  0x8b, 0x1f, 0x74, 0x00, 0x8b, 0x2b, 0x74, 0x09, 0x9b, 0x37, 0x68, 0x03,
  0x9b, 0x1f, 0x6c, 0x00, 0x9b, 0x2b, 0x67, 0x0f, 0x8b, 0x37, 0x68, 0x02,
  0x8b, 0x2b, 0x67, 0x00, 0x8b, 0x1f, 0x6c, 0x4c, 0x9b, 0x37, 0x70, 0x02,
  0x9b, 0x2b, 0x74, 0x00, 0x9b, 0x1f, 0x74, 0x10, 0x8b, 0x37, 0x70, 0x02,
  0x8b, 0x1f, 0x74, 0x00, 0x8b, 0x2b, 0x74, 0x0c, 0x9b, 0x37, 0x66, 0x03,
  0x9b, 0x1f, 0x66, 0x00, 0x9b, 0x2b, 0x66, 0x10, 0x8b, 0x37, 0x66, 0x02,
  0x8b, 0x2b, 0x66, 0x00, 0x8b, 0x1f, 0x66, 0x0b, 0x9b, 0x37, 0x66, 0x01,
  0x9b, 0x2b, 0x6b, 0x00, 0x9b, 0x1f, 0x70, 0x14, 0x8b, 0x37, 0x66, 0x01,
  0x8b, 0x1f, 0x70, 0x00, 0x8b, 0x2b, 0x6b, 0x0a, 0x9b, 0x36, 0x66, 0x02,
  0x9b, 0x1b, 0x66, 0x00, 0x9b, 0x27, 0x66, 0x10, 0x8b, 0x27, 0x66, 0x00,
  0x8b, 0x1b, 0x66, 0x00, 0x8b, 0x36, 0x66, 0x0e, 0x9b, 0x27, 0x6a, 0x00,
  0x9b, 0x1b, 0x6e, 0x00, 0x9b, 0x36, 0x72, 0x13, 0x8b, 0x36, 0x72, 0x03,
  0x8b, 0x1b, 0x6e, 0x00, 0x8b, 0x27, 0x6a, 0x08, 0x9b, 0x36, 0x6e, 0x01,
  0x9b, 0x1b, 0x74, 0x00, 0x9b, 0x27, 0x74, 0x11, 0x8b, 0x36, 0x6e, 0x01,
  0x8b, 0x27, 0x74, 0x00, 0x8b, 0x1b, 0x74, 0x0f, 0x9b, 0x36, 0x74, 0x01,
  0x9b, 0x27, 0x74, 0x00, 0x9b, 0x1b, 0x74, 0x11, 0x8b, 0x36, 0x74, 0x04,
  0x8b, 0x1b, 0x74, 0x00, 0x8b, 0x27, 0x74, 0x4a, 0x9b, 0x31, 0x74, 0x02,
  0x9b, 0x3d, 0x68, 0x04, 0x9b, 0x25, 0x74, 0x0d, 0x8b, 0x31, 0x74, 0x01,
  0x8b, 0x3d, 0x68, 0x05, 0x8b, 0x25, 0x74, 0x81, 0x24, 0x9b, 0x31, 0x74,
  0x04, 0x9b, 0x25, 0x74, 0x01, 0x9b, 0x3d, 0x72, 0x0c, 0x8b, 0x31, 0x74,
  0x04, 0x8b, 0x25, 0x74, 0x02, 0x8b, 0x3d, 0x72, 0x4d, 0x9b, 0x3d, 0x71,
  0x01, 0x9b, 0x25, 0x71, 0x00, 0x9b, 0x31, 0x6c, 0x11, 0x8b, 0x3d, 0x71,
  0x01, 0x8b, 0x31, 0x6c, 0x00, 0x8b, 0x25, 0x71, 0x0c, 0x9b, 0x3d, 0x66,
  0x01, 0x9b, 0x31, 0x66, 0x00, 0x9b, 0x25, 0x66, 0x11, 0x8b, 0x3d, 0x66,
  0x01, 0x8b, 0x25, 0x66, 0x00, 0x8b, 0x31, 0x66, 0x0d, 0x9b, 0x3d, 0x73,
  0x01, 0x9b, 0x25, 0x74, 0x00, 0x9b, 0x31, 0x74, 0x13, 0x8b, 0x31, 0x74,
  0x00, 0x8b, 0x25, 0x74, 0x00, 0x8b, 0x3d, 0x73, 0x0a, 0x9b, 0x3d, 0x6b,
  0x03, 0x9b, 0x31, 0x67, 0x00, 0x9b, 0x25, 0x6c, 0x11, 0x8b, 0x3d, 0x6b,
  0x01, 0x8b, 0x25, 0x6c, 0x00, 0x8b, 0x31, 0x67, 0x4b, 0x9b, 0x25, 0x74,
  0x00, 0x9b, 0x31, 0x74, 0x05, 0x9b, 0x3d, 0x74, 0x0f, 0x8b, 0x31, 0x74,
  0x00, 0x8b, 0x25, 0x74, 0x04, 0x8b, 0x3d, 0x74, 0x09, 0x9b, 0x31, 0x66,
  0x00, 0x9b, 0x25, 0x67, 0x03, 0x9b, 0x3d, 0x6e, 0x0f, 0x8b, 0x25, 0x67,
  0x00, 0x8b, 0x31, 0x66, 0x05, 0x8b, 0x3d, 0x6e, 0x0a, 0x9b, 0x25, 0x74,
  0x00, 0x9b, 0x31, 0x73, 0x02, 0x9b, 0x3d, 0x74, 0x12, 0x8b, 0x31, 0x73,
  0x00, 0x8b, 0x25, 0x74, 0x02, 0x8b, 0x3d, 0x74, 0x0a, 0x9b, 0x31, 0x6d,
  0x00, 0x9b, 0x25, 0x73, 0x02, 0x9b, 0x3d, 0x69, 0x10, 0x8b, 0x25, 0x73,
  0x00, 0x8b, 0x31, 0x6d, 0x02, 0x8b, 0x3d, 0x69, 0x0c, 0x9b, 0x25, 0x74,
  0x00, 0x9b, 0x31, 0x74, 0x03, 0x9b, 0x3d, 0x71, 0x12, 0x8b, 0x31, 0x74,
  0x00, 0x8b, 0x25, 0x74, 0x03, 0x8b, 0x3d, 0x71, 0x07, 0x9b, 0x31, 0x71,
  0x00, 0x9b, 0x25, 0x74, 0x03, 0x9b, 0x3d, 0x67, 0x0f, 0x8b, 0x25, 0x74,
  0x00, 0x8b, 0x31, 0x71, 0x05, 0x8b, 0x3d, 0x67, 0x0a, 0x9b, 0x25, 0x74,
  0x00, 0x9b, 0x31, 0x74, 0x04, 0x9b, 0x3d, 0x73, 0x10, 0x8b, 0x31, 0x74,
  0x00, 0x8b, 0x25, 0x74, 0x04, 0x8b, 0x3d, 0x73, 0x48, 0x9b, 0x33, 0x74,
  0x04, 0x9b, 0x27, 0x74, 0x02, 0x9b, 0x3a, 0x74, 0x0d, 0x8b, 0x33, 0x74,
  0x02, 0x8b, 0x27, 0x74, 0x03, 0x8b, 0x3a, 0x74, 0x81, 0x25, 0x9b, 0x3a,
  0x74, 0x00, 0x9b, 0x27, 0x74, 0x00, 0x9b, 0x33, 0x74, 0x11, 0x8b, 0x33,
  0x74, 0x00, 0x8b, 0x27, 0x74, 0x00, 0x8b, 0x3a, 0x74, 0x54, 0x9b, 0x33,
  0x6c, 0x00, 0x9b, 0x27, 0x6c, 0x00, 0x9b, 0x3a, 0x6c, 0x12, 0x8b, 0x3a,
  0x6c, 0x00, 0x8b, 0x27, 0x6c, 0x00, 0x8b, 0x33, 0x6c, 0x0d, 0x9b, 0x3a,
  0x66, 0x00, 0x9b, 0x27, 0x66, 0x00, 0x9b, 0x33, 0x66, 0x12, 0x8b, 0x33,
  0x66, 0x00, 0x8b, 0x27, 0x66, 0x00, 0x8b, 0x3a, 0x66, 0x0c, 0x9b, 0x33,
  0x74, 0x02, 0x9b, 0x27, 0x74, 0x00, 0x9b, 0x3a, 0x74, 0x11, 0x8b, 0x33,
  0x74, 0x02, 0x8b, 0x3a, 0x74, 0x00, 0x8b, 0x27, 0x74, 0x0d, 0x9b, 0x3a,
  0x67, 0x00, 0x9b, 0x26, 0x67, 0x00, 0x9b, 0x32, 0x67, 0x12, 0x8b, 0x3a,
  0x67, 0x17, 0x8b, 0x32, 0x67, 0x0a, 0x8b, 0x26, 0x67, 0x81, 0x0c, 0x9b,
  0x30, 0x6d, 0x00, 0x9b, 0x24, 0x6d, 0x00, 0x9b, 0x3a, 0x6d, 0x12, 0x8b,
  0x3a, 0x6d, 0x00, 0x8b, 0x24, 0x6d, 0x00, 0x8b, 0x30, 0x6d, 0x0e, 0x9b,
  0x3a, 0x74, 0x00, 0x9b, 0x24, 0x74, 0x00, 0x9b, 0x30, 0x74, 0x15, 0x8b,
  0x30, 0x74, 0x00, 0x8b, 0x24, 0x74, 0x00, 0x8b, 0x3a, 0x74, 0x0a, 0x9b,
  0x30, 0x71, 0x00, 0x9b, 0x24, 0x71, 0x00, 0x9b, 0x3a, 0x71, 0x12, 0x8b,
  0x3a, 0x71, 0x00, 0x8b, 0x24, 0x71, 0x00, 0x8b, 0x30, 0x71, 0x0f, 0x9b,
  0x3a, 0x74, 0x00, 0x9b, 0x24, 0x74, 0x00, 0x9b, 0x30, 0x74, 0x14, 0x8b,
  0x30, 0x74, 0x00, 0x8b, 0x24, 0x74, 0x00, 0x8b, 0x3a, 0x74, 0x4e, 0x9b,
  0x2b, 0x74, 0x00, 0x9b, 0x1f, 0x74, 0x00, 0x9b, 0x37, 0x74, 0x13, 0x8b,
  0x37, 0x74, 0x00, 0x8b, 0x1f, 0x74, 0x00, 0x8b, 0x2b, 0x74, 0x81, 0x2b,
  0x9b, 0x37, 0x6d, 0x00, 0x9b, 0x27, 0x74, 0x00, 0x9b, 0x33, 0x6d, 0x12,
  0x8b, 0x33, 0x6d, 0x00, 0x8b, 0x27, 0x74, 0x00, 0x8b, 0x37, 0x6d, 0x0e,
  0x9b, 0x33, 0x74, 0x00, 0x9b, 0x27, 0x74, 0x00, 0x9b, 0x37, 0x74, 0x15,
  0x8b, 0x37, 0x74, 0x00, 0x8b, 0x27, 0x74, 0x00, 0x8b, 0x33, 0x74, 0x0a,
  0x9b, 0x37, 0x71, 0x00, 0x9b, 0x27, 0x74, 0x00, 0x9b, 0x33, 0x71, 0x12,
  0x8b, 0x33, 0x71, 0x00, 0x8b, 0x27, 0x74, 0x00, 0x8b, 0x37, 0x71, 0x0f,
  0x9b, 0x33, 0x74, 0x00, 0x9b, 0x37, 0x74, 0x02, 0x9b, 0x27, 0x74, 0x12,
  0x8b, 0x37, 0x74, 0x00, 0x8b, 0x33, 0x74, 0x02, 0x8b, 0x27, 0x74, 0x4f,
  0x9b, 0x1f, 0x67, 0x00, 0x9b, 0x2b, 0x67, 0x00, 0x9b, 0x37, 0x67, 0x11,
  0x8b, 0x37, 0x67, 0x00, 0x8b, 0x2b, 0x67, 0x00, 0x8b, 0x1f, 0x67, 0x4d,
  0x9b, 0x37, 0x74, 0x00, 0x9b, 0x2b, 0x74, 0x00, 0x9b, 0x1f, 0x74, 0x12,
  0x8b, 0x1f, 0x74, 0x00, 0x8b, 0x2b, 0x74, 0x00, 0x8b, 0x37, 0x74, 0x0e,
  0x9b, 0x1f, 0x66, 0x00, 0x9b, 0x2b, 0x66, 0x00, 0x9b, 0x37, 0x66, 0x12,
  0x8b, 0x37, 0x66, 0x00, 0x8b, 0x2b, 0x66, 0x00, 0x8b, 0x1f, 0x66, 0x0d,
  0x9b, 0x37, 0x6b, 0x00, 0x9b, 0x2b, 0x6b, 0x00, 0x9b, 0x1f, 0x6b, 0x11,
  0x8b, 0x37, 0x6b, 0x04, 0x8b, 0x1f, 0x6b, 0x00, 0x8b, 0x2b, 0x6b, 0x0c,
  0x9b, 0x1f, 0x66, 0x00, 0x9b, 0x2b, 0x66, 0x00, 0x9b, 0x37, 0x66, 0x0f,
  0x8b, 0x37, 0x66, 0x00, 0x8b, 0x2b, 0x66, 0x00, 0x8b, 0x1f, 0x66, 0x10,
  0x9b, 0x37, 0x6a, 0x00, 0x9b, 0x2b, 0x6a, 0x00, 0x9b, 0x1f, 0x6a, 0x14,
  0x8b, 0x1f, 0x6a, 0x00, 0x8b, 0x2b, 0x6a, 0x00, 0x8b, 0x37, 0x6a, 0x0b,
  0x9b, 0x1f, 0x74, 0x00, 0x9b, 0x2b, 0x74, 0x00, 0x9b, 0x37, 0x74, 0x12,
  0x8b, 0x37, 0x74, 0x00, 0x8b, 0x2b, 0x74, 0x00, 0x8b, 0x1f, 0x74, 0x10,
  0x9b, 0x37, 0x74, 0x00, 0x9b, 0x2b, 0x66, 0x00, 0x9b, 0x1f, 0x66, 0x0f,
  0x8b, 0x1f, 0x66, 0x00, 0x8b, 0x2b, 0x66, 0x06, 0x8b, 0x37, 0x74, 0x0a,
  0x9b, 0x1f, 0x6a, 0x00, 0x9b, 0x2b, 0x6a, 0x14, 0x8b, 0x2b, 0x6a, 0x00,
  0x8b, 0x1f, 0x6a, 0x0b, 0x9b, 0x2b, 0x74, 0x00, 0x9b, 0x1f, 0x74, 0x12,
  0x8b, 0x1f, 0x74, 0x00, 0x8b, 0x2b, 0x74, 0x0d, 0x9b, 0x27, 0x74, 0x00,
  0x9b, 0x33, 0x74, 0x04, 0x9b, 0x37, 0x74, 0x0f, 0x8b, 0x33, 0x74, 0x00,
  0x8b, 0x27, 0x74, 0x03, 0x8b, 0x37, 0x74, 0x81, 0x2a, 0x9b, 0x37, 0x6a,
  0x02, 0x9b, 0x33, 0x74, 0x00, 0x9b, 0x27, 0x74, 0x12, 0x8b, 0x37, 0x6a,
  0x01, 0x8b, 0x27, 0x74, 0x00, 0x8b, 0x33, 0x74, 0x4d, 0x9b, 0x37, 0x6d,
  0x04, 0x9b, 0x27, 0x74, 0x00, 0x9b, 0x33, 0x74, 0x0e, 0x8b, 0x37, 0x6d,
  0x03, 0x8b, 0x33, 0x74, 0x00, 0x8b, 0x27, 0x74, 0x0a, 0x9b, 0x37, 0x68,
  0x05, 0x9b, 0x33, 0x66, 0x00, 0x9b, 0x27, 0x6a, 0x0d, 0x8b, 0x37, 0x68,
  0x04, 0x8b, 0x27, 0x6a, 0x00, 0x8b, 0x33, 0x66, 0x0a, 0x9b, 0x37, 0x73,
  0x04, 0x9b, 0x27, 0x74, 0x00, 0x9b, 0x33, 0x74, 0x0e, 0x8b, 0x37, 0x73,
  0x04, 0x8b, 0x33, 0x74, 0x00, 0x8b, 0x27, 0x74, 0x09, 0x9b, 0x37, 0x68,
  0x03, 0x9b, 0x2b, 0x67, 0x00, 0x9b, 0x1f, 0x6c, 0x0f, 0x8b, 0x37, 0x68,
  0x02, 0x8b, 0x1f, 0x6c, 0x00, 0x8b, 0x2b, 0x67, 0x4c, 0x9b, 0x37, 0x70,
  0x02, 0x9b, 0x1f, 0x74, 0x00, 0x9b, 0x2b, 0x74, 0x10, 0x8b, 0x37, 0x70,
  0x02, 0x8b, 0x2b, 0x74, 0x00, 0x8b, 0x1f, 0x74, 0x0c, 0x9b, 0x37, 0x66,
  0x03, 0x9b, 0x2b, 0x66, 0x00, 0x9b, 0x1f, 0x66, 0x10, 0x8b, 0x37, 0x66,
  0x02, 0x8b, 0x1f, 0x66, 0x00, 0x8b, 0x2b, 0x66, 0x0b, 0x9b, 0x37, 0x66,
  0x01, 0x9b, 0x1f, 0x70, 0x00, 0x9b, 0x2b, 0x6b, 0x14, 0x8b, 0x37, 0x66,
  0x01, 0x8b, 0x2b, 0x6b, 0x00, 0x8b, 0x1f, 0x70, 0x0a, 0x9b, 0x36, 0x66,
  0x02, 0x9b, 0x27, 0x66, 0x00, 0x9b, 0x1b, 0x66, 0x10, 0x8b, 0x1b, 0x66,
  0x00, 0x8b, 0x27, 0x66, 0x00, 0x8b, 0x36, 0x66, 0x0e, 0x9b, 0x1b, 0x6e,
  0x00, 0x9b, 0x27, 0x6a, 0x00, 0x9b, 0x36, 0x72, 0x13, 0x8b, 0x36, 0x72,
  0x03, 0x8b, 0x27, 0x6a, 0x00, 0x8b, 0x1b, 0x6e, 0x08, 0x9b, 0x36, 0x6e,
  0x01, 0x9b, 0x27, 0x74, 0x00, 0x9b, 0x1b, 0x74, 0x11, 0x8b, 0x36, 0x6e,
  0x01, 0x8b, 0x1b, 0x74, 0x00, 0x8b, 0x27, 0x74, 0x0f, 0x9b, 0x36, 0x74,
  0x01, 0x9b, 0x1b, 0x74, 0x00, 0x9b, 0x27, 0x74, 0x11, 0x8b, 0x36, 0x74,
  0x04, 0x8b, 0x27, 0x74, 0x00, 0x8b, 0x1b, 0x74, 0x4a, 0x9b, 0x31, 0x74,
  0x02, 0x9b, 0x3d, 0x68, 0x04, 0x9b, 0x25, 0x74, 0x0d, 0x8b, 0x31, 0x74,
  0x01, 0x8b, 0x3d, 0x68, 0x05, 0x8b, 0x25, 0x74, 0x81, 0x24, 0x9b, 0x31,
  0x74, 0x04, 0x9b, 0x25, 0x74, 0x01, 0x9b, 0x3d, 0x72, 0x0c, 0x8b, 0x31,
  0x74, 0x04, 0x8b, 0x25, 0x74, 0x02, 0x8b, 0x3d, 0x72, 0x4d, 0x9b, 0x3d,
  0x71, 0x01, 0x9b, 0x25, 0x71, 0x00, 0x9b, 0x31, 0x6c, 0x11, 0x8b, 0x3d,
  0x71, 0x01, 0x8b, 0x31, 0x6c, 0x00, 0x8b, 0x25, 0x71, 0x0c, 0x9b, 0x3d,
  0x66, 0x01, 0x9b, 0x31, 0x66, 0x00, 0x9b, 0x25, 0x66, 0x11, 0x8b, 0x3d,
  0x66, 0x01, 0x8b, 0x25, 0x66, 0x00, 0x8b, 0x31, 0x66, 0x0d, 0x9b, 0x3d,
  0x73, 0x01, 0x9b, 0x25, 0x74, 0x00, 0x9b, 0x31, 0x74, 0x13, 0x8b, 0x31,
  0x74, 0x00, 0x8b, 0x25, 0x74, 0x00, 0x8b, 0x3d, 0x73, 0x0a, 0x9b, 0x3d,
  0x6b, 0x03, 0x9b, 0x31, 0x67, 0x00, 0x9b, 0x25, 0x6c, 0x11, 0x8b, 0x3d,
  0x6b, 0x01, 0x8b, 0x25, 0x6c, 0x00, 0x8b, 0x31, 0x67, 0x4b, 0x9b, 0x25,
  0x74, 0x00, 0x9b, 0x31, 0x74, 0x05, 0x9b, 0x3d, 0x74, 0x0f, 0x8b, 0x31,
  0x74, 0x00, 0x8b, 0x25, 0x74, 0x04, 0x8b, 0x3d, 0x74, 0x09, 0x9b, 0x31,
  0x66, 0x00, 0x9b, 0x25, 0x67, 0x03, 0x9b, 0x3d, 0x6e, 0x0f, 0x8b, 0x25,
  0x67, 0x00, 0x8b, 0x31, 0x66, 0x05, 0x8b, 0x3d, 0x6e, 0x0a, 0x9b, 0x25,
  0x74, 0x00, 0x9b, 0x31, 0x73, 0x02, 0x9b, 0x3d, 0x74, 0x12, 0x8b, 0x31,
  0x73, 0x00, 0x8b, 0x25, 0x74, 0x02, 0x8b, 0x3d, 0x74, 0x0a, 0x9b, 0x31,
  0x6d, 0x00, 0x9b, 0x25, 0x73, 0x02, 0x9b, 0x3d, 0x69, 0x10, 0x8b, 0x25,
  0x73, 0x00, 0x8b, 0x31, 0x6d, 0x02, 0x8b, 0x3d, 0x69, 0x0c, 0x9b, 0x25,
  0x74, 0x00, 0x9b, 0x31, 0x74, 0x03, 0x9b, 0x3d, 0x71, 0x12, 0x8b, 0x31,
  0x74, 0x00, 0x8b, 0x25, 0x74, 0x03, 0x8b, 0x3d, 0x71, 0x07, 0x9b, 0x31,
  0x71, 0x00, 0x9b, 0x25, 0x74, 0x03, 0x9b, 0x3d, 0x67, 0x0f, 0x8b, 0x25,
  0x74, 0x00, 0x8b, 0x31, 0x71, 0x05, 0x8b, 0x3d, 0x67, 0x0a, 0x9b, 0x25,
  0x74, 0x00, 0x9b, 0x31, 0x74, 0x04, 0x9b, 0x3d, 0x73, 0x10, 0x8b, 0x31,
  0x74, 0x00, 0x8b, 0x25, 0x74, 0x04, 0x8b, 0x3d, 0x73, 0x48, 0x9b, 0x33,
  0x74, 0x04, 0x9b, 0x27, 0x74, 0x02, 0x9b, 0x3a, 0x74, 0x0d, 0x8b, 0x33,
  0x74, 0x02, 0x8b, 0x27, 0x74, 0x03, 0x8b, 0x3a, 0x74, 0x81, 0x25, 0x9b,
  0x3a, 0x74, 0x00, 0x9b, 0x27, 0x74, 0x00, 0x9b, 0x33, 0x74, 0x11, 0x8b,
  0x33, 0x74, 0x00, 0x8b, 0x27, 0x74, 0x00, 0x8b, 0x3a, 0x74, 0x54, 0x9b,
  0x33, 0x6c, 0x00, 0x9b, 0x27, 0x6c, 0x00, 0x9b, 0x3a, 0x6c, 0x12, 0x8b,
  0x3a, 0x6c, 0x00, 0x8b, 0x27, 0x6c, 0x00, 0x8b, 0x33, 0x6c, 0x0d, 0x9b,
  0x3a, 0x66, 0x00, 0x9b, 0x27, 0x66, 0x00, 0x9b, 0x33, 0x66, 0x12, 0x8b,
  0x33, 0x66, 0x00, 0x8b, 0x27, 0x66, 0x00, 0x8b, 0x3a, 0x66, 0x0e, 0x9b,
  0x33, 0x74, 0x00, 0x9b, 0x27, 0x74, 0x00, 0x9b, 0x3a, 0x74, 0x13, 0x8b,
  0x3a, 0x74, 0x00, 0x8b, 0x27, 0x74, 0x00, 0x8b, 0x33, 0x74, 0x0d, 0x9b,
  0x3a, 0x67, 0x00, 0x9b, 0x27, 0x67, 0x00, 0x9b, 0x33, 0x67, 0x12, 0x8b,
  0x33, 0x67, 0x00, 0x8b, 0x27, 0x67, 0x00, 0x8b, 0x3a, 0x67, 0x81, 0x2d,
  0x9b, 0x30, 0x6d, 0x00, 0x9b, 0x24, 0x6d, 0x00, 0x9b, 0x3a, 0x6d, 0x12,
  0x8b, 0x3a, 0x6d, 0x00, 0x8b, 0x24, 0x6d, 0x00, 0x8b, 0x30, 0x6d, 0x0e,
  0x9b, 0x3a, 0x74, 0x00, 0x9b, 0x24, 0x74, 0x00, 0x9b, 0x30, 0x74, 0x15,
  0x8b, 0x30, 0x74, 0x00, 0x8b, 0x24, 0x74, 0x00, 0x8b, 0x3a, 0x74, 0x0a,
  0x9b, 0x30, 0x71, 0x00, 0x9b, 0x24, 0x71, 0x00, 0x9b, 0x3a, 0x71, 0x12,
  0x8b, 0x3a, 0x71, 0x00, 0x8b, 0x24, 0x71, 0x00, 0x8b, 0x30, 0x71, 0x0f,
  0x9b, 0x3a, 0x74, 0x00, 0x9b, 0x24, 0x74, 0x00, 0x9b, 0x30, 0x74, 0x14,
  0x8b, 0x30, 0x74, 0x00, 0x8b, 0x24, 0x74, 0x00, 0x8b, 0x3a, 0x74, 0x4e,
  0x9b, 0x2b, 0x74, 0x00, 0x9b, 0x1f, 0x74, 0x00, 0x9b, 0x37, 0x74, 0x13,
  0x8b, 0x37, 0x74, 0x00, 0x8b, 0x1f, 0x74, 0x00, 0x8b, 0x2b, 0x74, 0x81,
  0x2b, 0x9b, 0x3a, 0x6d, 0x00, 0x9b, 0x27, 0x6d, 0x00, 0x9b, 0x33, 0x6d,
  0x12, 0x8b, 0x33, 0x6d, 0x00, 0x8b, 0x27, 0x6d, 0x00, 0x8b, 0x3a, 0x6d,
  0x0e, 0x9b, 0x33, 0x74, 0x00, 0x9b, 0x27, 0x74, 0x00, 0x9b, 0x3a, 0x74,
  0x15, 0x8b, 0x3a, 0x74, 0x00, 0x8b, 0x27, 0x74, 0x00, 0x8b, 0x33, 0x74,
  0x0a, 0x9b, 0x3a, 0x71, 0x00, 0x9b, 0x27, 0x71, 0x00, 0x9b, 0x33, 0x71,
  0x12, 0x8b, 0x33, 0x71, 0x00, 0x8b, 0x27, 0x71, 0x00, 0x8b, 0x3a, 0x71,
  0x0f, 0x9b, 0x33, 0x74, 0x00, 0x9b, 0x27, 0x74, 0x00, 0x9b, 0x3a, 0x74,
  0x14, 0x8b, 0x3a, 0x74, 0x00, 0x8b, 0x27, 0x74, 0x00, 0x8b, 0x33, 0x74,
  0x51, 0x9b, 0x37, 0x67, 0x00, 0x9b, 0x1f, 0x67, 0x00, 0x9b, 0x2b, 0x67,
  0x11, 0x8b, 0x2b, 0x67, 0x00, 0x8b, 0x1f, 0x67, 0x00, 0x8b, 0x37, 0x67,
  0x4d, 0x9b, 0x2b, 0x74, 0x00, 0x9b, 0x1f, 0x74, 0x00, 0x9b, 0x37, 0x74,
  0x12, 0x8b, 0x37, 0x74, 0x00, 0x8b, 0x1f, 0x74, 0x00, 0x8b, 0x2b, 0x74,
  0x0d, 0x9b, 0x37, 0x66, 0x00, 0x9b, 0x1f, 0x66, 0x00, 0x9b, 0x2b, 0x66,
  0x12, 0x8b, 0x2b, 0x66, 0x00, 0x8b, 0x1f, 0x66, 0x00, 0x8b, 0x37, 0x66,
  0x0e, 0x9b, 0x2b, 0x6b, 0x00, 0x9b, 0x1f, 0x6b, 0x00, 0x9b, 0x37, 0x6b,
  0x11, 0x8b, 0x37, 0x6b, 0x04, 0x8b, 0x1f, 0x6b, 0x00, 0x8b, 0x2b, 0x6b,
  0x0c, 0x9b, 0x37, 0x66, 0x00, 0x9b, 0x1f, 0x66, 0x00, 0x9b, 0x2b, 0x66,
  0x0f, 0x8b, 0x2b, 0x66, 0x00, 0x8b, 0x1f, 0x66, 0x00, 0x8b, 0x37, 0x66,
  0x10, 0x9b, 0x2b, 0x6a, 0x00, 0x9b, 0x1f, 0x6a, 0x00, 0x9b, 0x37, 0x6a,
  0x14, 0x8b, 0x37, 0x6a, 0x00, 0x8b, 0x1f, 0x6a, 0x00, 0x8b, 0x2b, 0x6a,
  0x0b, 0x9b, 0x37, 0x74, 0x00, 0x9b, 0x1f, 0x74, 0x00, 0x9b, 0x2b, 0x74,
  0x12, 0x8b, 0x2b, 0x74, 0x00, 0x8b, 0x1f, 0x74, 0x00, 0x8b, 0x37, 0x74,
  0x10, 0x9b, 0x2b, 0x74, 0x00, 0x9b, 0x1f, 0x74, 0x00, 0x9b, 0x37, 0x74,
  0x15, 0x8b, 0x37, 0x74, 0x00, 0x8b, 0x1f, 0x74, 0x00, 0x8b, 0x2b, 0x74,
  0x81, 0x2a, 0x9b, 0x37, 0x73, 0x12, 0x8b, 0x37, 0x73, 0x0e, 0x9b, 0x1f,
  0x66, 0x00, 0x9b, 0x2b, 0x66, 0x00, 0x9b, 0x37, 0x68, 0x12, 0x8b, 0x2b,
  0x66, 0x00, 0x8b, 0x1f, 0x66, 0x02, 0x8b, 0x37, 0x68, 0x0b, 0x9b, 0x2b,
  0x6a, 0x00, 0x9b, 0x1f, 0x6e, 0x01, 0x9b, 0x37, 0x67, 0x12, 0x8b, 0x37,
  0x67, 0x03, 0x8b, 0x1f, 0x6e, 0x00, 0x8b, 0x2b, 0x6a, 0x0a, 0x9b, 0x37,
  0x68, 0x01, 0x9b, 0x1f, 0x6c, 0x00, 0x9b, 0x2b, 0x67, 0x12, 0x8b, 0x37,
  0x68, 0x01, 0x8b, 0x2b, 0x67, 0x00, 0x8b, 0x1f, 0x6c, 0x0c, 0x9b, 0x2b,
  0x67, 0x00, 0x9b, 0x1f, 0x6c, 0x00, 0x9b, 0x37, 0x6e, 0x13, 0x8b, 0x37,
  0x6e, 0x03, 0x8b, 0x1f, 0x6c, 0x00, 0x8b, 0x2b, 0x67, 0x08, 0x9b, 0x37,
  0x67, 0x01, 0x9b, 0x1f, 0x74, 0x00, 0x9b, 0x2b, 0x71, 0x11, 0x8b, 0x37,
  0x67, 0x03, 0x8b, 0x2b, 0x71, 0x00, 0x8b, 0x1f, 0x74, 0x0c, 0x9b, 0x2b,
  0x74, 0x00, 0x9b, 0x1f, 0x74, 0x01, 0x9b, 0x37, 0x74, 0x12, 0x8b, 0x37,
  0x74, 0x03, 0x8b, 0x1f, 0x74, 0x00, 0x8b, 0x2b, 0x74, 0x82, 0x13, 0x9b,
  0x33, 0x42, 0x3c, 0x8b, 0x33, 0x42, 0x5d, 0x9b, 0x2e, 0x51, 0x1f, 0x8b,
  0x2e, 0x51, 0x0e, 0x9b, 0x2a, 0x56, 0x88, 0x73, 0x8b, 0x2a, 0x56, 0x02,
  0x9b, 0x24, 0x42, 0x92, 0x48, 0x8b, 0x24, 0x42, 0x89, 0x18, 0x9b, 0x26,
  0x3c, 0x71, 0x9b, 0x2b, 0x49, 0x0f, 0x8b, 0x26, 0x3c, 0x81, 0x23, 0x9b,
  0x3a, 0x3b, 0x04, 0x9b, 0x40, 0x3b, 0x81, 0x27, 0x9b, 0x2d, 0x43, 0x06,
  0x8b, 0x2b, 0x49, 0x11, 0x9b, 0x36, 0x37, 0x09, 0x8b, 0x3a, 0x3b, 0x81,
  0x62, 0x8b, 0x2d, 0x43, 0x0c, 0x9b, 0x2e, 0x4b, 0x33, 0x9b, 0x30, 0x4e,
  0x01, 0x8b, 0x2e, 0x4b, 0x3b, 0x8b, 0x30, 0x4e, 0x15, 0x8b, 0x40, 0x3b,
  0x03, 0x8b, 0x36, 0x37, 0x82, 0x7d, 0x9b, 0x1c, 0x42, 0x0a, 0x9b, 0x28,
  0x42, 0x8e, 0x1a, 0x8b, 0x1c, 0x42, 0x0a, 0x8b, 0x28, 0x42, 0x85, 0x76,
  0x9b, 0x37, 0x59, 0x04, 0x9b, 0x33, 0x62, 0x08, 0x8b, 0x37, 0x59, 0x05,
  0x8b, 0x33, 0x62, 0x0f, 0x9b, 0x37, 0x54, 0x04, 0x9b, 0x33, 0x59, 0x07,
  0x8b, 0x37, 0x54, 0x01, 0x8b, 0x33, 0x59, 0x0f, 0x9b, 0x33, 0x59, 0x03,
  0x9b, 0x37, 0x50, 0x10, 0x8b, 0x37, 0x50, 0x04, 0x8b, 0x33, 0x59, 0x0c,
  0x9b, 0x2f, 0x5d, 0x01, 0x9b, 0x38, 0x62, 0x0e, 0x8b, 0x38, 0x62, 0x05,
  0x8b, 0x2f, 0x5d, 0x0c, 0x9b, 0x38, 0x59, 0x05, 0x9b, 0x2f, 0x59, 0x07,
  0x8b, 0x38, 0x59, 0x08, 0x8b, 0x2f, 0x59, 0x0b, 0x9b, 0x38, 0x54, 0x03,
  0x9b, 0x2f, 0x59, 0x0e, 0x8b, 0x2f, 0x59, 0x04, 0x8b, 0x38, 0x54, 0x0b,
  0x9b, 0x35, 0x59, 0x04, 0x9b, 0x32, 0x5d, 0x0d, 0x8b, 0x35, 0x59, 0x04,
  0x8b, 0x32, 0x5d, 0x0c, 0x9b, 0x35, 0x50, 0x05, 0x9b, 0x32, 0x54, 0x0c,
  0x8b, 0x35, 0x50, 0x01, 0x8b, 0x32, 0x54, 0x0c, 0x9b, 0x35, 0x59, 0x04,
  0x9b, 0x32, 0x52, 0x0c, 0x8b, 0x35, 0x59, 0x0a, 0x8b, 0x32, 0x52, 0x67,
  0x9b, 0x37, 0x59, 0x08, 0x9b, 0x3f, 0x62, 0x07, 0x8b, 0x37, 0x59, 0x06,
  0x8b, 0x3f, 0x62, 0x09, 0x9b, 0x37, 0x62, 0x09, 0x9b, 0x3f, 0x59, 0x06,
  0x8b, 0x37, 0x62, 0x05, 0x8b, 0x3f, 0x59, 0x0b, 0x9b, 0x37, 0x5d, 0x07,
  0x9b, 0x3f, 0x59, 0x0b, 0x8b, 0x37, 0x5d, 0x03, 0x8b, 0x3f, 0x59, 0x0e,
  0x9b, 0x33, 0x5d, 0x04, 0x9b, 0x3e, 0x59, 0x0b, 0x8b, 0x33, 0x5d, 0x03,
  0x8b, 0x3e, 0x59, 0x10, 0x9b, 0x33, 0x62, 0x01, 0x9b, 0x3e, 0x59, 0x0c,
  0x8b, 0x33, 0x62, 0x01, 0x8b, 0x3e, 0x59, 0x0d, 0x9b, 0x33, 0x62, 0x05,
  0x9b, 0x3e, 0x54, 0x09, 0x8b, 0x33, 0x62, 0x0b, 0x8b, 0x3e, 0x54, 0x0d,
  0x9b, 0x3b, 0x54, 0x01, 0x9b, 0x36, 0x62, 0x0e, 0x8b, 0x36, 0x62, 0x02,
  0x8b, 0x3b, 0x54, 0x10, 0x9b, 0x3b, 0x59, 0x01, 0x9b, 0x36, 0x54, 0x0c,
  0x8b, 0x36, 0x54, 0x02, 0x8b, 0x3b, 0x59, 0x0c, 0x9b, 0x36, 0x59, 0x05,
  0x9b, 0x3b, 0x54, 0x09, 0x8b, 0x36, 0x59, 0x05, 0x8b, 0x3b, 0x54, 0x6d,
  0x9b, 0x43, 0x63, 0x01, 0x9b, 0x3b, 0x63, 0x0d, 0x8b, 0x3b, 0x63, 0x00,
  0x8b, 0x43, 0x63, 0x13, 0x9b, 0x3b, 0x61, 0x01, 0x9b, 0x43, 0x53, 0x0b,
  0x8b, 0x3b, 0x61, 0x01, 0x8b, 0x43, 0x53, 0x10, 0x9b, 0x43, 0x50, 0x00,
  0x9b, 0x3b, 0x53, 0x0d, 0x8b, 0x3b, 0x53, 0x06, 0x8b, 0x43, 0x50, 0x12,
  0x9b, 0x42, 0x74, 0x04, 0x9b, 0x3c, 0x5f, 0x0b, 0x8b, 0x42, 0x74, 0x02,
  0x8b, 0x3c, 0x5f, 0x09, 0x9b, 0x3c, 0x56, 0x07, 0x9b, 0x42, 0x64, 0x08,
  0x8b, 0x3c, 0x56, 0x05, 0x8b, 0x42, 0x64, 0x0b, 0x9b, 0x3c, 0x58, 0x04,
  0x9b, 0x42, 0x5c, 0x10, 0x8b, 0x3c, 0x58, 0x02, 0x8b, 0x42, 0x5c, 0x0e,
  0x9b, 0x36, 0x5d, 0x04, 0x9b, 0x3e, 0x55, 0x0b, 0x8b, 0x36, 0x5d, 0x06,
  0x8b, 0x3e, 0x55, 0x0c, 0x9b, 0x36, 0x53, 0x07, 0x9b, 0x3e, 0x53, 0x05,
  0x8b, 0x36, 0x53, 0x0b, 0x8b, 0x3e, 0x53, 0x06, 0x9b, 0x36, 0x61, 0x09,
  0x9b, 0x3e, 0x4e, 0x05, 0x8b, 0x36, 0x61, 0x0c, 0x8b, 0x3e, 0x4e, 0x06,
  0x9b, 0x41, 0x63, 0x03, 0x9b, 0x39, 0x5d, 0x0c, 0x8b, 0x41, 0x63, 0x02,
  0x8b, 0x39, 0x5d, 0x0d, 0x9b, 0x41, 0x5e, 0x02, 0x9b, 0x39, 0x55, 0x0d,
  0x8b, 0x41, 0x5e, 0x02, 0x8b, 0x39, 0x55, 0x0e, 0x9b, 0x41, 0x55, 0x03,
  0x9b, 0x39, 0x58, 0x0a, 0x8b, 0x41, 0x55, 0x0c, 0x8b, 0x39, 0x58, 0x0a,
  0x9b, 0x3f, 0x63, 0x01, 0x9b, 0x37, 0x5c, 0x0a, 0x8b, 0x3f, 0x63, 0x05,
  0x8b, 0x37, 0x5c, 0x0c, 0x9b, 0x3f, 0x55, 0x04, 0x9b, 0x37, 0x56, 0x08,
  0x8b, 0x3f, 0x55, 0x05, 0x8b, 0x37, 0x56, 0x0b, 0x9b, 0x3f, 0x58, 0x08,
  0x9b, 0x37, 0x63, 0x0c, 0x8b, 0x3f, 0x58, 0x03, 0x8b, 0x37, 0x63, 0x0d,
  0x9b, 0x3b, 0x5e, 0x04, 0x9b, 0x33, 0x63, 0x0c, 0x8b, 0x3b, 0x5e, 0x02,
  0x8b, 0x33, 0x63, 0x0e, 0x9b, 0x3b, 0x5b, 0x04, 0x9b, 0x33, 0x63, 0x0d,
  0x8b, 0x3b, 0x5b, 0x01, 0x8b, 0x33, 0x63, 0x0e, 0x9b, 0x3b, 0x4e, 0x02,
  0x9b, 0x33, 0x5d, 0x0e, 0x8b, 0x3b, 0x4e, 0x01, 0x8b, 0x33, 0x5d, 0x0c,
  0x9b, 0x38, 0x52, 0x08, 0x9b, 0x2f, 0x5e, 0x09, 0x8b, 0x38, 0x52, 0x06,
  0x8b, 0x2f, 0x5e, 0x0e, 0x9b, 0x38, 0x58, 0x03, 0x9b, 0x2f, 0x61, 0x07,
  0x8b, 0x38, 0x58, 0x07, 0x8b, 0x2f, 0x61, 0x0a, 0x9b, 0x38, 0x5b, 0x05,
  0x9b, 0x2f, 0x65, 0x09, 0x8b, 0x38, 0x5b, 0x07, 0x8b, 0x2f, 0x65, 0x0e,
  0x9b, 0x32, 0x69, 0x05, 0x9b, 0x26, 0x69, 0x4b, 0x8b, 0x32, 0x69, 0x0c,
  0x8b, 0x26, 0x69, 0x0e, 0x9b, 0x39, 0x59, 0x04, 0x9b, 0x35, 0x62, 0x08,
  0x8b, 0x39, 0x59, 0x05, 0x8b, 0x35, 0x62, 0x0f, 0x9b, 0x39, 0x54, 0x04,
  0x9b, 0x35, 0x59, 0x07, 0x8b, 0x39, 0x54, 0x01, 0x8b, 0x35, 0x59, 0x0f,
  0x9b, 0x35, 0x59, 0x03, 0x9b, 0x39, 0x50, 0x10, 0x8b, 0x39, 0x50, 0x04,
  0x8b, 0x35, 0x59, 0x0c, 0x9b, 0x31, 0x5d, 0x01, 0x9b, 0x3a, 0x62, 0x0e,
  0x8b, 0x3a, 0x62, 0x05, 0x8b, 0x31, 0x5d, 0x0c, 0x9b, 0x3a, 0x59, 0x05,
  0x9b, 0x31, 0x59, 0x07, 0x8b, 0x3a, 0x59, 0x08, 0x8b, 0x31, 0x59, 0x0b,
  0x9b, 0x3a, 0x54, 0x03, 0x9b, 0x31, 0x59, 0x0e, 0x8b, 0x31, 0x59, 0x04,
  0x8b, 0x3a, 0x54, 0x0b, 0x9b, 0x37, 0x59, 0x04, 0x9b, 0x34, 0x5d, 0x0d,
  0x8b, 0x37, 0x59, 0x04, 0x8b, 0x34, 0x5d, 0x0c, 0x9b, 0x37, 0x50, 0x05,
  0x9b, 0x34, 0x54, 0x0c, 0x8b, 0x37, 0x50, 0x01, 0x8b, 0x34, 0x54, 0x0c,
  0x9b, 0x37, 0x59, 0x04, 0x9b, 0x34, 0x52, 0x0c, 0x8b, 0x37, 0x59, 0x0a,
  0x8b, 0x34, 0x52, 0x07, 0x9b, 0x26, 0x69, 0x01, 0x9b, 0x32, 0x6d, 0x44,
  0x8b, 0x32, 0x6d, 0x07, 0x8b, 0x26, 0x69, 0x14, 0x9b, 0x39, 0x59, 0x08,
  0x9b, 0x41, 0x62, 0x07, 0x8b, 0x39, 0x59, 0x06, 0x8b, 0x41, 0x62, 0x09,
  0x9b, 0x39, 0x62, 0x09, 0x9b, 0x41, 0x59, 0x06, 0x8b, 0x39, 0x62, 0x05,
  0x8b, 0x41, 0x59, 0x0b, 0x9b, 0x39, 0x5d, 0x07, 0x9b, 0x41, 0x59, 0x0b,
  0x8b, 0x39, 0x5d, 0x03, 0x8b, 0x41, 0x59, 0x0e, 0x9b, 0x35, 0x5d, 0x04,
  0x9b, 0x40, 0x59, 0x0b, 0x8b, 0x35, 0x5d, 0x03, 0x8b, 0x40, 0x59, 0x10,
  0x9b, 0x35, 0x62, 0x01, 0x9b, 0x40, 0x59, 0x0c, 0x8b, 0x35, 0x62, 0x01,
  0x8b, 0x40, 0x59, 0x0d, 0x9b, 0x35, 0x62, 0x05, 0x9b, 0x40, 0x54, 0x09,
  0x8b, 0x35, 0x62, 0x0b, 0x8b, 0x40, 0x54, 0x0d, 0x9b, 0x3d, 0x54, 0x01,
  0x9b, 0x38, 0x62, 0x0e, 0x8b, 0x38, 0x62, 0x02, 0x8b, 0x3d, 0x54, 0x10,
  0x9b, 0x3d, 0x59, 0x01, 0x9b, 0x38, 0x54, 0x0c, 0x8b, 0x38, 0x54, 0x02,
  0x8b, 0x3d, 0x59, 0x0c, 0x9b, 0x38, 0x59, 0x05, 0x9b, 0x3d, 0x54, 0x09,
  0x8b, 0x38, 0x59, 0x05, 0x8b, 0x3d, 0x54, 0x0c, 0x9b, 0x32, 0x69, 0x01,
  0x9b, 0x26, 0x69, 0x49, 0x8b, 0x32, 0x69, 0x06, 0x8b, 0x26, 0x69, 0x11,
  0x9b, 0x45, 0x63, 0x01, 0x9b, 0x3d, 0x63, 0x0d, 0x8b, 0x3d, 0x63, 0x00,
  0x8b, 0x45, 0x63, 0x13, 0x9b, 0x3d, 0x61, 0x01, 0x9b, 0x45, 0x53, 0x0b,
  0x8b, 0x3d, 0x61, 0x01, 0x8b, 0x45, 0x53, 0x10, 0x9b, 0x45, 0x50, 0x00,
  0x9b, 0x3d, 0x53, 0x0d, 0x8b, 0x3d, 0x53, 0x06, 0x8b, 0x45, 0x50, 0x12,
  0x9b, 0x44, 0x74, 0x04, 0x9b, 0x3e, 0x5f, 0x0b, 0x8b, 0x44, 0x74, 0x02,
  0x8b, 0x3e, 0x5f, 0x09, 0x9b, 0x3e, 0x56, 0x07, 0x9b, 0x44, 0x64, 0x08,
  0x8b, 0x3e, 0x56, 0x05, 0x8b, 0x44, 0x64, 0x0b, 0x9b, 0x3e, 0x58, 0x04,
  0x9b, 0x44, 0x5c, 0x10, 0x8b, 0x3e, 0x58, 0x02, 0x8b, 0x44, 0x5c, 0x0e,
  0x9b, 0x38, 0x5d, 0x04, 0x9b, 0x40, 0x55, 0x0b, 0x8b, 0x38, 0x5d, 0x06,
  0x8b, 0x40, 0x55, 0x0c, 0x9b, 0x38, 0x53, 0x07, 0x9b, 0x40, 0x53, 0x05,
  0x8b, 0x38, 0x53, 0x0b, 0x8b, 0x40, 0x53, 0x06, 0x9b, 0x38, 0x61, 0x09,
  0x9b, 0x40, 0x4e, 0x05, 0x8b, 0x38, 0x61, 0x0c, 0x8b, 0x40, 0x4e, 0x06,
  0x9b, 0x43, 0x63, 0x03, 0x9b, 0x3b, 0x5d, 0x0c, 0x8b, 0x43, 0x63, 0x02,
  0x8b, 0x3b, 0x5d, 0x0d, 0x9b, 0x43, 0x5e, 0x02, 0x9b, 0x3b, 0x55, 0x0d,
  0x8b, 0x43, 0x5e, 0x02, 0x8b, 0x3b, 0x55, 0x0e, 0x9b, 0x43, 0x55, 0x03,
  0x9b, 0x3b, 0x58, 0x0a, 0x8b, 0x43, 0x55, 0x0c, 0x8b, 0x3b, 0x58, 0x0a,
  0x9b, 0x41, 0x63, 0x01, 0x9b, 0x39, 0x5c, 0x0a, 0x8b, 0x41, 0x63, 0x05,
  0x8b, 0x39, 0x5c, 0x0c, 0x9b, 0x41, 0x55, 0x04, 0x9b, 0x39, 0x56, 0x08,
  0x8b, 0x41, 0x55, 0x05, 0x8b, 0x39, 0x56, 0x0b, 0x9b, 0x41, 0x58, 0x08,
  0x9b, 0x39, 0x63, 0x0c, 0x8b, 0x41, 0x58, 0x03, 0x8b, 0x39, 0x63, 0x0d,
  0x9b, 0x3d, 0x5e, 0x04, 0x9b, 0x35, 0x63, 0x0c, 0x8b, 0x3d, 0x5e, 0x02,
  0x8b, 0x35, 0x63, 0x0e, 0x9b, 0x3d, 0x5b, 0x04, 0x9b, 0x35, 0x63, 0x0d,
  0x8b, 0x3d, 0x5b, 0x01, 0x8b, 0x35, 0x63, 0x0e, 0x9b, 0x3d, 0x4e, 0x02,
  0x9b, 0x35, 0x5d, 0x0e, 0x8b, 0x3d, 0x4e, 0x01, 0x8b, 0x35, 0x5d, 0x0c,
  0x9b, 0x3a, 0x52, 0x08, 0x9b, 0x31, 0x5e, 0x09, 0x8b, 0x3a, 0x52, 0x06,
  0x8b, 0x31, 0x5e, 0x0e, 0x9b, 0x3a, 0x58, 0x03, 0x9b, 0x31, 0x61, 0x07,
  0x8b, 0x3a, 0x58, 0x07, 0x8b, 0x31, 0x61, 0x0c, 0x9b, 0x3a, 0x5b, 0x07,
  0x9b, 0x31, 0x65, 0x07, 0x8b, 0x3a, 0x5b, 0x09, 0x8b, 0x31, 0x65, 0x0e,
  0x8b, 0x34, 0x59, 0x00, 0x9b, 0x34, 0x59, 0x00, 0x9b, 0x34, 0x59, 0x1e,
  0x9b, 0x35, 0x54, 0x00, 0x9b, 0x2f, 0x54, 0x0a, 0x8b, 0x34, 0x59, 0x14,
  0x8b, 0x2f, 0x54, 0x02, 0x9b, 0x37, 0x50, 0x00, 0x9b, 0x29, 0x52, 0x06,
  0x8b, 0x35, 0x54, 0x1a, 0x9b, 0x38, 0x49, 0x02, 0x9b, 0x28, 0x5d, 0x01,
  0x8b, 0x37, 0x50, 0x09, 0x8b, 0x29, 0x52, 0x14, 0x9b, 0x37, 0x52, 0x00,
  0x9b, 0x27, 0x54, 0x04, 0x8b, 0x28, 0x5d, 0x03, 0x8b, 0x38, 0x49, 0x19,
  0x8b, 0x37, 0x52, 0x00, 0x9b, 0x38, 0x52, 0x00, 0x9b, 0x28, 0x54, 0x01,
  0x8b, 0x27, 0x54, 0x21, 0x9b, 0x2c, 0x59, 0x00, 0x9b, 0x35, 0x59, 0x02,
  0x8b, 0x28, 0x54, 0x05, 0x8b, 0x38, 0x52, 0x14, 0x8b, 0x35, 0x59, 0x03,
  0x9b, 0x34, 0x52, 0x06, 0x9b, 0x2b, 0x54, 0x04, 0x8b, 0x2c, 0x59, 0x16,
  0x9b, 0x35, 0x50, 0x00, 0x9b, 0x2c, 0x54, 0x06, 0x8b, 0x34, 0x52, 0x04,
  0x8b, 0x2b, 0x54, 0x16, 0x9b, 0x3c, 0x54, 0x01, 0x8b, 0x2c, 0x54, 0x01,
  0x8b, 0x35, 0x50, 0x00, 0x9b, 0x2f, 0x54, 0x1e, 0x8b, 0x3c, 0x54, 0x00,
  0x9b, 0x3b, 0x52, 0x02, 0x8b, 0x2f, 0x54, 0x00, 0x9b, 0x2e, 0x5d, 0x1c,
  0x8b, 0x3b, 0x52, 0x02, 0x9b, 0x3c, 0x54, 0x02, 0x8b, 0x2e, 0x5d, 0x00,
  0x9b, 0x2f, 0x59, 0x1a, 0x8b, 0x2f, 0x59, 0x02, 0x8b, 0x3c, 0x54, 0x06,
  0x9b, 0x34, 0x59, 0x02, 0x9b, 0x3c, 0x59, 0x1d, 0x9b, 0x3b, 0x50, 0x01,
  0x9b, 0x30, 0x52, 0x04, 0x8b, 0x34, 0x59, 0x04, 0x8b, 0x3c, 0x59, 0x16,
  0x9b, 0x2f, 0x52, 0x01, 0x8b, 0x30, 0x52, 0x00, 0x9b, 0x39, 0x52, 0x01,
  0x8b, 0x3b, 0x50, 0x20, 0x9b, 0x35, 0x59, 0x05, 0x8b, 0x2f, 0x52, 0x01,
  0x9b, 0x38, 0x50, 0x13, 0x8b, 0x39, 0x52, 0x06, 0x9b, 0x34, 0x4e, 0x04,
  0x8b, 0x38, 0x50, 0x02, 0x8b, 0x35, 0x59, 0x00, 0x9b, 0x3b, 0x52, 0x1a,
  0x9b, 0x30, 0x59, 0x03, 0x9b, 0x40, 0x59, 0x02, 0x8b, 0x3b, 0x52, 0x06,
  0x8b, 0x34, 0x4e, 0x0b, 0x8b, 0x40, 0x59, 0x03, 0x8b, 0x30, 0x59, 0x07,
  0x9b, 0x29, 0x52, 0x06, 0x9b, 0x40, 0x59, 0x19, 0x9b, 0x2c, 0x50, 0x04,
  0x8b, 0x40, 0x59, 0x02, 0x9b, 0x3c, 0x52, 0x06, 0x8b, 0x29, 0x52, 0x16,
  0x9b, 0x2f, 0x52, 0x01, 0x9b, 0x3b, 0x54, 0x01, 0x8b, 0x2c, 0x50, 0x02,
  0x8b, 0x3c, 0x52, 0x1c, 0x8b, 0x3b, 0x54, 0x00, 0x9b, 0x30, 0x52, 0x01,
  0x8b, 0x2f, 0x52, 0x02, 0x9b, 0x38, 0x52, 0x1b, 0x8b, 0x30, 0x52, 0x01,
  0x9b, 0x2f, 0x54, 0x05, 0x9b, 0x40, 0x54, 0x07, 0x8b, 0x38, 0x52, 0x14,
  0x9b, 0x30, 0x54, 0x01, 0x9b, 0x44, 0x54, 0x02, 0x8b, 0x40, 0x54, 0x00,
  0x8b, 0x2f, 0x54, 0x10, 0x8b, 0x44, 0x54, 0x0e, 0x8b, 0x30, 0x54, 0x83,
  0x00, 0x9b, 0x35, 0x6b, 0x01, 0x9b, 0x3d, 0x65, 0x02, 0x9b, 0x26, 0x6b,
  0x00, 0x9b, 0x31, 0x60, 0x28, 0x8b, 0x35, 0x6b, 0x04, 0x8b, 0x3d, 0x65,
  0x01, 0x8b, 0x31, 0x60, 0x02, 0x8b, 0x26, 0x6b, 0x82, 0x4e, 0x9b, 0x35,
  0x6b, 0x00, 0x9b, 0x3d, 0x65, 0x03, 0x9b, 0x31, 0x65, 0x03, 0x9b, 0x26,
  0x6b, 0x24, 0x8b, 0x26, 0x6b, 0x02, 0x8b, 0x35, 0x6b, 0x02, 0x8b, 0x3d,
  0x65, 0x04, 0x8b, 0x31, 0x65, 0x82, 0x4f, 0x9b, 0x35, 0x6b, 0x01, 0x9b,
  0x3d, 0x65, 0x03, 0x9b, 0x31, 0x65, 0x00, 0x9b, 0x26, 0x70, 0x1e, 0x8b,
  0x35, 0x6b, 0x02, 0x8b, 0x3d, 0x65, 0x08, 0x8b, 0x26, 0x70, 0x06, 0x8b,
  0x31, 0x65, 0x98, 0x2b, 0x9b, 0x26, 0x59, 0x00, 0x9b, 0x1a, 0x59, 0x85,
  0x22, 0x8b, 0x1a, 0x59, 0x00, 0x8b, 0x26, 0x59, 0x00, 0xff, 0x2f, 0x00,
  0x4d, 0x54, 0x72, 0x6b, 0x00, 0x00, 0x00, 0xe2, 0x00, 0xff, 0x01, 0x05,
  0x50, 0x69, 0x61, 0x6e, 0x6f, 0x12, 0xbc, 0x07, 0x6e, 0x00, 0xcc, 0x00,
  0x00, 0xbc, 0x12, 0x40, 0x00, 0xbc, 0x0a, 0x28, 0x8a, 0x2c, 0x9c, 0x2b,
  0x5f, 0x14, 0x8c, 0x2b, 0x5f, 0x0b, 0x9c, 0x1f, 0x5c, 0x17, 0x8c, 0x1f,
  0x5c, 0x06, 0x9c, 0x2b, 0x58, 0x14, 0x8c, 0x2b, 0x58, 0x09, 0x9c, 0x1f,
  0x5f, 0x17, 0x8c, 0x1f, 0x5f, 0x85, 0x10, 0x9c, 0x2b, 0x66, 0x13, 0x8c,
  0x2b, 0x66, 0x11, 0x9c, 0x1f, 0x51, 0x13, 0x8c, 0x1f, 0x51, 0x03, 0x9c,
  0x2b, 0x66, 0x14, 0x8c, 0x2b, 0x66, 0x10, 0x9c, 0x1f, 0x5c, 0x18, 0x8c,
  0x1f, 0x5c, 0x85, 0x0a, 0x9c, 0x2b, 0x71, 0x14, 0x8c, 0x2b, 0x71, 0x11,
  0x9c, 0x1f, 0x59, 0x16, 0x8c, 0x1f, 0x59, 0x03, 0x9c, 0x2b, 0x64, 0x14,
  0x8c, 0x2b, 0x64, 0x0d, 0x9c, 0x1f, 0x66, 0x18, 0x8c, 0x1f, 0x66, 0x85,
  0x03, 0x9c, 0x2b, 0x5f, 0x14, 0x8c, 0x2b, 0x5f, 0x12, 0x9c, 0x1f, 0x51,
  0x16, 0x8c, 0x1f, 0x51, 0x06, 0x9c, 0x2b, 0x5d, 0x12, 0x8c, 0x2b, 0x5d,
  0x10, 0x9c, 0x1f, 0x5f, 0x17, 0x8c, 0x1f, 0x5f, 0x91, 0x0b, 0x9c, 0x2b,
  0x71, 0x14, 0x8c, 0x2b, 0x71, 0x11, 0x9c, 0x1f, 0x59, 0x16, 0x8c, 0x1f,
  0x59, 0x03, 0x9c, 0x2b, 0x64, 0x14, 0x8c, 0x2b, 0x64, 0x0d, 0x9c, 0x1f,
  0x66, 0x18, 0x8c, 0x1f, 0x66, 0x85, 0x03, 0x9c, 0x2b, 0x5f, 0x14, 0x8c,
  0x2b, 0x5f, 0x12, 0x9c, 0x1f, 0x51, 0x16, 0x8c, 0x1f, 0x51, 0x06, 0x9c,
  0x2b, 0x5d, 0x12, 0x8c, 0x2b, 0x5d, 0x10, 0x9c, 0x1f, 0x5f, 0x17, 0x8c,
  0x1f, 0x5f, 0x00, 0xff, 0x2f, 0x00, 0x4d, 0x54, 0x72, 0x6b, 0x00, 0x00,
  0x01, 0x1c, 0x00, 0xff, 0x01, 0x0a, 0x47, 0x6c, 0x6f, 0x63, 0x6b, 0x65,
  0x6e, 0x73, 0x70, 0x6c, 0x12, 0xbd, 0x0a, 0x28, 0x00, 0xbd, 0x07, 0x6e,
  0x00, 0xbd, 0x12, 0x40, 0xcd, 0x4e, 0xcd, 0x09, 0x00, 0xbd, 0x07, 0x5a,
  0x28, 0x9d, 0x5b, 0x6e, 0x28, 0x8d, 0x5b, 0x6e, 0x81, 0x18, 0x9d, 0x4f,
  0x68, 0x2a, 0x8d, 0x4f, 0x68, 0x66, 0x9d, 0x4f, 0x61, 0x17, 0x8d, 0x4f,
  0x61, 0x1b, 0x9d, 0x5b, 0x6e, 0x20, 0x8d, 0x5b, 0x6e, 0x81, 0x18, 0x9d,
  0x5a, 0x6e, 0x22, 0x8d, 0x5a, 0x6e, 0x7d, 0x9d, 0x59, 0x5b, 0x22, 0x8d,
  0x59, 0x5b, 0x0b, 0x9d, 0x58, 0x5b, 0x27, 0x8d, 0x58, 0x5b, 0x0b, 0x9d,
  0x57, 0x55, 0x18, 0x8d, 0x57, 0x55, 0x08, 0x9d, 0x58, 0x5b, 0x24, 0x8d,
  0x58, 0x5b, 0x81, 0x1d, 0x9d, 0x50, 0x61, 0x1b, 0x8d, 0x50, 0x61, 0x49,
  0x9d, 0x55, 0x68, 0x25, 0x8d, 0x55, 0x68, 0x81, 0x1c, 0x9d, 0x54, 0x68,
  0x1e, 0x8d, 0x54, 0x68, 0x73, 0x9d, 0x53, 0x55, 0x25, 0x8d, 0x53, 0x55,
  0x0c, 0x9d, 0x52, 0x5b, 0x1e, 0x8d, 0x52, 0x5b, 0x13, 0x9d, 0x51, 0x55,
  0x12, 0x8d, 0x51, 0x55, 0x19, 0x9d, 0x52, 0x55, 0x27, 0x8d, 0x52, 0x55,
  0x81, 0x18, 0x9d, 0x4b, 0x4b, 0x1a, 0x8d, 0x4b, 0x4b, 0x4c, 0x9d, 0x4e,
  0x4b, 0x24, 0x8d, 0x4e, 0x4b, 0x81, 0x1b, 0x9d, 0x4b, 0x51, 0x15, 0x8d,
  0x4b, 0x51, 0x7d, 0x9d, 0x52, 0x51, 0x20, 0x8d, 0x52, 0x51, 0x10, 0x9d,
  0x4f, 0x51, 0x24, 0x8d, 0x4f, 0x51, 0x81, 0x17, 0x9d, 0x4b, 0x51, 0x1e,
  0x8d, 0x4b, 0x51, 0x77, 0x9d, 0x52, 0x51, 0x1e, 0x8d, 0x52, 0x51, 0x0c,
  0x9d, 0x4f, 0x51, 0x1e, 0x8d, 0x4f, 0x51, 0x84, 0x16, 0x9d, 0x2b, 0x5f,
  0x14, 0x8d, 0x2b, 0x5f, 0x12, 0x9d, 0x1f, 0x51, 0x16, 0x8d, 0x1f, 0x51,
  0x06, 0x9d, 0x2b, 0x5d, 0x12, 0x8d, 0x2b, 0x5d, 0x10, 0x9d, 0x1f, 0x5f,
  0x17, 0x8d, 0x1f, 0x5f, 0x59, 0x9d, 0x56, 0x7f, 0x81, 0x20, 0xbd, 0x12,
  0x00, 0x82, 0x4c, 0x8d, 0x56, 0x7f, 0x00, 0xff, 0x2f, 0x00, 0x4d, 0x54,
  0x72, 0x6b, 0x00, 0x00, 0x08, 0x30, 0x00, 0xff, 0x01, 0x05, 0x44, 0x72,
  0x75, 0x6d, 0x73, 0x16, 0xb9, 0x07, 0x55, 0x85, 0x6a, 0x99, 0x26, 0x3c,
  0x10, 0x89, 0x26, 0x3c, 0x81, 0x32, 0x99, 0x26, 0x3d, 0x12, 0x89, 0x26,
  0x3d, 0x50, 0x99, 0x26, 0x39, 0x0e, 0x89, 0x26, 0x39, 0x12, 0x99, 0x26,
  0x34, 0x0e, 0x89, 0x26, 0x34, 0x11, 0x99, 0x26, 0x3e, 0x11, 0x89, 0x26,
  0x3e, 0x0c, 0x99, 0x26, 0x46, 0x14, 0x89, 0x26, 0x46, 0x4f, 0x99, 0x26,
  0x3a, 0x11, 0x89, 0x26, 0x3a, 0x0d, 0x99, 0x26, 0x39, 0x15, 0x89, 0x26,
  0x39, 0x0d, 0x99, 0x26, 0x3c, 0x13, 0x89, 0x26, 0x3c, 0x03, 0x99, 0x33,
  0x28, 0x00, 0x99, 0x31, 0x26, 0x08, 0x99, 0x26, 0x3a, 0x0b, 0x89, 0x31,
  0x26, 0x01, 0x89, 0x33, 0x28, 0x09, 0x89, 0x26, 0x3a, 0x0c, 0x99, 0x26,
  0x40, 0x14, 0x89, 0x26, 0x40, 0x0b, 0x99, 0x26, 0x47, 0x15, 0x89, 0x26,
  0x47, 0x04, 0x99, 0x33, 0x20, 0x03, 0x99, 0x31, 0x20, 0x07, 0x99, 0x26,
  0x43, 0x0a, 0x89, 0x31, 0x20, 0x02, 0x89, 0x33, 0x20, 0x07, 0x89, 0x26,
  0x43, 0x4c, 0x99, 0x26, 0x43, 0x13, 0x89, 0x26, 0x43, 0x81, 0x28, 0x99,
  0x26, 0x45, 0x14, 0x89, 0x26, 0x45, 0x4f, 0x99, 0x26, 0x41, 0x12, 0x89,
  0x26, 0x41, 0x0f, 0x99, 0x26, 0x33, 0x10, 0x89, 0x26, 0x33, 0x0f, 0x99,
  0x26, 0x43, 0x13, 0x89, 0x26, 0x43, 0x0c, 0x99, 0x26, 0x41, 0x14, 0x89,
  0x26, 0x41, 0x4e, 0x99, 0x26, 0x3a, 0x10, 0x89, 0x26, 0x3a, 0x10, 0x99,
  0x26, 0x3c, 0x15, 0x89, 0x26, 0x3c, 0x0b, 0x99, 0x26, 0x42, 0x14, 0x89,
  0x26, 0x42, 0x08, 0x99, 0x33, 0x22, 0x02, 0x99, 0x31, 0x22, 0x02, 0x99,
  0x26, 0x3d, 0x0e, 0x89, 0x31, 0x22, 0x03, 0x89, 0x33, 0x22, 0x01, 0x89,
  0x26, 0x3d, 0x0e, 0x99, 0x26, 0x43, 0x13, 0x89, 0x26, 0x43, 0x0d, 0x99,
  0x26, 0x3c, 0x14, 0x89, 0x26, 0x3c, 0x09, 0x99, 0x31, 0x20, 0x03, 0x99,
  0x26, 0x41, 0x03, 0x99, 0x33, 0x20, 0x0c, 0x89, 0x33, 0x20, 0x02, 0x89,
  0x31, 0x20, 0x02, 0x89, 0x26, 0x41, 0x4b, 0x99, 0x26, 0x4b, 0x11, 0x89,
  0x26, 0x4b, 0x81, 0x30, 0x99, 0x26, 0x47, 0x13, 0x89, 0x26, 0x47, 0x4e,
  0x99, 0x26, 0x3f, 0x14, 0x89, 0x26, 0x3f, 0x0d, 0x99, 0x26, 0x36, 0x11,
  0x89, 0x26, 0x36, 0x0d, 0x99, 0x26, 0x4a, 0x13, 0x89, 0x26, 0x4a, 0x0e,
  0x99, 0x26, 0x41, 0x13, 0x89, 0x26, 0x41, 0x51, 0x99, 0x26, 0x43, 0x10,
  0x89, 0x26, 0x43, 0x10, 0x99, 0x26, 0x3c, 0x13, 0x89, 0x26, 0x3c, 0x09,
  0x99, 0x26, 0x45, 0x15, 0x89, 0x26, 0x45, 0x07, 0x99, 0x31, 0x23, 0x00,
  0x99, 0x33, 0x24, 0x04, 0x99, 0x26, 0x3e, 0x10, 0x89, 0x33, 0x24, 0x01,
  0x89, 0x31, 0x23, 0x04, 0x89, 0x26, 0x3e, 0x09, 0x99, 0x26, 0x47, 0x15,
  0x89, 0x26, 0x47, 0x0b, 0x99, 0x26, 0x43, 0x15, 0x89, 0x26, 0x43, 0x0f,
  0x99, 0x26, 0x3e, 0x01, 0x99, 0x33, 0x20, 0x01, 0x99, 0x31, 0x20, 0x11,
  0x89, 0x26, 0x3e, 0x02, 0x89, 0x31, 0x20, 0x01, 0x89, 0x33, 0x20, 0x48,
  0x99, 0x26, 0x42, 0x12, 0x89, 0x26, 0x42, 0x81, 0x2d, 0x99, 0x26, 0x4a,
  0x12, 0x89, 0x26, 0x4a, 0x4e, 0x99, 0x26, 0x3f, 0x12, 0x89, 0x26, 0x3f,
  0x0e, 0x99, 0x26, 0x3c, 0x15, 0x89, 0x26, 0x3c, 0x0c, 0x99, 0x26, 0x42,
  0x14, 0x89, 0x26, 0x42, 0x0a, 0x99, 0x26, 0x4a, 0x16, 0x89, 0x26, 0x4a,
  0x4c, 0x99, 0x26, 0x43, 0x13, 0x89, 0x26, 0x43, 0x0e, 0x99, 0x26, 0x3c,
  0x15, 0x89, 0x26, 0x3c, 0x0b, 0x99, 0x26, 0x41, 0x12, 0x99, 0x33, 0x2a,
  0x01, 0x89, 0x26, 0x41, 0x02, 0x99, 0x31, 0x23, 0x09, 0x99, 0x26, 0x46,
  0x09, 0x89, 0x31, 0x23, 0x05, 0x89, 0x33, 0x2a, 0x05, 0x89, 0x26, 0x46,
  0x0d, 0x99, 0x26, 0x45, 0x15, 0x89, 0x26, 0x45, 0x0a, 0x99, 0x26, 0x49,
  0x14, 0x89, 0x26, 0x49, 0x08, 0x99, 0x33, 0x20, 0x00, 0x99, 0x31, 0x20,
  0x05, 0x99, 0x26, 0x3f, 0x0d, 0x89, 0x31, 0x20, 0x00, 0x89, 0x33, 0x20,
  0x08, 0x89, 0x26, 0x3f, 0x4d, 0x99, 0x26, 0x43, 0x10, 0x89, 0x26, 0x43,
  0x81, 0x2f, 0x99, 0x26, 0x47, 0x12, 0x89, 0x26, 0x47, 0x4d, 0x99, 0x26,
  0x3d, 0x11, 0x89, 0x26, 0x3d, 0x0a, 0x99, 0x26, 0x42, 0x14, 0x89, 0x26,
  0x42, 0x0f, 0x99, 0x26, 0x45, 0x0f, 0x89, 0x26, 0x45, 0x12, 0x99, 0x26,
  0x3e, 0x17, 0x89, 0x26, 0x3e, 0x4a, 0x99, 0x26, 0x47, 0x12, 0x89, 0x26,
  0x47, 0x10, 0x99, 0x26, 0x41, 0x13, 0x89, 0x26, 0x41, 0x0d, 0x99, 0x26,
  0x3f, 0x13, 0x89, 0x26, 0x3f, 0x0a, 0x99, 0x26, 0x45, 0x14, 0x89, 0x26,
  0x45, 0x0c, 0x99, 0x26, 0x3e, 0x14, 0x89, 0x26, 0x3e, 0x0b, 0x99, 0x26,
  0x3f, 0x15, 0x89, 0x26, 0x3f, 0x0c, 0x99, 0x26, 0x3f, 0x15, 0x89, 0x26,
  0x3f, 0x4e, 0x99, 0x26, 0x49, 0x16, 0x89, 0x26, 0x49, 0x81, 0x2a, 0x99,
  0x26, 0x46, 0x15, 0x89, 0x26, 0x46, 0x4d, 0x99, 0x26, 0x3a, 0x10, 0x89,
  0x26, 0x3a, 0x0d, 0x99, 0x26, 0x41, 0x12, 0x89, 0x26, 0x41, 0x0f, 0x99,
  0x26, 0x44, 0x13, 0x89, 0x26, 0x44, 0x09, 0x99, 0x26, 0x3a, 0x11, 0x89,
  0x26, 0x3a, 0x50, 0x99, 0x26, 0x47, 0x12, 0x89, 0x26, 0x47, 0x0e, 0x99,
  0x26, 0x41, 0x14, 0x89, 0x26, 0x41, 0x0b, 0x99, 0x26, 0x41, 0x15, 0x89,
  0x26, 0x41, 0x0a, 0x99, 0x26, 0x44, 0x13, 0x89, 0x26, 0x44, 0x0e, 0x99,
  0x26, 0x45, 0x18, 0x89, 0x26, 0x45, 0x07, 0x99, 0x26, 0x42, 0x13, 0x89,
  0x26, 0x42, 0x0f, 0x99, 0x26, 0x45, 0x12, 0x89, 0x26, 0x45, 0x4e, 0x99,
  0x26, 0x4b, 0x11, 0x89, 0x26, 0x4b, 0x81, 0x30, 0x99, 0x26, 0x47, 0x13,
  0x89, 0x26, 0x47, 0x4e, 0x99, 0x26, 0x3f, 0x14, 0x89, 0x26, 0x3f, 0x0d,
  0x99, 0x26, 0x36, 0x11, 0x89, 0x26, 0x36, 0x0d, 0x99, 0x26, 0x4a, 0x13,
  0x89, 0x26, 0x4a, 0x0e, 0x99, 0x26, 0x41, 0x13, 0x89, 0x26, 0x41, 0x51,
  0x99, 0x26, 0x43, 0x10, 0x89, 0x26, 0x43, 0x10, 0x99, 0x26, 0x3c, 0x13,
  0x89, 0x26, 0x3c, 0x09, 0x99, 0x26, 0x45, 0x15, 0x89, 0x26, 0x45, 0x0b,
  0x99, 0x26, 0x3e, 0x15, 0x89, 0x26, 0x3e, 0x09, 0x99, 0x26, 0x47, 0x15,
  0x89, 0x26, 0x47, 0x0b, 0x99, 0x26, 0x43, 0x15, 0x89, 0x26, 0x43, 0x0f,
  0x99, 0x26, 0x3e, 0x13, 0x89, 0x26, 0x3e, 0x4b, 0x99, 0x26, 0x42, 0x12,
  0x89, 0x26, 0x42, 0x81, 0x2d, 0x99, 0x26, 0x4a, 0x12, 0x89, 0x26, 0x4a,
  0x4e, 0x99, 0x26, 0x3f, 0x12, 0x89, 0x26, 0x3f, 0x0e, 0x99, 0x26, 0x3c,
  0x15, 0x89, 0x26, 0x3c, 0x0c, 0x99, 0x26, 0x42, 0x14, 0x89, 0x26, 0x42,
  0x0a, 0x99, 0x26, 0x4a, 0x16, 0x89, 0x26, 0x4a, 0x4c, 0x99, 0x26, 0x43,
  0x13, 0x89, 0x26, 0x43, 0x0e, 0x99, 0x26, 0x3c, 0x15, 0x89, 0x26, 0x3c,
  0x0b, 0x99, 0x26, 0x41, 0x13, 0x89, 0x26, 0x41, 0x0b, 0x99, 0x26, 0x46,
  0x13, 0x89, 0x26, 0x46, 0x0d, 0x99, 0x26, 0x45, 0x15, 0x89, 0x26, 0x45,
  0x0a, 0x99, 0x26, 0x49, 0x14, 0x89, 0x26, 0x49, 0x0d, 0x99, 0x26, 0x3d,
  0x10, 0x89, 0x26, 0x3d, 0x0b, 0x99, 0x26, 0x42, 0x14, 0x89, 0x26, 0x42,
  0x0e, 0x99, 0x26, 0x45, 0x0f, 0x89, 0x26, 0x45, 0x16, 0x99, 0x26, 0x43,
  0x10, 0x89, 0x26, 0x43, 0x81, 0x2f, 0x99, 0x26, 0x47, 0x12, 0x89, 0x26,
  0x47, 0x4d, 0x99, 0x26, 0x3d, 0x11, 0x89, 0x26, 0x3d, 0x0a, 0x99, 0x26,
  0x42, 0x14, 0x89, 0x26, 0x42, 0x0f, 0x99, 0x26, 0x45, 0x0f, 0x89, 0x26,
  0x45, 0x12, 0x99, 0x26, 0x3e, 0x17, 0x89, 0x26, 0x3e, 0x4a, 0x99, 0x26,
  0x47, 0x12, 0x89, 0x26, 0x47, 0x10, 0x99, 0x26, 0x41, 0x13, 0x89, 0x26,
  0x41, 0x0d, 0x99, 0x26, 0x3f, 0x13, 0x89, 0x26, 0x3f, 0x0a, 0x99, 0x26,
  0x45, 0x14, 0x89, 0x26, 0x45, 0x0c, 0x99, 0x26, 0x3e, 0x14, 0x89, 0x26,
  0x3e, 0x0b, 0x99, 0x26, 0x3f, 0x15, 0x89, 0x26, 0x3f, 0x0c, 0x99, 0x26,
  0x3f, 0x15, 0x89, 0x26, 0x3f, 0x4e, 0x99, 0x26, 0x49, 0x16, 0x89, 0x26,
  0x49, 0x81, 0x2a, 0x99, 0x26, 0x46, 0x15, 0x89, 0x26, 0x46, 0x4d, 0x99,
  0x26, 0x3a, 0x10, 0x89, 0x26, 0x3a, 0x0d, 0x99, 0x26, 0x41, 0x12, 0x89,
  0x26, 0x41, 0x0f, 0x99, 0x26, 0x44, 0x13, 0x89, 0x26, 0x44, 0x09, 0x99,
  0x26, 0x3a, 0x11, 0x89, 0x26, 0x3a, 0x50, 0x99, 0x26, 0x47, 0x12, 0x89,
  0x26, 0x47, 0x0e, 0x99, 0x26, 0x41, 0x14, 0x89, 0x26, 0x41, 0x0b, 0x99,
  0x26, 0x41, 0x15, 0x89, 0x26, 0x41, 0x0a, 0x99, 0x26, 0x44, 0x13, 0x89,
  0x26, 0x44, 0x0e, 0x99, 0x26, 0x45, 0x18, 0x89, 0x26, 0x45, 0x07, 0x99,
  0x26, 0x42, 0x13, 0x89, 0x26, 0x42, 0x0f, 0x99, 0x26, 0x45, 0x12, 0x89,
  0x26, 0x45, 0x51, 0x99, 0x26, 0x43, 0x10, 0x89, 0x26, 0x43, 0x81, 0x2f,
  0x99, 0x26, 0x47, 0x12, 0x89, 0x26, 0x47, 0x4d, 0x99, 0x26, 0x3d, 0x11,
  0x89, 0x26, 0x3d, 0x0a, 0x99, 0x26, 0x42, 0x14, 0x89, 0x26, 0x42, 0x0f,
  0x99, 0x26, 0x45, 0x0f, 0x89, 0x26, 0x45, 0x12, 0x99, 0x26, 0x3e, 0x17,
  0x89, 0x26, 0x3e, 0x4a, 0x99, 0x26, 0x47, 0x12, 0x89, 0x26, 0x47, 0x10,
  0x99, 0x26, 0x41, 0x13, 0x89, 0x26, 0x41, 0x0d, 0x99, 0x26, 0x3f, 0x13,
  0x89, 0x26, 0x3f, 0x0a, 0x99, 0x26, 0x45, 0x14, 0x89, 0x26, 0x45, 0x0c,
  0x99, 0x26, 0x3e, 0x14, 0x89, 0x26, 0x3e, 0x0b, 0x99, 0x26, 0x3f, 0x15,
  0x89, 0x26, 0x3f, 0x0c, 0x99, 0x26, 0x3f, 0x15, 0x89, 0x26, 0x3f, 0x4e,
  0x99, 0x26, 0x49, 0x16, 0x89, 0x26, 0x49, 0x81, 0x2a, 0x99, 0x26, 0x46,
  0x15, 0x89, 0x26, 0x46, 0x4d, 0x99, 0x26, 0x3a, 0x10, 0x89, 0x26, 0x3a,
  0x0d, 0x99, 0x26, 0x41, 0x12, 0x89, 0x26, 0x41, 0x0f, 0x99, 0x26, 0x44,
  0x13, 0x89, 0x26, 0x44, 0x09, 0x99, 0x26, 0x3a, 0x11, 0x89, 0x26, 0x3a,
  0x50, 0x99, 0x26, 0x47, 0x12, 0x89, 0x26, 0x47, 0x0e, 0x99, 0x26, 0x41,
  0x14, 0x89, 0x26, 0x41, 0x0b, 0x99, 0x26, 0x41, 0x15, 0x89, 0x26, 0x41,
  0x0a, 0x99, 0x26, 0x44, 0x13, 0x89, 0x26, 0x44, 0x0e, 0x99, 0x26, 0x45,
  0x18, 0x89, 0x26, 0x45, 0x07, 0x99, 0x26, 0x42, 0x13, 0x89, 0x26, 0x42,
  0x0f, 0x99, 0x26, 0x3d, 0x10, 0x89, 0x26, 0x3d, 0x0b, 0x99, 0x26, 0x42,
  0x14, 0x89, 0x26, 0x42, 0x0f, 0x99, 0x26, 0x45, 0x0e, 0x89, 0x26, 0x45,
  0x17, 0x99, 0x26, 0x43, 0x10, 0x89, 0x26, 0x43, 0x81, 0x2f, 0x99, 0x26,
  0x47, 0x12, 0x89, 0x26, 0x47, 0x4d, 0x99, 0x26, 0x3d, 0x11, 0x89, 0x26,
  0x3d, 0x0a, 0x99, 0x26, 0x42, 0x14, 0x89, 0x26, 0x42, 0x0f, 0x99, 0x26,
  0x45, 0x0f, 0x89, 0x26, 0x45, 0x12, 0x99, 0x26, 0x3e, 0x17, 0x89, 0x26,
  0x3e, 0x4a, 0x99, 0x26, 0x47, 0x12, 0x89, 0x26, 0x47, 0x10, 0x99, 0x26,
  0x41, 0x13, 0x89, 0x26, 0x41, 0x0d, 0x99, 0x26, 0x3f, 0x13, 0x89, 0x26,
  0x3f, 0x0a, 0x99, 0x26, 0x45, 0x14, 0x89, 0x26, 0x45, 0x0c, 0x99, 0x26,
  0x3e, 0x14, 0x89, 0x26, 0x3e, 0x0b, 0x99, 0x26, 0x3f, 0x15, 0x89, 0x26,
  0x3f, 0x0c, 0x99, 0x26, 0x3f, 0x15, 0x89, 0x26, 0x3f, 0x4e, 0x99, 0x26,
  0x49, 0x16, 0x89, 0x26, 0x49, 0x81, 0x2a, 0x99, 0x26, 0x46, 0x15, 0x89,
  0x26, 0x46, 0x4d, 0x99, 0x26, 0x3a, 0x10, 0x89, 0x26, 0x3a, 0x0d, 0x99,
  0x26, 0x41, 0x12, 0x89, 0x26, 0x41, 0x0f, 0x99, 0x26, 0x44, 0x13, 0x89,
  0x26, 0x44, 0x09, 0x99, 0x26, 0x3a, 0x11, 0x89, 0x26, 0x3a, 0x50, 0x99,
  0x26, 0x47, 0x12, 0x89, 0x26, 0x47, 0x0e, 0x99, 0x26, 0x41, 0x14, 0x89,
  0x26, 0x41, 0x0b, 0x99, 0x26, 0x41, 0x15, 0x89, 0x26, 0x41, 0x0a, 0x99,
  0x26, 0x44, 0x13, 0x89, 0x26, 0x44, 0x0e, 0x99, 0x26, 0x45, 0x18, 0x89,
  0x26, 0x45, 0x07, 0x99, 0x26, 0x42, 0x13, 0x89, 0x26, 0x42, 0x0f, 0x99,
  0x26, 0x45, 0x12, 0x89, 0x26, 0x45, 0x51, 0x99, 0x26, 0x43, 0x10, 0x89,
  0x26, 0x43, 0x81, 0x2f, 0x99, 0x26, 0x47, 0x12, 0x89, 0x26, 0x47, 0x4d,
  0x99, 0x26, 0x3d, 0x11, 0x89, 0x26, 0x3d, 0x0a, 0x99, 0x26, 0x42, 0x14,
  0x89, 0x26, 0x42, 0x0f, 0x99, 0x26, 0x45, 0x0f, 0x89, 0x26, 0x45, 0x12,
  0x99, 0x26, 0x3e, 0x17, 0x89, 0x26, 0x3e, 0x4a, 0x99, 0x26, 0x47, 0x12,
  0x89, 0x26, 0x47, 0x10, 0x99, 0x26, 0x41, 0x13, 0x89, 0x26, 0x41, 0x0d,
  0x99, 0x26, 0x3f, 0x13, 0x89, 0x26, 0x3f, 0x0a, 0x99, 0x26, 0x45, 0x14,
  0x89, 0x26, 0x45, 0x0c, 0x99, 0x26, 0x3e, 0x14, 0x89, 0x26, 0x3e, 0x0b,
  0x99, 0x26, 0x3f, 0x15, 0x89, 0x26, 0x3f, 0x0c, 0x99, 0x26, 0x3f, 0x15,
  0x89, 0x26, 0x3f, 0x4e, 0x99, 0x26, 0x49, 0x11, 0x99, 0x31, 0x31, 0x05,
  0x89, 0x26, 0x49, 0x31, 0x89, 0x31, 0x31, 0x79, 0x99, 0x26, 0x46, 0x15,
  0x89, 0x26, 0x46, 0x4d, 0x99, 0x26, 0x3a, 0x10, 0x89, 0x26, 0x3a, 0x0d,
  0x99, 0x26, 0x41, 0x12, 0x89, 0x26, 0x41, 0x0f, 0x99, 0x26, 0x44, 0x13,
  0x89, 0x26, 0x44, 0x09, 0x99, 0x26, 0x3a, 0x01, 0x99, 0x31, 0x31, 0x10,
  0x89, 0x26, 0x3a, 0x1a, 0x89, 0x31, 0x31, 0x36, 0x99, 0x26, 0x47, 0x12,
  0x89, 0x26, 0x47, 0x0e, 0x99, 0x26, 0x41, 0x14, 0x89, 0x26, 0x41, 0x0b,
  0x99, 0x26, 0x41, 0x15, 0x89, 0x26, 0x41, 0x0b, 0x99, 0x26, 0x44, 0x02,
  0x99, 0x31, 0x31, 0x11, 0x89, 0x26, 0x44, 0x0d, 0x99, 0x26, 0x45, 0x01,
  0x89, 0x31, 0x31, 0x17, 0x89, 0x26, 0x45, 0x08, 0x99, 0x26, 0x42, 0x13,
  0x89, 0x26, 0x42, 0x0e, 0x99, 0x26, 0x45, 0x12, 0x89, 0x26, 0x45, 0x81,
  0x30, 0x99, 0x26, 0x43, 0x13, 0x89, 0x26, 0x43, 0x0e, 0x99, 0x26, 0x3c,
  0x15, 0x89, 0x26, 0x3c, 0x0b, 0x99, 0x26, 0x41, 0x13, 0x89, 0x26, 0x41,
  0x0b, 0x99, 0x26, 0x46, 0x13, 0x89, 0x26, 0x46, 0x0d, 0x99, 0x26, 0x45,
  0x15, 0x89, 0x26, 0x45, 0x0a, 0x99, 0x26, 0x49, 0x14, 0x89, 0x26, 0x49,
  0x0d, 0x99, 0x26, 0x3d, 0x10, 0x89, 0x26, 0x3d, 0x0b, 0x99, 0x26, 0x42,
  0x14, 0x89, 0x26, 0x42, 0x0e, 0x99, 0x26, 0x45, 0x0f, 0x89, 0x26, 0x45,
  0xbf, 0x08, 0x99, 0x31, 0x41, 0x82, 0x2f, 0x89, 0x31, 0x41, 0xad, 0x6c,
  0x99, 0x31, 0x56, 0x1e, 0x89, 0x31, 0x56, 0x81, 0x19, 0x99, 0x31, 0x50,
  0x1f, 0x89, 0x31, 0x50, 0x46, 0x99, 0x31, 0x48, 0x19, 0x89, 0x31, 0x48,
  0x81, 0x20, 0x99, 0x31, 0x50, 0x15, 0x89, 0x31, 0x50, 0x81, 0x29, 0x99,
  0x31, 0x4b, 0x17, 0x89, 0x31, 0x4b, 0x81, 0x1f, 0x99, 0x31, 0x43, 0x18,
  0x89, 0x31, 0x43, 0x81, 0x34, 0x99, 0x31, 0x50, 0x15, 0x89, 0x31, 0x50,
  0x81, 0x2d, 0x99, 0x31, 0x50, 0x1f, 0x89, 0x31, 0x50, 0x46, 0x99, 0x31,
  0x48, 0x19, 0x89, 0x31, 0x48, 0x81, 0x20, 0x99, 0x31, 0x50, 0x15, 0x89,
  0x31, 0x50, 0x81, 0x29, 0x99, 0x31, 0x4b, 0x17, 0x89, 0x31, 0x4b, 0x81,
  0x1f, 0x99, 0x31, 0x43, 0x18, 0x89, 0x31, 0x43, 0x81, 0x34, 0x99, 0x31,
  0x50, 0x15, 0x89, 0x31, 0x50, 0x81, 0x25, 0x99, 0x31, 0x50, 0x17, 0x89,
  0x31, 0x50, 0x4b, 0x99, 0x31, 0x43, 0x11, 0x89, 0x31, 0x43, 0x00, 0xff,
  0x2f, 0x00
};
