// Super Mario (sounds odd)

{
	0x4d, 0x54, 0x68, 0x64, 0x00, 0x00, 0x00, 0x06, 
	0x00, 0x01, 0x00, 0x01, 0x00, 0x78, 0x4d, 0x54, 
	0x72, 0x6b, 0x00, 0x00, 0x1c, 0x2b, 0x00, 0xff, 
	0x58, 0x04, 0x04, 0x02, 0x18, 0x08, 0x00, 0xff, 
	0x51, 0x03, 0x04, 0x93, 0xe0, 0x00, 0x90, 0x32, 
	0x50, 0x00, 0x90, 0x42, 0x50, 0x00, 0x90, 0x4c, 
	0x50, 0x3c, 0x80, 0x4c, 0x30, 0x00, 0x80, 0x42, 
	0x30, 0x00, 0x80, 0x32, 0x30, 0x00, 0x90, 0x32, 
	0x50, 0x00, 0x90, 0x42, 0x50, 0x00, 0x90, 0x4c, 
	0x50, 0x3c, 0x80, 0x4c, 0x30, 0x00, 0x80, 0x42, 
	0x30, 0x00, 0x80, 0x32, 0x30, 0x3c, 0x90, 0x32, 
	0x50, 0x00, 0x90, 0x42, 0x50, 0x00, 0x90, 0x4c, 
	0x50, 0x3c, 0x80, 0x4c, 0x30, 0x00, 0x80, 0x42, 
	0x30, 0x00, 0x80, 0x32, 0x30, 0x3c, 0x90, 0x32, 
	0x50, 0x00, 0x90, 0x42, 0x50, 0x00, 0x90, 0x48, 
	0x50, 0x3c, 0x80, 0x48, 0x30, 0x00, 0x80, 0x42, 
	0x30, 0x00, 0x80, 0x32, 0x30, 0x00, 0x90, 0x32, 
	0x50, 0x00, 0x90, 0x42, 0x50, 0x00, 0x90, 0x4c, 
	0x50, 0x3c, 0x80, 0x4c, 0x30, 0x00, 0x80, 0x42, 
	0x30, 0x00, 0x80, 0x32, 0x30, 0x3c, 0x90, 0x43, 
	0x50, 0x00, 0x90, 0x47, 0x50, 0x00, 0x90, 0x4f, 
	0x50, 0x3c, 0x80, 0x4f, 0x30, 0x00, 0x80, 0x47, 
	0x30, 0x00, 0x80, 0x43, 0x30, 0x81, 0x34, 0x90, 
	0x37, 0x50, 0x00, 0x90, 0x43, 0x50, 0x3c, 0x80, 
	0x43, 0x30, 0x00, 0x80, 0x37, 0x30, 0x81, 0x34, 
	0x90, 0x37, 0x50, 0x00, 0x90, 0x40, 0x50, 0x00, 
	0x90, 0x48, 0x50, 0x3c, 0x80, 0x48, 0x30, 0x00, 
	0x80, 0x40, 0x30, 0x00, 0x80, 0x37, 0x30, 0x78, 
	0x90, 0x34, 0x50, 0x00, 0x90, 0x3c, 0x50, 0x00, 
	0x90, 0x43, 0x50, 0x3c, 0x80, 0x43, 0x30, 0x00, 
	0x80, 0x3c, 0x30, 0x00, 0x80, 0x34, 0x30, 0x78, 
	0x90, 0x30, 0x50, 0x00, 0x90, 0x37, 0x50, 0x00, 
	0x90, 0x40, 0x50, 0x3c, 0x80, 0x40, 0x30, 0x00, 
	0x80, 0x37, 0x30, 0x00, 0x80, 0x30, 0x30, 0x78, 
	0x90, 0x35, 0x50, 0x00, 0x90, 0x3c, 0x50, 0x00, 
	0x90, 0x45, 0x50, 0x3c, 0x80, 0x45, 0x30, 0x00, 
	0x80, 0x3c, 0x30, 0x00, 0x80, 0x35, 0x30, 0x3c, 
	0x90, 0x37, 0x50, 0x00, 0x90, 0x3e, 0x50, 0x00, 
	0x90, 0x47, 0x50, 0x3c, 0x80, 0x47, 0x30, 0x00, 
	0x80, 0x3e, 0x30, 0x00, 0x80, 0x37, 0x30, 0x3c, 
	0x90, 0x36, 0x50, 0x00, 0x90, 0x3d, 0x50, 0x00, 
	0x90, 0x46, 0x50, 0x3c, 0x80, 0x46, 0x30, 0x00, 
	0x80, 0x3d, 0x30, 0x00, 0x80, 0x36, 0x30, 0x00, 
	0x90, 0x35, 0x50, 0x00, 0x90, 0x3c, 0x50, 0x00, 
	0x90, 0x45, 0x50, 0x3c, 0x80, 0x45, 0x30, 0x00, 
	0x80, 0x3c, 0x30, 0x00, 0x80, 0x35, 0x30, 0x3c, 
	0x90, 0x34, 0x50, 0x00, 0x90, 0x3c, 0x50, 0x00, 
	0x90, 0x43, 0x50, 0x50, 0x80, 0x43, 0x30, 0x00, 
	0x80, 0x3c, 0x30, 0x00, 0x80, 0x34, 0x30, 0x00, 
	0x90, 0x3c, 0x50, 0x00, 0x90, 0x43, 0x50, 0x00, 
	0x90, 0x4c, 0x50, 0x4f, 0x90, 0x40, 0x50, 0x00, 
	0x90, 0x47, 0x50, 0x00, 0x90, 0x4f, 0x50, 0x01, 
	0x80, 0x4c, 0x30, 0x00, 0x80, 0x43, 0x30, 0x00, 
	0x80, 0x3c, 0x30, 0x4f, 0x80, 0x4f, 0x30, 0x00, 
	0x80, 0x47, 0x30, 0x00, 0x80, 0x40, 0x30, 0x01, 
	0x90, 0x41, 0x50, 0x00, 0x90, 0x48, 0x50, 0x00, 
	0x90, 0x51, 0x50, 0x3c, 0x80, 0x51, 0x30, 0x00, 
	0x80, 0x48, 0x30, 0x00, 0x80, 0x41, 0x30, 0x3c, 
	0x90, 0x3e, 0x50, 0x00, 0x90, 0x45, 0x50, 0x00, 
	0x90, 0x4d, 0x50, 0x3c, 0x80, 0x4d, 0x30, 0x00, 
	0x80, 0x45, 0x30, 0x00, 0x80, 0x3e, 0x30, 0x00, 
	0x90, 0x40, 0x50, 0x00, 0x90, 0x47, 0x50, 0x00, 
	0x90, 0x4f, 0x50, 0x3c, 0x80, 0x4f, 0x30, 0x00, 
	0x80, 0x47, 0x30, 0x00, 0x80, 0x40, 0x30, 0x3c, 
	0x90, 0x3c, 0x50, 0x00, 0x90, 0x45, 0x50, 0x00, 
	0x90, 0x4c, 0x50, 0x3c, 0x80, 0x4c, 0x30, 0x00, 
	0x80, 0x45, 0x30, 0x00, 0x80, 0x3c, 0x30, 0x3c, 
	0x90, 0x39, 0x50, 0x00, 0x90, 0x40, 0x50, 0x00, 
	0x90, 0x48, 0x50, 0x3c, 0x80, 0x48, 0x30, 0x00, 
	0x80, 0x40, 0x30, 0x00, 0x80, 0x39, 0x30, 0x00, 
	0x90, 0x3b, 0x50, 0x00, 0x90, 0x41, 0x50, 0x00, 
	0x90, 0x4a, 0x50, 0x3c, 0x80, 0x4a, 0x30, 0x00, 
	0x80, 0x41, 0x30, 0x00, 0x80, 0x3b, 0x30, 0x00, 
	0x90, 0x37, 0x50, 0x00, 0x90, 0x3e, 0x50, 0x00, 
	0x90, 0x47, 0x50, 0x3c, 0x80, 0x47, 0x30, 0x00, 
	0x80, 0x3e, 0x30, 0x00, 0x80, 0x37, 0x30, 0x78, 
	0x90, 0x37, 0x50, 0x00, 0x90, 0x40, 0x50, 0x00, 
	0x90, 0x48, 0x50, 0x3c, 0x80, 0x48, 0x30, 0x00, 
	0x80, 0x40, 0x30, 0x00, 0x80, 0x37, 0x30, 0x78, 
	0x90, 0x34, 0x50, 0x00, 0x90, 0x3c, 0x50, 0x00, 
	0x90, 0x43, 0x50, 0x3c, 0x80, 0x43, 0x30, 0x00, 
	0x80, 0x3c, 0x30, 0x00, 0x80, 0x34, 0x30, 0x78, 
	0x90, 0x30, 0x50, 0x00, 0x90, 0x37, 0x50, 0x00, 
	0x90, 0x40, 0x50, 0x3c, 0x80, 0x40, 0x30, 0x00, 
	0x80, 0x37, 0x30, 0x00, 0x80, 0x30, 0x30, 0x78, 
	0x90, 0x35, 0x50, 0x00, 0x90, 0x3c, 0x50, 0x00, 
	0x90, 0x45, 0x50, 0x3c, 0x80, 0x45, 0x30, 0x00, 
	0x80, 0x3c, 0x30, 0x00, 0x80, 0x35, 0x30, 0x3c, 
	0x90, 0x37, 0x50, 0x00, 0x90, 0x3e, 0x50, 0x00, 
	0x90, 0x47, 0x50, 0x3c, 0x80, 0x47, 0x30, 0x00, 
	0x80, 0x3e, 0x30, 0x00, 0x80, 0x37, 0x30, 0x3c, 
	0x90, 0x36, 0x50, 0x00, 0x90, 0x3d, 0x50, 0x00, 
	0x90, 0x46, 0x50, 0x3c, 0x80, 0x46, 0x30, 0x00, 
	0x80, 0x3d, 0x30, 0x00, 0x80, 0x36, 0x30, 0x00, 
	0x90, 0x35, 0x50, 0x00, 0x90, 0x3c, 0x50, 0x00, 
	0x90, 0x45, 0x50, 0x3c, 0x80, 0x45, 0x30, 0x00, 
	0x80, 0x3c, 0x30, 0x00, 0x80, 0x35, 0x30, 0x3c, 
	0x90, 0x34, 0x50, 0x00, 0x90, 0x3c, 0x50, 0x00, 
	0x90, 0x43, 0x50, 0x50, 0x80, 0x43, 0x30, 0x00, 
	0x80, 0x3c, 0x30, 0x00, 0x80, 0x34, 0x30, 0x00, 
	0x90, 0x3c, 0x50, 0x00, 0x90, 0x43, 0x50, 0x00, 
	0x90, 0x4c, 0x50, 0x4f, 0x90, 0x40, 0x50, 0x00, 
	0x90, 0x47, 0x50, 0x00, 0x90, 0x4f, 0x50, 0x01, 
	0x80, 0x4c, 0x30, 0x00, 0x80, 0x43, 0x30, 0x00, 
	0x80, 0x3c, 0x30, 0x4f, 0x80, 0x4f, 0x30, 0x00, 
	0x80, 0x47, 0x30, 0x00, 0x80, 0x40, 0x30, 0x01, 
	0x90, 0x41, 0x50, 0x00, 0x90, 0x48, 0x50, 0x00, 
	0x90, 0x51, 0x50, 0x3c, 0x80, 0x51, 0x30, 0x00, 
	0x80, 0x48, 0x30, 0x00, 0x80, 0x41, 0x30, 0x3c, 
	0x90, 0x3e, 0x50, 0x00, 0x90, 0x45, 0x50, 0x00, 
	0x90, 0x4d, 0x50, 0x3c, 0x80, 0x4d, 0x30, 0x00, 
	0x80, 0x45, 0x30, 0x00, 0x80, 0x3e, 0x30, 0x00, 
	0x90, 0x40, 0x50, 0x00, 0x90, 0x47, 0x50, 0x00, 
	0x90, 0x4f, 0x50, 0x3c, 0x80, 0x4f, 0x30, 0x00, 
	0x80, 0x47, 0x30, 0x00, 0x80, 0x40, 0x30, 0x3c, 
	0x90, 0x3c, 0x50, 0x00, 0x90, 0x45, 0x50, 0x00, 
	0x90, 0x4c, 0x50, 0x3c, 0x80, 0x4c, 0x30, 0x00, 
	0x80, 0x45, 0x30, 0x00, 0x80, 0x3c, 0x30, 0x3c, 
	0x90, 0x39, 0x50, 0x00, 0x90, 0x40, 0x50, 0x00, 
	0x90, 0x48, 0x50, 0x3c, 0x80, 0x48, 0x30, 0x00, 
	0x80, 0x40, 0x30, 0x00, 0x80, 0x39, 0x30, 0x00, 
	0x90, 0x3b, 0x50, 0x00, 0x90, 0x41, 0x50, 0x00, 
	0x90, 0x4a, 0x50, 0x3c, 0x80, 0x4a, 0x30, 0x00, 
	0x80, 0x41, 0x30, 0x00, 0x80, 0x3b, 0x30, 0x00, 
	0x90, 0x37, 0x50, 0x00, 0x90, 0x3e, 0x50, 0x00, 
	0x90, 0x47, 0x50, 0x3c, 0x80, 0x47, 0x30, 0x00, 
	0x80, 0x3e, 0x30, 0x00, 0x80, 0x37, 0x30, 0x78, 
	0x90, 0x30, 0x50, 0x3c, 0x80, 0x30, 0x30, 0x3c, 
	0x90, 0x4c, 0x50, 0x00, 0x90, 0x4f, 0x50, 0x3c, 
	0x80, 0x4f, 0x30, 0x00, 0x80, 0x4c, 0x30, 0x00, 
	0x90, 0x37, 0x50, 0x00, 0x90, 0x4b, 0x50, 0x00, 
	0x90, 0x4e, 0x50, 0x3c, 0x80, 0x4e, 0x30, 0x00, 
	0x80, 0x4b, 0x30, 0x00, 0x80, 0x37, 0x30, 0x00, 
	0x90, 0x4a, 0x50, 0x00, 0x90, 0x4d, 0x50, 0x3c, 
	0x80, 0x4d, 0x30, 0x00, 0x80, 0x4a, 0x30, 0x00, 
	0x90, 0x47, 0x50, 0x00, 0x90, 0x4b, 0x50, 0x3c, 
	0x80, 0x4b, 0x30, 0x00, 0x80, 0x47, 0x30, 0x00, 
	0x90, 0x3c, 0x50, 0x3c, 0x80, 0x3c, 0x30, 0x00, 
	0x90, 0x48, 0x50, 0x00, 0x90, 0x4c, 0x50, 0x3c, 
	0x80, 0x4c, 0x30, 0x00, 0x80, 0x48, 0x30, 0x00, 
	0x90, 0x35, 0x50, 0x3c, 0x80, 0x35, 0x30, 0x00, 
	0x90, 0x40, 0x50, 0x00, 0x90, 0x44, 0x50, 0x3c, 
	0x80, 0x44, 0x30, 0x00, 0x80, 0x40, 0x30, 0x00, 
	0x90, 0x41, 0x50, 0x00, 0x90, 0x45, 0x50, 0x3c, 
	0x80, 0x45, 0x30, 0x00, 0x80, 0x41, 0x30, 0x00, 
	0x90, 0x3c, 0x50, 0x00, 0x90, 0x43, 0x50, 0x00, 
	0x90, 0x48, 0x50, 0x3c, 0x80, 0x48, 0x30, 0x00, 
	0x80, 0x43, 0x30, 0x00, 0x80, 0x3c, 0x30, 0x00, 
	0x90, 0x3c, 0x50, 0x3c, 0x80, 0x3c, 0x30, 0x00, 
	0x90, 0x3c, 0x50, 0x00, 0x90, 0x45, 0x50, 0x3c, 
	0x80, 0x45, 0x30, 0x00, 0x80, 0x3c, 0x30, 0x00, 
	0x90, 0x35, 0x50, 0x00, 0x90, 0x40, 0x50, 0x00, 
	0x90, 0x48, 0x50, 0x3c, 0x80, 0x48, 0x30, 0x00, 
	0x80, 0x40, 0x30, 0x00, 0x80, 0x35, 0x30, 0x00, 
	0x90, 0x41, 0x50, 0x00, 0x90, 0x4a, 0x50, 0x3c, 
	0x80, 0x4a, 0x30, 0x00, 0x80, 0x41, 0x30, 0x00, 
	0x90, 0x30, 0x50, 0x3c, 0x80, 0x30, 0x30, 0x3c, 
	0x90, 0x4c, 0x50, 0x00, 0x90, 0x4f, 0x50, 0x3c, 
	0x80, 0x4f, 0x30, 0x00, 0x80, 0x4c, 0x30, 0x00, 
	0x90, 0x34, 0x50, 0x00, 0x90, 0x4b, 0x50, 0x00, 
	0x90, 0x4e, 0x50, 0x3c, 0x80, 0x4e, 0x30, 0x00, 
	0x80, 0x4b, 0x30, 0x00, 0x80, 0x34, 0x30, 0x00, 
	0x90, 0x4a, 0x50, 0x00, 0x90, 0x4d, 0x50, 0x3c, 
	0x80, 0x4d, 0x30, 0x00, 0x80, 0x4a, 0x30, 0x00, 
	0x90, 0x47, 0x50, 0x00, 0x90, 0x4b, 0x50, 0x3c, 
	0x80, 0x4b, 0x30, 0x00, 0x80, 0x47, 0x30, 0x00, 
	0x90, 0x37, 0x50, 0x3c, 0x80, 0x37, 0x30, 0x00, 
	0x90, 0x3c, 0x50, 0x00, 0x90, 0x48, 0x50, 0x00, 
	0x90, 0x4c, 0x50, 0x3c, 0x80, 0x4c, 0x30, 0x00, 
	0x80, 0x48, 0x30, 0x00, 0x80, 0x3c, 0x30, 0x3c, 
	0x90, 0x4d, 0x50, 0x00, 0x90, 0x4f, 0x50, 0x00, 
	0x90, 0x54, 0x50, 0x3c, 0x80, 0x54, 0x30, 0x00, 
	0x80, 0x4f, 0x30, 0x00, 0x80, 0x4d, 0x30, 0x3c, 
	0x90, 0x4d, 0x50, 0x00, 0x90, 0x4f, 0x50, 0x00, 
	0x90, 0x54, 0x50, 0x3c, 0x80, 0x54, 0x30, 0x00, 
	0x80, 0x4f, 0x30, 0x00, 0x80, 0x4d, 0x30, 0x00, 
	0x90, 0x4d, 0x50, 0x00, 0x90, 0x4f, 0x50, 0x00, 
	0x90, 0x54, 0x50, 0x3c, 0x80, 0x54, 0x30, 0x00, 
	0x80, 0x4f, 0x30, 0x00, 0x80, 0x4d, 0x30, 0x3c, 
	0x90, 0x37, 0x50, 0x3c, 0x80, 0x37, 0x30, 0x3c, 
	0x90, 0x30, 0x50, 0x3c, 0x80, 0x30, 0x30, 0x3c, 
	0x90, 0x4c, 0x50, 0x00, 0x90, 0x4f, 0x50, 0x3c, 
	0x80, 0x4f, 0x30, 0x00, 0x80, 0x4c, 0x30, 0x00, 
	0x90, 0x37, 0x50, 0x00, 0x90, 0x4b, 0x50, 0x00, 
	0x90, 0x4e, 0x50, 0x3c, 0x80, 0x4e, 0x30, 0x00, 
	0x80, 0x4b, 0x30, 0x00, 0x80, 0x37, 0x30, 0x00, 
	0x90, 0x4a, 0x50, 0x00, 0x90, 0x4d, 0x50, 0x3c, 
	0x80, 0x4d, 0x30, 0x00, 0x80, 0x4a, 0x30, 0x00, 
	0x90, 0x47, 0x50, 0x00, 0x90, 0x4b, 0x50, 0x3c, 
	0x80, 0x4b, 0x30, 0x00, 0x80, 0x47, 0x30, 0x00, 
	0x90, 0x3c, 0x50, 0x3c, 0x80, 0x3c, 0x30, 0x00, 
	0x90, 0x48, 0x50, 0x00, 0x90, 0x4c, 0x50, 0x3c, 
	0x80, 0x4c, 0x30, 0x00, 0x80, 0x48, 0x30, 0x00, 
	0x90, 0x35, 0x50, 0x3c, 0x80, 0x35, 0x30, 0x00, 
	0x90, 0x40, 0x50, 0x00, 0x90, 0x44, 0x50, 0x3c, 
	0x80, 0x44, 0x30, 0x00, 0x80, 0x40, 0x30, 0x00, 
	0x90, 0x41, 0x50, 0x00, 0x90, 0x45, 0x50, 0x3c, 
	0x80, 0x45, 0x30, 0x00, 0x80, 0x41, 0x30, 0x00, 
	0x90, 0x3c, 0x50, 0x00, 0x90, 0x43, 0x50, 0x00, 
	0x90, 0x48, 0x50, 0x3c, 0x80, 0x48, 0x30, 0x00, 
	0x80, 0x43, 0x30, 0x00, 0x80, 0x3c, 0x30, 0x00, 
	0x90, 0x3c, 0x50, 0x3c, 0x80, 0x3c, 0x30, 0x00, 
	0x90, 0x3c, 0x50, 0x00, 0x90, 0x45, 0x50, 0x3c, 
	0x80, 0x45, 0x30, 0x00, 0x80, 0x3c, 0x30, 0x00, 
	0x90, 0x35, 0x50, 0x00, 0x90, 0x40, 0x50, 0x00, 
	0x90, 0x48, 0x50, 0x3c, 0x80, 0x48, 0x30, 0x00, 
	0x80, 0x40, 0x30, 0x00, 0x80, 0x35, 0x30, 0x00, 
	0x90, 0x41, 0x50, 0x00, 0x90, 0x4a, 0x50, 0x3c, 
	0x80, 0x4a, 0x30, 0x00, 0x80, 0x41, 0x30, 0x00, 
	0x90, 0x30, 0x50, 0x3c, 0x80, 0x30, 0x30, 0x3c, 
	0x90, 0x38, 0x50, 0x00, 0x90, 0x44, 0x50, 0x00, 
	0x90, 0x4b, 0x50, 0x3c, 0x80, 0x4b, 0x30, 0x00, 
	0x80, 0x44, 0x30, 0x00, 0x80, 0x38, 0x30, 0x78, 
	0x90, 0x3a, 0x50, 0x00, 0x90, 0x41, 0x50, 0x00, 
	0x90, 0x4a, 0x50, 0x3c, 0x80, 0x4a, 0x30, 0x00, 
	0x80, 0x41, 0x30, 0x00, 0x80, 0x3a, 0x30, 0x78, 
	0x90, 0x40, 0x50, 0x00, 0x90, 0x48, 0x50, 0x00, 
	0x90, 0x3c, 0x50, 0x3c, 0x80, 0x3c, 0x30, 0x00, 
	0x80, 0x48, 0x30, 0x00, 0x80, 0x40, 0x30, 0x78, 
	0x90, 0x37, 0x50, 0x3c, 0x80, 0x37, 0x30, 0x00, 
	0x90, 0x37, 0x50, 0x3c, 0x80, 0x37, 0x30, 0x3c, 
	0x90, 0x30, 0x50, 0x3c, 0x80, 0x30, 0x30, 0x3c, 
	0x90, 0x30, 0x50, 0x3c, 0x80, 0x30, 0x30, 0x3c, 
	0x90, 0x4c, 0x50, 0x00, 0x90, 0x4f, 0x50, 0x3c, 
	0x80, 0x4f, 0x30, 0x00, 0x80, 0x4c, 0x30, 0x00, 
	0x90, 0x37, 0x50, 0x00, 0x90, 0x4b, 0x50, 0x00, 
	0x90, 0x4e, 0x50, 0x3c, 0x80, 0x4e, 0x30, 0x00, 
	0x80, 0x4b, 0x30, 0x00, 0x80, 0x37, 0x30, 0x00, 
	0x90, 0x4a, 0x50, 0x00, 0x90, 0x4d, 0x50, 0x3c, 
	0x80, 0x4d, 0x30, 0x00, 0x80, 0x4a, 0x30, 0x00, 
	0x90, 0x47, 0x50, 0x00, 0x90, 0x4b, 0x50, 0x3c, 
	0x80, 0x4b, 0x30, 0x00, 0x80, 0x47, 0x30, 0x00, 
	0x90, 0x3c, 0x50, 0x3c, 0x80, 0x3c, 0x30, 0x00, 
	0x90, 0x48, 0x50, 0x00, 0x90, 0x4c, 0x50, 0x3c, 
	0x80, 0x4c, 0x30, 0x00, 0x80, 0x48, 0x30, 0x00, 
	0x90, 0x35, 0x50, 0x3c, 0x80, 0x35, 0x30, 0x00, 
	0x90, 0x40, 0x50, 0x00, 0x90, 0x44, 0x50, 0x3c, 
	0x80, 0x44, 0x30, 0x00, 0x80, 0x40, 0x30, 0x00, 
	0x90, 0x41, 0x50, 0x00, 0x90, 0x45, 0x50, 0x3c, 
	0x80, 0x45, 0x30, 0x00, 0x80, 0x41, 0x30, 0x00, 
	0x90, 0x3c, 0x50, 0x00, 0x90, 0x43, 0x50, 0x00, 
	0x90, 0x48, 0x50, 0x3c, 0x80, 0x48, 0x30, 0x00, 
	0x80, 0x43, 0x30, 0x00, 0x80, 0x3c, 0x30, 0x00, 
	0x90, 0x3c, 0x50, 0x3c, 0x80, 0x3c, 0x30, 0x00, 
	0x90, 0x3c, 0x50, 0x00, 0x90, 0x45, 0x50, 0x3c, 
	0x80, 0x45, 0x30, 0x00, 0x80, 0x3c, 0x30, 0x00, 
	0x90, 0x35, 0x50, 0x00, 0x90, 0x40, 0x50, 0x00, 
	0x90, 0x48, 0x50, 0x3c, 0x80, 0x48, 0x30, 0x00, 
	0x80, 0x40, 0x30, 0x00, 0x80, 0x35, 0x30, 0x00, 
	0x90, 0x41, 0x50, 0x00, 0x90, 0x4a, 0x50, 0x3c, 
	0x80, 0x4a, 0x30, 0x00, 0x80, 0x41, 0x30, 0x00, 
	0x90, 0x30, 0x50, 0x3c, 0x80, 0x30, 0x30, 0x3c, 
	0x90, 0x4c, 0x50, 0x00, 0x90, 0x4f, 0x50, 0x3c, 
	0x80, 0x4f, 0x30, 0x00, 0x80, 0x4c, 0x30, 0x00, 
	0x90, 0x34, 0x50, 0x00, 0x90, 0x4b, 0x50, 0x00, 
	0x90, 0x4e, 0x50, 0x3c, 0x80, 0x4e, 0x30, 0x00, 
	0x80, 0x4b, 0x30, 0x00, 0x80, 0x34, 0x30, 0x00, 
	0x90, 0x4a, 0x50, 0x00, 0x90, 0x4d, 0x50, 0x3c, 
	0x80, 0x4d, 0x30, 0x00, 0x80, 0x4a, 0x30, 0x00, 
	0x90, 0x47, 0x50, 0x00, 0x90, 0x4b, 0x50, 0x3c, 
	0x80, 0x4b, 0x30, 0x00, 0x80, 0x47, 0x30, 0x00, 
	0x90, 0x37, 0x50, 0x3c, 0x80, 0x37, 0x30, 0x00, 
	0x90, 0x3c, 0x50, 0x00, 0x90, 0x48, 0x50, 0x00, 
	0x90, 0x4c, 0x50, 0x3c, 0x80, 0x4c, 0x30, 0x00, 
	0x80, 0x48, 0x30, 0x00, 0x80, 0x3c, 0x30, 0x3c, 
	0x90, 0x4d, 0x50, 0x00, 0x90, 0x4f, 0x50, 0x00, 
	0x90, 0x54, 0x50, 0x3c, 0x80, 0x54, 0x30, 0x00, 
	0x80, 0x4f, 0x30, 0x00, 0x80, 0x4d, 0x30, 0x3c, 
	0x90, 0x4d, 0x50, 0x00, 0x90, 0x4f, 0x50, 0x00, 
	0x90, 0x54, 0x50, 0x3c, 0x80, 0x54, 0x30, 0x00, 
	0x80, 0x4f, 0x30, 0x00, 0x80, 0x4d, 0x30, 0x00, 
	0x90, 0x4d, 0x50, 0x00, 0x90, 0x4f, 0x50, 0x00, 
	0x90, 0x54, 0x50, 0x3c, 0x80, 0x54, 0x30, 0x00, 
	0x80, 0x4f, 0x30, 0x00, 0x80, 0x4d, 0x30, 0x3c, 
	0x90, 0x37, 0x50, 0x3c, 0x80, 0x37, 0x30, 0x3c, 
	0x90, 0x30, 0x50, 0x3c, 0x80, 0x30, 0x30, 0x3c, 
	0x90, 0x4c, 0x50, 0x00, 0x90, 0x4f, 0x50, 0x3c, 
	0x80, 0x4f, 0x30, 0x00, 0x80, 0x4c, 0x30, 0x00, 
	0x90, 0x37, 0x50, 0x00, 0x90, 0x4b, 0x50, 0x00, 
	0x90, 0x4e, 0x50, 0x3c, 0x80, 0x4e, 0x30, 0x00, 
	0x80, 0x4b, 0x30, 0x00, 0x80, 0x37, 0x30, 0x00, 
	0x90, 0x4a, 0x50, 0x00, 0x90, 0x4d, 0x50, 0x3c, 
	0x80, 0x4d, 0x30, 0x00, 0x80, 0x4a, 0x30, 0x00, 
	0x90, 0x47, 0x50, 0x00, 0x90, 0x4b, 0x50, 0x3c, 
	0x80, 0x4b, 0x30, 0x00, 0x80, 0x47, 0x30, 0x00, 
	0x90, 0x3c, 0x50, 0x3c, 0x80, 0x3c, 0x30, 0x00, 
	0x90, 0x48, 0x50, 0x00, 0x90, 0x4c, 0x50, 0x3c, 
	0x80, 0x4c, 0x30, 0x00, 0x80, 0x48, 0x30, 0x00, 
	0x90, 0x35, 0x50, 0x3c, 0x80, 0x35, 0x30, 0x00, 
	0x90, 0x40, 0x50, 0x00, 0x90, 0x44, 0x50, 0x3c, 
	0x80, 0x44, 0x30, 0x00, 0x80, 0x40, 0x30, 0x00, 
	0x90, 0x41, 0x50, 0x00, 0x90, 0x45, 0x50, 0x3c, 
	0x80, 0x45, 0x30, 0x00, 0x80, 0x41, 0x30, 0x00, 
	0x90, 0x3c, 0x50, 0x00, 0x90, 0x43, 0x50, 0x00, 
	0x90, 0x48, 0x50, 0x3c, 0x80, 0x48, 0x30, 0x00, 
	0x80, 0x43, 0x30, 0x00, 0x80, 0x3c, 0x30, 0x00, 
	0x90, 0x3c, 0x50, 0x3c, 0x80, 0x3c, 0x30, 0x00, 
	0x90, 0x3c, 0x50, 0x00, 0x90, 0x45, 0x50, 0x3c, 
	0x80, 0x45, 0x30, 0x00, 0x80, 0x3c, 0x30, 0x00, 
	0x90, 0x35, 0x50, 0x00, 0x90, 0x40, 0x50, 0x00, 
	0x90, 0x48, 0x50, 0x3c, 0x80, 0x48, 0x30, 0x00, 
	0x80, 0x40, 0x30, 0x00, 0x80, 0x35, 0x30, 0x00, 
	0x90, 0x41, 0x50, 0x00, 0x90, 0x4a, 0x50, 0x3c, 
	0x80, 0x4a, 0x30, 0x00, 0x80, 0x41, 0x30, 0x00, 
	0x90, 0x30, 0x50, 0x3c, 0x80, 0x30, 0x30, 0x3c, 
	0x90, 0x38, 0x50, 0x00, 0x90, 0x44, 0x50, 0x00, 
	0x90, 0x4b, 0x50, 0x3c, 0x80, 0x4b, 0x30, 0x00, 
	0x80, 0x44, 0x30, 0x00, 0x80, 0x38, 0x30, 0x78, 
	0x90, 0x3a, 0x50, 0x00, 0x90, 0x41, 0x50, 0x00, 
	0x90, 0x4a, 0x50, 0x3c, 0x80, 0x4a, 0x30, 0x00, 
	0x80, 0x41, 0x30, 0x00, 0x80, 0x3a, 0x30, 0x78, 
	0x90, 0x3c, 0x50, 0x00, 0x90, 0x40, 0x50, 0x00, 
	0x90, 0x48, 0x50, 0x3c, 0x80, 0x48, 0x30, 0x00, 
	0x80, 0x40, 0x30, 0x00, 0x80, 0x3c, 0x30, 0x78, 
	0x90, 0x37, 0x50, 0x3c, 0x80, 0x37, 0x30, 0x00, 
	0x90, 0x37, 0x50, 0x3c, 0x80, 0x37, 0x30, 0x3c, 
	0x90, 0x30, 0x50, 0x3c, 0x80, 0x30, 0x30, 0x3c, 
	0x90, 0x2c, 0x50, 0x00, 0x90, 0x44, 0x50, 0x00, 
	0x90, 0x48, 0x50, 0x3c, 0x80, 0x48, 0x30, 0x00, 
	0x80, 0x44, 0x30, 0x00, 0x80, 0x2c, 0x30, 0x00, 
	0x90, 0x44, 0x50, 0x00, 0x90, 0x48, 0x50, 0x3c, 
	0x80, 0x48, 0x30, 0x00, 0x80, 0x44, 0x30, 0x3c, 
	0x90, 0x33, 0x50, 0x00, 0x90, 0x44, 0x50, 0x00, 
	0x90, 0x48, 0x50, 0x3c, 0x80, 0x48, 0x30, 0x00, 
	0x80, 0x44, 0x30, 0x00, 0x80, 0x33, 0x30, 0x3c, 
	0x90, 0x44, 0x50, 0x00, 0x90, 0x48, 0x50, 0x3c, 
	0x80, 0x48, 0x30, 0x00, 0x80, 0x44, 0x30, 0x00, 
	0x90, 0x38, 0x50, 0x00, 0x90, 0x46, 0x50, 0x00, 
	0x90, 0x4a, 0x50, 0x3c, 0x80, 0x4a, 0x30, 0x00, 
	0x80, 0x46, 0x30, 0x00, 0x80, 0x38, 0x30, 0x3c, 
	0x90, 0x37, 0x50, 0x00, 0x90, 0x43, 0x50, 0x00, 
	0x90, 0x4c, 0x50, 0x3c, 0x80, 0x4c, 0x30, 0x00, 
	0x80, 0x43, 0x30, 0x00, 0x80, 0x37, 0x30, 0x00, 
	0x90, 0x40, 0x50, 0x00, 0x90, 0x48, 0x50, 0x3c, 
	0x80, 0x48, 0x30, 0x00, 0x80, 0x40, 0x30, 0x3c, 
	0x90, 0x30, 0x50, 0x00, 0x90, 0x40, 0x50, 0x00, 
	0x90, 0x45, 0x50, 0x3c, 0x80, 0x45, 0x30, 0x00, 
	0x80, 0x40, 0x30, 0x00, 0x80, 0x30, 0x30, 0x00, 
	0x90, 0x3c, 0x50, 0x00, 0x90, 0x43, 0x50, 0x3c, 
	0x80, 0x43, 0x30, 0x00, 0x80, 0x3c, 0x30, 0x3c, 
	0x90, 0x2b, 0x50, 0x3c, 0x80, 0x2b, 0x30, 0x3c, 
	0x90, 0x2c, 0x50, 0x00, 0x90, 0x44, 0x50, 0x00, 
	0x90, 0x48, 0x50, 0x3c, 0x80, 0x48, 0x30, 0x00, 
	0x80, 0x44, 0x30, 0x00, 0x80, 0x2c, 0x30, 0x00, 
	0x90, 0x44, 0x50, 0x00, 0x90, 0x48, 0x50, 0x3c, 
	0x80, 0x48, 0x30, 0x00, 0x80, 0x44, 0x30, 0x3c, 
	0x90, 0x33, 0x50, 0x00, 0x90, 0x44, 0x50, 0x00, 
	0x90, 0x48, 0x50, 0x3c, 0x80, 0x48, 0x30, 0x00, 
	0x80, 0x44, 0x30, 0x00, 0x80, 0x33, 0x30, 0x3c, 
	0x90, 0x44, 0x50, 0x00, 0x90, 0x48, 0x50, 0x3c, 
	0x80, 0x48, 0x30, 0x00, 0x80, 0x44, 0x30, 0x00, 
	0x90, 0x38, 0x50, 0x00, 0x90, 0x46, 0x50, 0x00, 
	0x90, 0x4a, 0x50, 0x3c, 0x80, 0x4a, 0x30, 0x00, 
	0x80, 0x46, 0x30, 0x00, 0x80, 0x38, 0x30, 0x00, 
	0x90, 0x43, 0x50, 0x00, 0x90, 0x4c, 0x50, 0x3c, 
	0x80, 0x4c, 0x30, 0x00, 0x80, 0x43, 0x30, 0x00, 
	0x90, 0x37, 0x50, 0x3c, 0x80, 0x37, 0x30, 0x78, 
	0x90, 0x30, 0x50, 0x3c, 0x80, 0x30, 0x30, 0x78, 
	0x90, 0x2b, 0x50, 0x3c, 0x80, 0x2b, 0x30, 0x3c, 
	0x90, 0x2c, 0x50, 0x00, 0x90, 0x44, 0x50, 0x00, 
	0x90, 0x48, 0x50, 0x3c, 0x80, 0x48, 0x30, 0x00, 
	0x80, 0x44, 0x30, 0x00, 0x80, 0x2c, 0x30, 0x00, 
	0x90, 0x44, 0x50, 0x00, 0x90, 0x48, 0x50, 0x3c, 
	0x80, 0x48, 0x30, 0x00, 0x80, 0x44, 0x30, 0x3c, 
	0x90, 0x33, 0x50, 0x00, 0x90, 0x44, 0x50, 0x00, 
	0x90, 0x48, 0x50, 0x3c, 0x80, 0x48, 0x30, 0x00, 
	0x80, 0x44, 0x30, 0x00, 0x80, 0x33, 0x30, 0x3c, 
	0x90, 0x44, 0x50, 0x00, 0x90, 0x48, 0x50, 0x3c, 
	0x80, 0x48, 0x30, 0x00, 0x80, 0x44, 0x30, 0x00, 
	0x90, 0x38, 0x50, 0x00, 0x90, 0x46, 0x50, 0x00, 
	0x90, 0x4a, 0x50, 0x3c, 0x80, 0x4a, 0x30, 0x00, 
	0x80, 0x46, 0x30, 0x00, 0x80, 0x38, 0x30, 0x3c, 
	0x90, 0x37, 0x50, 0x00, 0x90, 0x43, 0x50, 0x00, 
	0x90, 0x4c, 0x50, 0x3c, 0x80, 0x4c, 0x30, 0x00, 
	0x80, 0x43, 0x30, 0x00, 0x80, 0x37, 0x30, 0x00, 
	0x90, 0x40, 0x50, 0x00, 0x90, 0x48, 0x50, 0x3c, 
	0x80, 0x48, 0x30, 0x00, 0x80, 0x40, 0x30, 0x3c, 
	0x90, 0x30, 0x50, 0x00, 0x90, 0x40, 0x50, 0x00, 
	0x90, 0x45, 0x50, 0x3c, 0x80, 0x45, 0x30, 0x00, 
	0x80, 0x40, 0x30, 0x00, 0x80, 0x30, 0x30, 0x00, 
	0x90, 0x3c, 0x50, 0x00, 0x90, 0x43, 0x50, 0x3c, 
	0x80, 0x43, 0x30, 0x00, 0x80, 0x3c, 0x30, 0x3c, 
	0x90, 0x2b, 0x50, 0x3c, 0x80, 0x2b, 0x30, 0x3c, 
	0x90, 0x32, 0x50, 0x00, 0x90, 0x42, 0x50, 0x00, 
	0x90, 0x4c, 0x50, 0x3c, 0x80, 0x4c, 0x30, 0x00, 
	0x80, 0x42, 0x30, 0x00, 0x80, 0x32, 0x30, 0x00, 
	0x90, 0x32, 0x50, 0x00, 0x90, 0x42, 0x50, 0x00, 
	0x90, 0x4c, 0x50, 0x3c, 0x80, 0x4c, 0x30, 0x00, 
	0x80, 0x42, 0x30, 0x00, 0x80, 0x32, 0x30, 0x3c, 
	0x90, 0x32, 0x50, 0x00, 0x90, 0x42, 0x50, 0x00, 
	0x90, 0x4c, 0x50, 0x3c, 0x80, 0x4c, 0x30, 0x00, 
	0x80, 0x42, 0x30, 0x00, 0x80, 0x32, 0x30, 0x3c, 
	0x90, 0x32, 0x50, 0x00, 0x90, 0x42, 0x50, 0x00, 
	0x90, 0x48, 0x50, 0x3c, 0x80, 0x48, 0x30, 0x00, 
	0x80, 0x42, 0x30, 0x00, 0x80, 0x32, 0x30, 0x00, 
	0x90, 0x32, 0x50, 0x00, 0x90, 0x42, 0x50, 0x00, 
	0x90, 0x4c, 0x50, 0x3c, 0x80, 0x4c, 0x30, 0x00, 
	0x80, 0x42, 0x30, 0x00, 0x80, 0x32, 0x30, 0x3c, 
	0x90, 0x43, 0x50, 0x00, 0x90, 0x47, 0x50, 0x00, 
	0x90, 0x4f, 0x50, 0x3c, 0x80, 0x4f, 0x30, 0x00, 
	0x80, 0x47, 0x30, 0x00, 0x80, 0x43, 0x30, 0x81, 
	0x34, 0x90, 0x37, 0x50, 0x00, 0x90, 0x43, 0x50, 
	0x3c, 0x80, 0x43, 0x30, 0x00, 0x80, 0x37, 0x30, 
	0x81, 0x34, 0x90, 0x37, 0x50, 0x00, 0x90, 0x40, 
	0x50, 0x00, 0x90, 0x48, 0x50, 0x3c, 0x80, 0x48, 
	0x30, 0x00, 0x80, 0x40, 0x30, 0x00, 0x80, 0x37, 
	0x30, 0x78, 0x90, 0x34, 0x50, 0x00, 0x90, 0x3c, 
	0x50, 0x00, 0x90, 0x43, 0x50, 0x3c, 0x80, 0x43, 
	0x30, 0x00, 0x80, 0x3c, 0x30, 0x00, 0x80, 0x34, 
	0x30, 0x78, 0x90, 0x30, 0x50, 0x00, 0x90, 0x37, 
	0x50, 0x00, 0x90, 0x40, 0x50, 0x3c, 0x80, 0x40, 
	0x30, 0x00, 0x80, 0x37, 0x30, 0x00, 0x80, 0x30, 
	0x30, 0x78, 0x90, 0x35, 0x50, 0x00, 0x90, 0x3c, 
	0x50, 0x00, 0x90, 0x45, 0x50, 0x3c, 0x80, 0x45, 
	0x30, 0x00, 0x80, 0x3c, 0x30, 0x00, 0x80, 0x35, 
	0x30, 0x3c, 0x90, 0x37, 0x50, 0x00, 0x90, 0x3e, 
	0x50, 0x00, 0x90, 0x47, 0x50, 0x3c, 0x80, 0x47, 
	0x30, 0x00, 0x80, 0x3e, 0x30, 0x00, 0x80, 0x37, 
	0x30, 0x3c, 0x90, 0x36, 0x50, 0x00, 0x90, 0x3d, 
	0x50, 0x00, 0x90, 0x46, 0x50, 0x3c, 0x80, 0x46, 
	0x30, 0x00, 0x80, 0x3d, 0x30, 0x00, 0x80, 0x36, 
	0x30, 0x00, 0x90, 0x35, 0x50, 0x00, 0x90, 0x3c, 
	0x50, 0x00, 0x90, 0x45, 0x50, 0x3c, 0x80, 0x45, 
	0x30, 0x00, 0x80, 0x3c, 0x30, 0x00, 0x80, 0x35, 
	0x30, 0x3c, 0x90, 0x34, 0x50, 0x00, 0x90, 0x3c, 
	0x50, 0x00, 0x90, 0x43, 0x50, 0x50, 0x80, 0x43, 
	0x30, 0x00, 0x80, 0x3c, 0x30, 0x00, 0x80, 0x34, 
	0x30, 0x00, 0x90, 0x3c, 0x50, 0x00, 0x90, 0x43, 
	0x50, 0x00, 0x90, 0x4c, 0x50, 0x4f, 0x90, 0x40, 
	0x50, 0x00, 0x90, 0x47, 0x50, 0x00, 0x90, 0x4f, 
	0x50, 0x01, 0x80, 0x4c, 0x30, 0x00, 0x80, 0x43, 
	0x30, 0x00, 0x80, 0x3c, 0x30, 0x4f, 0x80, 0x4f, 
	0x30, 0x00, 0x80, 0x47, 0x30, 0x00, 0x80, 0x40, 
	0x30, 0x01, 0x90, 0x41, 0x50, 0x00, 0x90, 0x48, 
	0x50, 0x00, 0x90, 0x51, 0x50, 0x3c, 0x80, 0x51, 
	0x30, 0x00, 0x80, 0x48, 0x30, 0x00, 0x80, 0x41, 
	0x30, 0x3c, 0x90, 0x3e, 0x50, 0x00, 0x90, 0x45, 
	0x50, 0x00, 0x90, 0x4d, 0x50, 0x3c, 0x80, 0x4d, 
	0x30, 0x00, 0x80, 0x45, 0x30, 0x00, 0x80, 0x3e, 
	0x30, 0x00, 0x90, 0x40, 0x50, 0x00, 0x90, 0x47, 
	0x50, 0x00, 0x90, 0x4f, 0x50, 0x3c, 0x80, 0x4f, 
	0x30, 0x00, 0x80, 0x47, 0x30, 0x00, 0x80, 0x40, 
	0x30, 0x3c, 0x90, 0x3c, 0x50, 0x00, 0x90, 0x45, 
	0x50, 0x00, 0x90, 0x4c, 0x50, 0x3c, 0x80, 0x4c, 
	0x30, 0x00, 0x80, 0x45, 0x30, 0x00, 0x80, 0x3c, 
	0x30, 0x3c, 0x90, 0x39, 0x50, 0x00, 0x90, 0x40, 
	0x50, 0x00, 0x90, 0x48, 0x50, 0x3c, 0x80, 0x48, 
	0x30, 0x00, 0x80, 0x40, 0x30, 0x00, 0x80, 0x39, 
	0x30, 0x00, 0x90, 0x3b, 0x50, 0x00, 0x90, 0x41, 
	0x50, 0x00, 0x90, 0x4a, 0x50, 0x3c, 0x80, 0x4a, 
	0x30, 0x00, 0x80, 0x41, 0x30, 0x00, 0x80, 0x3b, 
	0x30, 0x00, 0x90, 0x37, 0x50, 0x00, 0x90, 0x3e, 
	0x50, 0x00, 0x90, 0x47, 0x50, 0x3c, 0x80, 0x47, 
	0x30, 0x00, 0x80, 0x3e, 0x30, 0x00, 0x80, 0x37, 
	0x30, 0x78, 0x90, 0x37, 0x50, 0x00, 0x90, 0x40, 
	0x50, 0x00, 0x90, 0x48, 0x50, 0x3c, 0x80, 0x48, 
	0x30, 0x00, 0x80, 0x40, 0x30, 0x00, 0x80, 0x37, 
	0x30, 0x78, 0x90, 0x34, 0x50, 0x00, 0x90, 0x3c, 
	0x50, 0x00, 0x90, 0x43, 0x50, 0x3c, 0x80, 0x43, 
	0x30, 0x00, 0x80, 0x3c, 0x30, 0x00, 0x80, 0x34, 
	0x30, 0x78, 0x90, 0x30, 0x50, 0x00, 0x90, 0x37, 
	0x50, 0x00, 0x90, 0x40, 0x50, 0x3c, 0x80, 0x40, 
	0x30, 0x00, 0x80, 0x37, 0x30, 0x00, 0x80, 0x30, 
	0x30, 0x78, 0x90, 0x35, 0x50, 0x00, 0x90, 0x3c, 
	0x50, 0x00, 0x90, 0x45, 0x50, 0x3c, 0x80, 0x45, 
	0x30, 0x00, 0x80, 0x3c, 0x30, 0x00, 0x80, 0x35, 
	0x30, 0x3c, 0x90, 0x37, 0x50, 0x00, 0x90, 0x3e, 
	0x50, 0x00, 0x90, 0x47, 0x50, 0x3c, 0x80, 0x47, 
	0x30, 0x00, 0x80, 0x3e, 0x30, 0x00, 0x80, 0x37, 
	0x30, 0x3c, 0x90, 0x36, 0x50, 0x00, 0x90, 0x3d, 
	0x50, 0x00, 0x90, 0x46, 0x50, 0x3c, 0x80, 0x46, 
	0x30, 0x00, 0x80, 0x3d, 0x30, 0x00, 0x80, 0x36, 
	0x30, 0x00, 0x90, 0x35, 0x50, 0x00, 0x90, 0x3c, 
	0x50, 0x00, 0x90, 0x45, 0x50, 0x3c, 0x80, 0x45, 
	0x30, 0x00, 0x80, 0x3c, 0x30, 0x00, 0x80, 0x35, 
	0x30, 0x3c, 0x90, 0x34, 0x50, 0x00, 0x90, 0x3c, 
	0x50, 0x00, 0x90, 0x43, 0x50, 0x50, 0x80, 0x43, 
	0x30, 0x00, 0x80, 0x3c, 0x30, 0x00, 0x80, 0x34, 
	0x30, 0x00, 0x90, 0x3c, 0x50, 0x00, 0x90, 0x43, 
	0x50, 0x00, 0x90, 0x4c, 0x50, 0x4f, 0x90, 0x40, 
	0x50, 0x00, 0x90, 0x47, 0x50, 0x00, 0x90, 0x4f, 
	0x50, 0x01, 0x80, 0x4c, 0x30, 0x00, 0x80, 0x43, 
	0x30, 0x00, 0x80, 0x3c, 0x30, 0x4f, 0x80, 0x4f, 
	0x30, 0x00, 0x80, 0x47, 0x30, 0x00, 0x80, 0x40, 
	0x30, 0x01, 0x90, 0x41, 0x50, 0x00, 0x90, 0x48, 
	0x50, 0x00, 0x90, 0x51, 0x50, 0x3c, 0x80, 0x51, 
	0x30, 0x00, 0x80, 0x48, 0x30, 0x00, 0x80, 0x41, 
	0x30, 0x3c, 0x90, 0x3e, 0x50, 0x00, 0x90, 0x45, 
	0x50, 0x00, 0x90, 0x4d, 0x50, 0x3c, 0x80, 0x4d, 
	0x30, 0x00, 0x80, 0x45, 0x30, 0x00, 0x80, 0x3e, 
	0x30, 0x00, 0x90, 0x40, 0x50, 0x00, 0x90, 0x47, 
	0x50, 0x00, 0x90, 0x4f, 0x50, 0x3c, 0x80, 0x4f, 
	0x30, 0x00, 0x80, 0x47, 0x30, 0x00, 0x80, 0x40, 
	0x30, 0x3c, 0x90, 0x3c, 0x50, 0x00, 0x90, 0x45, 
	0x50, 0x00, 0x90, 0x4c, 0x50, 0x3c, 0x80, 0x4c, 
	0x30, 0x00, 0x80, 0x45, 0x30, 0x00, 0x80, 0x3c, 
	0x30, 0x3c, 0x90, 0x39, 0x50, 0x00, 0x90, 0x40, 
	0x50, 0x00, 0x90, 0x48, 0x50, 0x3c, 0x80, 0x48, 
	0x30, 0x00, 0x80, 0x40, 0x30, 0x00, 0x80, 0x39, 
	0x30, 0x00, 0x90, 0x3b, 0x50, 0x00, 0x90, 0x41, 
	0x50, 0x00, 0x90, 0x4a, 0x50, 0x3c, 0x80, 0x4a, 
	0x30, 0x00, 0x80, 0x41, 0x30, 0x00, 0x80, 0x3b, 
	0x30, 0x00, 0x90, 0x37, 0x50, 0x00, 0x90, 0x3e, 
	0x50, 0x00, 0x90, 0x47, 0x50, 0x3c, 0x80, 0x47, 
	0x30, 0x00, 0x80, 0x3e, 0x30, 0x00, 0x80, 0x37, 
	0x30, 0x78, 0x90, 0x30, 0x50, 0x00, 0x90, 0x48, 
	0x50, 0x00, 0x90, 0x4c, 0x50, 0x3c, 0x80, 0x4c, 
	0x30, 0x00, 0x80, 0x48, 0x30, 0x00, 0x80, 0x30, 
	0x30, 0x00, 0x90, 0x45, 0x50, 0x00, 0x90, 0x48, 
	0x50, 0x3c, 0x80, 0x48, 0x30, 0x00, 0x80, 0x45, 
	0x30, 0x3c, 0x90, 0x36, 0x50, 0x00, 0x90, 0x40, 
	0x50, 0x00, 0x90, 0x43, 0x50, 0x3c, 0x80, 0x43, 
	0x30, 0x00, 0x80, 0x40, 0x30, 0x00, 0x80, 0x36, 
	0x30, 0x00, 0x90, 0x37, 0x50, 0x3c, 0x80, 0x37, 
	0x30, 0x3c, 0x90, 0x3c, 0x50, 0x00, 0x90, 0x40, 
	0x50, 0x00, 0x90, 0x44, 0x50, 0x3c, 0x80, 0x44, 
	0x30, 0x00, 0x80, 0x40, 0x30, 0x00, 0x80, 0x3c, 
	0x30, 0x3c, 0x90, 0x35, 0x50, 0x00, 0x90, 0x41, 
	0x50, 0x00, 0x90, 0x45, 0x50, 0x3c, 0x80, 0x45, 
	0x30, 0x00, 0x80, 0x41, 0x30, 0x00, 0x80, 0x35, 
	0x30, 0x00, 0x90, 0x48, 0x50, 0x00, 0x90, 0x4d, 
	0x50, 0x3c, 0x80, 0x4d, 0x30, 0x00, 0x80, 0x48, 
	0x30, 0x00, 0x90, 0x35, 0x50, 0x3c, 0x80, 0x35, 
	0x30, 0x00, 0x90, 0x48, 0x50, 0x00, 0x90, 0x4d, 
	0x50, 0x3c, 0x80, 0x4d, 0x30, 0x00, 0x80, 0x48, 
	0x30, 0x00, 0x90, 0x3c, 0x50, 0x00, 0x90, 0x41, 
	0x50, 0x00, 0x90, 0x45, 0x50, 0x3c, 0x80, 0x45, 
	0x30, 0x00, 0x80, 0x41, 0x30, 0x00, 0x80, 0x3c, 
	0x30, 0x00, 0x90, 0x3c, 0x50, 0x3c, 0x80, 0x3c, 
	0x30, 0x00, 0x90, 0x35, 0x50, 0x3c, 0x80, 0x35, 
	0x30, 0x3c, 0x90, 0x32, 0x50, 0x00, 0x90, 0x43, 
	0x50, 0x00, 0x90, 0x47, 0x50, 0x3c, 0x80, 0x32, 
	0x30, 0x14, 0x80, 0x47, 0x30, 0x00, 0x80, 0x43, 
	0x30, 0x00, 0x90, 0x4d, 0x50, 0x00, 0x90, 0x51, 
	0x50, 0x4f, 0x90, 0x4d, 0x50, 0x00, 0x90, 0x51, 
	0x50, 0x01, 0x80, 0x51, 0x30, 0x00, 0x80, 0x4d, 
	0x30, 0x14, 0x90, 0x35, 0x50, 0x3b, 0x80, 0x51, 
	0x30, 0x00, 0x80, 0x4d, 0x30, 0x01, 0x80, 0x35, 
	0x30, 0x00, 0x90, 0x37, 0x50, 0x00, 0x90, 0x4d, 
	0x50, 0x00, 0x90, 0x51, 0x50, 0x3c, 0x80, 0x37, 
	0x30, 0x14, 0x80, 0x51, 0x30, 0x00, 0x80, 0x4d, 
	0x30, 0x00, 0x90, 0x4c, 0x50, 0x00, 0x90, 0x4f, 
	0x50, 0x28, 0x90, 0x3b, 0x50, 0x27, 0x90, 0x4a, 
	0x50, 0x00, 0x90, 0x4d, 0x50, 0x01, 0x80, 0x4f, 
	0x30, 0x00, 0x80, 0x4c, 0x30, 0x14, 0x80, 0x3b, 
	0x30, 0x3b, 0x80, 0x4d, 0x30, 0x00, 0x80, 0x4a, 
	0x30, 0x01, 0x90, 0x37, 0x50, 0x00, 0x90, 0x48, 
	0x50, 0x00, 0x90, 0x4c, 0x50, 0x3c, 0x80, 0x4c, 
	0x30, 0x00, 0x80, 0x48, 0x30, 0x00, 0x80, 0x37, 
	0x30, 0x00, 0x90, 0x45, 0x50, 0x00, 0x90, 0x48, 
	0x50, 0x3c, 0x80, 0x48, 0x30, 0x00, 0x80, 0x45, 
	0x30, 0x00, 0x90, 0x37, 0x50, 0x3c, 0x80, 0x37, 
	0x30, 0x00, 0x90, 0x41, 0x50, 0x00, 0x90, 0x45, 
	0x50, 0x3c, 0x80, 0x45, 0x30, 0x00, 0x80, 0x41, 
	0x30, 0x00, 0x90, 0x3c, 0x50, 0x00, 0x90, 0x40, 
	0x50, 0x00, 0x90, 0x43, 0x50, 0x3c, 0x80, 0x43, 
	0x30, 0x00, 0x80, 0x40, 0x30, 0x00, 0x80, 0x3c, 
	0x30, 0x00, 0x90, 0x3c, 0x50, 0x3c, 0x80, 0x3c, 
	0x30, 0x00, 0x90, 0x37, 0x50, 0x3c, 0x80, 0x37, 
	0x30, 0x3c, 0x90, 0x30, 0x50, 0x00, 0x90, 0x48, 
	0x50, 0x00, 0x90, 0x4c, 0x50, 0x3c, 0x80, 0x4c, 
	0x30, 0x00, 0x80, 0x48, 0x30, 0x00, 0x80, 0x30, 
	0x30, 0x00, 0x90, 0x45, 0x50, 0x00, 0x90, 0x48, 
	0x50, 0x3c, 0x80, 0x48, 0x30, 0x00, 0x80, 0x45, 
	0x30, 0x3c, 0x90, 0x36, 0x50, 0x00, 0x90, 0x40, 
	0x50, 0x00, 0x90, 0x43, 0x50, 0x3c, 0x80, 0x43, 
	0x30, 0x00, 0x80, 0x40, 0x30, 0x00, 0x80, 0x36, 
	0x30, 0x00, 0x90, 0x37, 0x50, 0x3c, 0x80, 0x37, 
	0x30, 0x3c, 0x90, 0x3c, 0x50, 0x00, 0x90, 0x40, 
	0x50, 0x00, 0x90, 0x44, 0x50, 0x3c, 0x80, 0x44, 
	0x30, 0x00, 0x80, 0x40, 0x30, 0x00, 0x80, 0x3c, 
	0x30, 0x3c, 0x90, 0x35, 0x50, 0x00, 0x90, 0x41, 
	0x50, 0x00, 0x90, 0x45, 0x50, 0x3c, 0x80, 0x45, 
	0x30, 0x00, 0x80, 0x41, 0x30, 0x00, 0x80, 0x35, 
	0x30, 0x00, 0x90, 0x48, 0x50, 0x00, 0x90, 0x4d, 
	0x50, 0x3c, 0x80, 0x4d, 0x30, 0x00, 0x80, 0x48, 
	0x30, 0x00, 0x90, 0x35, 0x50, 0x3c, 0x80, 0x35, 
	0x30, 0x00, 0x90, 0x48, 0x50, 0x00, 0x90, 0x4d, 
	0x50, 0x3c, 0x80, 0x4d, 0x30, 0x00, 0x80, 0x48, 
	0x30, 0x00, 0x90, 0x3c, 0x50, 0x00, 0x90, 0x41, 
	0x50, 0x00, 0x90, 0x45, 0x50, 0x3c, 0x80, 0x45, 
	0x30, 0x00, 0x80, 0x41, 0x30, 0x00, 0x80, 0x3c, 
	0x30, 0x00, 0x90, 0x3c, 0x50, 0x3c, 0x80, 0x3c, 
	0x30, 0x00, 0x90, 0x35, 0x50, 0x3c, 0x80, 0x35, 
	0x30, 0x3c, 0x90, 0x37, 0x50, 0x00, 0x90, 0x43, 
	0x50, 0x00, 0x90, 0x47, 0x50, 0x3c, 0x80, 0x47, 
	0x30, 0x00, 0x80, 0x43, 0x30, 0x00, 0x80, 0x37, 
	0x30, 0x00, 0x90, 0x4a, 0x50, 0x00, 0x90, 0x4d, 
	0x50, 0x3c, 0x80, 0x4d, 0x30, 0x00, 0x80, 0x4a, 
	0x30, 0x3c, 0x90, 0x37, 0x50, 0x00, 0x90, 0x4a, 
	0x50, 0x00, 0x90, 0x4d, 0x50, 0x3c, 0x80, 0x4d, 
	0x30, 0x00, 0x80, 0x4a, 0x30, 0x00, 0x80, 0x37, 
	0x30, 0x00, 0x90, 0x37, 0x50, 0x00, 0x90, 0x4a, 
	0x50, 0x00, 0x90, 0x4d, 0x50, 0x50, 0x80, 0x4d, 
	0x30, 0x00, 0x80, 0x4a, 0x30, 0x00, 0x80, 0x37, 
	0x30, 0x00, 0x90, 0x39, 0x50, 0x00, 0x90, 0x48, 
	0x50, 0x00, 0x90, 0x4c, 0x50, 0x4f, 0x90, 0x3b, 
	0x50, 0x00, 0x90, 0x47, 0x50, 0x00, 0x90, 0x4a, 
	0x50, 0x01, 0x80, 0x4c, 0x30, 0x00, 0x80, 0x48, 
	0x30, 0x00, 0x80, 0x39, 0x30, 0x4f, 0x80, 0x4a, 
	0x30, 0x00, 0x80, 0x47, 0x30, 0x00, 0x80, 0x3b, 
	0x30, 0x01, 0x90, 0x3c, 0x50, 0x00, 0x90, 0x43, 
	0x50, 0x00, 0x90, 0x48, 0x50, 0x3c, 0x80, 0x48, 
	0x30, 0x00, 0x80, 0x43, 0x30, 0x00, 0x80, 0x3c, 
	0x30, 0x00, 0x90, 0x40, 0x50, 0x3c, 0x80, 0x40, 
	0x30, 0x00, 0x90, 0x37, 0x50, 0x3c, 0x80, 0x37, 
	0x30, 0x00, 0x90, 0x40, 0x50, 0x3c, 0x80, 0x40, 
	0x30, 0x00, 0x90, 0x30, 0x50, 0x00, 0x90, 0x3c, 
	0x50, 0x3c, 0x80, 0x3c, 0x30, 0x00, 0x80, 0x30, 
	0x30, 0x81, 0x34, 0x90, 0x30, 0x50, 0x00, 0x90, 
	0x48, 0x50, 0x00, 0x90, 0x4c, 0x50, 0x3c, 0x80, 
	0x4c, 0x30, 0x00, 0x80, 0x48, 0x30, 0x00, 0x80, 
	0x30, 0x30, 0x00, 0x90, 0x45, 0x50, 0x00, 0x90, 
	0x48, 0x50, 0x3c, 0x80, 0x48, 0x30, 0x00, 0x80, 
	0x45, 0x30, 0x3c, 0x90, 0x36, 0x50, 0x00, 0x90, 
	0x40, 0x50, 0x00, 0x90, 0x43, 0x50, 0x3c, 0x80, 
	0x43, 0x30, 0x00, 0x80, 0x40, 0x30, 0x00, 0x80, 
	0x36, 0x30, 0x00, 0x90, 0x37, 0x50, 0x3c, 0x80, 
	0x37, 0x30, 0x3c, 0x90, 0x3c, 0x50, 0x00, 0x90, 
	0x40, 0x50, 0x00, 0x90, 0x44, 0x50, 0x3c, 0x80, 
	0x44, 0x30, 0x00, 0x80, 0x40, 0x30, 0x00, 0x80, 
	0x3c, 0x30, 0x3c, 0x90, 0x35, 0x50, 0x00, 0x90, 
	0x41, 0x50, 0x00, 0x90, 0x45, 0x50, 0x3c, 0x80, 
	0x45, 0x30, 0x00, 0x80, 0x41, 0x30, 0x00, 0x80, 
	0x35, 0x30, 0x00, 0x90, 0x48, 0x50, 0x00, 0x90, 
	0x4d, 0x50, 0x3c, 0x80, 0x4d, 0x30, 0x00, 0x80, 
	0x48, 0x30, 0x00, 0x90, 0x35, 0x50, 0x3c, 0x80, 
	0x35, 0x30, 0x00, 0x90, 0x48, 0x50, 0x00, 0x90, 
	0x4d, 0x50, 0x3c, 0x80, 0x4d, 0x30, 0x00, 0x80, 
	0x48, 0x30, 0x00, 0x90, 0x3c, 0x50, 0x00, 0x90, 
	0x41, 0x50, 0x00, 0x90, 0x45, 0x50, 0x3c, 0x80, 
	0x45, 0x30, 0x00, 0x80, 0x41, 0x30, 0x00, 0x80, 
	0x3c, 0x30, 0x00, 0x90, 0x3c, 0x50, 0x3c, 0x80, 
	0x3c, 0x30, 0x00, 0x90, 0x35, 0x50, 0x3c, 0x80, 
	0x35, 0x30, 0x3c, 0x90, 0x32, 0x50, 0x00, 0x90, 
	0x43, 0x50, 0x00, 0x90, 0x47, 0x50, 0x3c, 0x80, 
	0x32, 0x30, 0x14, 0x80, 0x47, 0x30, 0x00, 0x80, 
	0x43, 0x30, 0x00, 0x90, 0x4d, 0x50, 0x00, 0x90, 
	0x51, 0x50, 0x4f, 0x90, 0x4d, 0x50, 0x00, 0x90, 
	0x51, 0x50, 0x01, 0x80, 0x51, 0x30, 0x00, 0x80, 
	0x4d, 0x30, 0x14, 0x90, 0x35, 0x50, 0x3b, 0x80, 
	0x51, 0x30, 0x00, 0x80, 0x4d, 0x30, 0x01, 0x80, 
	0x35, 0x30, 0x00, 0x90, 0x37, 0x50, 0x00, 0x90, 
	0x4d, 0x50, 0x00, 0x90, 0x51, 0x50, 0x3c, 0x80, 
	0x37, 0x30, 0x14, 0x80, 0x51, 0x30, 0x00, 0x80, 
	0x4d, 0x30, 0x00, 0x90, 0x4c, 0x50, 0x00, 0x90, 
	0x4f, 0x50, 0x28, 0x90, 0x3b, 0x50, 0x27, 0x90, 
	0x4a, 0x50, 0x00, 0x90, 0x4d, 0x50, 0x01, 0x80, 
	0x4f, 0x30, 0x00, 0x80, 0x4c, 0x30, 0x14, 0x80, 
	0x3b, 0x30, 0x3b, 0x80, 0x4d, 0x30, 0x00, 0x80, 
	0x4a, 0x30, 0x01, 0x90, 0x37, 0x50, 0x00, 0x90, 
	0x48, 0x50, 0x00, 0x90, 0x4c, 0x50, 0x3c, 0x80, 
	0x4c, 0x30, 0x00, 0x80, 0x48, 0x30, 0x00, 0x80, 
	0x37, 0x30, 0x00, 0x90, 0x45, 0x50, 0x00, 0x90, 
	0x48, 0x50, 0x3c, 0x80, 0x48, 0x30, 0x00, 0x80, 
	0x45, 0x30, 0x00, 0x90, 0x37, 0x50, 0x3c, 0x80, 
	0x37, 0x30, 0x00, 0x90, 0x41, 0x50, 0x00, 0x90, 
	0x45, 0x50, 0x3c, 0x80, 0x45, 0x30, 0x00, 0x80, 
	0x41, 0x30, 0x00, 0x90, 0x3c, 0x50, 0x00, 0x90, 
	0x40, 0x50, 0x00, 0x90, 0x43, 0x50, 0x3c, 0x80, 
	0x43, 0x30, 0x00, 0x80, 0x40, 0x30, 0x00, 0x80, 
	0x3c, 0x30, 0x00, 0x90, 0x3c, 0x50, 0x3c, 0x80, 
	0x3c, 0x30, 0x00, 0x90, 0x37, 0x50, 0x3c, 0x80, 
	0x37, 0x30, 0x3c, 0x90, 0x30, 0x50, 0x00, 0x90, 
	0x48, 0x50, 0x00, 0x90, 0x4c, 0x50, 0x3c, 0x80, 
	0x4c, 0x30, 0x00, 0x80, 0x48, 0x30, 0x00, 0x80, 
	0x30, 0x30, 0x00, 0x90, 0x45, 0x50, 0x00, 0x90, 
	0x48, 0x50, 0x3c, 0x80, 0x48, 0x30, 0x00, 0x80, 
	0x45, 0x30, 0x3c, 0x90, 0x36, 0x50, 0x00, 0x90, 
	0x40, 0x50, 0x00, 0x90, 0x43, 0x50, 0x3c, 0x80, 
	0x43, 0x30, 0x00, 0x80, 0x40, 0x30, 0x00, 0x80, 
	0x36, 0x30, 0x00, 0x90, 0x37, 0x50, 0x3c, 0x80, 
	0x37, 0x30, 0x3c, 0x90, 0x3c, 0x50, 0x00, 0x90, 
	0x40, 0x50, 0x00, 0x90, 0x44, 0x50, 0x3c, 0x80, 
	0x44, 0x30, 0x00, 0x80, 0x40, 0x30, 0x00, 0x80, 
	0x3c, 0x30, 0x3c, 0x90, 0x35, 0x50, 0x00, 0x90, 
	0x41, 0x50, 0x00, 0x90, 0x45, 0x50, 0x3c, 0x80, 
	0x45, 0x30, 0x00, 0x80, 0x41, 0x30, 0x00, 0x80, 
	0x35, 0x30, 0x00, 0x90, 0x48, 0x50, 0x00, 0x90, 
	0x4d, 0x50, 0x3c, 0x80, 0x4d, 0x30, 0x00, 0x80, 
	0x48, 0x30, 0x00, 0x90, 0x35, 0x50, 0x3c, 0x80, 
	0x35, 0x30, 0x00, 0x90, 0x48, 0x50, 0x00, 0x90, 
	0x4d, 0x50, 0x3c, 0x80, 0x4d, 0x30, 0x00, 0x80, 
	0x48, 0x30, 0x00, 0x90, 0x3c, 0x50, 0x00, 0x90, 
	0x41, 0x50, 0x00, 0x90, 0x45, 0x50, 0x3c, 0x80, 
	0x45, 0x30, 0x00, 0x80, 0x41, 0x30, 0x00, 0x80, 
	0x3c, 0x30, 0x00, 0x90, 0x3c, 0x50, 0x3c, 0x80, 
	0x3c, 0x30, 0x00, 0x90, 0x35, 0x50, 0x3c, 0x80, 
	0x35, 0x30, 0x3c, 0x90, 0x37, 0x50, 0x00, 0x90, 
	0x43, 0x50, 0x00, 0x90, 0x47, 0x50, 0x3c, 0x80, 
	0x47, 0x30, 0x00, 0x80, 0x43, 0x30, 0x00, 0x80, 
	0x37, 0x30, 0x00, 0x90, 0x4a, 0x50, 0x00, 0x90, 
	0x4d, 0x50, 0x3c, 0x80, 0x4d, 0x30, 0x00, 0x80, 
	0x4a, 0x30, 0x3c, 0x90, 0x37, 0x50, 0x00, 0x90, 
	0x4a, 0x50, 0x00, 0x90, 0x4d, 0x50, 0x3c, 0x80, 
	0x4d, 0x30, 0x00, 0x80, 0x4a, 0x30, 0x00, 0x80, 
	0x37, 0x30, 0x00, 0x90, 0x37, 0x50, 0x00, 0x90, 
	0x4a, 0x50, 0x00, 0x90, 0x4d, 0x50, 0x50, 0x80, 
	0x4d, 0x30, 0x00, 0x80, 0x4a, 0x30, 0x00, 0x80, 
	0x37, 0x30, 0x00, 0x90, 0x39, 0x50, 0x00, 0x90, 
	0x48, 0x50, 0x00, 0x90, 0x4c, 0x50, 0x4f, 0x90, 
	0x3b, 0x50, 0x00, 0x90, 0x47, 0x50, 0x00, 0x90, 
	0x4a, 0x50, 0x01, 0x80, 0x4c, 0x30, 0x00, 0x80, 
	0x48, 0x30, 0x00, 0x80, 0x39, 0x30, 0x4f, 0x80, 
	0x4a, 0x30, 0x00, 0x80, 0x47, 0x30, 0x00, 0x80, 
	0x3b, 0x30, 0x01, 0x90, 0x3c, 0x50, 0x00, 0x90, 
	0x43, 0x50, 0x00, 0x90, 0x48, 0x50, 0x3c, 0x80, 
	0x48, 0x30, 0x00, 0x80, 0x43, 0x30, 0x00, 0x80, 
	0x3c, 0x30, 0x00, 0x90, 0x40, 0x50, 0x3c, 0x80, 
	0x40, 0x30, 0x00, 0x90, 0x37, 0x50, 0x3c, 0x80, 
	0x37, 0x30, 0x00, 0x90, 0x40, 0x50, 0x3c, 0x80, 
	0x40, 0x30, 0x00, 0x90, 0x30, 0x50, 0x00, 0x90, 
	0x3c, 0x50, 0x3c, 0x80, 0x3c, 0x30, 0x00, 0x80, 
	0x30, 0x30, 0x81, 0x34, 0x90, 0x2c, 0x50, 0x00, 
	0x90, 0x44, 0x50, 0x00, 0x90, 0x48, 0x50, 0x3c, 
	0x80, 0x48, 0x30, 0x00, 0x80, 0x44, 0x30, 0x00, 
	0x80, 0x2c, 0x30, 0x00, 0x90, 0x44, 0x50, 0x00, 
	0x90, 0x48, 0x50, 0x3c, 0x80, 0x48, 0x30, 0x00, 
	0x80, 0x44, 0x30, 0x3c, 0x90, 0x33, 0x50, 0x00, 
	0x90, 0x44, 0x50, 0x00, 0x90, 0x48, 0x50, 0x3c, 
	0x80, 0x48, 0x30, 0x00, 0x80, 0x44, 0x30, 0x00, 
	0x80, 0x33, 0x30, 0x3c, 0x90, 0x44, 0x50, 0x00, 
	0x90, 0x48, 0x50, 0x3c, 0x80, 0x48, 0x30, 0x00, 
	0x80, 0x44, 0x30, 0x00, 0x90, 0x38, 0x50, 0x00, 
	0x90, 0x46, 0x50, 0x00, 0x90, 0x4a, 0x50, 0x3c, 
	0x80, 0x4a, 0x30, 0x00, 0x80, 0x46, 0x30, 0x00, 
	0x80, 0x38, 0x30, 0x3c, 0x90, 0x37, 0x50, 0x00, 
	0x90, 0x43, 0x50, 0x00, 0x90, 0x4c, 0x50, 0x3c, 
	0x80, 0x4c, 0x30, 0x00, 0x80, 0x43, 0x30, 0x00, 
	0x80, 0x37, 0x30, 0x00, 0x90, 0x40, 0x50, 0x00, 
	0x90, 0x48, 0x50, 0x3c, 0x80, 0x48, 0x30, 0x00, 
	0x80, 0x40, 0x30, 0x3c, 0x90, 0x30, 0x50, 0x00, 
	0x90, 0x40, 0x50, 0x00, 0x90, 0x45, 0x50, 0x3c, 
	0x80, 0x45, 0x30, 0x00, 0x80, 0x40, 0x30, 0x00, 
	0x80, 0x30, 0x30, 0x00, 0x90, 0x3c, 0x50, 0x00, 
	0x90, 0x43, 0x50, 0x3c, 0x80, 0x43, 0x30, 0x00, 
	0x80, 0x3c, 0x30, 0x3c, 0x90, 0x2b, 0x50, 0x3c, 
	0x80, 0x2b, 0x30, 0x3c, 0x90, 0x2c, 0x50, 0x00, 
	0x90, 0x44, 0x50, 0x00, 0x90, 0x48, 0x50, 0x3c, 
	0x80, 0x48, 0x30, 0x00, 0x80, 0x44, 0x30, 0x00, 
	0x80, 0x2c, 0x30, 0x00, 0x90, 0x44, 0x50, 0x00, 
	0x90, 0x48, 0x50, 0x3c, 0x80, 0x48, 0x30, 0x00, 
	0x80, 0x44, 0x30, 0x3c, 0x90, 0x33, 0x50, 0x00, 
	0x90, 0x44, 0x50, 0x00, 0x90, 0x48, 0x50, 0x3c, 
	0x80, 0x48, 0x30, 0x00, 0x80, 0x44, 0x30, 0x00, 
	0x80, 0x33, 0x30, 0x3c, 0x90, 0x44, 0x50, 0x00, 
	0x90, 0x48, 0x50, 0x3c, 0x80, 0x48, 0x30, 0x00, 
	0x80, 0x44, 0x30, 0x00, 0x90, 0x38, 0x50, 0x00, 
	0x90, 0x46, 0x50, 0x00, 0x90, 0x4a, 0x50, 0x3c, 
	0x80, 0x4a, 0x30, 0x00, 0x80, 0x46, 0x30, 0x00, 
	0x80, 0x38, 0x30, 0x00, 0x90, 0x43, 0x50, 0x00, 
	0x90, 0x4c, 0x50, 0x3c, 0x80, 0x4c, 0x30, 0x00, 
	0x80, 0x43, 0x30, 0x00, 0x90, 0x37, 0x50, 0x3c, 
	0x80, 0x37, 0x30, 0x78, 0x90, 0x30, 0x50, 0x3c, 
	0x80, 0x30, 0x30, 0x78, 0x90, 0x2b, 0x50, 0x3c, 
	0x80, 0x2b, 0x30, 0x3c, 0x90, 0x2c, 0x50, 0x00, 
	0x90, 0x44, 0x50, 0x00, 0x90, 0x48, 0x50, 0x3c, 
	0x80, 0x48, 0x30, 0x00, 0x80, 0x44, 0x30, 0x00, 
	0x80, 0x2c, 0x30, 0x00, 0x90, 0x44, 0x50, 0x00, 
	0x90, 0x48, 0x50, 0x3c, 0x80, 0x48, 0x30, 0x00, 
	0x80, 0x44, 0x30, 0x3c, 0x90, 0x33, 0x50, 0x00, 
	0x90, 0x44, 0x50, 0x00, 0x90, 0x48, 0x50, 0x3c, 
	0x80, 0x48, 0x30, 0x00, 0x80, 0x44, 0x30, 0x00, 
	0x80, 0x33, 0x30, 0x3c, 0x90, 0x44, 0x50, 0x00, 
	0x90, 0x48, 0x50, 0x3c, 0x80, 0x48, 0x30, 0x00, 
	0x80, 0x44, 0x30, 0x00, 0x90, 0x38, 0x50, 0x00, 
	0x90, 0x46, 0x50, 0x00, 0x90, 0x4a, 0x50, 0x3c, 
	0x80, 0x4a, 0x30, 0x00, 0x80, 0x46, 0x30, 0x00, 
	0x80, 0x38, 0x30, 0x3c, 0x90, 0x37, 0x50, 0x00, 
	0x90, 0x43, 0x50, 0x00, 0x90, 0x4c, 0x50, 0x3c, 
	0x80, 0x4c, 0x30, 0x00, 0x80, 0x43, 0x30, 0x00, 
	0x80, 0x37, 0x30, 0x00, 0x90, 0x40, 0x50, 0x00, 
	0x90, 0x48, 0x50, 0x3c, 0x80, 0x48, 0x30, 0x00, 
	0x80, 0x40, 0x30, 0x3c, 0x90, 0x30, 0x50, 0x00, 
	0x90, 0x40, 0x50, 0x00, 0x90, 0x45, 0x50, 0x3c, 
	0x80, 0x45, 0x30, 0x00, 0x80, 0x40, 0x30, 0x00, 
	0x80, 0x30, 0x30, 0x00, 0x90, 0x3c, 0x50, 0x00, 
	0x90, 0x43, 0x50, 0x3c, 0x80, 0x43, 0x30, 0x00, 
	0x80, 0x3c, 0x30, 0x3c, 0x90, 0x2b, 0x50, 0x3c, 
	0x80, 0x2b, 0x30, 0x3c, 0x90, 0x32, 0x50, 0x00, 
	0x90, 0x42, 0x50, 0x00, 0x90, 0x4c, 0x50, 0x3c, 
	0x80, 0x4c, 0x30, 0x00, 0x80, 0x42, 0x30, 0x00, 
	0x80, 0x32, 0x30, 0x00, 0x90, 0x32, 0x50, 0x00, 
	0x90, 0x42, 0x50, 0x00, 0x90, 0x4c, 0x50, 0x3c, 
	0x80, 0x4c, 0x30, 0x00, 0x80, 0x42, 0x30, 0x00, 
	0x80, 0x32, 0x30, 0x3c, 0x90, 0x32, 0x50, 0x00, 
	0x90, 0x42, 0x50, 0x00, 0x90, 0x4c, 0x50, 0x3c, 
	0x80, 0x4c, 0x30, 0x00, 0x80, 0x42, 0x30, 0x00, 
	0x80, 0x32, 0x30, 0x3c, 0x90, 0x32, 0x50, 0x00, 
	0x90, 0x42, 0x50, 0x00, 0x90, 0x48, 0x50, 0x3c, 
	0x80, 0x48, 0x30, 0x00, 0x80, 0x42, 0x30, 0x00, 
	0x80, 0x32, 0x30, 0x00, 0x90, 0x32, 0x50, 0x00, 
	0x90, 0x42, 0x50, 0x00, 0x90, 0x4c, 0x50, 0x3c, 
	0x80, 0x4c, 0x30, 0x00, 0x80, 0x42, 0x30, 0x00, 
	0x80, 0x32, 0x30, 0x3c, 0x90, 0x43, 0x50, 0x00, 
	0x90, 0x47, 0x50, 0x00, 0x90, 0x4f, 0x50, 0x3c, 
	0x80, 0x4f, 0x30, 0x00, 0x80, 0x47, 0x30, 0x00, 
	0x80, 0x43, 0x30, 0x81, 0x34, 0x90, 0x37, 0x50, 
	0x00, 0x90, 0x43, 0x50, 0x3c, 0x80, 0x43, 0x30, 
	0x00, 0x80, 0x37, 0x30, 0x81, 0x34, 0x90, 0x30, 
	0x50, 0x00, 0x90, 0x48, 0x50, 0x00, 0x90, 0x4c, 
	0x50, 0x3c, 0x80, 0x4c, 0x30, 0x00, 0x80, 0x48, 
	0x30, 0x00, 0x80, 0x30, 0x30, 0x00, 0x90, 0x45, 
	0x50, 0x00, 0x90, 0x48, 0x50, 0x3c, 0x80, 0x48, 
	0x30, 0x00, 0x80, 0x45, 0x30, 0x3c, 0x90, 0x36, 
	0x50, 0x00, 0x90, 0x40, 0x50, 0x00, 0x90, 0x43, 
	0x50, 0x3c, 0x80, 0x43, 0x30, 0x00, 0x80, 0x40, 
	0x30, 0x00, 0x80, 0x36, 0x30, 0x00, 0x90, 0x37, 
	0x50, 0x3c, 0x80, 0x37, 0x30, 0x3c, 0x90, 0x3c, 
	0x50, 0x00, 0x90, 0x40, 0x50, 0x00, 0x90, 0x44, 
	0x50, 0x3c, 0x80, 0x44, 0x30, 0x00, 0x80, 0x40, 
	0x30, 0x00, 0x80, 0x3c, 0x30, 0x3c, 0x90, 0x35, 
	0x50, 0x00, 0x90, 0x41, 0x50, 0x00, 0x90, 0x45, 
	0x50, 0x3c, 0x80, 0x45, 0x30, 0x00, 0x80, 0x41, 
	0x30, 0x00, 0x80, 0x35, 0x30, 0x00, 0x90, 0x48, 
	0x50, 0x00, 0x90, 0x4d, 0x50, 0x3c, 0x80, 0x4d, 
	0x30, 0x00, 0x80, 0x48, 0x30, 0x00, 0x90, 0x35, 
	0x50, 0x3c, 0x80, 0x35, 0x30, 0x00, 0x90, 0x48, 
	0x50, 0x00, 0x90, 0x4d, 0x50, 0x3c, 0x80, 0x4d, 
	0x30, 0x00, 0x80, 0x48, 0x30, 0x00, 0x90, 0x3c, 
	0x50, 0x00, 0x90, 0x41, 0x50, 0x00, 0x90, 0x45, 
	0x50, 0x3c, 0x80, 0x45, 0x30, 0x00, 0x80, 0x41, 
	0x30, 0x00, 0x80, 0x3c, 0x30, 0x00, 0x90, 0x3c, 
	0x50, 0x3c, 0x80, 0x3c, 0x30, 0x00, 0x90, 0x35, 
	0x50, 0x3c, 0x80, 0x35, 0x30, 0x3c, 0x90, 0x32, 
	0x50, 0x00, 0x90, 0x43, 0x50, 0x00, 0x90, 0x47, 
	0x50, 0x3c, 0x80, 0x32, 0x30, 0x14, 0x80, 0x47, 
	0x30, 0x00, 0x80, 0x43, 0x30, 0x00, 0x90, 0x4d, 
	0x50, 0x00, 0x90, 0x51, 0x50, 0x4f, 0x90, 0x4d, 
	0x50, 0x00, 0x90, 0x51, 0x50, 0x01, 0x80, 0x51, 
	0x30, 0x00, 0x80, 0x4d, 0x30, 0x14, 0x90, 0x35, 
	0x50, 0x3b, 0x80, 0x51, 0x30, 0x00, 0x80, 0x4d, 
	0x30, 0x01, 0x80, 0x35, 0x30, 0x00, 0x90, 0x37, 
	0x50, 0x00, 0x90, 0x4d, 0x50, 0x00, 0x90, 0x51, 
	0x50, 0x3c, 0x80, 0x37, 0x30, 0x14, 0x80, 0x51, 
	0x30, 0x00, 0x80, 0x4d, 0x30, 0x00, 0x90, 0x4c, 
	0x50, 0x00, 0x90, 0x4f, 0x50, 0x28, 0x90, 0x3b, 
	0x50, 0x27, 0x90, 0x4a, 0x50, 0x00, 0x90, 0x4d, 
	0x50, 0x01, 0x80, 0x4f, 0x30, 0x00, 0x80, 0x4c, 
	0x30, 0x14, 0x80, 0x3b, 0x30, 0x3b, 0x80, 0x4d, 
	0x30, 0x00, 0x80, 0x4a, 0x30, 0x01, 0x90, 0x37, 
	0x50, 0x00, 0x90, 0x48, 0x50, 0x00, 0x90, 0x4c, 
	0x50, 0x3c, 0x80, 0x4c, 0x30, 0x00, 0x80, 0x48, 
	0x30, 0x00, 0x80, 0x37, 0x30, 0x00, 0x90, 0x45, 
	0x50, 0x00, 0x90, 0x48, 0x50, 0x3c, 0x80, 0x48, 
	0x30, 0x00, 0x80, 0x45, 0x30, 0x00, 0x90, 0x37, 
	0x50, 0x3c, 0x80, 0x37, 0x30, 0x00, 0x90, 0x41, 
	0x50, 0x00, 0x90, 0x45, 0x50, 0x3c, 0x80, 0x45, 
	0x30, 0x00, 0x80, 0x41, 0x30, 0x00, 0x90, 0x3c, 
	0x50, 0x00, 0x90, 0x40, 0x50, 0x00, 0x90, 0x43, 
	0x50, 0x3c, 0x80, 0x43, 0x30, 0x00, 0x80, 0x40, 
	0x30, 0x00, 0x80, 0x3c, 0x30, 0x00, 0x90, 0x3c, 
	0x50, 0x3c, 0x80, 0x3c, 0x30, 0x00, 0x90, 0x37, 
	0x50, 0x3c, 0x80, 0x37, 0x30, 0x3c, 0x90, 0x30, 
	0x50, 0x00, 0x90, 0x48, 0x50, 0x00, 0x90, 0x4c, 
	0x50, 0x3c, 0x80, 0x4c, 0x30, 0x00, 0x80, 0x48, 
	0x30, 0x00, 0x80, 0x30, 0x30, 0x00, 0x90, 0x45, 
	0x50, 0x00, 0x90, 0x48, 0x50, 0x3c, 0x80, 0x48, 
	0x30, 0x00, 0x80, 0x45, 0x30, 0x3c, 0x90, 0x36, 
	0x50, 0x00, 0x90, 0x40, 0x50, 0x00, 0x90, 0x43, 
	0x50, 0x3c, 0x80, 0x43, 0x30, 0x00, 0x80, 0x40, 
	0x30, 0x00, 0x80, 0x36, 0x30, 0x00, 0x90, 0x37, 
	0x50, 0x3c, 0x80, 0x37, 0x30, 0x3c, 0x90, 0x3c, 
	0x50, 0x00, 0x90, 0x40, 0x50, 0x00, 0x90, 0x44, 
	0x50, 0x3c, 0x80, 0x44, 0x30, 0x00, 0x80, 0x40, 
	0x30, 0x00, 0x80, 0x3c, 0x30, 0x3c, 0x90, 0x35, 
	0x50, 0x00, 0x90, 0x41, 0x50, 0x00, 0x90, 0x45, 
	0x50, 0x3c, 0x80, 0x45, 0x30, 0x00, 0x80, 0x41, 
	0x30, 0x00, 0x80, 0x35, 0x30, 0x00, 0x90, 0x48, 
	0x50, 0x00, 0x90, 0x4d, 0x50, 0x3c, 0x80, 0x4d, 
	0x30, 0x00, 0x80, 0x48, 0x30, 0x00, 0x90, 0x35, 
	0x50, 0x3c, 0x80, 0x35, 0x30, 0x00, 0x90, 0x48, 
	0x50, 0x00, 0x90, 0x4d, 0x50, 0x3c, 0x80, 0x4d, 
	0x30, 0x00, 0x80, 0x48, 0x30, 0x00, 0x90, 0x3c, 
	0x50, 0x00, 0x90, 0x41, 0x50, 0x00, 0x90, 0x45, 
	0x50, 0x3c, 0x80, 0x45, 0x30, 0x00, 0x80, 0x41, 
	0x30, 0x00, 0x80, 0x3c, 0x30, 0x00, 0x90, 0x3c, 
	0x50, 0x3c, 0x80, 0x3c, 0x30, 0x00, 0x90, 0x35, 
	0x50, 0x3c, 0x80, 0x35, 0x30, 0x3c, 0x90, 0x37, 
	0x50, 0x00, 0x90, 0x43, 0x50, 0x00, 0x90, 0x47, 
	0x50, 0x3c, 0x80, 0x47, 0x30, 0x00, 0x80, 0x43, 
	0x30, 0x00, 0x80, 0x37, 0x30, 0x00, 0x90, 0x4a, 
	0x50, 0x00, 0x90, 0x4d, 0x50, 0x3c, 0x80, 0x4d, 
	0x30, 0x00, 0x80, 0x4a, 0x30, 0x3c, 0x90, 0x37, 
	0x50, 0x00, 0x90, 0x4a, 0x50, 0x00, 0x90, 0x4d, 
	0x50, 0x3c, 0x80, 0x4d, 0x30, 0x00, 0x80, 0x4a, 
	0x30, 0x00, 0x80, 0x37, 0x30, 0x00, 0x90, 0x37, 
	0x50, 0x00, 0x90, 0x4a, 0x50, 0x00, 0x90, 0x4d, 
	0x50, 0x50, 0x80, 0x4d, 0x30, 0x00, 0x80, 0x4a, 
	0x30, 0x00, 0x80, 0x37, 0x30, 0x00, 0x90, 0x39, 
	0x50, 0x00, 0x90, 0x48, 0x50, 0x00, 0x90, 0x4c, 
	0x50, 0x4f, 0x90, 0x3b, 0x50, 0x00, 0x90, 0x47, 
	0x50, 0x00, 0x90, 0x4a, 0x50, 0x01, 0x80, 0x4c, 
	0x30, 0x00, 0x80, 0x48, 0x30, 0x00, 0x80, 0x39, 
	0x30, 0x4f, 0x80, 0x4a, 0x30, 0x00, 0x80, 0x47, 
	0x30, 0x00, 0x80, 0x3b, 0x30, 0x01, 0x90, 0x3c, 
	0x50, 0x00, 0x90, 0x43, 0x50, 0x00, 0x90, 0x48, 
	0x50, 0x3c, 0x80, 0x48, 0x30, 0x00, 0x80, 0x43, 
	0x30, 0x00, 0x80, 0x3c, 0x30, 0x00, 0x90, 0x40, 
	0x50, 0x3c, 0x80, 0x40, 0x30, 0x00, 0x90, 0x37, 
	0x50, 0x3c, 0x80, 0x37, 0x30, 0x00, 0x90, 0x40, 
	0x50, 0x3c, 0x80, 0x40, 0x30, 0x00, 0x90, 0x30, 
	0x50, 0x00, 0x90, 0x3c, 0x50, 0x3c, 0x80, 0x3c, 
	0x30, 0x00, 0x80, 0x30, 0x30, 0x3c, 0xff, 0x2f, 
	0x00, 
};


