// Tetris
{
  0x4d, 0x54, 0x68, 0x64, 0x00, 0x00, 0x00, 0x06, 0x00, 0x01, 0x00, 0x01,
  0x00, 0x78, 0x4d, 0x54, 0x72, 0x6b, 0x00, 0x00, 0x07, 0x69, 0x00, 0xff,
  0x58, 0x04, 0x04, 0x02, 0x18, 0x08, 0x00, 0xff, 0x51, 0x03, 0x07, 0xa1,
  0x20, 0x00, 0xff, 0x59, 0x02, 0x00, 0x00, 0x00, 0x90, 0x28, 0x38, 0x00,
  0x90, 0x47, 0x3d, 0x00, 0x90, 0x4c, 0x4b, 0x3c, 0x80, 0x28, 0x30, 0x00,
  0x90, 0x34, 0x34, 0x3c, 0x80, 0x4c, 0x30, 0x00, 0x80, 0x47, 0x30, 0x00,
  0x80, 0x34, 0x30, 0x00, 0x90, 0x28, 0x34, 0x00, 0x90, 0x44, 0x39, 0x00,
  0x90, 0x47, 0x47, 0x3c, 0x80, 0x47, 0x30, 0x00, 0x80, 0x44, 0x30, 0x00,
  0x80, 0x28, 0x30, 0x00, 0x90, 0x34, 0x34, 0x00, 0x90, 0x45, 0x38, 0x00,
  0x90, 0x48, 0x46, 0x3c, 0x80, 0x48, 0x30, 0x00, 0x80, 0x45, 0x30, 0x00,
  0x80, 0x34, 0x30, 0x00, 0x90, 0x28, 0x36, 0x00, 0x90, 0x47, 0x3b, 0x00,
  0x90, 0x4a, 0x49, 0x3c, 0x80, 0x4a, 0x30, 0x00, 0x80, 0x47, 0x30, 0x00,
  0x80, 0x28, 0x30, 0x00, 0x90, 0x34, 0x34, 0x00, 0x90, 0x4c, 0x40, 0x1e,
  0x80, 0x4c, 0x30, 0x00, 0x90, 0x4a, 0x40, 0x1e, 0x80, 0x4a, 0x30, 0x00,
  0x80, 0x34, 0x30, 0x00, 0x90, 0x28, 0x34, 0x00, 0x90, 0x45, 0x39, 0x00,
  0x90, 0x48, 0x47, 0x3c, 0x80, 0x48, 0x30, 0x00, 0x80, 0x45, 0x30, 0x00,
  0x80, 0x28, 0x30, 0x00, 0x90, 0x34, 0x34, 0x00, 0x90, 0x44, 0x38, 0x00,
  0x90, 0x47, 0x46, 0x3c, 0x80, 0x47, 0x30, 0x00, 0x80, 0x44, 0x30, 0x00,
  0x80, 0x34, 0x30, 0x00, 0x90, 0x2d, 0x39, 0x00, 0x90, 0x40, 0x3d, 0x00,
  0x90, 0x45, 0x4b, 0x3c, 0x80, 0x2d, 0x30, 0x00, 0x90, 0x39, 0x34, 0x3c,
  0x80, 0x45, 0x30, 0x00, 0x80, 0x40, 0x30, 0x00, 0x80, 0x39, 0x30, 0x00,
  0x90, 0x2d, 0x35, 0x00, 0x90, 0x40, 0x39, 0x00, 0x90, 0x45, 0x47, 0x3c,
  0x80, 0x45, 0x30, 0x00, 0x80, 0x40, 0x30, 0x00, 0x80, 0x2d, 0x30, 0x00,
  0x90, 0x39, 0x34, 0x00, 0x90, 0x45, 0x38, 0x00, 0x90, 0x48, 0x46, 0x3c,
  0x80, 0x48, 0x30, 0x00, 0x80, 0x45, 0x30, 0x00, 0x80, 0x39, 0x30, 0x00,
  0x90, 0x2d, 0x37, 0x00, 0x90, 0x48, 0x3b, 0x00, 0x90, 0x4c, 0x49, 0x3c,
  0x80, 0x2d, 0x30, 0x00, 0x90, 0x39, 0x34, 0x3c, 0x80, 0x4c, 0x30, 0x00,
  0x80, 0x48, 0x30, 0x00, 0x80, 0x39, 0x30, 0x00, 0x90, 0x2d, 0x35, 0x00,
  0x90, 0x47, 0x39, 0x00, 0x90, 0x4a, 0x47, 0x3c, 0x80, 0x4a, 0x30, 0x00,
  0x80, 0x47, 0x30, 0x00, 0x80, 0x2d, 0x30, 0x00, 0x90, 0x39, 0x34, 0x00,
  0x90, 0x45, 0x38, 0x00, 0x90, 0x48, 0x46, 0x3c, 0x80, 0x48, 0x30, 0x00,
  0x80, 0x45, 0x30, 0x00, 0x80, 0x39, 0x30, 0x00, 0x90, 0x2c, 0x39, 0x00,
  0x90, 0x47, 0x45, 0x00, 0x90, 0x44, 0x45, 0x3c, 0x80, 0x44, 0x30, 0x00,
  0x80, 0x2c, 0x30, 0x00, 0x90, 0x38, 0x34, 0x00, 0x90, 0x40, 0x40, 0x3c,
  0x80, 0x40, 0x30, 0x00, 0x80, 0x38, 0x30, 0x00, 0x90, 0x2c, 0x35, 0x00,
  0x90, 0x44, 0x41, 0x3c, 0x80, 0x47, 0x30, 0x00, 0x80, 0x44, 0x30, 0x00,
  0x80, 0x2c, 0x30, 0x00, 0x90, 0x38, 0x34, 0x00, 0x90, 0x48, 0x40, 0x00,
  0x90, 0x45, 0x40, 0x3c, 0x80, 0x45, 0x30, 0x00, 0x80, 0x48, 0x30, 0x00,
  0x80, 0x38, 0x30, 0x00, 0x90, 0x28, 0x36, 0x00, 0x90, 0x47, 0x3b, 0x00,
  0x90, 0x4a, 0x49, 0x3c, 0x80, 0x28, 0x30, 0x00, 0x90, 0x34, 0x34, 0x3c,
  0x80, 0x4a, 0x30, 0x00, 0x80, 0x47, 0x30, 0x00, 0x80, 0x34, 0x30, 0x00,
  0x90, 0x28, 0x34, 0x00, 0x90, 0x48, 0x39, 0x00, 0x90, 0x4c, 0x47, 0x3c,
  0x80, 0x28, 0x30, 0x00, 0x90, 0x34, 0x34, 0x3c, 0x80, 0x4c, 0x30, 0x00,
  0x80, 0x48, 0x30, 0x00, 0x80, 0x34, 0x30, 0x00, 0x90, 0x2d, 0x39, 0x00,
  0x90, 0x45, 0x3d, 0x00, 0x90, 0x48, 0x4b, 0x3c, 0x80, 0x2d, 0x30, 0x00,
  0x90, 0x39, 0x34, 0x3c, 0x80, 0x48, 0x30, 0x00, 0x80, 0x45, 0x30, 0x00,
  0x80, 0x39, 0x30, 0x00, 0x90, 0x2d, 0x35, 0x00, 0x90, 0x40, 0x39, 0x00,
  0x90, 0x45, 0x47, 0x3c, 0x80, 0x2d, 0x30, 0x00, 0x90, 0x39, 0x34, 0x3c,
  0x80, 0x45, 0x30, 0x00, 0x80, 0x40, 0x30, 0x00, 0x80, 0x39, 0x30, 0x00,
  0x90, 0x2d, 0x37, 0x00, 0x90, 0x40, 0x3b, 0x00, 0x90, 0x45, 0x49, 0x3c,
  0x80, 0x2d, 0x30, 0x00, 0x90, 0x39, 0x34, 0x3c, 0x80, 0x39, 0x30, 0x00,
  0x90, 0x2f, 0x35, 0x3c, 0x80, 0x2f, 0x30, 0x00, 0x90, 0x30, 0x34, 0x3c,
  0x80, 0x45, 0x30, 0x00, 0x80, 0x40, 0x30, 0x00, 0x80, 0x30, 0x30, 0x00,
  0x90, 0x32, 0x39, 0x3c, 0x80, 0x32, 0x30, 0x00, 0x90, 0x26, 0x32, 0x00,
  0x90, 0x41, 0x38, 0x00, 0x90, 0x4a, 0x46, 0x3c, 0x80, 0x26, 0x30, 0x3c,
  0x80, 0x4a, 0x30, 0x00, 0x80, 0x41, 0x30, 0x00, 0x90, 0x26, 0x32, 0x00,
  0x90, 0x45, 0x38, 0x00, 0x90, 0x4d, 0x46, 0x3c, 0x80, 0x4d, 0x30, 0x00,
  0x80, 0x45, 0x30, 0x00, 0x80, 0x26, 0x30, 0x00, 0x90, 0x51, 0x43, 0x00,
  0x90, 0x48, 0x43, 0x3c, 0x80, 0x48, 0x30, 0x00, 0x90, 0x26, 0x32, 0x00,
  0x90, 0x48, 0x34, 0x1e, 0x80, 0x48, 0x30, 0x00, 0x90, 0x48, 0x34, 0x1e,
  0x80, 0x51, 0x30, 0x00, 0x80, 0x48, 0x30, 0x00, 0x80, 0x26, 0x30, 0x00,
  0x90, 0x2d, 0x35, 0x00, 0x90, 0x47, 0x39, 0x00, 0x90, 0x4f, 0x47, 0x3c,
  0x80, 0x4f, 0x30, 0x00, 0x80, 0x47, 0x30, 0x00, 0x80, 0x2d, 0x30, 0x00,
  0x90, 0x29, 0x33, 0x00, 0x90, 0x45, 0x38, 0x00, 0x90, 0x4d, 0x46, 0x3c,
  0x80, 0x4d, 0x30, 0x00, 0x80, 0x45, 0x30, 0x00, 0x80, 0x29, 0x30, 0x00,
  0x90, 0x24, 0x36, 0x00, 0x90, 0x43, 0x3d, 0x00, 0x90, 0x4c, 0x4b, 0x3c,
  0x80, 0x24, 0x30, 0x00, 0x90, 0x30, 0x34, 0x3c, 0x80, 0x30, 0x30, 0x3c,
  0x80, 0x4c, 0x30, 0x00, 0x80, 0x43, 0x30, 0x00, 0x90, 0x30, 0x34, 0x00,
  0x90, 0x40, 0x38, 0x00, 0x90, 0x48, 0x46, 0x3c, 0x80, 0x48, 0x30, 0x00,
  0x80, 0x40, 0x30, 0x00, 0x80, 0x30, 0x30, 0x00, 0x90, 0x24, 0x34, 0x00,
  0x90, 0x4c, 0x43, 0x00, 0x90, 0x43, 0x43, 0x3c, 0x80, 0x43, 0x30, 0x00,
  0x80, 0x4c, 0x30, 0x00, 0x80, 0x24, 0x30, 0x00, 0x90, 0x2b, 0x34, 0x00,
  0x90, 0x45, 0x40, 0x1e, 0x80, 0x45, 0x30, 0x00, 0x90, 0x43, 0x40, 0x1e,
  0x80, 0x43, 0x30, 0x00, 0x80, 0x2b, 0x30, 0x00, 0x90, 0x41, 0x39, 0x00,
  0x90, 0x4a, 0x47, 0x3c, 0x80, 0x4a, 0x30, 0x00, 0x80, 0x41, 0x30, 0x00,
  0x90, 0x2b, 0x34, 0x00, 0x90, 0x40, 0x38, 0x00, 0x90, 0x48, 0x46, 0x3c,
  0x80, 0x48, 0x30, 0x00, 0x80, 0x40, 0x30, 0x00, 0x80, 0x2b, 0x30, 0x00,
  0x90, 0x2f, 0x39, 0x00, 0x90, 0x47, 0x45, 0x00, 0x90, 0x44, 0x45, 0x3c,
  0x80, 0x44, 0x30, 0x00, 0x80, 0x2f, 0x30, 0x00, 0x90, 0x3b, 0x34, 0x00,
  0x90, 0x40, 0x40, 0x3c, 0x80, 0x47, 0x30, 0x00, 0x80, 0x40, 0x30, 0x00,
  0x80, 0x3b, 0x30, 0x00, 0x90, 0x44, 0x39, 0x00, 0x90, 0x47, 0x47, 0x3c,
  0x80, 0x47, 0x30, 0x00, 0x80, 0x44, 0x30, 0x00, 0x90, 0x3b, 0x34, 0x00,
  0x90, 0x45, 0x38, 0x00, 0x90, 0x48, 0x46, 0x3c, 0x80, 0x48, 0x30, 0x00,
  0x80, 0x45, 0x30, 0x00, 0x80, 0x3b, 0x30, 0x00, 0x90, 0x4a, 0x43, 0x00,
  0x90, 0x47, 0x43, 0x3c, 0x80, 0x47, 0x30, 0x00, 0x90, 0x34, 0x34, 0x00,
  0x90, 0x44, 0x40, 0x3c, 0x80, 0x4a, 0x30, 0x00, 0x80, 0x44, 0x30, 0x00,
  0x80, 0x34, 0x30, 0x00, 0x90, 0x4c, 0x41, 0x00, 0x90, 0x48, 0x41, 0x3c,
  0x80, 0x48, 0x30, 0x00, 0x90, 0x38, 0x34, 0x00, 0x90, 0x44, 0x40, 0x3c,
  0x80, 0x4c, 0x30, 0x00, 0x80, 0x44, 0x30, 0x00, 0x80, 0x38, 0x30, 0x00,
  0x90, 0x2d, 0x39, 0x00, 0x90, 0x48, 0x45, 0x00, 0x90, 0x45, 0x45, 0x3c,
  0x80, 0x45, 0x30, 0x00, 0x80, 0x2d, 0x30, 0x00, 0x90, 0x34, 0x34, 0x00,
  0x90, 0x40, 0x40, 0x3c, 0x80, 0x48, 0x30, 0x00, 0x80, 0x40, 0x30, 0x00,
  0x80, 0x34, 0x30, 0x00, 0x90, 0x2d, 0x35, 0x00, 0x90, 0x40, 0x39, 0x00,
  0x90, 0x45, 0x43, 0x3c, 0x80, 0x2d, 0x30, 0x00, 0x90, 0x34, 0x34, 0x3c,
  0x80, 0x45, 0x30, 0x00, 0x80, 0x40, 0x30, 0x00, 0x80, 0x34, 0x30, 0x00,
  0x90, 0x2d, 0x42, 0x00, 0x90, 0x40, 0x3b, 0x00, 0x90, 0x45, 0x49, 0x78,
  0x80, 0x45, 0x30, 0x00, 0x80, 0x40, 0x30, 0x00, 0x80, 0x2d, 0x30, 0x78,
  0x90, 0x2d, 0x39, 0x00, 0x90, 0x3c, 0x3d, 0x00, 0x90, 0x40, 0x4b, 0x3c,
  0x80, 0x2d, 0x30, 0x00, 0x90, 0x34, 0x34, 0x3c, 0x80, 0x34, 0x30, 0x00,
  0x90, 0x2d, 0x35, 0x3c, 0x80, 0x2d, 0x30, 0x00, 0x90, 0x34, 0x34, 0x3c,
  0x80, 0x40, 0x30, 0x00, 0x80, 0x3c, 0x30, 0x00, 0x80, 0x34, 0x30, 0x00,
  0x90, 0x2d, 0x37, 0x00, 0x90, 0x39, 0x3b, 0x00, 0x90, 0x3c, 0x49, 0x3c,
  0x80, 0x2d, 0x30, 0x00, 0x90, 0x34, 0x34, 0x3c, 0x80, 0x34, 0x30, 0x00,
  0x90, 0x2d, 0x35, 0x3c, 0x80, 0x2d, 0x30, 0x00, 0x90, 0x34, 0x34, 0x3c,
  0x80, 0x3c, 0x30, 0x00, 0x80, 0x39, 0x30, 0x00, 0x80, 0x34, 0x30, 0x00,
  0x90, 0x2c, 0x39, 0x00, 0x90, 0x3b, 0x3d, 0x00, 0x90, 0x3e, 0x4b, 0x3c,
  0x80, 0x2c, 0x30, 0x00, 0x90, 0x34, 0x34, 0x3c, 0x80, 0x34, 0x30, 0x00,
  0x90, 0x2c, 0x35, 0x3c, 0x80, 0x2c, 0x30, 0x00, 0x90, 0x34, 0x34, 0x3c,
  0x80, 0x3e, 0x30, 0x00, 0x80, 0x3b, 0x30, 0x00, 0x80, 0x34, 0x30, 0x00,
  0x90, 0x2c, 0x37, 0x00, 0x90, 0x38, 0x3b, 0x00, 0x90, 0x3b, 0x49, 0x3c,
  0x80, 0x2c, 0x30, 0x00, 0x90, 0x34, 0x34, 0x3c, 0x80, 0x34, 0x30, 0x00,
  0x90, 0x2c, 0x35, 0x3c, 0x80, 0x2c, 0x30, 0x00, 0x90, 0x34, 0x34, 0x3c,
  0x80, 0x3b, 0x30, 0x00, 0x80, 0x38, 0x30, 0x00, 0x80, 0x34, 0x30, 0x00,
  0x90, 0x2d, 0x39, 0x00, 0x90, 0x39, 0x3d, 0x00, 0x90, 0x3c, 0x4b, 0x3c,
  0x80, 0x2d, 0x30, 0x00, 0x90, 0x34, 0x34, 0x3c, 0x80, 0x34, 0x30, 0x00,
  0x90, 0x2d, 0x35, 0x3c, 0x80, 0x2d, 0x30, 0x00, 0x90, 0x34, 0x34, 0x3c,
  0x80, 0x3c, 0x30, 0x00, 0x80, 0x39, 0x30, 0x00, 0x80, 0x34, 0x30, 0x00,
  0x90, 0x2d, 0x37, 0x00, 0x90, 0x39, 0x49, 0x3c, 0x80, 0x2d, 0x30, 0x00,
  0x90, 0x34, 0x34, 0x3c, 0x80, 0x34, 0x30, 0x00, 0x90, 0x2d, 0x35, 0x3c,
  0x80, 0x2d, 0x30, 0x00, 0x90, 0x34, 0x34, 0x3c, 0x80, 0x39, 0x30, 0x00,
  0x80, 0x34, 0x30, 0x00, 0x90, 0x2c, 0x39, 0x00, 0x90, 0x38, 0x4b, 0x3c,
  0x80, 0x2c, 0x30, 0x00, 0x90, 0x34, 0x34, 0x3c, 0x80, 0x34, 0x30, 0x00,
  0x90, 0x2c, 0x35, 0x3c, 0x80, 0x2c, 0x30, 0x00, 0x90, 0x34, 0x34, 0x3c,
  0x80, 0x38, 0x30, 0x00, 0x80, 0x34, 0x30, 0x00, 0x90, 0x2c, 0x37, 0x00,
  0x90, 0x38, 0x3b, 0x00, 0x90, 0x3b, 0x49, 0x3c, 0x80, 0x2c, 0x30, 0x00,
  0x90, 0x34, 0x34, 0x3c, 0x80, 0x34, 0x30, 0x00, 0x90, 0x2c, 0x35, 0x3c,
  0x80, 0x2c, 0x30, 0x00, 0x90, 0x34, 0x34, 0x3c, 0x80, 0x3b, 0x30, 0x00,
  0x80, 0x38, 0x30, 0x00, 0x80, 0x34, 0x30, 0x00, 0x90, 0x2d, 0x39, 0x00,
  0x90, 0x3c, 0x3d, 0x00, 0x90, 0x40, 0x4b, 0x3c, 0x80, 0x2d, 0x30, 0x00,
  0x90, 0x34, 0x34, 0x3c, 0x80, 0x34, 0x30, 0x00, 0x90, 0x2d, 0x35, 0x3c,
  0x80, 0x2d, 0x30, 0x00, 0x90, 0x34, 0x34, 0x3c, 0x80, 0x40, 0x30, 0x00,
  0x80, 0x3c, 0x30, 0x00, 0x80, 0x34, 0x30, 0x00, 0x90, 0x2d, 0x37, 0x00,
  0x90, 0x39, 0x3b, 0x00, 0x90, 0x3c, 0x49, 0x3c, 0x80, 0x2d, 0x30, 0x00,
  0x90, 0x34, 0x34, 0x3c, 0x80, 0x34, 0x30, 0x00, 0x90, 0x2d, 0x35, 0x3c,
  0x80, 0x2d, 0x30, 0x00, 0x90, 0x34, 0x34, 0x3c, 0x80, 0x3c, 0x30, 0x00,
  0x80, 0x39, 0x30, 0x00, 0x80, 0x34, 0x30, 0x00, 0x90, 0x2c, 0x39, 0x00,
  0x90, 0x3b, 0x3d, 0x00, 0x90, 0x3e, 0x4b, 0x3c, 0x80, 0x2c, 0x30, 0x00,
  0x90, 0x34, 0x34, 0x3c, 0x80, 0x34, 0x30, 0x00, 0x90, 0x2c, 0x35, 0x3c,
  0x80, 0x2c, 0x30, 0x00, 0x90, 0x34, 0x34, 0x3c, 0x80, 0x3e, 0x30, 0x00,
  0x80, 0x3b, 0x30, 0x00, 0x80, 0x34, 0x30, 0x00, 0x90, 0x2c, 0x37, 0x00,
  0x90, 0x38, 0x3b, 0x00, 0x90, 0x3b, 0x49, 0x3c, 0x80, 0x2c, 0x30, 0x00,
  0x90, 0x34, 0x34, 0x3c, 0x80, 0x34, 0x30, 0x00, 0x90, 0x2c, 0x35, 0x3c,
  0x80, 0x2c, 0x30, 0x00, 0x90, 0x34, 0x34, 0x3c, 0x80, 0x3b, 0x30, 0x00,
  0x80, 0x38, 0x30, 0x00, 0x80, 0x34, 0x30, 0x00, 0x90, 0x2d, 0x39, 0x00,
  0x90, 0x39, 0x3d, 0x00, 0x90, 0x3c, 0x4b, 0x3c, 0x80, 0x2d, 0x30, 0x00,
  0x90, 0x34, 0x34, 0x3c, 0x80, 0x3c, 0x30, 0x00, 0x80, 0x39, 0x30, 0x00,
  0x80, 0x34, 0x30, 0x00, 0x90, 0x2d, 0x35, 0x00, 0x90, 0x3c, 0x39, 0x00,
  0x90, 0x40, 0x47, 0x3c, 0x80, 0x2d, 0x30, 0x00, 0x90, 0x34, 0x34, 0x3c,
  0x80, 0x40, 0x30, 0x00, 0x80, 0x3c, 0x30, 0x00, 0x80, 0x34, 0x30, 0x00,
  0x90, 0x2d, 0x37, 0x00, 0x90, 0x40, 0x3b, 0x00, 0x90, 0x45, 0x49, 0x3c,
  0x80, 0x2d, 0x30, 0x00, 0x90, 0x34, 0x34, 0x3c, 0x80, 0x34, 0x30, 0x00,
  0x90, 0x2d, 0x35, 0x3c, 0x80, 0x2d, 0x30, 0x00, 0x90, 0x34, 0x34, 0x3c,
  0x80, 0x45, 0x30, 0x00, 0x80, 0x40, 0x30, 0x00, 0x80, 0x34, 0x30, 0x00,
  0x90, 0x2c, 0x39, 0x00, 0x90, 0x40, 0x3d, 0x00, 0x90, 0x44, 0x4b, 0x3c,
  0x80, 0x2c, 0x30, 0x00, 0x90, 0x34, 0x34, 0x3c, 0x80, 0x34, 0x30, 0x00,
  0x90, 0x2c, 0x35, 0x3c, 0x80, 0x2c, 0x30, 0x00, 0x90, 0x34, 0x34, 0x3c,
  0x80, 0x34, 0x30, 0x00, 0x90, 0x2c, 0x37, 0x3c, 0x80, 0x2c, 0x30, 0x00,
  0x90, 0x34, 0x34, 0x3c, 0x80, 0x34, 0x30, 0x00, 0x90, 0x2c, 0x35, 0x3c,
  0x80, 0x2c, 0x30, 0x00, 0x90, 0x34, 0x34, 0x3c, 0x80, 0x44, 0x30, 0x00,
  0x80, 0x40, 0x30, 0x00, 0x80, 0x34, 0x30, 0x17, 0xff, 0x2f, 0x00
};
