// Freedom, DJ Bobo
{
  0x4d, 0x54, 0x68, 0x64, 0x00, 0x00, 0x00, 0x06, 0x00, 0x00, 0x00, 0x01,
  0x01, 0x80, 0x4d, 0x54, 0x72, 0x6b, 0x00, 0x00, 0x3a, 0x3a, 0x00, 0xff,
  0x58, 0x04, 0x04, 0x02, 0x18, 0x08, 0x00, 0xff, 0x51, 0x03, 0x06, 0x8a,
  0x1b, 0x1e, 0x90, 0x58, 0x7f, 0x81, 0x1c, 0x80, 0x58, 0x30, 0x25, 0x90,
  0x5d, 0x7f, 0x81, 0x1c, 0x80, 0x5d, 0x30, 0x23, 0x90, 0x58, 0x7f, 0x81,
  0x1c, 0x80, 0x58, 0x30, 0x24, 0x90, 0x5d, 0x7f, 0x81, 0x1c, 0x80, 0x5d,
  0x30, 0x25, 0x90, 0x58, 0x7f, 0x81, 0x1c, 0x80, 0x58, 0x30, 0x23, 0x90,
  0x5d, 0x7f, 0x81, 0x1c, 0x80, 0x5d, 0x30, 0x24, 0x90, 0x5b, 0x7f, 0x81,
  0x1c, 0x80, 0x5b, 0x30, 0x24, 0x90, 0x59, 0x7f, 0x81, 0x1c, 0x80, 0x59,
  0x30, 0x25, 0x90, 0x54, 0x7f, 0x81, 0x1c, 0x80, 0x54, 0x30, 0x23, 0x90,
  0x59, 0x7f, 0x81, 0x1c, 0x80, 0x59, 0x30, 0x24, 0x90, 0x54, 0x7f, 0x81,
  0x1c, 0x80, 0x54, 0x30, 0x25, 0x90, 0x59, 0x7f, 0x81, 0x1c, 0x80, 0x59,
  0x30, 0x23, 0x90, 0x54, 0x7f, 0x81, 0x1c, 0x80, 0x54, 0x30, 0x24, 0x90,
  0x59, 0x7f, 0x81, 0x1c, 0x80, 0x59, 0x30, 0x24, 0x90, 0x5b, 0x7f, 0x81,
  0x1c, 0x80, 0x5b, 0x30, 0x25, 0x90, 0x58, 0x7f, 0x81, 0x1c, 0x80, 0x58,
  0x30, 0x23, 0x90, 0x54, 0x7f, 0x81, 0x1c, 0x80, 0x54, 0x30, 0x24, 0x90,
  0x58, 0x7f, 0x81, 0x1c, 0x80, 0x58, 0x30, 0x25, 0x90, 0x54, 0x7f, 0x81,
  0x1c, 0x80, 0x54, 0x30, 0x23, 0x90, 0x58, 0x7f, 0x81, 0x1c, 0x80, 0x58,
  0x30, 0x24, 0x90, 0x54, 0x7f, 0x81, 0x1c, 0x80, 0x54, 0x30, 0x24, 0x90,
  0x58, 0x7f, 0x81, 0x1c, 0x80, 0x58, 0x30, 0x25, 0x90, 0x59, 0x7f, 0x81,
  0x1c, 0x80, 0x59, 0x30, 0x23, 0x90, 0x5b, 0x7f, 0x81, 0x1c, 0x80, 0x5b,
  0x30, 0x24, 0x90, 0x56, 0x7f, 0x81, 0x1c, 0x80, 0x56, 0x30, 0x25, 0x90,
  0x5b, 0x7f, 0x81, 0x1c, 0x80, 0x5b, 0x30, 0x23, 0x90, 0x56, 0x7f, 0x81,
  0x1c, 0x80, 0x56, 0x30, 0x24, 0x90, 0x5b, 0x7f, 0x81, 0x1c, 0x80, 0x5b,
  0x30, 0x24, 0x90, 0x56, 0x7f, 0x81, 0x1c, 0x80, 0x56, 0x30, 0x25, 0x90,
  0x5b, 0x7f, 0x81, 0x1c, 0x80, 0x5b, 0x30, 0x23, 0x90, 0x58, 0x7f, 0x81,
  0x1c, 0x80, 0x58, 0x30, 0x24, 0x90, 0x5d, 0x7f, 0x81, 0x1c, 0x80, 0x5d,
  0x30, 0x25, 0x90, 0x58, 0x7f, 0x81, 0x1c, 0x80, 0x58, 0x30, 0x23, 0x90,
  0x5d, 0x7f, 0x81, 0x1c, 0x80, 0x5d, 0x30, 0x24, 0x90, 0x58, 0x7f, 0x81,
  0x1c, 0x80, 0x58, 0x30, 0x24, 0x90, 0x5d, 0x7f, 0x81, 0x1c, 0x80, 0x5d,
  0x30, 0x25, 0x90, 0x58, 0x7f, 0x81, 0x1c, 0x80, 0x58, 0x30, 0x23, 0x90,
  0x5d, 0x7f, 0x81, 0x1c, 0x80, 0x5d, 0x30, 0x24, 0x90, 0x5b, 0x7f, 0x81,
  0x1c, 0x80, 0x5b, 0x30, 0x25, 0x90, 0x59, 0x7f, 0x81, 0x1c, 0x80, 0x59,
  0x30, 0x23, 0x90, 0x54, 0x7f, 0x81, 0x1c, 0x80, 0x54, 0x30, 0x24, 0x90,
  0x59, 0x7f, 0x81, 0x1c, 0x80, 0x59, 0x30, 0x24, 0x90, 0x54, 0x7f, 0x81,
  0x1c, 0x80, 0x54, 0x30, 0x25, 0x90, 0x59, 0x7f, 0x81, 0x1c, 0x80, 0x59,
  0x30, 0x23, 0x90, 0x54, 0x7f, 0x81, 0x1c, 0x80, 0x54, 0x30, 0x24, 0x90,
  0x59, 0x7f, 0x81, 0x1c, 0x80, 0x59, 0x30, 0x25, 0x90, 0x5b, 0x7f, 0x81,
  0x1c, 0x80, 0x5b, 0x30, 0x23, 0x90, 0x58, 0x7f, 0x81, 0x1c, 0x80, 0x58,
  0x30, 0x24, 0x90, 0x54, 0x7f, 0x81, 0x1c, 0x80, 0x54, 0x30, 0x24, 0x90,
  0x58, 0x7f, 0x81, 0x1c, 0x80, 0x58, 0x30, 0x25, 0x90, 0x54, 0x7f, 0x81,
  0x1c, 0x80, 0x54, 0x30, 0x23, 0x90, 0x58, 0x7f, 0x81, 0x1c, 0x80, 0x58,
  0x30, 0x24, 0x90, 0x54, 0x7f, 0x81, 0x1c, 0x80, 0x54, 0x30, 0x25, 0x90,
  0x58, 0x7f, 0x81, 0x1c, 0x80, 0x58, 0x30, 0x23, 0x90, 0x59, 0x7f, 0x81,
  0x1c, 0x80, 0x59, 0x30, 0x24, 0x90, 0x5b, 0x7f, 0x81, 0x1c, 0x80, 0x5b,
  0x30, 0x24, 0x90, 0x56, 0x7f, 0x81, 0x1c, 0x80, 0x56, 0x30, 0x25, 0x90,
  0x5b, 0x7f, 0x81, 0x1c, 0x80, 0x5b, 0x30, 0x23, 0x90, 0x56, 0x7f, 0x81,
  0x1c, 0x80, 0x56, 0x30, 0x24, 0x90, 0x5b, 0x7f, 0x00, 0x90, 0x40, 0x7f,
  0x81, 0x1c, 0x80, 0x5b, 0x30, 0x06, 0x80, 0x40, 0x30, 0x1f, 0x90, 0x56,
  0x7f, 0x00, 0x90, 0x40, 0x7f, 0x81, 0x1c, 0x80, 0x56, 0x30, 0x23, 0x90,
  0x5b, 0x7f, 0x81, 0x1c, 0x80, 0x5b, 0x30, 0x1a, 0x80, 0x40, 0x30, 0x0a,
  0x90, 0x58, 0x7f, 0x00, 0x90, 0x43, 0x7f, 0x81, 0x1c, 0x80, 0x58, 0x30,
  0x18, 0x80, 0x43, 0x30, 0x0c, 0x90, 0x5d, 0x7f, 0x00, 0x90, 0x45, 0x7f,
  0x81, 0x1c, 0x80, 0x5d, 0x30, 0x25, 0x90, 0x58, 0x7f, 0x81, 0x1c, 0x80,
  0x58, 0x30, 0x1f, 0x80, 0x45, 0x30, 0x04, 0x90, 0x5d, 0x7f, 0x00, 0x90,
  0x45, 0x7f, 0x81, 0x1c, 0x80, 0x5d, 0x30, 0x24, 0x90, 0x58, 0x7f, 0x20,
  0x80, 0x45, 0x30, 0x7c, 0x80, 0x58, 0x30, 0x25, 0x90, 0x5d, 0x7f, 0x00,
  0x90, 0x45, 0x7f, 0x81, 0x1c, 0x80, 0x5d, 0x30, 0x1a, 0x80, 0x45, 0x30,
  0x09, 0x90, 0x58, 0x7f, 0x00, 0x90, 0x45, 0x7f, 0x81, 0x1c, 0x80, 0x58,
  0x30, 0x24, 0x90, 0x5d, 0x7f, 0x81, 0x1c, 0x80, 0x5d, 0x30, 0x02, 0x80,
  0x45, 0x30, 0x22, 0x90, 0x5b, 0x7f, 0x00, 0x90, 0x47, 0x78, 0x81, 0x1c,
  0x80, 0x5b, 0x30, 0x20, 0x80, 0x47, 0x30, 0x05, 0x90, 0x59, 0x7f, 0x00,
  0x90, 0x48, 0x72, 0x81, 0x1c, 0x80, 0x59, 0x30, 0x23, 0x90, 0x54, 0x7f,
  0x81, 0x1c, 0x80, 0x54, 0x30, 0x08, 0x80, 0x48, 0x30, 0x1c, 0x90, 0x59,
  0x7f, 0x00, 0x90, 0x48, 0x72, 0x81, 0x1c, 0x80, 0x59, 0x30, 0x25, 0x90,
  0x54, 0x7f, 0x3b, 0x80, 0x48, 0x30, 0x61, 0x80, 0x54, 0x30, 0x23, 0x90,
  0x59, 0x7f, 0x00, 0x90, 0x45, 0x7f, 0x81, 0x1c, 0x80, 0x59, 0x30, 0x21,
  0x80, 0x45, 0x30, 0x03, 0x90, 0x54, 0x7f, 0x00, 0x90, 0x45, 0x7f, 0x81,
  0x1c, 0x80, 0x54, 0x30, 0x24, 0x90, 0x59, 0x7f, 0x81, 0x1c, 0x80, 0x59,
  0x30, 0x14, 0x80, 0x45, 0x30, 0x11, 0x90, 0x5b, 0x7f, 0x00, 0x90, 0x47,
  0x78, 0x81, 0x1c, 0x80, 0x5b, 0x30, 0x1f, 0x80, 0x47, 0x30, 0x04, 0x90,
  0x58, 0x7f, 0x00, 0x90, 0x48, 0x72, 0x81, 0x1c, 0x80, 0x58, 0x30, 0x24,
  0x90, 0x54, 0x7f, 0x81, 0x1c, 0x80, 0x54, 0x30, 0x00, 0x80, 0x48, 0x30,
  0x25, 0x90, 0x58, 0x7f, 0x00, 0x90, 0x48, 0x72, 0x81, 0x1c, 0x80, 0x58,
  0x30, 0x23, 0x90, 0x54, 0x7f, 0x19, 0x80, 0x48, 0x30, 0x81, 0x03, 0x80,
  0x54, 0x30, 0x24, 0x90, 0x58, 0x7f, 0x00, 0x90, 0x48, 0x72, 0x81, 0x1c,
  0x80, 0x58, 0x30, 0x1c, 0x80, 0x48, 0x30, 0x08, 0x90, 0x54, 0x7f, 0x00,
  0x90, 0x4a, 0x72, 0x81, 0x1c, 0x80, 0x54, 0x30, 0x25, 0x90, 0x58, 0x7f,
  0x81, 0x1c, 0x80, 0x58, 0x30, 0x18, 0x80, 0x4a, 0x30, 0x0b, 0x90, 0x59,
  0x7f, 0x00, 0x90, 0x48, 0x72, 0x81, 0x1c, 0x80, 0x59, 0x30, 0x21, 0x80,
  0x48, 0x30, 0x03, 0x90, 0x5b, 0x7f, 0x00, 0x90, 0x48, 0x72, 0x81, 0x1c,
  0x80, 0x5b, 0x30, 0x25, 0x90, 0x56, 0x7f, 0x81, 0x1c, 0x80, 0x56, 0x30,
  0x1a, 0x80, 0x48, 0x30, 0x09, 0x90, 0x5b, 0x7f, 0x00, 0x90, 0x47, 0x78,
  0x81, 0x1c, 0x80, 0x5b, 0x30, 0x24, 0x90, 0x56, 0x7f, 0x6d, 0x80, 0x47,
  0x30, 0x2f, 0x80, 0x56, 0x30, 0x24, 0x90, 0x5b, 0x7f, 0x00, 0x90, 0x40,
  0x7f, 0x81, 0x1c, 0x80, 0x5b, 0x30, 0x20, 0x80, 0x40, 0x30, 0x05, 0x90,
  0x56, 0x7f, 0x00, 0x90, 0x40, 0x7f, 0x81, 0x1c, 0x80, 0x56, 0x30, 0x23,
  0x90, 0x5b, 0x7f, 0x81, 0x1c, 0x80, 0x5b, 0x30, 0x0f, 0x80, 0x40, 0x30,
  0x15, 0x90, 0x58, 0x7f, 0x00, 0x90, 0x43, 0x7f, 0x81, 0x1c, 0x80, 0x58,
  0x30, 0x20, 0x80, 0x43, 0x30, 0x05, 0x90, 0x5d, 0x7f, 0x00, 0x90, 0x45,
  0x7f, 0x81, 0x1c, 0x80, 0x5d, 0x30, 0x23, 0x90, 0x58, 0x7f, 0x81, 0x1c,
  0x80, 0x58, 0x30, 0x00, 0x80, 0x45, 0x30, 0x24, 0x90, 0x5d, 0x7f, 0x00,
  0x90, 0x45, 0x7f, 0x81, 0x1c, 0x80, 0x5d, 0x30, 0x24, 0x90, 0x58, 0x7f,
  0x18, 0x80, 0x45, 0x30, 0x81, 0x04, 0x80, 0x58, 0x30, 0x25, 0x90, 0x5d,
  0x7f, 0x00, 0x90, 0x45, 0x7f, 0x81, 0x1c, 0x80, 0x5d, 0x30, 0x13, 0x80,
  0x45, 0x30, 0x10, 0x90, 0x58, 0x7f, 0x00, 0x90, 0x45, 0x7f, 0x81, 0x1c,
  0x80, 0x58, 0x30, 0x24, 0x90, 0x5d, 0x7f, 0x81, 0x1c, 0x80, 0x5d, 0x30,
  0x15, 0x80, 0x45, 0x30, 0x10, 0x90, 0x5b, 0x7f, 0x00, 0x90, 0x47, 0x78,
  0x81, 0x1c, 0x80, 0x5b, 0x30, 0x1f, 0x80, 0x47, 0x30, 0x04, 0x90, 0x59,
  0x7f, 0x00, 0x90, 0x48, 0x72, 0x81, 0x1c, 0x80, 0x59, 0x30, 0x24, 0x90,
  0x54, 0x7f, 0x81, 0x1c, 0x80, 0x54, 0x30, 0x15, 0x80, 0x48, 0x30, 0x0f,
  0x90, 0x59, 0x7f, 0x00, 0x90, 0x48, 0x72, 0x81, 0x1c, 0x80, 0x59, 0x30,
  0x25, 0x90, 0x54, 0x7f, 0x27, 0x80, 0x48, 0x30, 0x75, 0x80, 0x54, 0x30,
  0x23, 0x90, 0x59, 0x7f, 0x00, 0x90, 0x45, 0x7f, 0x81, 0x1c, 0x80, 0x59,
  0x30, 0x12, 0x80, 0x45, 0x30, 0x12, 0x90, 0x54, 0x7f, 0x00, 0x90, 0x45,
  0x7f, 0x81, 0x1c, 0x80, 0x54, 0x30, 0x25, 0x90, 0x59, 0x7f, 0x81, 0x1c,
  0x80, 0x59, 0x30, 0x08, 0x80, 0x45, 0x30, 0x1b, 0x90, 0x5b, 0x7f, 0x00,
  0x90, 0x47, 0x78, 0x81, 0x1c, 0x80, 0x5b, 0x30, 0x21, 0x80, 0x47, 0x30,
  0x03, 0x90, 0x58, 0x7f, 0x00, 0x90, 0x48, 0x72, 0x81, 0x1c, 0x80, 0x58,
  0x30, 0x24, 0x90, 0x54, 0x7f, 0x81, 0x1c, 0x80, 0x54, 0x30, 0x14, 0x80,
  0x48, 0x30, 0x11, 0x90, 0x58, 0x7f, 0x00, 0x90, 0x48, 0x72, 0x81, 0x1c,
  0x80, 0x58, 0x30, 0x23, 0x90, 0x54, 0x7f, 0x29, 0x80, 0x48, 0x30, 0x73,
  0x80, 0x54, 0x30, 0x24, 0x90, 0x58, 0x7f, 0x00, 0x90, 0x48, 0x72, 0x81,
  0x1c, 0x80, 0x58, 0x30, 0x12, 0x80, 0x48, 0x30, 0x13, 0x90, 0x54, 0x7f,
  0x00, 0x90, 0x4a, 0x72, 0x81, 0x1c, 0x80, 0x54, 0x30, 0x23, 0x90, 0x58,
  0x7f, 0x81, 0x1c, 0x80, 0x58, 0x30, 0x14, 0x80, 0x4a, 0x30, 0x10, 0x90,
  0x59, 0x7f, 0x00, 0x90, 0x48, 0x72, 0x81, 0x1c, 0x80, 0x59, 0x30, 0x20,
  0x80, 0x48, 0x30, 0x04, 0x90, 0x5b, 0x7f, 0x00, 0x90, 0x48, 0x72, 0x81,
  0x1c, 0x80, 0x5b, 0x30, 0x25, 0x90, 0x56, 0x7f, 0x81, 0x1c, 0x80, 0x56,
  0x30, 0x1d, 0x80, 0x48, 0x30, 0x06, 0x90, 0x5b, 0x7f, 0x00, 0x90, 0x47,
  0x78, 0x81, 0x1c, 0x80, 0x5b, 0x30, 0x24, 0x90, 0x56, 0x7f, 0x39, 0x80,
  0x47, 0x30, 0x63, 0x80, 0x56, 0x30, 0x25, 0x90, 0x5b, 0x7f, 0x00, 0x90,
  0x47, 0x78, 0x81, 0x1c, 0x80, 0x5b, 0x30, 0x0b, 0x80, 0x47, 0x30, 0x18,
  0x90, 0x56, 0x7f, 0x00, 0x90, 0x47, 0x78, 0x81, 0x1c, 0x80, 0x56, 0x30,
  0x21, 0x80, 0x47, 0x30, 0x03, 0x90, 0x5b, 0x7f, 0x00, 0x90, 0x45, 0x7f,
  0x81, 0x1c, 0x80, 0x5b, 0x30, 0x15, 0x80, 0x45, 0x30, 0x0f, 0x90, 0x58,
  0x7f, 0x00, 0x90, 0x43, 0x7f, 0x81, 0x1c, 0x80, 0x58, 0x30, 0x20, 0x80,
  0x43, 0x30, 0x05, 0x90, 0x5d, 0x7f, 0x00, 0x90, 0x45, 0x7f, 0x81, 0x1c,
  0x80, 0x5d, 0x30, 0x23, 0x90, 0x58, 0x7f, 0x81, 0x1c, 0x80, 0x58, 0x30,
  0x24, 0x90, 0x5d, 0x7f, 0x81, 0x1c, 0x80, 0x5d, 0x30, 0x25, 0x90, 0x58,
  0x7f, 0x81, 0x1c, 0x80, 0x58, 0x30, 0x23, 0x90, 0x5d, 0x7f, 0x81, 0x1c,
  0x80, 0x5d, 0x30, 0x24, 0x90, 0x58, 0x7f, 0x81, 0x1c, 0x80, 0x58, 0x30,
  0x24, 0x90, 0x5d, 0x7f, 0x81, 0x1c, 0x80, 0x5d, 0x30, 0x25, 0x90, 0x5b,
  0x7f, 0x81, 0x1c, 0x80, 0x5b, 0x30, 0x23, 0x90, 0x59, 0x7f, 0x38, 0x80,
  0x45, 0x30, 0x64, 0x80, 0x59, 0x30, 0x24, 0x90, 0x54, 0x7f, 0x81, 0x1c,
  0x80, 0x54, 0x30, 0x25, 0x90, 0x59, 0x7f, 0x81, 0x1c, 0x80, 0x59, 0x30,
  0x23, 0x90, 0x54, 0x7f, 0x81, 0x1c, 0x80, 0x54, 0x30, 0x24, 0x90, 0x59,
  0x7f, 0x81, 0x1c, 0x80, 0x59, 0x30, 0x24, 0x90, 0x54, 0x7f, 0x81, 0x1c,
  0x80, 0x54, 0x30, 0x25, 0x90, 0x59, 0x7f, 0x81, 0x1c, 0x80, 0x59, 0x30,
  0x23, 0x90, 0x5b, 0x7f, 0x81, 0x1c, 0x80, 0x5b, 0x30, 0x24, 0x90, 0x58,
  0x7f, 0x81, 0x1c, 0x80, 0x58, 0x30, 0x25, 0x90, 0x54, 0x7f, 0x81, 0x1c,
  0x80, 0x54, 0x30, 0x23, 0x90, 0x58, 0x7f, 0x00, 0x90, 0x48, 0x71, 0x81,
  0x1c, 0x80, 0x58, 0x30, 0x24, 0x90, 0x54, 0x7f, 0x81, 0x1c, 0x80, 0x54,
  0x30, 0x05, 0x80, 0x48, 0x30, 0x1f, 0x90, 0x58, 0x7f, 0x00, 0x90, 0x48,
  0x71, 0x81, 0x1c, 0x80, 0x58, 0x30, 0x25, 0x90, 0x54, 0x7f, 0x81, 0x1c,
  0x80, 0x54, 0x30, 0x09, 0x80, 0x48, 0x30, 0x1a, 0x90, 0x58, 0x7f, 0x00,
  0x90, 0x48, 0x71, 0x81, 0x1c, 0x80, 0x58, 0x30, 0x0a, 0x80, 0x48, 0x30,
  0x1a, 0x90, 0x59, 0x7f, 0x00, 0x90, 0x48, 0x71, 0x81, 0x1c, 0x80, 0x59,
  0x30, 0x12, 0x80, 0x48, 0x30, 0x13, 0x90, 0x5b, 0x7f, 0x00, 0x90, 0x48,
  0x71, 0x81, 0x1c, 0x80, 0x5b, 0x30, 0x23, 0x90, 0x56, 0x7f, 0x81, 0x1c,
  0x80, 0x56, 0x30, 0x0c, 0x80, 0x48, 0x30, 0x18, 0x90, 0x5b, 0x7f, 0x00,
  0x90, 0x47, 0x78, 0x81, 0x1c, 0x80, 0x5b, 0x30, 0x24, 0x90, 0x56, 0x7f,
  0x76, 0x80, 0x47, 0x30, 0x26, 0x80, 0x56, 0x30, 0x25, 0x90, 0x5b, 0x7f,
  0x00, 0x90, 0x47, 0x78, 0x81, 0x1c, 0x80, 0x5b, 0x30, 0x0b, 0x80, 0x47,
  0x30, 0x18, 0x90, 0x56, 0x7f, 0x00, 0x90, 0x47, 0x78, 0x81, 0x1c, 0x80,
  0x56, 0x30, 0x21, 0x80, 0x47, 0x30, 0x03, 0x90, 0x5b, 0x7f, 0x00, 0x90,
  0x45, 0x7f, 0x81, 0x1c, 0x80, 0x5b, 0x30, 0x15, 0x80, 0x45, 0x30, 0x10,
  0x90, 0x58, 0x7f, 0x00, 0x90, 0x43, 0x7f, 0x81, 0x1c, 0x80, 0x58, 0x30,
  0x1f, 0x80, 0x43, 0x30, 0x04, 0x90, 0x5d, 0x7f, 0x00, 0x90, 0x45, 0x7f,
  0x81, 0x1c, 0x80, 0x5d, 0x30, 0x24, 0x90, 0x58, 0x7f, 0x81, 0x1c, 0x80,
  0x58, 0x30, 0x24, 0x90, 0x5d, 0x7f, 0x81, 0x1c, 0x80, 0x5d, 0x30, 0x25,
  0x90, 0x58, 0x7f, 0x81, 0x1c, 0x80, 0x58, 0x30, 0x23, 0x90, 0x5d, 0x7f,
  0x81, 0x1c, 0x80, 0x5d, 0x30, 0x24, 0x90, 0x58, 0x7f, 0x81, 0x1c, 0x80,
  0x58, 0x30, 0x25, 0x90, 0x5d, 0x7f, 0x81, 0x1c, 0x80, 0x5d, 0x30, 0x23,
  0x90, 0x5b, 0x7f, 0x81, 0x1c, 0x80, 0x5b, 0x30, 0x24, 0x90, 0x59, 0x7f,
  0x39, 0x80, 0x45, 0x30, 0x63, 0x80, 0x59, 0x30, 0x24, 0x90, 0x54, 0x7f,
  0x81, 0x1c, 0x80, 0x54, 0x30, 0x25, 0x90, 0x59, 0x7f, 0x81, 0x1c, 0x80,
  0x59, 0x30, 0x23, 0x90, 0x54, 0x7f, 0x81, 0x1c, 0x80, 0x54, 0x30, 0x24,
  0x90, 0x59, 0x7f, 0x81, 0x1c, 0x80, 0x59, 0x30, 0x25, 0x90, 0x54, 0x7f,
  0x81, 0x1c, 0x80, 0x54, 0x30, 0x23, 0x90, 0x59, 0x7f, 0x81, 0x1c, 0x80,
  0x59, 0x30, 0x24, 0x90, 0x5b, 0x7f, 0x81, 0x1c, 0x80, 0x5b, 0x30, 0x24,
  0x90, 0x58, 0x7f, 0x81, 0x1c, 0x80, 0x58, 0x30, 0x25, 0x90, 0x54, 0x7f,
  0x81, 0x1c, 0x80, 0x54, 0x30, 0x23, 0x90, 0x58, 0x7f, 0x00, 0x90, 0x48,
  0x72, 0x81, 0x1c, 0x80, 0x58, 0x30, 0x24, 0x90, 0x54, 0x7f, 0x81, 0x17,
  0x80, 0x48, 0x30, 0x05, 0x80, 0x54, 0x30, 0x25, 0x90, 0x58, 0x7f, 0x00,
  0x90, 0x48, 0x72, 0x81, 0x1c, 0x80, 0x58, 0x30, 0x23, 0x90, 0x54, 0x7f,
  0x81, 0x1c, 0x80, 0x54, 0x30, 0x0c, 0x80, 0x48, 0x30, 0x18, 0x90, 0x58,
  0x7f, 0x00, 0x90, 0x48, 0x72, 0x81, 0x1c, 0x80, 0x58, 0x30, 0x24, 0x90,
  0x59, 0x7f, 0x81, 0x1c, 0x80, 0x59, 0x30, 0x06, 0x80, 0x48, 0x30, 0x1f,
  0x90, 0x5b, 0x7f, 0x00, 0x90, 0x48, 0x72, 0x81, 0x1c, 0x80, 0x5b, 0x30,
  0x81, 0x60, 0x80, 0x48, 0x30, 0x03, 0x90, 0x47, 0x78, 0x83, 0x11, 0x80,
  0x47, 0x30, 0x87, 0x2f, 0x90, 0x21, 0x7f, 0x81, 0x10, 0x80, 0x21, 0x30,
  0x31, 0x90, 0x2d, 0x71, 0x34, 0x80, 0x2d, 0x30, 0x2c, 0x90, 0x2d, 0x64,
  0x53, 0x80, 0x2d, 0x30, 0x0c, 0x90, 0x21, 0x7f, 0x81, 0x11, 0x80, 0x21,
  0x30, 0x2f, 0x90, 0x2d, 0x71, 0x34, 0x80, 0x2d, 0x30, 0x2c, 0x90, 0x2d,
  0x6b, 0x5b, 0x80, 0x2d, 0x30, 0x05, 0x90, 0x21, 0x7f, 0x81, 0x10, 0x80,
  0x21, 0x30, 0x31, 0x90, 0x2d, 0x71, 0x34, 0x80, 0x2d, 0x30, 0x2b, 0x90,
  0x2d, 0x64, 0x55, 0x80, 0x2d, 0x30, 0x0b, 0x90, 0x21, 0x7f, 0x81, 0x11,
  0x80, 0x21, 0x30, 0x2f, 0x90, 0x2d, 0x71, 0x34, 0x80, 0x2d, 0x30, 0x2c,
  0x90, 0x2d, 0x6b, 0x5a, 0x80, 0x2d, 0x30, 0x07, 0x90, 0x1d, 0x7f, 0x81,
  0x0f, 0x80, 0x1d, 0x30, 0x30, 0x90, 0x29, 0x71, 0x34, 0x80, 0x29, 0x30,
  0x2c, 0x90, 0x29, 0x64, 0x55, 0x80, 0x29, 0x30, 0x0b, 0x90, 0x1d, 0x7f,
  0x81, 0x10, 0x80, 0x1d, 0x30, 0x30, 0x90, 0x29, 0x71, 0x34, 0x80, 0x29,
  0x30, 0x2d, 0x90, 0x29, 0x6b, 0x59, 0x80, 0x29, 0x30, 0x07, 0x90, 0x1d,
  0x7f, 0x81, 0x0f, 0x80, 0x1d, 0x30, 0x30, 0x90, 0x29, 0x71, 0x34, 0x80,
  0x29, 0x30, 0x2c, 0x90, 0x29, 0x64, 0x54, 0x80, 0x29, 0x30, 0x0c, 0x90,
  0x1d, 0x7f, 0x81, 0x10, 0x80, 0x1d, 0x30, 0x31, 0x90, 0x29, 0x71, 0x34,
  0x80, 0x29, 0x30, 0x2c, 0x90, 0x29, 0x6b, 0x59, 0x80, 0x29, 0x30, 0x06,
  0x90, 0x24, 0x7f, 0x81, 0x11, 0x80, 0x24, 0x30, 0x2f, 0x90, 0x30, 0x71,
  0x34, 0x80, 0x30, 0x30, 0x2c, 0x90, 0x30, 0x64, 0x54, 0x80, 0x30, 0x30,
  0x0c, 0x90, 0x24, 0x7f, 0x81, 0x10, 0x80, 0x24, 0x30, 0x31, 0x90, 0x30,
  0x71, 0x34, 0x80, 0x30, 0x30, 0x2b, 0x90, 0x30, 0x6b, 0x5a, 0x80, 0x30,
  0x30, 0x06, 0x90, 0x24, 0x7f, 0x81, 0x11, 0x80, 0x24, 0x30, 0x2f, 0x90,
  0x30, 0x71, 0x34, 0x80, 0x30, 0x30, 0x2c, 0x90, 0x30, 0x64, 0x54, 0x80,
  0x30, 0x30, 0x0d, 0x90, 0x24, 0x7f, 0x81, 0x0f, 0x80, 0x24, 0x30, 0x30,
  0x90, 0x30, 0x71, 0x34, 0x80, 0x30, 0x30, 0x2c, 0x90, 0x30, 0x6b, 0x5a,
  0x80, 0x30, 0x30, 0x06, 0x90, 0x1f, 0x7f, 0x81, 0x10, 0x80, 0x1f, 0x30,
  0x30, 0x90, 0x2b, 0x71, 0x34, 0x80, 0x2b, 0x30, 0x2d, 0x90, 0x2b, 0x64,
  0x53, 0x80, 0x2b, 0x30, 0x0d, 0x90, 0x1f, 0x7f, 0x81, 0x0f, 0x80, 0x1f,
  0x30, 0x30, 0x90, 0x2b, 0x71, 0x34, 0x80, 0x2b, 0x30, 0x2c, 0x90, 0x2b,
  0x6b, 0x5b, 0x80, 0x2b, 0x30, 0x05, 0x90, 0x1f, 0x7f, 0x81, 0x10, 0x80,
  0x1f, 0x30, 0x31, 0x90, 0x2b, 0x71, 0x34, 0x80, 0x2b, 0x30, 0x2c, 0x90,
  0x2b, 0x64, 0x53, 0x80, 0x2b, 0x30, 0x0c, 0x90, 0x1f, 0x7f, 0x81, 0x11,
  0x80, 0x1f, 0x30, 0x2f, 0x90, 0x2b, 0x71, 0x34, 0x80, 0x2b, 0x30, 0x2c,
  0x90, 0x2b, 0x6b, 0x5b, 0x80, 0x2b, 0x30, 0x05, 0x90, 0x21, 0x7f, 0x81,
  0x10, 0x80, 0x21, 0x30, 0x31, 0x90, 0x2d, 0x71, 0x34, 0x80, 0x2d, 0x30,
  0x2b, 0x90, 0x2d, 0x64, 0x55, 0x80, 0x2d, 0x30, 0x0b, 0x90, 0x21, 0x7f,
  0x81, 0x11, 0x80, 0x21, 0x30, 0x2f, 0x90, 0x2d, 0x71, 0x34, 0x80, 0x2d,
  0x30, 0x2c, 0x90, 0x2d, 0x6b, 0x5a, 0x80, 0x2d, 0x30, 0x07, 0x90, 0x21,
  0x7f, 0x81, 0x0f, 0x80, 0x21, 0x30, 0x30, 0x90, 0x2d, 0x71, 0x34, 0x80,
  0x2d, 0x30, 0x2c, 0x90, 0x2d, 0x64, 0x55, 0x80, 0x2d, 0x30, 0x0b, 0x90,
  0x21, 0x7f, 0x81, 0x10, 0x80, 0x21, 0x30, 0x30, 0x90, 0x2d, 0x71, 0x34,
  0x80, 0x2d, 0x30, 0x2d, 0x90, 0x2d, 0x6b, 0x59, 0x80, 0x2d, 0x30, 0x07,
  0x90, 0x1d, 0x7f, 0x81, 0x0f, 0x80, 0x1d, 0x30, 0x30, 0x90, 0x29, 0x71,
  0x34, 0x80, 0x29, 0x30, 0x2c, 0x90, 0x29, 0x64, 0x54, 0x80, 0x29, 0x30,
  0x0c, 0x90, 0x1d, 0x7f, 0x81, 0x10, 0x80, 0x1d, 0x30, 0x31, 0x90, 0x29,
  0x71, 0x34, 0x80, 0x29, 0x30, 0x2c, 0x90, 0x29, 0x6b, 0x59, 0x80, 0x29,
  0x30, 0x06, 0x90, 0x1d, 0x7f, 0x81, 0x11, 0x80, 0x1d, 0x30, 0x2f, 0x90,
  0x29, 0x71, 0x34, 0x80, 0x29, 0x30, 0x2c, 0x90, 0x29, 0x64, 0x54, 0x80,
  0x29, 0x30, 0x0c, 0x90, 0x1d, 0x7f, 0x81, 0x10, 0x80, 0x1d, 0x30, 0x31,
  0x90, 0x29, 0x71, 0x34, 0x80, 0x29, 0x30, 0x2b, 0x90, 0x29, 0x6b, 0x5a,
  0x80, 0x29, 0x30, 0x06, 0x90, 0x24, 0x7f, 0x81, 0x11, 0x80, 0x24, 0x30,
  0x2f, 0x90, 0x30, 0x71, 0x34, 0x80, 0x30, 0x30, 0x2c, 0x90, 0x30, 0x64,
  0x54, 0x80, 0x30, 0x30, 0x0d, 0x90, 0x24, 0x7f, 0x81, 0x0f, 0x80, 0x24,
  0x30, 0x30, 0x90, 0x30, 0x71, 0x34, 0x80, 0x30, 0x30, 0x2c, 0x90, 0x30,
  0x6b, 0x5a, 0x80, 0x30, 0x30, 0x06, 0x90, 0x24, 0x7f, 0x81, 0x10, 0x80,
  0x24, 0x30, 0x30, 0x90, 0x30, 0x71, 0x34, 0x80, 0x30, 0x30, 0x2d, 0x90,
  0x30, 0x64, 0x53, 0x80, 0x30, 0x30, 0x0d, 0x90, 0x24, 0x7f, 0x81, 0x0f,
  0x80, 0x24, 0x30, 0x30, 0x90, 0x30, 0x71, 0x34, 0x80, 0x30, 0x30, 0x2c,
  0x90, 0x30, 0x6b, 0x5b, 0x80, 0x30, 0x30, 0x05, 0x90, 0x1f, 0x7f, 0x81,
  0x10, 0x80, 0x1f, 0x30, 0x31, 0x90, 0x2b, 0x71, 0x34, 0x80, 0x2b, 0x30,
  0x2c, 0x90, 0x2b, 0x64, 0x53, 0x80, 0x2b, 0x30, 0x0c, 0x90, 0x1f, 0x7f,
  0x81, 0x11, 0x80, 0x1f, 0x30, 0x2f, 0x90, 0x2b, 0x71, 0x34, 0x80, 0x2b,
  0x30, 0x2c, 0x90, 0x2b, 0x6b, 0x5b, 0x80, 0x2b, 0x30, 0x05, 0x90, 0x1f,
  0x7f, 0x81, 0x10, 0x80, 0x1f, 0x30, 0x31, 0x90, 0x2b, 0x71, 0x34, 0x80,
  0x2b, 0x30, 0x2b, 0x90, 0x2b, 0x64, 0x55, 0x80, 0x2b, 0x30, 0x0b, 0x90,
  0x1f, 0x7f, 0x60, 0x90, 0x37, 0x7f, 0x31, 0x80, 0x1f, 0x30, 0x05, 0x80,
  0x37, 0x30, 0x2a, 0x90, 0x2b, 0x71, 0x00, 0x90, 0x37, 0x7f, 0x34, 0x80,
  0x2b, 0x30, 0x2c, 0x90, 0x2b, 0x6b, 0x20, 0x80, 0x37, 0x30, 0x3a, 0x80,
  0x2b, 0x30, 0x07, 0x90, 0x21, 0x7f, 0x00, 0x90, 0x39, 0x7f, 0x81, 0x0f,
  0x80, 0x21, 0x30, 0x10, 0x80, 0x39, 0x30, 0x20, 0x90, 0x2d, 0x71, 0x00,
  0x90, 0x39, 0x7f, 0x34, 0x80, 0x2d, 0x30, 0x1e, 0x80, 0x39, 0x30, 0x0e,
  0x90, 0x2d, 0x64, 0x55, 0x80, 0x2d, 0x30, 0x0b, 0x90, 0x21, 0x7f, 0x00,
  0x90, 0x39, 0x7f, 0x81, 0x10, 0x80, 0x21, 0x30, 0x04, 0x80, 0x39, 0x30,
  0x2c, 0x90, 0x2d, 0x71, 0x00, 0x90, 0x39, 0x7f, 0x34, 0x80, 0x2d, 0x30,
  0x26, 0x80, 0x39, 0x30, 0x07, 0x90, 0x2d, 0x6b, 0x59, 0x80, 0x2d, 0x30,
  0x07, 0x90, 0x21, 0x7f, 0x00, 0x90, 0x39, 0x7f, 0x81, 0x0d, 0x80, 0x39,
  0x30, 0x02, 0x80, 0x21, 0x30, 0x30, 0x90, 0x2d, 0x71, 0x00, 0x90, 0x39,
  0x7f, 0x2e, 0x80, 0x39, 0x30, 0x06, 0x80, 0x2d, 0x30, 0x2c, 0x90, 0x2d,
  0x64, 0x00, 0x90, 0x3c, 0x7f, 0x54, 0x80, 0x2d, 0x30, 0x0c, 0x90, 0x21,
  0x7f, 0x56, 0x80, 0x3c, 0x30, 0x0a, 0x90, 0x37, 0x7f, 0x30, 0x80, 0x21,
  0x30, 0x08, 0x80, 0x37, 0x30, 0x29, 0x90, 0x2d, 0x71, 0x00, 0x90, 0x37,
  0x7f, 0x34, 0x80, 0x2d, 0x30, 0x2c, 0x90, 0x2d, 0x6b, 0x2f, 0x80, 0x37,
  0x30, 0x2a, 0x80, 0x2d, 0x30, 0x06, 0x90, 0x1d, 0x7f, 0x00, 0x90, 0x39,
  0x7f, 0x81, 0x11, 0x80, 0x1d, 0x30, 0x05, 0x80, 0x39, 0x30, 0x2a, 0x90,
  0x29, 0x71, 0x00, 0x90, 0x39, 0x7f, 0x34, 0x80, 0x29, 0x30, 0x02, 0x80,
  0x39, 0x30, 0x2a, 0x90, 0x29, 0x64, 0x00, 0x90, 0x39, 0x7f, 0x54, 0x80,
  0x29, 0x30, 0x0c, 0x90, 0x1d, 0x7f, 0x3f, 0x80, 0x39, 0x30, 0x22, 0x90,
  0x39, 0x7f, 0x2f, 0x80, 0x1d, 0x30, 0x06, 0x80, 0x39, 0x30, 0x2b, 0x90,
  0x29, 0x71, 0x00, 0x90, 0x39, 0x7f, 0x34, 0x80, 0x29, 0x30, 0x2b, 0x90,
  0x29, 0x6b, 0x02, 0x80, 0x39, 0x30, 0x58, 0x80, 0x29, 0x30, 0x06, 0x90,
  0x1d, 0x7f, 0x00, 0x90, 0x3c, 0x7f, 0x81, 0x11, 0x80, 0x1d, 0x30, 0x1f,
  0x80, 0x3c, 0x30, 0x10, 0x90, 0x29, 0x71, 0x00, 0x90, 0x39, 0x7f, 0x34,
  0x80, 0x29, 0x30, 0x05, 0x80, 0x39, 0x30, 0x27, 0x90, 0x29, 0x64, 0x00,
  0x90, 0x39, 0x7f, 0x54, 0x80, 0x29, 0x30, 0x0d, 0x90, 0x1d, 0x7f, 0x5b,
  0x80, 0x39, 0x30, 0x05, 0x90, 0x37, 0x7f, 0x2f, 0x80, 0x1d, 0x30, 0x10,
  0x80, 0x37, 0x30, 0x20, 0x90, 0x29, 0x71, 0x00, 0x90, 0x37, 0x7f, 0x34,
  0x80, 0x29, 0x30, 0x2c, 0x90, 0x29, 0x6b, 0x31, 0x80, 0x37, 0x30, 0x29,
  0x80, 0x29, 0x30, 0x06, 0x90, 0x21, 0x7f, 0x00, 0x90, 0x39, 0x7f, 0x53,
  0x80, 0x39, 0x30, 0x0d, 0x90, 0x39, 0x7f, 0x30, 0x80, 0x21, 0x30, 0x0e,
  0x80, 0x39, 0x30, 0x22, 0x90, 0x2d, 0x71, 0x00, 0x90, 0x39, 0x7f, 0x34,
  0x80, 0x2d, 0x30, 0x2d, 0x90, 0x2d, 0x64, 0x1f, 0x80, 0x39, 0x30, 0x34,
  0x80, 0x2d, 0x30, 0x0d, 0x90, 0x21, 0x7f, 0x00, 0x90, 0x39, 0x7f, 0x70,
  0x80, 0x39, 0x30, 0x1f, 0x80, 0x21, 0x30, 0x30, 0x90, 0x2d, 0x71, 0x00,
  0x90, 0x39, 0x7f, 0x34, 0x80, 0x2d, 0x30, 0x2c, 0x90, 0x2d, 0x6b, 0x0c,
  0x80, 0x39, 0x30, 0x4f, 0x80, 0x2d, 0x30, 0x05, 0x90, 0x21, 0x7f, 0x00,
  0x90, 0x39, 0x7f, 0x70, 0x80, 0x39, 0x30, 0x20, 0x80, 0x21, 0x30, 0x31,
  0x90, 0x2d, 0x71, 0x00, 0x90, 0x39, 0x7f, 0x34, 0x80, 0x2d, 0x30, 0x0d,
  0x80, 0x39, 0x30, 0x1f, 0x90, 0x2d, 0x64, 0x00, 0x90, 0x3c, 0x7f, 0x53,
  0x80, 0x2d, 0x30, 0x0c, 0x90, 0x21, 0x7f, 0x5c, 0x80, 0x3c, 0x30, 0x04,
  0x90, 0x39, 0x7f, 0x31, 0x80, 0x21, 0x30, 0x0f, 0x80, 0x39, 0x30, 0x20,
  0x90, 0x2d, 0x71, 0x00, 0x90, 0x39, 0x7f, 0x2c, 0x80, 0x39, 0x30, 0x08,
  0x80, 0x2d, 0x30, 0x2c, 0x90, 0x2d, 0x6b, 0x00, 0x90, 0x39, 0x7f, 0x2f,
  0x80, 0x39, 0x30, 0x2c, 0x80, 0x2d, 0x30, 0x05, 0x90, 0x1d, 0x7f, 0x00,
  0x90, 0x3c, 0x7f, 0x81, 0x10, 0x80, 0x1d, 0x30, 0x10, 0x80, 0x3c, 0x30,
  0x21, 0x90, 0x29, 0x71, 0x00, 0x90, 0x39, 0x7f, 0x34, 0x80, 0x29, 0x30,
  0x2b, 0x90, 0x29, 0x64, 0x21, 0x80, 0x39, 0x30, 0x34, 0x80, 0x29, 0x30,
  0x0b, 0x90, 0x1d, 0x7f, 0x00, 0x90, 0x39, 0x7f, 0x4d, 0x80, 0x39, 0x30,
  0x13, 0x90, 0x39, 0x7f, 0x31, 0x80, 0x1d, 0x30, 0x0b, 0x80, 0x39, 0x30,
  0x24, 0x90, 0x29, 0x71, 0x00, 0x90, 0x39, 0x7f, 0x34, 0x80, 0x29, 0x30,
  0x2c, 0x90, 0x29, 0x6b, 0x1a, 0x80, 0x39, 0x30, 0x40, 0x80, 0x29, 0x30,
  0x07, 0x90, 0x1d, 0x7f, 0x00, 0x90, 0x3c, 0x7f, 0x81, 0x0f, 0x80, 0x1d,
  0x30, 0x12, 0x80, 0x3c, 0x30, 0x1e, 0x90, 0x29, 0x71, 0x00, 0x90, 0x39,
  0x7f, 0x34, 0x80, 0x29, 0x30, 0x2c, 0x90, 0x29, 0x64, 0x2a, 0x80, 0x39,
  0x30, 0x2b, 0x80, 0x29, 0x30, 0x0b, 0x90, 0x1d, 0x7f, 0x00, 0x90, 0x39,
  0x7f, 0x81, 0x10, 0x80, 0x1d, 0x30, 0x2b, 0x80, 0x39, 0x30, 0x05, 0x90,
  0x29, 0x71, 0x34, 0x80, 0x29, 0x30, 0x2d, 0x90, 0x29, 0x6b, 0x59, 0x80,
  0x29, 0x30, 0x07, 0x90, 0x21, 0x7f, 0x00, 0x90, 0x3c, 0x7f, 0x81, 0x0f,
  0x80, 0x21, 0x30, 0x2c, 0x80, 0x3c, 0x30, 0x04, 0x90, 0x2d, 0x71, 0x00,
  0x90, 0x39, 0x7f, 0x34, 0x80, 0x2d, 0x30, 0x2c, 0x90, 0x2d, 0x64, 0x54,
  0x80, 0x2d, 0x30, 0x07, 0x80, 0x39, 0x30, 0x05, 0x90, 0x21, 0x7f, 0x60,
  0x90, 0x39, 0x7f, 0x30, 0x80, 0x21, 0x30, 0x31, 0x90, 0x2d, 0x71, 0x15,
  0x80, 0x39, 0x30, 0x1f, 0x80, 0x2d, 0x30, 0x2c, 0x90, 0x2d, 0x6b, 0x00,
  0x90, 0x39, 0x7f, 0x41, 0x80, 0x39, 0x30, 0x18, 0x80, 0x2d, 0x30, 0x06,
  0x90, 0x21, 0x7f, 0x00, 0x90, 0x39, 0x7f, 0x81, 0x11, 0x80, 0x21, 0x30,
  0x07, 0x80, 0x39, 0x30, 0x28, 0x90, 0x2d, 0x71, 0x00, 0x90, 0x39, 0x7f,
  0x34, 0x80, 0x2d, 0x30, 0x2c, 0x90, 0x2d, 0x64, 0x32, 0x80, 0x39, 0x30,
  0x22, 0x80, 0x2d, 0x30, 0x0c, 0x90, 0x21, 0x7f, 0x00, 0x90, 0x3c, 0x7f,
  0x81, 0x10, 0x80, 0x21, 0x30, 0x31, 0x90, 0x2d, 0x71, 0x17, 0x80, 0x3c,
  0x30, 0x1d, 0x80, 0x2d, 0x30, 0x2b, 0x90, 0x2d, 0x6b, 0x00, 0x90, 0x3c,
  0x7f, 0x48, 0x80, 0x3c, 0x30, 0x12, 0x80, 0x2d, 0x30, 0x06, 0x90, 0x1d,
  0x7f, 0x00, 0x90, 0x39, 0x7f, 0x7a, 0x80, 0x39, 0x30, 0x17, 0x80, 0x1d,
  0x30, 0x2f, 0x90, 0x29, 0x71, 0x00, 0x90, 0x39, 0x7f, 0x34, 0x80, 0x29,
  0x30, 0x0e, 0x80, 0x39, 0x30, 0x1e, 0x90, 0x29, 0x64, 0x00, 0x90, 0x39,
  0x7f, 0x54, 0x80, 0x29, 0x30, 0x0d, 0x90, 0x1d, 0x7f, 0x0f, 0x80, 0x39,
  0x30, 0x51, 0x90, 0x39, 0x7f, 0x2f, 0x80, 0x1d, 0x30, 0x18, 0x80, 0x39,
  0x30, 0x18, 0x90, 0x29, 0x71, 0x00, 0x90, 0x39, 0x7f, 0x34, 0x80, 0x29,
  0x30, 0x2c, 0x90, 0x29, 0x6b, 0x38, 0x80, 0x39, 0x30, 0x22, 0x80, 0x29,
  0x30, 0x06, 0x90, 0x1d, 0x7f, 0x00, 0x90, 0x3c, 0x7f, 0x4e, 0x80, 0x3c,
  0x30, 0x12, 0x90, 0x39, 0x7f, 0x30, 0x80, 0x1d, 0x30, 0x30, 0x90, 0x29,
  0x71, 0x18, 0x80, 0x39, 0x30, 0x1c, 0x80, 0x29, 0x30, 0x2d, 0x90, 0x29,
  0x64, 0x00, 0x90, 0x39, 0x7f, 0x53, 0x80, 0x29, 0x30, 0x0d, 0x90, 0x1d,
  0x7f, 0x81, 0x0f, 0x80, 0x1d, 0x30, 0x22, 0x80, 0x39, 0x30, 0x0e, 0x90,
  0x29, 0x71, 0x34, 0x80, 0x29, 0x30, 0x2c, 0x90, 0x29, 0x6b, 0x5b, 0x80,
  0x29, 0x30, 0x05, 0x90, 0x21, 0x7f, 0x00, 0x90, 0x39, 0x7f, 0x81, 0x10,
  0x80, 0x21, 0x30, 0x31, 0x90, 0x2d, 0x71, 0x34, 0x80, 0x2d, 0x30, 0x2c,
  0x90, 0x2d, 0x64, 0x53, 0x80, 0x2d, 0x30, 0x03, 0x80, 0x39, 0x30, 0x09,
  0x90, 0x21, 0x7f, 0x60, 0x90, 0x39, 0x7f, 0x31, 0x80, 0x21, 0x30, 0x03,
  0x80, 0x39, 0x30, 0x2c, 0x90, 0x2d, 0x71, 0x00, 0x90, 0x39, 0x7f, 0x34,
  0x80, 0x2d, 0x30, 0x12, 0x80, 0x39, 0x30, 0x1a, 0x90, 0x2d, 0x6b, 0x00,
  0x90, 0x39, 0x7f, 0x39, 0x80, 0x39, 0x30, 0x22, 0x80, 0x2d, 0x30, 0x05,
  0x90, 0x21, 0x7f, 0x00, 0x90, 0x3c, 0x7f, 0x81, 0x10, 0x80, 0x21, 0x30,
  0x0c, 0x80, 0x3c, 0x30, 0x25, 0x90, 0x2d, 0x71, 0x00, 0x90, 0x39, 0x7f,
  0x34, 0x80, 0x2d, 0x30, 0x2b, 0x90, 0x2d, 0x64, 0x19, 0x80, 0x39, 0x30,
  0x3c, 0x80, 0x2d, 0x30, 0x0b, 0x90, 0x21, 0x7f, 0x00, 0x90, 0x39, 0x7f,
  0x81, 0x11, 0x80, 0x21, 0x30, 0x2f, 0x90, 0x2d, 0x71, 0x20, 0x80, 0x39,
  0x30, 0x14, 0x80, 0x2d, 0x30, 0x2c, 0x90, 0x2d, 0x6b, 0x00, 0x90, 0x39,
  0x7f, 0x37, 0x80, 0x39, 0x30, 0x23, 0x80, 0x2d, 0x30, 0x07, 0x90, 0x1d,
  0x7f, 0x00, 0x90, 0x39, 0x7f, 0x81, 0x0f, 0x80, 0x1d, 0x30, 0x08, 0x80,
  0x39, 0x30, 0x28, 0x90, 0x29, 0x71, 0x00, 0x90, 0x39, 0x7f, 0x33, 0x80,
  0x39, 0x30, 0x01, 0x80, 0x29, 0x30, 0x2c, 0x90, 0x29, 0x64, 0x00, 0x90,
  0x39, 0x7f, 0x55, 0x80, 0x29, 0x30, 0x0b, 0x90, 0x1d, 0x7f, 0x3e, 0x80,
  0x39, 0x30, 0x22, 0x90, 0x39, 0x7f, 0x30, 0x80, 0x1d, 0x30, 0x09, 0x80,
  0x39, 0x30, 0x27, 0x90, 0x29, 0x71, 0x00, 0x90, 0x39, 0x7f, 0x34, 0x80,
  0x29, 0x30, 0x2d, 0x90, 0x29, 0x6b, 0x07, 0x80, 0x39, 0x30, 0x52, 0x80,
  0x29, 0x30, 0x07, 0x90, 0x1d, 0x7f, 0x00, 0x90, 0x39, 0x7f, 0x81, 0x00,
  0x80, 0x39, 0x30, 0x0f, 0x80, 0x1d, 0x30, 0x30, 0x90, 0x29, 0x71, 0x00,
  0x90, 0x39, 0x7f, 0x34, 0x80, 0x29, 0x30, 0x2c, 0x90, 0x29, 0x64, 0x29,
  0x80, 0x39, 0x30, 0x2b, 0x80, 0x29, 0x30, 0x0c, 0x90, 0x1d, 0x7f, 0x00,
  0x90, 0x3c, 0x7f, 0x81, 0x10, 0x80, 0x1d, 0x30, 0x31, 0x90, 0x29, 0x71,
  0x34, 0x80, 0x29, 0x30, 0x2c, 0x90, 0x29, 0x6b, 0x27, 0x80, 0x3c, 0x30,
  0x32, 0x80, 0x29, 0x30, 0x06, 0x90, 0x1f, 0x7f, 0x00, 0x90, 0x3e, 0x7f,
  0x50, 0x80, 0x3e, 0x30, 0x10, 0x90, 0x3c, 0x7f, 0x48, 0x80, 0x3c, 0x30,
  0x18, 0x90, 0x3e, 0x7f, 0x20, 0x80, 0x1f, 0x30, 0x2c, 0x80, 0x3e, 0x30,
  0x14, 0x90, 0x3c, 0x7f, 0x44, 0x80, 0x3c, 0x30, 0x1c, 0x90, 0x3e, 0x7f,
  0x51, 0x80, 0x3e, 0x30, 0x10, 0x90, 0x4f, 0x7f, 0x47, 0x80, 0x4f, 0x30,
  0x19, 0x90, 0x40, 0x7f, 0x00, 0x90, 0x4a, 0x7f, 0x4f, 0x80, 0x4a, 0x30,
  0x10, 0x90, 0x43, 0x7f, 0x40, 0x80, 0x43, 0x30, 0x02, 0x80, 0x40, 0x30,
  0x1e, 0x90, 0x40, 0x7f, 0x00, 0x90, 0x48, 0x7f, 0x50, 0x80, 0x48, 0x30,
  0x10, 0x90, 0x43, 0x7f, 0x41, 0x80, 0x43, 0x30, 0x1f, 0x90, 0x48, 0x7f,
  0x5b, 0x80, 0x48, 0x30, 0x05, 0x90, 0x43, 0x7f, 0x49, 0x80, 0x43, 0x30,
  0x0d, 0x80, 0x40, 0x30, 0x0b, 0x90, 0x43, 0x7f, 0x00, 0x90, 0x48, 0x7f,
  0x51, 0x80, 0x48, 0x30, 0x0f, 0x90, 0x4a, 0x7f, 0x45, 0x80, 0x4a, 0x30,
  0x0e, 0x80, 0x43, 0x30, 0x0c, 0x90, 0x45, 0x7f, 0x00, 0x90, 0x4c, 0x7f,
  0x5a, 0x80, 0x4c, 0x30, 0x06, 0x90, 0x4f, 0x7f, 0x4b, 0x80, 0x4f, 0x30,
  0x15, 0x90, 0x58, 0x7f, 0x81, 0x1c, 0x80, 0x58, 0x30, 0x20, 0x80, 0x45,
  0x30, 0x04, 0x90, 0x5d, 0x7f, 0x00, 0x90, 0x45, 0x7f, 0x81, 0x1c, 0x80,
  0x5d, 0x30, 0x25, 0x90, 0x58, 0x7f, 0x1f, 0x80, 0x45, 0x30, 0x7d, 0x80,
  0x58, 0x30, 0x23, 0x90, 0x5d, 0x7f, 0x00, 0x90, 0x45, 0x7f, 0x81, 0x1c,
  0x80, 0x5d, 0x30, 0x1a, 0x80, 0x45, 0x30, 0x0a, 0x90, 0x58, 0x7f, 0x00,
  0x90, 0x45, 0x7f, 0x81, 0x1c, 0x80, 0x58, 0x30, 0x25, 0x90, 0x5d, 0x7f,
  0x81, 0x1c, 0x80, 0x5d, 0x30, 0x01, 0x80, 0x45, 0x30, 0x22, 0x90, 0x5b,
  0x7f, 0x00, 0x90, 0x47, 0x78, 0x81, 0x1c, 0x80, 0x5b, 0x30, 0x21, 0x80,
  0x47, 0x30, 0x03, 0x90, 0x59, 0x7f, 0x00, 0x90, 0x48, 0x72, 0x81, 0x1c,
  0x80, 0x59, 0x30, 0x24, 0x90, 0x54, 0x7f, 0x81, 0x1c, 0x80, 0x54, 0x30,
  0x08, 0x80, 0x48, 0x30, 0x1d, 0x90, 0x59, 0x7f, 0x00, 0x90, 0x48, 0x72,
  0x81, 0x1c, 0x80, 0x59, 0x30, 0x23, 0x90, 0x54, 0x7f, 0x3c, 0x80, 0x48,
  0x30, 0x60, 0x80, 0x54, 0x30, 0x24, 0x90, 0x59, 0x7f, 0x00, 0x90, 0x45,
  0x7f, 0x81, 0x1c, 0x80, 0x59, 0x30, 0x20, 0x80, 0x45, 0x30, 0x05, 0x90,
  0x54, 0x7f, 0x00, 0x90, 0x45, 0x7f, 0x81, 0x1c, 0x80, 0x54, 0x30, 0x23,
  0x90, 0x59, 0x7f, 0x81, 0x1c, 0x80, 0x59, 0x30, 0x14, 0x80, 0x45, 0x30,
  0x10, 0x90, 0x5b, 0x7f, 0x00, 0x90, 0x47, 0x78, 0x81, 0x1c, 0x80, 0x5b,
  0x30, 0x20, 0x80, 0x47, 0x30, 0x04, 0x90, 0x58, 0x7f, 0x00, 0x90, 0x48,
  0x72, 0x81, 0x1c, 0x80, 0x58, 0x30, 0x25, 0x90, 0x54, 0x7f, 0x81, 0x1c,
  0x80, 0x54, 0x30, 0x00, 0x80, 0x48, 0x30, 0x23, 0x90, 0x58, 0x7f, 0x00,
  0x90, 0x48, 0x72, 0x81, 0x1c, 0x80, 0x58, 0x30, 0x24, 0x90, 0x54, 0x7f,
  0x18, 0x80, 0x48, 0x30, 0x81, 0x04, 0x80, 0x54, 0x30, 0x25, 0x90, 0x58,
  0x7f, 0x00, 0x90, 0x48, 0x72, 0x81, 0x1c, 0x80, 0x58, 0x30, 0x1b, 0x80,
  0x48, 0x30, 0x08, 0x90, 0x54, 0x7f, 0x00, 0x90, 0x4a, 0x72, 0x81, 0x1c,
  0x80, 0x54, 0x30, 0x24, 0x90, 0x58, 0x7f, 0x81, 0x1c, 0x80, 0x58, 0x30,
  0x18, 0x80, 0x4a, 0x30, 0x0c, 0x90, 0x59, 0x7f, 0x00, 0x90, 0x48, 0x72,
  0x81, 0x1c, 0x80, 0x59, 0x30, 0x20, 0x80, 0x48, 0x30, 0x05, 0x90, 0x5b,
  0x7f, 0x00, 0x90, 0x48, 0x72, 0x81, 0x1c, 0x80, 0x5b, 0x30, 0x23, 0x90,
  0x56, 0x7f, 0x81, 0x1c, 0x80, 0x56, 0x30, 0x1a, 0x80, 0x48, 0x30, 0x0a,
  0x90, 0x5b, 0x7f, 0x00, 0x90, 0x47, 0x78, 0x81, 0x1c, 0x80, 0x5b, 0x30,
  0x25, 0x90, 0x56, 0x7f, 0x6b, 0x80, 0x47, 0x30, 0x31, 0x80, 0x56, 0x30,
  0x23, 0x90, 0x5b, 0x7f, 0x00, 0x90, 0x40, 0x7f, 0x81, 0x1c, 0x80, 0x5b,
  0x30, 0x21, 0x80, 0x40, 0x30, 0x03, 0x90, 0x56, 0x7f, 0x00, 0x90, 0x40,
  0x7f, 0x81, 0x1c, 0x80, 0x56, 0x30, 0x24, 0x90, 0x5b, 0x7f, 0x81, 0x1c,
  0x80, 0x5b, 0x30, 0x0e, 0x80, 0x40, 0x30, 0x17, 0x90, 0x58, 0x7f, 0x00,
  0x90, 0x43, 0x7f, 0x81, 0x1c, 0x80, 0x58, 0x30, 0x1f, 0x80, 0x43, 0x30,
  0x04, 0x90, 0x5d, 0x7f, 0x00, 0x90, 0x45, 0x7f, 0x81, 0x1c, 0x80, 0x5d,
  0x30, 0x24, 0x90, 0x58, 0x7f, 0x81, 0x1c, 0x80, 0x58, 0x30, 0x00, 0x80,
  0x45, 0x30, 0x25, 0x90, 0x5d, 0x7f, 0x00, 0x90, 0x45, 0x7f, 0x81, 0x1c,
  0x80, 0x5d, 0x30, 0x23, 0x90, 0x58, 0x7f, 0x19, 0x80, 0x45, 0x30, 0x81,
  0x03, 0x80, 0x58, 0x30, 0x24, 0x90, 0x5d, 0x7f, 0x00, 0x90, 0x45, 0x7f,
  0x81, 0x1c, 0x80, 0x5d, 0x30, 0x15, 0x80, 0x45, 0x30, 0x0f, 0x90, 0x58,
  0x7f, 0x00, 0x90, 0x45, 0x7f, 0x81, 0x1c, 0x80, 0x58, 0x30, 0x25, 0x90,
  0x5d, 0x7f, 0x81, 0x1c, 0x80, 0x5d, 0x30, 0x13, 0x80, 0x45, 0x30, 0x10,
  0x90, 0x5b, 0x7f, 0x00, 0x90, 0x47, 0x78, 0x81, 0x1c, 0x80, 0x5b, 0x30,
  0x21, 0x80, 0x47, 0x30, 0x03, 0x90, 0x59, 0x7f, 0x00, 0x90, 0x48, 0x72,
  0x81, 0x1c, 0x80, 0x59, 0x30, 0x25, 0x90, 0x54, 0x7f, 0x81, 0x1c, 0x80,
  0x54, 0x30, 0x13, 0x80, 0x48, 0x30, 0x10, 0x90, 0x59, 0x7f, 0x00, 0x90,
  0x48, 0x72, 0x81, 0x1c, 0x80, 0x59, 0x30, 0x24, 0x90, 0x54, 0x7f, 0x29,
  0x80, 0x48, 0x30, 0x73, 0x80, 0x54, 0x30, 0x24, 0x90, 0x59, 0x7f, 0x00,
  0x90, 0x45, 0x7f, 0x81, 0x1c, 0x80, 0x59, 0x30, 0x13, 0x80, 0x45, 0x30,
  0x12, 0x90, 0x54, 0x7f, 0x00, 0x90, 0x45, 0x7f, 0x81, 0x1c, 0x80, 0x54,
  0x30, 0x23, 0x90, 0x59, 0x7f, 0x81, 0x1c, 0x80, 0x59, 0x30, 0x08, 0x80,
  0x45, 0x30, 0x1c, 0x90, 0x5b, 0x7f, 0x00, 0x90, 0x47, 0x78, 0x81, 0x1c,
  0x80, 0x5b, 0x30, 0x20, 0x80, 0x47, 0x30, 0x05, 0x90, 0x58, 0x7f, 0x00,
  0x90, 0x48, 0x72, 0x81, 0x1c, 0x80, 0x58, 0x30, 0x23, 0x90, 0x54, 0x7f,
  0x81, 0x1c, 0x80, 0x54, 0x30, 0x14, 0x80, 0x48, 0x30, 0x10, 0x90, 0x58,
  0x7f, 0x00, 0x90, 0x48, 0x72, 0x81, 0x1c, 0x80, 0x58, 0x30, 0x24, 0x90,
  0x54, 0x7f, 0x28, 0x80, 0x48, 0x30, 0x74, 0x80, 0x54, 0x30, 0x25, 0x90,
  0x58, 0x7f, 0x00, 0x90, 0x48, 0x72, 0x81, 0x1c, 0x80, 0x58, 0x30, 0x11,
  0x80, 0x48, 0x30, 0x12, 0x90, 0x54, 0x7f, 0x00, 0x90, 0x4a, 0x72, 0x81,
  0x1c, 0x80, 0x54, 0x30, 0x24, 0x90, 0x58, 0x7f, 0x81, 0x1c, 0x80, 0x58,
  0x30, 0x15, 0x80, 0x4a, 0x30, 0x10, 0x90, 0x59, 0x7f, 0x00, 0x90, 0x48,
  0x72, 0x81, 0x1c, 0x80, 0x59, 0x30, 0x1f, 0x80, 0x48, 0x30, 0x04, 0x90,
  0x5b, 0x7f, 0x00, 0x90, 0x48, 0x72, 0x81, 0x1c, 0x80, 0x5b, 0x30, 0x24,
  0x90, 0x56, 0x7f, 0x81, 0x1c, 0x80, 0x56, 0x30, 0x1f, 0x80, 0x48, 0x30,
  0x05, 0x90, 0x5b, 0x7f, 0x00, 0x90, 0x47, 0x78, 0x81, 0x1c, 0x80, 0x5b,
  0x30, 0x25, 0x90, 0x56, 0x7f, 0x37, 0x80, 0x47, 0x30, 0x65, 0x80, 0x56,
  0x30, 0x23, 0x90, 0x5b, 0x7f, 0x00, 0x90, 0x47, 0x78, 0x81, 0x1c, 0x80,
  0x5b, 0x30, 0x0c, 0x80, 0x47, 0x30, 0x18, 0x90, 0x56, 0x7f, 0x00, 0x90,
  0x47, 0x78, 0x81, 0x1c, 0x80, 0x56, 0x30, 0x20, 0x80, 0x47, 0x30, 0x05,
  0x90, 0x5b, 0x7f, 0x00, 0x90, 0x45, 0x7f, 0x81, 0x1c, 0x80, 0x5b, 0x30,
  0x13, 0x80, 0x45, 0x30, 0x10, 0x90, 0x58, 0x7f, 0x00, 0x90, 0x43, 0x7f,
  0x81, 0x1c, 0x80, 0x58, 0x30, 0x21, 0x80, 0x43, 0x30, 0x03, 0x90, 0x5d,
  0x7f, 0x00, 0x90, 0x45, 0x7f, 0x81, 0x1c, 0x80, 0x5d, 0x30, 0x24, 0x90,
  0x58, 0x7f, 0x81, 0x1c, 0x80, 0x58, 0x30, 0x25, 0x90, 0x5d, 0x7f, 0x81,
  0x1c, 0x80, 0x5d, 0x30, 0x23, 0x90, 0x58, 0x7f, 0x81, 0x1c, 0x80, 0x58,
  0x30, 0x24, 0x90, 0x5d, 0x7f, 0x81, 0x1c, 0x80, 0x5d, 0x30, 0x25, 0x90,
  0x58, 0x7f, 0x81, 0x1c, 0x80, 0x58, 0x30, 0x23, 0x90, 0x5d, 0x7f, 0x81,
  0x1c, 0x80, 0x5d, 0x30, 0x24, 0x90, 0x5b, 0x7f, 0x81, 0x1c, 0x80, 0x5b,
  0x30, 0x24, 0x90, 0x59, 0x7f, 0x38, 0x80, 0x45, 0x30, 0x64, 0x80, 0x59,
  0x30, 0x25, 0x90, 0x54, 0x7f, 0x81, 0x1c, 0x80, 0x54, 0x30, 0x23, 0x90,
  0x59, 0x7f, 0x81, 0x1c, 0x80, 0x59, 0x30, 0x24, 0x90, 0x54, 0x7f, 0x81,
  0x1c, 0x80, 0x54, 0x30, 0x25, 0x90, 0x59, 0x7f, 0x81, 0x1c, 0x80, 0x59,
  0x30, 0x23, 0x90, 0x54, 0x7f, 0x81, 0x1c, 0x80, 0x54, 0x30, 0x24, 0x90,
  0x59, 0x7f, 0x81, 0x1c, 0x80, 0x59, 0x30, 0x24, 0x90, 0x5b, 0x7f, 0x81,
  0x1c, 0x80, 0x5b, 0x30, 0x25, 0x90, 0x58, 0x7f, 0x81, 0x1c, 0x80, 0x58,
  0x30, 0x23, 0x90, 0x54, 0x7f, 0x81, 0x1c, 0x80, 0x54, 0x30, 0x24, 0x90,
  0x58, 0x7f, 0x00, 0x90, 0x48, 0x71, 0x81, 0x1c, 0x80, 0x58, 0x30, 0x25,
  0x90, 0x54, 0x7f, 0x81, 0x1c, 0x80, 0x54, 0x30, 0x03, 0x80, 0x48, 0x30,
  0x20, 0x90, 0x58, 0x7f, 0x00, 0x90, 0x48, 0x71, 0x81, 0x1c, 0x80, 0x58,
  0x30, 0x24, 0x90, 0x54, 0x7f, 0x81, 0x1c, 0x80, 0x54, 0x30, 0x0a, 0x80,
  0x48, 0x30, 0x1a, 0x90, 0x58, 0x7f, 0x00, 0x90, 0x48, 0x71, 0x81, 0x1c,
  0x80, 0x58, 0x30, 0x0b, 0x80, 0x48, 0x30, 0x1a, 0x90, 0x59, 0x7f, 0x00,
  0x90, 0x48, 0x71, 0x81, 0x1c, 0x80, 0x59, 0x30, 0x11, 0x80, 0x48, 0x30,
  0x12, 0x90, 0x5b, 0x7f, 0x00, 0x90, 0x48, 0x71, 0x81, 0x1c, 0x80, 0x5b,
  0x30, 0x24, 0x90, 0x56, 0x7f, 0x81, 0x1c, 0x80, 0x56, 0x30, 0x0d, 0x80,
  0x48, 0x30, 0x18, 0x90, 0x5b, 0x7f, 0x00, 0x90, 0x47, 0x78, 0x81, 0x1c,
  0x80, 0x5b, 0x30, 0x23, 0x90, 0x56, 0x7f, 0x76, 0x80, 0x47, 0x30, 0x26,
  0x80, 0x56, 0x30, 0x24, 0x90, 0x5b, 0x7f, 0x00, 0x90, 0x47, 0x78, 0x81,
  0x1c, 0x80, 0x5b, 0x30, 0x0d, 0x80, 0x47, 0x30, 0x17, 0x90, 0x56, 0x7f,
  0x00, 0x90, 0x47, 0x78, 0x81, 0x1c, 0x80, 0x56, 0x30, 0x20, 0x80, 0x47,
  0x30, 0x05, 0x90, 0x5b, 0x7f, 0x00, 0x90, 0x45, 0x7f, 0x81, 0x1c, 0x80,
  0x5b, 0x30, 0x13, 0x80, 0x45, 0x30, 0x10, 0x90, 0x58, 0x7f, 0x00, 0x90,
  0x43, 0x7f, 0x81, 0x1c, 0x80, 0x58, 0x30, 0x21, 0x80, 0x43, 0x30, 0x03,
  0x90, 0x5d, 0x7f, 0x00, 0x90, 0x45, 0x7f, 0x81, 0x1c, 0x80, 0x5d, 0x30,
  0x25, 0x90, 0x58, 0x7f, 0x81, 0x1c, 0x80, 0x58, 0x30, 0x23, 0x90, 0x5d,
  0x7f, 0x81, 0x1c, 0x80, 0x5d, 0x30, 0x24, 0x90, 0x58, 0x7f, 0x81, 0x1c,
  0x80, 0x58, 0x30, 0x24, 0x90, 0x5d, 0x7f, 0x81, 0x1c, 0x80, 0x5d, 0x30,
  0x25, 0x90, 0x58, 0x7f, 0x81, 0x1c, 0x80, 0x58, 0x30, 0x23, 0x90, 0x5d,
  0x7f, 0x81, 0x1c, 0x80, 0x5d, 0x30, 0x24, 0x90, 0x5b, 0x7f, 0x81, 0x1c,
  0x80, 0x5b, 0x30, 0x25, 0x90, 0x59, 0x7f, 0x37, 0x80, 0x45, 0x30, 0x65,
  0x80, 0x59, 0x30, 0x23, 0x90, 0x54, 0x7f, 0x81, 0x1c, 0x80, 0x54, 0x30,
  0x24, 0x90, 0x59, 0x7f, 0x81, 0x1c, 0x80, 0x59, 0x30, 0x24, 0x90, 0x54,
  0x7f, 0x81, 0x1c, 0x80, 0x54, 0x30, 0x25, 0x90, 0x59, 0x7f, 0x81, 0x1c,
  0x80, 0x59, 0x30, 0x23, 0x90, 0x54, 0x7f, 0x81, 0x1c, 0x80, 0x54, 0x30,
  0x24, 0x90, 0x59, 0x7f, 0x81, 0x1c, 0x80, 0x59, 0x30, 0x25, 0x90, 0x5b,
  0x7f, 0x81, 0x1c, 0x80, 0x5b, 0x30, 0x23, 0x90, 0x58, 0x7f, 0x81, 0x1c,
  0x80, 0x58, 0x30, 0x24, 0x90, 0x54, 0x7f, 0x81, 0x1c, 0x80, 0x54, 0x30,
  0x24, 0x90, 0x58, 0x7f, 0x00, 0x90, 0x48, 0x72, 0x81, 0x1c, 0x80, 0x58,
  0x30, 0x25, 0x90, 0x54, 0x7f, 0x81, 0x15, 0x80, 0x48, 0x30, 0x07, 0x80,
  0x54, 0x30, 0x23, 0x90, 0x58, 0x7f, 0x00, 0x90, 0x48, 0x72, 0x81, 0x1c,
  0x80, 0x58, 0x30, 0x24, 0x90, 0x54, 0x7f, 0x81, 0x1c, 0x80, 0x54, 0x30,
  0x0d, 0x80, 0x48, 0x30, 0x18, 0x90, 0x58, 0x7f, 0x00, 0x90, 0x48, 0x72,
  0x81, 0x1c, 0x80, 0x58, 0x30, 0x23, 0x90, 0x59, 0x7f, 0x81, 0x1c, 0x80,
  0x59, 0x30, 0x07, 0x80, 0x48, 0x30, 0x1d, 0x90, 0x5b, 0x7f, 0x00, 0x90,
  0x48, 0x72, 0x81, 0x1c, 0x80, 0x5b, 0x30, 0x81, 0x60, 0x80, 0x48, 0x30,
  0x05, 0x90, 0x47, 0x78, 0x83, 0x0f, 0x80, 0x47, 0x30, 0x87, 0x31, 0x90,
  0x21, 0x7f, 0x81, 0x0f, 0x80, 0x21, 0x30, 0x30, 0x90, 0x2d, 0x71, 0x34,
  0x80, 0x2d, 0x30, 0x2c, 0x90, 0x2d, 0x64, 0x54, 0x80, 0x2d, 0x30, 0x0c,
  0x90, 0x21, 0x7f, 0x81, 0x10, 0x80, 0x21, 0x30, 0x31, 0x90, 0x2d, 0x71,
  0x34, 0x80, 0x2d, 0x30, 0x2c, 0x90, 0x2d, 0x6b, 0x59, 0x80, 0x2d, 0x30,
  0x06, 0x90, 0x21, 0x7f, 0x81, 0x11, 0x80, 0x21, 0x30, 0x2f, 0x90, 0x2d,
  0x71, 0x34, 0x80, 0x2d, 0x30, 0x2c, 0x90, 0x2d, 0x64, 0x54, 0x80, 0x2d,
  0x30, 0x0c, 0x90, 0x21, 0x7f, 0x81, 0x10, 0x80, 0x21, 0x30, 0x31, 0x90,
  0x2d, 0x71, 0x34, 0x80, 0x2d, 0x30, 0x2b, 0x90, 0x2d, 0x6b, 0x5a, 0x80,
  0x2d, 0x30, 0x06, 0x90, 0x1d, 0x7f, 0x81, 0x11, 0x80, 0x1d, 0x30, 0x2f,
  0x90, 0x29, 0x71, 0x34, 0x80, 0x29, 0x30, 0x2c, 0x90, 0x29, 0x64, 0x54,
  0x80, 0x29, 0x30, 0x0d, 0x90, 0x1d, 0x7f, 0x81, 0x0f, 0x80, 0x1d, 0x30,
  0x30, 0x90, 0x29, 0x71, 0x34, 0x80, 0x29, 0x30, 0x2c, 0x90, 0x29, 0x6b,
  0x5a, 0x80, 0x29, 0x30, 0x06, 0x90, 0x1d, 0x7f, 0x81, 0x10, 0x80, 0x1d,
  0x30, 0x30, 0x90, 0x29, 0x71, 0x34, 0x80, 0x29, 0x30, 0x2d, 0x90, 0x29,
  0x64, 0x53, 0x80, 0x29, 0x30, 0x0d, 0x90, 0x1d, 0x7f, 0x81, 0x0f, 0x80,
  0x1d, 0x30, 0x30, 0x90, 0x29, 0x71, 0x34, 0x80, 0x29, 0x30, 0x2c, 0x90,
  0x29, 0x6b, 0x5b, 0x80, 0x29, 0x30, 0x05, 0x90, 0x24, 0x7f, 0x81, 0x10,
  0x80, 0x24, 0x30, 0x31, 0x90, 0x30, 0x71, 0x34, 0x80, 0x30, 0x30, 0x2c,
  0x90, 0x30, 0x64, 0x53, 0x80, 0x30, 0x30, 0x0c, 0x90, 0x24, 0x7f, 0x81,
  0x11, 0x80, 0x24, 0x30, 0x2f, 0x90, 0x30, 0x71, 0x34, 0x80, 0x30, 0x30,
  0x2c, 0x90, 0x30, 0x6b, 0x5b, 0x80, 0x30, 0x30, 0x05, 0x90, 0x24, 0x7f,
  0x81, 0x10, 0x80, 0x24, 0x30, 0x31, 0x90, 0x30, 0x71, 0x34, 0x80, 0x30,
  0x30, 0x2b, 0x90, 0x30, 0x64, 0x55, 0x80, 0x30, 0x30, 0x0b, 0x90, 0x24,
  0x7f, 0x81, 0x11, 0x80, 0x24, 0x30, 0x2f, 0x90, 0x30, 0x71, 0x34, 0x80,
  0x30, 0x30, 0x2c, 0x90, 0x30, 0x6b, 0x5a, 0x80, 0x30, 0x30, 0x07, 0x90,
  0x1f, 0x7f, 0x81, 0x0f, 0x80, 0x1f, 0x30, 0x30, 0x90, 0x2b, 0x71, 0x34,
  0x80, 0x2b, 0x30, 0x2c, 0x90, 0x2b, 0x64, 0x55, 0x80, 0x2b, 0x30, 0x0b,
  0x90, 0x1f, 0x7f, 0x81, 0x10, 0x80, 0x1f, 0x30, 0x30, 0x90, 0x2b, 0x71,
  0x34, 0x80, 0x2b, 0x30, 0x2d, 0x90, 0x2b, 0x6b, 0x59, 0x80, 0x2b, 0x30,
  0x07, 0x90, 0x1f, 0x7f, 0x81, 0x0f, 0x80, 0x1f, 0x30, 0x30, 0x90, 0x2b,
  0x71, 0x34, 0x80, 0x2b, 0x30, 0x2c, 0x90, 0x2b, 0x64, 0x54, 0x80, 0x2b,
  0x30, 0x0c, 0x90, 0x1f, 0x7f, 0x81, 0x10, 0x80, 0x1f, 0x30, 0x31, 0x90,
  0x2b, 0x71, 0x34, 0x80, 0x2b, 0x30, 0x2c, 0x90, 0x2b, 0x6b, 0x59, 0x80,
  0x2b, 0x30, 0x06, 0x90, 0x21, 0x7f, 0x81, 0x11, 0x80, 0x21, 0x30, 0x2f,
  0x90, 0x2d, 0x71, 0x34, 0x80, 0x2d, 0x30, 0x2c, 0x90, 0x2d, 0x64, 0x54,
  0x80, 0x2d, 0x30, 0x0c, 0x90, 0x21, 0x7f, 0x81, 0x10, 0x80, 0x21, 0x30,
  0x31, 0x90, 0x2d, 0x71, 0x34, 0x80, 0x2d, 0x30, 0x2b, 0x90, 0x2d, 0x6b,
  0x5a, 0x80, 0x2d, 0x30, 0x06, 0x90, 0x21, 0x7f, 0x81, 0x11, 0x80, 0x21,
  0x30, 0x2f, 0x90, 0x2d, 0x71, 0x34, 0x80, 0x2d, 0x30, 0x2c, 0x90, 0x2d,
  0x64, 0x54, 0x80, 0x2d, 0x30, 0x0d, 0x90, 0x21, 0x7f, 0x81, 0x0f, 0x80,
  0x21, 0x30, 0x30, 0x90, 0x2d, 0x71, 0x34, 0x80, 0x2d, 0x30, 0x2c, 0x90,
  0x2d, 0x6b, 0x5a, 0x80, 0x2d, 0x30, 0x06, 0x90, 0x1d, 0x7f, 0x81, 0x10,
  0x80, 0x1d, 0x30, 0x30, 0x90, 0x29, 0x71, 0x34, 0x80, 0x29, 0x30, 0x2d,
  0x90, 0x29, 0x64, 0x53, 0x80, 0x29, 0x30, 0x0d, 0x90, 0x1d, 0x7f, 0x81,
  0x0f, 0x80, 0x1d, 0x30, 0x30, 0x90, 0x29, 0x71, 0x34, 0x80, 0x29, 0x30,
  0x2c, 0x90, 0x29, 0x6b, 0x5b, 0x80, 0x29, 0x30, 0x05, 0x90, 0x1d, 0x7f,
  0x81, 0x10, 0x80, 0x1d, 0x30, 0x31, 0x90, 0x29, 0x71, 0x34, 0x80, 0x29,
  0x30, 0x2c, 0x90, 0x29, 0x64, 0x53, 0x80, 0x29, 0x30, 0x0c, 0x90, 0x1d,
  0x7f, 0x81, 0x11, 0x80, 0x1d, 0x30, 0x2f, 0x90, 0x29, 0x71, 0x34, 0x80,
  0x29, 0x30, 0x2c, 0x90, 0x29, 0x6b, 0x5b, 0x80, 0x29, 0x30, 0x05, 0x90,
  0x24, 0x7f, 0x81, 0x10, 0x80, 0x24, 0x30, 0x31, 0x90, 0x30, 0x71, 0x34,
  0x80, 0x30, 0x30, 0x2b, 0x90, 0x30, 0x64, 0x55, 0x80, 0x30, 0x30, 0x0b,
  0x90, 0x24, 0x7f, 0x81, 0x11, 0x80, 0x24, 0x30, 0x2f, 0x90, 0x30, 0x71,
  0x34, 0x80, 0x30, 0x30, 0x2c, 0x90, 0x30, 0x6b, 0x5a, 0x80, 0x30, 0x30,
  0x07, 0x90, 0x24, 0x7f, 0x81, 0x0f, 0x80, 0x24, 0x30, 0x30, 0x90, 0x30,
  0x71, 0x34, 0x80, 0x30, 0x30, 0x2c, 0x90, 0x30, 0x64, 0x55, 0x80, 0x30,
  0x30, 0x0b, 0x90, 0x24, 0x7f, 0x81, 0x10, 0x80, 0x24, 0x30, 0x30, 0x90,
  0x30, 0x71, 0x34, 0x80, 0x30, 0x30, 0x2d, 0x90, 0x30, 0x6b, 0x59, 0x80,
  0x30, 0x30, 0x07, 0x90, 0x1f, 0x7f, 0x81, 0x0f, 0x80, 0x1f, 0x30, 0x30,
  0x90, 0x2b, 0x71, 0x34, 0x80, 0x2b, 0x30, 0x2c, 0x90, 0x2b, 0x64, 0x54,
  0x80, 0x2b, 0x30, 0x0c, 0x90, 0x1f, 0x7f, 0x81, 0x10, 0x80, 0x1f, 0x30,
  0x31, 0x90, 0x2b, 0x71, 0x34, 0x80, 0x2b, 0x30, 0x2c, 0x90, 0x2b, 0x6b,
  0x59, 0x80, 0x2b, 0x30, 0x06, 0x90, 0x1f, 0x7f, 0x81, 0x11, 0x80, 0x1f,
  0x30, 0x2f, 0x90, 0x2b, 0x71, 0x34, 0x80, 0x2b, 0x30, 0x2c, 0x90, 0x2b,
  0x64, 0x54, 0x80, 0x2b, 0x30, 0x0c, 0x90, 0x1f, 0x7f, 0x81, 0x10, 0x80,
  0x1f, 0x30, 0x31, 0x90, 0x2b, 0x71, 0x34, 0x80, 0x2b, 0x30, 0x2b, 0x90,
  0x2b, 0x6b, 0x5a, 0x80, 0x2b, 0x30, 0x06, 0x90, 0x21, 0x7f, 0x00, 0x90,
  0x3c, 0x7f, 0x81, 0x11, 0x80, 0x21, 0x30, 0x2f, 0x90, 0x2d, 0x71, 0x34,
  0x80, 0x2d, 0x30, 0x2c, 0x90, 0x2d, 0x64, 0x1d, 0x80, 0x3c, 0x30, 0x37,
  0x80, 0x2d, 0x30, 0x0d, 0x90, 0x21, 0x7f, 0x60, 0x90, 0x39, 0x7f, 0x2f,
  0x80, 0x21, 0x30, 0x0a, 0x80, 0x39, 0x30, 0x26, 0x90, 0x2d, 0x71, 0x00,
  0x90, 0x39, 0x7f, 0x34, 0x80, 0x2d, 0x30, 0x12, 0x80, 0x39, 0x30, 0x1a,
  0x90, 0x2d, 0x6b, 0x00, 0x90, 0x39, 0x7f, 0x3c, 0x80, 0x39, 0x30, 0x1e,
  0x80, 0x2d, 0x30, 0x06, 0x90, 0x21, 0x7f, 0x00, 0x90, 0x39, 0x7f, 0x75,
  0x80, 0x39, 0x30, 0x1b, 0x80, 0x21, 0x30, 0x30, 0x90, 0x2d, 0x71, 0x00,
  0x90, 0x39, 0x7f, 0x34, 0x80, 0x2d, 0x30, 0x2d, 0x90, 0x2d, 0x64, 0x39,
  0x80, 0x39, 0x30, 0x1a, 0x80, 0x2d, 0x30, 0x0d, 0x90, 0x21, 0x7f, 0x00,
  0x90, 0x3c, 0x7f, 0x81, 0x0f, 0x80, 0x21, 0x30, 0x30, 0x90, 0x2d, 0x71,
  0x34, 0x80, 0x2d, 0x30, 0x04, 0x80, 0x3c, 0x30, 0x28, 0x90, 0x2d, 0x6b,
  0x00, 0x90, 0x39, 0x7f, 0x29, 0x80, 0x39, 0x30, 0x32, 0x80, 0x2d, 0x30,
  0x05, 0x90, 0x1d, 0x7f, 0x00, 0x90, 0x39, 0x7f, 0x3c, 0x80, 0x39, 0x30,
  0x24, 0x90, 0x39, 0x7f, 0x30, 0x80, 0x1d, 0x30, 0x31, 0x90, 0x29, 0x71,
  0x2c, 0x80, 0x39, 0x30, 0x08, 0x80, 0x29, 0x30, 0x2c, 0x90, 0x29, 0x64,
  0x00, 0x90, 0x3c, 0x7f, 0x53, 0x80, 0x29, 0x30, 0x0c, 0x90, 0x1d, 0x7f,
  0x81, 0x11, 0x80, 0x1d, 0x30, 0x17, 0x80, 0x3c, 0x30, 0x18, 0x90, 0x29,
  0x71, 0x00, 0x90, 0x39, 0x7f, 0x34, 0x80, 0x29, 0x30, 0x2c, 0x90, 0x29,
  0x6b, 0x2a, 0x80, 0x39, 0x30, 0x31, 0x80, 0x29, 0x30, 0x05, 0x90, 0x1d,
  0x7f, 0x00, 0x90, 0x39, 0x7f, 0x81, 0x10, 0x80, 0x1d, 0x30, 0x20, 0x80,
  0x39, 0x30, 0x11, 0x90, 0x29, 0x71, 0x00, 0x90, 0x39, 0x7f, 0x34, 0x80,
  0x29, 0x30, 0x2b, 0x90, 0x29, 0x64, 0x2c, 0x80, 0x39, 0x30, 0x29, 0x80,
  0x29, 0x30, 0x0b, 0x90, 0x1d, 0x7f, 0x00, 0x90, 0x39, 0x7f, 0x81, 0x11,
  0x80, 0x1d, 0x30, 0x2f, 0x90, 0x29, 0x71, 0x15, 0x80, 0x39, 0x30, 0x1f,
  0x80, 0x29, 0x30, 0x2c, 0x90, 0x29, 0x6b, 0x00, 0x90, 0x39, 0x7f, 0x28,
  0x80, 0x39, 0x30, 0x32, 0x80, 0x29, 0x30, 0x07, 0x90, 0x21, 0x7f, 0x00,
  0x90, 0x39, 0x7f, 0x39, 0x80, 0x39, 0x30, 0x27, 0x90, 0x39, 0x7f, 0x2f,
  0x80, 0x21, 0x30, 0x30, 0x90, 0x2d, 0x71, 0x28, 0x80, 0x39, 0x30, 0x0c,
  0x80, 0x2d, 0x30, 0x2c, 0x90, 0x2d, 0x64, 0x00, 0x90, 0x3c, 0x7f, 0x55,
  0x80, 0x2d, 0x30, 0x0b, 0x90, 0x21, 0x7f, 0x5d, 0x80, 0x3c, 0x30, 0x03,
  0x90, 0x39, 0x7f, 0x30, 0x80, 0x21, 0x30, 0x30, 0x90, 0x2d, 0x71, 0x16,
  0x80, 0x39, 0x30, 0x1e, 0x80, 0x2d, 0x30, 0x2d, 0x90, 0x2d, 0x6b, 0x00,
  0x90, 0x39, 0x7f, 0x39, 0x80, 0x39, 0x30, 0x20, 0x80, 0x2d, 0x30, 0x07,
  0x90, 0x21, 0x7f, 0x00, 0x90, 0x39, 0x7f, 0x44, 0x80, 0x39, 0x30, 0x1b,
  0x90, 0x39, 0x7f, 0x30, 0x80, 0x21, 0x30, 0x30, 0x90, 0x2d, 0x71, 0x22,
  0x80, 0x39, 0x30, 0x12, 0x80, 0x2d, 0x30, 0x2c, 0x90, 0x2d, 0x64, 0x00,
  0x90, 0x39, 0x7f, 0x44, 0x80, 0x39, 0x30, 0x10, 0x80, 0x2d, 0x30, 0x0c,
  0x90, 0x21, 0x7f, 0x00, 0x90, 0x39, 0x7f, 0x81, 0x10, 0x80, 0x21, 0x30,
  0x2c, 0x80, 0x39, 0x30, 0x05, 0x90, 0x2d, 0x71, 0x00, 0x90, 0x39, 0x7f,
  0x34, 0x80, 0x2d, 0x30, 0x00, 0x80, 0x39, 0x30, 0x2c, 0x90, 0x2d, 0x6b,
  0x00, 0x90, 0x39, 0x7f, 0x2a, 0x80, 0x39, 0x30, 0x2f, 0x80, 0x2d, 0x30,
  0x06, 0x90, 0x1d, 0x7f, 0x00, 0x90, 0x39, 0x7f, 0x81, 0x0a, 0x80, 0x39,
  0x30, 0x07, 0x80, 0x1d, 0x30, 0x2f, 0x90, 0x29, 0x71, 0x00, 0x90, 0x39,
  0x7f, 0x34, 0x80, 0x29, 0x30, 0x05, 0x80, 0x39, 0x30, 0x27, 0x90, 0x29,
  0x64, 0x00, 0x90, 0x39, 0x7f, 0x3a, 0x80, 0x39, 0x30, 0x1a, 0x80, 0x29,
  0x30, 0x0c, 0x90, 0x1d, 0x7f, 0x00, 0x90, 0x3c, 0x7f, 0x81, 0x10, 0x80,
  0x1d, 0x30, 0x06, 0x80, 0x3c, 0x30, 0x2b, 0x90, 0x29, 0x71, 0x00, 0x90,
  0x39, 0x7f, 0x34, 0x80, 0x29, 0x30, 0x09, 0x80, 0x39, 0x30, 0x22, 0x90,
  0x29, 0x6b, 0x00, 0x90, 0x39, 0x7f, 0x5a, 0x80, 0x29, 0x30, 0x06, 0x90,
  0x1d, 0x7f, 0x1c, 0x80, 0x39, 0x30, 0x44, 0x90, 0x39, 0x7f, 0x31, 0x80,
  0x1d, 0x30, 0x2f, 0x90, 0x29, 0x71, 0x2c, 0x80, 0x39, 0x30, 0x08, 0x80,
  0x29, 0x30, 0x2c, 0x90, 0x29, 0x64, 0x00, 0x90, 0x39, 0x7f, 0x38, 0x80,
  0x39, 0x30, 0x1c, 0x80, 0x29, 0x30, 0x0d, 0x90, 0x1d, 0x7f, 0x00, 0x90,
  0x39, 0x7f, 0x81, 0x0f, 0x80, 0x1d, 0x30, 0x30, 0x90, 0x29, 0x71, 0x1c,
  0x80, 0x39, 0x30, 0x18, 0x80, 0x29, 0x30, 0x2c, 0x90, 0x29, 0x6b, 0x00,
  0x90, 0x34, 0x7f, 0x36, 0x80, 0x34, 0x30, 0x24, 0x80, 0x29, 0x30, 0x06,
  0x90, 0x21, 0x7f, 0x00, 0x90, 0x34, 0x7f, 0x39, 0x80, 0x34, 0x30, 0x27,
  0x90, 0x34, 0x7f, 0x30, 0x80, 0x21, 0x30, 0x04, 0x80, 0x34, 0x30, 0x2c,
  0x90, 0x2d, 0x71, 0x00, 0x90, 0x34, 0x7f, 0x34, 0x80, 0x2d, 0x30, 0x04,
  0x80, 0x34, 0x30, 0x29, 0x90, 0x2d, 0x64, 0x00, 0x90, 0x34, 0x7f, 0x3b,
  0x80, 0x34, 0x30, 0x18, 0x80, 0x2d, 0x30, 0x0d, 0x90, 0x21, 0x7f, 0x00,
  0x90, 0x37, 0x7f, 0x81, 0x0f, 0x80, 0x21, 0x30, 0x08, 0x80, 0x37, 0x30,
  0x28, 0x90, 0x2d, 0x71, 0x00, 0x90, 0x39, 0x7f, 0x34, 0x80, 0x2d, 0x30,
  0x2c, 0x90, 0x2d, 0x6b, 0x29, 0x80, 0x39, 0x30, 0x32, 0x80, 0x2d, 0x30,
  0x05, 0x90, 0x21, 0x7f, 0x00, 0x90, 0x3c, 0x7f, 0x81, 0x10, 0x80, 0x21,
  0x30, 0x21, 0x80, 0x3c, 0x30, 0x10, 0x90, 0x2d, 0x71, 0x00, 0x90, 0x39,
  0x7f, 0x34, 0x80, 0x2d, 0x30, 0x03, 0x80, 0x39, 0x30, 0x29, 0x90, 0x2d,
  0x64, 0x00, 0x90, 0x39, 0x7f, 0x53, 0x80, 0x2d, 0x30, 0x0c, 0x90, 0x21,
  0x7f, 0x6a, 0x80, 0x39, 0x30, 0x27, 0x80, 0x21, 0x30, 0x2f, 0x90, 0x2d,
  0x71, 0x34, 0x80, 0x2d, 0x30, 0x2c, 0x90, 0x2d, 0x6b, 0x5b, 0x80, 0x2d,
  0x30, 0x05, 0x90, 0x1d, 0x7f, 0x00, 0x90, 0x39, 0x7f, 0x70, 0x80, 0x39,
  0x30, 0x20, 0x80, 0x1d, 0x30, 0x31, 0x90, 0x29, 0x71, 0x00, 0x90, 0x39,
  0x7f, 0x34, 0x80, 0x29, 0x30, 0x09, 0x80, 0x39, 0x30, 0x22, 0x90, 0x29,
  0x64, 0x00, 0x90, 0x39, 0x7f, 0x38, 0x80, 0x39, 0x30, 0x1d, 0x80, 0x29,
  0x30, 0x0b, 0x90, 0x1d, 0x7f, 0x00, 0x90, 0x3c, 0x7f, 0x81, 0x11, 0x80,
  0x1d, 0x30, 0x1d, 0x80, 0x3c, 0x30, 0x12, 0x90, 0x29, 0x71, 0x00, 0x90,
  0x39, 0x7f, 0x34, 0x80, 0x29, 0x30, 0x2c, 0x90, 0x29, 0x6b, 0x10, 0x80,
  0x39, 0x30, 0x4a, 0x80, 0x29, 0x30, 0x07, 0x90, 0x1d, 0x7f, 0x00, 0x90,
  0x39, 0x7f, 0x3b, 0x80, 0x39, 0x30, 0x25, 0x90, 0x39, 0x7f, 0x2f, 0x80,
  0x1d, 0x30, 0x0a, 0x80, 0x39, 0x30, 0x26, 0x90, 0x29, 0x71, 0x00, 0x90,
  0x39, 0x7f, 0x34, 0x80, 0x29, 0x30, 0x0c, 0x80, 0x39, 0x30, 0x20, 0x90,
  0x29, 0x64, 0x00, 0x90, 0x39, 0x7f, 0x55, 0x80, 0x29, 0x30, 0x0b, 0x90,
  0x1d, 0x7f, 0x81, 0x10, 0x80, 0x1d, 0x30, 0x2c, 0x80, 0x39, 0x30, 0x04,
  0x90, 0x29, 0x71, 0x00, 0x90, 0x39, 0x7f, 0x30, 0x80, 0x39, 0x30, 0x04,
  0x80, 0x29, 0x30, 0x2d, 0x90, 0x29, 0x6b, 0x00, 0x90, 0x39, 0x7f, 0x43,
  0x80, 0x39, 0x30, 0x16, 0x80, 0x29, 0x30, 0x07, 0x90, 0x21, 0x7f, 0x00,
  0x90, 0x37, 0x7f, 0x81, 0x0f, 0x80, 0x21, 0x30, 0x20, 0x80, 0x37, 0x30,
  0x10, 0x90, 0x2d, 0x71, 0x00, 0x90, 0x39, 0x7f, 0x34, 0x80, 0x2d, 0x30,
  0x10, 0x80, 0x39, 0x30, 0x1c, 0x90, 0x2d, 0x64, 0x00, 0x90, 0x39, 0x7f,
  0x54, 0x80, 0x2d, 0x30, 0x0c, 0x90, 0x21, 0x7f, 0x81, 0x08, 0x80, 0x39,
  0x30, 0x08, 0x80, 0x21, 0x30, 0x31, 0x90, 0x2d, 0x71, 0x00, 0x90, 0x39,
  0x7f, 0x34, 0x80, 0x2d, 0x30, 0x2c, 0x90, 0x2d, 0x6b, 0x37, 0x80, 0x39,
  0x30, 0x22, 0x80, 0x2d, 0x30, 0x06, 0x90, 0x21, 0x7f, 0x00, 0x90, 0x3c,
  0x7f, 0x81, 0x11, 0x80, 0x21, 0x30, 0x0b, 0x80, 0x3c, 0x30, 0x24, 0x90,
  0x2d, 0x71, 0x00, 0x90, 0x39, 0x7f, 0x34, 0x80, 0x2d, 0x30, 0x0f, 0x80,
  0x39, 0x30, 0x1d, 0x90, 0x2d, 0x64, 0x00, 0x90, 0x39, 0x7f, 0x54, 0x80,
  0x2d, 0x30, 0x0c, 0x90, 0x21, 0x7f, 0x81, 0x10, 0x80, 0x21, 0x30, 0x10,
  0x80, 0x39, 0x30, 0x21, 0x90, 0x2d, 0x71, 0x34, 0x80, 0x2d, 0x30, 0x2b,
  0x90, 0x2d, 0x6b, 0x5a, 0x80, 0x2d, 0x30, 0x06, 0x90, 0x1d, 0x7f, 0x00,
  0x90, 0x39, 0x7f, 0x81, 0x11, 0x80, 0x1d, 0x30, 0x09, 0x80, 0x39, 0x30,
  0x26, 0x90, 0x29, 0x71, 0x00, 0x90, 0x39, 0x7f, 0x34, 0x80, 0x29, 0x30,
  0x2c, 0x90, 0x29, 0x64, 0x46, 0x80, 0x39, 0x30, 0x0e, 0x80, 0x29, 0x30,
  0x0d, 0x90, 0x1d, 0x7f, 0x00, 0x90, 0x39, 0x7f, 0x81, 0x0f, 0x80, 0x1d,
  0x30, 0x12, 0x80, 0x39, 0x30, 0x1e, 0x90, 0x29, 0x71, 0x00, 0x90, 0x39,
  0x7f, 0x34, 0x80, 0x29, 0x30, 0x2c, 0x90, 0x29, 0x6b, 0x58, 0x80, 0x39,
  0x30, 0x02, 0x80, 0x29, 0x30, 0x06, 0x90, 0x1d, 0x7f, 0x00, 0x90, 0x39,
  0x7f, 0x81, 0x10, 0x80, 0x1d, 0x30, 0x0e, 0x80, 0x39, 0x30, 0x22, 0x90,
  0x29, 0x71, 0x00, 0x90, 0x39, 0x7f, 0x34, 0x80, 0x29, 0x30, 0x2d, 0x90,
  0x29, 0x64, 0x4e, 0x80, 0x39, 0x30, 0x05, 0x80, 0x29, 0x30, 0x0d, 0x90,
  0x1d, 0x7f, 0x00, 0x90, 0x3c, 0x7f, 0x81, 0x0f, 0x80, 0x1d, 0x30, 0x30,
  0x90, 0x29, 0x71, 0x34, 0x80, 0x29, 0x30, 0x2c, 0x90, 0x29, 0x6b, 0x0a,
  0x80, 0x3c, 0x30, 0x51, 0x80, 0x29, 0x30, 0x05, 0x90, 0x1f, 0x7f, 0x00,
  0x90, 0x3e, 0x7f, 0x51, 0x80, 0x3e, 0x30, 0x0f, 0x90, 0x3c, 0x7f, 0x49,
  0x80, 0x3c, 0x30, 0x18, 0x90, 0x3e, 0x7f, 0x1f, 0x80, 0x1f, 0x30, 0x2c,
  0x80, 0x3e, 0x30, 0x15, 0x90, 0x3c, 0x7f, 0x44, 0x80, 0x3c, 0x30, 0x1b,
  0x90, 0x3e, 0x7f, 0x50, 0x80, 0x3e, 0x30, 0x10, 0x90, 0x4f, 0x7f, 0x48,
  0x80, 0x4f, 0x30, 0x18, 0x90, 0x40, 0x7f, 0x00, 0x90, 0x4a, 0x7f, 0x50,
  0x80, 0x4a, 0x30, 0x10, 0x90, 0x43, 0x7f, 0x41, 0x80, 0x43, 0x30, 0x01,
  0x80, 0x40, 0x30, 0x1e, 0x90, 0x40, 0x7f, 0x00, 0x90, 0x48, 0x7f, 0x51,
  0x80, 0x48, 0x30, 0x10, 0x90, 0x43, 0x7f, 0x3f, 0x80, 0x43, 0x30, 0x21,
  0x90, 0x48, 0x7f, 0x59, 0x80, 0x48, 0x30, 0x06, 0x90, 0x43, 0x7f, 0x48,
  0x80, 0x43, 0x30, 0x0e, 0x80, 0x40, 0x30, 0x0a, 0x90, 0x43, 0x7f, 0x00,
  0x90, 0x48, 0x7f, 0x52, 0x80, 0x48, 0x30, 0x0e, 0x90, 0x4a, 0x7f, 0x46,
  0x80, 0x4a, 0x30, 0x0e, 0x80, 0x43, 0x30, 0x0c, 0x90, 0x45, 0x7f, 0x00,
  0x90, 0x4c, 0x7f, 0x5b, 0x80, 0x4c, 0x30, 0x05, 0x90, 0x4f, 0x7f, 0x4a,
  0x80, 0x4f, 0x30, 0x17, 0x90, 0x58, 0x7f, 0x81, 0x1c, 0x80, 0x58, 0x30,
  0x1f, 0x80, 0x45, 0x30, 0x04, 0x90, 0x5d, 0x7f, 0x00, 0x90, 0x45, 0x7f,
  0x81, 0x1c, 0x80, 0x5d, 0x30, 0x24, 0x90, 0x58, 0x7f, 0x20, 0x80, 0x45,
  0x30, 0x7c, 0x80, 0x58, 0x30, 0x24, 0x90, 0x5d, 0x7f, 0x00, 0x90, 0x45,
  0x7f, 0x81, 0x1c, 0x80, 0x5d, 0x30, 0x1a, 0x80, 0x45, 0x30, 0x0b, 0x90,
  0x58, 0x7f, 0x00, 0x90, 0x45, 0x7f, 0x81, 0x1c, 0x80, 0x58, 0x30, 0x23,
  0x90, 0x5d, 0x7f, 0x81, 0x1c, 0x80, 0x5d, 0x30, 0x02, 0x80, 0x45, 0x30,
  0x22, 0x90, 0x5b, 0x7f, 0x00, 0x90, 0x47, 0x78, 0x81, 0x1c, 0x80, 0x5b,
  0x30, 0x20, 0x80, 0x47, 0x30, 0x05, 0x90, 0x59, 0x7f, 0x00, 0x90, 0x48,
  0x72, 0x81, 0x1c, 0x80, 0x59, 0x30, 0x23, 0x90, 0x54, 0x7f, 0x81, 0x1c,
  0x80, 0x54, 0x30, 0x08, 0x80, 0x48, 0x30, 0x1c, 0x90, 0x59, 0x7f, 0x00,
  0x90, 0x48, 0x72, 0x81, 0x1c, 0x80, 0x59, 0x30, 0x24, 0x90, 0x54, 0x7f,
  0x3c, 0x80, 0x48, 0x30, 0x60, 0x80, 0x54, 0x30, 0x25, 0x90, 0x59, 0x7f,
  0x00, 0x90, 0x45, 0x7f, 0x81, 0x1c, 0x80, 0x59, 0x30, 0x1f, 0x80, 0x45,
  0x30, 0x04, 0x90, 0x54, 0x7f, 0x00, 0x90, 0x45, 0x7f, 0x81, 0x1c, 0x80,
  0x54, 0x30, 0x24, 0x90, 0x59, 0x7f, 0x81, 0x1c, 0x80, 0x59, 0x30, 0x15,
  0x80, 0x45, 0x30, 0x10, 0x90, 0x5b, 0x7f, 0x00, 0x90, 0x47, 0x78, 0x81,
  0x1c, 0x80, 0x5b, 0x30, 0x1f, 0x80, 0x47, 0x30, 0x04, 0x90, 0x58, 0x7f,
  0x00, 0x90, 0x48, 0x72, 0x81, 0x1c, 0x80, 0x58, 0x30, 0x24, 0x90, 0x54,
  0x7f, 0x81, 0x1c, 0x80, 0x54, 0x30, 0x00, 0x80, 0x48, 0x30, 0x24, 0x90,
  0x58, 0x7f, 0x00, 0x90, 0x48, 0x72, 0x81, 0x1c, 0x80, 0x58, 0x30, 0x25,
  0x90, 0x54, 0x7f, 0x17, 0x80, 0x48, 0x30, 0x81, 0x05, 0x80, 0x54, 0x30,
  0x23, 0x90, 0x58, 0x7f, 0x00, 0x90, 0x48, 0x72, 0x81, 0x1c, 0x80, 0x58,
  0x30, 0x1c, 0x80, 0x48, 0x30, 0x08, 0x90, 0x54, 0x7f, 0x00, 0x90, 0x4a,
  0x72, 0x81, 0x1c, 0x80, 0x54, 0x30, 0x25, 0x90, 0x58, 0x7f, 0x81, 0x1c,
  0x80, 0x58, 0x30, 0x17, 0x80, 0x4a, 0x30, 0x0c, 0x90, 0x59, 0x7f, 0x00,
  0x90, 0x48, 0x72, 0x81, 0x1c, 0x80, 0x59, 0x30, 0x21, 0x80, 0x48, 0x30,
  0x03, 0x90, 0x5b, 0x7f, 0x00, 0x90, 0x48, 0x72, 0x81, 0x1c, 0x80, 0x5b,
  0x30, 0x24, 0x90, 0x56, 0x7f, 0x81, 0x1c, 0x80, 0x56, 0x30, 0x1a, 0x80,
  0x48, 0x30, 0x0b, 0x90, 0x5b, 0x7f, 0x00, 0x90, 0x47, 0x78, 0x81, 0x1c,
  0x80, 0x5b, 0x30, 0x23, 0x90, 0x56, 0x7f, 0x6c, 0x80, 0x47, 0x30, 0x30,
  0x80, 0x56, 0x30, 0x24, 0x90, 0x5b, 0x7f, 0x00, 0x90, 0x40, 0x7f, 0x81,
  0x1c, 0x80, 0x5b, 0x30, 0x20, 0x80, 0x40, 0x30, 0x05, 0x90, 0x56, 0x7f,
  0x00, 0x90, 0x40, 0x7f, 0x81, 0x1c, 0x80, 0x56, 0x30, 0x23, 0x90, 0x5b,
  0x7f, 0x81, 0x1c, 0x80, 0x5b, 0x30, 0x0f, 0x80, 0x40, 0x30, 0x15, 0x90,
  0x58, 0x7f, 0x00, 0x90, 0x43, 0x7f, 0x81, 0x1c, 0x80, 0x58, 0x30, 0x20,
  0x80, 0x43, 0x30, 0x04, 0x90, 0x5d, 0x7f, 0x00, 0x90, 0x45, 0x7f, 0x81,
  0x1c, 0x80, 0x5d, 0x30, 0x25, 0x90, 0x58, 0x7f, 0x81, 0x1c, 0x80, 0x58,
  0x30, 0x00, 0x80, 0x45, 0x30, 0x23, 0x90, 0x5d, 0x7f, 0x00, 0x90, 0x45,
  0x7f, 0x81, 0x1c, 0x80, 0x5d, 0x30, 0x24, 0x90, 0x58, 0x7f, 0x18, 0x80,
  0x45, 0x30, 0x81, 0x04, 0x80, 0x58, 0x30, 0x25, 0x90, 0x5d, 0x7f, 0x00,
  0x90, 0x45, 0x7f, 0x81, 0x1c, 0x80, 0x5d, 0x30, 0x13, 0x80, 0x45, 0x30,
  0x10, 0x90, 0x58, 0x7f, 0x00, 0x90, 0x45, 0x7f, 0x81, 0x1c, 0x80, 0x58,
  0x30, 0x24, 0x90, 0x5d, 0x7f, 0x81, 0x1c, 0x80, 0x5d, 0x30, 0x15, 0x80,
  0x45, 0x30, 0x0f, 0x90, 0x5b, 0x7f, 0x00, 0x90, 0x47, 0x78, 0x81, 0x1c,
  0x80, 0x5b, 0x30, 0x20, 0x80, 0x47, 0x30, 0x05, 0x90, 0x59, 0x7f, 0x00,
  0x90, 0x48, 0x72, 0x81, 0x1c, 0x80, 0x59, 0x30, 0x23, 0x90, 0x54, 0x7f,
  0x81, 0x1c, 0x80, 0x54, 0x30, 0x14, 0x80, 0x48, 0x30, 0x10, 0x90, 0x59,
  0x7f, 0x00, 0x90, 0x48, 0x72, 0x81, 0x1c, 0x80, 0x59, 0x30, 0x25, 0x90,
  0x54, 0x7f, 0x27, 0x80, 0x48, 0x30, 0x75, 0x80, 0x54, 0x30, 0x23, 0x90,
  0x59, 0x7f, 0x00, 0x90, 0x45, 0x7f, 0x81, 0x1c, 0x80, 0x59, 0x30, 0x12,
  0x80, 0x45, 0x30, 0x12, 0x90, 0x54, 0x7f, 0x00, 0x90, 0x45, 0x7f, 0x81,
  0x1c, 0x80, 0x54, 0x30, 0x24, 0x90, 0x59, 0x7f, 0x81, 0x1c, 0x80, 0x59,
  0x30, 0x08, 0x80, 0x45, 0x30, 0x1d, 0x90, 0x5b, 0x7f, 0x00, 0x90, 0x47,
  0x78, 0x81, 0x1c, 0x80, 0x5b, 0x30, 0x1f, 0x80, 0x47, 0x30, 0x04, 0x90,
  0x58, 0x7f, 0x00, 0x90, 0x48, 0x72, 0x81, 0x1c, 0x80, 0x58, 0x30, 0x24,
  0x90, 0x54, 0x7f, 0x81, 0x1c, 0x80, 0x54, 0x30, 0x15, 0x80, 0x48, 0x30,
  0x10, 0x90, 0x58, 0x7f, 0x00, 0x90, 0x48, 0x72, 0x81, 0x1c, 0x80, 0x58,
  0x30, 0x23, 0x90, 0x54, 0x7f, 0x28, 0x80, 0x48, 0x30, 0x74, 0x80, 0x54,
  0x30, 0x24, 0x90, 0x58, 0x7f, 0x00, 0x90, 0x48, 0x72, 0x81, 0x1c, 0x80,
  0x58, 0x30, 0x12, 0x80, 0x48, 0x30, 0x12, 0x90, 0x54, 0x7f, 0x00, 0x90,
  0x4a, 0x72, 0x81, 0x1c, 0x80, 0x54, 0x30, 0x25, 0x90, 0x58, 0x7f, 0x81,
  0x1c, 0x80, 0x58, 0x30, 0x13, 0x80, 0x4a, 0x30, 0x10, 0x90, 0x59, 0x7f,
  0x00, 0x90, 0x48, 0x72, 0x81, 0x1c, 0x80, 0x59, 0x30, 0x21, 0x80, 0x48,
  0x30, 0x03, 0x90, 0x5b, 0x7f, 0x00, 0x90, 0x48, 0x72, 0x81, 0x1c, 0x80,
  0x5b, 0x30, 0x25, 0x90, 0x56, 0x7f, 0x81, 0x1c, 0x80, 0x56, 0x30, 0x1d,
  0x80, 0x48, 0x30, 0x06, 0x90, 0x5b, 0x7f, 0x00, 0x90, 0x47, 0x78, 0x81,
  0x1c, 0x80, 0x5b, 0x30, 0x24, 0x90, 0x56, 0x7f, 0x39, 0x80, 0x47, 0x30,
  0x63, 0x80, 0x56, 0x30, 0x24, 0x90, 0x5b, 0x7f, 0x00, 0x90, 0x47, 0x78,
  0x81, 0x1c, 0x80, 0x5b, 0x30, 0x0c, 0x80, 0x47, 0x30, 0x19, 0x90, 0x56,
  0x7f, 0x00, 0x90, 0x47, 0x78, 0x81, 0x1c, 0x80, 0x56, 0x30, 0x1f, 0x80,
  0x47, 0x30, 0x04, 0x90, 0x5b, 0x7f, 0x00, 0x90, 0x45, 0x7f, 0x81, 0x1c,
  0x80, 0x5b, 0x30, 0x14, 0x80, 0x45, 0x30, 0x10, 0x90, 0x58, 0x7f, 0x00,
  0x90, 0x43, 0x7f, 0x81, 0x1c, 0x80, 0x58, 0x30, 0x20, 0x80, 0x43, 0x30,
  0x05, 0x90, 0x5d, 0x7f, 0x00, 0x90, 0x45, 0x7f, 0x81, 0x1c, 0x80, 0x5d,
  0x30, 0x23, 0x90, 0x58, 0x7f, 0x81, 0x1c, 0x80, 0x58, 0x30, 0x24, 0x90,
  0x5d, 0x7f, 0x81, 0x1c, 0x80, 0x5d, 0x30, 0x24, 0x90, 0x58, 0x7f, 0x81,
  0x1c, 0x80, 0x58, 0x30, 0x25, 0x90, 0x5d, 0x7f, 0x81, 0x1c, 0x80, 0x5d,
  0x30, 0x23, 0x90, 0x58, 0x7f, 0x81, 0x1c, 0x80, 0x58, 0x30, 0x24, 0x90,
  0x5d, 0x7f, 0x81, 0x1c, 0x80, 0x5d, 0x30, 0x25, 0x90, 0x5b, 0x7f, 0x81,
  0x1c, 0x80, 0x5b, 0x30, 0x23, 0x90, 0x59, 0x7f, 0x38, 0x80, 0x45, 0x30,
  0x64, 0x80, 0x59, 0x30, 0x24, 0x90, 0x54, 0x7f, 0x81, 0x1c, 0x80, 0x54,
  0x30, 0x24, 0x90, 0x59, 0x7f, 0x81, 0x1c, 0x80, 0x59, 0x30, 0x25, 0x90,
  0x54, 0x7f, 0x81, 0x1c, 0x80, 0x54, 0x30, 0x23, 0x90, 0x59, 0x7f, 0x81,
  0x1c, 0x80, 0x59, 0x30, 0x24, 0x90, 0x54, 0x7f, 0x81, 0x1c, 0x80, 0x54,
  0x30, 0x25, 0x90, 0x59, 0x7f, 0x81, 0x1c, 0x80, 0x59, 0x30, 0x23, 0x90,
  0x5b, 0x7f, 0x81, 0x1c, 0x80, 0x5b, 0x30, 0x24, 0x90, 0x58, 0x7f, 0x81,
  0x1c, 0x80, 0x58, 0x30, 0x24, 0x90, 0x54, 0x7f, 0x81, 0x1c, 0x80, 0x54,
  0x30, 0x25, 0x90, 0x58, 0x7f, 0x00, 0x90, 0x48, 0x71, 0x81, 0x1c, 0x80,
  0x58, 0x30, 0x23, 0x90, 0x54, 0x7f, 0x81, 0x1c, 0x80, 0x54, 0x30, 0x05,
  0x80, 0x48, 0x30, 0x1f, 0x90, 0x58, 0x7f, 0x00, 0x90, 0x48, 0x71, 0x81,
  0x1c, 0x80, 0x58, 0x30, 0x25, 0x90, 0x54, 0x7f, 0x81, 0x1c, 0x80, 0x54,
  0x30, 0x09, 0x80, 0x48, 0x30, 0x1a, 0x90, 0x58, 0x7f, 0x00, 0x90, 0x48,
  0x71, 0x81, 0x1c, 0x80, 0x58, 0x30, 0x0a, 0x80, 0x48, 0x30, 0x1a, 0x90,
  0x59, 0x7f, 0x00, 0x90, 0x48, 0x71, 0x81, 0x1c, 0x80, 0x59, 0x30, 0x12,
  0x80, 0x48, 0x30, 0x12, 0x90, 0x5b, 0x7f, 0x00, 0x90, 0x48, 0x71, 0x81,
  0x1c, 0x80, 0x5b, 0x30, 0x25, 0x90, 0x56, 0x7f, 0x81, 0x1c, 0x80, 0x56,
  0x30, 0x0b, 0x80, 0x48, 0x30, 0x18, 0x90, 0x5b, 0x7f, 0x00, 0x90, 0x47,
  0x78, 0x81, 0x1c, 0x80, 0x5b, 0x30, 0x24, 0x90, 0x56, 0x7f, 0x76, 0x80,
  0x47, 0x30, 0x26, 0x80, 0x56, 0x30, 0x25, 0x90, 0x5b, 0x7f, 0x00, 0x90,
  0x47, 0x78, 0x81, 0x1c, 0x80, 0x5b, 0x30, 0x0b, 0x80, 0x47, 0x30, 0x18,
  0x90, 0x56, 0x7f, 0x00, 0x90, 0x47, 0x78, 0x81, 0x1c, 0x80, 0x56, 0x30,
  0x21, 0x80, 0x47, 0x30, 0x03, 0x90, 0x5b, 0x7f, 0x00, 0x90, 0x45, 0x7f,
  0x81, 0x1c, 0x80, 0x5b, 0x30, 0x15, 0x80, 0x45, 0x30, 0x0f, 0x90, 0x58,
  0x7f, 0x00, 0x90, 0x43, 0x7f, 0x81, 0x1c, 0x80, 0x58, 0x30, 0x20, 0x80,
  0x43, 0x30, 0x05, 0x90, 0x5d, 0x7f, 0x00, 0x90, 0x45, 0x7f, 0x81, 0x1c,
  0x80, 0x5d, 0x30, 0x23, 0x90, 0x58, 0x7f, 0x81, 0x1c, 0x80, 0x58, 0x30,
  0x24, 0x90, 0x5d, 0x7f, 0x81, 0x1c, 0x80, 0x5d, 0x30, 0x25, 0x90, 0x58,
  0x7f, 0x81, 0x1c, 0x80, 0x58, 0x30, 0x23, 0x90, 0x5d, 0x7f, 0x81, 0x1c,
  0x80, 0x5d, 0x30, 0x24, 0x90, 0x58, 0x7f, 0x81, 0x1c, 0x80, 0x58, 0x30,
  0x24, 0x90, 0x5d, 0x7f, 0x81, 0x1c, 0x80, 0x5d, 0x30, 0x25, 0x90, 0x5b,
  0x7f, 0x81, 0x1c, 0x80, 0x5b, 0x30, 0x23, 0x90, 0x59, 0x7f, 0x38, 0x80,
  0x45, 0x30, 0x64, 0x80, 0x59, 0x30, 0x24, 0x90, 0x54, 0x7f, 0x81, 0x1c,
  0x80, 0x54, 0x30, 0x25, 0x90, 0x59, 0x7f, 0x81, 0x1c, 0x80, 0x59, 0x30,
  0x23, 0x90, 0x54, 0x7f, 0x81, 0x1c, 0x80, 0x54, 0x30, 0x24, 0x90, 0x59,
  0x7f, 0x81, 0x1c, 0x80, 0x59, 0x30, 0x24, 0x90, 0x54, 0x7f, 0x81, 0x1c,
  0x80, 0x54, 0x30, 0x25, 0x90, 0x59, 0x7f, 0x81, 0x1c, 0x80, 0x59, 0x30,
  0x23, 0x90, 0x5b, 0x7f, 0x81, 0x1c, 0x80, 0x5b, 0x30, 0x24, 0x90, 0x58,
  0x7f, 0x81, 0x1c, 0x80, 0x58, 0x30, 0x25, 0x90, 0x54, 0x7f, 0x81, 0x1c,
  0x80, 0x54, 0x30, 0x23, 0x90, 0x58, 0x7f, 0x00, 0x90, 0x48, 0x72, 0x81,
  0x1c, 0x80, 0x58, 0x30, 0x24, 0x90, 0x54, 0x7f, 0x81, 0x16, 0x80, 0x48,
  0x30, 0x06, 0x80, 0x54, 0x30, 0x24, 0x90, 0x58, 0x7f, 0x00, 0x90, 0x48,
  0x72, 0x81, 0x1c, 0x80, 0x58, 0x30, 0x25, 0x90, 0x54, 0x7f, 0x81, 0x1c,
  0x80, 0x54, 0x30, 0x0b, 0x80, 0x48, 0x30, 0x18, 0x90, 0x58, 0x7f, 0x00,
  0x90, 0x48, 0x72, 0x81, 0x1c, 0x80, 0x58, 0x30, 0x24, 0x90, 0x59, 0x7f,
  0x81, 0x1c, 0x80, 0x59, 0x30, 0x06, 0x80, 0x48, 0x30, 0x1f, 0x90, 0x5b,
  0x7f, 0x00, 0x90, 0x48, 0x72, 0x81, 0x1c, 0x80, 0x5b, 0x30, 0x81, 0x60,
  0x80, 0x48, 0x30, 0x03, 0x90, 0x47, 0x78, 0x83, 0x11, 0x80, 0x47, 0x30,
  0x87, 0x2f, 0x90, 0x21, 0x7f, 0x81, 0x10, 0x80, 0x21, 0x30, 0x30, 0x90,
  0x2d, 0x71, 0x34, 0x80, 0x2d, 0x30, 0x2d, 0x90, 0x2d, 0x64, 0x53, 0x80,
  0x2d, 0x30, 0x0d, 0x90, 0x21, 0x7f, 0x81, 0x0f, 0x80, 0x21, 0x30, 0x30,
  0x90, 0x2d, 0x71, 0x34, 0x80, 0x2d, 0x30, 0x2c, 0x90, 0x2d, 0x6b, 0x5b,
  0x80, 0x2d, 0x30, 0x05, 0x90, 0x21, 0x7f, 0x81, 0x10, 0x80, 0x21, 0x30,
  0x31, 0x90, 0x2d, 0x71, 0x34, 0x80, 0x2d, 0x30, 0x2c, 0x90, 0x2d, 0x64,
  0x53, 0x80, 0x2d, 0x30, 0x0c, 0x90, 0x21, 0x7f, 0x81, 0x11, 0x80, 0x21,
  0x30, 0x2f, 0x90, 0x2d, 0x71, 0x34, 0x80, 0x2d, 0x30, 0x2c, 0x90, 0x2d,
  0x6b, 0x5b, 0x80, 0x2d, 0x30, 0x05, 0x90, 0x1d, 0x7f, 0x81, 0x10, 0x80,
  0x1d, 0x30, 0x31, 0x90, 0x29, 0x71, 0x34, 0x80, 0x29, 0x30, 0x2b, 0x90,
  0x29, 0x64, 0x55, 0x80, 0x29, 0x30, 0x0b, 0x90, 0x1d, 0x7f, 0x81, 0x11,
  0x80, 0x1d, 0x30, 0x2f, 0x90, 0x29, 0x71, 0x34, 0x80, 0x29, 0x30, 0x2c,
  0x90, 0x29, 0x6b, 0x5a, 0x80, 0x29, 0x30, 0x07, 0x90, 0x1d, 0x7f, 0x81,
  0x0f, 0x80, 0x1d, 0x30, 0x30, 0x90, 0x29, 0x71, 0x34, 0x80, 0x29, 0x30,
  0x2c, 0x90, 0x29, 0x64, 0x55, 0x80, 0x29, 0x30, 0x0b, 0x90, 0x1d, 0x7f,
  0x81, 0x10, 0x80, 0x1d, 0x30, 0x30, 0x90, 0x29, 0x71, 0x34, 0x80, 0x29,
  0x30, 0x2d, 0x90, 0x29, 0x6b, 0x59, 0x80, 0x29, 0x30, 0x07, 0x90, 0x24,
  0x7f, 0x81, 0x0f, 0x80, 0x24, 0x30, 0x30, 0x90, 0x30, 0x71, 0x34, 0x80,
  0x30, 0x30, 0x2c, 0x90, 0x30, 0x64, 0x54, 0x80, 0x30, 0x30, 0x0c, 0x90,
  0x24, 0x7f, 0x81, 0x10, 0x80, 0x24, 0x30, 0x31, 0x90, 0x30, 0x71, 0x34,
  0x80, 0x30, 0x30, 0x2c, 0x90, 0x30, 0x6b, 0x59, 0x80, 0x30, 0x30, 0x06,
  0x90, 0x24, 0x7f, 0x81, 0x11, 0x80, 0x24, 0x30, 0x2f, 0x90, 0x30, 0x71,
  0x34, 0x80, 0x30, 0x30, 0x2c, 0x90, 0x30, 0x64, 0x54, 0x80, 0x30, 0x30,
  0x0c, 0x90, 0x24, 0x7f, 0x81, 0x10, 0x80, 0x24, 0x30, 0x31, 0x90, 0x30,
  0x71, 0x34, 0x80, 0x30, 0x30, 0x2b, 0x90, 0x30, 0x6b, 0x5a, 0x80, 0x30,
  0x30, 0x06, 0x90, 0x1f, 0x7f, 0x81, 0x11, 0x80, 0x1f, 0x30, 0x2f, 0x90,
  0x2b, 0x71, 0x34, 0x80, 0x2b, 0x30, 0x2c, 0x90, 0x2b, 0x64, 0x54, 0x80,
  0x2b, 0x30, 0x0d, 0x90, 0x1f, 0x7f, 0x81, 0x0f, 0x80, 0x1f, 0x30, 0x30,
  0x90, 0x2b, 0x71, 0x34, 0x80, 0x2b, 0x30, 0x2c, 0x90, 0x2b, 0x6b, 0x5a,
  0x80, 0x2b, 0x30, 0x06, 0x90, 0x1f, 0x7f, 0x81, 0x10, 0x80, 0x1f, 0x30,
  0x30, 0x90, 0x2b, 0x71, 0x34, 0x80, 0x2b, 0x30, 0x2d, 0x90, 0x2b, 0x64,
  0x53, 0x80, 0x2b, 0x30, 0x0d, 0x90, 0x1f, 0x7f, 0x81, 0x0f, 0x80, 0x1f,
  0x30, 0x30, 0x90, 0x2b, 0x71, 0x34, 0x80, 0x2b, 0x30, 0x2c, 0x90, 0x2b,
  0x6b, 0x5b, 0x80, 0x2b, 0x30, 0x05, 0x90, 0x21, 0x7f, 0x81, 0x10, 0x80,
  0x21, 0x30, 0x31, 0x90, 0x2d, 0x71, 0x34, 0x80, 0x2d, 0x30, 0x2c, 0x90,
  0x2d, 0x64, 0x53, 0x80, 0x2d, 0x30, 0x0c, 0x90, 0x21, 0x7f, 0x81, 0x11,
  0x80, 0x21, 0x30, 0x2f, 0x90, 0x2d, 0x71, 0x34, 0x80, 0x2d, 0x30, 0x2c,
  0x90, 0x2d, 0x6b, 0x5b, 0x80, 0x2d, 0x30, 0x05, 0x90, 0x21, 0x7f, 0x81,
  0x10, 0x80, 0x21, 0x30, 0x31, 0x90, 0x2d, 0x71, 0x34, 0x80, 0x2d, 0x30,
  0x2b, 0x90, 0x2d, 0x64, 0x55, 0x80, 0x2d, 0x30, 0x0b, 0x90, 0x21, 0x7f,
  0x81, 0x11, 0x80, 0x21, 0x30, 0x2f, 0x90, 0x2d, 0x71, 0x34, 0x80, 0x2d,
  0x30, 0x2c, 0x90, 0x2d, 0x6b, 0x5a, 0x80, 0x2d, 0x30, 0x07, 0x90, 0x1d,
  0x7f, 0x81, 0x0f, 0x80, 0x1d, 0x30, 0x30, 0x90, 0x29, 0x71, 0x34, 0x80,
  0x29, 0x30, 0x2c, 0x90, 0x29, 0x64, 0x55, 0x80, 0x29, 0x30, 0x0b, 0x90,
  0x1d, 0x7f, 0x81, 0x10, 0x80, 0x1d, 0x30, 0x30, 0x90, 0x29, 0x71, 0x34,
  0x80, 0x29, 0x30, 0x2d, 0x90, 0x29, 0x6b, 0x59, 0x80, 0x29, 0x30, 0x07,
  0x90, 0x1d, 0x7f, 0x81, 0x0f, 0x80, 0x1d, 0x30, 0x30, 0x90, 0x29, 0x71,
  0x34, 0x80, 0x29, 0x30, 0x2c, 0x90, 0x29, 0x64, 0x54, 0x80, 0x29, 0x30,
  0x0c, 0x90, 0x1d, 0x7f, 0x81, 0x10, 0x80, 0x1d, 0x30, 0x31, 0x90, 0x29,
  0x71, 0x34, 0x80, 0x29, 0x30, 0x2c, 0x90, 0x29, 0x6b, 0x59, 0x80, 0x29,
  0x30, 0x06, 0x90, 0x24, 0x7f, 0x81, 0x11, 0x80, 0x24, 0x30, 0x2f, 0x90,
  0x30, 0x71, 0x34, 0x80, 0x30, 0x30, 0x2c, 0x90, 0x30, 0x64, 0x54, 0x80,
  0x30, 0x30, 0x0c, 0x90, 0x24, 0x7f, 0x81, 0x10, 0x80, 0x24, 0x30, 0x31,
  0x90, 0x30, 0x71, 0x34, 0x80, 0x30, 0x30, 0x2b, 0x90, 0x30, 0x6b, 0x5a,
  0x80, 0x30, 0x30, 0x06, 0x90, 0x24, 0x7f, 0x81, 0x11, 0x80, 0x24, 0x30,
  0x2f, 0x90, 0x30, 0x71, 0x34, 0x80, 0x30, 0x30, 0x2c, 0x90, 0x30, 0x64,
  0x54, 0x80, 0x30, 0x30, 0x0d, 0x90, 0x24, 0x7f, 0x81, 0x0f, 0x80, 0x24,
  0x30, 0x30, 0x90, 0x30, 0x71, 0x34, 0x80, 0x30, 0x30, 0x2c, 0x90, 0x30,
  0x6b, 0x5a, 0x80, 0x30, 0x30, 0x06, 0x90, 0x1f, 0x7f, 0x81, 0x10, 0x80,
  0x1f, 0x30, 0x30, 0x90, 0x2b, 0x71, 0x34, 0x80, 0x2b, 0x30, 0x2d, 0x90,
  0x2b, 0x64, 0x53, 0x80, 0x2b, 0x30, 0x0d, 0x90, 0x1f, 0x7f, 0x81, 0x0f,
  0x80, 0x1f, 0x30, 0x30, 0x90, 0x2b, 0x71, 0x00, 0x90, 0x47, 0x78, 0x34,
  0x80, 0x2b, 0x30, 0x2c, 0x90, 0x2b, 0x6b, 0x44, 0x80, 0x47, 0x30, 0x17,
  0x80, 0x2b, 0x30, 0x05, 0x90, 0x1f, 0x7f, 0x00, 0x90, 0x47, 0x78, 0x81,
  0x10, 0x80, 0x1f, 0x30, 0x31, 0x90, 0x2b, 0x71, 0x34, 0x80, 0x2b, 0x30,
  0x2c, 0x90, 0x2b, 0x64, 0x53, 0x80, 0x2b, 0x30, 0x08, 0x80, 0x47, 0x30,
  0x04, 0x90, 0x1f, 0x7f, 0x00, 0x90, 0x47, 0x78, 0x81, 0x11, 0x80, 0x1f,
  0x30, 0x2f, 0x90, 0x2b, 0x71, 0x34, 0x80, 0x2b, 0x30, 0x2c, 0x90, 0x2b,
  0x6b, 0x5b, 0x80, 0x2b, 0x30, 0x01, 0x80, 0x47, 0x30, 0x04, 0x90, 0x58,
  0x7f, 0x00, 0x90, 0x48, 0x72, 0x81, 0x1c, 0x80, 0x58, 0x30, 0x25, 0x90,
  0x5d, 0x7f, 0x81, 0x1c, 0x80, 0x5d, 0x30, 0x23, 0x90, 0x58, 0x7f, 0x81,
  0x1c, 0x80, 0x58, 0x30, 0x21, 0x80, 0x48, 0x30, 0x03, 0x90, 0x5d, 0x7f,
  0x00, 0x90, 0x47, 0x78, 0x81, 0x1c, 0x80, 0x5d, 0x30, 0x20, 0x80, 0x47,
  0x30, 0x05, 0x90, 0x58, 0x7f, 0x00, 0x90, 0x45, 0x7f, 0x81, 0x1c, 0x80,
  0x58, 0x30, 0x23, 0x90, 0x5d, 0x7f, 0x81, 0x1c, 0x80, 0x5d, 0x30, 0x24,
  0x90, 0x5b, 0x7f, 0x81, 0x1c, 0x80, 0x5b, 0x30, 0x24, 0x90, 0x59, 0x7f,
  0x81, 0x1c, 0x80, 0x59, 0x30, 0x25, 0x90, 0x54, 0x7f, 0x81, 0x1c, 0x80,
  0x54, 0x30, 0x23, 0x90, 0x59, 0x7f, 0x81, 0x1c, 0x80, 0x59, 0x30, 0x24,
  0x90, 0x54, 0x7f, 0x81, 0x1c, 0x80, 0x54, 0x30, 0x25, 0x90, 0x59, 0x7f,
  0x81, 0x1c, 0x80, 0x59, 0x30, 0x03, 0x80, 0x45, 0x30, 0x20, 0x90, 0x54,
  0x7f, 0x81, 0x1c, 0x80, 0x54, 0x30, 0x24, 0x90, 0x59, 0x7f, 0x81, 0x1c,
  0x80, 0x59, 0x30, 0x24, 0x90, 0x5b, 0x7f, 0x81, 0x1c, 0x80, 0x5b, 0x30,
  0x25, 0x90, 0x58, 0x7f, 0x81, 0x1c, 0x80, 0x58, 0x30, 0x23, 0x90, 0x54,
  0x7f, 0x81, 0x1c, 0x80, 0x54, 0x30, 0x24, 0x90, 0x58, 0x7f, 0x81, 0x1c,
  0x80, 0x58, 0x30, 0x25, 0x90, 0x54, 0x7f, 0x81, 0x1c, 0x80, 0x54, 0x30,
  0x23, 0x90, 0x58, 0x7f, 0x81, 0x1c, 0x80, 0x58, 0x30, 0x24, 0x90, 0x54,
  0x7f, 0x81, 0x1c, 0x80, 0x54, 0x30, 0x24, 0x90, 0x58, 0x7f, 0x81, 0x1c,
  0x80, 0x58, 0x30, 0x25, 0x90, 0x59, 0x7f, 0x81, 0x1c, 0x80, 0x59, 0x30,
  0x23, 0x90, 0x5b, 0x7f, 0x81, 0x1c, 0x80, 0x5b, 0x30, 0x24, 0x90, 0x56,
  0x7f, 0x81, 0x1c, 0x80, 0x56, 0x30, 0x25, 0x90, 0x5b, 0x7f, 0x81, 0x1c,
  0x80, 0x5b, 0x30, 0x23, 0x90, 0x56, 0x7f, 0x81, 0x1c, 0x80, 0x56, 0x30,
  0x24, 0x90, 0x5b, 0x7f, 0x00, 0x90, 0x47, 0x79, 0x81, 0x1c, 0x80, 0x5b,
  0x30, 0x17, 0x80, 0x47, 0x30, 0x0d, 0x90, 0x56, 0x7f, 0x00, 0x90, 0x47,
  0x79, 0x81, 0x1c, 0x80, 0x56, 0x30, 0x20, 0x80, 0x47, 0x30, 0x05, 0x90,
  0x5b, 0x7f, 0x00, 0x90, 0x45, 0x7f, 0x81, 0x1c, 0x80, 0x5b, 0x30, 0x10,
  0x80, 0x45, 0x30, 0x13, 0x90, 0x58, 0x7f, 0x00, 0x90, 0x43, 0x7f, 0x81,
  0x1c, 0x80, 0x58, 0x30, 0x24, 0x90, 0x5d, 0x7f, 0x81, 0x1c, 0x80, 0x5d,
  0x30, 0x20, 0x80, 0x43, 0x30, 0x05, 0x90, 0x58, 0x7f, 0x00, 0x90, 0x45,
  0x7f, 0x81, 0x1c, 0x80, 0x58, 0x30, 0x1f, 0x80, 0x45, 0x30, 0x04, 0x90,
  0x5d, 0x7f, 0x00, 0x90, 0x43, 0x7f, 0x81, 0x1c, 0x80, 0x5d, 0x30, 0x21,
  0x80, 0x43, 0x30, 0x03, 0x90, 0x58, 0x7f, 0x00, 0x90, 0x40, 0x7f, 0x81,
  0x1c, 0x80, 0x58, 0x30, 0x24, 0x90, 0x5d, 0x7f, 0x81, 0x1c, 0x80, 0x5d,
  0x30, 0x25, 0x90, 0x58, 0x7f, 0x81, 0x1c, 0x80, 0x58, 0x30, 0x23, 0x90,
  0x5d, 0x7f, 0x81, 0x1c, 0x80, 0x5d, 0x30, 0x24, 0x90, 0x5b, 0x7f, 0x81,
  0x1c, 0x80, 0x5b, 0x30, 0x25, 0x90, 0x59, 0x7f, 0x81, 0x1c, 0x80, 0x59,
  0x30, 0x23, 0x90, 0x54, 0x7f, 0x28, 0x80, 0x40, 0x30, 0x74, 0x80, 0x54,
  0x30, 0x24, 0x90, 0x59, 0x7f, 0x81, 0x1c, 0x80, 0x59, 0x30, 0x24, 0x90,
  0x54, 0x7f, 0x81, 0x1c, 0x80, 0x54, 0x30, 0x25, 0x90, 0x59, 0x7f, 0x81,
  0x1c, 0x80, 0x59, 0x30, 0x23, 0x90, 0x54, 0x7f, 0x81, 0x1c, 0x80, 0x54,
  0x30, 0x24, 0x90, 0x59, 0x7f, 0x81, 0x1c, 0x80, 0x59, 0x30, 0x25, 0x90,
  0x5b, 0x7f, 0x81, 0x1c, 0x80, 0x5b, 0x30, 0x23, 0x90, 0x58, 0x7f, 0x81,
  0x1c, 0x80, 0x58, 0x30, 0x24, 0x90, 0x54, 0x7f, 0x81, 0x1c, 0x80, 0x54,
  0x30, 0x24, 0x90, 0x58, 0x7f, 0x81, 0x1c, 0x80, 0x58, 0x30, 0x25, 0x90,
  0x54, 0x7f, 0x81, 0x1c, 0x80, 0x54, 0x30, 0x23, 0x90, 0x58, 0x7f, 0x81,
  0x1c, 0x80, 0x58, 0x30, 0x24, 0x90, 0x54, 0x7f, 0x81, 0x1c, 0x80, 0x54,
  0x30, 0x25, 0x90, 0x58, 0x7f, 0x81, 0x1c, 0x80, 0x58, 0x30, 0x23, 0x90,
  0x59, 0x7f, 0x81, 0x1c, 0x80, 0x59, 0x30, 0x24, 0x90, 0x5b, 0x7f, 0x81,
  0x1c, 0x80, 0x5b, 0x30, 0x24, 0x90, 0x56, 0x7f, 0x81, 0x1c, 0x80, 0x56,
  0x30, 0x25, 0x90, 0x5b, 0x7f, 0x81, 0x1c, 0x80, 0x5b, 0x30, 0x23, 0x90,
  0x56, 0x7f, 0x81, 0x1c, 0x80, 0x56, 0x30, 0x24, 0x90, 0x5b, 0x7f, 0x81,
  0x1c, 0x80, 0x5b, 0x30, 0x25, 0x90, 0x56, 0x7f, 0x81, 0x1c, 0x80, 0x56,
  0x30, 0x23, 0x90, 0x5b, 0x7f, 0x81, 0x1c, 0x80, 0x5b, 0x30, 0x24, 0x90,
  0x58, 0x7f, 0x81, 0x1c, 0x80, 0x58, 0x30, 0x24, 0x90, 0x5d, 0x7f, 0x81,
  0x1c, 0x80, 0x5d, 0x30, 0x25, 0x90, 0x21, 0x7f, 0x00, 0x90, 0x39, 0x7f,
  0x81, 0x0f, 0x80, 0x21, 0x30, 0x12, 0x80, 0x39, 0x30, 0x1e, 0x90, 0x2d,
  0x71, 0x00, 0x90, 0x39, 0x7f, 0x34, 0x80, 0x2d, 0x30, 0x0c, 0x80, 0x39,
  0x30, 0x20, 0x90, 0x2d, 0x64, 0x00, 0x90, 0x39, 0x7f, 0x54, 0x80, 0x2d,
  0x30, 0x0c, 0x90, 0x21, 0x7f, 0x49, 0x80, 0x39, 0x30, 0x17, 0x90, 0x39,
  0x7f, 0x30, 0x80, 0x21, 0x30, 0x19, 0x80, 0x39, 0x30, 0x18, 0x90, 0x2d,
  0x71, 0x00, 0x90, 0x39, 0x7f, 0x34, 0x80, 0x2d, 0x30, 0x2c, 0x90, 0x2d,
  0x6b, 0x59, 0x80, 0x2d, 0x30, 0x06, 0x90, 0x21, 0x7f, 0x81, 0x01, 0x80,
  0x39, 0x30, 0x10, 0x80, 0x21, 0x30, 0x2f, 0x90, 0x2d, 0x71, 0x00, 0x90,
  0x39, 0x7f, 0x34, 0x80, 0x2d, 0x30, 0x2c, 0x90, 0x2d, 0x64, 0x3a, 0x80,
  0x39, 0x30, 0x1a, 0x80, 0x2d, 0x30, 0x0c, 0x90, 0x21, 0x7f, 0x00, 0x90,
  0x3c, 0x7f, 0x81, 0x10, 0x80, 0x21, 0x30, 0x2e, 0x80, 0x3c, 0x30, 0x03,
  0x90, 0x2d, 0x71, 0x34, 0x80, 0x2d, 0x30, 0x2b, 0x90, 0x2d, 0x6b, 0x5a,
  0x80, 0x2d, 0x30, 0x06, 0x90, 0x1d, 0x7f, 0x00, 0x90, 0x39, 0x7f, 0x38,
  0x80, 0x39, 0x30, 0x28, 0x90, 0x39, 0x7f, 0x31, 0x80, 0x1d, 0x30, 0x09,
  0x80, 0x39, 0x30, 0x26, 0x90, 0x29, 0x71, 0x00, 0x90, 0x39, 0x7f, 0x34,
  0x80, 0x29, 0x30, 0x2c, 0x90, 0x29, 0x64, 0x28, 0x80, 0x39, 0x30, 0x2c,
  0x80, 0x29, 0x30, 0x0d, 0x90, 0x1d, 0x7f, 0x00, 0x90, 0x39, 0x7f, 0x3f,
  0x80, 0x39, 0x30, 0x21, 0x90, 0x39, 0x7f, 0x2f, 0x80, 0x1d, 0x30, 0x1a,
  0x80, 0x39, 0x30, 0x16, 0x90, 0x29, 0x71, 0x00, 0x90, 0x39, 0x7f, 0x34,
  0x80, 0x29, 0x30, 0x2c, 0x90, 0x29, 0x6b, 0x12, 0x80, 0x39, 0x30, 0x48,
  0x80, 0x29, 0x30, 0x06, 0x90, 0x1d, 0x7f, 0x00, 0x90, 0x39, 0x7f, 0x43,
  0x80, 0x39, 0x30, 0x1d, 0x90, 0x39, 0x7f, 0x30, 0x80, 0x1d, 0x30, 0x14,
  0x80, 0x39, 0x30, 0x1c, 0x90, 0x29, 0x71, 0x00, 0x90, 0x39, 0x7f, 0x34,
  0x80, 0x29, 0x30, 0x2d, 0x90, 0x29, 0x64, 0x49, 0x80, 0x39, 0x30, 0x0a,
  0x80, 0x29, 0x30, 0x0d, 0x90, 0x1d, 0x7f, 0x00, 0x90, 0x3c, 0x7f, 0x81,
  0x0f, 0x80, 0x1d, 0x30, 0x30, 0x90, 0x29, 0x71, 0x34, 0x80, 0x29, 0x30,
  0x17, 0x80, 0x3c, 0x30, 0x15, 0x90, 0x29, 0x6b, 0x00, 0x90, 0x39, 0x7f,
  0x39, 0x80, 0x39, 0x30, 0x22, 0x80, 0x29, 0x30, 0x05, 0x90, 0x21, 0x7f,
  0x00, 0x90, 0x39, 0x7f, 0x41, 0x80, 0x39, 0x30, 0x1f, 0x90, 0x39, 0x7f,
  0x30, 0x80, 0x21, 0x30, 0x0a, 0x80, 0x39, 0x30, 0x27, 0x90, 0x2d, 0x71,
  0x00, 0x90, 0x39, 0x7f, 0x34, 0x80, 0x2d, 0x30, 0x2c, 0x90, 0x2d, 0x64,
  0x22, 0x80, 0x39, 0x30, 0x31, 0x80, 0x2d, 0x30, 0x0c, 0x90, 0x21, 0x7f,
  0x00, 0x90, 0x39, 0x7f, 0x81, 0x04, 0x80, 0x39, 0x30, 0x0d, 0x80, 0x21,
  0x30, 0x2f, 0x90, 0x2d, 0x71, 0x00, 0x90, 0x39, 0x7f, 0x34, 0x80, 0x2d,
  0x30, 0x2c, 0x90, 0x2d, 0x6b, 0x39, 0x80, 0x39, 0x30, 0x22, 0x80, 0x2d,
  0x30, 0x05, 0x90, 0x21, 0x7f, 0x00, 0x90, 0x39, 0x7f, 0x81, 0x10, 0x80,
  0x21, 0x30, 0x18, 0x80, 0x39, 0x30, 0x19, 0x90, 0x2d, 0x71, 0x00, 0x90,
  0x39, 0x7f, 0x34, 0x80, 0x2d, 0x30, 0x2b, 0x90, 0x2d, 0x64, 0x46, 0x80,
  0x39, 0x30, 0x0f, 0x80, 0x2d, 0x30, 0x0b, 0x90, 0x21, 0x7f, 0x00, 0x90,
  0x3c, 0x7f, 0x81, 0x11, 0x80, 0x21, 0x30, 0x2f, 0x90, 0x2d, 0x71, 0x20,
  0x80, 0x3c, 0x30, 0x14, 0x80, 0x2d, 0x30, 0x2c, 0x90, 0x2d, 0x6b, 0x5a,
  0x80, 0x2d, 0x30, 0x07, 0x90, 0x1d, 0x7f, 0x00, 0x90, 0x39, 0x7f, 0x81,
  0x0a, 0x80, 0x39, 0x30, 0x05, 0x80, 0x1d, 0x30, 0x30, 0x90, 0x29, 0x71,
  0x00, 0x90, 0x39, 0x7f, 0x34, 0x80, 0x29, 0x30, 0x09, 0x80, 0x39, 0x30,
  0x23, 0x90, 0x29, 0x64, 0x00, 0x90, 0x39, 0x7f, 0x55, 0x80, 0x29, 0x30,
  0x0b, 0x90, 0x1d, 0x7f, 0x3a, 0x80, 0x39, 0x30, 0x26, 0x90, 0x39, 0x7f,
  0x30, 0x80, 0x1d, 0x30, 0x04, 0x80, 0x39, 0x30, 0x2c, 0x90, 0x29, 0x71,
  0x00, 0x90, 0x39, 0x7f, 0x34, 0x80, 0x29, 0x30, 0x2d, 0x90, 0x29, 0x6b,
  0x12, 0x80, 0x39, 0x30, 0x47, 0x80, 0x29, 0x30, 0x07, 0x90, 0x1d, 0x7f,
  0x00, 0x90, 0x39, 0x7f, 0x81, 0x03, 0x80, 0x39, 0x30, 0x0c, 0x80, 0x1d,
  0x30, 0x30, 0x90, 0x29, 0x71, 0x00, 0x90, 0x39, 0x7f, 0x34, 0x80, 0x29,
  0x30, 0x2c, 0x90, 0x29, 0x64, 0x26, 0x80, 0x39, 0x30, 0x2e, 0x80, 0x29,
  0x30, 0x0c, 0x90, 0x1d, 0x7f, 0x00, 0x90, 0x39, 0x7f, 0x81, 0x10, 0x80,
  0x1d, 0x30, 0x31, 0x90, 0x29, 0x71, 0x29, 0x80, 0x39, 0x30, 0x0b, 0x80,
  0x29, 0x30, 0x2c, 0x90, 0x29, 0x6b, 0x59, 0x80, 0x29, 0x30, 0x06, 0x90,
  0x21, 0x7f, 0x00, 0x90, 0x39, 0x7f, 0x81, 0x11, 0x80, 0x21, 0x30, 0x12,
  0x80, 0x39, 0x30, 0x1d, 0x90, 0x2d, 0x71, 0x00, 0x90, 0x39, 0x7f, 0x34,
  0x80, 0x2d, 0x30, 0x2c, 0x90, 0x2d, 0x64, 0x2a, 0x80, 0x39, 0x30, 0x2a,
  0x80, 0x2d, 0x30, 0x0c, 0x90, 0x21, 0x7f, 0x00, 0x90, 0x39, 0x7f, 0x81,
  0x10, 0x80, 0x21, 0x30, 0x31, 0x90, 0x2d, 0x71, 0x34, 0x80, 0x2d, 0x30,
  0x01, 0x80, 0x39, 0x30, 0x2a, 0x90, 0x2d, 0x6b, 0x5a, 0x80, 0x2d, 0x30,
  0x06, 0x90, 0x21, 0x7f, 0x00, 0x90, 0x39, 0x7f, 0x81, 0x11, 0x80, 0x21,
  0x30, 0x1a, 0x80, 0x39, 0x30, 0x15, 0x90, 0x2d, 0x71, 0x00, 0x90, 0x39,
  0x7f, 0x34, 0x80, 0x2d, 0x30, 0x2c, 0x90, 0x2d, 0x64, 0x30, 0x80, 0x39,
  0x30, 0x24, 0x80, 0x2d, 0x30, 0x0d, 0x90, 0x21, 0x7f, 0x00, 0x90, 0x39,
  0x7f, 0x81, 0x0f, 0x80, 0x21, 0x30, 0x30, 0x90, 0x2d, 0x71, 0x34, 0x80,
  0x2d, 0x30, 0x02, 0x80, 0x39, 0x30, 0x2a, 0x90, 0x2d, 0x6b, 0x5a, 0x80,
  0x2d, 0x30, 0x06, 0x90, 0x1d, 0x7f, 0x00, 0x90, 0x39, 0x7f, 0x81, 0x10,
  0x80, 0x1d, 0x30, 0x19, 0x80, 0x39, 0x30, 0x17, 0x90, 0x29, 0x71, 0x00,
  0x90, 0x39, 0x7f, 0x34, 0x80, 0x29, 0x30, 0x2d, 0x90, 0x29, 0x64, 0x37,
  0x80, 0x39, 0x30, 0x1c, 0x80, 0x29, 0x30, 0x0d, 0x90, 0x1d, 0x7f, 0x00,
  0x90, 0x39, 0x7f, 0x49, 0x80, 0x39, 0x30, 0x16, 0x90, 0x39, 0x7f, 0x30,
  0x80, 0x1d, 0x30, 0x0e, 0x80, 0x39, 0x30, 0x22, 0x90, 0x29, 0x71, 0x00,
  0x90, 0x39, 0x7f, 0x34, 0x80, 0x29, 0x30, 0x12, 0x80, 0x39, 0x30, 0x1a,
  0x90, 0x29, 0x6b, 0x00, 0x90, 0x39, 0x7f, 0x4b, 0x80, 0x39, 0x30, 0x10,
  0x80, 0x29, 0x30, 0x05, 0x90, 0x1d, 0x7f, 0x00, 0x90, 0x3c, 0x7f, 0x81,
  0x10, 0x80, 0x1d, 0x30, 0x10, 0x80, 0x3c, 0x30, 0x21, 0x90, 0x29, 0x71,
  0x00, 0x90, 0x39, 0x7f, 0x34, 0x80, 0x29, 0x30, 0x2c, 0x90, 0x29, 0x64,
  0x35, 0x80, 0x39, 0x30, 0x1e, 0x80, 0x29, 0x30, 0x0c, 0x90, 0x1d, 0x7f,
  0x00, 0x90, 0x39, 0x7f, 0x81, 0x11, 0x80, 0x1d, 0x30, 0x2f, 0x90, 0x29,
  0x71, 0x31, 0x80, 0x39, 0x30, 0x03, 0x80, 0x29, 0x30, 0x2c, 0x90, 0x29,
  0x6b, 0x5b, 0x80, 0x29, 0x30, 0x05, 0x90, 0x21, 0x7f, 0x00, 0x90, 0x39,
  0x7f, 0x81, 0x10, 0x80, 0x21, 0x30, 0x08, 0x80, 0x39, 0x30, 0x29, 0x90,
  0x2d, 0x71, 0x00, 0x90, 0x39, 0x7f, 0x34, 0x80, 0x2d, 0x30, 0x2b, 0x90,
  0x2d, 0x64, 0x55, 0x80, 0x2d, 0x30, 0x0b, 0x90, 0x21, 0x7f, 0x1c, 0x80,
  0x39, 0x30, 0x75, 0x80, 0x21, 0x30, 0x2f, 0x90, 0x2d, 0x71, 0x00, 0x90,
  0x39, 0x7f, 0x34, 0x80, 0x2d, 0x30, 0x0d, 0x80, 0x39, 0x30, 0x1f, 0x90,
  0x2d, 0x6b, 0x00, 0x90, 0x39, 0x7f, 0x5a, 0x80, 0x2d, 0x30, 0x07, 0x90,
  0x21, 0x7f, 0x46, 0x80, 0x39, 0x30, 0x1a, 0x90, 0x39, 0x7f, 0x2f, 0x80,
  0x21, 0x30, 0x30, 0x90, 0x2d, 0x71, 0x34, 0x80, 0x2d, 0x30, 0x14, 0x80,
  0x39, 0x30, 0x18, 0x90, 0x2d, 0x64, 0x00, 0x90, 0x3c, 0x7f, 0x55, 0x80,
  0x2d, 0x30, 0x0b, 0x90, 0x21, 0x7f, 0x81, 0x10, 0x80, 0x21, 0x30, 0x23,
  0x80, 0x3c, 0x30, 0x0d, 0x90, 0x2d, 0x71, 0x00, 0x90, 0x39, 0x7f, 0x34,
  0x80, 0x2d, 0x30, 0x04, 0x80, 0x39, 0x30, 0x29, 0x90, 0x2d, 0x6b, 0x00,
  0x90, 0x39, 0x7f, 0x37, 0x80, 0x39, 0x30, 0x22, 0x80, 0x2d, 0x30, 0x07,
  0x90, 0x1d, 0x7f, 0x00, 0x90, 0x39, 0x7f, 0x71, 0x80, 0x39, 0x30, 0x1e,
  0x80, 0x1d, 0x30, 0x30, 0x90, 0x29, 0x71, 0x00, 0x90, 0x39, 0x7f, 0x34,
  0x80, 0x29, 0x30, 0x2c, 0x90, 0x29, 0x64, 0x44, 0x80, 0x39, 0x30, 0x10,
  0x80, 0x29, 0x30, 0x0c, 0x90, 0x1d, 0x7f, 0x00, 0x90, 0x39, 0x7f, 0x4c,
  0x80, 0x39, 0x30, 0x14, 0x90, 0x39, 0x7f, 0x30, 0x80, 0x1d, 0x30, 0x21,
  0x80, 0x39, 0x30, 0x10, 0x90, 0x29, 0x71, 0x00, 0x90, 0x39, 0x7f, 0x34,
  0x80, 0x29, 0x30, 0x2c, 0x90, 0x29, 0x6b, 0x23, 0x80, 0x39, 0x30, 0x36,
  0x80, 0x29, 0x30, 0x06, 0x90, 0x1d, 0x7f, 0x00, 0x90, 0x39, 0x7f, 0x81,
  0x0a, 0x80, 0x39, 0x30, 0x07, 0x80, 0x1d, 0x30, 0x2f, 0x90, 0x29, 0x71,
  0x00, 0x90, 0x39, 0x7f, 0x34, 0x80, 0x29, 0x30, 0x2c, 0x90, 0x29, 0x64,
  0x2c, 0x80, 0x39, 0x30, 0x28, 0x80, 0x29, 0x30, 0x0c, 0x90, 0x1d, 0x7f,
  0x00, 0x90, 0x3c, 0x7f, 0x81, 0x10, 0x80, 0x1d, 0x30, 0x31, 0x90, 0x29,
  0x71, 0x17, 0x80, 0x3c, 0x30, 0x1d, 0x80, 0x29, 0x30, 0x2b, 0x90, 0x29,
  0x6b, 0x5a, 0x80, 0x29, 0x30, 0x06, 0x90, 0x1f, 0x7f, 0x00, 0x90, 0x3e,
  0x7f, 0x50, 0x80, 0x3e, 0x30, 0x10, 0x90, 0x3c, 0x7f, 0x48, 0x80, 0x3c,
  0x30, 0x18, 0x90, 0x3e, 0x7f, 0x20, 0x80, 0x1f, 0x30, 0x2c, 0x80, 0x3e,
  0x30, 0x14, 0x90, 0x3c, 0x7f, 0x44, 0x80, 0x3c, 0x30, 0x1d, 0x90, 0x3e,
  0x7f, 0x4f, 0x80, 0x3e, 0x30, 0x11, 0x90, 0x4f, 0x7f, 0x47, 0x80, 0x4f,
  0x30, 0x18, 0x90, 0x40, 0x7f, 0x00, 0x90, 0x4a, 0x7f, 0x50, 0x80, 0x4a,
  0x30, 0x10, 0x90, 0x43, 0x7f, 0x40, 0x80, 0x43, 0x30, 0x03, 0x80, 0x40,
  0x30, 0x1d, 0x90, 0x40, 0x7f, 0x00, 0x90, 0x48, 0x7f, 0x50, 0x80, 0x48,
  0x30, 0x10, 0x90, 0x43, 0x7f, 0x41, 0x80, 0x43, 0x30, 0x1f, 0x90, 0x48,
  0x7f, 0x5a, 0x80, 0x48, 0x30, 0x07, 0x90, 0x43, 0x7f, 0x47, 0x80, 0x43,
  0x30, 0x0e, 0x80, 0x40, 0x30, 0x0b, 0x90, 0x43, 0x7f, 0x00, 0x90, 0x48,
  0x7f, 0x51, 0x80, 0x48, 0x30, 0x0e, 0x90, 0x4a, 0x7f, 0x46, 0x80, 0x4a,
  0x30, 0x0f, 0x80, 0x43, 0x30, 0x0b, 0x90, 0x45, 0x7f, 0x00, 0x90, 0x4c,
  0x7f, 0x5a, 0x80, 0x4c, 0x30, 0x06, 0x90, 0x4f, 0x7f, 0x4b, 0x80, 0x4f,
  0x30, 0x15, 0x90, 0x58, 0x7f, 0x81, 0x1c, 0x80, 0x58, 0x30, 0x20, 0x80,
  0x45, 0x30, 0x05, 0x90, 0x5d, 0x7f, 0x00, 0x90, 0x45, 0x7f, 0x81, 0x1c,
  0x80, 0x5d, 0x30, 0x23, 0x90, 0x58, 0x7f, 0x21, 0x80, 0x45, 0x30, 0x7b,
  0x80, 0x58, 0x30, 0x24, 0x90, 0x5d, 0x7f, 0x00, 0x90, 0x45, 0x7f, 0x81,
  0x1c, 0x80, 0x5d, 0x30, 0x1a, 0x80, 0x45, 0x30, 0x0a, 0x90, 0x58, 0x7f,
  0x00, 0x90, 0x45, 0x7f, 0x81, 0x1c, 0x80, 0x58, 0x30, 0x25, 0x90, 0x5d,
  0x7f, 0x81, 0x1c, 0x80, 0x5d, 0x30, 0x01, 0x80, 0x45, 0x30, 0x22, 0x90,
  0x5b, 0x7f, 0x00, 0x90, 0x47, 0x78, 0x81, 0x1c, 0x80, 0x5b, 0x30, 0x21,
  0x80, 0x47, 0x30, 0x03, 0x90, 0x59, 0x7f, 0x00, 0x90, 0x48, 0x72, 0x81,
  0x1c, 0x80, 0x59, 0x30, 0x25, 0x90, 0x54, 0x7f, 0x81, 0x1c, 0x80, 0x54,
  0x30, 0x08, 0x80, 0x48, 0x30, 0x1b, 0x90, 0x59, 0x7f, 0x00, 0x90, 0x48,
  0x72, 0x81, 0x1c, 0x80, 0x59, 0x30, 0x24, 0x90, 0x54, 0x7f, 0x3c, 0x80,
  0x48, 0x30, 0x60, 0x80, 0x54, 0x30, 0x24, 0x90, 0x59, 0x7f, 0x00, 0x90,
  0x45, 0x7f, 0x81, 0x1c, 0x80, 0x59, 0x30, 0x20, 0x80, 0x45, 0x30, 0x05,
  0x90, 0x54, 0x7f, 0x00, 0x90, 0x45, 0x7f, 0x81, 0x1c, 0x80, 0x54, 0x30,
  0x23, 0x90, 0x59, 0x7f, 0x81, 0x1c, 0x80, 0x59, 0x30, 0x14, 0x80, 0x45,
  0x30, 0x10, 0x90, 0x5b, 0x7f, 0x00, 0x90, 0x47, 0x78, 0x81, 0x1c, 0x80,
  0x5b, 0x30, 0x20, 0x80, 0x47, 0x30, 0x05, 0x90, 0x58, 0x7f, 0x00, 0x90,
  0x48, 0x72, 0x81, 0x1c, 0x80, 0x58, 0x30, 0x23, 0x90, 0x54, 0x7f, 0x81,
  0x1c, 0x80, 0x54, 0x30, 0x00, 0x80, 0x48, 0x30, 0x24, 0x90, 0x58, 0x7f,
  0x00, 0x90, 0x48, 0x72, 0x81, 0x1c, 0x80, 0x58, 0x30, 0x24, 0x90, 0x54,
  0x7f, 0x18, 0x80, 0x48, 0x30, 0x81, 0x04, 0x80, 0x54, 0x30, 0x25, 0x90,
  0x58, 0x7f, 0x00, 0x90, 0x48, 0x72, 0x81, 0x1c, 0x80, 0x58, 0x30, 0x1b,
  0x80, 0x48, 0x30, 0x08, 0x90, 0x54, 0x7f, 0x00, 0x90, 0x4a, 0x72, 0x81,
  0x1c, 0x80, 0x54, 0x30, 0x24, 0x90, 0x58, 0x7f, 0x81, 0x1c, 0x80, 0x58,
  0x30, 0x18, 0x80, 0x4a, 0x30, 0x0d, 0x90, 0x59, 0x7f, 0x00, 0x90, 0x48,
  0x72, 0x81, 0x1c, 0x80, 0x59, 0x30, 0x1f, 0x80, 0x48, 0x30, 0x04, 0x90,
  0x5b, 0x7f, 0x00, 0x90, 0x48, 0x72, 0x81, 0x1c, 0x80, 0x5b, 0x30, 0x24,
  0x90, 0x56, 0x7f, 0x81, 0x1c, 0x80, 0x56, 0x30, 0x1a, 0x80, 0x48, 0x30,
  0x0a, 0x90, 0x5b, 0x7f, 0x00, 0x90, 0x47, 0x78, 0x81, 0x1c, 0x80, 0x5b,
  0x30, 0x25, 0x90, 0x56, 0x7f, 0x6b, 0x80, 0x47, 0x30, 0x31, 0x80, 0x56,
  0x30, 0x23, 0x90, 0x5b, 0x7f, 0x00, 0x90, 0x40, 0x7f, 0x81, 0x1c, 0x80,
  0x5b, 0x30, 0x21, 0x80, 0x40, 0x30, 0x03, 0x90, 0x56, 0x7f, 0x00, 0x90,
  0x40, 0x7f, 0x81, 0x1c, 0x80, 0x56, 0x30, 0x25, 0x90, 0x5b, 0x7f, 0x81,
  0x1c, 0x80, 0x5b, 0x30, 0x0d, 0x80, 0x40, 0x30, 0x16, 0x90, 0x58, 0x7f,
  0x00, 0x90, 0x43, 0x7f, 0x81, 0x1c, 0x80, 0x58, 0x30, 0x21, 0x80, 0x43,
  0x30, 0x03, 0x90, 0x5d, 0x7f, 0x00, 0x90, 0x45, 0x7f, 0x81, 0x1c, 0x80,
  0x5d, 0x30, 0x24, 0x90, 0x58, 0x7f, 0x81, 0x1c, 0x80, 0x58, 0x30, 0x00,
  0x80, 0x45, 0x30, 0x25, 0x90, 0x5d, 0x7f, 0x00, 0x90, 0x45, 0x7f, 0x81,
  0x1c, 0x80, 0x5d, 0x30, 0x23, 0x90, 0x58, 0x7f, 0x19, 0x80, 0x45, 0x30,
  0x81, 0x03, 0x80, 0x58, 0x30, 0x24, 0x90, 0x5d, 0x7f, 0x00, 0x90, 0x45,
  0x7f, 0x81, 0x1c, 0x80, 0x5d, 0x30, 0x15, 0x80, 0x45, 0x30, 0x10, 0x90,
  0x58, 0x7f, 0x00, 0x90, 0x45, 0x7f, 0x81, 0x1c, 0x80, 0x58, 0x30, 0x23,
  0x90, 0x5d, 0x7f, 0x81, 0x1c, 0x80, 0x5d, 0x30, 0x14, 0x80, 0x45, 0x30,
  0x10, 0x90, 0x5b, 0x7f, 0x00, 0x90, 0x47, 0x78, 0x81, 0x1c, 0x80, 0x5b,
  0x30, 0x20, 0x80, 0x47, 0x30, 0x04, 0x90, 0x59, 0x7f, 0x00, 0x90, 0x48,
  0x72, 0x81, 0x1c, 0x80, 0x59, 0x30, 0x25, 0x90, 0x54, 0x7f, 0x81, 0x1c,
  0x80, 0x54, 0x30, 0x13, 0x80, 0x48, 0x30, 0x10, 0x90, 0x59, 0x7f, 0x00,
  0x90, 0x48, 0x72, 0x81, 0x1c, 0x80, 0x59, 0x30, 0x24, 0x90, 0x54, 0x7f,
  0x28, 0x80, 0x48, 0x30, 0x74, 0x80, 0x54, 0x30, 0x25, 0x90, 0x59, 0x7f,
  0x00, 0x90, 0x45, 0x7f, 0x81, 0x1c, 0x80, 0x59, 0x30, 0x12, 0x80, 0x45,
  0x30, 0x11, 0x90, 0x54, 0x7f, 0x00, 0x90, 0x45, 0x7f, 0x81, 0x1c, 0x80,
  0x54, 0x30, 0x24, 0x90, 0x59, 0x7f, 0x81, 0x1c, 0x80, 0x59, 0x30, 0x08,
  0x80, 0x45, 0x30, 0x1c, 0x90, 0x5b, 0x7f, 0x00, 0x90, 0x47, 0x78, 0x81,
  0x1c, 0x80, 0x5b, 0x30, 0x20, 0x80, 0x47, 0x30, 0x05, 0x90, 0x58, 0x7f,
  0x00, 0x90, 0x48, 0x72, 0x81, 0x1c, 0x80, 0x58, 0x30, 0x23, 0x90, 0x54,
  0x7f, 0x81, 0x1c, 0x80, 0x54, 0x30, 0x14, 0x80, 0x48, 0x30, 0x10, 0x90,
  0x58, 0x7f, 0x00, 0x90, 0x48, 0x72, 0x81, 0x1c, 0x80, 0x58, 0x30, 0x25,
  0x90, 0x54, 0x7f, 0x27, 0x80, 0x48, 0x30, 0x75, 0x80, 0x54, 0x30, 0x23,
  0x90, 0x58, 0x7f, 0x00, 0x90, 0x48, 0x72, 0x81, 0x1c, 0x80, 0x58, 0x30,
  0x12, 0x80, 0x48, 0x30, 0x12, 0x90, 0x54, 0x7f, 0x00, 0x90, 0x4a, 0x72,
  0x81, 0x1c, 0x80, 0x54, 0x30, 0x24, 0x90, 0x58, 0x7f, 0x81, 0x1c, 0x80,
  0x58, 0x30, 0x14, 0x80, 0x4a, 0x30, 0x11, 0x90, 0x59, 0x7f, 0x00, 0x90,
  0x48, 0x72, 0x81, 0x1c, 0x80, 0x59, 0x30, 0x1f, 0x80, 0x48, 0x30, 0x04,
  0x90, 0x5b, 0x7f, 0x00, 0x90, 0x48, 0x72, 0x81, 0x1c, 0x80, 0x5b, 0x30,
  0x24, 0x90, 0x56, 0x7f, 0x81, 0x1c, 0x80, 0x56, 0x30, 0x1e, 0x80, 0x48,
  0x30, 0x07, 0x90, 0x5b, 0x7f, 0x00, 0x90, 0x47, 0x78, 0x81, 0x1c, 0x80,
  0x5b, 0x30, 0x23, 0x90, 0x56, 0x7f, 0x38, 0x80, 0x47, 0x30, 0x64, 0x80,
  0x56, 0x30, 0x24, 0x90, 0x5b, 0x7f, 0x00, 0x90, 0x47, 0x78, 0x81, 0x1c,
  0x80, 0x5b, 0x30, 0x0d, 0x80, 0x47, 0x30, 0x17, 0x90, 0x56, 0x7f, 0x00,
  0x90, 0x47, 0x78, 0x81, 0x1c, 0x80, 0x56, 0x30, 0x20, 0x80, 0x47, 0x30,
  0x05, 0x90, 0x5b, 0x7f, 0x00, 0x90, 0x45, 0x7f, 0x81, 0x1c, 0x80, 0x5b,
  0x30, 0x13, 0x80, 0x45, 0x30, 0x10, 0x90, 0x58, 0x7f, 0x00, 0x90, 0x43,
  0x7f, 0x81, 0x1c, 0x80, 0x58, 0x30, 0x21, 0x80, 0x43, 0x30, 0x03, 0x90,
  0x5d, 0x7f, 0x00, 0x90, 0x45, 0x7f, 0x81, 0x1c, 0x80, 0x5d, 0x30, 0x25,
  0x90, 0x58, 0x7f, 0x81, 0x1c, 0x80, 0x58, 0x30, 0x23, 0x90, 0x5d, 0x7f,
  0x81, 0x1c, 0x80, 0x5d, 0x30, 0x24, 0x90, 0x58, 0x7f, 0x81, 0x1c, 0x80,
  0x58, 0x30, 0x24, 0x90, 0x5d, 0x7f, 0x81, 0x1c, 0x80, 0x5d, 0x30, 0x25,
  0x90, 0x58, 0x7f, 0x81, 0x1c, 0x80, 0x58, 0x30, 0x23, 0x90, 0x5d, 0x7f,
  0x81, 0x1c, 0x80, 0x5d, 0x30, 0x24, 0x90, 0x5b, 0x7f, 0x81, 0x1c, 0x80,
  0x5b, 0x30, 0x25, 0x90, 0x59, 0x7f, 0x37, 0x80, 0x45, 0x30, 0x65, 0x80,
  0x59, 0x30, 0x23, 0x90, 0x54, 0x7f, 0x81, 0x1c, 0x80, 0x54, 0x30, 0x24,
  0x90, 0x59, 0x7f, 0x81, 0x1c, 0x80, 0x59, 0x30, 0x24, 0x90, 0x54, 0x7f,
  0x81, 0x1c, 0x80, 0x54, 0x30, 0x25, 0x90, 0x59, 0x7f, 0x81, 0x1c, 0x80,
  0x59, 0x30, 0x23, 0x90, 0x54, 0x7f, 0x81, 0x1c, 0x80, 0x54, 0x30, 0x24,
  0x90, 0x59, 0x7f, 0x81, 0x1c, 0x80, 0x59, 0x30, 0x25, 0x90, 0x5b, 0x7f,
  0x81, 0x1c, 0x80, 0x5b, 0x30, 0x23, 0x90, 0x58, 0x7f, 0x81, 0x1c, 0x80,
  0x58, 0x30, 0x24, 0x90, 0x54, 0x7f, 0x81, 0x1c, 0x80, 0x54, 0x30, 0x24,
  0x90, 0x58, 0x7f, 0x00, 0x90, 0x48, 0x71, 0x81, 0x1c, 0x80, 0x58, 0x30,
  0x25, 0x90, 0x54, 0x7f, 0x81, 0x1c, 0x80, 0x54, 0x30, 0x03, 0x80, 0x48,
  0x30, 0x20, 0x90, 0x58, 0x7f, 0x00, 0x90, 0x48, 0x71, 0x81, 0x1c, 0x80,
  0x58, 0x30, 0x24, 0x90, 0x54, 0x7f, 0x81, 0x1c, 0x80, 0x54, 0x30, 0x0a,
  0x80, 0x48, 0x30, 0x1b, 0x90, 0x58, 0x7f, 0x00, 0x90, 0x48, 0x71, 0x81,
  0x1c, 0x80, 0x58, 0x30, 0x09, 0x80, 0x48, 0x30, 0x1a, 0x90, 0x59, 0x7f,
  0x00, 0x90, 0x48, 0x71, 0x81, 0x1c, 0x80, 0x59, 0x30, 0x12, 0x80, 0x48,
  0x30, 0x12, 0x90, 0x5b, 0x7f, 0x00, 0x90, 0x48, 0x71, 0x81, 0x1c, 0x80,
  0x5b, 0x30, 0x24, 0x90, 0x56, 0x7f, 0x81, 0x1c, 0x80, 0x56, 0x30, 0x0c,
  0x80, 0x48, 0x30, 0x19, 0x90, 0x5b, 0x7f, 0x00, 0x90, 0x47, 0x78, 0x81,
  0x1c, 0x80, 0x5b, 0x30, 0x23, 0x90, 0x56, 0x7f, 0x77, 0x80, 0x47, 0x30,
  0x25, 0x80, 0x56, 0x30, 0x24, 0x90, 0x5b, 0x7f, 0x00, 0x90, 0x47, 0x78,
  0x81, 0x1c, 0x80, 0x5b, 0x30, 0x0d, 0x80, 0x47, 0x30, 0x18, 0x90, 0x56,
  0x7f, 0x00, 0x90, 0x47, 0x78, 0x81, 0x1c, 0x80, 0x56, 0x30, 0x1f, 0x80,
  0x47, 0x30, 0x04, 0x90, 0x5b, 0x7f, 0x00, 0x90, 0x45, 0x7f, 0x81, 0x1c,
  0x80, 0x5b, 0x30, 0x14, 0x80, 0x45, 0x30, 0x10, 0x90, 0x58, 0x7f, 0x00,
  0x90, 0x43, 0x7f, 0x81, 0x1c, 0x80, 0x58, 0x30, 0x20, 0x80, 0x43, 0x30,
  0x04, 0x90, 0x5d, 0x7f, 0x00, 0x90, 0x45, 0x7f, 0x81, 0x1c, 0x80, 0x5d,
  0x30, 0x25, 0x90, 0x58, 0x7f, 0x81, 0x1c, 0x80, 0x58, 0x30, 0x23, 0x90,
  0x5d, 0x7f, 0x81, 0x1c, 0x80, 0x5d, 0x30, 0x24, 0x90, 0x58, 0x7f, 0x81,
  0x1c, 0x80, 0x58, 0x30, 0x25, 0x90, 0x5d, 0x7f, 0x81, 0x1c, 0x80, 0x5d,
  0x30, 0x23, 0x90, 0x58, 0x7f, 0x81, 0x1c, 0x80, 0x58, 0x30, 0x24, 0x90,
  0x5d, 0x7f, 0x81, 0x1c, 0x80, 0x5d, 0x30, 0x24, 0x90, 0x5b, 0x7f, 0x81,
  0x1c, 0x80, 0x5b, 0x30, 0x25, 0x90, 0x59, 0x7f, 0x37, 0x80, 0x45, 0x30,
  0x65, 0x80, 0x59, 0x30, 0x23, 0x90, 0x54, 0x7f, 0x81, 0x1c, 0x80, 0x54,
  0x30, 0x24, 0x90, 0x59, 0x7f, 0x81, 0x1c, 0x80, 0x59, 0x30, 0x25, 0x90,
  0x54, 0x7f, 0x81, 0x1c, 0x80, 0x54, 0x30, 0x23, 0x90, 0x59, 0x7f, 0x81,
  0x1c, 0x80, 0x59, 0x30, 0x24, 0x90, 0x54, 0x7f, 0x81, 0x1c, 0x80, 0x54,
  0x30, 0x24, 0x90, 0x59, 0x7f, 0x81, 0x1c, 0x80, 0x59, 0x30, 0x25, 0x90,
  0x5b, 0x7f, 0x81, 0x1c, 0x80, 0x5b, 0x30, 0x23, 0x90, 0x58, 0x7f, 0x81,
  0x1c, 0x80, 0x58, 0x30, 0x24, 0x90, 0x54, 0x7f, 0x81, 0x1c, 0x80, 0x54,
  0x30, 0x25, 0x90, 0x58, 0x7f, 0x00, 0x90, 0x48, 0x72, 0x81, 0x1c, 0x80,
  0x58, 0x30, 0x23, 0x90, 0x54, 0x7f, 0x81, 0x16, 0x80, 0x48, 0x30, 0x06,
  0x80, 0x54, 0x30, 0x24, 0x90, 0x58, 0x7f, 0x00, 0x90, 0x48, 0x72, 0x81,
  0x1c, 0x80, 0x58, 0x30, 0x24, 0x90, 0x54, 0x7f, 0x81, 0x1c, 0x80, 0x54,
  0x30, 0x0c, 0x80, 0x48, 0x30, 0x19, 0x90, 0x58, 0x7f, 0x00, 0x90, 0x48,
  0x72, 0x81, 0x1c, 0x80, 0x58, 0x30, 0x23, 0x90, 0x59, 0x7f, 0x81, 0x1c,
  0x80, 0x59, 0x30, 0x07, 0x80, 0x48, 0x30, 0x1d, 0x90, 0x5b, 0x7f, 0x00,
  0x90, 0x48, 0x72, 0x81, 0x1c, 0x80, 0x5b, 0x30, 0x25, 0x90, 0x56, 0x7f,
  0x81, 0x1c, 0x80, 0x56, 0x30, 0x1f, 0x80, 0x48, 0x30, 0x04, 0x90, 0x5b,
  0x7f, 0x00, 0x90, 0x47, 0x78, 0x81, 0x1c, 0x80, 0x5b, 0x30, 0x24, 0x90,
  0x56, 0x7f, 0x70, 0x80, 0x47, 0x30, 0x2c, 0x80, 0x56, 0x30, 0x24, 0x90,
  0x5b, 0x7f, 0x00, 0x90, 0x47, 0x78, 0x81, 0x1c, 0x80, 0x5b, 0x30, 0x08,
  0x80, 0x47, 0x30, 0x1d, 0x90, 0x56, 0x7f, 0x00, 0x90, 0x47, 0x78, 0x81,
  0x1c, 0x80, 0x56, 0x30, 0x23, 0x90, 0x5b, 0x7f, 0x81, 0x1c, 0x80, 0x5b,
  0x30, 0x21, 0x80, 0x47, 0x30, 0x03, 0x90, 0x58, 0x7f, 0x00, 0x90, 0x47,
  0x78, 0x81, 0x1c, 0x80, 0x58, 0x30, 0x25, 0x90, 0x5d, 0x7f, 0x81, 0x1c,
  0x80, 0x5d, 0x30, 0x1f, 0x80, 0x47, 0x30, 0x04, 0x90, 0x58, 0x7f, 0x00,
  0x90, 0x48, 0x72, 0x81, 0x1c, 0x80, 0x58, 0x30, 0x24, 0x90, 0x5d, 0x7f,
  0x81, 0x1c, 0x80, 0x5d, 0x30, 0x24, 0x90, 0x58, 0x7f, 0x81, 0x1c, 0x80,
  0x58, 0x30, 0x20, 0x80, 0x48, 0x30, 0x05, 0x90, 0x5d, 0x7f, 0x00, 0x90,
  0x47, 0x78, 0x81, 0x1c, 0x80, 0x5d, 0x30, 0x1f, 0x80, 0x47, 0x30, 0x04,
  0x90, 0x58, 0x7f, 0x00, 0x90, 0x45, 0x7f, 0x81, 0x1c, 0x80, 0x58, 0x30,
  0x24, 0x90, 0x5d, 0x7f, 0x81, 0x1c, 0x80, 0x5d, 0x30, 0x25, 0x90, 0x58,
  0x7f, 0x81, 0x1c, 0x80, 0x58, 0x30, 0x23, 0x90, 0x5d, 0x7f, 0x81, 0x1c,
  0x80, 0x5d, 0x30, 0x24, 0x90, 0x58, 0x7f, 0x81, 0x1c, 0x80, 0x58, 0x30,
  0x24, 0x90, 0x5d, 0x7f, 0x81, 0x1c, 0x80, 0x5d, 0x30, 0x25, 0x90, 0x58,
  0x7f, 0x81, 0x1c, 0x80, 0x58, 0x30, 0x23, 0x90, 0x5d, 0x7f, 0x81, 0x1c,
  0x80, 0x5d, 0x30, 0x05, 0x80, 0x45, 0x30, 0x1f, 0x90, 0x58, 0x7f, 0x81,
  0x1c, 0x80, 0x58, 0x30, 0x25, 0x90, 0x5d, 0x7f, 0x81, 0x1c, 0x80, 0x5d,
  0x30, 0x23, 0x90, 0x58, 0x7f, 0x81, 0x1c, 0x80, 0x58, 0x30, 0x24, 0x90,
  0x5d, 0x7f, 0x81, 0x1c, 0x80, 0x5d, 0x30, 0x24, 0x90, 0x58, 0x7f, 0x81,
  0x1c, 0x80, 0x58, 0x30, 0x25, 0x90, 0x5d, 0x7f, 0x81, 0x1c, 0x80, 0x5d,
  0x30, 0x23, 0x90, 0x58, 0x7f, 0x81, 0x1c, 0x80, 0x58, 0x30, 0x24, 0x90,
  0x5d, 0x7f, 0x81, 0x1c, 0x80, 0x5d, 0x30, 0x25, 0x90, 0x58, 0x7f, 0x81,
  0x1c, 0x80, 0x58, 0x30, 0x23, 0x90, 0x5d, 0x7f, 0x81, 0x1c, 0x80, 0x5d,
  0x30, 0x24, 0x90, 0x58, 0x7f, 0x81, 0x1c, 0x80, 0x58, 0x30, 0x24, 0x90,
  0x5d, 0x7f, 0x81, 0x1c, 0x80, 0x5d, 0x30, 0x25, 0x90, 0x58, 0x7f, 0x81,
  0x1c, 0x80, 0x58, 0x30, 0x23, 0x90, 0x5d, 0x7f, 0x81, 0x1c, 0x80, 0x5d,
  0x30, 0x24, 0x90, 0x58, 0x7f, 0x81, 0x1c, 0x80, 0x58, 0x30, 0x25, 0x90,
  0x5d, 0x7f, 0x81, 0x1c, 0x80, 0x5d, 0x30, 0x23, 0x90, 0x58, 0x7f, 0x81,
  0x1c, 0x80, 0x58, 0x30, 0x24, 0x90, 0x5d, 0x7f, 0x81, 0x1c, 0x80, 0x5d,
  0x30, 0x24, 0x90, 0x58, 0x7f, 0x81, 0x1c, 0x80, 0x58, 0x30, 0x25, 0x90,
  0x5d, 0x7f, 0x81, 0x1c, 0x80, 0x5d, 0x30, 0x23, 0x90, 0x58, 0x7f, 0x81,
  0x1c, 0x80, 0x58, 0x30, 0x24, 0x90, 0x5d, 0x7f, 0x81, 0x1c, 0x80, 0x5d,
  0x30, 0x25, 0x90, 0x58, 0x7f, 0x81, 0x1c, 0x80, 0x58, 0x30, 0x23, 0x90,
  0x5d, 0x7f, 0x81, 0x1c, 0x80, 0x5d, 0x30, 0x24, 0x90, 0x58, 0x7f, 0x81,
  0x1c, 0x80, 0x58, 0x30, 0x24, 0x90, 0x5d, 0x7f, 0x81, 0x1c, 0x80, 0x5d,
  0x30, 0x25, 0x90, 0x58, 0x7f, 0x81, 0x1c, 0x80, 0x58, 0x30, 0x23, 0x90,
  0x5d, 0x7f, 0x81, 0x1c, 0x80, 0x5d, 0x30, 0x24, 0x90, 0x58, 0x7f, 0x81,
  0x1c, 0x80, 0x58, 0x30, 0x25, 0x90, 0x5d, 0x7f, 0x81, 0x1c, 0x80, 0x5d,
  0x30, 0x23, 0x90, 0x58, 0x7f, 0x81, 0x1c, 0x80, 0x58, 0x30, 0x24, 0x90,
  0x5d, 0x7f, 0x81, 0x1c, 0x80, 0x5d, 0x30, 0x24, 0x90, 0x58, 0x7f, 0x81,
  0x1c, 0x80, 0x58, 0x30, 0x25, 0x90, 0x5d, 0x7f, 0x81, 0x1c, 0x80, 0x5d,
  0x30, 0x23, 0x90, 0x58, 0x7f, 0x81, 0x1c, 0x80, 0x58, 0x30, 0x24, 0x90,
  0x5d, 0x7f, 0x81, 0x1c, 0x80, 0x5d, 0x30, 0x81, 0x06, 0xff, 0x2f, 0x00
};
