// Dragonforce - Through Fire & Flames

{
	0x4d, 0x54, 0x68, 0x64, 0x00, 0x00, 0x00, 0x06, 
	0x00, 0x01, 0x00, 0x01, 0x01, 0x00, 0x4d, 0x54, 
	0x72, 0x6b, 0x00, 0x00, 0x7d, 0x9e, 0x00, 0xff, 
	0x58, 0x04, 0x04, 0x02, 0x18, 0x08, 0x00, 0xff, 
	0x51, 0x03, 0x04, 0x93, 0xe0, 0x00, 0x90, 0x30, 
	0x52, 0x00, 0x90, 0x3c, 0x49, 0x64, 0x80, 0x3c, 
	0x30, 0x00, 0x80, 0x30, 0x30, 0x1c, 0x90, 0x3e, 
	0x44, 0x64, 0x80, 0x3e, 0x30, 0x1c, 0x90, 0x3f, 
	0x45, 0x64, 0x80, 0x3f, 0x30, 0x1c, 0x90, 0x3c, 
	0x40, 0x64, 0x80, 0x3c, 0x30, 0x1c, 0x90, 0x3e, 
	0x48, 0x64, 0x80, 0x3e, 0x30, 0x1c, 0x90, 0x3f, 
	0x43, 0x64, 0x80, 0x3f, 0x30, 0x1c, 0x90, 0x3c, 
	0x3a, 0x64, 0x80, 0x3c, 0x30, 0x1c, 0x90, 0x3e, 
	0x42, 0x64, 0x80, 0x3e, 0x30, 0x1c, 0x90, 0x43, 
	0x4a, 0x64, 0x80, 0x43, 0x30, 0x1c, 0x90, 0x3f, 
	0x3d, 0x64, 0x80, 0x3f, 0x30, 0x1c, 0x90, 0x41, 
	0x43, 0x64, 0x80, 0x41, 0x30, 0x1c, 0x90, 0x3e, 
	0x3b, 0x64, 0x80, 0x3e, 0x30, 0x1c, 0x90, 0x3f, 
	0x47, 0x64, 0x80, 0x3f, 0x30, 0x1c, 0x90, 0x3c, 
	0x37, 0x64, 0x80, 0x3c, 0x30, 0x1c, 0x90, 0x3e, 
	0x3d, 0x64, 0x80, 0x3e, 0x30, 0x1c, 0x90, 0x3a, 
	0x3e, 0x64, 0x80, 0x3a, 0x30, 0x1c, 0x90, 0x30, 
	0x53, 0x00, 0x90, 0x3c, 0x47, 0x64, 0x80, 0x3c, 
	0x30, 0x00, 0x80, 0x30, 0x30, 0x1c, 0x90, 0x3e, 
	0x43, 0x64, 0x80, 0x3e, 0x30, 0x1c, 0x90, 0x3f, 
	0x46, 0x64, 0x80, 0x3f, 0x30, 0x1c, 0x90, 0x3c, 
	0x3e, 0x64, 0x80, 0x3c, 0x30, 0x1c, 0x90, 0x3e, 
	0x43, 0x64, 0x80, 0x3e, 0x30, 0x1c, 0x90, 0x3f, 
	0x44, 0x64, 0x80, 0x3f, 0x30, 0x1c, 0x90, 0x3c, 
	0x3b, 0x64, 0x80, 0x3c, 0x30, 0x1c, 0x90, 0x3e, 
	0x44, 0x64, 0x80, 0x3e, 0x30, 0x1c, 0x90, 0x43, 
	0x4c, 0x64, 0x80, 0x43, 0x30, 0x1c, 0x90, 0x3f, 
	0x3e, 0x64, 0x80, 0x3f, 0x30, 0x1c, 0x90, 0x41, 
	0x43, 0x64, 0x80, 0x41, 0x30, 0x1c, 0x90, 0x3e, 
	0x3b, 0x64, 0x80, 0x3e, 0x30, 0x1c, 0x90, 0x3f, 
	0x3f, 0x64, 0x80, 0x3f, 0x30, 0x1c, 0x90, 0x3c, 
	0x3f, 0x64, 0x80, 0x3c, 0x30, 0x1c, 0x90, 0x3e, 
	0x41, 0x64, 0x80, 0x3e, 0x30, 0x1c, 0x90, 0x3a, 
	0x3d, 0x64, 0x80, 0x3a, 0x30, 0x1c, 0x90, 0x2c, 
	0x4d, 0x00, 0x90, 0x3c, 0x44, 0x64, 0x80, 0x3c, 
	0x30, 0x1c, 0x90, 0x3e, 0x46, 0x64, 0x80, 0x3e, 
	0x30, 0x1c, 0x90, 0x3f, 0x41, 0x64, 0x80, 0x3f, 
	0x30, 0x1c, 0x90, 0x3c, 0x38, 0x64, 0x80, 0x3c, 
	0x30, 0x1c, 0x90, 0x3e, 0x43, 0x64, 0x80, 0x3e, 
	0x30, 0x1c, 0x90, 0x3f, 0x40, 0x64, 0x80, 0x3f, 
	0x30, 0x1c, 0x90, 0x3c, 0x3c, 0x64, 0x80, 0x3c, 
	0x30, 0x1c, 0x90, 0x3e, 0x42, 0x64, 0x80, 0x3e, 
	0x30, 0x1c, 0x90, 0x43, 0x4c, 0x64, 0x80, 0x43, 
	0x30, 0x1c, 0x90, 0x3f, 0x3d, 0x64, 0x80, 0x3f, 
	0x30, 0x1c, 0x90, 0x41, 0x43, 0x64, 0x80, 0x41, 
	0x30, 0x1c, 0x90, 0x3e, 0x38, 0x64, 0x80, 0x3e, 
	0x30, 0x1c, 0x90, 0x3f, 0x45, 0x64, 0x80, 0x3f, 
	0x30, 0x1c, 0x90, 0x3c, 0x3f, 0x64, 0x80, 0x3c, 
	0x30, 0x1c, 0x90, 0x3e, 0x47, 0x64, 0x80, 0x3e, 
	0x30, 0x1c, 0x90, 0x3a, 0x41, 0x64, 0x80, 0x2c, 
	0x30, 0x00, 0x80, 0x3a, 0x30, 0x1c, 0x90, 0x2b, 
	0x56, 0x00, 0x90, 0x3c, 0x44, 0x64, 0x80, 0x3c, 
	0x30, 0x00, 0x80, 0x2b, 0x30, 0x1c, 0x90, 0x3e, 
	0x47, 0x64, 0x80, 0x3e, 0x30, 0x1c, 0x90, 0x3f, 
	0x4b, 0x64, 0x80, 0x3f, 0x30, 0x1c, 0x90, 0x3c, 
	0x3d, 0x64, 0x80, 0x3c, 0x30, 0x1c, 0x90, 0x3e, 
	0x42, 0x64, 0x80, 0x3e, 0x30, 0x1c, 0x90, 0x3f, 
	0x42, 0x64, 0x80, 0x3f, 0x30, 0x1c, 0x90, 0x3c, 
	0x3d, 0x64, 0x80, 0x3c, 0x30, 0x1c, 0x90, 0x3e, 
	0x48, 0x64, 0x80, 0x3e, 0x30, 0x1c, 0x90, 0x2e, 
	0x52, 0x00, 0x90, 0x43, 0x4c, 0x64, 0x80, 0x43, 
	0x30, 0x1c, 0x90, 0x3f, 0x3a, 0x64, 0x80, 0x3f, 
	0x30, 0x1c, 0x90, 0x41, 0x41, 0x64, 0x80, 0x41, 
	0x30, 0x1c, 0x90, 0x3e, 0x3c, 0x64, 0x80, 0x3e, 
	0x30, 0x1c, 0x90, 0x3f, 0x40, 0x64, 0x80, 0x3f, 
	0x30, 0x1c, 0x90, 0x3c, 0x3a, 0x64, 0x80, 0x3c, 
	0x30, 0x1c, 0x90, 0x3e, 0x45, 0x64, 0x80, 0x3e, 
	0x30, 0x1c, 0x90, 0x3a, 0x3d, 0x64, 0x80, 0x2e, 
	0x30, 0x00, 0x80, 0x3a, 0x30, 0x1c, 0x90, 0x30, 
	0x5d, 0x00, 0x90, 0x3c, 0x43, 0x64, 0x80, 0x3c, 
	0x30, 0x00, 0x80, 0x30, 0x30, 0x1c, 0x90, 0x3e, 
	0x44, 0x64, 0x80, 0x3e, 0x30, 0x1c, 0x90, 0x3f, 
	0x44, 0x64, 0x80, 0x3f, 0x30, 0x1c, 0x90, 0x3c, 
	0x36, 0x64, 0x80, 0x3c, 0x30, 0x1c, 0x90, 0x3e, 
	0x45, 0x64, 0x80, 0x3e, 0x30, 0x1c, 0x90, 0x3f, 
	0x46, 0x64, 0x80, 0x3f, 0x30, 0x1c, 0x90, 0x3c, 
	0x38, 0x64, 0x80, 0x3c, 0x30, 0x1c, 0x90, 0x3e, 
	0x47, 0x64, 0x80, 0x3e, 0x30, 0x1c, 0x90, 0x43, 
	0x46, 0x64, 0x80, 0x43, 0x30, 0x1c, 0x90, 0x3f, 
	0x3a, 0x64, 0x80, 0x3f, 0x30, 0x1c, 0x90, 0x41, 
	0x45, 0x64, 0x80, 0x41, 0x30, 0x1c, 0x90, 0x3e, 
	0x3c, 0x64, 0x80, 0x3e, 0x30, 0x1c, 0x90, 0x3f, 
	0x44, 0x64, 0x80, 0x3f, 0x30, 0x1c, 0x90, 0x3c, 
	0x3a, 0x64, 0x80, 0x3c, 0x30, 0x1c, 0x90, 0x3e, 
	0x42, 0x64, 0x80, 0x3e, 0x30, 0x1c, 0x90, 0x3a, 
	0x3d, 0x64, 0x80, 0x3a, 0x30, 0x1c, 0x90, 0x30, 
	0x4e, 0x00, 0x90, 0x3c, 0x43, 0x64, 0x80, 0x3c, 
	0x30, 0x00, 0x80, 0x30, 0x30, 0x1c, 0x90, 0x3e, 
	0x49, 0x64, 0x80, 0x3e, 0x30, 0x1c, 0x90, 0x3f, 
	0x43, 0x64, 0x80, 0x3f, 0x30, 0x1c, 0x90, 0x3c, 
	0x3c, 0x64, 0x80, 0x3c, 0x30, 0x1c, 0x90, 0x3e, 
	0x44, 0x64, 0x80, 0x3e, 0x30, 0x1c, 0x90, 0x3f, 
	0x44, 0x64, 0x80, 0x3f, 0x30, 0x1c, 0x90, 0x3c, 
	0x38, 0x64, 0x80, 0x3c, 0x30, 0x1c, 0x90, 0x3e, 
	0x41, 0x64, 0x80, 0x3e, 0x30, 0x1c, 0x90, 0x43, 
	0x4f, 0x64, 0x80, 0x43, 0x30, 0x1c, 0x90, 0x3f, 
	0x3b, 0x64, 0x80, 0x3f, 0x30, 0x1c, 0x90, 0x41, 
	0x3f, 0x64, 0x80, 0x41, 0x30, 0x1c, 0x90, 0x3e, 
	0x3d, 0x64, 0x80, 0x3e, 0x30, 0x1c, 0x90, 0x3f, 
	0x45, 0x64, 0x80, 0x3f, 0x30, 0x1c, 0x90, 0x3c, 
	0x3a, 0x64, 0x80, 0x3c, 0x30, 0x1c, 0x90, 0x3e, 
	0x42, 0x64, 0x80, 0x3e, 0x30, 0x1c, 0x90, 0x3a, 
	0x41, 0x64, 0x80, 0x3a, 0x30, 0x1c, 0x90, 0x2c, 
	0x53, 0x00, 0x90, 0x3c, 0x3f, 0x64, 0x80, 0x3c, 
	0x30, 0x1c, 0x90, 0x3e, 0x41, 0x64, 0x80, 0x3e, 
	0x30, 0x1c, 0x90, 0x3f, 0x43, 0x64, 0x80, 0x3f, 
	0x30, 0x1c, 0x90, 0x3c, 0x3a, 0x64, 0x80, 0x3c, 
	0x30, 0x1c, 0x90, 0x3e, 0x44, 0x64, 0x80, 0x3e, 
	0x30, 0x1c, 0x90, 0x3f, 0x42, 0x64, 0x80, 0x3f, 
	0x30, 0x1c, 0x90, 0x3c, 0x3d, 0x64, 0x80, 0x3c, 
	0x30, 0x1c, 0x90, 0x3e, 0x46, 0x64, 0x80, 0x3e, 
	0x30, 0x1c, 0x90, 0x43, 0x49, 0x64, 0x80, 0x43, 
	0x30, 0x1c, 0x90, 0x3f, 0x3b, 0x64, 0x80, 0x3f, 
	0x30, 0x1c, 0x90, 0x41, 0x43, 0x64, 0x80, 0x41, 
	0x30, 0x1c, 0x90, 0x3e, 0x37, 0x64, 0x80, 0x3e, 
	0x30, 0x1c, 0x90, 0x3f, 0x40, 0x64, 0x80, 0x3f, 
	0x30, 0x1c, 0x90, 0x3c, 0x3a, 0x64, 0x80, 0x3c, 
	0x30, 0x1c, 0x90, 0x3e, 0x46, 0x64, 0x80, 0x3e, 
	0x30, 0x1c, 0x90, 0x3a, 0x3e, 0x64, 0x80, 0x2c, 
	0x30, 0x00, 0x80, 0x3a, 0x30, 0x1c, 0x90, 0x2b, 
	0x5b, 0x00, 0x90, 0x3c, 0x43, 0x64, 0x80, 0x3c, 
	0x30, 0x00, 0x80, 0x2b, 0x30, 0x1c, 0x90, 0x3e, 
	0x46, 0x64, 0x80, 0x3e, 0x30, 0x1c, 0x90, 0x3f, 
	0x43, 0x64, 0x80, 0x3f, 0x30, 0x1c, 0x90, 0x3c, 
	0x40, 0x64, 0x80, 0x3c, 0x30, 0x1c, 0x90, 0x3e, 
	0x43, 0x64, 0x80, 0x3e, 0x30, 0x1c, 0x90, 0x3f, 
	0x46, 0x64, 0x80, 0x3f, 0x30, 0x1c, 0x90, 0x3c, 
	0x3b, 0x64, 0x80, 0x3c, 0x30, 0x1c, 0x90, 0x3e, 
	0x41, 0x64, 0x80, 0x3e, 0x30, 0x1c, 0x90, 0x2b, 
	0x4f, 0x00, 0x90, 0x46, 0x4f, 0x24, 0x80, 0x46, 
	0x30, 0x1c, 0x90, 0x43, 0x3f, 0x24, 0x80, 0x43, 
	0x30, 0x1c, 0x90, 0x3f, 0x38, 0x24, 0x80, 0x3f, 
	0x30, 0x1c, 0x90, 0x3c, 0x40, 0x24, 0x80, 0x2b, 
	0x30, 0x00, 0x80, 0x3c, 0x30, 0x1c, 0x90, 0x2b, 
	0x57, 0x00, 0x90, 0x3a, 0x3f, 0x24, 0x80, 0x3a, 
	0x30, 0x1c, 0x90, 0x3c, 0x44, 0x24, 0x80, 0x3c, 
	0x30, 0x1c, 0x90, 0x3f, 0x47, 0x24, 0x80, 0x3f, 
	0x30, 0x1c, 0x90, 0x43, 0x4a, 0x24, 0x80, 0x2b, 
	0x30, 0x00, 0x80, 0x43, 0x30, 0x1c, 0x90, 0x2b, 
	0x5d, 0x00, 0x90, 0x46, 0x48, 0x24, 0x80, 0x46, 
	0x30, 0x1c, 0x90, 0x43, 0x3d, 0x24, 0x80, 0x43, 
	0x30, 0x1c, 0x90, 0x3f, 0x37, 0x24, 0x80, 0x3f, 
	0x30, 0x1c, 0x90, 0x3e, 0x3c, 0x24, 0x80, 0x2b, 
	0x30, 0x00, 0x80, 0x3e, 0x30, 0x1c, 0x90, 0x3c, 
	0x3c, 0x24, 0x80, 0x3c, 0x30, 0x1c, 0x90, 0x3e, 
	0x44, 0x24, 0x80, 0x3e, 0x30, 0x1c, 0x90, 0x3f, 
	0x46, 0x24, 0x80, 0x3f, 0x30, 0x1c, 0x90, 0x43, 
	0x47, 0x24, 0x80, 0x43, 0x30, 0x1c, 0x90, 0x30, 
	0x41, 0x00, 0x90, 0x3f, 0x3c, 0x81, 0x64, 0x80, 
	0x3f, 0x30, 0x1c, 0x90, 0x3c, 0x33, 0x64, 0x80, 
	0x30, 0x30, 0x00, 0x80, 0x3c, 0x30, 0x1c, 0x90, 
	0x30, 0x4d, 0x00, 0x90, 0x3f, 0x47, 0x81, 0x64, 
	0x80, 0x3f, 0x30, 0x1c, 0x90, 0x3c, 0x3e, 0x64, 
	0x80, 0x30, 0x30, 0x00, 0x80, 0x3c, 0x30, 0x1c, 
	0x90, 0x30, 0x50, 0x00, 0x90, 0x3f, 0x4a, 0x64, 
	0x80, 0x3f, 0x30, 0x1c, 0x90, 0x3c, 0x3a, 0x64, 
	0x80, 0x30, 0x30, 0x00, 0x80, 0x3c, 0x30, 0x1c, 
	0x90, 0x30, 0x4e, 0x00, 0x90, 0x3f, 0x46, 0x81, 
	0x64, 0x80, 0x3f, 0x30, 0x1c, 0x90, 0x3c, 0x3f, 
	0x64, 0x80, 0x30, 0x30, 0x00, 0x80, 0x3c, 0x30, 
	0x1c, 0x90, 0x30, 0x4b, 0x00, 0x90, 0x3f, 0x3f, 
	0x81, 0x64, 0x80, 0x3f, 0x30, 0x1c, 0x90, 0x3c, 
	0x3c, 0x64, 0x80, 0x30, 0x30, 0x00, 0x80, 0x3c, 
	0x30, 0x1c, 0x90, 0x30, 0x4c, 0x00, 0x90, 0x3f, 
	0x46, 0x64, 0x80, 0x3f, 0x30, 0x1c, 0x90, 0x3c, 
	0x3c, 0x64, 0x80, 0x30, 0x30, 0x00, 0x80, 0x3c, 
	0x30, 0x1c, 0x90, 0x2c, 0x4b, 0x00, 0x90, 0x43, 
	0x4c, 0x81, 0x64, 0x80, 0x43, 0x30, 0x1c, 0x90, 
	0x3c, 0x36, 0x64, 0x80, 0x2c, 0x30, 0x00, 0x80, 
	0x3c, 0x30, 0x1c, 0x90, 0x2c, 0x4b, 0x00, 0x90, 
	0x43, 0x45, 0x81, 0x64, 0x80, 0x43, 0x30, 0x1c, 
	0x90, 0x3c, 0x35, 0x64, 0x80, 0x2c, 0x30, 0x00, 
	0x80, 0x3c, 0x30, 0x1c, 0x90, 0x2c, 0x4c, 0x00, 
	0x90, 0x43, 0x4b, 0x64, 0x80, 0x43, 0x30, 0x1c, 
	0x90, 0x3c, 0x3b, 0x64, 0x80, 0x2c, 0x30, 0x00, 
	0x80, 0x3c, 0x30, 0x1c, 0x90, 0x2c, 0x4d, 0x00, 
	0x90, 0x43, 0x4f, 0x81, 0x64, 0x80, 0x43, 0x30, 
	0x1c, 0x90, 0x3c, 0x34, 0x64, 0x80, 0x2c, 0x30, 
	0x00, 0x80, 0x3c, 0x30, 0x1c, 0x90, 0x2c, 0x4c, 
	0x00, 0x90, 0x43, 0x4e, 0x81, 0x64, 0x80, 0x43, 
	0x30, 0x1c, 0x90, 0x3c, 0x39, 0x64, 0x80, 0x2c, 
	0x30, 0x00, 0x80, 0x3c, 0x30, 0x1c, 0x90, 0x2c, 
	0x54, 0x00, 0x90, 0x43, 0x50, 0x64, 0x80, 0x43, 
	0x30, 0x1c, 0x90, 0x3c, 0x37, 0x64, 0x80, 0x2c, 
	0x30, 0x00, 0x80, 0x3c, 0x30, 0x1c, 0x90, 0x29, 
	0x48, 0x00, 0x90, 0x41, 0x46, 0x81, 0x64, 0x80, 
	0x41, 0x30, 0x1c, 0x90, 0x3c, 0x39, 0x64, 0x80, 
	0x29, 0x30, 0x00, 0x80, 0x3c, 0x30, 0x1c, 0x90, 
	0x29, 0x47, 0x00, 0x90, 0x41, 0x4b, 0x81, 0x64, 
	0x80, 0x41, 0x30, 0x1c, 0x90, 0x3c, 0x39, 0x64, 
	0x80, 0x29, 0x30, 0x00, 0x80, 0x3c, 0x30, 0x1c, 
	0x90, 0x29, 0x4c, 0x00, 0x90, 0x41, 0x42, 0x64, 
	0x80, 0x41, 0x30, 0x1c, 0x90, 0x3c, 0x3a, 0x64, 
	0x80, 0x29, 0x30, 0x00, 0x80, 0x3c, 0x30, 0x1c, 
	0x90, 0x29, 0x4c, 0x00, 0x90, 0x41, 0x46, 0x81, 
	0x64, 0x80, 0x41, 0x30, 0x1c, 0x90, 0x3c, 0x3d, 
	0x64, 0x80, 0x29, 0x30, 0x00, 0x80, 0x3c, 0x30, 
	0x1c, 0x90, 0x29, 0x49, 0x00, 0x90, 0x41, 0x49, 
	0x81, 0x64, 0x80, 0x41, 0x30, 0x1c, 0x90, 0x3c, 
	0x36, 0x64, 0x80, 0x29, 0x30, 0x00, 0x80, 0x3c, 
	0x30, 0x1c, 0x90, 0x29, 0x4d, 0x00, 0x90, 0x41, 
	0x4d, 0x64, 0x80, 0x41, 0x30, 0x1c, 0x90, 0x3c, 
	0x3c, 0x64, 0x80, 0x29, 0x30, 0x00, 0x80, 0x3c, 
	0x30, 0x1c, 0x90, 0x2c, 0x54, 0x00, 0x90, 0x3f, 
	0x46, 0x81, 0x64, 0x80, 0x3f, 0x30, 0x1c, 0x90, 
	0x3c, 0x3c, 0x64, 0x80, 0x2c, 0x30, 0x00, 0x80, 
	0x3c, 0x30, 0x1c, 0x90, 0x2c, 0x4c, 0x00, 0x90, 
	0x3f, 0x45, 0x81, 0x64, 0x80, 0x3f, 0x30, 0x1c, 
	0x90, 0x3c, 0x3a, 0x64, 0x80, 0x2c, 0x30, 0x00, 
	0x80, 0x3c, 0x30, 0x1c, 0x90, 0x2c, 0x4d, 0x00, 
	0x90, 0x3f, 0x46, 0x64, 0x80, 0x3f, 0x30, 0x1c, 
	0x90, 0x3c, 0x3e, 0x64, 0x80, 0x2c, 0x30, 0x00, 
	0x80, 0x3c, 0x30, 0x1c, 0x90, 0x2c, 0x53, 0x00, 
	0x90, 0x43, 0x4f, 0x24, 0x80, 0x43, 0x30, 0x1c, 
	0x90, 0x44, 0x47, 0x24, 0x80, 0x44, 0x30, 0x1c, 
	0x90, 0x46, 0x49, 0x24, 0x80, 0x46, 0x30, 0x1c, 
	0x90, 0x48, 0x46, 0x24, 0x80, 0x2c, 0x30, 0x00, 
	0x80, 0x48, 0x30, 0x1c, 0x90, 0x2c, 0x4d, 0x00, 
	0x90, 0x44, 0x37, 0x24, 0x80, 0x44, 0x30, 0x1c, 
	0x90, 0x46, 0x42, 0x24, 0x80, 0x46, 0x30, 0x1c, 
	0x90, 0x48, 0x40, 0x24, 0x80, 0x48, 0x30, 0x1c, 
	0x90, 0x4a, 0x46, 0x24, 0x80, 0x2c, 0x30, 0x00, 
	0x80, 0x4a, 0x30, 0x1c, 0x90, 0x2c, 0x47, 0x00, 
	0x90, 0x46, 0x37, 0x24, 0x80, 0x46, 0x30, 0x1c, 
	0x90, 0x48, 0x43, 0x24, 0x80, 0x48, 0x30, 0x1c, 
	0x90, 0x4a, 0x44, 0x24, 0x80, 0x4a, 0x30, 0x1c, 
	0x90, 0x4b, 0x42, 0x24, 0x80, 0x2c, 0x30, 0x00, 
	0x80, 0x4b, 0x30, 0x1c, 0x90, 0x2c, 0x4b, 0x00, 
	0x90, 0x48, 0x3c, 0x24, 0x80, 0x48, 0x30, 0x1c, 
	0x90, 0x4a, 0x40, 0x24, 0x80, 0x4a, 0x30, 0x1c, 
	0x90, 0x4b, 0x42, 0x24, 0x80, 0x4b, 0x30, 0x1c, 
	0x90, 0x4d, 0x49, 0x24, 0x80, 0x2c, 0x30, 0x00, 
	0x80, 0x4d, 0x30, 0x1c, 0x90, 0x30, 0x51, 0x00, 
	0x90, 0x3f, 0x33, 0x64, 0x80, 0x3f, 0x30, 0x1c, 
	0x90, 0x3f, 0x3a, 0x64, 0x80, 0x3f, 0x30, 0x1c, 
	0x90, 0x3c, 0x3b, 0x64, 0x80, 0x30, 0x30, 0x00, 
	0x80, 0x3c, 0x30, 0x1c, 0x90, 0x30, 0x4d, 0x00, 
	0x90, 0x3f, 0x45, 0x64, 0x80, 0x3f, 0x30, 0x1c, 
	0x90, 0x3f, 0x3d, 0x64, 0x80, 0x3f, 0x30, 0x1c, 
	0x90, 0x3c, 0x3e, 0x64, 0x80, 0x30, 0x30, 0x00, 
	0x80, 0x3c, 0x30, 0x1c, 0x90, 0x30, 0x4a, 0x00, 
	0x90, 0x3f, 0x47, 0x64, 0x80, 0x3f, 0x30, 0x1c, 
	0x90, 0x3c, 0x3d, 0x64, 0x80, 0x30, 0x30, 0x00, 
	0x80, 0x3c, 0x30, 0x1c, 0x90, 0x30, 0x4b, 0x00, 
	0x90, 0x3f, 0x46, 0x64, 0x80, 0x3f, 0x30, 0x1c, 
	0x90, 0x3f, 0x43, 0x64, 0x80, 0x3f, 0x30, 0x1c, 
	0x90, 0x3c, 0x3b, 0x64, 0x80, 0x30, 0x30, 0x00, 
	0x80, 0x3c, 0x30, 0x1c, 0x90, 0x30, 0x4d, 0x00, 
	0x90, 0x3f, 0x45, 0x64, 0x80, 0x3f, 0x30, 0x1c, 
	0x90, 0x3f, 0x3b, 0x64, 0x80, 0x3f, 0x30, 0x1c, 
	0x90, 0x3c, 0x42, 0x64, 0x80, 0x30, 0x30, 0x00, 
	0x80, 0x3c, 0x30, 0x1c, 0x90, 0x30, 0x51, 0x00, 
	0x90, 0x3f, 0x46, 0x64, 0x80, 0x3f, 0x30, 0x1c, 
	0x90, 0x3c, 0x3d, 0x64, 0x80, 0x30, 0x30, 0x00, 
	0x80, 0x3c, 0x30, 0x1c, 0x90, 0x2c, 0x47, 0x00, 
	0x90, 0x43, 0x4d, 0x64, 0x80, 0x43, 0x30, 0x1c, 
	0x90, 0x43, 0x41, 0x64, 0x80, 0x43, 0x30, 0x1c, 
	0x90, 0x3c, 0x37, 0x64, 0x80, 0x2c, 0x30, 0x00, 
	0x80, 0x3c, 0x30, 0x1c, 0x90, 0x2c, 0x4d, 0x00, 
	0x90, 0x43, 0x49, 0x64, 0x80, 0x43, 0x30, 0x1c, 
	0x90, 0x43, 0x46, 0x64, 0x80, 0x43, 0x30, 0x1c, 
	0x90, 0x3c, 0x33, 0x64, 0x80, 0x2c, 0x30, 0x00, 
	0x80, 0x3c, 0x30, 0x1c, 0x90, 0x2c, 0x4c, 0x00, 
	0x90, 0x43, 0x49, 0x64, 0x80, 0x43, 0x30, 0x1c, 
	0x90, 0x3c, 0x39, 0x64, 0x80, 0x2c, 0x30, 0x00, 
	0x80, 0x3c, 0x30, 0x1c, 0x90, 0x2c, 0x49, 0x00, 
	0x90, 0x43, 0x49, 0x64, 0x80, 0x43, 0x30, 0x1c, 
	0x90, 0x43, 0x42, 0x64, 0x80, 0x43, 0x30, 0x1c, 
	0x90, 0x3c, 0x37, 0x64, 0x80, 0x2c, 0x30, 0x00, 
	0x80, 0x3c, 0x30, 0x1c, 0x90, 0x2c, 0x4c, 0x00, 
	0x90, 0x43, 0x4d, 0x64, 0x80, 0x43, 0x30, 0x1c, 
	0x90, 0x43, 0x41, 0x64, 0x80, 0x43, 0x30, 0x1c, 
	0x90, 0x3c, 0x31, 0x64, 0x80, 0x2c, 0x30, 0x00, 
	0x80, 0x3c, 0x30, 0x1c, 0x90, 0x2c, 0x49, 0x00, 
	0x90, 0x43, 0x47, 0x64, 0x80, 0x43, 0x30, 0x1c, 
	0x90, 0x3c, 0x36, 0x64, 0x80, 0x2c, 0x30, 0x00, 
	0x80, 0x3c, 0x30, 0x1c, 0x90, 0x29, 0x46, 0x00, 
	0x90, 0x41, 0x46, 0x64, 0x80, 0x41, 0x30, 0x1c, 
	0x90, 0x41, 0x44, 0x64, 0x80, 0x41, 0x30, 0x1c, 
	0x90, 0x3c, 0x3b, 0x64, 0x80, 0x29, 0x30, 0x00, 
	0x80, 0x3c, 0x30, 0x1c, 0x90, 0x29, 0x51, 0x00, 
	0x90, 0x41, 0x49, 0x64, 0x80, 0x41, 0x30, 0x1c, 
	0x90, 0x41, 0x43, 0x64, 0x80, 0x41, 0x30, 0x1c, 
	0x90, 0x3c, 0x38, 0x64, 0x80, 0x29, 0x30, 0x00, 
	0x80, 0x3c, 0x30, 0x1c, 0x90, 0x29, 0x4e, 0x00, 
	0x90, 0x41, 0x47, 0x64, 0x80, 0x41, 0x30, 0x1c, 
	0x90, 0x3c, 0x3b, 0x64, 0x80, 0x29, 0x30, 0x00, 
	0x80, 0x3c, 0x30, 0x1c, 0x90, 0x29, 0x4a, 0x00, 
	0x90, 0x41, 0x47, 0x64, 0x80, 0x41, 0x30, 0x1c, 
	0x90, 0x41, 0x46, 0x64, 0x80, 0x41, 0x30, 0x1c, 
	0x90, 0x3c, 0x38, 0x64, 0x80, 0x29, 0x30, 0x00, 
	0x80, 0x3c, 0x30, 0x1c, 0x90, 0x29, 0x4a, 0x00, 
	0x90, 0x41, 0x49, 0x64, 0x80, 0x41, 0x30, 0x1c, 
	0x90, 0x41, 0x42, 0x64, 0x80, 0x41, 0x30, 0x1c, 
	0x90, 0x3c, 0x3b, 0x64, 0x80, 0x29, 0x30, 0x00, 
	0x80, 0x3c, 0x30, 0x1c, 0x90, 0x29, 0x4a, 0x00, 
	0x90, 0x41, 0x49, 0x64, 0x80, 0x41, 0x30, 0x1c, 
	0x90, 0x3c, 0x39, 0x64, 0x80, 0x29, 0x30, 0x00, 
	0x80, 0x3c, 0x30, 0x1c, 0x90, 0x2c, 0x4a, 0x00, 
	0x90, 0x3f, 0x41, 0x64, 0x80, 0x3f, 0x30, 0x1c, 
	0x90, 0x3f, 0x41, 0x64, 0x80, 0x3f, 0x30, 0x1c, 
	0x90, 0x3c, 0x3e, 0x64, 0x80, 0x2c, 0x30, 0x00, 
	0x80, 0x3c, 0x30, 0x1c, 0x90, 0x2c, 0x4e, 0x00, 
	0x90, 0x3f, 0x43, 0x64, 0x80, 0x3f, 0x30, 0x1c, 
	0x90, 0x3f, 0x42, 0x64, 0x80, 0x3f, 0x30, 0x1c, 
	0x90, 0x3c, 0x3c, 0x64, 0x80, 0x2c, 0x30, 0x00, 
	0x80, 0x3c, 0x30, 0x1c, 0x90, 0x2c, 0x4c, 0x00, 
	0x90, 0x3f, 0x48, 0x64, 0x80, 0x3f, 0x30, 0x1c, 
	0x90, 0x3c, 0x40, 0x64, 0x80, 0x2c, 0x30, 0x00, 
	0x80, 0x3c, 0x30, 0x1c, 0x90, 0x2c, 0x51, 0x00, 
	0x90, 0x43, 0x4b, 0x24, 0x80, 0x43, 0x30, 0x1c, 
	0x90, 0x41, 0x3c, 0x24, 0x80, 0x41, 0x30, 0x1c, 
	0x90, 0x43, 0x48, 0x24, 0x80, 0x43, 0x30, 0x1c, 
	0x90, 0x41, 0x3d, 0x24, 0x80, 0x2c, 0x30, 0x00, 
	0x80, 0x41, 0x30, 0x1c, 0x90, 0x2c, 0x4c, 0x00, 
	0x90, 0x43, 0x42, 0x24, 0x80, 0x43, 0x30, 0x1c, 
	0x90, 0x41, 0x3b, 0x24, 0x80, 0x41, 0x30, 0x1c, 
	0x90, 0x43, 0x43, 0x24, 0x80, 0x43, 0x30, 0x1c, 
	0x90, 0x41, 0x3e, 0x24, 0x80, 0x2c, 0x30, 0x00, 
	0x80, 0x41, 0x30, 0x1c, 0x90, 0x2c, 0x4d, 0x00, 
	0x90, 0x43, 0x47, 0x24, 0x80, 0x43, 0x30, 0x1c, 
	0x90, 0x41, 0x3b, 0x24, 0x80, 0x41, 0x30, 0x1c, 
	0x90, 0x43, 0x40, 0x24, 0x80, 0x43, 0x30, 0x1c, 
	0x90, 0x41, 0x3d, 0x24, 0x80, 0x2c, 0x30, 0x00, 
	0x80, 0x41, 0x30, 0x1c, 0x90, 0x2c, 0x4f, 0x00, 
	0x90, 0x43, 0x47, 0x24, 0x80, 0x43, 0x30, 0x1c, 
	0x90, 0x41, 0x3e, 0x24, 0x80, 0x41, 0x30, 0x1c, 
	0x90, 0x43, 0x47, 0x24, 0x80, 0x43, 0x30, 0x1c, 
	0x90, 0x41, 0x3b, 0x24, 0x80, 0x2c, 0x30, 0x00, 
	0x80, 0x41, 0x30, 0x1c, 0x90, 0x30, 0x4e, 0x81, 
	0x64, 0x80, 0x30, 0x30, 0x1c, 0x90, 0x43, 0x3b, 
	0x64, 0x80, 0x43, 0x30, 0x1c, 0x90, 0x43, 0x40, 
	0x64, 0x80, 0x43, 0x30, 0x1c, 0x90, 0x43, 0x42, 
	0x81, 0x64, 0x80, 0x43, 0x30, 0x1c, 0x90, 0x41, 
	0x3c, 0x64, 0x80, 0x41, 0x30, 0x1c, 0x90, 0x3f, 
	0x3c, 0x64, 0x80, 0x3f, 0x30, 0x1c, 0x90, 0x41, 
	0x41, 0x81, 0x64, 0x80, 0x41, 0x30, 0x1c, 0x90, 
	0x43, 0x4c, 0x81, 0x64, 0x80, 0x43, 0x30, 0x82, 
	0x1c, 0x90, 0x41, 0x36, 0x64, 0x80, 0x41, 0x30, 
	0x1c, 0x90, 0x3f, 0x38, 0x64, 0x80, 0x3f, 0x30, 
	0x1c, 0x90, 0x2c, 0x43, 0x00, 0x90, 0x41, 0x47, 
	0x81, 0x64, 0x80, 0x41, 0x30, 0x1c, 0x90, 0x43, 
	0x46, 0x64, 0x80, 0x43, 0x30, 0x1c, 0x90, 0x41, 
	0x3e, 0x81, 0x64, 0x80, 0x41, 0x30, 0x1c, 0x90, 
	0x3f, 0x42, 0x81, 0x64, 0x80, 0x3f, 0x30, 0x1c, 
	0x90, 0x3c, 0x37, 0x84, 0x64, 0x80, 0x3c, 0x30, 
	0x82, 0x1c, 0x90, 0x41, 0x3c, 0x64, 0x80, 0x41, 
	0x30, 0x1c, 0x90, 0x3f, 0x3a, 0x64, 0x80, 0x2c, 
	0x30, 0x00, 0x80, 0x3f, 0x30, 0x1c, 0x90, 0x2e, 
	0x51, 0x00, 0x90, 0x41, 0x46, 0x81, 0x64, 0x80, 
	0x41, 0x30, 0x1c, 0x90, 0x41, 0x41, 0x81, 0x64, 
	0x80, 0x41, 0x30, 0x1c, 0x90, 0x41, 0x41, 0x81, 
	0x64, 0x80, 0x41, 0x30, 0x1c, 0x90, 0x3f, 0x3a, 
	0x81, 0x64, 0x80, 0x3f, 0x30, 0x1c, 0x90, 0x41, 
	0x44, 0x81, 0x64, 0x80, 0x41, 0x30, 0x1c, 0x90, 
	0x43, 0x43, 0x64, 0x80, 0x43, 0x30, 0x1c, 0x90, 
	0x41, 0x3b, 0x82, 0x64, 0x80, 0x41, 0x30, 0x1c, 
	0x90, 0x3f, 0x3c, 0x81, 0x64, 0x80, 0x2e, 0x30, 
	0x00, 0x80, 0x3f, 0x30, 0x1c, 0x90, 0x2e, 0x4a, 
	0x00, 0x90, 0x41, 0x4b, 0x81, 0x64, 0x80, 0x41, 
	0x30, 0x00, 0x80, 0x2e, 0x30, 0x1c, 0x90, 0x2e, 
	0x48, 0x00, 0x90, 0x43, 0x42, 0x81, 0x64, 0x80, 
	0x43, 0x30, 0x00, 0x80, 0x2e, 0x30, 0x1c, 0x90, 
	0x2e, 0x4b, 0x00, 0x90, 0x41, 0x3f, 0x64, 0x80, 
	0x41, 0x30, 0x1c, 0x90, 0x3f, 0x40, 0x64, 0x80, 
	0x2e, 0x30, 0x1c, 0x90, 0x2e, 0x4e, 0x64, 0x80, 
	0x3f, 0x30, 0x1c, 0x90, 0x3c, 0x38, 0x64, 0x80, 
	0x2e, 0x30, 0x00, 0x80, 0x3c, 0x30, 0x1c, 0x90, 
	0x30, 0x4f, 0x81, 0x00, 0x90, 0x4b, 0x3b, 0x24, 
	0x80, 0x4b, 0x30, 0x1c, 0x90, 0x54, 0x54, 0x24, 
	0x80, 0x30, 0x30, 0x00, 0x80, 0x54, 0x30, 0x1c, 
	0x90, 0x30, 0x4b, 0x00, 0x90, 0x57, 0x43, 0x24, 
	0x80, 0x57, 0x30, 0x1c, 0x90, 0x54, 0x39, 0x24, 
	0x80, 0x54, 0x30, 0x1c, 0x90, 0x4f, 0x35, 0x64, 
	0x80, 0x30, 0x30, 0x00, 0x80, 0x4f, 0x30, 0x1c, 
	0x90, 0x30, 0x4c, 0x00, 0x90, 0x4b, 0x37, 0x24, 
	0x80, 0x4b, 0x30, 0x1c, 0x90, 0x4f, 0x48, 0x24, 
	0x80, 0x4f, 0x30, 0x1c, 0x90, 0x4b, 0x3a, 0x24, 
	0x80, 0x4b, 0x30, 0x1c, 0x90, 0x4f, 0x4a, 0x24, 
	0x80, 0x30, 0x30, 0x00, 0x80, 0x4f, 0x30, 0x1c, 
	0x90, 0x30, 0x4a, 0x00, 0x90, 0x54, 0x49, 0x81, 
	0x64, 0x80, 0x54, 0x30, 0x00, 0x80, 0x30, 0x30, 
	0x1c, 0x90, 0x30, 0x51, 0x64, 0x80, 0x30, 0x30, 
	0x1c, 0x90, 0x37, 0x56, 0x64, 0x80, 0x37, 0x30, 
	0x1c, 0x90, 0x30, 0x45, 0x00, 0x90, 0x43, 0x3d, 
	0x64, 0x80, 0x43, 0x30, 0x00, 0x80, 0x30, 0x30, 
	0x1c, 0x90, 0x37, 0x53, 0x00, 0x90, 0x43, 0x41, 
	0x64, 0x80, 0x43, 0x30, 0x00, 0x80, 0x37, 0x30, 
	0x1c, 0x90, 0x30, 0x46, 0x00, 0x90, 0x43, 0x40, 
	0x64, 0x80, 0x30, 0x30, 0x1c, 0x90, 0x37, 0x51, 
	0x64, 0x80, 0x43, 0x30, 0x00, 0x80, 0x37, 0x30, 
	0x1c, 0x90, 0x30, 0x43, 0x00, 0x90, 0x41, 0x3f, 
	0x64, 0x80, 0x41, 0x30, 0x00, 0x80, 0x30, 0x30, 
	0x1c, 0x90, 0x37, 0x52, 0x00, 0x90, 0x3f, 0x3a, 
	0x64, 0x80, 0x3f, 0x30, 0x00, 0x80, 0x37, 0x30, 
	0x1c, 0x90, 0x30, 0x45, 0x00, 0x90, 0x41, 0x46, 
	0x64, 0x80, 0x30, 0x30, 0x1c, 0x90, 0x37, 0x50, 
	0x64, 0x80, 0x41, 0x30, 0x00, 0x80, 0x37, 0x30, 
	0x1c, 0x90, 0x30, 0x46, 0x00, 0x90, 0x3f, 0x3c, 
	0x64, 0x80, 0x3f, 0x30, 0x00, 0x80, 0x30, 0x30, 
	0x1c, 0x90, 0x37, 0x51, 0x00, 0x90, 0x43, 0x44, 
	0x64, 0x80, 0x37, 0x30, 0x1c, 0x90, 0x30, 0x49, 
	0x64, 0x80, 0x30, 0x30, 0x1c, 0x90, 0x37, 0x52, 
	0x64, 0x80, 0x43, 0x30, 0x00, 0x80, 0x37, 0x30, 
	0x1c, 0x90, 0x30, 0x47, 0x00, 0x90, 0x3c, 0x36, 
	0x64, 0x80, 0x3c, 0x30, 0x00, 0x80, 0x30, 0x30, 
	0x1c, 0x90, 0x37, 0x4e, 0x00, 0x90, 0x3f, 0x45, 
	0x64, 0x80, 0x3f, 0x30, 0x00, 0x80, 0x37, 0x30, 
	0x1c, 0x90, 0x2c, 0x42, 0x00, 0x90, 0x41, 0x44, 
	0x64, 0x80, 0x2c, 0x30, 0x1c, 0x90, 0x33, 0x4f, 
	0x64, 0x80, 0x41, 0x30, 0x00, 0x80, 0x33, 0x30, 
	0x1c, 0x90, 0x2c, 0x48, 0x00, 0x90, 0x43, 0x42, 
	0x64, 0x80, 0x2c, 0x30, 0x1c, 0x90, 0x33, 0x50, 
	0x64, 0x80, 0x43, 0x30, 0x00, 0x80, 0x33, 0x30, 
	0x1c, 0x90, 0x2c, 0x47, 0x00, 0x90, 0x41, 0x40, 
	0x64, 0x80, 0x41, 0x30, 0x00, 0x80, 0x2c, 0x30, 
	0x1c, 0x90, 0x33, 0x50, 0x00, 0x90, 0x3f, 0x3c, 
	0x64, 0x80, 0x33, 0x30, 0x1c, 0x90, 0x2c, 0x49, 
	0x64, 0x80, 0x3f, 0x30, 0x00, 0x80, 0x2c, 0x30, 
	0x1c, 0x90, 0x33, 0x4f, 0x00, 0x90, 0x3c, 0x3a, 
	0x64, 0x80, 0x33, 0x30, 0x1c, 0x90, 0x2c, 0x44, 
	0x64, 0x80, 0x2c, 0x30, 0x1c, 0x90, 0x33, 0x58, 
	0x64, 0x80, 0x33, 0x30, 0x1c, 0x90, 0x2c, 0x47, 
	0x64, 0x80, 0x2c, 0x30, 0x1c, 0x90, 0x33, 0x54, 
	0x64, 0x80, 0x3c, 0x30, 0x00, 0x80, 0x33, 0x30, 
	0x1c, 0x90, 0x2c, 0x46, 0x64, 0x80, 0x2c, 0x30, 
	0x1c, 0x90, 0x33, 0x54, 0x64, 0x80, 0x33, 0x30, 
	0x1c, 0x90, 0x2c, 0x49, 0x00, 0x90, 0x3f, 0x39, 
	0x64, 0x80, 0x2c, 0x30, 0x1c, 0x90, 0x33, 0x50, 
	0x64, 0x80, 0x3f, 0x30, 0x00, 0x80, 0x33, 0x30, 
	0x1c, 0x90, 0x2e, 0x4a, 0x00, 0x90, 0x41, 0x41, 
	0x64, 0x80, 0x2e, 0x30, 0x1c, 0x90, 0x35, 0x55, 
	0x64, 0x80, 0x41, 0x30, 0x00, 0x80, 0x35, 0x30, 
	0x1c, 0x90, 0x2e, 0x46, 0x00, 0x90, 0x41, 0x3f, 
	0x64, 0x80, 0x41, 0x30, 0x00, 0x80, 0x2e, 0x30, 
	0x1c, 0x90, 0x35, 0x54, 0x00, 0x90, 0x41, 0x3f, 
	0x64, 0x80, 0x35, 0x30, 0x1c, 0x90, 0x2e, 0x48, 
	0x64, 0x80, 0x2e, 0x30, 0x1c, 0x90, 0x35, 0x55, 
	0x64, 0x80, 0x41, 0x30, 0x00, 0x80, 0x35, 0x30, 
	0x1c, 0x90, 0x2e, 0x45, 0x00, 0x90, 0x3f, 0x3d, 
	0x64, 0x80, 0x2e, 0x30, 0x1c, 0x90, 0x35, 0x54, 
	0x64, 0x80, 0x3f, 0x30, 0x00, 0x80, 0x35, 0x30, 
	0x1c, 0x90, 0x2e, 0x48, 0x00, 0x90, 0x41, 0x46, 
	0x64, 0x80, 0x2e, 0x30, 0x1c, 0x90, 0x35, 0x54, 
	0x64, 0x80, 0x41, 0x30, 0x00, 0x80, 0x35, 0x30, 
	0x1c, 0x90, 0x2e, 0x45, 0x00, 0x90, 0x43, 0x46, 
	0x64, 0x80, 0x43, 0x30, 0x00, 0x80, 0x2e, 0x30, 
	0x1c, 0x90, 0x35, 0x53, 0x00, 0x90, 0x41, 0x3c, 
	0x64, 0x80, 0x35, 0x30, 0x1c, 0x90, 0x2e, 0x49, 
	0x64, 0x80, 0x2e, 0x30, 0x1c, 0x90, 0x35, 0x55, 
	0x64, 0x80, 0x35, 0x30, 0x1c, 0x90, 0x2e, 0x4d, 
	0x64, 0x80, 0x2e, 0x30, 0x1c, 0x90, 0x35, 0x54, 
	0x64, 0x80, 0x41, 0x30, 0x00, 0x80, 0x35, 0x30, 
	0x1c, 0x90, 0x2e, 0x4a, 0x00, 0x90, 0x41, 0x41, 
	0x64, 0x80, 0x2e, 0x30, 0x1c, 0x90, 0x35, 0x50, 
	0x64, 0x80, 0x41, 0x30, 0x00, 0x80, 0x35, 0x30, 
	0x1c, 0x90, 0x2e, 0x47, 0x00, 0x90, 0x43, 0x44, 
	0x64, 0x80, 0x43, 0x30, 0x00, 0x80, 0x2e, 0x30, 
	0x1c, 0x90, 0x35, 0x53, 0x00, 0x90, 0x41, 0x3b, 
	0x64, 0x80, 0x35, 0x30, 0x1c, 0x90, 0x2e, 0x48, 
	0x64, 0x80, 0x2e, 0x30, 0x1c, 0x90, 0x35, 0x53, 
	0x64, 0x80, 0x41, 0x30, 0x00, 0x80, 0x35, 0x30, 
	0x1c, 0x90, 0x2e, 0x43, 0x00, 0x90, 0x3f, 0x3c, 
	0x64, 0x80, 0x2e, 0x30, 0x1c, 0x90, 0x35, 0x55, 
	0x64, 0x80, 0x3f, 0x30, 0x00, 0x80, 0x35, 0x30, 
	0x1c, 0x90, 0x30, 0x45, 0x00, 0x90, 0x3c, 0x3d, 
	0x64, 0x80, 0x30, 0x30, 0x1c, 0x90, 0x37, 0x50, 
	0x64, 0x80, 0x37, 0x30, 0x1c, 0x90, 0x30, 0x41, 
	0x64, 0x80, 0x30, 0x30, 0x1c, 0x90, 0x37, 0x51, 
	0x64, 0x80, 0x37, 0x30, 0x1c, 0x90, 0x30, 0x48, 
	0x64, 0x80, 0x30, 0x30, 0x1c, 0x90, 0x37, 0x4d, 
	0x64, 0x80, 0x3c, 0x30, 0x00, 0x80, 0x37, 0x30, 
	0x1c, 0x90, 0x30, 0x46, 0x64, 0x80, 0x30, 0x30, 
	0x1c, 0x90, 0x37, 0x4d, 0x64, 0x80, 0x37, 0x30, 
	0x1c, 0x90, 0x30, 0x46, 0x64, 0x80, 0x30, 0x30, 
	0x1c, 0x90, 0x37, 0x52, 0x64, 0x80, 0x37, 0x30, 
	0x1c, 0x90, 0x30, 0x47, 0x00, 0x90, 0x43, 0x39, 
	0x64, 0x80, 0x43, 0x30, 0x00, 0x80, 0x30, 0x30, 
	0x1c, 0x90, 0x37, 0x53, 0x00, 0x90, 0x43, 0x41, 
	0x64, 0x80, 0x43, 0x30, 0x00, 0x80, 0x37, 0x30, 
	0x1c, 0x90, 0x30, 0x46, 0x00, 0x90, 0x43, 0x3e, 
	0x64, 0x80, 0x30, 0x30, 0x1c, 0x90, 0x37, 0x52, 
	0x64, 0x80, 0x43, 0x30, 0x00, 0x80, 0x37, 0x30, 
	0x1c, 0x90, 0x30, 0x49, 0x00, 0x90, 0x41, 0x3b, 
	0x64, 0x80, 0x41, 0x30, 0x00, 0x80, 0x30, 0x30, 
	0x1c, 0x90, 0x37, 0x50, 0x00, 0x90, 0x3f, 0x3b, 
	0x64, 0x80, 0x3f, 0x30, 0x00, 0x80, 0x37, 0x30, 
	0x1c, 0x90, 0x30, 0x4a, 0x00, 0x90, 0x41, 0x48, 
	0x64, 0x80, 0x41, 0x30, 0x00, 0x80, 0x30, 0x30, 
	0x1c, 0x90, 0x37, 0x55, 0x00, 0x90, 0x41, 0x40, 
	0x64, 0x80, 0x37, 0x30, 0x1c, 0x90, 0x30, 0x45, 
	0x64, 0x80, 0x41, 0x30, 0x00, 0x80, 0x30, 0x30, 
	0x1c, 0x90, 0x37, 0x55, 0x00, 0x90, 0x3f, 0x3f, 
	0x64, 0x80, 0x3f, 0x30, 0x00, 0x80, 0x37, 0x30, 
	0x1c, 0x90, 0x30, 0x49, 0x00, 0x90, 0x43, 0x48, 
	0x64, 0x80, 0x30, 0x30, 0x1c, 0x90, 0x37, 0x54, 
	0x64, 0x80, 0x43, 0x30, 0x00, 0x80, 0x37, 0x30, 
	0x1c, 0x90, 0x30, 0x40, 0x00, 0x90, 0x3c, 0x3a, 
	0x64, 0x80, 0x3c, 0x30, 0x00, 0x80, 0x30, 0x30, 
	0x1c, 0x90, 0x37, 0x54, 0x00, 0x90, 0x3f, 0x46, 
	0x64, 0x80, 0x3f, 0x30, 0x00, 0x80, 0x37, 0x30, 
	0x1c, 0x90, 0x2c, 0x3f, 0x00, 0x90, 0x41, 0x43, 
	0x64, 0x80, 0x2c, 0x30, 0x1c, 0x90, 0x33, 0x52, 
	0x64, 0x80, 0x41, 0x30, 0x00, 0x80, 0x33, 0x30, 
	0x1c, 0x90, 0x2c, 0x47, 0x00, 0x90, 0x43, 0x42, 
	0x64, 0x80, 0x2c, 0x30, 0x1c, 0x90, 0x33, 0x50, 
	0x64, 0x80, 0x43, 0x30, 0x00, 0x80, 0x33, 0x30, 
	0x1c, 0x90, 0x2c, 0x4a, 0x00, 0x90, 0x41, 0x3a, 
	0x64, 0x80, 0x41, 0x30, 0x00, 0x80, 0x2c, 0x30, 
	0x1c, 0x90, 0x33, 0x51, 0x00, 0x90, 0x3f, 0x3d, 
	0x64, 0x80, 0x33, 0x30, 0x1c, 0x90, 0x2c, 0x49, 
	0x64, 0x80, 0x3f, 0x30, 0x00, 0x80, 0x2c, 0x30, 
	0x1c, 0x90, 0x33, 0x52, 0x00, 0x90, 0x3c, 0x3c, 
	0x64, 0x80, 0x33, 0x30, 0x1c, 0x90, 0x2c, 0x45, 
	0x64, 0x80, 0x3c, 0x30, 0x00, 0x80, 0x2c, 0x30, 
	0x1c, 0x90, 0x33, 0x54, 0x00, 0x90, 0x3f, 0x45, 
	0x64, 0x80, 0x33, 0x30, 0x1c, 0x90, 0x2c, 0x46, 
	0x64, 0x80, 0x2c, 0x30, 0x1c, 0x90, 0x33, 0x54, 
	0x64, 0x80, 0x3f, 0x30, 0x00, 0x80, 0x33, 0x30, 
	0x1c, 0x90, 0x2c, 0x4b, 0x64, 0x80, 0x2c, 0x30, 
	0x1c, 0x90, 0x33, 0x51, 0x64, 0x80, 0x33, 0x30, 
	0x1c, 0x90, 0x2c, 0x4b, 0x00, 0x90, 0x3f, 0x34, 
	0x64, 0x80, 0x2c, 0x30, 0x1c, 0x90, 0x33, 0x51, 
	0x64, 0x80, 0x3f, 0x30, 0x00, 0x80, 0x33, 0x30, 
	0x1c, 0x90, 0x2e, 0x46, 0x00, 0x90, 0x41, 0x47, 
	0x64, 0x80, 0x2e, 0x30, 0x1c, 0x90, 0x35, 0x50, 
	0x64, 0x80, 0x41, 0x30, 0x00, 0x80, 0x35, 0x30, 
	0x1c, 0x90, 0x2e, 0x47, 0x00, 0x90, 0x41, 0x40, 
	0x64, 0x80, 0x41, 0x30, 0x00, 0x80, 0x2e, 0x30, 
	0x1c, 0x90, 0x35, 0x53, 0x00, 0x90, 0x41, 0x45, 
	0x64, 0x80, 0x35, 0x30, 0x1c, 0x90, 0x2e, 0x46, 
	0x64, 0x80, 0x2e, 0x30, 0x1c, 0x90, 0x35, 0x53, 
	0x64, 0x80, 0x41, 0x30, 0x00, 0x80, 0x35, 0x30, 
	0x1c, 0x90, 0x2e, 0x45, 0x00, 0x90, 0x3f, 0x3d, 
	0x64, 0x80, 0x2e, 0x30, 0x1c, 0x90, 0x35, 0x52, 
	0x64, 0x80, 0x3f, 0x30, 0x00, 0x80, 0x35, 0x30, 
	0x1c, 0x90, 0x2e, 0x48, 0x00, 0x90, 0x41, 0x42, 
	0x64, 0x80, 0x2e, 0x30, 0x1c, 0x90, 0x35, 0x4e, 
	0x64, 0x80, 0x41, 0x30, 0x00, 0x80, 0x35, 0x30, 
	0x1c, 0x90, 0x2e, 0x47, 0x00, 0x90, 0x43, 0x43, 
	0x64, 0x80, 0x43, 0x30, 0x00, 0x80, 0x2e, 0x30, 
	0x1c, 0x90, 0x35, 0x52, 0x00, 0x90, 0x41, 0x3c, 
	0x64, 0x80, 0x35, 0x30, 0x1c, 0x90, 0x2e, 0x49, 
	0x64, 0x80, 0x2e, 0x30, 0x1c, 0x90, 0x35, 0x56, 
	0x64, 0x80, 0x41, 0x30, 0x00, 0x80, 0x35, 0x30, 
	0x1c, 0x90, 0x2e, 0x48, 0x00, 0x90, 0x3f, 0x40, 
	0x64, 0x80, 0x2e, 0x30, 0x1c, 0x90, 0x35, 0x51, 
	0x64, 0x80, 0x3f, 0x30, 0x00, 0x80, 0x35, 0x30, 
	0x1c, 0x90, 0x2e, 0x4d, 0x00, 0x90, 0x41, 0x42, 
	0x64, 0x80, 0x2e, 0x30, 0x1c, 0x90, 0x35, 0x50, 
	0x64, 0x80, 0x41, 0x30, 0x00, 0x80, 0x35, 0x30, 
	0x1c, 0x90, 0x2e, 0x42, 0x00, 0x90, 0x43, 0x45, 
	0x64, 0x80, 0x43, 0x30, 0x00, 0x80, 0x2e, 0x30, 
	0x1c, 0x90, 0x35, 0x52, 0x00, 0x90, 0x41, 0x3f, 
	0x64, 0x80, 0x35, 0x30, 0x1c, 0x90, 0x2e, 0x45, 
	0x64, 0x80, 0x2e, 0x30, 0x1c, 0x90, 0x35, 0x4f, 
	0x64, 0x80, 0x41, 0x30, 0x00, 0x80, 0x35, 0x30, 
	0x1c, 0x90, 0x2e, 0x44, 0x00, 0x90, 0x3f, 0x41, 
	0x64, 0x80, 0x2e, 0x30, 0x1c, 0x90, 0x35, 0x59, 
	0x64, 0x80, 0x3f, 0x30, 0x00, 0x80, 0x35, 0x30, 
	0x1c, 0x90, 0x30, 0x49, 0x00, 0x90, 0x3c, 0x37, 
	0x64, 0x80, 0x30, 0x30, 0x1c, 0x90, 0x37, 0x51, 
	0x64, 0x80, 0x3c, 0x30, 0x00, 0x80, 0x37, 0x30, 
	0x1c, 0x90, 0x30, 0x47, 0x64, 0x80, 0x30, 0x30, 
	0x1c, 0x90, 0x37, 0x53, 0x64, 0x80, 0x37, 0x30, 
	0x1c, 0x90, 0x30, 0x48, 0x00, 0x90, 0x41, 0x3b, 
	0x64, 0x80, 0x30, 0x30, 0x1c, 0x90, 0x37, 0x4f, 
	0x64, 0x80, 0x41, 0x30, 0x00, 0x80, 0x37, 0x30, 
	0x1c, 0x90, 0x30, 0x49, 0x00, 0x90, 0x43, 0x43, 
	0x64, 0x80, 0x30, 0x30, 0x1c, 0x90, 0x37, 0x4f, 
	0x64, 0x80, 0x43, 0x30, 0x00, 0x80, 0x37, 0x30, 
	0x1c, 0x90, 0x2c, 0x43, 0x00, 0x90, 0x44, 0x48, 
	0x64, 0x80, 0x2c, 0x30, 0x1c, 0x90, 0x33, 0x50, 
	0x64, 0x80, 0x44, 0x30, 0x00, 0x80, 0x33, 0x30, 
	0x1c, 0x90, 0x2c, 0x49, 0x00, 0x90, 0x44, 0x41, 
	0x64, 0x80, 0x44, 0x30, 0x00, 0x80, 0x2c, 0x30, 
	0x1c, 0x90, 0x33, 0x52, 0x00, 0x90, 0x43, 0x3e, 
	0x64, 0x80, 0x33, 0x30, 0x1c, 0x90, 0x2c, 0x46, 
	0x64, 0x80, 0x2c, 0x30, 0x1c, 0x90, 0x33, 0x52, 
	0x64, 0x80, 0x43, 0x30, 0x00, 0x80, 0x33, 0x30, 
	0x1c, 0x90, 0x2c, 0x44, 0x00, 0x90, 0x41, 0x3e, 
	0x64, 0x80, 0x2c, 0x30, 0x1c, 0x90, 0x33, 0x50, 
	0x64, 0x80, 0x41, 0x30, 0x00, 0x80, 0x33, 0x30, 
	0x1c, 0x90, 0x2c, 0x44, 0x00, 0x90, 0x44, 0x43, 
	0x64, 0x80, 0x2c, 0x30, 0x1c, 0x90, 0x33, 0x55, 
	0x64, 0x80, 0x44, 0x30, 0x00, 0x80, 0x33, 0x30, 
	0x1c, 0x90, 0x2c, 0x4a, 0x00, 0x90, 0x44, 0x40, 
	0x64, 0x80, 0x44, 0x30, 0x00, 0x80, 0x2c, 0x30, 
	0x1c, 0x90, 0x33, 0x50, 0x00, 0x90, 0x43, 0x3c, 
	0x64, 0x80, 0x33, 0x30, 0x1c, 0x90, 0x2c, 0x40, 
	0x64, 0x80, 0x2c, 0x30, 0x1c, 0x90, 0x33, 0x53, 
	0x64, 0x80, 0x43, 0x30, 0x00, 0x80, 0x33, 0x30, 
	0x1c, 0x90, 0x2c, 0x46, 0x00, 0x90, 0x41, 0x3c, 
	0x64, 0x80, 0x2c, 0x30, 0x1c, 0x90, 0x33, 0x54, 
	0x64, 0x80, 0x41, 0x30, 0x00, 0x80, 0x33, 0x30, 
	0x1c, 0x90, 0x30, 0x4c, 0x00, 0x90, 0x43, 0x46, 
	0x64, 0x80, 0x30, 0x30, 0x1c, 0x90, 0x37, 0x56, 
	0x64, 0x80, 0x43, 0x30, 0x00, 0x80, 0x37, 0x30, 
	0x1c, 0x90, 0x30, 0x4b, 0x00, 0x90, 0x43, 0x44, 
	0x64, 0x80, 0x43, 0x30, 0x00, 0x80, 0x30, 0x30, 
	0x1c, 0x90, 0x37, 0x51, 0x00, 0x90, 0x41, 0x3d, 
	0x64, 0x80, 0x37, 0x30, 0x1c, 0x90, 0x30, 0x46, 
	0x64, 0x80, 0x30, 0x30, 0x1c, 0x90, 0x37, 0x51, 
	0x64, 0x80, 0x41, 0x30, 0x00, 0x80, 0x37, 0x30, 
	0x1c, 0x90, 0x30, 0x48, 0x00, 0x90, 0x3f, 0x3c, 
	0x64, 0x80, 0x30, 0x30, 0x1c, 0x90, 0x37, 0x4e, 
	0x64, 0x80, 0x3f, 0x30, 0x00, 0x80, 0x37, 0x30, 
	0x1c, 0x90, 0x30, 0x45, 0x00, 0x90, 0x41, 0x45, 
	0x64, 0x80, 0x30, 0x30, 0x1c, 0x90, 0x37, 0x50, 
	0x64, 0x80, 0x41, 0x30, 0x00, 0x80, 0x37, 0x30, 
	0x1c, 0x90, 0x30, 0x47, 0x00, 0x90, 0x3f, 0x3b, 
	0x64, 0x80, 0x3f, 0x30, 0x00, 0x80, 0x30, 0x30, 
	0x1c, 0x90, 0x37, 0x4f, 0x00, 0x90, 0x3c, 0x37, 
	0x64, 0x80, 0x37, 0x30, 0x1c, 0x90, 0x30, 0x41, 
	0x64, 0x80, 0x30, 0x30, 0x1c, 0x90, 0x37, 0x51, 
	0x64, 0x80, 0x3c, 0x30, 0x00, 0x80, 0x37, 0x30, 
	0x1c, 0x90, 0x30, 0x45, 0x00, 0x90, 0x43, 0x4d, 
	0x64, 0x80, 0x30, 0x30, 0x1c, 0x90, 0x37, 0x4d, 
	0x64, 0x80, 0x43, 0x30, 0x00, 0x80, 0x37, 0x30, 
	0x1c, 0x90, 0x2c, 0x45, 0x00, 0x90, 0x44, 0x45, 
	0x64, 0x80, 0x2c, 0x30, 0x1c, 0x90, 0x33, 0x51, 
	0x64, 0x80, 0x44, 0x30, 0x00, 0x80, 0x33, 0x30, 
	0x1c, 0x90, 0x2c, 0x45, 0x00, 0x90, 0x44, 0x3e, 
	0x64, 0x80, 0x44, 0x30, 0x00, 0x80, 0x2c, 0x30, 
	0x1c, 0x90, 0x33, 0x54, 0x00, 0x90, 0x43, 0x3f, 
	0x64, 0x80, 0x33, 0x30, 0x1c, 0x90, 0x2c, 0x46, 
	0x64, 0x80, 0x2c, 0x30, 0x1c, 0x90, 0x33, 0x52, 
	0x64, 0x80, 0x43, 0x30, 0x00, 0x80, 0x33, 0x30, 
	0x1c, 0x90, 0x2c, 0x46, 0x00, 0x90, 0x41, 0x41, 
	0x64, 0x80, 0x2c, 0x30, 0x1c, 0x90, 0x33, 0x53, 
	0x64, 0x80, 0x41, 0x30, 0x00, 0x80, 0x33, 0x30, 
	0x1c, 0x90, 0x2c, 0x49, 0x00, 0x90, 0x44, 0x49, 
	0x64, 0x80, 0x2c, 0x30, 0x1c, 0x90, 0x33, 0x55, 
	0x64, 0x80, 0x44, 0x30, 0x00, 0x80, 0x33, 0x30, 
	0x1c, 0x90, 0x2c, 0x42, 0x00, 0x90, 0x44, 0x41, 
	0x64, 0x80, 0x44, 0x30, 0x00, 0x80, 0x2c, 0x30, 
	0x1c, 0x90, 0x33, 0x53, 0x00, 0x90, 0x43, 0x3e, 
	0x64, 0x80, 0x33, 0x30, 0x1c, 0x90, 0x2c, 0x41, 
	0x64, 0x80, 0x2c, 0x30, 0x1c, 0x90, 0x33, 0x53, 
	0x64, 0x80, 0x43, 0x30, 0x00, 0x80, 0x33, 0x30, 
	0x1c, 0x90, 0x2c, 0x47, 0x00, 0x90, 0x41, 0x3d, 
	0x64, 0x80, 0x2c, 0x30, 0x1c, 0x90, 0x33, 0x4f, 
	0x64, 0x80, 0x41, 0x30, 0x00, 0x80, 0x33, 0x30, 
	0x1c, 0x90, 0x2e, 0x46, 0x00, 0x90, 0x46, 0x4a, 
	0x64, 0x80, 0x2e, 0x30, 0x1c, 0x90, 0x35, 0x52, 
	0x64, 0x80, 0x35, 0x30, 0x1c, 0x90, 0x2e, 0x43, 
	0x64, 0x80, 0x2e, 0x30, 0x1c, 0x90, 0x35, 0x52, 
	0x64, 0x80, 0x35, 0x30, 0x1c, 0x90, 0x2e, 0x43, 
	0x64, 0x80, 0x2e, 0x30, 0x1c, 0x90, 0x35, 0x52, 
	0x64, 0x80, 0x35, 0x30, 0x1c, 0x90, 0x2e, 0x42, 
	0x64, 0x80, 0x2e, 0x30, 0x1c, 0x90, 0x35, 0x54, 
	0x64, 0x80, 0x46, 0x30, 0x00, 0x80, 0x35, 0x30, 
	0x1c, 0x90, 0x2e, 0x46, 0x82, 0x00, 0x90, 0x3a, 
	0x3c, 0x81, 0x64, 0x80, 0x3a, 0x30, 0x1c, 0x90, 
	0x3f, 0x42, 0x81, 0x64, 0x80, 0x3f, 0x30, 0x1c, 
	0x90, 0x41, 0x49, 0x81, 0x64, 0x80, 0x2e, 0x30, 
	0x00, 0x80, 0x41, 0x30, 0x1c, 0x90, 0x27, 0x42, 
	0x00, 0x90, 0x43, 0x45, 0x64, 0x80, 0x27, 0x30, 
	0x1c, 0x90, 0x2e, 0x52, 0x64, 0x80, 0x2e, 0x30, 
	0x1c, 0x90, 0x27, 0x44, 0x64, 0x80, 0x43, 0x30, 
	0x00, 0x80, 0x27, 0x30, 0x1c, 0x90, 0x2e, 0x56, 
	0x00, 0x90, 0x41, 0x3e, 0x64, 0x80, 0x2e, 0x30, 
	0x1c, 0x90, 0x27, 0x4b, 0x64, 0x80, 0x27, 0x30, 
	0x1c, 0x90, 0x2e, 0x55, 0x64, 0x80, 0x41, 0x30, 
	0x00, 0x80, 0x2e, 0x30, 0x1c, 0x90, 0x27, 0x4a, 
	0x00, 0x90, 0x3f, 0x3b, 0x64, 0x80, 0x27, 0x30, 
	0x1c, 0x90, 0x2e, 0x50, 0x64, 0x80, 0x3f, 0x30, 
	0x00, 0x80, 0x2e, 0x30, 0x1c, 0x90, 0x2e, 0x4a, 
	0x00, 0x90, 0x46, 0x4a, 0x64, 0x80, 0x2e, 0x30, 
	0x1c, 0x90, 0x35, 0x4e, 0x64, 0x80, 0x35, 0x30, 
	0x1c, 0x90, 0x2e, 0x49, 0x64, 0x80, 0x2e, 0x30, 
	0x1c, 0x90, 0x35, 0x57, 0x64, 0x80, 0x35, 0x30, 
	0x1c, 0x90, 0x2e, 0x4b, 0x64, 0x80, 0x2e, 0x30, 
	0x1c, 0x90, 0x35, 0x57, 0x64, 0x80, 0x46, 0x30, 
	0x00, 0x80, 0x35, 0x30, 0x1c, 0x90, 0x2e, 0x46, 
	0x00, 0x90, 0x46, 0x43, 0x64, 0x80, 0x2e, 0x30, 
	0x1c, 0x90, 0x35, 0x54, 0x64, 0x80, 0x46, 0x30, 
	0x00, 0x80, 0x35, 0x30, 0x1c, 0x90, 0x2c, 0x46, 
	0x00, 0x90, 0x46, 0x3c, 0x64, 0x80, 0x2c, 0x30, 
	0x1c, 0x90, 0x33, 0x54, 0x64, 0x80, 0x46, 0x30, 
	0x00, 0x80, 0x33, 0x30, 0x1c, 0x90, 0x2c, 0x4a, 
	0x00, 0x90, 0x46, 0x3e, 0x64, 0x80, 0x46, 0x30, 
	0x00, 0x80, 0x2c, 0x30, 0x1c, 0x90, 0x33, 0x50, 
	0x00, 0x90, 0x44, 0x3c, 0x64, 0x80, 0x33, 0x30, 
	0x1c, 0x90, 0x2c, 0x46, 0x64, 0x80, 0x2c, 0x30, 
	0x1c, 0x90, 0x33, 0x51, 0x64, 0x80, 0x44, 0x30, 
	0x00, 0x80, 0x33, 0x30, 0x1c, 0x90, 0x2c, 0x46, 
	0x00, 0x90, 0x43, 0x42, 0x64, 0x80, 0x2c, 0x30, 
	0x1c, 0x90, 0x33, 0x52, 0x64, 0x80, 0x43, 0x30, 
	0x00, 0x80, 0x33, 0x30, 0x1c, 0x90, 0x2c, 0x44, 
	0x00, 0x90, 0x3f, 0x3d, 0x64, 0x80, 0x2c, 0x30, 
	0x1c, 0x90, 0x33, 0x51, 0x64, 0x80, 0x3f, 0x30, 
	0x00, 0x80, 0x33, 0x30, 0x1c, 0x90, 0x2c, 0x45, 
	0x00, 0x90, 0x3f, 0x42, 0x64, 0x80, 0x3f, 0x30, 
	0x00, 0x80, 0x2c, 0x30, 0x1c, 0x90, 0x33, 0x52, 
	0x00, 0x90, 0x41, 0x42, 0x64, 0x80, 0x33, 0x30, 
	0x1c, 0x90, 0x2c, 0x43, 0x64, 0x80, 0x2c, 0x30, 
	0x1c, 0x90, 0x33, 0x54, 0x64, 0x80, 0x41, 0x30, 
	0x00, 0x80, 0x33, 0x30, 0x1c, 0x90, 0x2c, 0x46, 
	0x64, 0x80, 0x2c, 0x30, 0x1c, 0x90, 0x33, 0x57, 
	0x64, 0x80, 0x33, 0x30, 0x1c, 0x90, 0x30, 0x47, 
	0x00, 0x90, 0x43, 0x3b, 0x64, 0x80, 0x30, 0x30, 
	0x1c, 0x90, 0x37, 0x56, 0x64, 0x80, 0x43, 0x30, 
	0x00, 0x80, 0x37, 0x30, 0x1c, 0x90, 0x30, 0x49, 
	0x00, 0x90, 0x43, 0x3d, 0x64, 0x80, 0x43, 0x30, 
	0x00, 0x80, 0x30, 0x30, 0x1c, 0x90, 0x37, 0x51, 
	0x00, 0x90, 0x44, 0x44, 0x64, 0x80, 0x37, 0x30, 
	0x1c, 0x90, 0x30, 0x43, 0x64, 0x80, 0x30, 0x30, 
	0x1c, 0x90, 0x37, 0x54, 0x64, 0x80, 0x44, 0x30, 
	0x00, 0x80, 0x37, 0x30, 0x1c, 0x90, 0x30, 0x40, 
	0x00, 0x90, 0x43, 0x3d, 0x64, 0x80, 0x30, 0x30, 
	0x1c, 0x90, 0x37, 0x54, 0x64, 0x80, 0x43, 0x30, 
	0x00, 0x80, 0x37, 0x30, 0x1c, 0x90, 0x2e, 0x43, 
	0x00, 0x90, 0x41, 0x3c, 0x64, 0x80, 0x2e, 0x30, 
	0x1c, 0x90, 0x35, 0x50, 0x64, 0x80, 0x41, 0x30, 
	0x00, 0x80, 0x35, 0x30, 0x1c, 0x90, 0x2e, 0x45, 
	0x00, 0x90, 0x41, 0x42, 0x64, 0x80, 0x41, 0x30, 
	0x00, 0x80, 0x2e, 0x30, 0x1c, 0x90, 0x35, 0x4f, 
	0x00, 0x90, 0x43, 0x45, 0x64, 0x80, 0x35, 0x30, 
	0x1c, 0x90, 0x2e, 0x48, 0x64, 0x80, 0x2e, 0x30, 
	0x1c, 0x90, 0x35, 0x57, 0x64, 0x80, 0x43, 0x30, 
	0x00, 0x80, 0x35, 0x30, 0x1c, 0x90, 0x2e, 0x41, 
	0x00, 0x90, 0x41, 0x3d, 0x64, 0x80, 0x2e, 0x30, 
	0x1c, 0x90, 0x35, 0x54, 0x64, 0x80, 0x41, 0x30, 
	0x00, 0x80, 0x35, 0x30, 0x1c, 0x90, 0x2c, 0x44, 
	0x00, 0x90, 0x43, 0x42, 0x64, 0x80, 0x2c, 0x30, 
	0x1c, 0x90, 0x33, 0x4e, 0x64, 0x80, 0x33, 0x30, 
	0x1c, 0x90, 0x2c, 0x48, 0x64, 0x80, 0x43, 0x30, 
	0x00, 0x80, 0x2c, 0x30, 0x1c, 0x90, 0x33, 0x52, 
	0x00, 0x90, 0x41, 0x3a, 0x64, 0x80, 0x33, 0x30, 
	0x1c, 0x90, 0x2c, 0x43, 0x64, 0x80, 0x2c, 0x30, 
	0x1c, 0x90, 0x33, 0x50, 0x64, 0x80, 0x41, 0x30, 
	0x00, 0x80, 0x33, 0x30, 0x1c, 0x90, 0x2c, 0x45, 
	0x00, 0x90, 0x3f, 0x3d, 0x64, 0x80, 0x2c, 0x30, 
	0x1c, 0x90, 0x33, 0x55, 0x64, 0x80, 0x3f, 0x30, 
	0x00, 0x80, 0x33, 0x30, 0x1c, 0x90, 0x2c, 0x45, 
	0x00, 0x90, 0x3f, 0x3f, 0x64, 0x80, 0x2c, 0x30, 
	0x1c, 0x90, 0x33, 0x4e, 0x64, 0x80, 0x33, 0x30, 
	0x1c, 0x90, 0x2c, 0x41, 0x64, 0x80, 0x2c, 0x30, 
	0x1c, 0x90, 0x33, 0x53, 0x64, 0x80, 0x33, 0x30, 
	0x1c, 0x90, 0x2c, 0x47, 0x64, 0x80, 0x2c, 0x30, 
	0x1c, 0x90, 0x33, 0x4f, 0x64, 0x80, 0x33, 0x30, 
	0x1c, 0x90, 0x2c, 0x44, 0x64, 0x80, 0x2c, 0x30, 
	0x1c, 0x90, 0x33, 0x53, 0x64, 0x80, 0x3f, 0x30, 
	0x00, 0x80, 0x33, 0x30, 0x1c, 0x90, 0x30, 0x48, 
	0x00, 0x90, 0x43, 0x4b, 0x64, 0x80, 0x30, 0x30, 
	0x1c, 0x90, 0x37, 0x54, 0x64, 0x80, 0x43, 0x30, 
	0x00, 0x80, 0x37, 0x30, 0x1c, 0x90, 0x30, 0x47, 
	0x00, 0x90, 0x43, 0x49, 0x64, 0x80, 0x43, 0x30, 
	0x00, 0x80, 0x30, 0x30, 0x1c, 0x90, 0x37, 0x59, 
	0x00, 0x90, 0x41, 0x37, 0x64, 0x80, 0x37, 0x30, 
	0x1c, 0x90, 0x30, 0x44, 0x64, 0x80, 0x30, 0x30, 
	0x1c, 0x90, 0x37, 0x51, 0x64, 0x80, 0x41, 0x30, 
	0x00, 0x80, 0x37, 0x30, 0x1c, 0x90, 0x30, 0x45, 
	0x00, 0x90, 0x3f, 0x3e, 0x64, 0x80, 0x30, 0x30, 
	0x1c, 0x90, 0x37, 0x52, 0x64, 0x80, 0x3f, 0x30, 
	0x00, 0x80, 0x37, 0x30, 0x1c, 0x90, 0x2c, 0x48, 
	0x00, 0x90, 0x3f, 0x3d, 0x64, 0x80, 0x2c, 0x30, 
	0x1c, 0x90, 0x33, 0x52, 0x64, 0x80, 0x3f, 0x30, 
	0x00, 0x80, 0x33, 0x30, 0x1c, 0x90, 0x2c, 0x4a, 
	0x00, 0x90, 0x3f, 0x41, 0x64, 0x80, 0x3f, 0x30, 
	0x00, 0x80, 0x2c, 0x30, 0x1c, 0x90, 0x33, 0x54, 
	0x00, 0x90, 0x41, 0x45, 0x64, 0x80, 0x33, 0x30, 
	0x1c, 0x90, 0x2c, 0x49, 0x64, 0x80, 0x2c, 0x30, 
	0x1c, 0x90, 0x33, 0x4f, 0x64, 0x80, 0x41, 0x30, 
	0x00, 0x80, 0x33, 0x30, 0x1c, 0x90, 0x2c, 0x45, 
	0x64, 0x80, 0x2c, 0x30, 0x1c, 0x90, 0x33, 0x4f, 
	0x64, 0x80, 0x33, 0x30, 0x1c, 0x90, 0x30, 0x4b, 
	0x00, 0x90, 0x43, 0x3b, 0x64, 0x80, 0x30, 0x30, 
	0x1c, 0x90, 0x37, 0x53, 0x64, 0x80, 0x43, 0x30, 
	0x00, 0x80, 0x37, 0x30, 0x1c, 0x90, 0x30, 0x46, 
	0x00, 0x90, 0x43, 0x40, 0x64, 0x80, 0x43, 0x30, 
	0x00, 0x80, 0x30, 0x30, 0x1c, 0x90, 0x37, 0x58, 
	0x00, 0x90, 0x41, 0x3a, 0x64, 0x80, 0x37, 0x30, 
	0x1c, 0x90, 0x30, 0x42, 0x64, 0x80, 0x30, 0x30, 
	0x1c, 0x90, 0x37, 0x52, 0x64, 0x80, 0x41, 0x30, 
	0x00, 0x80, 0x37, 0x30, 0x1c, 0x90, 0x30, 0x47, 
	0x00, 0x90, 0x3f, 0x3f, 0x64, 0x80, 0x30, 0x30, 
	0x1c, 0x90, 0x37, 0x55, 0x64, 0x80, 0x3f, 0x30, 
	0x00, 0x80, 0x37, 0x30, 0x1c, 0x90, 0x2c, 0x45, 
	0x00, 0x90, 0x46, 0x4d, 0x64, 0x80, 0x2c, 0x30, 
	0x1c, 0x90, 0x33, 0x51, 0x64, 0x80, 0x33, 0x30, 
	0x1c, 0x90, 0x2c, 0x4a, 0x64, 0x80, 0x46, 0x30, 
	0x00, 0x80, 0x2c, 0x30, 0x1c, 0x90, 0x33, 0x53, 
	0x00, 0x90, 0x43, 0x41, 0x64, 0x80, 0x33, 0x30, 
	0x1c, 0x90, 0x2c, 0x44, 0x64, 0x80, 0x2c, 0x30, 
	0x1c, 0x90, 0x33, 0x54, 0x64, 0x80, 0x33, 0x30, 
	0x1c, 0x90, 0x2c, 0x44, 0x64, 0x80, 0x2c, 0x30, 
	0x1c, 0x90, 0x33, 0x53, 0x64, 0x80, 0x43, 0x30, 
	0x00, 0x80, 0x33, 0x30, 0x1c, 0x90, 0x29, 0x47, 
	0x00, 0x90, 0x44, 0x3f, 0x64, 0x80, 0x29, 0x30, 
	0x1c, 0x90, 0x30, 0x4e, 0x64, 0x80, 0x44, 0x30, 
	0x00, 0x80, 0x30, 0x30, 0x1c, 0x90, 0x29, 0x49, 
	0x00, 0x90, 0x44, 0x42, 0x64, 0x80, 0x44, 0x30, 
	0x00, 0x80, 0x29, 0x30, 0x1c, 0x90, 0x30, 0x56, 
	0x00, 0x90, 0x44, 0x45, 0x64, 0x80, 0x30, 0x30, 
	0x1c, 0x90, 0x29, 0x45, 0x64, 0x80, 0x29, 0x30, 
	0x1c, 0x90, 0x30, 0x51, 0x64, 0x80, 0x44, 0x30, 
	0x00, 0x80, 0x30, 0x30, 0x1c, 0x90, 0x29, 0x49, 
	0x00, 0x90, 0x44, 0x43, 0x64, 0x80, 0x29, 0x30, 
	0x1c, 0x90, 0x30, 0x53, 0x64, 0x80, 0x44, 0x30, 
	0x00, 0x80, 0x30, 0x30, 0x1c, 0x90, 0x29, 0x46, 
	0x00, 0x90, 0x44, 0x40, 0x64, 0x80, 0x29, 0x30, 
	0x1c, 0x90, 0x30, 0x4f, 0x64, 0x80, 0x44, 0x30, 
	0x00, 0x80, 0x30, 0x30, 0x1c, 0x90, 0x29, 0x48, 
	0x00, 0x90, 0x43, 0x3d, 0x64, 0x80, 0x43, 0x30, 
	0x00, 0x80, 0x29, 0x30, 0x1c, 0x90, 0x30, 0x57, 
	0x00, 0x90, 0x41, 0x3d, 0x64, 0x80, 0x30, 0x30, 
	0x1c, 0x90, 0x29, 0x45, 0x64, 0x80, 0x29, 0x30, 
	0x1c, 0x90, 0x30, 0x4d, 0x64, 0x80, 0x41, 0x30, 
	0x00, 0x80, 0x30, 0x30, 0x1c, 0x90, 0x29, 0x48, 
	0x00, 0x90, 0x3f, 0x42, 0x64, 0x80, 0x29, 0x30, 
	0x1c, 0x90, 0x30, 0x4f, 0x64, 0x80, 0x3f, 0x30, 
	0x00, 0x80, 0x30, 0x30, 0x1c, 0x90, 0x2e, 0x4d, 
	0x00, 0x90, 0x46, 0x50, 0x64, 0x80, 0x2e, 0x30, 
	0x1c, 0x90, 0x35, 0x55, 0x64, 0x80, 0x35, 0x30, 
	0x1c, 0x90, 0x2e, 0x4a, 0x64, 0x80, 0x2e, 0x30, 
	0x1c, 0x90, 0x35, 0x51, 0x64, 0x80, 0x35, 0x30, 
	0x1c, 0x90, 0x2e, 0x4c, 0x64, 0x80, 0x2e, 0x30, 
	0x1c, 0x90, 0x35, 0x50, 0x64, 0x80, 0x35, 0x30, 
	0x1c, 0x90, 0x2e, 0x4a, 0x64, 0x80, 0x2e, 0x30, 
	0x1c, 0x90, 0x35, 0x52, 0x64, 0x80, 0x46, 0x30, 
	0x00, 0x80, 0x35, 0x30, 0x1c, 0x90, 0x2e, 0x48, 
	0x82, 0x00, 0x90, 0x41, 0x3e, 0x81, 0x64, 0x80, 
	0x41, 0x30, 0x1c, 0x90, 0x43, 0x45, 0x81, 0x64, 
	0x80, 0x43, 0x30, 0x1c, 0x90, 0x46, 0x47, 0x81, 
	0x64, 0x80, 0x2e, 0x30, 0x00, 0x80, 0x46, 0x30, 
	0x1c, 0x90, 0x2c, 0x4b, 0x00, 0x90, 0x48, 0x43, 
	0x64, 0x80, 0x2c, 0x30, 0x1c, 0x90, 0x33, 0x55, 
	0x64, 0x80, 0x33, 0x30, 0x1c, 0x90, 0x2c, 0x43, 
	0x64, 0x80, 0x2c, 0x30, 0x1c, 0x90, 0x33, 0x4e, 
	0x64, 0x80, 0x33, 0x30, 0x1c, 0x90, 0x2c, 0x47, 
	0x64, 0x80, 0x2c, 0x30, 0x1c, 0x90, 0x33, 0x51, 
	0x64, 0x80, 0x48, 0x30, 0x00, 0x80, 0x33, 0x30, 
	0x1c, 0x90, 0x2c, 0x46, 0x00, 0x90, 0x48, 0x40, 
	0x64, 0x80, 0x2c, 0x30, 0x1c, 0x90, 0x33, 0x56, 
	0x64, 0x80, 0x48, 0x30, 0x00, 0x80, 0x33, 0x30, 
	0x1c, 0x90, 0x2c, 0x49, 0x00, 0x90, 0x48, 0x41, 
	0x64, 0x80, 0x2c, 0x30, 0x1c, 0x90, 0x33, 0x53, 
	0x64, 0x80, 0x33, 0x30, 0x1c, 0x90, 0x2c, 0x4b, 
	0x64, 0x80, 0x48, 0x30, 0x00, 0x80, 0x2c, 0x30, 
	0x1c, 0x90, 0x33, 0x52, 0x00, 0x90, 0x46, 0x3e, 
	0x64, 0x80, 0x33, 0x30, 0x1c, 0x90, 0x2c, 0x49, 
	0x64, 0x80, 0x2c, 0x30, 0x1c, 0x90, 0x33, 0x54, 
	0x64, 0x80, 0x46, 0x30, 0x00, 0x80, 0x33, 0x30, 
	0x1c, 0x90, 0x2c, 0x47, 0x00, 0x90, 0x41, 0x32, 
	0x64, 0x80, 0x2c, 0x30, 0x1c, 0x90, 0x33, 0x55, 
	0x64, 0x80, 0x41, 0x30, 0x00, 0x80, 0x33, 0x30, 
	0x1c, 0x90, 0x30, 0x4b, 0x00, 0x90, 0x43, 0x45, 
	0x64, 0x80, 0x30, 0x30, 0x1c, 0x90, 0x37, 0x55, 
	0x64, 0x80, 0x43, 0x30, 0x00, 0x80, 0x37, 0x30, 
	0x1c, 0x90, 0x30, 0x4a, 0x00, 0x90, 0x46, 0x47, 
	0x64, 0x80, 0x46, 0x30, 0x00, 0x80, 0x30, 0x30, 
	0x1c, 0x90, 0x37, 0x51, 0x00, 0x90, 0x43, 0x38, 
	0x64, 0x80, 0x37, 0x30, 0x1c, 0x90, 0x30, 0x44, 
	0x64, 0x80, 0x30, 0x30, 0x1c, 0x90, 0x37, 0x53, 
	0x64, 0x80, 0x37, 0x30, 0x1c, 0x90, 0x30, 0x48, 
	0x64, 0x80, 0x30, 0x30, 0x1c, 0x90, 0x37, 0x52, 
	0x64, 0x80, 0x37, 0x30, 0x1c, 0x90, 0x30, 0x47, 
	0x64, 0x80, 0x30, 0x30, 0x1c, 0x90, 0x37, 0x51, 
	0x64, 0x80, 0x43, 0x30, 0x00, 0x80, 0x37, 0x30, 
	0x1c, 0x90, 0x30, 0x42, 0x64, 0x80, 0x30, 0x30, 
	0x1c, 0x90, 0x37, 0x52, 0x64, 0x80, 0x37, 0x30, 
	0x1c, 0x90, 0x30, 0x49, 0x00, 0x90, 0x3f, 0x3a, 
	0x64, 0x80, 0x30, 0x30, 0x1c, 0x90, 0x37, 0x52, 
	0x64, 0x80, 0x3f, 0x30, 0x00, 0x80, 0x37, 0x30, 
	0x1c, 0x90, 0x30, 0x48, 0x00, 0x90, 0x3f, 0x43, 
	0x64, 0x80, 0x30, 0x30, 0x1c, 0x90, 0x37, 0x4e, 
	0x64, 0x80, 0x3f, 0x30, 0x00, 0x80, 0x37, 0x30, 
	0x1c, 0x90, 0x2e, 0x42, 0x00, 0x90, 0x41, 0x48, 
	0x64, 0x80, 0x2e, 0x30, 0x1c, 0x90, 0x35, 0x4e, 
	0x64, 0x80, 0x35, 0x30, 0x1c, 0x90, 0x2e, 0x49, 
	0x64, 0x80, 0x41, 0x30, 0x00, 0x80, 0x2e, 0x30, 
	0x1c, 0x90, 0x35, 0x51, 0x00, 0x90, 0x41, 0x3f, 
	0x64, 0x80, 0x35, 0x30, 0x1c, 0x90, 0x2e, 0x42, 
	0x64, 0x80, 0x2e, 0x30, 0x1c, 0x90, 0x35, 0x52, 
	0x64, 0x80, 0x41, 0x30, 0x00, 0x80, 0x35, 0x30, 
	0x1c, 0x90, 0x2e, 0x48, 0x00, 0x90, 0x41, 0x41, 
	0x64, 0x80, 0x2e, 0x30, 0x1c, 0x90, 0x35, 0x4e, 
	0x64, 0x80, 0x41, 0x30, 0x00, 0x80, 0x35, 0x30, 
	0x1c, 0x90, 0x2e, 0x45, 0x00, 0x90, 0x43, 0x47, 
	0x64, 0x80, 0x2e, 0x30, 0x1c, 0x90, 0x35, 0x54, 
	0x64, 0x80, 0x35, 0x30, 0x1c, 0x90, 0x2e, 0x48, 
	0x64, 0x80, 0x43, 0x30, 0x00, 0x80, 0x2e, 0x30, 
	0x1c, 0x90, 0x35, 0x53, 0x00, 0x90, 0x41, 0x3f, 
	0x64, 0x80, 0x35, 0x30, 0x1c, 0x90, 0x2e, 0x47, 
	0x64, 0x80, 0x2e, 0x30, 0x1c, 0x90, 0x35, 0x54, 
	0x64, 0x80, 0x41, 0x30, 0x00, 0x80, 0x35, 0x30, 
	0x1c, 0x90, 0x2e, 0x42, 0x00, 0x90, 0x3f, 0x3f, 
	0x64, 0x80, 0x2e, 0x30, 0x1c, 0x90, 0x35, 0x52, 
	0x64, 0x80, 0x3f, 0x30, 0x00, 0x80, 0x35, 0x30, 
	0x1c, 0x90, 0x2b, 0x44, 0x00, 0x90, 0x43, 0x44, 
	0x64, 0x80, 0x2b, 0x30, 0x1c, 0x90, 0x32, 0x4f, 
	0x64, 0x80, 0x32, 0x30, 0x1c, 0x90, 0x2b, 0x46, 
	0x64, 0x80, 0x2b, 0x30, 0x1c, 0x90, 0x32, 0x54, 
	0x64, 0x80, 0x32, 0x30, 0x1c, 0x90, 0x2b, 0x4a, 
	0x64, 0x80, 0x2b, 0x30, 0x1c, 0x90, 0x32, 0x53, 
	0x64, 0x80, 0x32, 0x30, 0x1c, 0x90, 0x2b, 0x46, 
	0x64, 0x80, 0x2b, 0x30, 0x1c, 0x90, 0x32, 0x51, 
	0x64, 0x80, 0x32, 0x30, 0x1c, 0x90, 0x2b, 0x47, 
	0x64, 0x80, 0x2b, 0x30, 0x1c, 0x90, 0x32, 0x52, 
	0x64, 0x80, 0x43, 0x30, 0x00, 0x80, 0x32, 0x30, 
	0x1c, 0x90, 0x2b, 0x49, 0x00, 0x90, 0x3f, 0x36, 
	0x64, 0x80, 0x2b, 0x30, 0x1c, 0x90, 0x32, 0x51, 
	0x64, 0x80, 0x3f, 0x30, 0x00, 0x80, 0x32, 0x30, 
	0x1c, 0x90, 0x2b, 0x45, 0x00, 0x90, 0x43, 0x46, 
	0x64, 0x80, 0x2b, 0x30, 0x1c, 0x90, 0x32, 0x52, 
	0x64, 0x80, 0x43, 0x30, 0x00, 0x80, 0x32, 0x30, 
	0x1c, 0x90, 0x2b, 0x47, 0x00, 0x90, 0x46, 0x49, 
	0x64, 0x80, 0x2b, 0x30, 0x1c, 0x90, 0x32, 0x52, 
	0x64, 0x80, 0x46, 0x30, 0x00, 0x80, 0x32, 0x30, 
	0x1c, 0x90, 0x2c, 0x49, 0x00, 0x90, 0x48, 0x44, 
	0x64, 0x80, 0x2c, 0x30, 0x1c, 0x90, 0x33, 0x55, 
	0x64, 0x80, 0x33, 0x30, 0x1c, 0x90, 0x2c, 0x48, 
	0x64, 0x80, 0x2c, 0x30, 0x1c, 0x90, 0x33, 0x4f, 
	0x64, 0x80, 0x33, 0x30, 0x1c, 0x90, 0x2c, 0x46, 
	0x64, 0x80, 0x2c, 0x30, 0x1c, 0x90, 0x33, 0x50, 
	0x64, 0x80, 0x48, 0x30, 0x00, 0x80, 0x33, 0x30, 
	0x1c, 0x90, 0x2c, 0x4a, 0x00, 0x90, 0x48, 0x43, 
	0x64, 0x80, 0x48, 0x30, 0x00, 0x80, 0x2c, 0x30, 
	0x1c, 0x90, 0x33, 0x51, 0x00, 0x90, 0x48, 0x3e, 
	0x64, 0x80, 0x48, 0x30, 0x00, 0x80, 0x33, 0x30, 
	0x1c, 0x90, 0x2c, 0x46, 0x00, 0x90, 0x48, 0x40, 
	0x64, 0x80, 0x2c, 0x30, 0x1c, 0x90, 0x33, 0x51, 
	0x64, 0x80, 0x33, 0x30, 0x1c, 0x90, 0x2c, 0x49, 
	0x64, 0x80, 0x48, 0x30, 0x00, 0x80, 0x2c, 0x30, 
	0x1c, 0x90, 0x33, 0x53, 0x00, 0x90, 0x46, 0x38, 
	0x64, 0x80, 0x33, 0x30, 0x1c, 0x90, 0x2c, 0x46, 
	0x64, 0x80, 0x2c, 0x30, 0x1c, 0x90, 0x33, 0x54, 
	0x64, 0x80, 0x46, 0x30, 0x00, 0x80, 0x33, 0x30, 
	0x1c, 0x90, 0x2c, 0x46, 0x00, 0x90, 0x41, 0x32, 
	0x64, 0x80, 0x2c, 0x30, 0x1c, 0x90, 0x33, 0x52, 
	0x64, 0x80, 0x41, 0x30, 0x00, 0x80, 0x33, 0x30, 
	0x1c, 0x90, 0x30, 0x4f, 0x00, 0x90, 0x43, 0x44, 
	0x64, 0x80, 0x30, 0x30, 0x1c, 0x90, 0x37, 0x51, 
	0x64, 0x80, 0x43, 0x30, 0x00, 0x80, 0x37, 0x30, 
	0x1c, 0x90, 0x30, 0x46, 0x00, 0x90, 0x46, 0x46, 
	0x64, 0x80, 0x46, 0x30, 0x00, 0x80, 0x30, 0x30, 
	0x1c, 0x90, 0x37, 0x4e, 0x00, 0x90, 0x43, 0x3b, 
	0x64, 0x80, 0x37, 0x30, 0x1c, 0x90, 0x30, 0x45, 
	0x64, 0x80, 0x30, 0x30, 0x1c, 0x90, 0x37, 0x53, 
	0x64, 0x80, 0x43, 0x30, 0x00, 0x80, 0x37, 0x30, 
	0x1c, 0x90, 0x30, 0x43, 0x00, 0x90, 0x41, 0x41, 
	0x64, 0x80, 0x30, 0x30, 0x1c, 0x90, 0x37, 0x52, 
	0x64, 0x80, 0x41, 0x30, 0x00, 0x80, 0x37, 0x30, 
	0x1c, 0x90, 0x30, 0x4a, 0x00, 0x90, 0x43, 0x46, 
	0x64, 0x80, 0x30, 0x30, 0x1c, 0x90, 0x37, 0x53, 
	0x64, 0x80, 0x37, 0x30, 0x1c, 0x90, 0x30, 0x46, 
	0x64, 0x80, 0x30, 0x30, 0x1c, 0x90, 0x37, 0x50, 
	0x64, 0x80, 0x43, 0x30, 0x00, 0x80, 0x37, 0x30, 
	0x1c, 0x90, 0x30, 0x42, 0x00, 0x90, 0x3c, 0x38, 
	0x64, 0x80, 0x30, 0x30, 0x1c, 0x90, 0x37, 0x51, 
	0x64, 0x80, 0x3c, 0x30, 0x00, 0x80, 0x37, 0x30, 
	0x1c, 0x90, 0x30, 0x45, 0x00, 0x90, 0x3f, 0x46, 
	0x64, 0x80, 0x30, 0x30, 0x1c, 0x90, 0x37, 0x51, 
	0x64, 0x80, 0x3f, 0x30, 0x00, 0x80, 0x37, 0x30, 
	0x1c, 0x90, 0x2e, 0x45, 0x00, 0x90, 0x41, 0x44, 
	0x64, 0x80, 0x2e, 0x30, 0x1c, 0x90, 0x35, 0x51, 
	0x64, 0x80, 0x41, 0x30, 0x00, 0x80, 0x35, 0x30, 
	0x1c, 0x90, 0x2e, 0x44, 0x00, 0x90, 0x41, 0x41, 
	0x64, 0x80, 0x41, 0x30, 0x00, 0x80, 0x2e, 0x30, 
	0x1c, 0x90, 0x35, 0x51, 0x00, 0x90, 0x41, 0x3f, 
	0x64, 0x80, 0x35, 0x30, 0x1c, 0x90, 0x2e, 0x42, 
	0x64, 0x80, 0x2e, 0x30, 0x1c, 0x90, 0x35, 0x4f, 
	0x64, 0x80, 0x41, 0x30, 0x00, 0x80, 0x35, 0x30, 
	0x1c, 0x90, 0x2e, 0x49, 0x00, 0x90, 0x41, 0x42, 
	0x64, 0x80, 0x2e, 0x30, 0x1c, 0x90, 0x35, 0x51, 
	0x64, 0x80, 0x41, 0x30, 0x00, 0x80, 0x35, 0x30, 
	0x1c, 0x90, 0x2e, 0x45, 0x00, 0x90, 0x41, 0x40, 
	0x81, 0x64, 0x80, 0x41, 0x30, 0x00, 0x80, 0x2e, 
	0x30, 0x1c, 0x90, 0x3f, 0x39, 0x81, 0x64, 0x80, 
	0x3f, 0x30, 0x1c, 0x90, 0x3c, 0x3a, 0x81, 0x64, 
	0x80, 0x3c, 0x30, 0x1c, 0x90, 0x46, 0x52, 0x00, 
	0x90, 0x3a, 0x52, 0x81, 0x64, 0x80, 0x3a, 0x30, 
	0x00, 0x80, 0x46, 0x30, 0x1c, 0x90, 0x30, 0x44, 
	0x00, 0x90, 0x43, 0x3b, 0x64, 0x80, 0x43, 0x30, 
	0x00, 0x80, 0x30, 0x30, 0x1c, 0x90, 0x37, 0x51, 
	0x00, 0x90, 0x43, 0x43, 0x64, 0x80, 0x37, 0x30, 
	0x1c, 0x90, 0x30, 0x47, 0x64, 0x80, 0x43, 0x30, 
	0x00, 0x80, 0x30, 0x30, 0x1c, 0x90, 0x37, 0x56, 
	0x00, 0x90, 0x41, 0x41, 0x64, 0x80, 0x41, 0x30, 
	0x00, 0x80, 0x37, 0x30, 0x1c, 0x90, 0x30, 0x46, 
	0x00, 0x90, 0x43, 0x46, 0x64, 0x80, 0x43, 0x30, 
	0x00, 0x80, 0x30, 0x30, 0x1c, 0x90, 0x37, 0x50, 
	0x00, 0x90, 0x41, 0x3f, 0x64, 0x80, 0x41, 0x30, 
	0x00, 0x80, 0x37, 0x30, 0x1c, 0x90, 0x30, 0x45, 
	0x00, 0x90, 0x3f, 0x3c, 0x64, 0x80, 0x3f, 0x30, 
	0x00, 0x80, 0x30, 0x30, 0x1c, 0x90, 0x37, 0x4e, 
	0x00, 0x90, 0x3c, 0x36, 0x64, 0x80, 0x3c, 0x30, 
	0x00, 0x80, 0x37, 0x30, 0x1c, 0x90, 0x30, 0x45, 
	0x00, 0x90, 0x43, 0x4d, 0x64, 0x80, 0x43, 0x30, 
	0x00, 0x80, 0x30, 0x30, 0x1c, 0x90, 0x37, 0x52, 
	0x00, 0x90, 0x43, 0x3e, 0x64, 0x80, 0x37, 0x30, 
	0x1c, 0x90, 0x30, 0x49, 0x64, 0x80, 0x43, 0x30, 
	0x00, 0x80, 0x30, 0x30, 0x1c, 0x90, 0x37, 0x50, 
	0x00, 0x90, 0x3f, 0x3b, 0x64, 0x80, 0x3f, 0x30, 
	0x00, 0x80, 0x37, 0x30, 0x1c, 0x90, 0x30, 0x47, 
	0x00, 0x90, 0x41, 0x46, 0x64, 0x80, 0x41, 0x30, 
	0x00, 0x80, 0x30, 0x30, 0x1c, 0x90, 0x37, 0x53, 
	0x00, 0x90, 0x43, 0x47, 0x64, 0x80, 0x43, 0x30, 
	0x00, 0x80, 0x37, 0x30, 0x1c, 0x90, 0x30, 0x48, 
	0x00, 0x90, 0x52, 0x53, 0x64, 0x80, 0x30, 0x30, 
	0x1c, 0x90, 0x37, 0x55, 0x64, 0x80, 0x52, 0x30, 
	0x00, 0x80, 0x37, 0x30, 0x1c, 0x90, 0x2c, 0x48, 
	0x00, 0x90, 0x43, 0x33, 0x64, 0x80, 0x43, 0x30, 
	0x00, 0x80, 0x2c, 0x30, 0x1c, 0x90, 0x33, 0x50, 
	0x00, 0x90, 0x43, 0x36, 0x64, 0x80, 0x33, 0x30, 
	0x1c, 0x90, 0x2c, 0x4b, 0x64, 0x80, 0x43, 0x30, 
	0x00, 0x80, 0x2c, 0x30, 0x1c, 0x90, 0x33, 0x53, 
	0x00, 0x90, 0x41, 0x3b, 0x64, 0x80, 0x41, 0x30, 
	0x00, 0x80, 0x33, 0x30, 0x1c, 0x90, 0x2c, 0x48, 
	0x00, 0x90, 0x43, 0x45, 0x64, 0x80, 0x43, 0x30, 
	0x00, 0x80, 0x2c, 0x30, 0x1c, 0x90, 0x33, 0x50, 
	0x00, 0x90, 0x44, 0x46, 0x64, 0x80, 0x44, 0x30, 
	0x00, 0x80, 0x33, 0x30, 0x1c, 0x90, 0x2c, 0x45, 
	0x00, 0x90, 0x46, 0x47, 0x64, 0x80, 0x46, 0x30, 
	0x00, 0x80, 0x2c, 0x30, 0x1c, 0x90, 0x33, 0x51, 
	0x00, 0x90, 0x43, 0x37, 0x64, 0x80, 0x43, 0x30, 
	0x00, 0x80, 0x33, 0x30, 0x1c, 0x90, 0x2e, 0x4a, 
	0x00, 0x90, 0x46, 0x48, 0x64, 0x80, 0x46, 0x30, 
	0x00, 0x80, 0x2e, 0x30, 0x1c, 0x90, 0x35, 0x58, 
	0x00, 0x90, 0x48, 0x44, 0x64, 0x80, 0x48, 0x30, 
	0x00, 0x80, 0x35, 0x30, 0x1c, 0x90, 0x2e, 0x49, 
	0x00, 0x90, 0x4a, 0x44, 0x64, 0x80, 0x4a, 0x30, 
	0x00, 0x80, 0x2e, 0x30, 0x1c, 0x90, 0x35, 0x4e, 
	0x00, 0x90, 0x57, 0x54, 0x64, 0x80, 0x35, 0x30, 
	0x1c, 0x90, 0x2e, 0x46, 0x64, 0x80, 0x2e, 0x30, 
	0x1c, 0x90, 0x35, 0x50, 0x64, 0x80, 0x35, 0x30, 
	0x1c, 0x90, 0x2e, 0x47, 0x64, 0x80, 0x2e, 0x30, 
	0x1c, 0x90, 0x35, 0x56, 0x64, 0x80, 0x57, 0x30, 
	0x00, 0x80, 0x35, 0x30, 0x1c, 0x90, 0x30, 0x47, 
	0x00, 0x90, 0x46, 0x2d, 0x64, 0x80, 0x46, 0x30, 
	0x00, 0x80, 0x30, 0x30, 0x1c, 0x90, 0x37, 0x55, 
	0x00, 0x90, 0x43, 0x36, 0x64, 0x80, 0x43, 0x30, 
	0x00, 0x80, 0x37, 0x30, 0x1c, 0x90, 0x30, 0x46, 
	0x00, 0x90, 0x3f, 0x3a, 0x64, 0x80, 0x3f, 0x30, 
	0x00, 0x80, 0x30, 0x30, 0x1c, 0x90, 0x37, 0x54, 
	0x00, 0x90, 0x4b, 0x54, 0x64, 0x80, 0x37, 0x30, 
	0x1c, 0x90, 0x30, 0x4b, 0x64, 0x80, 0x4b, 0x30, 
	0x00, 0x80, 0x30, 0x30, 0x1c, 0x90, 0x37, 0x50, 
	0x00, 0x90, 0x3f, 0x29, 0x64, 0x80, 0x3f, 0x30, 
	0x00, 0x80, 0x37, 0x30, 0x1c, 0x90, 0x30, 0x46, 
	0x00, 0x90, 0x4b, 0x4e, 0x64, 0x80, 0x4b, 0x30, 
	0x00, 0x80, 0x30, 0x30, 0x1c, 0x90, 0x37, 0x54, 
	0x00, 0x90, 0x4f, 0x4d, 0x64, 0x80, 0x37, 0x30, 
	0x1c, 0x90, 0x30, 0x46, 0x64, 0x80, 0x4f, 0x30, 
	0x00, 0x80, 0x30, 0x30, 0x1c, 0x90, 0x37, 0x54, 
	0x00, 0x90, 0x4b, 0x39, 0x64, 0x80, 0x4b, 0x30, 
	0x00, 0x80, 0x37, 0x30, 0x1c, 0x90, 0x30, 0x45, 
	0x00, 0x90, 0x4f, 0x49, 0x64, 0x80, 0x4f, 0x30, 
	0x00, 0x80, 0x30, 0x30, 0x1c, 0x90, 0x37, 0x4e, 
	0x00, 0x90, 0x50, 0x48, 0x64, 0x80, 0x50, 0x30, 
	0x00, 0x80, 0x37, 0x30, 0x1c, 0x90, 0x30, 0x48, 
	0x00, 0x90, 0x52, 0x47, 0x64, 0x80, 0x30, 0x30, 
	0x1c, 0x90, 0x37, 0x50, 0x64, 0x80, 0x52, 0x30, 
	0x00, 0x80, 0x37, 0x30, 0x1c, 0x90, 0x30, 0x46, 
	0x00, 0x90, 0x50, 0x41, 0x64, 0x80, 0x50, 0x30, 
	0x00, 0x80, 0x30, 0x30, 0x1c, 0x90, 0x37, 0x53, 
	0x00, 0x90, 0x4f, 0x39, 0x64, 0x80, 0x4f, 0x30, 
	0x00, 0x80, 0x37, 0x30, 0x1c, 0x90, 0x2c, 0x44, 
	0x00, 0x90, 0x54, 0x4d, 0x64, 0x80, 0x54, 0x30, 
	0x00, 0x80, 0x2c, 0x30, 0x1c, 0x90, 0x33, 0x4d, 
	0x00, 0x90, 0x54, 0x43, 0x64, 0x80, 0x54, 0x30, 
	0x00, 0x80, 0x33, 0x30, 0x1c, 0x90, 0x2c, 0x46, 
	0x00, 0x90, 0x50, 0x39, 0x64, 0x80, 0x50, 0x30, 
	0x00, 0x80, 0x2c, 0x30, 0x1c, 0x90, 0x33, 0x4e, 
	0x00, 0x90, 0x54, 0x4b, 0x64, 0x80, 0x54, 0x30, 
	0x00, 0x80, 0x33, 0x30, 0x1c, 0x90, 0x2c, 0x46, 
	0x00, 0x90, 0x54, 0x40, 0x64, 0x80, 0x54, 0x30, 
	0x00, 0x80, 0x2c, 0x30, 0x1c, 0x90, 0x33, 0x56, 
	0x00, 0x90, 0x50, 0x3c, 0x64, 0x80, 0x50, 0x30, 
	0x00, 0x80, 0x33, 0x30, 0x1c, 0x90, 0x2c, 0x45, 
	0x00, 0x90, 0x54, 0x46, 0x64, 0x80, 0x54, 0x30, 
	0x00, 0x80, 0x2c, 0x30, 0x1c, 0x90, 0x33, 0x50, 
	0x00, 0x90, 0x50, 0x35, 0x64, 0x80, 0x50, 0x30, 
	0x00, 0x80, 0x33, 0x30, 0x1c, 0x90, 0x2e, 0x48, 
	0x00, 0x90, 0x52, 0x4a, 0x24, 0x80, 0x52, 0x30, 
	0x1c, 0x90, 0x4d, 0x33, 0x24, 0x80, 0x2e, 0x30, 
	0x00, 0x80, 0x4d, 0x30, 0x1c, 0x90, 0x35, 0x55, 
	0x00, 0x90, 0x52, 0x45, 0x24, 0x80, 0x52, 0x30, 
	0x1c, 0x90, 0x4d, 0x37, 0x24, 0x80, 0x35, 0x30, 
	0x00, 0x80, 0x4d, 0x30, 0x1c, 0x90, 0x2e, 0x49, 
	0x00, 0x90, 0x52, 0x49, 0x24, 0x80, 0x52, 0x30, 
	0x1c, 0x90, 0x4d, 0x39, 0x24, 0x80, 0x2e, 0x30, 
	0x00, 0x80, 0x4d, 0x30, 0x1c, 0x90, 0x35, 0x50, 
	0x00, 0x90, 0x52, 0x4b, 0x24, 0x80, 0x52, 0x30, 
	0x1c, 0x90, 0x4d, 0x3c, 0x24, 0x80, 0x35, 0x30, 
	0x00, 0x80, 0x4d, 0x30, 0x1c, 0x90, 0x2e, 0x46, 
	0x00, 0x90, 0x52, 0x4a, 0x24, 0x80, 0x52, 0x30, 
	0x1c, 0x90, 0x4d, 0x38, 0x24, 0x80, 0x2e, 0x30, 
	0x00, 0x80, 0x4d, 0x30, 0x1c, 0x90, 0x35, 0x54, 
	0x00, 0x90, 0x52, 0x46, 0x24, 0x80, 0x52, 0x30, 
	0x1c, 0x90, 0x4d, 0x35, 0x24, 0x80, 0x35, 0x30, 
	0x00, 0x80, 0x4d, 0x30, 0x1c, 0x90, 0x2e, 0x48, 
	0x00, 0x90, 0x52, 0x45, 0x24, 0x80, 0x52, 0x30, 
	0x1c, 0x90, 0x4d, 0x3e, 0x24, 0x80, 0x2e, 0x30, 
	0x00, 0x80, 0x4d, 0x30, 0x1c, 0x90, 0x35, 0x55, 
	0x00, 0x90, 0x52, 0x4b, 0x24, 0x80, 0x52, 0x30, 
	0x1c, 0x90, 0x4d, 0x39, 0x24, 0x80, 0x35, 0x30, 
	0x00, 0x80, 0x4d, 0x30, 0x1c, 0x90, 0x30, 0x47, 
	0x00, 0x90, 0x43, 0x33, 0x64, 0x80, 0x43, 0x30, 
	0x00, 0x80, 0x30, 0x30, 0x1c, 0x90, 0x37, 0x52, 
	0x00, 0x90, 0x43, 0x3b, 0x64, 0x80, 0x37, 0x30, 
	0x1c, 0x90, 0x30, 0x43, 0x64, 0x80, 0x43, 0x30, 
	0x00, 0x80, 0x30, 0x30, 0x1c, 0x90, 0x37, 0x50, 
	0x00, 0x90, 0x41, 0x3d, 0x64, 0x80, 0x41, 0x30, 
	0x00, 0x80, 0x37, 0x30, 0x1c, 0x90, 0x30, 0x44, 
	0x00, 0x90, 0x43, 0x46, 0x64, 0x80, 0x43, 0x30, 
	0x00, 0x80, 0x30, 0x30, 0x1c, 0x90, 0x37, 0x55, 
	0x00, 0x90, 0x41, 0x3f, 0x64, 0x80, 0x41, 0x30, 
	0x00, 0x80, 0x37, 0x30, 0x1c, 0x90, 0x30, 0x45, 
	0x00, 0x90, 0x3f, 0x43, 0x64, 0x80, 0x3f, 0x30, 
	0x00, 0x80, 0x30, 0x30, 0x1c, 0x90, 0x37, 0x4c, 
	0x00, 0x90, 0x3c, 0x39, 0x64, 0x80, 0x3c, 0x30, 
	0x00, 0x80, 0x37, 0x30, 0x1c, 0x90, 0x30, 0x44, 
	0x00, 0x90, 0x43, 0x4c, 0x64, 0x80, 0x43, 0x30, 
	0x00, 0x80, 0x30, 0x30, 0x1c, 0x90, 0x37, 0x50, 
	0x00, 0x90, 0x43, 0x3f, 0x64, 0x80, 0x37, 0x30, 
	0x1c, 0x90, 0x30, 0x45, 0x64, 0x80, 0x43, 0x30, 
	0x00, 0x80, 0x30, 0x30, 0x1c, 0x90, 0x37, 0x4e, 
	0x00, 0x90, 0x3f, 0x39, 0x64, 0x80, 0x3f, 0x30, 
	0x00, 0x80, 0x37, 0x30, 0x1c, 0x90, 0x30, 0x45, 
	0x00, 0x90, 0x41, 0x48, 0x64, 0x80, 0x41, 0x30, 
	0x00, 0x80, 0x30, 0x30, 0x1c, 0x90, 0x37, 0x58, 
	0x00, 0x90, 0x43, 0x43, 0x64, 0x80, 0x43, 0x30, 
	0x00, 0x80, 0x37, 0x30, 0x1c, 0x90, 0x30, 0x48, 
	0x00, 0x90, 0x52, 0x54, 0x64, 0x80, 0x30, 0x30, 
	0x1c, 0x90, 0x37, 0x52, 0x64, 0x80, 0x52, 0x30, 
	0x00, 0x80, 0x37, 0x30, 0x1c, 0x90, 0x2c, 0x43, 
	0x00, 0x90, 0x4b, 0x37, 0x24, 0x80, 0x4b, 0x30, 
	0x1c, 0x90, 0x46, 0x3a, 0x24, 0x80, 0x2c, 0x30, 
	0x00, 0x80, 0x46, 0x30, 0x1c, 0x90, 0x33, 0x51, 
	0x00, 0x90, 0x4b, 0x46, 0x24, 0x80, 0x4b, 0x30, 
	0x1c, 0x90, 0x46, 0x37, 0x24, 0x80, 0x33, 0x30, 
	0x00, 0x80, 0x46, 0x30, 0x1c, 0x90, 0x2c, 0x48, 
	0x00, 0x90, 0x4b, 0x4a, 0x24, 0x80, 0x4b, 0x30, 
	0x1c, 0x90, 0x46, 0x33, 0x24, 0x80, 0x2c, 0x30, 
	0x00, 0x80, 0x46, 0x30, 0x1c, 0x90, 0x33, 0x52, 
	0x00, 0x90, 0x48, 0x44, 0x24, 0x80, 0x48, 0x30, 
	0x1c, 0x90, 0x44, 0x3a, 0x24, 0x80, 0x33, 0x30, 
	0x00, 0x80, 0x44, 0x30, 0x1c, 0x90, 0x2c, 0x45, 
	0x00, 0x90, 0x48, 0x47, 0x24, 0x80, 0x48, 0x30, 
	0x1c, 0x90, 0x44, 0x38, 0x24, 0x80, 0x2c, 0x30, 
	0x00, 0x80, 0x44, 0x30, 0x1c, 0x90, 0x33, 0x50, 
	0x00, 0x90, 0x48, 0x4d, 0x24, 0x80, 0x48, 0x30, 
	0x1c, 0x90, 0x44, 0x3c, 0x24, 0x80, 0x33, 0x30, 
	0x00, 0x80, 0x44, 0x30, 0x1c, 0x90, 0x2c, 0x44, 
	0x00, 0x90, 0x46, 0x47, 0x24, 0x80, 0x46, 0x30, 
	0x1c, 0x90, 0x44, 0x3b, 0x24, 0x80, 0x2c, 0x30, 
	0x00, 0x80, 0x44, 0x30, 0x1c, 0x90, 0x33, 0x54, 
	0x00, 0x90, 0x46, 0x48, 0x24, 0x80, 0x46, 0x30, 
	0x1c, 0x90, 0x44, 0x40, 0x24, 0x80, 0x33, 0x30, 
	0x00, 0x80, 0x44, 0x30, 0x1c, 0x90, 0x2e, 0x44, 
	0x00, 0x90, 0x46, 0x46, 0x64, 0x80, 0x46, 0x30, 
	0x00, 0x80, 0x2e, 0x30, 0x1c, 0x90, 0x35, 0x53, 
	0x00, 0x90, 0x48, 0x42, 0x64, 0x80, 0x48, 0x30, 
	0x00, 0x80, 0x35, 0x30, 0x1c, 0x90, 0x2e, 0x48, 
	0x00, 0x90, 0x4a, 0x43, 0x64, 0x80, 0x4a, 0x30, 
	0x00, 0x80, 0x2e, 0x30, 0x1c, 0x90, 0x35, 0x54, 
	0x00, 0x90, 0x57, 0x53, 0x64, 0x80, 0x35, 0x30, 
	0x1c, 0x90, 0x2e, 0x49, 0x64, 0x80, 0x2e, 0x30, 
	0x1c, 0x90, 0x35, 0x54, 0x64, 0x80, 0x35, 0x30, 
	0x1c, 0x90, 0x2e, 0x42, 0x64, 0x80, 0x2e, 0x30, 
	0x1c, 0x90, 0x35, 0x53, 0x64, 0x80, 0x57, 0x30, 
	0x00, 0x80, 0x35, 0x30, 0x1c, 0x90, 0x30, 0x43, 
	0x00, 0x90, 0x46, 0x30, 0x64, 0x80, 0x46, 0x30, 
	0x00, 0x80, 0x30, 0x30, 0x1c, 0x90, 0x37, 0x54, 
	0x00, 0x90, 0x46, 0x3d, 0x64, 0x80, 0x37, 0x30, 
	0x1c, 0x90, 0x30, 0x3f, 0x64, 0x80, 0x46, 0x30, 
	0x00, 0x80, 0x30, 0x30, 0x1c, 0x90, 0x37, 0x4f, 
	0x00, 0x90, 0x43, 0x3b, 0x24, 0x80, 0x43, 0x30, 
	0x1c, 0x90, 0x44, 0x44, 0x24, 0x80, 0x37, 0x30, 
	0x00, 0x80, 0x44, 0x30, 0x1c, 0x90, 0x30, 0x42, 
	0x00, 0x90, 0x46, 0x45, 0x64, 0x80, 0x46, 0x30, 
	0x00, 0x80, 0x30, 0x30, 0x1c, 0x90, 0x37, 0x56, 
	0x00, 0x90, 0x44, 0x3d, 0x64, 0x80, 0x44, 0x30, 
	0x00, 0x80, 0x37, 0x30, 0x1c, 0x90, 0x30, 0x42, 
	0x00, 0x90, 0x43, 0x39, 0x64, 0x80, 0x43, 0x30, 
	0x00, 0x80, 0x30, 0x30, 0x1c, 0x90, 0x37, 0x53, 
	0x00, 0x90, 0x3f, 0x3a, 0x64, 0x80, 0x3f, 0x30, 
	0x00, 0x80, 0x37, 0x30, 0x1c, 0x90, 0x30, 0x44, 
	0x00, 0x90, 0x46, 0x4b, 0x64, 0x80, 0x46, 0x30, 
	0x00, 0x80, 0x30, 0x30, 0x1c, 0x90, 0x37, 0x54, 
	0x00, 0x90, 0x46, 0x3f, 0x64, 0x80, 0x37, 0x30, 
	0x1c, 0x90, 0x30, 0x47, 0x64, 0x80, 0x46, 0x30, 
	0x00, 0x80, 0x30, 0x30, 0x1c, 0x90, 0x37, 0x50, 
	0x00, 0x90, 0x43, 0x3a, 0x24, 0x80, 0x43, 0x30, 
	0x1c, 0x90, 0x44, 0x46, 0x24, 0x80, 0x37, 0x30, 
	0x00, 0x80, 0x44, 0x30, 0x1c, 0x90, 0x30, 0x45, 
	0x00, 0x90, 0x46, 0x45, 0x64, 0x80, 0x46, 0x30, 
	0x00, 0x80, 0x30, 0x30, 0x1c, 0x90, 0x37, 0x53, 
	0x00, 0x90, 0x4b, 0x4b, 0x64, 0x80, 0x4b, 0x30, 
	0x00, 0x80, 0x37, 0x30, 0x1c, 0x90, 0x30, 0x44, 
	0x00, 0x90, 0x57, 0x53, 0x64, 0x80, 0x30, 0x30, 
	0x1c, 0x90, 0x37, 0x55, 0x64, 0x80, 0x57, 0x30, 
	0x00, 0x80, 0x37, 0x30, 0x1c, 0x90, 0x2c, 0x42, 
	0x00, 0x90, 0x57, 0x47, 0x24, 0x80, 0x57, 0x30, 
	0x1c, 0x90, 0x52, 0x37, 0x24, 0x80, 0x2c, 0x30, 
	0x00, 0x80, 0x52, 0x30, 0x1c, 0x90, 0x33, 0x51, 
	0x00, 0x90, 0x57, 0x4b, 0x24, 0x80, 0x57, 0x30, 
	0x1c, 0x90, 0x52, 0x39, 0x24, 0x80, 0x33, 0x30, 
	0x00, 0x80, 0x52, 0x30, 0x1c, 0x90, 0x2c, 0x45, 
	0x00, 0x90, 0x57, 0x47, 0x24, 0x80, 0x57, 0x30, 
	0x1c, 0x90, 0x52, 0x3a, 0x24, 0x80, 0x2c, 0x30, 
	0x00, 0x80, 0x52, 0x30, 0x1c, 0x90, 0x33, 0x54, 
	0x00, 0x90, 0x57, 0x46, 0x24, 0x80, 0x57, 0x30, 
	0x1c, 0x90, 0x52, 0x3b, 0x24, 0x80, 0x33, 0x30, 
	0x00, 0x80, 0x52, 0x30, 0x1c, 0x90, 0x2c, 0x47, 
	0x00, 0x90, 0x57, 0x49, 0x24, 0x80, 0x57, 0x30, 
	0x1c, 0x90, 0x52, 0x36, 0x24, 0x80, 0x2c, 0x30, 
	0x00, 0x80, 0x52, 0x30, 0x1c, 0x90, 0x33, 0x51, 
	0x00, 0x90, 0x57, 0x48, 0x24, 0x80, 0x57, 0x30, 
	0x1c, 0x90, 0x52, 0x36, 0x24, 0x80, 0x33, 0x30, 
	0x00, 0x80, 0x52, 0x30, 0x1c, 0x90, 0x2c, 0x47, 
	0x00, 0x90, 0x57, 0x47, 0x24, 0x80, 0x57, 0x30, 
	0x1c, 0x90, 0x52, 0x3a, 0x24, 0x80, 0x2c, 0x30, 
	0x00, 0x80, 0x52, 0x30, 0x1c, 0x90, 0x33, 0x57, 
	0x00, 0x90, 0x57, 0x48, 0x24, 0x80, 0x57, 0x30, 
	0x1c, 0x90, 0x52, 0x36, 0x24, 0x80, 0x33, 0x30, 
	0x00, 0x80, 0x52, 0x30, 0x1c, 0x90, 0x2e, 0x52, 
	0x00, 0x90, 0x50, 0x3d, 0x81, 0x64, 0x80, 0x50, 
	0x30, 0x00, 0x80, 0x2e, 0x30, 0x1c, 0x90, 0x30, 
	0x51, 0x00, 0x90, 0x52, 0x40, 0x81, 0x64, 0x80, 
	0x52, 0x30, 0x00, 0x80, 0x30, 0x30, 0x1c, 0x90, 
	0x2e, 0x47, 0x00, 0x90, 0x50, 0x40, 0x81, 0x24, 
	0x80, 0x50, 0x30, 0x00, 0x80, 0x2e, 0x30, 0x1c, 
	0x90, 0x2c, 0x4a, 0x00, 0x90, 0x4f, 0x40, 0x81, 
	0x24, 0x80, 0x4f, 0x30, 0x00, 0x80, 0x2c, 0x30, 
	0x1c, 0x90, 0x2b, 0x4c, 0x00, 0x90, 0x4d, 0x3a, 
	0x64, 0x80, 0x4d, 0x30, 0x00, 0x80, 0x2b, 0x30, 
	0x1c, 0x90, 0x30, 0x45, 0x00, 0x90, 0x5b, 0x55, 
	0x64, 0x80, 0x30, 0x30, 0x1c, 0x90, 0x27, 0x3e, 
	0x64, 0x80, 0x27, 0x30, 0x1c, 0x90, 0x2b, 0x4e, 
	0x64, 0x80, 0x2b, 0x30, 0x1c, 0x90, 0x30, 0x4f, 
	0x64, 0x80, 0x5b, 0x30, 0x00, 0x80, 0x30, 0x30, 
	0x1c, 0x90, 0x27, 0x42, 0x64, 0x80, 0x27, 0x30, 
	0x1c, 0x90, 0x2b, 0x4d, 0x64, 0x80, 0x2b, 0x30, 
	0x1c, 0x90, 0x30, 0x4f, 0x64, 0x80, 0x30, 0x30, 
	0x1c, 0x90, 0x27, 0x42, 0x64, 0x80, 0x27, 0x30, 
	0x1c, 0x90, 0x2b, 0x53, 0x64, 0x80, 0x2b, 0x30, 
	0x1c, 0x90, 0x30, 0x4e, 0x64, 0x80, 0x30, 0x30, 
	0x1c, 0x90, 0x27, 0x46, 0x64, 0x80, 0x27, 0x30, 
	0x1c, 0x90, 0x2b, 0x4c, 0x64, 0x80, 0x2b, 0x30, 
	0x1c, 0x90, 0x30, 0x4e, 0x64, 0x80, 0x30, 0x30, 
	0x1c, 0x90, 0x27, 0x42, 0x64, 0x80, 0x27, 0x30, 
	0x1c, 0x90, 0x2b, 0x4f, 0x64, 0x80, 0x2b, 0x30, 
	0x1c, 0x90, 0x30, 0x54, 0x64, 0x80, 0x30, 0x30, 
	0x1c, 0x90, 0x24, 0x45, 0x64, 0x80, 0x24, 0x30, 
	0x1c, 0x90, 0x30, 0x54, 0x64, 0x80, 0x30, 0x30, 
	0x1c, 0x90, 0x24, 0x41, 0x00, 0x90, 0x43, 0x36, 
	0x64, 0x80, 0x43, 0x30, 0x00, 0x80, 0x24, 0x30, 
	0x1c, 0x90, 0x30, 0x57, 0x00, 0x90, 0x43, 0x40, 
	0x64, 0x80, 0x43, 0x30, 0x00, 0x80, 0x30, 0x30, 
	0x1c, 0x90, 0x24, 0x41, 0x00, 0x90, 0x43, 0x41, 
	0x64, 0x80, 0x24, 0x30, 0x1c, 0x90, 0x30, 0x54, 
	0x64, 0x80, 0x43, 0x30, 0x00, 0x80, 0x30, 0x30, 
	0x1c, 0x90, 0x24, 0x47, 0x00, 0x90, 0x41, 0x3a, 
	0x64, 0x80, 0x41, 0x30, 0x00, 0x80, 0x24, 0x30, 
	0x1c, 0x90, 0x30, 0x53, 0x00, 0x90, 0x3f, 0x40, 
	0x64, 0x80, 0x3f, 0x30, 0x00, 0x80, 0x30, 0x30, 
	0x1c, 0x90, 0x24, 0x41, 0x00, 0x90, 0x41, 0x4a, 
	0x64, 0x80, 0x24, 0x30, 0x1c, 0x90, 0x30, 0x57, 
	0x64, 0x80, 0x41, 0x30, 0x00, 0x80, 0x30, 0x30, 
	0x1c, 0x90, 0x24, 0x45, 0x00, 0x90, 0x43, 0x41, 
	0x64, 0x80, 0x24, 0x30, 0x1c, 0x90, 0x30, 0x53, 
	0x64, 0x80, 0x43, 0x30, 0x00, 0x80, 0x30, 0x30, 
	0x1c, 0x90, 0x24, 0x49, 0x64, 0x80, 0x24, 0x30, 
	0x1c, 0x90, 0x30, 0x52, 0x64, 0x80, 0x30, 0x30, 
	0x1c, 0x90, 0x24, 0x43, 0x00, 0x90, 0x3c, 0x3b, 
	0x64, 0x80, 0x3c, 0x30, 0x00, 0x80, 0x24, 0x30, 
	0x1c, 0x90, 0x30, 0x51, 0x00, 0x90, 0x3f, 0x41, 
	0x64, 0x80, 0x3f, 0x30, 0x00, 0x80, 0x30, 0x30, 
	0x1c, 0x90, 0x20, 0x42, 0x00, 0x90, 0x41, 0x42, 
	0x64, 0x80, 0x20, 0x30, 0x1c, 0x90, 0x2c, 0x54, 
	0x64, 0x80, 0x41, 0x30, 0x00, 0x80, 0x2c, 0x30, 
	0x1c, 0x90, 0x20, 0x42, 0x00, 0x90, 0x43, 0x47, 
	0x64, 0x80, 0x20, 0x30, 0x1c, 0x90, 0x2c, 0x54, 
	0x64, 0x80, 0x43, 0x30, 0x00, 0x80, 0x2c, 0x30, 
	0x1c, 0x90, 0x20, 0x43, 0x00, 0x90, 0x41, 0x3b, 
	0x64, 0x80, 0x20, 0x30, 0x1c, 0x90, 0x2c, 0x59, 
	0x64, 0x80, 0x41, 0x30, 0x00, 0x80, 0x2c, 0x30, 
	0x1c, 0x90, 0x20, 0x44, 0x00, 0x90, 0x3f, 0x39, 
	0x64, 0x80, 0x3f, 0x30, 0x00, 0x80, 0x20, 0x30, 
	0x1c, 0x90, 0x2c, 0x58, 0x00, 0x90, 0x3c, 0x3a, 
	0x64, 0x80, 0x2c, 0x30, 0x1c, 0x90, 0x20, 0x41, 
	0x64, 0x80, 0x20, 0x30, 0x1c, 0x90, 0x2c, 0x55, 
	0x64, 0x80, 0x2c, 0x30, 0x1c, 0x90, 0x20, 0x47, 
	0x64, 0x80, 0x20, 0x30, 0x1c, 0x90, 0x2c, 0x56, 
	0x64, 0x80, 0x3c, 0x30, 0x00, 0x80, 0x2c, 0x30, 
	0x1c, 0x90, 0x20, 0x45, 0x64, 0x80, 0x20, 0x30, 
	0x1c, 0x90, 0x2c, 0x51, 0x64, 0x80, 0x2c, 0x30, 
	0x1c, 0x90, 0x20, 0x45, 0x00, 0x90, 0x3f, 0x38, 
	0x64, 0x80, 0x20, 0x30, 0x1c, 0x90, 0x2c, 0x55, 
	0x64, 0x80, 0x3f, 0x30, 0x00, 0x80, 0x2c, 0x30, 
	0x1c, 0x90, 0x22, 0x46, 0x00, 0x90, 0x41, 0x43, 
	0x64, 0x80, 0x22, 0x30, 0x1c, 0x90, 0x2e, 0x54, 
	0x64, 0x80, 0x41, 0x30, 0x00, 0x80, 0x2e, 0x30, 
	0x1c, 0x90, 0x22, 0x43, 0x00, 0x90, 0x41, 0x46, 
	0x64, 0x80, 0x22, 0x30, 0x1c, 0x90, 0x2e, 0x55, 
	0x64, 0x80, 0x41, 0x30, 0x00, 0x80, 0x2e, 0x30, 
	0x1c, 0x90, 0x22, 0x42, 0x00, 0x90, 0x41, 0x3f, 
	0x64, 0x80, 0x22, 0x30, 0x1c, 0x90, 0x2e, 0x51, 
	0x64, 0x80, 0x41, 0x30, 0x00, 0x80, 0x2e, 0x30, 
	0x1c, 0x90, 0x22, 0x44, 0x00, 0x90, 0x3f, 0x3b, 
	0x64, 0x80, 0x22, 0x30, 0x1c, 0x90, 0x2e, 0x56, 
	0x64, 0x80, 0x3f, 0x30, 0x00, 0x80, 0x2e, 0x30, 
	0x1c, 0x90, 0x22, 0x43, 0x00, 0x90, 0x41, 0x44, 
	0x64, 0x80, 0x22, 0x30, 0x1c, 0x90, 0x2e, 0x58, 
	0x64, 0x80, 0x41, 0x30, 0x00, 0x80, 0x2e, 0x30, 
	0x1c, 0x90, 0x22, 0x3d, 0x00, 0x90, 0x43, 0x44, 
	0x64, 0x80, 0x43, 0x30, 0x00, 0x80, 0x22, 0x30, 
	0x1c, 0x90, 0x2e, 0x54, 0x00, 0x90, 0x41, 0x3d, 
	0x64, 0x80, 0x2e, 0x30, 0x1c, 0x90, 0x22, 0x45, 
	0x64, 0x80, 0x22, 0x30, 0x1c, 0x90, 0x2e, 0x54, 
	0x64, 0x80, 0x41, 0x30, 0x00, 0x80, 0x2e, 0x30, 
	0x1c, 0x90, 0x22, 0x43, 0x00, 0x90, 0x3c, 0x39, 
	0x64, 0x80, 0x3c, 0x30, 0x00, 0x80, 0x22, 0x30, 
	0x1c, 0x90, 0x2e, 0x53, 0x00, 0x90, 0x3f, 0x43, 
	0x64, 0x80, 0x3f, 0x30, 0x00, 0x80, 0x2e, 0x30, 
	0x1c, 0x90, 0x22, 0x42, 0x00, 0x90, 0x41, 0x44, 
	0x64, 0x80, 0x22, 0x30, 0x1c, 0x90, 0x2e, 0x55, 
	0x64, 0x80, 0x41, 0x30, 0x00, 0x80, 0x2e, 0x30, 
	0x1c, 0x90, 0x22, 0x46, 0x00, 0x90, 0x43, 0x43, 
	0x64, 0x80, 0x22, 0x30, 0x1c, 0x90, 0x2e, 0x57, 
	0x64, 0x80, 0x43, 0x30, 0x00, 0x80, 0x2e, 0x30, 
	0x1c, 0x90, 0x22, 0x41, 0x00, 0x90, 0x41, 0x3b, 
	0x64, 0x80, 0x41, 0x30, 0x00, 0x80, 0x22, 0x30, 
	0x1c, 0x90, 0x2e, 0x53, 0x00, 0x90, 0x3f, 0x3f, 
	0x64, 0x80, 0x2e, 0x30, 0x1c, 0x90, 0x22, 0x41, 
	0x64, 0x80, 0x3f, 0x30, 0x00, 0x80, 0x22, 0x30, 
	0x1c, 0x90, 0x2e, 0x56, 0x00, 0x90, 0x3c, 0x3a, 
	0x64, 0x80, 0x2e, 0x30, 0x1c, 0x90, 0x30, 0x52, 
	0x64, 0x80, 0x3c, 0x30, 0x00, 0x80, 0x30, 0x30, 
	0x87, 0x1c, 0x90, 0x24, 0x43, 0x64, 0x80, 0x24, 
	0x30, 0x1c, 0x90, 0x30, 0x56, 0x64, 0x80, 0x30, 
	0x30, 0x1c, 0x90, 0x24, 0x45, 0x00, 0x90, 0x43, 
	0x38, 0x64, 0x80, 0x43, 0x30, 0x00, 0x80, 0x24, 
	0x30, 0x1c, 0x90, 0x30, 0x53, 0x00, 0x90, 0x43, 
	0x3f, 0x64, 0x80, 0x43, 0x30, 0x00, 0x80, 0x30, 
	0x30, 0x1c, 0x90, 0x24, 0x41, 0x00, 0x90, 0x43, 
	0x3c, 0x64, 0x80, 0x24, 0x30, 0x1c, 0x90, 0x30, 
	0x55, 0x64, 0x80, 0x43, 0x30, 0x00, 0x80, 0x30, 
	0x30, 0x1c, 0x90, 0x24, 0x47, 0x00, 0x90, 0x41, 
	0x3a, 0x64, 0x80, 0x41, 0x30, 0x00, 0x80, 0x24, 
	0x30, 0x1c, 0x90, 0x30, 0x59, 0x00, 0x90, 0x3f, 
	0x3c, 0x64, 0x80, 0x3f, 0x30, 0x00, 0x80, 0x30, 
	0x30, 0x1c, 0x90, 0x24, 0x4a, 0x00, 0x90, 0x41, 
	0x3f, 0x64, 0x80, 0x41, 0x30, 0x00, 0x80, 0x24, 
	0x30, 0x1c, 0x90, 0x30, 0x52, 0x00, 0x90, 0x41, 
	0x44, 0x64, 0x80, 0x30, 0x30, 0x1c, 0x90, 0x24, 
	0x45, 0x64, 0x80, 0x41, 0x30, 0x00, 0x80, 0x24, 
	0x30, 0x1c, 0x90, 0x30, 0x57, 0x00, 0x90, 0x3f, 
	0x3e, 0x64, 0x80, 0x3f, 0x30, 0x00, 0x80, 0x30, 
	0x30, 0x1c, 0x90, 0x24, 0x41, 0x00, 0x90, 0x43, 
	0x49, 0x64, 0x80, 0x24, 0x30, 0x1c, 0x90, 0x30, 
	0x52, 0x64, 0x80, 0x43, 0x30, 0x00, 0x80, 0x30, 
	0x30, 0x1c, 0x90, 0x24, 0x41, 0x00, 0x90, 0x3c, 
	0x35, 0x64, 0x80, 0x3c, 0x30, 0x00, 0x80, 0x24, 
	0x30, 0x1c, 0x90, 0x30, 0x53, 0x00, 0x90, 0x3f, 
	0x42, 0x64, 0x80, 0x3f, 0x30, 0x00, 0x80, 0x30, 
	0x30, 0x1c, 0x90, 0x20, 0x42, 0x00, 0x90, 0x41, 
	0x44, 0x64, 0x80, 0x20, 0x30, 0x1c, 0x90, 0x2c, 
	0x57, 0x64, 0x80, 0x41, 0x30, 0x00, 0x80, 0x2c, 
	0x30, 0x1c, 0x90, 0x20, 0x42, 0x00, 0x90, 0x43, 
	0x45, 0x64, 0x80, 0x43, 0x30, 0x00, 0x80, 0x20, 
	0x30, 0x1c, 0x90, 0x2c, 0x51, 0x00, 0x90, 0x41, 
	0x3d, 0x64, 0x80, 0x2c, 0x30, 0x1c, 0x90, 0x20, 
	0x44, 0x64, 0x80, 0x41, 0x30, 0x00, 0x80, 0x20, 
	0x30, 0x1c, 0x90, 0x2c, 0x57, 0x00, 0x90, 0x3f, 
	0x41, 0x64, 0x80, 0x2c, 0x30, 0x1c, 0x90, 0x20, 
	0x45, 0x64, 0x80, 0x3f, 0x30, 0x00, 0x80, 0x20, 
	0x30, 0x1c, 0x90, 0x2c, 0x57, 0x00, 0x90, 0x3c, 
	0x43, 0x64, 0x80, 0x2c, 0x30, 0x1c, 0x90, 0x20, 
	0x44, 0x64, 0x80, 0x20, 0x30, 0x1c, 0x90, 0x2c, 
	0x55, 0x64, 0x80, 0x3c, 0x30, 0x00, 0x80, 0x2c, 
	0x30, 0x1c, 0x90, 0x20, 0x45, 0x64, 0x80, 0x20, 
	0x30, 0x1c, 0x90, 0x2c, 0x51, 0x64, 0x80, 0x2c, 
	0x30, 0x1c, 0x90, 0x20, 0x42, 0x64, 0x80, 0x20, 
	0x30, 0x1c, 0x90, 0x2c, 0x52, 0x64, 0x80, 0x2c, 
	0x30, 0x1c, 0x90, 0x20, 0x44, 0x00, 0x90, 0x3f, 
	0x3a, 0x64, 0x80, 0x20, 0x30, 0x1c, 0x90, 0x2c, 
	0x53, 0x64, 0x80, 0x3f, 0x30, 0x00, 0x80, 0x2c, 
	0x30, 0x1c, 0x90, 0x22, 0x48, 0x00, 0x90, 0x41, 
	0x44, 0x64, 0x80, 0x22, 0x30, 0x1c, 0x90, 0x2e, 
	0x55, 0x64, 0x80, 0x41, 0x30, 0x00, 0x80, 0x2e, 
	0x30, 0x1c, 0x90, 0x22, 0x41, 0x00, 0x90, 0x41, 
	0x3f, 0x64, 0x80, 0x41, 0x30, 0x00, 0x80, 0x22, 
	0x30, 0x1c, 0x90, 0x2e, 0x55, 0x00, 0x90, 0x41, 
	0x40, 0x64, 0x80, 0x2e, 0x30, 0x1c, 0x90, 0x22, 
	0x3f, 0x64, 0x80, 0x22, 0x30, 0x1c, 0x90, 0x2e, 
	0x55, 0x64, 0x80, 0x41, 0x30, 0x00, 0x80, 0x2e, 
	0x30, 0x1c, 0x90, 0x22, 0x44, 0x00, 0x90, 0x3f, 
	0x3e, 0x64, 0x80, 0x22, 0x30, 0x1c, 0x90, 0x2e, 
	0x57, 0x64, 0x80, 0x3f, 0x30, 0x00, 0x80, 0x2e, 
	0x30, 0x1c, 0x90, 0x22, 0x43, 0x00, 0x90, 0x41, 
	0x47, 0x64, 0x80, 0x22, 0x30, 0x1c, 0x90, 0x2e, 
	0x58, 0x64, 0x80, 0x41, 0x30, 0x00, 0x80, 0x2e, 
	0x30, 0x1c, 0x90, 0x22, 0x41, 0x00, 0x90, 0x43, 
	0x46, 0x64, 0x80, 0x43, 0x30, 0x00, 0x80, 0x22, 
	0x30, 0x1c, 0x90, 0x2e, 0x58, 0x00, 0x90, 0x41, 
	0x39, 0x64, 0x80, 0x2e, 0x30, 0x1c, 0x90, 0x22, 
	0x40, 0x64, 0x80, 0x22, 0x30, 0x1c, 0x90, 0x2e, 
	0x59, 0x64, 0x80, 0x41, 0x30, 0x00, 0x80, 0x2e, 
	0x30, 0x1c, 0x90, 0x22, 0x45, 0x00, 0x90, 0x3f, 
	0x40, 0x64, 0x80, 0x22, 0x30, 0x1c, 0x90, 0x2e, 
	0x58, 0x64, 0x80, 0x3f, 0x30, 0x00, 0x80, 0x2e, 
	0x30, 0x1c, 0x90, 0x22, 0x45, 0x00, 0x90, 0x41, 
	0x46, 0x64, 0x80, 0x22, 0x30, 0x1c, 0x90, 0x2e, 
	0x57, 0x64, 0x80, 0x41, 0x30, 0x00, 0x80, 0x2e, 
	0x30, 0x1c, 0x90, 0x22, 0x40, 0x00, 0x90, 0x43, 
	0x45, 0x64, 0x80, 0x43, 0x30, 0x00, 0x80, 0x22, 
	0x30, 0x1c, 0x90, 0x2e, 0x55, 0x00, 0x90, 0x41, 
	0x42, 0x64, 0x80, 0x2e, 0x30, 0x1c, 0x90, 0x22, 
	0x45, 0x64, 0x80, 0x22, 0x30, 0x1c, 0x90, 0x2e, 
	0x59, 0x64, 0x80, 0x41, 0x30, 0x00, 0x80, 0x2e, 
	0x30, 0x1c, 0x90, 0x22, 0x46, 0x00, 0x90, 0x3f, 
	0x3e, 0x64, 0x80, 0x22, 0x30, 0x1c, 0x90, 0x2e, 
	0x56, 0x64, 0x80, 0x3f, 0x30, 0x00, 0x80, 0x2e, 
	0x30, 0x1c, 0x90, 0x24, 0x43, 0x00, 0x90, 0x3c, 
	0x39, 0x64, 0x80, 0x24, 0x30, 0x1c, 0x90, 0x30, 
	0x59, 0x64, 0x80, 0x30, 0x30, 0x1c, 0x90, 0x24, 
	0x42, 0x64, 0x80, 0x24, 0x30, 0x1c, 0x90, 0x30, 
	0x5b, 0x64, 0x80, 0x3c, 0x30, 0x00, 0x80, 0x30, 
	0x30, 0x1c, 0x90, 0x24, 0x47, 0x00, 0x90, 0x41, 
	0x45, 0x64, 0x80, 0x24, 0x30, 0x1c, 0x90, 0x30, 
	0x56, 0x64, 0x80, 0x41, 0x30, 0x00, 0x80, 0x30, 
	0x30, 0x1c, 0x90, 0x24, 0x41, 0x00, 0x90, 0x43, 
	0x45, 0x64, 0x80, 0x24, 0x30, 0x1c, 0x90, 0x30, 
	0x57, 0x64, 0x80, 0x43, 0x30, 0x00, 0x80, 0x30, 
	0x30, 0x1c, 0x90, 0x20, 0x43, 0x00, 0x90, 0x44, 
	0x4a, 0x64, 0x80, 0x20, 0x30, 0x1c, 0x90, 0x2c, 
	0x51, 0x64, 0x80, 0x44, 0x30, 0x00, 0x80, 0x2c, 
	0x30, 0x1c, 0x90, 0x20, 0x43, 0x00, 0x90, 0x44, 
	0x43, 0x64, 0x80, 0x44, 0x30, 0x00, 0x80, 0x20, 
	0x30, 0x1c, 0x90, 0x2c, 0x55, 0x00, 0x90, 0x43, 
	0x3e, 0x64, 0x80, 0x2c, 0x30, 0x1c, 0x90, 0x20, 
	0x43, 0x64, 0x80, 0x20, 0x30, 0x1c, 0x90, 0x2c, 
	0x57, 0x64, 0x80, 0x43, 0x30, 0x00, 0x80, 0x2c, 
	0x30, 0x1c, 0x90, 0x20, 0x43, 0x00, 0x90, 0x41, 
	0x3e, 0x64, 0x80, 0x20, 0x30, 0x1c, 0x90, 0x2c, 
	0x51, 0x64, 0x80, 0x41, 0x30, 0x00, 0x80, 0x2c, 
	0x30, 0x1c, 0x90, 0x20, 0x40, 0x00, 0x90, 0x44, 
	0x48, 0x64, 0x80, 0x20, 0x30, 0x1c, 0x90, 0x2c, 
	0x55, 0x64, 0x80, 0x44, 0x30, 0x00, 0x80, 0x2c, 
	0x30, 0x1c, 0x90, 0x20, 0x48, 0x00, 0x90, 0x44, 
	0x3f, 0x64, 0x80, 0x44, 0x30, 0x00, 0x80, 0x20, 
	0x30, 0x1c, 0x90, 0x2c, 0x55, 0x00, 0x90, 0x43, 
	0x40, 0x64, 0x80, 0x2c, 0x30, 0x1c, 0x90, 0x20, 
	0x44, 0x64, 0x80, 0x20, 0x30, 0x1c, 0x90, 0x2c, 
	0x53, 0x64, 0x80, 0x43, 0x30, 0x00, 0x80, 0x2c, 
	0x30, 0x1c, 0x90, 0x20, 0x45, 0x00, 0x90, 0x41, 
	0x41, 0x64, 0x80, 0x20, 0x30, 0x1c, 0x90, 0x2c, 
	0x54, 0x64, 0x80, 0x41, 0x30, 0x00, 0x80, 0x2c, 
	0x30, 0x1c, 0x90, 0x24, 0x49, 0x00, 0x90, 0x43, 
	0x40, 0x64, 0x80, 0x24, 0x30, 0x1c, 0x90, 0x30, 
	0x57, 0x64, 0x80, 0x43, 0x30, 0x00, 0x80, 0x30, 
	0x30, 0x1c, 0x90, 0x24, 0x42, 0x00, 0x90, 0x43, 
	0x44, 0x64, 0x80, 0x43, 0x30, 0x00, 0x80, 0x24, 
	0x30, 0x1c, 0x90, 0x30, 0x52, 0x00, 0x90, 0x41, 
	0x39, 0x64, 0x80, 0x30, 0x30, 0x1c, 0x90, 0x24, 
	0x43, 0x64, 0x80, 0x24, 0x30, 0x1c, 0x90, 0x30, 
	0x55, 0x64, 0x80, 0x41, 0x30, 0x00, 0x80, 0x30, 
	0x30, 0x1c, 0x90, 0x24, 0x43, 0x00, 0x90, 0x3f, 
	0x40, 0x64, 0x80, 0x24, 0x30, 0x1c, 0x90, 0x30, 
	0x54, 0x64, 0x80, 0x3f, 0x30, 0x00, 0x80, 0x30, 
	0x30, 0x1c, 0x90, 0x24, 0x43, 0x00, 0x90, 0x41, 
	0x49, 0x64, 0x80, 0x24, 0x30, 0x1c, 0x90, 0x30, 
	0x5b, 0x64, 0x80, 0x41, 0x30, 0x00, 0x80, 0x30, 
	0x30, 0x1c, 0x90, 0x24, 0x42, 0x00, 0x90, 0x3f, 
	0x3e, 0x64, 0x80, 0x3f, 0x30, 0x00, 0x80, 0x24, 
	0x30, 0x1c, 0x90, 0x30, 0x58, 0x00, 0x90, 0x3c, 
	0x3b, 0x64, 0x80, 0x30, 0x30, 0x1c, 0x90, 0x24, 
	0x44, 0x64, 0x80, 0x24, 0x30, 0x1c, 0x90, 0x30, 
	0x53, 0x64, 0x80, 0x3c, 0x30, 0x00, 0x80, 0x30, 
	0x30, 0x1c, 0x90, 0x24, 0x41, 0x00, 0x90, 0x43, 
	0x4c, 0x64, 0x80, 0x24, 0x30, 0x1c, 0x90, 0x30, 
	0x50, 0x64, 0x80, 0x43, 0x30, 0x00, 0x80, 0x30, 
	0x30, 0x1c, 0x90, 0x20, 0x44, 0x00, 0x90, 0x44, 
	0x45, 0x64, 0x80, 0x20, 0x30, 0x1c, 0x90, 0x2c, 
	0x58, 0x64, 0x80, 0x44, 0x30, 0x00, 0x80, 0x2c, 
	0x30, 0x1c, 0x90, 0x20, 0x46, 0x00, 0x90, 0x44, 
	0x44, 0x64, 0x80, 0x44, 0x30, 0x00, 0x80, 0x20, 
	0x30, 0x1c, 0x90, 0x2c, 0x55, 0x00, 0x90, 0x43, 
	0x40, 0x64, 0x80, 0x2c, 0x30, 0x1c, 0x90, 0x20, 
	0x45, 0x64, 0x80, 0x20, 0x30, 0x1c, 0x90, 0x2c, 
	0x52, 0x64, 0x80, 0x43, 0x30, 0x00, 0x80, 0x2c, 
	0x30, 0x1c, 0x90, 0x20, 0x42, 0x00, 0x90, 0x41, 
	0x38, 0x64, 0x80, 0x20, 0x30, 0x1c, 0x90, 0x2c, 
	0x57, 0x64, 0x80, 0x41, 0x30, 0x00, 0x80, 0x2c, 
	0x30, 0x1c, 0x90, 0x20, 0x47, 0x00, 0x90, 0x44, 
	0x47, 0x64, 0x80, 0x20, 0x30, 0x1c, 0x90, 0x2c, 
	0x51, 0x64, 0x80, 0x44, 0x30, 0x00, 0x80, 0x2c, 
	0x30, 0x1c, 0x90, 0x20, 0x47, 0x00, 0x90, 0x44, 
	0x3e, 0x64, 0x80, 0x44, 0x30, 0x00, 0x80, 0x20, 
	0x30, 0x1c, 0x90, 0x2c, 0x58, 0x00, 0x90, 0x43, 
	0x3b, 0x64, 0x80, 0x2c, 0x30, 0x1c, 0x90, 0x20, 
	0x40, 0x64, 0x80, 0x20, 0x30, 0x1c, 0x90, 0x2c, 
	0x54, 0x64, 0x80, 0x43, 0x30, 0x00, 0x80, 0x2c, 
	0x30, 0x1c, 0x90, 0x20, 0x45, 0x00, 0x90, 0x41, 
	0x3e, 0x64, 0x80, 0x20, 0x30, 0x1c, 0x90, 0x2c, 
	0x52, 0x64, 0x80, 0x41, 0x30, 0x00, 0x80, 0x2c, 
	0x30, 0x1c, 0x90, 0x22, 0x47, 0x00, 0x90, 0x46, 
	0x50, 0x64, 0x80, 0x22, 0x30, 0x1c, 0x90, 0x2e, 
	0x52, 0x64, 0x80, 0x2e, 0x30, 0x1c, 0x90, 0x22, 
	0x45, 0x64, 0x80, 0x22, 0x30, 0x1c, 0x90, 0x2e, 
	0x57, 0x64, 0x80, 0x2e, 0x30, 0x1c, 0x90, 0x22, 
	0x47, 0x64, 0x80, 0x22, 0x30, 0x1c, 0x90, 0x2e, 
	0x56, 0x64, 0x80, 0x2e, 0x30, 0x1c, 0x90, 0x22, 
	0x41, 0x64, 0x80, 0x22, 0x30, 0x1c, 0x90, 0x2e, 
	0x53, 0x64, 0x80, 0x46, 0x30, 0x00, 0x80, 0x2e, 
	0x30, 0x1c, 0x90, 0x22, 0x46, 0x81, 0x64, 0x80, 
	0x22, 0x30, 0x1c, 0x90, 0x3a, 0x3d, 0x81, 0x64, 
	0x80, 0x3a, 0x30, 0x1c, 0x90, 0x3f, 0x4b, 0x81, 
	0x64, 0x80, 0x3f, 0x30, 0x1c, 0x90, 0x41, 0x4a, 
	0x81, 0x64, 0x80, 0x41, 0x30, 0x1c, 0x90, 0x1b, 
	0x47, 0x00, 0x90, 0x43, 0x45, 0x64, 0x80, 0x1b, 
	0x30, 0x1c, 0x90, 0x27, 0x56, 0x64, 0x80, 0x27, 
	0x30, 0x1c, 0x90, 0x1b, 0x43, 0x64, 0x80, 0x43, 
	0x30, 0x00, 0x80, 0x1b, 0x30, 0x1c, 0x90, 0x27, 
	0x57, 0x00, 0x90, 0x41, 0x3e, 0x64, 0x80, 0x27, 
	0x30, 0x1c, 0x90, 0x1b, 0x47, 0x64, 0x80, 0x1b, 
	0x30, 0x1c, 0x90, 0x27, 0x56, 0x64, 0x80, 0x41, 
	0x30, 0x00, 0x80, 0x27, 0x30, 0x1c, 0x90, 0x1b, 
	0x45, 0x00, 0x90, 0x3f, 0x3b, 0x64, 0x80, 0x1b, 
	0x30, 0x1c, 0x90, 0x27, 0x54, 0x64, 0x80, 0x3f, 
	0x30, 0x00, 0x80, 0x27, 0x30, 0x1c, 0x90, 0x22, 
	0x4c, 0x00, 0x90, 0x46, 0x4c, 0x64, 0x80, 0x22, 
	0x30, 0x1c, 0x90, 0x2e, 0x54, 0x64, 0x80, 0x2e, 
	0x30, 0x1c, 0x90, 0x22, 0x47, 0x64, 0x80, 0x22, 
	0x30, 0x1c, 0x90, 0x2e, 0x56, 0x64, 0x80, 0x2e, 
	0x30, 0x1c, 0x90, 0x22, 0x46, 0x64, 0x80, 0x22, 
	0x30, 0x1c, 0x90, 0x2e, 0x5a, 0x64, 0x80, 0x46, 
	0x30, 0x00, 0x80, 0x2e, 0x30, 0x1c, 0x90, 0x22, 
	0x46, 0x00, 0x90, 0x46, 0x44, 0x64, 0x80, 0x22, 
	0x30, 0x1c, 0x90, 0x2e, 0x56, 0x64, 0x80, 0x46, 
	0x30, 0x00, 0x80, 0x2e, 0x30, 0x1c, 0x90, 0x20, 
	0x42, 0x00, 0x90, 0x46, 0x44, 0x64, 0x80, 0x20, 
	0x30, 0x1c, 0x90, 0x2c, 0x54, 0x64, 0x80, 0x46, 
	0x30, 0x00, 0x80, 0x2c, 0x30, 0x1c, 0x90, 0x20, 
	0x4a, 0x00, 0x90, 0x46, 0x3b, 0x64, 0x80, 0x46, 
	0x30, 0x00, 0x80, 0x20, 0x30, 0x1c, 0x90, 0x2c, 
	0x59, 0x00, 0x90, 0x44, 0x3e, 0x64, 0x80, 0x2c, 
	0x30, 0x1c, 0x90, 0x20, 0x43, 0x64, 0x80, 0x20, 
	0x30, 0x1c, 0x90, 0x2c, 0x56, 0x64, 0x80, 0x44, 
	0x30, 0x00, 0x80, 0x2c, 0x30, 0x1c, 0x90, 0x20, 
	0x44, 0x00, 0x90, 0x43, 0x40, 0x64, 0x80, 0x20, 
	0x30, 0x1c, 0x90, 0x2c, 0x51, 0x64, 0x80, 0x43, 
	0x30, 0x00, 0x80, 0x2c, 0x30, 0x1c, 0x90, 0x20, 
	0x42, 0x00, 0x90, 0x3f, 0x37, 0x64, 0x80, 0x20, 
	0x30, 0x1c, 0x90, 0x2c, 0x51, 0x64, 0x80, 0x3f, 
	0x30, 0x00, 0x80, 0x2c, 0x30, 0x1c, 0x90, 0x20, 
	0x44, 0x00, 0x90, 0x3f, 0x3e, 0x64, 0x80, 0x3f, 
	0x30, 0x00, 0x80, 0x20, 0x30, 0x1c, 0x90, 0x2c, 
	0x58, 0x00, 0x90, 0x41, 0x46, 0x64, 0x80, 0x2c, 
	0x30, 0x1c, 0x90, 0x20, 0x44, 0x64, 0x80, 0x20, 
	0x30, 0x1c, 0x90, 0x2c, 0x58, 0x64, 0x80, 0x41, 
	0x30, 0x00, 0x80, 0x2c, 0x30, 0x1c, 0x90, 0x20, 
	0x41, 0x64, 0x80, 0x20, 0x30, 0x1c, 0x90, 0x2c, 
	0x52, 0x64, 0x80, 0x2c, 0x30, 0x1c, 0x90, 0x24, 
	0x44, 0x00, 0x90, 0x43, 0x3e, 0x64, 0x80, 0x24, 
	0x30, 0x1c, 0x90, 0x30, 0x59, 0x64, 0x80, 0x43, 
	0x30, 0x00, 0x80, 0x30, 0x30, 0x1c, 0x90, 0x24, 
	0x44, 0x00, 0x90, 0x43, 0x40, 0x64, 0x80, 0x43, 
	0x30, 0x00, 0x80, 0x24, 0x30, 0x1c, 0x90, 0x30, 
	0x58, 0x00, 0x90, 0x44, 0x40, 0x64, 0x80, 0x30, 
	0x30, 0x1c, 0x90, 0x24, 0x43, 0x64, 0x80, 0x24, 
	0x30, 0x1c, 0x90, 0x30, 0x55, 0x64, 0x80, 0x44, 
	0x30, 0x00, 0x80, 0x30, 0x30, 0x1c, 0x90, 0x24, 
	0x45, 0x00, 0x90, 0x43, 0x3d, 0x64, 0x80, 0x24, 
	0x30, 0x1c, 0x90, 0x30, 0x54, 0x64, 0x80, 0x43, 
	0x30, 0x00, 0x80, 0x30, 0x30, 0x1c, 0x90, 0x22, 
	0x44, 0x00, 0x90, 0x41, 0x3e, 0x64, 0x80, 0x22, 
	0x30, 0x1c, 0x90, 0x2e, 0x58, 0x64, 0x80, 0x41, 
	0x30, 0x00, 0x80, 0x2e, 0x30, 0x1c, 0x90, 0x22, 
	0x44, 0x00, 0x90, 0x41, 0x3f, 0x64, 0x80, 0x41, 
	0x30, 0x00, 0x80, 0x22, 0x30, 0x1c, 0x90, 0x2e, 
	0x52, 0x00, 0x90, 0x43, 0x46, 0x64, 0x80, 0x2e, 
	0x30, 0x1c, 0x90, 0x22, 0x44, 0x64, 0x80, 0x22, 
	0x30, 0x1c, 0x90, 0x2e, 0x57, 0x64, 0x80, 0x43, 
	0x30, 0x00, 0x80, 0x2e, 0x30, 0x1c, 0x90, 0x22, 
	0x3e, 0x00, 0x90, 0x41, 0x41, 0x64, 0x80, 0x22, 
	0x30, 0x1c, 0x90, 0x2e, 0x54, 0x64, 0x80, 0x41, 
	0x30, 0x00, 0x80, 0x2e, 0x30, 0x1c, 0x90, 0x20, 
	0x40, 0x00, 0x90, 0x43, 0x48, 0x64, 0x80, 0x20, 
	0x30, 0x1c, 0x90, 0x2c, 0x55, 0x64, 0x80, 0x2c, 
	0x30, 0x1c, 0x90, 0x20, 0x46, 0x64, 0x80, 0x43, 
	0x30, 0x00, 0x80, 0x20, 0x30, 0x1c, 0x90, 0x2c, 
	0x56, 0x00, 0x90, 0x41, 0x3b, 0x64, 0x80, 0x2c, 
	0x30, 0x1c, 0x90, 0x20, 0x42, 0x64, 0x80, 0x20, 
	0x30, 0x1c, 0x90, 0x2c, 0x54, 0x64, 0x80, 0x41, 
	0x30, 0x00, 0x80, 0x2c, 0x30, 0x1c, 0x90, 0x20, 
	0x46, 0x00, 0x90, 0x3f, 0x41, 0x64, 0x80, 0x20, 
	0x30, 0x1c, 0x90, 0x2c, 0x56, 0x64, 0x80, 0x3f, 
	0x30, 0x00, 0x80, 0x2c, 0x30, 0x1c, 0x90, 0x20, 
	0x40, 0x00, 0x90, 0x3f, 0x42, 0x64, 0x80, 0x20, 
	0x30, 0x1c, 0x90, 0x2c, 0x56, 0x64, 0x80, 0x2c, 
	0x30, 0x1c, 0x90, 0x20, 0x40, 0x64, 0x80, 0x20, 
	0x30, 0x1c, 0x90, 0x2c, 0x56, 0x64, 0x80, 0x2c, 
	0x30, 0x1c, 0x90, 0x20, 0x43, 0x64, 0x80, 0x20, 
	0x30, 0x1c, 0x90, 0x2c, 0x54, 0x64, 0x80, 0x2c, 
	0x30, 0x1c, 0x90, 0x20, 0x4a, 0x64, 0x80, 0x20, 
	0x30, 0x1c, 0x90, 0x2c, 0x5a, 0x64, 0x80, 0x3f, 
	0x30, 0x00, 0x80, 0x2c, 0x30, 0x1c, 0x90, 0x24, 
	0x45, 0x00, 0x90, 0x43, 0x44, 0x64, 0x80, 0x24, 
	0x30, 0x1c, 0x90, 0x30, 0x55, 0x64, 0x80, 0x43, 
	0x30, 0x00, 0x80, 0x30, 0x30, 0x1c, 0x90, 0x24, 
	0x40, 0x00, 0x90, 0x43, 0x41, 0x64, 0x80, 0x43, 
	0x30, 0x00, 0x80, 0x24, 0x30, 0x1c, 0x90, 0x30, 
	0x59, 0x00, 0x90, 0x41, 0x3c, 0x64, 0x80, 0x30, 
	0x30, 0x1c, 0x90, 0x24, 0x3f, 0x64, 0x80, 0x24, 
	0x30, 0x1c, 0x90, 0x30, 0x57, 0x64, 0x80, 0x41, 
	0x30, 0x00, 0x80, 0x30, 0x30, 0x1c, 0x90, 0x24, 
	0x45, 0x00, 0x90, 0x3f, 0x3c, 0x64, 0x80, 0x24, 
	0x30, 0x1c, 0x90, 0x30, 0x51, 0x64, 0x80, 0x3f, 
	0x30, 0x00, 0x80, 0x30, 0x30, 0x1c, 0x90, 0x20, 
	0x42, 0x00, 0x90, 0x3f, 0x41, 0x64, 0x80, 0x20, 
	0x30, 0x1c, 0x90, 0x2c, 0x51, 0x64, 0x80, 0x3f, 
	0x30, 0x00, 0x80, 0x2c, 0x30, 0x1c, 0x90, 0x20, 
	0x45, 0x00, 0x90, 0x3f, 0x3f, 0x64, 0x80, 0x3f, 
	0x30, 0x00, 0x80, 0x20, 0x30, 0x1c, 0x90, 0x2c, 
	0x57, 0x00, 0x90, 0x41, 0x45, 0x64, 0x80, 0x2c, 
	0x30, 0x1c, 0x90, 0x20, 0x43, 0x64, 0x80, 0x20, 
	0x30, 0x1c, 0x90, 0x2c, 0x56, 0x64, 0x80, 0x41, 
	0x30, 0x00, 0x80, 0x2c, 0x30, 0x1c, 0x90, 0x20, 
	0x44, 0x64, 0x80, 0x20, 0x30, 0x1c, 0x90, 0x2c, 
	0x59, 0x64, 0x80, 0x2c, 0x30, 0x1c, 0x90, 0x24, 
	0x48, 0x00, 0x90, 0x43, 0x37, 0x64, 0x80, 0x24, 
	0x30, 0x1c, 0x90, 0x30, 0x54, 0x64, 0x80, 0x43, 
	0x30, 0x00, 0x80, 0x30, 0x30, 0x1c, 0x90, 0x24, 
	0x43, 0x00, 0x90, 0x43, 0x3f, 0x64, 0x80, 0x43, 
	0x30, 0x00, 0x80, 0x24, 0x30, 0x1c, 0x90, 0x30, 
	0x51, 0x00, 0x90, 0x41, 0x3e, 0x64, 0x80, 0x30, 
	0x30, 0x1c, 0x90, 0x24, 0x40, 0x64, 0x80, 0x24, 
	0x30, 0x1c, 0x90, 0x30, 0x55, 0x64, 0x80, 0x41, 
	0x30, 0x00, 0x80, 0x30, 0x30, 0x1c, 0x90, 0x24, 
	0x44, 0x00, 0x90, 0x3f, 0x3e, 0x64, 0x80, 0x24, 
	0x30, 0x1c, 0x90, 0x30, 0x55, 0x64, 0x80, 0x3f, 
	0x30, 0x00, 0x80, 0x30, 0x30, 0x1c, 0x90, 0x20, 
	0x44, 0x00, 0x90, 0x46, 0x4b, 0x64, 0x80, 0x20, 
	0x30, 0x1c, 0x90, 0x2c, 0x50, 0x64, 0x80, 0x2c, 
	0x30, 0x1c, 0x90, 0x20, 0x40, 0x64, 0x80, 0x46, 
	0x30, 0x00, 0x80, 0x20, 0x30, 0x1c, 0x90, 0x2c, 
	0x54, 0x00, 0x90, 0x43, 0x3f, 0x64, 0x80, 0x2c, 
	0x30, 0x1c, 0x90, 0x20, 0x42, 0x64, 0x80, 0x20, 
	0x30, 0x1c, 0x90, 0x2c, 0x55, 0x64, 0x80, 0x2c, 
	0x30, 0x1c, 0x90, 0x20, 0x46, 0x64, 0x80, 0x20, 
	0x30, 0x1c, 0x90, 0x2c, 0x53, 0x64, 0x80, 0x43, 
	0x30, 0x00, 0x80, 0x2c, 0x30, 0x1c, 0x90, 0x1d, 
	0x43, 0x00, 0x90, 0x44, 0x43, 0x64, 0x80, 0x44, 
	0x30, 0x00, 0x80, 0x1d, 0x30, 0x1c, 0x90, 0x29, 
	0x58, 0x00, 0x90, 0x44, 0x3a, 0x64, 0x80, 0x29, 
	0x30, 0x1c, 0x90, 0x1d, 0x45, 0x64, 0x80, 0x44, 
	0x30, 0x00, 0x80, 0x1d, 0x30, 0x1c, 0x90, 0x29, 
	0x55, 0x00, 0x90, 0x44, 0x44, 0x64, 0x80, 0x44, 
	0x30, 0x00, 0x80, 0x29, 0x30, 0x1c, 0x90, 0x1d, 
	0x44, 0x00, 0x90, 0x44, 0x45, 0x64, 0x80, 0x1d, 
	0x30, 0x1c, 0x90, 0x29, 0x53, 0x64, 0x80, 0x44, 
	0x30, 0x00, 0x80, 0x29, 0x30, 0x1c, 0x90, 0x1d, 
	0x42, 0x00, 0x90, 0x44, 0x40, 0x64, 0x80, 0x1d, 
	0x30, 0x1c, 0x90, 0x29, 0x53, 0x64, 0x80, 0x44, 
	0x30, 0x00, 0x80, 0x29, 0x30, 0x1c, 0x90, 0x1d, 
	0x41, 0x00, 0x90, 0x44, 0x43, 0x64, 0x80, 0x44, 
	0x30, 0x00, 0x80, 0x1d, 0x30, 0x1c, 0x90, 0x29, 
	0x53, 0x00, 0x90, 0x44, 0x40, 0x64, 0x80, 0x44, 
	0x30, 0x00, 0x80, 0x29, 0x30, 0x1c, 0x90, 0x1d, 
	0x46, 0x00, 0x90, 0x44, 0x3f, 0x64, 0x80, 0x1d, 
	0x30, 0x1c, 0x90, 0x29, 0x58, 0x64, 0x80, 0x44, 
	0x30, 0x00, 0x80, 0x29, 0x30, 0x1c, 0x90, 0x1d, 
	0x44, 0x00, 0x90, 0x46, 0x45, 0x64, 0x80, 0x1d, 
	0x30, 0x1c, 0x90, 0x29, 0x57, 0x64, 0x80, 0x46, 
	0x30, 0x00, 0x80, 0x29, 0x30, 0x1c, 0x90, 0x1d, 
	0x45, 0x00, 0x90, 0x48, 0x45, 0x64, 0x80, 0x48, 
	0x30, 0x00, 0x80, 0x1d, 0x30, 0x1c, 0x90, 0x29, 
	0x56, 0x00, 0x90, 0x46, 0x3f, 0x64, 0x80, 0x29, 
	0x30, 0x1c, 0x90, 0x22, 0x47, 0x64, 0x80, 0x22, 
	0x30, 0x1c, 0x90, 0x2e, 0x57, 0x64, 0x80, 0x46, 
	0x30, 0x00, 0x80, 0x2e, 0x30, 0x1c, 0x90, 0x22, 
	0x45, 0x00, 0x90, 0x46, 0x47, 0x64, 0x80, 0x22, 
	0x30, 0x1c, 0x90, 0x2e, 0x54, 0x64, 0x80, 0x2e, 
	0x30, 0x1c, 0x90, 0x22, 0x44, 0x64, 0x80, 0x22, 
	0x30, 0x1c, 0x90, 0x2e, 0x55, 0x64, 0x80, 0x2e, 
	0x30, 0x1c, 0x90, 0x22, 0x44, 0x64, 0x80, 0x22, 
	0x30, 0x1c, 0x90, 0x2e, 0x57, 0x64, 0x80, 0x46, 
	0x30, 0x00, 0x80, 0x2e, 0x30, 0x1c, 0x90, 0x22, 
	0x42, 0x81, 0x64, 0x80, 0x22, 0x30, 0x1c, 0x90, 
	0x3f, 0x38, 0x81, 0x64, 0x80, 0x3f, 0x30, 0x1c, 
	0x90, 0x43, 0x47, 0x81, 0x64, 0x80, 0x43, 0x30, 
	0x1c, 0x90, 0x46, 0x48, 0x81, 0x64, 0x80, 0x46, 
	0x30, 0x1c, 0x90, 0x20, 0x43, 0x00, 0x90, 0x48, 
	0x47, 0x64, 0x80, 0x20, 0x30, 0x1c, 0x90, 0x2c, 
	0x52, 0x64, 0x80, 0x2c, 0x30, 0x1c, 0x90, 0x20, 
	0x3e, 0x64, 0x80, 0x20, 0x30, 0x1c, 0x90, 0x2c, 
	0x52, 0x64, 0x80, 0x2c, 0x30, 0x1c, 0x90, 0x20, 
	0x40, 0x64, 0x80, 0x20, 0x30, 0x1c, 0x90, 0x2c, 
	0x54, 0x64, 0x80, 0x48, 0x30, 0x00, 0x80, 0x2c, 
	0x30, 0x1c, 0x90, 0x20, 0x45, 0x00, 0x90, 0x48, 
	0x43, 0x64, 0x80, 0x20, 0x30, 0x1c, 0x90, 0x2c, 
	0x54, 0x64, 0x80, 0x48, 0x30, 0x00, 0x80, 0x2c, 
	0x30, 0x1c, 0x90, 0x20, 0x43, 0x00, 0x90, 0x48, 
	0x40, 0x64, 0x80, 0x20, 0x30, 0x1c, 0x90, 0x2c, 
	0x57, 0x64, 0x80, 0x2c, 0x30, 0x1c, 0x90, 0x20, 
	0x44, 0x64, 0x80, 0x48, 0x30, 0x00, 0x80, 0x20, 
	0x30, 0x1c, 0x90, 0x2c, 0x5a, 0x00, 0x90, 0x46, 
	0x40, 0x64, 0x80, 0x2c, 0x30, 0x1c, 0x90, 0x20, 
	0x44, 0x64, 0x80, 0x20, 0x30, 0x1c, 0x90, 0x2c, 
	0x54, 0x64, 0x80, 0x46, 0x30, 0x00, 0x80, 0x2c, 
	0x30, 0x1c, 0x90, 0x20, 0x48, 0x00, 0x90, 0x41, 
	0x38, 0x64, 0x80, 0x20, 0x30, 0x1c, 0x90, 0x2c, 
	0x55, 0x64, 0x80, 0x41, 0x30, 0x00, 0x80, 0x2c, 
	0x30, 0x1c, 0x90, 0x24, 0x43, 0x00, 0x90, 0x43, 
	0x42, 0x64, 0x80, 0x24, 0x30, 0x1c, 0x90, 0x30, 
	0x53, 0x64, 0x80, 0x43, 0x30, 0x00, 0x80, 0x30, 
	0x30, 0x1c, 0x90, 0x24, 0x42, 0x00, 0x90, 0x46, 
	0x49, 0x64, 0x80, 0x46, 0x30, 0x00, 0x80, 0x24, 
	0x30, 0x1c, 0x90, 0x30, 0x56, 0x00, 0x90, 0x43, 
	0x3e, 0x64, 0x80, 0x30, 0x30, 0x1c, 0x90, 0x24, 
	0x41, 0x64, 0x80, 0x24, 0x30, 0x1c, 0x90, 0x30, 
	0x57, 0x64, 0x80, 0x30, 0x30, 0x1c, 0x90, 0x24, 
	0x43, 0x64, 0x80, 0x24, 0x30, 0x1c, 0x90, 0x30, 
	0x50, 0x64, 0x80, 0x30, 0x30, 0x1c, 0x90, 0x24, 
	0x46, 0x64, 0x80, 0x24, 0x30, 0x1c, 0x90, 0x30, 
	0x53, 0x64, 0x80, 0x43, 0x30, 0x00, 0x80, 0x30, 
	0x30, 0x1c, 0x90, 0x24, 0x45, 0x64, 0x80, 0x24, 
	0x30, 0x1c, 0x90, 0x30, 0x54, 0x64, 0x80, 0x30, 
	0x30, 0x1c, 0x90, 0x24, 0x41, 0x00, 0x90, 0x3f, 
	0x3c, 0x64, 0x80, 0x24, 0x30, 0x1c, 0x90, 0x30, 
	0x54, 0x64, 0x80, 0x3f, 0x30, 0x00, 0x80, 0x30, 
	0x30, 0x1c, 0x90, 0x24, 0x40, 0x00, 0x90, 0x3f, 
	0x42, 0x64, 0x80, 0x24, 0x30, 0x1c, 0x90, 0x30, 
	0x57, 0x64, 0x80, 0x3f, 0x30, 0x00, 0x80, 0x30, 
	0x30, 0x1c, 0x90, 0x22, 0x42, 0x00, 0x90, 0x41, 
	0x43, 0x64, 0x80, 0x22, 0x30, 0x1c, 0x90, 0x2e, 
	0x56, 0x64, 0x80, 0x2e, 0x30, 0x1c, 0x90, 0x22, 
	0x43, 0x64, 0x80, 0x41, 0x30, 0x00, 0x80, 0x22, 
	0x30, 0x1c, 0x90, 0x2e, 0x54, 0x00, 0x90, 0x41, 
	0x41, 0x64, 0x80, 0x2e, 0x30, 0x1c, 0x90, 0x22, 
	0x48, 0x64, 0x80, 0x22, 0x30, 0x1c, 0x90, 0x2e, 
	0x55, 0x64, 0x80, 0x41, 0x30, 0x00, 0x80, 0x2e, 
	0x30, 0x1c, 0x90, 0x22, 0x41, 0x00, 0x90, 0x41, 
	0x42, 0x64, 0x80, 0x22, 0x30, 0x1c, 0x90, 0x2e, 
	0x51, 0x64, 0x80, 0x41, 0x30, 0x00, 0x80, 0x2e, 
	0x30, 0x1c, 0x90, 0x22, 0x44, 0x00, 0x90, 0x43, 
	0x48, 0x64, 0x80, 0x22, 0x30, 0x1c, 0x90, 0x2e, 
	0x57, 0x64, 0x80, 0x2e, 0x30, 0x1c, 0x90, 0x22, 
	0x40, 0x64, 0x80, 0x43, 0x30, 0x00, 0x80, 0x22, 
	0x30, 0x1c, 0x90, 0x2e, 0x58, 0x00, 0x90, 0x41, 
	0x3c, 0x64, 0x80, 0x2e, 0x30, 0x1c, 0x90, 0x22, 
	0x47, 0x64, 0x80, 0x22, 0x30, 0x1c, 0x90, 0x2e, 
	0x54, 0x64, 0x80, 0x41, 0x30, 0x00, 0x80, 0x2e, 
	0x30, 0x1c, 0x90, 0x22, 0x40, 0x00, 0x90, 0x3f, 
	0x40, 0x64, 0x80, 0x22, 0x30, 0x1c, 0x90, 0x2e, 
	0x59, 0x64, 0x80, 0x3f, 0x30, 0x00, 0x80, 0x2e, 
	0x30, 0x1c, 0x90, 0x1f, 0x46, 0x00, 0x90, 0x43, 
	0x47, 0x64, 0x80, 0x1f, 0x30, 0x1c, 0x90, 0x2b, 
	0x54, 0x64, 0x80, 0x2b, 0x30, 0x1c, 0x90, 0x1f, 
	0x42, 0x64, 0x80, 0x1f, 0x30, 0x1c, 0x90, 0x2b, 
	0x59, 0x64, 0x80, 0x2b, 0x30, 0x1c, 0x90, 0x1f, 
	0x44, 0x64, 0x80, 0x1f, 0x30, 0x1c, 0x90, 0x2b, 
	0x53, 0x64, 0x80, 0x2b, 0x30, 0x1c, 0x90, 0x1f, 
	0x48, 0x64, 0x80, 0x1f, 0x30, 0x1c, 0x90, 0x2b, 
	0x5a, 0x64, 0x80, 0x2b, 0x30, 0x1c, 0x90, 0x1f, 
	0x3c, 0x64, 0x80, 0x1f, 0x30, 0x1c, 0x90, 0x2b, 
	0x53, 0x64, 0x80, 0x43, 0x30, 0x00, 0x80, 0x2b, 
	0x30, 0x1c, 0x90, 0x1f, 0x41, 0x00, 0x90, 0x3f, 
	0x37, 0x64, 0x80, 0x1f, 0x30, 0x1c, 0x90, 0x2b, 
	0x53, 0x64, 0x80, 0x3f, 0x30, 0x00, 0x80, 0x2b, 
	0x30, 0x1c, 0x90, 0x1f, 0x43, 0x00, 0x90, 0x43, 
	0x44, 0x64, 0x80, 0x1f, 0x30, 0x1c, 0x90, 0x2b, 
	0x52, 0x64, 0x80, 0x43, 0x30, 0x00, 0x80, 0x2b, 
	0x30, 0x1c, 0x90, 0x1f, 0x48, 0x00, 0x90, 0x46, 
	0x48, 0x64, 0x80, 0x1f, 0x30, 0x1c, 0x90, 0x2b, 
	0x55, 0x64, 0x80, 0x46, 0x30, 0x00, 0x80, 0x2b, 
	0x30, 0x1c, 0x90, 0x20, 0x45, 0x00, 0x90, 0x48, 
	0x49, 0x64, 0x80, 0x20, 0x30, 0x1c, 0x90, 0x2c, 
	0x58, 0x64, 0x80, 0x2c, 0x30, 0x1c, 0x90, 0x20, 
	0x48, 0x64, 0x80, 0x20, 0x30, 0x1c, 0x90, 0x2c, 
	0x54, 0x64, 0x80, 0x2c, 0x30, 0x1c, 0x90, 0x20, 
	0x41, 0x64, 0x80, 0x20, 0x30, 0x1c, 0x90, 0x2c, 
	0x53, 0x64, 0x80, 0x48, 0x30, 0x00, 0x80, 0x2c, 
	0x30, 0x1c, 0x90, 0x20, 0x46, 0x00, 0x90, 0x48, 
	0x42, 0x64, 0x80, 0x48, 0x30, 0x00, 0x80, 0x20, 
	0x30, 0x1c, 0x90, 0x2c, 0x55, 0x00, 0x90, 0x48, 
	0x3e, 0x64, 0x80, 0x48, 0x30, 0x00, 0x80, 0x2c, 
	0x30, 0x1c, 0x90, 0x20, 0x43, 0x00, 0x90, 0x48, 
	0x42, 0x64, 0x80, 0x20, 0x30, 0x1c, 0x90, 0x2c, 
	0x56, 0x64, 0x80, 0x2c, 0x30, 0x1c, 0x90, 0x20, 
	0x48, 0x64, 0x80, 0x48, 0x30, 0x00, 0x80, 0x20, 
	0x30, 0x1c, 0x90, 0x2c, 0x53, 0x00, 0x90, 0x46, 
	0x3c, 0x64, 0x80, 0x2c, 0x30, 0x1c, 0x90, 0x20, 
	0x42, 0x64, 0x80, 0x20, 0x30, 0x1c, 0x90, 0x2c, 
	0x55, 0x64, 0x80, 0x46, 0x30, 0x00, 0x80, 0x2c, 
	0x30, 0x1c, 0x90, 0x20, 0x43, 0x00, 0x90, 0x41, 
	0x3a, 0x64, 0x80, 0x20, 0x30, 0x1c, 0x90, 0x2c, 
	0x58, 0x64, 0x80, 0x41, 0x30, 0x00, 0x80, 0x2c, 
	0x30, 0x1c, 0x90, 0x24, 0x48, 0x00, 0x90, 0x43, 
	0x44, 0x64, 0x80, 0x24, 0x30, 0x1c, 0x90, 0x30, 
	0x57, 0x64, 0x80, 0x43, 0x30, 0x00, 0x80, 0x30, 
	0x30, 0x1c, 0x90, 0x24, 0x44, 0x00, 0x90, 0x46, 
	0x44, 0x64, 0x80, 0x46, 0x30, 0x00, 0x80, 0x24, 
	0x30, 0x1c, 0x90, 0x30, 0x54, 0x00, 0x90, 0x43, 
	0x37, 0x64, 0x80, 0x30, 0x30, 0x1c, 0x90, 0x24, 
	0x45, 0x64, 0x80, 0x24, 0x30, 0x1c, 0x90, 0x30, 
	0x59, 0x64, 0x80, 0x43, 0x30, 0x00, 0x80, 0x30, 
	0x30, 0x1c, 0x90, 0x24, 0x43, 0x00, 0x90, 0x41, 
	0x3b, 0x64, 0x80, 0x24, 0x30, 0x1c, 0x90, 0x30, 
	0x51, 0x64, 0x80, 0x41, 0x30, 0x00, 0x80, 0x30, 
	0x30, 0x1c, 0x90, 0x24, 0x44, 0x00, 0x90, 0x43, 
	0x47, 0x64, 0x80, 0x24, 0x30, 0x1c, 0x90, 0x30, 
	0x56, 0x64, 0x80, 0x30, 0x30, 0x1c, 0x90, 0x24, 
	0x42, 0x64, 0x80, 0x24, 0x30, 0x1c, 0x90, 0x30, 
	0x53, 0x64, 0x80, 0x43, 0x30, 0x00, 0x80, 0x30, 
	0x30, 0x1c, 0x90, 0x24, 0x46, 0x00, 0x90, 0x3c, 
	0x35, 0x64, 0x80, 0x24, 0x30, 0x1c, 0x90, 0x30, 
	0x56, 0x64, 0x80, 0x3c, 0x30, 0x00, 0x80, 0x30, 
	0x30, 0x1c, 0x90, 0x24, 0x3f, 0x00, 0x90, 0x3f, 
	0x46, 0x64, 0x80, 0x24, 0x30, 0x1c, 0x90, 0x30, 
	0x56, 0x64, 0x80, 0x3f, 0x30, 0x00, 0x80, 0x30, 
	0x30, 0x1c, 0x90, 0x22, 0x42, 0x00, 0x90, 0x41, 
	0x48, 0x64, 0x80, 0x22, 0x30, 0x1c, 0x90, 0x2e, 
	0x56, 0x64, 0x80, 0x2e, 0x30, 0x1c, 0x90, 0x22, 
	0x45, 0x64, 0x80, 0x41, 0x30, 0x00, 0x80, 0x22, 
	0x30, 0x1c, 0x90, 0x2e, 0x52, 0x00, 0x90, 0x41, 
	0x42, 0x64, 0x80, 0x2e, 0x30, 0x1c, 0x90, 0x22, 
	0x42, 0x64, 0x80, 0x22, 0x30, 0x1c, 0x90, 0x2e, 
	0x55, 0x64, 0x80, 0x41, 0x30, 0x00, 0x80, 0x2e, 
	0x30, 0x1c, 0x90, 0x22, 0x3e, 0x00, 0x90, 0x41, 
	0x45, 0x64, 0x80, 0x22, 0x30, 0x1c, 0x90, 0x2e, 
	0x54, 0x64, 0x80, 0x41, 0x30, 0x00, 0x80, 0x2e, 
	0x30, 0x1c, 0x90, 0x22, 0x45, 0x00, 0x90, 0x41, 
	0x3f, 0x81, 0x64, 0x80, 0x41, 0x30, 0x00, 0x80, 
	0x22, 0x30, 0x1c, 0x90, 0x3f, 0x3e, 0x81, 0x64, 
	0x80, 0x3f, 0x30, 0x1c, 0x90, 0x3c, 0x3a, 0x81, 
	0x64, 0x80, 0x3c, 0x30, 0x1c, 0x90, 0x46, 0x4d, 
	0x00, 0x90, 0x3a, 0x4d, 0x81, 0x64, 0x80, 0x3a, 
	0x30, 0x00, 0x80, 0x46, 0x30, 0x1c, 0x90, 0x24, 
	0x44, 0x00, 0x90, 0x43, 0x3d, 0x64, 0x80, 0x43, 
	0x30, 0x00, 0x80, 0x24, 0x30, 0x1c, 0x90, 0x30, 
	0x53, 0x00, 0x90, 0x43, 0x3f, 0x64, 0x80, 0x30, 
	0x30, 0x1c, 0x90, 0x24, 0x44, 0x64, 0x80, 0x43, 
	0x30, 0x00, 0x80, 0x24, 0x30, 0x1c, 0x90, 0x30, 
	0x56, 0x00, 0x90, 0x41, 0x3f, 0x64, 0x80, 0x41, 
	0x30, 0x00, 0x80, 0x30, 0x30, 0x1c, 0x90, 0x24, 
	0x43, 0x00, 0x90, 0x43, 0x46, 0x64, 0x80, 0x43, 
	0x30, 0x00, 0x80, 0x24, 0x30, 0x1c, 0x90, 0x30, 
	0x57, 0x00, 0x90, 0x41, 0x3b, 0x64, 0x80, 0x41, 
	0x30, 0x00, 0x80, 0x30, 0x30, 0x1c, 0x90, 0x24, 
	0x43, 0x00, 0x90, 0x3f, 0x3a, 0x64, 0x80, 0x3f, 
	0x30, 0x00, 0x80, 0x24, 0x30, 0x1c, 0x90, 0x30, 
	0x52, 0x00, 0x90, 0x3c, 0x3e, 0x64, 0x80, 0x3c, 
	0x30, 0x00, 0x80, 0x30, 0x30, 0x1c, 0x90, 0x24, 
	0x40, 0x00, 0x90, 0x43, 0x4b, 0x64, 0x80, 0x43, 
	0x30, 0x00, 0x80, 0x24, 0x30, 0x1c, 0x90, 0x30, 
	0x54, 0x00, 0x90, 0x43, 0x49, 0x64, 0x80, 0x30, 
	0x30, 0x1c, 0x90, 0x24, 0x44, 0x64, 0x80, 0x43, 
	0x30, 0x00, 0x80, 0x24, 0x30, 0x1c, 0x90, 0x30, 
	0x54, 0x00, 0x90, 0x3f, 0x3b, 0x64, 0x80, 0x3f, 
	0x30, 0x00, 0x80, 0x30, 0x30, 0x1c, 0x90, 0x24, 
	0x43, 0x00, 0x90, 0x41, 0x45, 0x64, 0x80, 0x41, 
	0x30, 0x00, 0x80, 0x24, 0x30, 0x1c, 0x90, 0x30, 
	0x55, 0x00, 0x90, 0x43, 0x49, 0x64, 0x80, 0x43, 
	0x30, 0x00, 0x80, 0x30, 0x30, 0x1c, 0x90, 0x24, 
	0x4a, 0x00, 0x90, 0x52, 0x52, 0x64, 0x80, 0x24, 
	0x30, 0x1c, 0x90, 0x30, 0x52, 0x64, 0x80, 0x52, 
	0x30, 0x00, 0x80, 0x30, 0x30, 0x1c, 0x90, 0x20, 
	0x45, 0x00, 0x90, 0x4b, 0x36, 0x64, 0x80, 0x4b, 
	0x30, 0x00, 0x80, 0x20, 0x30, 0x1c, 0x90, 0x2c, 
	0x55, 0x00, 0x90, 0x4b, 0x3f, 0x64, 0x80, 0x2c, 
	0x30, 0x1c, 0x90, 0x20, 0x43, 0x64, 0x80, 0x4b, 
	0x30, 0x00, 0x80, 0x20, 0x30, 0x1c, 0x90, 0x2c, 
	0x55, 0x00, 0x90, 0x4a, 0x3d, 0x64, 0x80, 0x4a, 
	0x30, 0x00, 0x80, 0x2c, 0x30, 0x1c, 0x90, 0x20, 
	0x3f, 0x00, 0x90, 0x4b, 0x3f, 0x64, 0x80, 0x4b, 
	0x30, 0x00, 0x80, 0x20, 0x30, 0x1c, 0x90, 0x2c, 
	0x57, 0x00, 0x90, 0x4d, 0x46, 0x64, 0x80, 0x4d, 
	0x30, 0x00, 0x80, 0x2c, 0x30, 0x1c, 0x90, 0x20, 
	0x44, 0x00, 0x90, 0x4f, 0x47, 0x64, 0x80, 0x4f, 
	0x30, 0x00, 0x80, 0x20, 0x30, 0x1c, 0x90, 0x2c, 
	0x54, 0x00, 0x90, 0x4b, 0x3b, 0x64, 0x80, 0x4b, 
	0x30, 0x00, 0x80, 0x2c, 0x30, 0x1c, 0x90, 0x22, 
	0x47, 0x00, 0x90, 0x4f, 0x48, 0x64, 0x80, 0x4f, 
	0x30, 0x00, 0x80, 0x22, 0x30, 0x1c, 0x90, 0x2e, 
	0x56, 0x00, 0x90, 0x4d, 0x3f, 0x64, 0x80, 0x4d, 
	0x30, 0x00, 0x80, 0x2e, 0x30, 0x1c, 0x90, 0x22, 
	0x44, 0x00, 0x90, 0x4b, 0x3c, 0x64, 0x80, 0x4b, 
	0x30, 0x00, 0x80, 0x22, 0x30, 0x1c, 0x90, 0x2e, 
	0x56, 0x00, 0x90, 0x4d, 0x4a, 0x64, 0x80, 0x2e, 
	0x30, 0x1c, 0x90, 0x22, 0x42, 0x64, 0x80, 0x22, 
	0x30, 0x1c, 0x90, 0x2e, 0x57, 0x64, 0x80, 0x2e, 
	0x30, 0x1c, 0x90, 0x22, 0x42, 0x64, 0x80, 0x22, 
	0x30, 0x1c, 0x90, 0x2e, 0x52, 0x64, 0x80, 0x4d, 
	0x30, 0x00, 0x80, 0x2e, 0x30, 0x1c, 0x90, 0x24, 
	0x47, 0x00, 0x90, 0x52, 0x45, 0x64, 0x80, 0x52, 
	0x30, 0x00, 0x80, 0x24, 0x30, 0x1c, 0x90, 0x30, 
	0x51, 0x00, 0x90, 0x43, 0x2e, 0x64, 0x80, 0x43, 
	0x30, 0x00, 0x80, 0x30, 0x30, 0x1c, 0x90, 0x24, 
	0x46, 0x00, 0x90, 0x3f, 0x36, 0x64, 0x80, 0x3f, 
	0x30, 0x00, 0x80, 0x24, 0x30, 0x1c, 0x90, 0x30, 
	0x53, 0x00, 0x90, 0x4b, 0x50, 0x64, 0x80, 0x30, 
	0x30, 0x1c, 0x90, 0x24, 0x41, 0x64, 0x80, 0x4b, 
	0x30, 0x00, 0x80, 0x24, 0x30, 0x1c, 0x90, 0x30, 
	0x56, 0x00, 0x90, 0x3f, 0x2e, 0x64, 0x80, 0x3f, 
	0x30, 0x00, 0x80, 0x30, 0x30, 0x1c, 0x90, 0x24, 
	0x3a, 0x00, 0x90, 0x4b, 0x4f, 0x64, 0x80, 0x4b, 
	0x30, 0x00, 0x80, 0x24, 0x30, 0x1c, 0x90, 0x30, 
	0x56, 0x00, 0x90, 0x4f, 0x4d, 0x64, 0x80, 0x30, 
	0x30, 0x1c, 0x90, 0x24, 0x47, 0x64, 0x80, 0x4f, 
	0x30, 0x00, 0x80, 0x24, 0x30, 0x1c, 0x90, 0x30, 
	0x54, 0x00, 0x90, 0x4b, 0x3e, 0x64, 0x80, 0x4b, 
	0x30, 0x00, 0x80, 0x30, 0x30, 0x1c, 0x90, 0x24, 
	0x40, 0x00, 0x90, 0x4f, 0x46, 0x64, 0x80, 0x4f, 
	0x30, 0x00, 0x80, 0x24, 0x30, 0x1c, 0x90, 0x30, 
	0x56, 0x00, 0x90, 0x50, 0x45, 0x64, 0x80, 0x50, 
	0x30, 0x00, 0x80, 0x30, 0x30, 0x1c, 0x90, 0x24, 
	0x45, 0x00, 0x90, 0x52, 0x45, 0x64, 0x80, 0x24, 
	0x30, 0x1c, 0x90, 0x30, 0x56, 0x64, 0x80, 0x52, 
	0x30, 0x00, 0x80, 0x30, 0x30, 0x1c, 0x90, 0x24, 
	0x43, 0x00, 0x90, 0x50, 0x40, 0x64, 0x80, 0x50, 
	0x30, 0x00, 0x80, 0x24, 0x30, 0x1c, 0x90, 0x30, 
	0x54, 0x00, 0x90, 0x4f, 0x3f, 0x64, 0x80, 0x4f, 
	0x30, 0x00, 0x80, 0x30, 0x30, 0x1c, 0x90, 0x20, 
	0x44, 0x00, 0x90, 0x4b, 0x35, 0x64, 0x80, 0x4b, 
	0x30, 0x00, 0x80, 0x20, 0x30, 0x1c, 0x90, 0x2c, 
	0x55, 0x00, 0x90, 0x4b, 0x40, 0x64, 0x80, 0x4b, 
	0x30, 0x00, 0x80, 0x2c, 0x30, 0x1c, 0x90, 0x20, 
	0x42, 0x00, 0x90, 0x46, 0x34, 0x64, 0x80, 0x46, 
	0x30, 0x00, 0x80, 0x20, 0x30, 0x1c, 0x90, 0x2c, 
	0x4f, 0x00, 0x90, 0x4b, 0x46, 0x64, 0x80, 0x4b, 
	0x30, 0x00, 0x80, 0x2c, 0x30, 0x1c, 0x90, 0x20, 
	0x49, 0x00, 0x90, 0x4b, 0x48, 0x64, 0x80, 0x4b, 
	0x30, 0x00, 0x80, 0x20, 0x30, 0x1c, 0x90, 0x2c, 
	0x55, 0x00, 0x90, 0x46, 0x38, 0x64, 0x80, 0x46, 
	0x30, 0x00, 0x80, 0x2c, 0x30, 0x1c, 0x90, 0x20, 
	0x45, 0x00, 0x90, 0x44, 0x3c, 0x64, 0x80, 0x44, 
	0x30, 0x00, 0x80, 0x20, 0x30, 0x1c, 0x90, 0x2c, 
	0x57, 0x00, 0x90, 0x43, 0x3d, 0x64, 0x80, 0x43, 
	0x30, 0x00, 0x80, 0x2c, 0x30, 0x1c, 0x90, 0x22, 
	0x42, 0x00, 0x90, 0x46, 0x46, 0x64, 0x80, 0x46, 
	0x30, 0x00, 0x80, 0x22, 0x30, 0x1c, 0x90, 0x2e, 
	0x52, 0x00, 0x90, 0x43, 0x3c, 0x64, 0x80, 0x43, 
	0x30, 0x00, 0x80, 0x2e, 0x30, 0x1c, 0x90, 0x22, 
	0x46, 0x00, 0x90, 0x4b, 0x4d, 0x64, 0x80, 0x4b, 
	0x30, 0x00, 0x80, 0x22, 0x30, 0x1c, 0x90, 0x2e, 
	0x57, 0x00, 0x90, 0x41, 0x36, 0x64, 0x80, 0x2e, 
	0x30, 0x1c, 0x90, 0x22, 0x43, 0x64, 0x80, 0x22, 
	0x30, 0x1c, 0x90, 0x2e, 0x53, 0x64, 0x80, 0x2e, 
	0x30, 0x1c, 0x90, 0x22, 0x3f, 0x64, 0x80, 0x22, 
	0x30, 0x1c, 0x90, 0x2e, 0x55, 0x64, 0x80, 0x41, 
	0x30, 0x00, 0x80, 0x2e, 0x30, 0x1c, 0x90, 0x24, 
	0x44, 0x64, 0x80, 0x24, 0x30, 0x1c, 0x90, 0x30, 
	0x53, 0x00, 0x90, 0x41, 0x35, 0x64, 0x80, 0x41, 
	0x30, 0x00, 0x80, 0x30, 0x30, 0x1c, 0x90, 0x24, 
	0x41, 0x00, 0x90, 0x43, 0x44, 0x64, 0x80, 0x43, 
	0x30, 0x00, 0x80, 0x24, 0x30, 0x1c, 0x90, 0x30, 
	0x54, 0x00, 0x90, 0x41, 0x3c, 0x64, 0x80, 0x41, 
	0x30, 0x00, 0x80, 0x30, 0x30, 0x1c, 0x90, 0x24, 
	0x41, 0x00, 0x90, 0x43, 0x46, 0x64, 0x80, 0x43, 
	0x30, 0x00, 0x80, 0x24, 0x30, 0x1c, 0x90, 0x30, 
	0x57, 0x00, 0x90, 0x41, 0x3e, 0x64, 0x80, 0x41, 
	0x30, 0x00, 0x80, 0x30, 0x30, 0x1c, 0x90, 0x24, 
	0x45, 0x00, 0x90, 0x3f, 0x3b, 0x64, 0x80, 0x3f, 
	0x30, 0x00, 0x80, 0x24, 0x30, 0x1c, 0x90, 0x30, 
	0x53, 0x00, 0x90, 0x3c, 0x3c, 0x64, 0x80, 0x3c, 
	0x30, 0x00, 0x80, 0x30, 0x30, 0x1c, 0x90, 0x24, 
	0x41, 0x64, 0x80, 0x24, 0x30, 0x1c, 0x90, 0x30, 
	0x55, 0x00, 0x90, 0x41, 0x39, 0x64, 0x80, 0x41, 
	0x30, 0x00, 0x80, 0x30, 0x30, 0x1c, 0x90, 0x24, 
	0x42, 0x00, 0x90, 0x43, 0x42, 0x64, 0x80, 0x43, 
	0x30, 0x00, 0x80, 0x24, 0x30, 0x1c, 0x90, 0x30, 
	0x55, 0x00, 0x90, 0x41, 0x3f, 0x64, 0x80, 0x41, 
	0x30, 0x00, 0x80, 0x30, 0x30, 0x1c, 0x90, 0x24, 
	0x42, 0x00, 0x90, 0x43, 0x44, 0x64, 0x80, 0x43, 
	0x30, 0x00, 0x80, 0x24, 0x30, 0x1c, 0x90, 0x30, 
	0x58, 0x00, 0x90, 0x44, 0x44, 0x64, 0x80, 0x44, 
	0x30, 0x00, 0x80, 0x30, 0x30, 0x1c, 0x90, 0x24, 
	0x43, 0x00, 0x90, 0x52, 0x51, 0x64, 0x80, 0x24, 
	0x30, 0x1c, 0x90, 0x30, 0x55, 0x64, 0x80, 0x52, 
	0x30, 0x00, 0x80, 0x30, 0x30, 0x1c, 0x90, 0x20, 
	0x44, 0x00, 0x90, 0x4b, 0x39, 0x24, 0x80, 0x4b, 
	0x30, 0x1c, 0x90, 0x46, 0x38, 0x24, 0x80, 0x20, 
	0x30, 0x00, 0x80, 0x46, 0x30, 0x1c, 0x90, 0x2c, 
	0x56, 0x00, 0x90, 0x4b, 0x47, 0x24, 0x80, 0x4b, 
	0x30, 0x1c, 0x90, 0x46, 0x34, 0x24, 0x80, 0x2c, 
	0x30, 0x00, 0x80, 0x46, 0x30, 0x1c, 0x90, 0x20, 
	0x45, 0x00, 0x90, 0x4b, 0x4d, 0x24, 0x80, 0x4b, 
	0x30, 0x1c, 0x90, 0x46, 0x39, 0x24, 0x80, 0x20, 
	0x30, 0x00, 0x80, 0x46, 0x30, 0x1c, 0x90, 0x2c, 
	0x55, 0x00, 0x90, 0x48, 0x48, 0x24, 0x80, 0x48, 
	0x30, 0x1c, 0x90, 0x44, 0x3c, 0x24, 0x80, 0x2c, 
	0x30, 0x00, 0x80, 0x44, 0x30, 0x1c, 0x90, 0x20, 
	0x45, 0x00, 0x90, 0x48, 0x47, 0x24, 0x80, 0x48, 
	0x30, 0x1c, 0x90, 0x44, 0x40, 0x24, 0x80, 0x20, 
	0x30, 0x00, 0x80, 0x44, 0x30, 0x1c, 0x90, 0x2c, 
	0x55, 0x00, 0x90, 0x48, 0x4a, 0x24, 0x80, 0x48, 
	0x30, 0x1c, 0x90, 0x44, 0x3a, 0x24, 0x80, 0x2c, 
	0x30, 0x00, 0x80, 0x44, 0x30, 0x1c, 0x90, 0x20, 
	0x41, 0x00, 0x90, 0x46, 0x49, 0x24, 0x80, 0x46, 
	0x30, 0x1c, 0x90, 0x43, 0x40, 0x24, 0x80, 0x20, 
	0x30, 0x00, 0x80, 0x43, 0x30, 0x1c, 0x90, 0x2c, 
	0x56, 0x00, 0x90, 0x46, 0x42, 0x24, 0x80, 0x46, 
	0x30, 0x1c, 0x90, 0x43, 0x3d, 0x24, 0x80, 0x2c, 
	0x30, 0x00, 0x80, 0x43, 0x30, 0x1c, 0x90, 0x22, 
	0x45, 0x00, 0x90, 0x46, 0x48, 0x64, 0x80, 0x46, 
	0x30, 0x00, 0x80, 0x22, 0x30, 0x1c, 0x90, 0x2e, 
	0x55, 0x00, 0x90, 0x48, 0x41, 0x64, 0x80, 0x48, 
	0x30, 0x00, 0x80, 0x2e, 0x30, 0x1c, 0x90, 0x22, 
	0x4b, 0x00, 0x90, 0x4a, 0x48, 0x64, 0x80, 0x4a, 
	0x30, 0x00, 0x80, 0x22, 0x30, 0x1c, 0x90, 0x2e, 
	0x55, 0x00, 0x90, 0x57, 0x4f, 0x64, 0x80, 0x2e, 
	0x30, 0x1c, 0x90, 0x22, 0x41, 0x64, 0x80, 0x22, 
	0x30, 0x1c, 0x90, 0x2e, 0x57, 0x64, 0x80, 0x2e, 
	0x30, 0x1c, 0x90, 0x22, 0x42, 0x64, 0x80, 0x22, 
	0x30, 0x1c, 0x90, 0x2e, 0x52, 0x64, 0x80, 0x57, 
	0x30, 0x00, 0x80, 0x2e, 0x30, 0x1c, 0x90, 0x24, 
	0x45, 0x00, 0x90, 0x4f, 0x33, 0x64, 0x80, 0x4f, 
	0x30, 0x00, 0x80, 0x24, 0x30, 0x1c, 0x90, 0x30, 
	0x4f, 0x00, 0x90, 0x4f, 0x43, 0x64, 0x80, 0x30, 
	0x30, 0x1c, 0x90, 0x24, 0x44, 0x64, 0x80, 0x4f, 
	0x30, 0x00, 0x80, 0x24, 0x30, 0x1c, 0x90, 0x30, 
	0x50, 0x00, 0x90, 0x4f, 0x42, 0x24, 0x80, 0x4f, 
	0x30, 0x1c, 0x90, 0x4d, 0x40, 0x24, 0x80, 0x30, 
	0x30, 0x00, 0x80, 0x4d, 0x30, 0x1c, 0x90, 0x24, 
	0x45, 0x00, 0x90, 0x4f, 0x43, 0x64, 0x80, 0x4f, 
	0x30, 0x00, 0x80, 0x24, 0x30, 0x1c, 0x90, 0x30, 
	0x56, 0x00, 0x90, 0x4d, 0x3d, 0x64, 0x80, 0x4d, 
	0x30, 0x00, 0x80, 0x30, 0x30, 0x1c, 0x90, 0x24, 
	0x43, 0x00, 0x90, 0x4b, 0x3e, 0x64, 0x80, 0x4b, 
	0x30, 0x00, 0x80, 0x24, 0x30, 0x1c, 0x90, 0x30, 
	0x52, 0x00, 0x90, 0x48, 0x3b, 0x64, 0x80, 0x48, 
	0x30, 0x00, 0x80, 0x30, 0x30, 0x1c, 0x90, 0x24, 
	0x44, 0x00, 0x90, 0x4f, 0x4e, 0x64, 0x80, 0x4f, 
	0x30, 0x00, 0x80, 0x24, 0x30, 0x1c, 0x90, 0x30, 
	0x53, 0x00, 0x90, 0x4f, 0x40, 0x64, 0x80, 0x30, 
	0x30, 0x1c, 0x90, 0x24, 0x45, 0x64, 0x80, 0x4f, 
	0x30, 0x00, 0x80, 0x24, 0x30, 0x1c, 0x90, 0x30, 
	0x56, 0x00, 0x90, 0x4d, 0x3c, 0x24, 0x80, 0x4d, 
	0x30, 0x1c, 0x90, 0x4f, 0x44, 0x24, 0x80, 0x30, 
	0x30, 0x00, 0x80, 0x4f, 0x30, 0x1c, 0x90, 0x24, 
	0x44, 0x00, 0x90, 0x4d, 0x3a, 0x64, 0x80, 0x4d, 
	0x30, 0x00, 0x80, 0x24, 0x30, 0x1c, 0x90, 0x30, 
	0x52, 0x00, 0x90, 0x4f, 0x42, 0x64, 0x80, 0x4f, 
	0x30, 0x00, 0x80, 0x30, 0x30, 0x1c, 0x90, 0x24, 
	0x45, 0x00, 0x90, 0x54, 0x45, 0x64, 0x80, 0x24, 
	0x30, 0x1c, 0x90, 0x30, 0x57, 0x64, 0x80, 0x54, 
	0x30, 0x00, 0x80, 0x30, 0x30, 0x1c, 0x90, 0x20, 
	0x3f, 0x00, 0x90, 0x52, 0x3c, 0x24, 0x80, 0x52, 
	0x30, 0x1c, 0x90, 0x4f, 0x3d, 0x24, 0x80, 0x20, 
	0x30, 0x00, 0x80, 0x4f, 0x30, 0x1c, 0x90, 0x2c, 
	0x57, 0x00, 0x90, 0x52, 0x43, 0x24, 0x80, 0x52, 
	0x30, 0x1c, 0x90, 0x4f, 0x3e, 0x24, 0x80, 0x2c, 
	0x30, 0x00, 0x80, 0x4f, 0x30, 0x1c, 0x90, 0x20, 
	0x44, 0x00, 0x90, 0x52, 0x46, 0x24, 0x80, 0x52, 
	0x30, 0x1c, 0x90, 0x4f, 0x3b, 0x24, 0x80, 0x20, 
	0x30, 0x00, 0x80, 0x4f, 0x30, 0x1c, 0x90, 0x2c, 
	0x52, 0x00, 0x90, 0x52, 0x49, 0x24, 0x80, 0x52, 
	0x30, 0x1c, 0x90, 0x4f, 0x39, 0x24, 0x80, 0x2c, 
	0x30, 0x00, 0x80, 0x4f, 0x30, 0x1c, 0x90, 0x20, 
	0x42, 0x00, 0x90, 0x52, 0x46, 0x24, 0x80, 0x52, 
	0x30, 0x1c, 0x90, 0x4f, 0x3d, 0x24, 0x80, 0x20, 
	0x30, 0x00, 0x80, 0x4f, 0x30, 0x1c, 0x90, 0x2c, 
	0x58, 0x00, 0x90, 0x52, 0x45, 0x24, 0x80, 0x52, 
	0x30, 0x1c, 0x90, 0x4f, 0x3c, 0x24, 0x80, 0x2c, 
	0x30, 0x00, 0x80, 0x4f, 0x30, 0x1c, 0x90, 0x20, 
	0x44, 0x00, 0x90, 0x52, 0x48, 0x24, 0x80, 0x52, 
	0x30, 0x1c, 0x90, 0x4f, 0x3c, 0x24, 0x80, 0x20, 
	0x30, 0x00, 0x80, 0x4f, 0x30, 0x1c, 0x90, 0x2c, 
	0x52, 0x00, 0x90, 0x52, 0x44, 0x24, 0x80, 0x52, 
	0x30, 0x1c, 0x90, 0x4f, 0x36, 0x24, 0x80, 0x2c, 
	0x30, 0x00, 0x80, 0x4f, 0x30, 0x1c, 0x90, 0x20, 
	0x44, 0x00, 0x90, 0x50, 0x45, 0x81, 0x64, 0x80, 
	0x50, 0x30, 0x00, 0x80, 0x20, 0x30, 0x1c, 0x90, 
	0x22, 0x4d, 0x00, 0x90, 0x52, 0x49, 0x81, 0x64, 
	0x80, 0x52, 0x30, 0x00, 0x80, 0x22, 0x30, 0x1c, 
	0x90, 0x20, 0x4d, 0x00, 0x90, 0x50, 0x3f, 0x81, 
	0x24, 0x80, 0x50, 0x30, 0x00, 0x80, 0x20, 0x30, 
	0x1c, 0x90, 0x1f, 0x4a, 0x00, 0x90, 0x4f, 0x3d, 
	0x81, 0x24, 0x80, 0x4f, 0x30, 0x00, 0x80, 0x1f, 
	0x30, 0x1c, 0x90, 0x1d, 0x49, 0x00, 0x90, 0x4d, 
	0x39, 0x64, 0x80, 0x4d, 0x30, 0x00, 0x80, 0x1d, 
	0x30, 0x1c, 0x90, 0x24, 0x56, 0x00, 0x90, 0x4f, 
	0x41, 0x8b, 0x64, 0x80, 0x24, 0x30, 0x82, 0x1c, 
	0x90, 0x2e, 0x44, 0x81, 0x64, 0x80, 0x4f, 0x30, 
	0x00, 0x80, 0x2e, 0x30, 0x1c, 0x90, 0x30, 0x4a, 
	0x81, 0x64, 0x80, 0x30, 0x30, 0x82, 0x1c, 0x90, 
	0x4b, 0x3b, 0x83, 0x64, 0x80, 0x4b, 0x30, 0x1c, 
	0x90, 0x4a, 0x3c, 0x83, 0x64, 0x80, 0x4a, 0x30, 
	0x1c, 0x90, 0x48, 0x3b, 0x83, 0x00, 0x90, 0x2e, 
	0x48, 0x64, 0x80, 0x48, 0x30, 0x00, 0x80, 0x2e, 
	0x30, 0x1c, 0x90, 0x30, 0x50, 0x81, 0x64, 0x80, 
	0x30, 0x30, 0x82, 0x1c, 0x90, 0x4f, 0x3b, 0x83, 
	0x64, 0x80, 0x4f, 0x30, 0x1c, 0x90, 0x4d, 0x3f, 
	0x83, 0x64, 0x80, 0x4d, 0x30, 0x1c, 0x90, 0x4b, 
	0x3b, 0x82, 0x00, 0x90, 0x2e, 0x43, 0x81, 0x64, 
	0x80, 0x4b, 0x30, 0x00, 0x80, 0x2e, 0x30, 0x1c, 
	0x90, 0x30, 0x4f, 0x81, 0x64, 0x80, 0x30, 0x30, 
	0x82, 0x1c, 0x90, 0x4b, 0x3b, 0x83, 0x64, 0x80, 
	0x4b, 0x30, 0x1c, 0x90, 0x4a, 0x3f, 0x82, 0x64, 
	0x80, 0x4a, 0x30, 0x1c, 0x90, 0x4b, 0x44, 0x82, 
	0x64, 0x80, 0x4b, 0x30, 0x1c, 0x90, 0x4a, 0x3d, 
	0x81, 0x64, 0x80, 0x4a, 0x30, 0x1c, 0x90, 0x2c, 
	0x47, 0x00, 0x90, 0x48, 0x3c, 0x8d, 0x64, 0x80, 
	0x48, 0x30, 0x00, 0x80, 0x2c, 0x30, 0x1c, 0x90, 
	0x2e, 0x4f, 0x81, 0x64, 0x80, 0x2e, 0x30, 0x1c, 
	0x90, 0x30, 0x4f, 0x81, 0x64, 0x80, 0x30, 0x30, 
	0x1c, 0x90, 0x4b, 0x5f, 0x64, 0x80, 0x4b, 0x30, 
	0x1c, 0x90, 0x4f, 0x53, 0x64, 0x80, 0x4f, 0x30, 
	0x1c, 0x90, 0x54, 0x59, 0x00, 0x90, 0x4b, 0x3b, 
	0x64, 0x80, 0x54, 0x30, 0x1c, 0x90, 0x57, 0x50, 
	0x64, 0x80, 0x57, 0x30, 0x1c, 0x90, 0x5b, 0x57, 
	0x81, 0x64, 0x80, 0x4b, 0x30, 0x00, 0x80, 0x5b, 
	0x30, 0x1c, 0x90, 0x4a, 0x3d, 0x82, 0x00, 0x90, 
	0x4b, 0x41, 0x64, 0x80, 0x4b, 0x30, 0x1c, 0x90, 
	0x4f, 0x4e, 0x64, 0x80, 0x4a, 0x30, 0x00, 0x80, 
	0x4f, 0x30, 0x1c, 0x90, 0x54, 0x57, 0x00, 0x90, 
	0x48, 0x3d, 0x64, 0x80, 0x54, 0x30, 0x1c, 0x90, 
	0x57, 0x52, 0x64, 0x80, 0x57, 0x30, 0x81, 0x1c, 
	0x90, 0x2e, 0x42, 0x64, 0x80, 0x48, 0x30, 0x00, 
	0x80, 0x2e, 0x30, 0x1c, 0x90, 0x30, 0x4f, 0x81, 
	0x64, 0x80, 0x30, 0x30, 0x1c, 0x90, 0x4b, 0x61, 
	0x64, 0x80, 0x4b, 0x30, 0x1c, 0x90, 0x4f, 0x57, 
	0x64, 0x80, 0x4f, 0x30, 0x1c, 0x90, 0x54, 0x56, 
	0x00, 0x90, 0x4f, 0x3b, 0x64, 0x80, 0x54, 0x30, 
	0x1c, 0x90, 0x57, 0x50, 0x64, 0x80, 0x57, 0x30, 
	0x1c, 0x90, 0x5b, 0x55, 0x81, 0x64, 0x80, 0x4f, 
	0x30, 0x00, 0x80, 0x5b, 0x30, 0x1c, 0x90, 0x4d, 
	0x3a, 0x82, 0x00, 0x90, 0x4b, 0x46, 0x64, 0x80, 
	0x4b, 0x30, 0x1c, 0x90, 0x4f, 0x57, 0x64, 0x80, 
	0x4d, 0x30, 0x00, 0x80, 0x4f, 0x30, 0x1c, 0x90, 
	0x54, 0x58, 0x00, 0x90, 0x4b, 0x3b, 0x64, 0x80, 
	0x54, 0x30, 0x1c, 0x90, 0x57, 0x53, 0x64, 0x80, 
	0x57, 0x30, 0x1c, 0x90, 0x2e, 0x43, 0x81, 0x64, 
	0x80, 0x4b, 0x30, 0x00, 0x80, 0x2e, 0x30, 0x1c, 
	0x90, 0x30, 0x4d, 0x81, 0x64, 0x80, 0x30, 0x30, 
	0x1c, 0x90, 0x4b, 0x61, 0x64, 0x80, 0x4b, 0x30, 
	0x1c, 0x90, 0x4f, 0x56, 0x64, 0x80, 0x4f, 0x30, 
	0x1c, 0x90, 0x54, 0x59, 0x00, 0x90, 0x4b, 0x3a, 
	0x64, 0x80, 0x54, 0x30, 0x1c, 0x90, 0x57, 0x53, 
	0x64, 0x80, 0x57, 0x30, 0x1c, 0x90, 0x5b, 0x53, 
	0x81, 0x64, 0x80, 0x4b, 0x30, 0x00, 0x80, 0x5b, 
	0x30, 0x1c, 0x90, 0x4a, 0x3b, 0x82, 0x00, 0x90, 
	0x4b, 0x41, 0x64, 0x80, 0x4a, 0x30, 0x00, 0x80, 
	0x4b, 0x30, 0x1c, 0x90, 0x4f, 0x51, 0x00, 0x90, 
	0x4b, 0x42, 0x64, 0x80, 0x4f, 0x30, 0x1c, 0x90, 
	0x54, 0x55, 0x64, 0x80, 0x54, 0x30, 0x1c, 0x90, 
	0x57, 0x57, 0x64, 0x80, 0x4b, 0x30, 0x00, 0x80, 
	0x57, 0x30, 0x1c, 0x90, 0x4a, 0x41, 0x81, 0x64, 
	0x80, 0x4a, 0x30, 0x1c, 0x90, 0x48, 0x3e, 0x87, 
	0x64, 0x80, 0x48, 0x30, 0x1c, 0x90, 0x48, 0x42, 
	0x82, 0x64, 0x80, 0x48, 0x30, 0x1c, 0x90, 0x48, 
	0x42, 0x82, 0x64, 0x80, 0x48, 0x30, 0x1c, 0x90, 
	0x48, 0x45, 0x81, 0x64, 0x80, 0x48, 0x30, 0x1c, 
	0x90, 0x48, 0x41, 0x81, 0x64, 0x80, 0x48, 0x30, 
	0x1c, 0x90, 0x48, 0x44, 0x81, 0x64, 0x80, 0x48, 
	0x30, 0x1c, 0x90, 0x2c, 0x51, 0x00, 0x90, 0x48, 
	0x3c, 0x24, 0x80, 0x48, 0x30, 0x1c, 0x90, 0x43, 
	0x37, 0x24, 0x80, 0x43, 0x30, 0x1c, 0x90, 0x3f, 
	0x37, 0x24, 0x80, 0x3f, 0x30, 0x1c, 0x90, 0x3c, 
	0x3a, 0x24, 0x80, 0x2c, 0x30, 0x00, 0x80, 0x3c, 
	0x30, 0x1c, 0x90, 0x2c, 0x4b, 0x00, 0x90, 0x48, 
	0x51, 0x24, 0x80, 0x48, 0x30, 0x1c, 0x90, 0x43, 
	0x3d, 0x24, 0x80, 0x43, 0x30, 0x1c, 0x90, 0x3f, 
	0x38, 0x24, 0x80, 0x3f, 0x30, 0x1c, 0x90, 0x3c, 
	0x3b, 0x24, 0x80, 0x2c, 0x30, 0x00, 0x80, 0x3c, 
	0x30, 0x1c, 0x90, 0x30, 0x50, 0x00, 0x90, 0x48, 
	0x53, 0x81, 0x64, 0x80, 0x30, 0x30, 0x1c, 0x90, 
	0x30, 0x4d, 0x81, 0x64, 0x80, 0x48, 0x30, 0x00, 
	0x80, 0x30, 0x30, 0x1c, 0x90, 0x30, 0x51, 0x00, 
	0x90, 0x4b, 0x4d, 0x24, 0x80, 0x4b, 0x30, 0x1c, 
	0x90, 0x48, 0x39, 0x81, 0x24, 0x80, 0x30, 0x30, 
	0x1c, 0x90, 0x30, 0x4b, 0x81, 0x64, 0x80, 0x48, 
	0x30, 0x00, 0x80, 0x30, 0x30, 0x1c, 0x90, 0x30, 
	0x4a, 0x00, 0x90, 0x4f, 0x4d, 0x81, 0x24, 0x80, 
	0x4f, 0x30, 0x1c, 0x90, 0x4d, 0x43, 0x24, 0x80, 
	0x30, 0x30, 0x1c, 0x90, 0x30, 0x51, 0x64, 0x80, 
	0x4d, 0x30, 0x1c, 0x90, 0x4b, 0x3f, 0x64, 0x80, 
	0x30, 0x30, 0x00, 0x80, 0x4b, 0x30, 0x1c, 0x90, 
	0x30, 0x4f, 0x00, 0x90, 0x4d, 0x45, 0x81, 0x24, 
	0x80, 0x4d, 0x30, 0x1c, 0x90, 0x4b, 0x3d, 0x24, 
	0x80, 0x30, 0x30, 0x1c, 0x90, 0x30, 0x4c, 0x64, 
	0x80, 0x4b, 0x30, 0x1c, 0x90, 0x4a, 0x40, 0x64, 
	0x80, 0x30, 0x30, 0x00, 0x80, 0x4a, 0x30, 0x1c, 
	0x90, 0x2c, 0x46, 0x00, 0x90, 0x48, 0x41, 0x81, 
	0x64, 0x80, 0x2c, 0x30, 0x1c, 0x90, 0x2c, 0x4f, 
	0x81, 0x64, 0x80, 0x48, 0x30, 0x00, 0x80, 0x2c, 
	0x30, 0x1c, 0x90, 0x2c, 0x4c, 0x00, 0x90, 0x4b, 
	0x49, 0x24, 0x80, 0x4b, 0x30, 0x1c, 0x90, 0x48, 
	0x3f, 0x81, 0x24, 0x80, 0x2c, 0x30, 0x1c, 0x90, 
	0x2c, 0x4c, 0x81, 0x64, 0x80, 0x48, 0x30, 0x00, 
	0x80, 0x2c, 0x30, 0x1c, 0x90, 0x2c, 0x49, 0x00, 
	0x90, 0x4f, 0x4c, 0x81, 0x24, 0x80, 0x4f, 0x30, 
	0x1c, 0x90, 0x4d, 0x40, 0x24, 0x80, 0x2c, 0x30, 
	0x1c, 0x90, 0x2c, 0x4f, 0x64, 0x80, 0x4d, 0x30, 
	0x1c, 0x90, 0x4b, 0x3b, 0x64, 0x80, 0x2c, 0x30, 
	0x00, 0x80, 0x4b, 0x30, 0x1c, 0x90, 0x2e, 0x51, 
	0x00, 0x90, 0x4d, 0x4a, 0x81, 0x24, 0x80, 0x4d, 
	0x30, 0x1c, 0x90, 0x4b, 0x40, 0x24, 0x80, 0x2e, 
	0x30, 0x1c, 0x90, 0x2e, 0x4d, 0x64, 0x80, 0x4b, 
	0x30, 0x1c, 0x90, 0x4a, 0x3f, 0x64, 0x80, 0x2e, 
	0x30, 0x00, 0x80, 0x4a, 0x30, 0x1c, 0x90, 0x30, 
	0x4d, 0x00, 0x90, 0x48, 0x3d, 0x81, 0x64, 0x80, 
	0x30, 0x30, 0x1c, 0x90, 0x30, 0x49, 0x81, 0x64, 
	0x80, 0x48, 0x30, 0x00, 0x80, 0x30, 0x30, 0x1c, 
	0x90, 0x30, 0x4c, 0x00, 0x90, 0x4b, 0x47, 0x24, 
	0x80, 0x4b, 0x30, 0x1c, 0x90, 0x48, 0x3b, 0x81, 
	0x24, 0x80, 0x30, 0x30, 0x1c, 0x90, 0x30, 0x4d, 
	0x81, 0x64, 0x80, 0x48, 0x30, 0x00, 0x80, 0x30, 
	0x30, 0x1c, 0x90, 0x30, 0x48, 0x00, 0x90, 0x4f, 
	0x4b, 0x81, 0x24, 0x80, 0x4f, 0x30, 0x1c, 0x90, 
	0x4d, 0x3c, 0x24, 0x80, 0x30, 0x30, 0x1c, 0x90, 
	0x30, 0x4c, 0x64, 0x80, 0x4d, 0x30, 0x1c, 0x90, 
	0x4b, 0x3d, 0x64, 0x80, 0x30, 0x30, 0x00, 0x80, 
	0x4b, 0x30, 0x1c, 0x90, 0x30, 0x50, 0x00, 0x90, 
	0x4d, 0x42, 0x81, 0x24, 0x80, 0x4d, 0x30, 0x1c, 
	0x90, 0x4b, 0x3c, 0x24, 0x80, 0x30, 0x30, 0x1c, 
	0x90, 0x30, 0x4c, 0x64, 0x80, 0x4b, 0x30, 0x1c, 
	0x90, 0x4a, 0x3c, 0x64, 0x80, 0x30, 0x30, 0x00, 
	0x80, 0x4a, 0x30, 0x1c, 0x90, 0x2c, 0x45, 0x00, 
	0x90, 0x48, 0x3e, 0x81, 0x64, 0x80, 0x2c, 0x30, 
	0x1c, 0x90, 0x2c, 0x49, 0x81, 0x64, 0x80, 0x48, 
	0x30, 0x00, 0x80, 0x2c, 0x30, 0x1c, 0x90, 0x2c, 
	0x4a, 0x00, 0x90, 0x4b, 0x46, 0x24, 0x80, 0x4b, 
	0x30, 0x1c, 0x90, 0x48, 0x39, 0x81, 0x24, 0x80, 
	0x2c, 0x30, 0x1c, 0x90, 0x2c, 0x50, 0x81, 0x64, 
	0x80, 0x48, 0x30, 0x00, 0x80, 0x2c, 0x30, 0x1c, 
	0x90, 0x2c, 0x47, 0x00, 0x90, 0x4f, 0x4b, 0x81, 
	0x24, 0x80, 0x4f, 0x30, 0x1c, 0x90, 0x4d, 0x41, 
	0x24, 0x80, 0x2c, 0x30, 0x1c, 0x90, 0x2c, 0x4d, 
	0x64, 0x80, 0x4d, 0x30, 0x1c, 0x90, 0x4b, 0x38, 
	0x64, 0x80, 0x2c, 0x30, 0x00, 0x80, 0x4b, 0x30, 
	0x1c, 0x90, 0x2e, 0x4e, 0x00, 0x90, 0x4d, 0x44, 
	0x81, 0x24, 0x80, 0x4d, 0x30, 0x1c, 0x90, 0x4b, 
	0x3d, 0x24, 0x80, 0x2e, 0x30, 0x1c, 0x90, 0x2e, 
	0x4b, 0x64, 0x80, 0x4b, 0x30, 0x1c, 0x90, 0x4a, 
	0x3c, 0x64, 0x80, 0x2e, 0x30, 0x00, 0x80, 0x4a, 
	0x30, 0x1c, 0x90, 0x2c, 0x47, 0x00, 0x90, 0x43, 
	0x32, 0x64, 0x80, 0x43, 0x30, 0x1c, 0x90, 0x43, 
	0x41, 0x64, 0x80, 0x2c, 0x30, 0x1c, 0x90, 0x2c, 
	0x4d, 0x64, 0x80, 0x43, 0x30, 0x1c, 0x90, 0x44, 
	0x44, 0x64, 0x80, 0x2c, 0x30, 0x00, 0x80, 0x44, 
	0x30, 0x1c, 0x90, 0x30, 0x51, 0x00, 0x90, 0x43, 
	0x41, 0x64, 0x80, 0x43, 0x30, 0x1c, 0x90, 0x41, 
	0x3d, 0x64, 0x80, 0x30, 0x30, 0x00, 0x80, 0x41, 
	0x30, 0x1c, 0x90, 0x30, 0x4b, 0x00, 0x90, 0x3f, 
	0x3a, 0x81, 0x64, 0x80, 0x3f, 0x30, 0x00, 0x80, 
	0x30, 0x30, 0x1c, 0x90, 0x2e, 0x4b, 0x00, 0x90, 
	0x41, 0x44, 0x64, 0x80, 0x41, 0x30, 0x1c, 0x90, 
	0x41, 0x44, 0x64, 0x80, 0x2e, 0x30, 0x1c, 0x90, 
	0x2e, 0x4b, 0x64, 0x80, 0x41, 0x30, 0x1c, 0x90, 
	0x43, 0x48, 0x64, 0x80, 0x2e, 0x30, 0x00, 0x80, 
	0x43, 0x30, 0x1c, 0x90, 0x30, 0x50, 0x00, 0x90, 
	0x41, 0x3e, 0x24, 0x80, 0x41, 0x30, 0x1c, 0x90, 
	0x3f, 0x3b, 0x24, 0x80, 0x3f, 0x30, 0x1c, 0x90, 
	0x3c, 0x39, 0x24, 0x80, 0x3c, 0x30, 0x1c, 0x90, 
	0x3a, 0x42, 0x24, 0x80, 0x30, 0x30, 0x00, 0x80, 
	0x3a, 0x30, 0x1c, 0x90, 0x30, 0x4b, 0x00, 0x90, 
	0x3c, 0x47, 0x81, 0x64, 0x80, 0x3c, 0x30, 0x00, 
	0x80, 0x30, 0x30, 0x1c, 0x90, 0x2c, 0x40, 0x00, 
	0x90, 0x46, 0x50, 0x81, 0x64, 0x80, 0x46, 0x30, 
	0x00, 0x80, 0x2c, 0x30, 0x1c, 0x90, 0x2c, 0x48, 
	0x00, 0x90, 0x4b, 0x4f, 0x81, 0x64, 0x80, 0x4b, 
	0x30, 0x00, 0x80, 0x2c, 0x30, 0x1c, 0x90, 0x2c, 
	0x4f, 0x00, 0x90, 0x4d, 0x4d, 0x81, 0x64, 0x80, 
	0x4d, 0x30, 0x00, 0x80, 0x2c, 0x30, 0x1c, 0x90, 
	0x2c, 0x50, 0x00, 0x90, 0x46, 0x38, 0x81, 0x64, 
	0x80, 0x46, 0x30, 0x00, 0x80, 0x2c, 0x30, 0x1c, 
	0x90, 0x2e, 0x51, 0x00, 0x90, 0x48, 0x46, 0x64, 
	0x80, 0x48, 0x30, 0x1c, 0x90, 0x46, 0x3e, 0x64, 
	0x80, 0x2e, 0x30, 0x00, 0x80, 0x46, 0x30, 0x1c, 
	0x90, 0x2e, 0x4e, 0x00, 0x90, 0x41, 0x38, 0x64, 
	0x80, 0x41, 0x30, 0x1c, 0x90, 0x46, 0x48, 0x64, 
	0x80, 0x2e, 0x30, 0x00, 0x80, 0x46, 0x30, 0x1c, 
	0x90, 0x2e, 0x4b, 0x00, 0x90, 0x46, 0x3f, 0x81, 
	0x64, 0x80, 0x46, 0x30, 0x00, 0x80, 0x2e, 0x30, 
	0x1c, 0x90, 0x2e, 0x4c, 0x00, 0x90, 0x48, 0x43, 
	0x24, 0x80, 0x48, 0x30, 0x1c, 0x90, 0x4b, 0x4a, 
	0x24, 0x80, 0x4b, 0x30, 0x1c, 0x90, 0x57, 0x53, 
	0x64, 0x80, 0x2e, 0x30, 0x00, 0x80, 0x57, 0x30, 
	0x1c, 0x90, 0x30, 0x4f, 0x00, 0x90, 0x48, 0x32, 
	0x64, 0x80, 0x48, 0x30, 0x1c, 0x90, 0x48, 0x3d, 
	0x64, 0x80, 0x30, 0x30, 0x1c, 0x90, 0x30, 0x4d, 
	0x64, 0x80, 0x48, 0x30, 0x1c, 0x90, 0x46, 0x39, 
	0x24, 0x80, 0x46, 0x30, 0x1c, 0x90, 0x48, 0x42, 
	0x24, 0x80, 0x30, 0x30, 0x00, 0x80, 0x48, 0x30, 
	0x1c, 0x90, 0x2c, 0x49, 0x00, 0x90, 0x4b, 0x46, 
	0x81, 0x24, 0x80, 0x4b, 0x30, 0x1c, 0x90, 0x46, 
	0x3a, 0x24, 0x80, 0x2c, 0x30, 0x1c, 0x90, 0x2c, 
	0x4b, 0x64, 0x80, 0x46, 0x30, 0x1c, 0x90, 0x43, 
	0x39, 0x64, 0x80, 0x2c, 0x30, 0x1c, 0x90, 0x2e, 
	0x4d, 0x64, 0x80, 0x43, 0x30, 0x1c, 0x90, 0x43, 
	0x43, 0x64, 0x80, 0x2e, 0x30, 0x1c, 0x90, 0x2e, 
	0x4e, 0x64, 0x80, 0x43, 0x30, 0x1c, 0x90, 0x3f, 
	0x3d, 0x64, 0x80, 0x2e, 0x30, 0x00, 0x80, 0x3f, 
	0x30, 0x1c, 0x90, 0x30, 0x51, 0x00, 0x90, 0x41, 
	0x46, 0x24, 0x80, 0x41, 0x30, 0x1c, 0x90, 0x43, 
	0x47, 0x24, 0x80, 0x43, 0x30, 0x1c, 0x90, 0x41, 
	0x3d, 0x24, 0x80, 0x41, 0x30, 0x1c, 0x90, 0x43, 
	0x46, 0x24, 0x80, 0x30, 0x30, 0x00, 0x80, 0x43, 
	0x30, 0x1c, 0x90, 0x30, 0x4b, 0x00, 0x90, 0x3c, 
	0x33, 0x81, 0x64, 0x80, 0x3c, 0x30, 0x00, 0x80, 
	0x30, 0x30, 0x1c, 0x90, 0x2b, 0x46, 0x00, 0x90, 
	0x43, 0x4c, 0x81, 0x24, 0x80, 0x43, 0x30, 0x1c, 
	0x90, 0x41, 0x3d, 0x24, 0x80, 0x2b, 0x30, 0x00, 
	0x80, 0x41, 0x30, 0x1c, 0x90, 0x2b, 0x51, 0x00, 
	0x90, 0x43, 0x43, 0x24, 0x80, 0x43, 0x30, 0x1c, 
	0x90, 0x46, 0x43, 0x24, 0x80, 0x46, 0x30, 0x1c, 
	0x90, 0x43, 0x3e, 0x24, 0x80, 0x43, 0x30, 0x1c, 
	0x90, 0x41, 0x3e, 0x24, 0x80, 0x2b, 0x30, 0x00, 
	0x80, 0x41, 0x30, 0x1c, 0x90, 0x2b, 0x47, 0x00, 
	0x90, 0x43, 0x45, 0x81, 0x24, 0x80, 0x43, 0x30, 
	0x1c, 0x90, 0x41, 0x3b, 0x24, 0x80, 0x2b, 0x30, 
	0x00, 0x80, 0x41, 0x30, 0x1c, 0x90, 0x2b, 0x4c, 
	0x00, 0x90, 0x43, 0x46, 0x24, 0x80, 0x43, 0x30, 
	0x1c, 0x90, 0x46, 0x45, 0x24, 0x80, 0x46, 0x30, 
	0x1c, 0x90, 0x43, 0x40, 0x24, 0x80, 0x43, 0x30, 
	0x1c, 0x90, 0x41, 0x36, 0x24, 0x80, 0x2b, 0x30, 
	0x00, 0x80, 0x41, 0x30, 0x1c, 0x90, 0x2c, 0x4e, 
	0x00, 0x90, 0x4b, 0x4f, 0x24, 0x80, 0x4b, 0x30, 
	0x1c, 0x90, 0x46, 0x3c, 0x24, 0x80, 0x46, 0x30, 
	0x1c, 0x90, 0x4b, 0x48, 0x24, 0x80, 0x4b, 0x30, 
	0x1c, 0x90, 0x4d, 0x44, 0x24, 0x80, 0x2c, 0x30, 
	0x00, 0x80, 0x4d, 0x30, 0x1c, 0x90, 0x2c, 0x4d, 
	0x00, 0x90, 0x4f, 0x46, 0x24, 0x80, 0x4f, 0x30, 
	0x1c, 0x90, 0x4d, 0x3d, 0x24, 0x80, 0x4d, 0x30, 
	0x1c, 0x90, 0x4b, 0x3d, 0x24, 0x80, 0x4b, 0x30, 
	0x1c, 0x90, 0x48, 0x3b, 0x24, 0x80, 0x2c, 0x30, 
	0x00, 0x80, 0x48, 0x30, 0x1c, 0x90, 0x2e, 0x4d, 
	0x00, 0x90, 0x46, 0x3b, 0x81, 0x64, 0x80, 0x2e, 
	0x30, 0x1c, 0x90, 0x2e, 0x50, 0x81, 0x64, 0x80, 
	0x46, 0x30, 0x00, 0x80, 0x2e, 0x30, 0x1c, 0x90, 
	0x30, 0x4b, 0x00, 0x90, 0x48, 0x44, 0x81, 0x64, 
	0x80, 0x30, 0x30, 0x1c, 0x90, 0x30, 0x4b, 0x81, 
	0x64, 0x80, 0x48, 0x30, 0x00, 0x80, 0x30, 0x30, 
	0x1c, 0x90, 0x30, 0x4a, 0x00, 0x90, 0x4b, 0x49, 
	0x24, 0x80, 0x4b, 0x30, 0x1c, 0x90, 0x48, 0x39, 
	0x81, 0x24, 0x80, 0x30, 0x30, 0x1c, 0x90, 0x30, 
	0x4d, 0x81, 0x64, 0x80, 0x48, 0x30, 0x00, 0x80, 
	0x30, 0x30, 0x1c, 0x90, 0x30, 0x4d, 0x00, 0x90, 
	0x4f, 0x51, 0x81, 0x24, 0x80, 0x4f, 0x30, 0x1c, 
	0x90, 0x4d, 0x42, 0x24, 0x80, 0x30, 0x30, 0x1c, 
	0x90, 0x30, 0x4e, 0x64, 0x80, 0x4d, 0x30, 0x1c, 
	0x90, 0x4b, 0x40, 0x64, 0x80, 0x30, 0x30, 0x00, 
	0x80, 0x4b, 0x30, 0x1c, 0x90, 0x30, 0x4f, 0x00, 
	0x90, 0x4d, 0x45, 0x81, 0x24, 0x80, 0x4d, 0x30, 
	0x1c, 0x90, 0x4b, 0x42, 0x24, 0x80, 0x30, 0x30, 
	0x1c, 0x90, 0x30, 0x4e, 0x64, 0x80, 0x4b, 0x30, 
	0x1c, 0x90, 0x4a, 0x3b, 0x64, 0x80, 0x30, 0x30, 
	0x00, 0x80, 0x4a, 0x30, 0x1c, 0x90, 0x2c, 0x4a, 
	0x00, 0x90, 0x48, 0x3d, 0x81, 0x64, 0x80, 0x2c, 
	0x30, 0x1c, 0x90, 0x2c, 0x4c, 0x81, 0x64, 0x80, 
	0x48, 0x30, 0x00, 0x80, 0x2c, 0x30, 0x1c, 0x90, 
	0x2c, 0x4d, 0x00, 0x90, 0x4b, 0x47, 0x24, 0x80, 
	0x4b, 0x30, 0x1c, 0x90, 0x48, 0x38, 0x81, 0x24, 
	0x80, 0x2c, 0x30, 0x1c, 0x90, 0x2c, 0x50, 0x81, 
	0x64, 0x80, 0x48, 0x30, 0x00, 0x80, 0x2c, 0x30, 
	0x1c, 0x90, 0x2c, 0x4a, 0x00, 0x90, 0x4f, 0x50, 
	0x81, 0x24, 0x80, 0x4f, 0x30, 0x1c, 0x90, 0x4d, 
	0x42, 0x24, 0x80, 0x2c, 0x30, 0x1c, 0x90, 0x2c, 
	0x47, 0x64, 0x80, 0x4d, 0x30, 0x1c, 0x90, 0x4b, 
	0x39, 0x64, 0x80, 0x2c, 0x30, 0x00, 0x80, 0x4b, 
	0x30, 0x1c, 0x90, 0x2e, 0x54, 0x00, 0x90, 0x4d, 
	0x40, 0x81, 0x24, 0x80, 0x4d, 0x30, 0x1c, 0x90, 
	0x4b, 0x40, 0x24, 0x80, 0x2e, 0x30, 0x1c, 0x90, 
	0x2e, 0x4e, 0x64, 0x80, 0x4b, 0x30, 0x1c, 0x90, 
	0x4a, 0x42, 0x64, 0x80, 0x2e, 0x30, 0x00, 0x80, 
	0x4a, 0x30, 0x1c, 0x90, 0x30, 0x4d, 0x00, 0x90, 
	0x48, 0x3a, 0x81, 0x64, 0x80, 0x30, 0x30, 0x1c, 
	0x90, 0x30, 0x52, 0x81, 0x64, 0x80, 0x48, 0x30, 
	0x00, 0x80, 0x30, 0x30, 0x1c, 0x90, 0x30, 0x4f, 
	0x00, 0x90, 0x4b, 0x45, 0x24, 0x80, 0x4b, 0x30, 
	0x1c, 0x90, 0x48, 0x40, 0x81, 0x24, 0x80, 0x30, 
	0x30, 0x1c, 0x90, 0x30, 0x4b, 0x81, 0x64, 0x80, 
	0x48, 0x30, 0x00, 0x80, 0x30, 0x30, 0x1c, 0x90, 
	0x30, 0x4a, 0x00, 0x90, 0x4f, 0x4e, 0x81, 0x24, 
	0x80, 0x4f, 0x30, 0x1c, 0x90, 0x4d, 0x3f, 0x24, 
	0x80, 0x30, 0x30, 0x1c, 0x90, 0x30, 0x4d, 0x64, 
	0x80, 0x4d, 0x30, 0x1c, 0x90, 0x4b, 0x3c, 0x64, 
	0x80, 0x30, 0x30, 0x00, 0x80, 0x4b, 0x30, 0x1c, 
	0x90, 0x30, 0x4c, 0x00, 0x90, 0x4d, 0x42, 0x81, 
	0x24, 0x80, 0x4d, 0x30, 0x1c, 0x90, 0x4b, 0x3d, 
	0x24, 0x80, 0x30, 0x30, 0x1c, 0x90, 0x30, 0x4b, 
	0x64, 0x80, 0x4b, 0x30, 0x1c, 0x90, 0x4a, 0x3c, 
	0x64, 0x80, 0x30, 0x30, 0x00, 0x80, 0x4a, 0x30, 
	0x1c, 0x90, 0x2c, 0x49, 0x00, 0x90, 0x48, 0x3e, 
	0x81, 0x64, 0x80, 0x2c, 0x30, 0x1c, 0x90, 0x2c, 
	0x4a, 0x81, 0x64, 0x80, 0x48, 0x30, 0x00, 0x80, 
	0x2c, 0x30, 0x1c, 0x90, 0x2c, 0x4e, 0x00, 0x90, 
	0x4b, 0x44, 0x24, 0x80, 0x4b, 0x30, 0x1c, 0x90, 
	0x48, 0x3d, 0x81, 0x24, 0x80, 0x2c, 0x30, 0x1c, 
	0x90, 0x2c, 0x4c, 0x81, 0x64, 0x80, 0x48, 0x30, 
	0x00, 0x80, 0x2c, 0x30, 0x1c, 0x90, 0x2c, 0x4b, 
	0x00, 0x90, 0x4f, 0x4a, 0x81, 0x24, 0x80, 0x4f, 
	0x30, 0x1c, 0x90, 0x4d, 0x3f, 0x24, 0x80, 0x2c, 
	0x30, 0x1c, 0x90, 0x2c, 0x49, 0x64, 0x80, 0x4d, 
	0x30, 0x1c, 0x90, 0x4b, 0x3d, 0x64, 0x80, 0x2c, 
	0x30, 0x00, 0x80, 0x4b, 0x30, 0x1c, 0x90, 0x2e, 
	0x50, 0x00, 0x90, 0x4d, 0x44, 0x81, 0x24, 0x80, 
	0x4d, 0x30, 0x1c, 0x90, 0x4b, 0x3b, 0x24, 0x80, 
	0x2e, 0x30, 0x1c, 0x90, 0x2e, 0x49, 0x64, 0x80, 
	0x4b, 0x30, 0x1c, 0x90, 0x4a, 0x3d, 0x64, 0x80, 
	0x2e, 0x30, 0x00, 0x80, 0x4a, 0x30, 0x1c, 0x90, 
	0x2c, 0x49, 0x00, 0x90, 0x3c, 0x31, 0x64, 0x80, 
	0x3c, 0x30, 0x1c, 0x90, 0x3c, 0x3b, 0x64, 0x80, 
	0x2c, 0x30, 0x00, 0x80, 0x3c, 0x30, 0x1c, 0x90, 
	0x2c, 0x51, 0x00, 0x90, 0x4b, 0x52, 0x64, 0x80, 
	0x4b, 0x30, 0x1c, 0x90, 0x3c, 0x33, 0x64, 0x80, 
	0x2c, 0x30, 0x00, 0x80, 0x3c, 0x30, 0x1c, 0x90, 
	0x30, 0x51, 0x00, 0x90, 0x3e, 0x47, 0x64, 0x80, 
	0x3e, 0x30, 0x1c, 0x90, 0x3a, 0x3d, 0x64, 0x80, 
	0x30, 0x30, 0x00, 0x80, 0x3a, 0x30, 0x1c, 0x90, 
	0x30, 0x4b, 0x00, 0x90, 0x37, 0x3e, 0x64, 0x80, 
	0x37, 0x30, 0x1c, 0x90, 0x4a, 0x51, 0x64, 0x80, 
	0x30, 0x30, 0x00, 0x80, 0x4a, 0x30, 0x1c, 0x90, 
	0x2b, 0x44, 0x00, 0x90, 0x37, 0x3b, 0x81, 0x24, 
	0x80, 0x37, 0x30, 0x1c, 0x90, 0x38, 0x44, 0x24, 
	0x80, 0x2b, 0x30, 0x1c, 0x90, 0x2b, 0x4d, 0x64, 
	0x80, 0x38, 0x30, 0x1c, 0x90, 0x3a, 0x46, 0x64, 
	0x80, 0x2b, 0x30, 0x00, 0x80, 0x3a, 0x30, 0x1c, 
	0x90, 0x30, 0x51, 0x00, 0x90, 0x4a, 0x58, 0x81, 
	0x64, 0x80, 0x30, 0x30, 0x1c, 0x90, 0x30, 0x4f, 
	0x81, 0x64, 0x80, 0x4a, 0x30, 0x00, 0x80, 0x30, 
	0x30, 0x1c, 0x90, 0x2c, 0x48, 0x00, 0x90, 0x38, 
	0x3c, 0x24, 0x80, 0x38, 0x30, 0x1c, 0x90, 0x3a, 
	0x42, 0x24, 0x80, 0x3a, 0x30, 0x1c, 0x90, 0x3c, 
	0x47, 0x24, 0x80, 0x3c, 0x30, 0x1c, 0x90, 0x3e, 
	0x43, 0x24, 0x80, 0x2c, 0x30, 0x00, 0x80, 0x3e, 
	0x30, 0x1c, 0x90, 0x2c, 0x4c, 0x00, 0x90, 0x3f, 
	0x4a, 0x24, 0x80, 0x3f, 0x30, 0x1c, 0x90, 0x3e, 
	0x3c, 0x24, 0x80, 0x3e, 0x30, 0x1c, 0x90, 0x3c, 
	0x3d, 0x24, 0x80, 0x3c, 0x30, 0x1c, 0x90, 0x3e, 
	0x46, 0x24, 0x80, 0x2c, 0x30, 0x00, 0x80, 0x3e, 
	0x30, 0x1c, 0x90, 0x2c, 0x4c, 0x00, 0x90, 0x3c, 
	0x3f, 0x24, 0x80, 0x3c, 0x30, 0x1c, 0x90, 0x3a, 
	0x3c, 0x24, 0x80, 0x3a, 0x30, 0x1c, 0x90, 0x3e, 
	0x49, 0x24, 0x80, 0x3e, 0x30, 0x1c, 0x90, 0x3f, 
	0x47, 0x24, 0x80, 0x2c, 0x30, 0x00, 0x80, 0x3f, 
	0x30, 0x1c, 0x90, 0x2c, 0x4d, 0x00, 0x90, 0x44, 
	0x49, 0x24, 0x80, 0x44, 0x30, 0x1c, 0x90, 0x43, 
	0x3a, 0x24, 0x80, 0x43, 0x30, 0x1c, 0x90, 0x41, 
	0x40, 0x24, 0x80, 0x41, 0x30, 0x1c, 0x90, 0x43, 
	0x45, 0x24, 0x80, 0x2c, 0x30, 0x00, 0x80, 0x43, 
	0x30, 0x1c, 0x90, 0x2e, 0x50, 0x00, 0x90, 0x3c, 
	0x37, 0x24, 0x80, 0x3c, 0x30, 0x1c, 0x90, 0x3a, 
	0x3b, 0x24, 0x80, 0x3a, 0x30, 0x1c, 0x90, 0x3c, 
	0x3d, 0x24, 0x80, 0x3c, 0x30, 0x1c, 0x90, 0x3e, 
	0x42, 0x24, 0x80, 0x2e, 0x30, 0x00, 0x80, 0x3e, 
	0x30, 0x1c, 0x90, 0x2e, 0x4b, 0x00, 0x90, 0x3f, 
	0x43, 0x24, 0x80, 0x3f, 0x30, 0x1c, 0x90, 0x41, 
	0x48, 0x24, 0x80, 0x41, 0x30, 0x1c, 0x90, 0x43, 
	0x44, 0x24, 0x80, 0x43, 0x30, 0x1c, 0x90, 0x44, 
	0x42, 0x24, 0x80, 0x2e, 0x30, 0x00, 0x80, 0x44, 
	0x30, 0x1c, 0x90, 0x2e, 0x51, 0x00, 0x90, 0x43, 
	0x3f, 0x24, 0x80, 0x43, 0x30, 0x1c, 0x90, 0x41, 
	0x3d, 0x24, 0x80, 0x41, 0x30, 0x1c, 0x90, 0x43, 
	0x44, 0x24, 0x80, 0x43, 0x30, 0x1c, 0x90, 0x44, 
	0x48, 0x24, 0x80, 0x2e, 0x30, 0x00, 0x80, 0x44, 
	0x30, 0x1c, 0x90, 0x2e, 0x4a, 0x00, 0x90, 0x52, 
	0x57, 0x81, 0x64, 0x80, 0x52, 0x30, 0x00, 0x80, 
	0x2e, 0x30, 0x1c, 0x90, 0x30, 0x4f, 0x00, 0x90, 
	0x43, 0x31, 0x81, 0x24, 0x80, 0x43, 0x30, 0x1c, 
	0x90, 0x52, 0x4f, 0x24, 0x80, 0x30, 0x30, 0x1c, 
	0x90, 0x30, 0x4c, 0x64, 0x80, 0x52, 0x30, 0x1c, 
	0x90, 0x43, 0x2f, 0x64, 0x80, 0x30, 0x30, 0x00, 
	0x80, 0x43, 0x30, 0x1c, 0x90, 0x2c, 0x4b, 0x00, 
	0x90, 0x41, 0x39, 0x81, 0x24, 0x80, 0x41, 0x30, 
	0x1c, 0x90, 0x4f, 0x51, 0x24, 0x80, 0x2c, 0x30, 
	0x1c, 0x90, 0x2c, 0x4e, 0x64, 0x80, 0x4f, 0x30, 
	0x1c, 0x90, 0x41, 0x2c, 0x64, 0x80, 0x2c, 0x30, 
	0x00, 0x80, 0x41, 0x30, 0x1c, 0x90, 0x2e, 0x49, 
	0x00, 0x90, 0x3f, 0x3f, 0x64, 0x80, 0x3f, 0x30, 
	0x1c, 0x90, 0x3f, 0x41, 0x64, 0x80, 0x2e, 0x30, 
	0x00, 0x80, 0x3f, 0x30, 0x1c, 0x90, 0x2e, 0x47, 
	0x00, 0x90, 0x4d, 0x52, 0x81, 0x64, 0x80, 0x4d, 
	0x30, 0x00, 0x80, 0x2e, 0x30, 0x1c, 0x90, 0x30, 
	0x52, 0x00, 0x90, 0x4d, 0x45, 0x24, 0x80, 0x4d, 
	0x30, 0x1c, 0x90, 0x4b, 0x3b, 0x24, 0x80, 0x4b, 
	0x30, 0x1c, 0x90, 0x4a, 0x3d, 0x24, 0x80, 0x4a, 
	0x30, 0x1c, 0x90, 0x4b, 0x44, 0x24, 0x80, 0x30, 
	0x30, 0x1c, 0x90, 0x30, 0x4a, 0x81, 0x64, 0x80, 
	0x4b, 0x30, 0x00, 0x80, 0x30, 0x30, 0x1c, 0x90, 
	0x2b, 0x47, 0x00, 0x90, 0x4d, 0x42, 0x24, 0x80, 
	0x4d, 0x30, 0x1c, 0x90, 0x48, 0x3b, 0x24, 0x80, 
	0x48, 0x30, 0x1c, 0x90, 0x4f, 0x49, 0x24, 0x80, 
	0x4f, 0x30, 0x1c, 0x90, 0x48, 0x39, 0x24, 0x80, 
	0x2b, 0x30, 0x00, 0x80, 0x48, 0x30, 0x1c, 0x90, 
	0x2b, 0x4a, 0x00, 0x90, 0x48, 0x3f, 0x24, 0x80, 
	0x48, 0x30, 0x1c, 0x90, 0x43, 0x35, 0x24, 0x80, 
	0x43, 0x30, 0x1c, 0x90, 0x4a, 0x46, 0x24, 0x80, 
	0x4a, 0x30, 0x1c, 0x90, 0x43, 0x39, 0x24, 0x80, 
	0x2b, 0x30, 0x00, 0x80, 0x43, 0x30, 0x1c, 0x90, 
	0x2b, 0x4e, 0x00, 0x90, 0x44, 0x41, 0x24, 0x80, 
	0x44, 0x30, 0x1c, 0x90, 0x41, 0x40, 0x24, 0x80, 
	0x41, 0x30, 0x1c, 0x90, 0x3f, 0x3d, 0x24, 0x80, 
	0x3f, 0x30, 0x1c, 0x90, 0x3c, 0x37, 0x24, 0x80, 
	0x2b, 0x30, 0x00, 0x80, 0x3c, 0x30, 0x1c, 0x90, 
	0x2b, 0x4e, 0x00, 0x90, 0x3f, 0x48, 0x24, 0x80, 
	0x3f, 0x30, 0x1c, 0x90, 0x3a, 0x3d, 0x24, 0x80, 
	0x3a, 0x30, 0x1c, 0x90, 0x3c, 0x42, 0x24, 0x80, 
	0x3c, 0x30, 0x1c, 0x90, 0x3a, 0x3c, 0x24, 0x80, 
	0x2b, 0x30, 0x00, 0x80, 0x3a, 0x30, 0x1c, 0x90, 
	0x2c, 0x4f, 0x00, 0x90, 0x37, 0x3a, 0x24, 0x80, 
	0x37, 0x30, 0x1c, 0x90, 0x3a, 0x40, 0x24, 0x80, 
	0x3a, 0x30, 0x1c, 0x90, 0x3c, 0x44, 0x24, 0x80, 
	0x3c, 0x30, 0x1c, 0x90, 0x3a, 0x40, 0x24, 0x80, 
	0x2c, 0x30, 0x00, 0x80, 0x3a, 0x30, 0x1c, 0x90, 
	0x2c, 0x4c, 0x00, 0x90, 0x3c, 0x41, 0x24, 0x80, 
	0x3c, 0x30, 0x1c, 0x90, 0x3f, 0x46, 0x24, 0x80, 
	0x3f, 0x30, 0x1c, 0x90, 0x3c, 0x3e, 0x24, 0x80, 
	0x3c, 0x30, 0x1c, 0x90, 0x3f, 0x47, 0x24, 0x80, 
	0x2c, 0x30, 0x00, 0x80, 0x3f, 0x30, 0x1c, 0x90, 
	0x2e, 0x4e, 0x00, 0x90, 0x41, 0x40, 0x24, 0x80, 
	0x41, 0x30, 0x1c, 0x90, 0x3f, 0x39, 0x24, 0x80, 
	0x3f, 0x30, 0x1c, 0x90, 0x41, 0x45, 0x24, 0x80, 
	0x41, 0x30, 0x1c, 0x90, 0x43, 0x45, 0x24, 0x80, 
	0x2e, 0x30, 0x00, 0x80, 0x43, 0x30, 0x1c, 0x90, 
	0x2e, 0x4c, 0x00, 0x90, 0x48, 0x49, 0x24, 0x80, 
	0x48, 0x30, 0x1c, 0x90, 0x4b, 0x44, 0x24, 0x80, 
	0x4b, 0x30, 0x1c, 0x90, 0x48, 0x3b, 0x24, 0x80, 
	0x48, 0x30, 0x1c, 0x90, 0x4b, 0x47, 0x24, 0x80, 
	0x2e, 0x30, 0x00, 0x80, 0x4b, 0x30, 0x1c, 0x90, 
	0x30, 0x4e, 0x00, 0x90, 0x4f, 0x47, 0x64, 0x80, 
	0x4f, 0x30, 0x1c, 0x90, 0x4f, 0x43, 0x24, 0x80, 
	0x4f, 0x30, 0x1c, 0x90, 0x4f, 0x3f, 0x24, 0x80, 
	0x30, 0x30, 0x00, 0x80, 0x4f, 0x30, 0x1c, 0x90, 
	0x4f, 0x3e, 0x64, 0x80, 0x4f, 0x30, 0x1c, 0x90, 
	0x4d, 0x3f, 0x64, 0x80, 0x4d, 0x30, 0x1c, 0x90, 
	0x4b, 0x3e, 0x64, 0x80, 0x4b, 0x30, 0x1c, 0x90, 
	0x48, 0x3a, 0x64, 0x80, 0x48, 0x30, 0x1c, 0x90, 
	0x4b, 0x43, 0x64, 0x80, 0x4b, 0x30, 0x1c, 0x90, 
	0x4d, 0x48, 0x64, 0x80, 0x4d, 0x30, 0x1c, 0x90, 
	0x30, 0x45, 0x00, 0x90, 0x4f, 0x46, 0x64, 0x80, 
	0x4f, 0x30, 0x1c, 0x90, 0x4f, 0x42, 0x24, 0x80, 
	0x4f, 0x30, 0x1c, 0x90, 0x4f, 0x44, 0x24, 0x80, 
	0x30, 0x30, 0x00, 0x80, 0x4f, 0x30, 0x1c, 0x90, 
	0x4f, 0x43, 0x64, 0x80, 0x4f, 0x30, 0x1c, 0x90, 
	0x4d, 0x3b, 0x64, 0x80, 0x4d, 0x30, 0x1c, 0x90, 
	0x4b, 0x3d, 0x64, 0x80, 0x4b, 0x30, 0x1c, 0x90, 
	0x52, 0x4a, 0x64, 0x80, 0x52, 0x30, 0x1c, 0x90, 
	0x4f, 0x3f, 0x81, 0x64, 0x80, 0x4f, 0x30, 0x1c, 
	0x90, 0x30, 0x45, 0x00, 0x90, 0x4f, 0x47, 0x64, 
	0x80, 0x4f, 0x30, 0x1c, 0x90, 0x4f, 0x42, 0x24, 
	0x80, 0x4f, 0x30, 0x1c, 0x90, 0x4f, 0x3f, 0x24, 
	0x80, 0x30, 0x30, 0x00, 0x80, 0x4f, 0x30, 0x1c, 
	0x90, 0x4f, 0x3f, 0x64, 0x80, 0x4f, 0x30, 0x1c, 
	0x90, 0x4d, 0x45, 0x64, 0x80, 0x4d, 0x30, 0x1c, 
	0x90, 0x4b, 0x40, 0x64, 0x80, 0x4b, 0x30, 0x1c, 
	0x90, 0x48, 0x38, 0x64, 0x80, 0x48, 0x30, 0x1c, 
	0x90, 0x4b, 0x46, 0x64, 0x80, 0x4b, 0x30, 0x1c, 
	0x90, 0x4d, 0x47, 0x64, 0x80, 0x4d, 0x30, 0x1c, 
	0x90, 0x2c, 0x4a, 0x00, 0x90, 0x4d, 0x42, 0x24, 
	0x80, 0x4d, 0x30, 0x1c, 0x90, 0x4f, 0x49, 0x24, 
	0x80, 0x4f, 0x30, 0x1c, 0x90, 0x4d, 0x3d, 0x24, 
	0x80, 0x4d, 0x30, 0x1c, 0x90, 0x4b, 0x3f, 0x24, 
	0x80, 0x4b, 0x30, 0x1c, 0x90, 0x48, 0x3f, 0x24, 
	0x80, 0x48, 0x30, 0x1c, 0x90, 0x4b, 0x45, 0x24, 
	0x80, 0x4b, 0x30, 0x1c, 0x90, 0x4d, 0x49, 0x24, 
	0x80, 0x4d, 0x30, 0x1c, 0x90, 0x4f, 0x47, 0x24, 
	0x80, 0x4f, 0x30, 0x1c, 0x90, 0x52, 0x46, 0x24, 
	0x80, 0x52, 0x30, 0x1c, 0x90, 0x4f, 0x3c, 0x24, 
	0x80, 0x4f, 0x30, 0x1c, 0x90, 0x4d, 0x3c, 0x24, 
	0x80, 0x4d, 0x30, 0x1c, 0x90, 0x4f, 0x43, 0x24, 
	0x80, 0x4f, 0x30, 0x1c, 0x90, 0x5b, 0x58, 0x81, 
	0x64, 0x80, 0x2c, 0x30, 0x00, 0x80, 0x5b, 0x30, 
	0x1c, 0x90, 0x30, 0x4d, 0x00, 0x90, 0x4f, 0x31, 
	0x64, 0x80, 0x4f, 0x30, 0x1c, 0x90, 0x4f, 0x40, 
	0x24, 0x80, 0x4f, 0x30, 0x1c, 0x90, 0x4f, 0x3f, 
	0x24, 0x80, 0x30, 0x30, 0x00, 0x80, 0x4f, 0x30, 
	0x1c, 0x90, 0x4f, 0x3e, 0x64, 0x80, 0x4f, 0x30, 
	0x1c, 0x90, 0x4d, 0x38, 0x64, 0x80, 0x4d, 0x30, 
	0x1c, 0x90, 0x4b, 0x40, 0x64, 0x80, 0x4b, 0x30, 
	0x1c, 0x90, 0x48, 0x3c, 0x64, 0x80, 0x48, 0x30, 
	0x1c, 0x90, 0x4b, 0x47, 0x64, 0x80, 0x4b, 0x30, 
	0x1c, 0x90, 0x4d, 0x44, 0x64, 0x80, 0x4d, 0x30, 
	0x1c, 0x90, 0x30, 0x47, 0x00, 0x90, 0x4f, 0x43, 
	0x64, 0x80, 0x4f, 0x30, 0x1c, 0x90, 0x4f, 0x43, 
	0x24, 0x80, 0x4f, 0x30, 0x1c, 0x90, 0x4f, 0x3f, 
	0x24, 0x80, 0x30, 0x30, 0x00, 0x80, 0x4f, 0x30, 
	0x1c, 0x90, 0x4f, 0x40, 0x64, 0x80, 0x4f, 0x30, 
	0x1c, 0x90, 0x4d, 0x3a, 0x64, 0x80, 0x4d, 0x30, 
	0x1c, 0x90, 0x4b, 0x3c, 0x64, 0x80, 0x4b, 0x30, 
	0x1c, 0x90, 0x52, 0x4a, 0x64, 0x80, 0x52, 0x30, 
	0x1c, 0x90, 0x4f, 0x43, 0x81, 0x64, 0x80, 0x4f, 
	0x30, 0x1c, 0x90, 0x30, 0x44, 0x00, 0x90, 0x4f, 
	0x3f, 0x64, 0x80, 0x4f, 0x30, 0x1c, 0x90, 0x4f, 
	0x42, 0x24, 0x80, 0x4f, 0x30, 0x1c, 0x90, 0x4f, 
	0x43, 0x24, 0x80, 0x30, 0x30, 0x00, 0x80, 0x4f, 
	0x30, 0x1c, 0x90, 0x4f, 0x3e, 0x64, 0x80, 0x4f, 
	0x30, 0x1c, 0x90, 0x4d, 0x3c, 0x64, 0x80, 0x4d, 
	0x30, 0x1c, 0x90, 0x4b, 0x3d, 0x64, 0x80, 0x4b, 
	0x30, 0x1c, 0x90, 0x48, 0x39, 0x64, 0x80, 0x48, 
	0x30, 0x1c, 0x90, 0x4b, 0x47, 0x64, 0x80, 0x4b, 
	0x30, 0x1c, 0x90, 0x4d, 0x47, 0x64, 0x80, 0x4d, 
	0x30, 0x1c, 0x90, 0x2c, 0x46, 0x00, 0x90, 0x4f, 
	0x47, 0x24, 0x80, 0x4f, 0x30, 0x1c, 0x90, 0x4d, 
	0x3c, 0x24, 0x80, 0x4d, 0x30, 0x1c, 0x90, 0x4b, 
	0x3c, 0x24, 0x80, 0x4b, 0x30, 0x1c, 0x90, 0x48, 
	0x3c, 0x24, 0x80, 0x48, 0x30, 0x1c, 0x90, 0x4b, 
	0x47, 0x24, 0x80, 0x4b, 0x30, 0x1c, 0x90, 0x4d, 
	0x44, 0x24, 0x80, 0x4d, 0x30, 0x1c, 0x90, 0x4f, 
	0x41, 0x24, 0x80, 0x4f, 0x30, 0x1c, 0x90, 0x4d, 
	0x38, 0x24, 0x80, 0x4d, 0x30, 0x1c, 0x90, 0x48, 
	0x44, 0x64, 0x80, 0x48, 0x30, 0x1c, 0x90, 0x4b, 
	0x54, 0x64, 0x80, 0x4b, 0x30, 0x1c, 0x90, 0x4d, 
	0x58, 0x64, 0x80, 0x4d, 0x30, 0x1c, 0x90, 0x4f, 
	0x52, 0x64, 0x80, 0x2c, 0x30, 0x00, 0x80, 0x4f, 
	0x30, 0x1c, 0x90, 0x2b, 0x49, 0x00, 0x90, 0x4f, 
	0x45, 0x24, 0x80, 0x4f, 0x30, 0x1c, 0x90, 0x4d, 
	0x3e, 0x24, 0x80, 0x4d, 0x30, 0x1c, 0x90, 0x4b, 
	0x3d, 0x24, 0x80, 0x4b, 0x30, 0x1c, 0x90, 0x48, 
	0x37, 0x24, 0x80, 0x48, 0x30, 0x1c, 0x90, 0x4b, 
	0x41, 0x24, 0x80, 0x4b, 0x30, 0x1c, 0x90, 0x4d, 
	0x46, 0x24, 0x80, 0x4d, 0x30, 0x1c, 0x90, 0x4b, 
	0x39, 0x24, 0x80, 0x4b, 0x30, 0x1c, 0x90, 0x48, 
	0x3b, 0x24, 0x80, 0x48, 0x30, 0x1c, 0x90, 0x4f, 
	0x58, 0x64, 0x80, 0x4f, 0x30, 0x1c, 0x90, 0x4d, 
	0x46, 0x64, 0x80, 0x4d, 0x30, 0x1c, 0x90, 0x4b, 
	0x43, 0x64, 0x80, 0x4b, 0x30, 0x1c, 0x90, 0x48, 
	0x48, 0x64, 0x80, 0x2b, 0x30, 0x00, 0x80, 0x48, 
	0x30, 0x1c, 0x90, 0x2b, 0x4e, 0x64, 0x80, 0x2b, 
	0x30, 0x87, 0x1c, 0x90, 0x30, 0x45, 0x00, 0x90, 
	0x3f, 0x2d, 0x24, 0x80, 0x3f, 0x30, 0x1c, 0x90, 
	0x3e, 0x3c, 0x24, 0x80, 0x3e, 0x30, 0x1c, 0x90, 
	0x3c, 0x3a, 0x24, 0x80, 0x3c, 0x30, 0x1c, 0x90, 
	0x3e, 0x44, 0x24, 0x80, 0x30, 0x30, 0x00, 0x80, 
	0x3e, 0x30, 0x1c, 0x90, 0x30, 0x51, 0x00, 0x90, 
	0x3c, 0x3f, 0x24, 0x80, 0x3c, 0x30, 0x1c, 0x90, 
	0x38, 0x39, 0x24, 0x80, 0x38, 0x30, 0x1c, 0x90, 
	0x37, 0x40, 0x24, 0x80, 0x37, 0x30, 0x1c, 0x90, 
	0x38, 0x43, 0x24, 0x80, 0x30, 0x30, 0x00, 0x80, 
	0x38, 0x30, 0x1c, 0x90, 0x30, 0x50, 0x00, 0x90, 
	0x3c, 0x44, 0x24, 0x80, 0x3c, 0x30, 0x1c, 0x90, 
	0x3e, 0x49, 0x24, 0x80, 0x3e, 0x30, 0x1c, 0x90, 
	0x3f, 0x49, 0x24, 0x80, 0x3f, 0x30, 0x1c, 0x90, 
	0x41, 0x47, 0x24, 0x80, 0x30, 0x30, 0x00, 0x80, 
	0x41, 0x30, 0x1c, 0x90, 0x30, 0x45, 0x00, 0x90, 
	0x43, 0x43, 0x24, 0x80, 0x43, 0x30, 0x1c, 0x90, 
	0x41, 0x3d, 0x24, 0x80, 0x41, 0x30, 0x1c, 0x90, 
	0x43, 0x42, 0x24, 0x80, 0x43, 0x30, 0x1c, 0x90, 
	0x44, 0x46, 0x24, 0x80, 0x30, 0x30, 0x00, 0x80, 
	0x44, 0x30, 0x1c, 0x90, 0x30, 0x50, 0x00, 0x90, 
	0x43, 0x41, 0x24, 0x80, 0x43, 0x30, 0x1c, 0x90, 
	0x44, 0x45, 0x24, 0x80, 0x44, 0x30, 0x1c, 0x90, 
	0x48, 0x4a, 0x24, 0x80, 0x48, 0x30, 0x1c, 0x90, 
	0x46, 0x3a, 0x24, 0x80, 0x30, 0x30, 0x00, 0x80, 
	0x46, 0x30, 0x1c, 0x90, 0x30, 0x4a, 0x00, 0x90, 
	0x48, 0x44, 0x64, 0x80, 0x48, 0x30, 0x1c, 0x90, 
	0x4a, 0x42, 0x24, 0x80, 0x4a, 0x30, 0x1c, 0x90, 
	0x4b, 0x43, 0x24, 0x80, 0x30, 0x30, 0x00, 0x80, 
	0x4b, 0x30, 0x1c, 0x90, 0x30, 0x4b, 0x00, 0x90, 
	0x4a, 0x3f, 0x24, 0x80, 0x4a, 0x30, 0x1c, 0x90, 
	0x4b, 0x43, 0x24, 0x80, 0x4b, 0x30, 0x1c, 0x90, 
	0x4d, 0x41, 0x24, 0x80, 0x4d, 0x30, 0x1c, 0x90, 
	0x4b, 0x3e, 0x24, 0x80, 0x30, 0x30, 0x00, 0x80, 
	0x4b, 0x30, 0x1c, 0x90, 0x30, 0x4d, 0x00, 0x90, 
	0x4d, 0x44, 0x81, 0x64, 0x80, 0x4d, 0x30, 0x00, 
	0x80, 0x30, 0x30, 0x1c, 0x90, 0x2c, 0x47, 0x00, 
	0x90, 0x4d, 0x44, 0x24, 0x80, 0x4d, 0x30, 0x1c, 
	0x90, 0x4b, 0x3c, 0x24, 0x80, 0x4b, 0x30, 0x1c, 
	0x90, 0x4a, 0x3f, 0x24, 0x80, 0x4a, 0x30, 0x1c, 
	0x90, 0x48, 0x3f, 0x24, 0x80, 0x2c, 0x30, 0x00, 
	0x80, 0x48, 0x30, 0x1c, 0x90, 0x2c, 0x4b, 0x00, 
	0x90, 0x44, 0x3b, 0x24, 0x80, 0x44, 0x30, 0x1c, 
	0x90, 0x48, 0x4d, 0x24, 0x80, 0x48, 0x30, 0x1c, 
	0x90, 0x4a, 0x49, 0x24, 0x80, 0x4a, 0x30, 0x1c, 
	0x90, 0x4b, 0x45, 0x24, 0x80, 0x2c, 0x30, 0x00, 
	0x80, 0x4b, 0x30, 0x1c, 0x90, 0x2c, 0x51, 0x00, 
	0x90, 0x4d, 0x46, 0x24, 0x80, 0x4d, 0x30, 0x1c, 
	0x90, 0x4b, 0x3a, 0x24, 0x80, 0x4b, 0x30, 0x1c, 
	0x90, 0x4d, 0x44, 0x24, 0x80, 0x4d, 0x30, 0x1c, 
	0x90, 0x4f, 0x48, 0x24, 0x80, 0x2c, 0x30, 0x00, 
	0x80, 0x4f, 0x30, 0x1c, 0x90, 0x2c, 0x4b, 0x00, 
	0x90, 0x4d, 0x41, 0x24, 0x80, 0x4d, 0x30, 0x1c, 
	0x90, 0x4f, 0x46, 0x24, 0x80, 0x4f, 0x30, 0x1c, 
	0x90, 0x50, 0x47, 0x24, 0x80, 0x50, 0x30, 0x1c, 
	0x90, 0x4d, 0x3b, 0x24, 0x80, 0x2c, 0x30, 0x00, 
	0x80, 0x4d, 0x30, 0x1c, 0x90, 0x2c, 0x4a, 0x00, 
	0x90, 0x50, 0x4a, 0x24, 0x80, 0x50, 0x30, 0x1c, 
	0x90, 0x4f, 0x3b, 0x24, 0x80, 0x4f, 0x30, 0x1c, 
	0x90, 0x52, 0x48, 0x24, 0x80, 0x52, 0x30, 0x1c, 
	0x90, 0x4f, 0x3f, 0x24, 0x80, 0x2c, 0x30, 0x00, 
	0x80, 0x4f, 0x30, 0x1c, 0x90, 0x2c, 0x47, 0x00, 
	0x90, 0x4d, 0x3e, 0x24, 0x80, 0x4d, 0x30, 0x1c, 
	0x90, 0x4b, 0x41, 0x24, 0x80, 0x4b, 0x30, 0x1c, 
	0x90, 0x4a, 0x3f, 0x24, 0x80, 0x4a, 0x30, 0x1c, 
	0x90, 0x4b, 0x41, 0x24, 0x80, 0x2c, 0x30, 0x00, 
	0x80, 0x4b, 0x30, 0x1c, 0x90, 0x2c, 0x4f, 0x00, 
	0x90, 0x54, 0x4f, 0x81, 0x64, 0x80, 0x2c, 0x30, 
	0x1c, 0x90, 0x2c, 0x4e, 0x81, 0x64, 0x80, 0x54, 
	0x30, 0x00, 0x80, 0x2c, 0x30, 0x1c, 0x90, 0x2e, 
	0x50, 0x00, 0x90, 0x54, 0x40, 0x24, 0x80, 0x54, 
	0x30, 0x1c, 0x90, 0x52, 0x43, 0x24, 0x80, 0x52, 
	0x30, 0x1c, 0x90, 0x54, 0x45, 0x24, 0x80, 0x54, 
	0x30, 0x1c, 0x90, 0x50, 0x3a, 0x24, 0x80, 0x2e, 
	0x30, 0x00, 0x80, 0x50, 0x30, 0x1c, 0x90, 0x2e, 
	0x4d, 0x00, 0x90, 0x54, 0x45, 0x24, 0x80, 0x54, 
	0x30, 0x1c, 0x90, 0x4f, 0x37, 0x24, 0x80, 0x4f, 
	0x30, 0x1c, 0x90, 0x4d, 0x3c, 0x24, 0x80, 0x4d, 
	0x30, 0x1c, 0x90, 0x4b, 0x3f, 0x24, 0x80, 0x2e, 
	0x30, 0x00, 0x80, 0x4b, 0x30, 0x1c, 0x90, 0x2e, 
	0x4d, 0x00, 0x90, 0x4a, 0x39, 0x24, 0x80, 0x4a, 
	0x30, 0x1c, 0x90, 0x48, 0x3a, 0x24, 0x80, 0x48, 
	0x30, 0x1c, 0x90, 0x4a, 0x43, 0x24, 0x80, 0x4a, 
	0x30, 0x1c, 0x90, 0x4d, 0x45, 0x24, 0x80, 0x2e, 
	0x30, 0x00, 0x80, 0x4d, 0x30, 0x1c, 0x90, 0x2e, 
	0x4c, 0x00, 0x90, 0x4f, 0x48, 0x24, 0x80, 0x4f, 
	0x30, 0x1c, 0x90, 0x50, 0x44, 0x24, 0x80, 0x50, 
	0x30, 0x1c, 0x90, 0x52, 0x44, 0x64, 0x80, 0x2e, 
	0x30, 0x00, 0x80, 0x52, 0x30, 0x1c, 0x90, 0x2e, 
	0x4a, 0x00, 0x90, 0x52, 0x40, 0x24, 0x80, 0x52, 
	0x30, 0x1c, 0x90, 0x50, 0x3f, 0x24, 0x80, 0x50, 
	0x30, 0x1c, 0x90, 0x52, 0x43, 0x24, 0x80, 0x52, 
	0x30, 0x1c, 0x90, 0x4f, 0x35, 0x24, 0x80, 0x2e, 
	0x30, 0x00, 0x80, 0x4f, 0x30, 0x1c, 0x90, 0x2e, 
	0x4d, 0x00, 0x90, 0x52, 0x43, 0x24, 0x80, 0x52, 
	0x30, 0x1c, 0x90, 0x4d, 0x3b, 0x24, 0x80, 0x4d, 
	0x30, 0x1c, 0x90, 0x4b, 0x39, 0x24, 0x80, 0x4b, 
	0x30, 0x1c, 0x90, 0x4a, 0x36, 0x24, 0x80, 0x2e, 
	0x30, 0x00, 0x80, 0x4a, 0x30, 0x1c, 0x90, 0x2e, 
	0x50, 0x00, 0x90, 0x48, 0x39, 0x24, 0x80, 0x48, 
	0x30, 0x1c, 0x90, 0x4a, 0x3d, 0x24, 0x80, 0x4a, 
	0x30, 0x1c, 0x90, 0x4b, 0x48, 0x24, 0x80, 0x4b, 
	0x30, 0x1c, 0x90, 0x4d, 0x45, 0x24, 0x80, 0x2e, 
	0x30, 0x00, 0x80, 0x4d, 0x30, 0x1c, 0x90, 0x2e, 
	0x4b, 0x00, 0x90, 0x50, 0x45, 0x81, 0x64, 0x80, 
	0x50, 0x30, 0x00, 0x80, 0x2e, 0x30, 0x1c, 0x90, 
	0x30, 0x4c, 0x00, 0x90, 0x48, 0x34, 0x24, 0x80, 
	0x48, 0x30, 0x1c, 0x90, 0x4b, 0x41, 0x24, 0x80, 
	0x4b, 0x30, 0x1c, 0x90, 0x4d, 0x49, 0x24, 0x80, 
	0x4d, 0x30, 0x1c, 0x90, 0x4b, 0x42, 0x24, 0x80, 
	0x30, 0x30, 0x00, 0x80, 0x4b, 0x30, 0x1c, 0x90, 
	0x30, 0x47, 0x00, 0x90, 0x4d, 0x49, 0x24, 0x80, 
	0x4d, 0x30, 0x1c, 0x90, 0x4f, 0x4a, 0x24, 0x80, 
	0x4f, 0x30, 0x1c, 0x90, 0x4d, 0x41, 0x24, 0x80, 
	0x4d, 0x30, 0x1c, 0x90, 0x4b, 0x40, 0x24, 0x80, 
	0x30, 0x30, 0x00, 0x80, 0x4b, 0x30, 0x1c, 0x90, 
	0x30, 0x4e, 0x00, 0x90, 0x4d, 0x43, 0x24, 0x80, 
	0x4d, 0x30, 0x1c, 0x90, 0x4b, 0x42, 0x24, 0x80, 
	0x4b, 0x30, 0x1c, 0x90, 0x4a, 0x3e, 0x24, 0x80, 
	0x4a, 0x30, 0x1c, 0x90, 0x4b, 0x42, 0x24, 0x80, 
	0x30, 0x30, 0x00, 0x80, 0x4b, 0x30, 0x1c, 0x90, 
	0x30, 0x4d, 0x00, 0x90, 0x4a, 0x41, 0x24, 0x80, 
	0x4a, 0x30, 0x1c, 0x90, 0x48, 0x40, 0x24, 0x80, 
	0x48, 0x30, 0x1c, 0x90, 0x46, 0x39, 0x24, 0x80, 
	0x46, 0x30, 0x1c, 0x90, 0x43, 0x39, 0x24, 0x80, 
	0x30, 0x30, 0x00, 0x80, 0x43, 0x30, 0x1c, 0x90, 
	0x30, 0x4d, 0x00, 0x90, 0x44, 0x42, 0x24, 0x80, 
	0x44, 0x30, 0x1c, 0x90, 0x46, 0x49, 0x24, 0x80, 
	0x46, 0x30, 0x1c, 0x90, 0x44, 0x42, 0x24, 0x80, 
	0x44, 0x30, 0x1c, 0x90, 0x43, 0x3d, 0x24, 0x80, 
	0x30, 0x30, 0x00, 0x80, 0x43, 0x30, 0x1c, 0x90, 
	0x30, 0x51, 0x00, 0x90, 0x41, 0x3d, 0x24, 0x80, 
	0x41, 0x30, 0x1c, 0x90, 0x3f, 0x39, 0x24, 0x80, 
	0x3f, 0x30, 0x1c, 0x90, 0x3e, 0x3c, 0x24, 0x80, 
	0x3e, 0x30, 0x1c, 0x90, 0x3c, 0x3d, 0x24, 0x80, 
	0x30, 0x30, 0x00, 0x80, 0x3c, 0x30, 0x1c, 0x90, 
	0x30, 0x4c, 0x00, 0x90, 0x3e, 0x42, 0x24, 0x80, 
	0x3e, 0x30, 0x1c, 0x90, 0x3f, 0x46, 0x24, 0x80, 
	0x3f, 0x30, 0x1c, 0x90, 0x41, 0x45, 0x24, 0x80, 
	0x41, 0x30, 0x1c, 0x90, 0x43, 0x48, 0x24, 0x80, 
	0x30, 0x30, 0x00, 0x80, 0x43, 0x30, 0x1c, 0x90, 
	0x30, 0x4f, 0x00, 0x90, 0x44, 0x46, 0x24, 0x80, 
	0x44, 0x30, 0x1c, 0x90, 0x46, 0x43, 0x24, 0x80, 
	0x46, 0x30, 0x1c, 0x90, 0x48, 0x40, 0x24, 0x80, 
	0x48, 0x30, 0x1c, 0x90, 0x4a, 0x45, 0x24, 0x80, 
	0x30, 0x30, 0x00, 0x80, 0x4a, 0x30, 0x1c, 0x90, 
	0x30, 0x4f, 0x00, 0x90, 0x54, 0x54, 0x81, 0x64, 
	0x80, 0x54, 0x30, 0x00, 0x80, 0x30, 0x30, 0x1c, 
	0x90, 0x30, 0x50, 0x00, 0x90, 0x52, 0x41, 0x64, 
	0x80, 0x52, 0x30, 0x1c, 0x90, 0x57, 0x48, 0x64, 
	0x80, 0x30, 0x30, 0x1c, 0x90, 0x30, 0x4e, 0x64, 
	0x80, 0x57, 0x30, 0x1c, 0x90, 0x52, 0x39, 0x64, 
	0x80, 0x30, 0x30, 0x00, 0x80, 0x52, 0x30, 0x1c, 
	0x90, 0x30, 0x4c, 0x00, 0x90, 0x54, 0x44, 0x64, 
	0x80, 0x54, 0x30, 0x1c, 0x90, 0x52, 0x3c, 0x64, 
	0x80, 0x30, 0x30, 0x00, 0x80, 0x52, 0x30, 0x1c, 
	0x90, 0x30, 0x4c, 0x00, 0x90, 0x54, 0x45, 0x64, 
	0x80, 0x54, 0x30, 0x1c, 0x90, 0x52, 0x3f, 0x64, 
	0x80, 0x30, 0x30, 0x00, 0x80, 0x52, 0x30, 0x1c, 
	0x90, 0x30, 0x49, 0x00, 0x90, 0x4f, 0x3c, 0x64, 
	0x80, 0x4f, 0x30, 0x1c, 0x90, 0x4d, 0x3c, 0x64, 
	0x80, 0x30, 0x30, 0x00, 0x80, 0x4d, 0x30, 0x1c, 
	0x90, 0x30, 0x4c, 0x00, 0x90, 0x48, 0x3a, 0x64, 
	0x80, 0x48, 0x30, 0x1c, 0x90, 0x46, 0x39, 0x64, 
	0x80, 0x30, 0x30, 0x00, 0x80, 0x46, 0x30, 0x1c, 
	0x90, 0x30, 0x4b, 0x00, 0x90, 0x4f, 0x4f, 0x81, 
	0x64, 0x80, 0x4f, 0x30, 0x00, 0x80, 0x30, 0x30, 
	0x1c, 0x90, 0x2c, 0x48, 0x00, 0x90, 0x56, 0x4a, 
	0x64, 0x80, 0x56, 0x30, 0x1c, 0x90, 0x56, 0x42, 
	0x64, 0x80, 0x2c, 0x30, 0x00, 0x80, 0x56, 0x30, 
	0x1c, 0x90, 0x2c, 0x4d, 0x00, 0x90, 0x52, 0x37, 
	0x64, 0x80, 0x52, 0x30, 0x1c, 0x90, 0x57, 0x47, 
	0x64, 0x80, 0x2c, 0x30, 0x00, 0x80, 0x57, 0x30, 
	0x1c, 0x90, 0x2c, 0x4b, 0x00, 0x90, 0x56, 0x44, 
	0x64, 0x80, 0x56, 0x30, 0x1c, 0x90, 0x54, 0x3d, 
	0x64, 0x80, 0x2c, 0x30, 0x00, 0x80, 0x54, 0x30, 
	0x1c, 0x90, 0x2c, 0x4b, 0x00, 0x90, 0x52, 0x3d, 
	0x81, 0x64, 0x80, 0x52, 0x30, 0x00, 0x80, 0x2c, 
	0x30, 0x1c, 0x90, 0x2c, 0x4e, 0x00, 0x90, 0x59, 
	0x50, 0x64, 0x80, 0x59, 0x30, 0x1c, 0x90, 0x59, 
	0x41, 0x64, 0x80, 0x2c, 0x30, 0x00, 0x80, 0x59, 
	0x30, 0x1c, 0x90, 0x2c, 0x51, 0x00, 0x90, 0x4d, 
	0x2f, 0x64, 0x80, 0x4d, 0x30, 0x1c, 0x90, 0x4f, 
	0x42, 0x64, 0x80, 0x2c, 0x30, 0x00, 0x80, 0x4f, 
	0x30, 0x1c, 0x90, 0x2c, 0x4e, 0x00, 0x90, 0x4d, 
	0x39, 0x81, 0x64, 0x80, 0x2c, 0x30, 0x1c, 0x90, 
	0x2c, 0x50, 0x81, 0x64, 0x80, 0x4d, 0x30, 0x00, 
	0x80, 0x2c, 0x30, 0x1c, 0x90, 0x2e, 0x54, 0x00, 
	0x90, 0x48, 0x39, 0x24, 0x80, 0x48, 0x30, 0x1c, 
	0x90, 0x4b, 0x43, 0x24, 0x80, 0x4b, 0x30, 0x1c, 
	0x90, 0x4f, 0x49, 0x24, 0x80, 0x4f, 0x30, 0x1c, 
	0x90, 0x54, 0x49, 0x24, 0x80, 0x2e, 0x30, 0x00, 
	0x80, 0x54, 0x30, 0x1c, 0x90, 0x2e, 0x4b, 0x00, 
	0x90, 0x57, 0x46, 0x24, 0x80, 0x57, 0x30, 0x1c, 
	0x90, 0x4f, 0x35, 0x24, 0x80, 0x4f, 0x30, 0x1c, 
	0x90, 0x54, 0x48, 0x64, 0x80, 0x2e, 0x30, 0x00, 
	0x80, 0x54, 0x30, 0x1c, 0x90, 0x2e, 0x4a, 0x00, 
	0x90, 0x57, 0x44, 0x24, 0x80, 0x57, 0x30, 0x1c, 
	0x90, 0x54, 0x3b, 0x24, 0x80, 0x54, 0x30, 0x1c, 
	0x90, 0x4f, 0x39, 0x24, 0x80, 0x4f, 0x30, 0x1c, 
	0x90, 0x54, 0x49, 0x24, 0x80, 0x2e, 0x30, 0x00, 
	0x80, 0x54, 0x30, 0x1c, 0x90, 0x2e, 0x4b, 0x00, 
	0x90, 0x57, 0x48, 0x24, 0x80, 0x57, 0x30, 0x1c, 
	0x90, 0x54, 0x3a, 0x24, 0x80, 0x54, 0x30, 0x1c, 
	0x90, 0x5b, 0x49, 0x24, 0x80, 0x5b, 0x30, 0x1c, 
	0x90, 0x57, 0x39, 0x24, 0x80, 0x2e, 0x30, 0x00, 
	0x80, 0x57, 0x30, 0x1c, 0x90, 0x2e, 0x4d, 0x00, 
	0x90, 0x48, 0x2f, 0x24, 0x80, 0x48, 0x30, 0x1c, 
	0x90, 0x4b, 0x44, 0x24, 0x80, 0x4b, 0x30, 0x1c, 
	0x90, 0x4f, 0x4c, 0x24, 0x80, 0x4f, 0x30, 0x1c, 
	0x90, 0x54, 0x4b, 0x24, 0x80, 0x2e, 0x30, 0x1c, 
	0x90, 0x2e, 0x51, 0x24, 0x80, 0x54, 0x30, 0x1c, 
	0x90, 0x57, 0x48, 0x24, 0x80, 0x57, 0x30, 0x1c, 
	0x90, 0x54, 0x40, 0x24, 0x80, 0x54, 0x30, 0x1c, 
	0x90, 0x57, 0x44, 0x24, 0x80, 0x2e, 0x30, 0x00, 
	0x80, 0x57, 0x30, 0x1c, 0x90, 0x2e, 0x4e, 0x00, 
	0x90, 0x54, 0x3d, 0x24, 0x80, 0x54, 0x30, 0x1c, 
	0x90, 0x48, 0x2e, 0x64, 0x80, 0x48, 0x30, 0x1c, 
	0x90, 0x57, 0x4d, 0x24, 0x80, 0x2e, 0x30, 0x00, 
	0x80, 0x57, 0x30, 0x1c, 0x90, 0x2e, 0x49, 0x00, 
	0x90, 0x54, 0x42, 0x81, 0x64, 0x80, 0x54, 0x30, 
	0x00, 0x80, 0x2e, 0x30, 0x1c, 0x90, 0x30, 0x51, 
	0x00, 0x90, 0x54, 0x3c, 0x24, 0x80, 0x54, 0x30, 
	0x1c, 0x90, 0x4f, 0x3d, 0x24, 0x80, 0x4f, 0x30, 
	0x1c, 0x90, 0x54, 0x49, 0x24, 0x80, 0x54, 0x30, 
	0x1c, 0x90, 0x4f, 0x3a, 0x24, 0x80, 0x4f, 0x30, 
	0x1c, 0x90, 0x54, 0x49, 0x24, 0x80, 0x54, 0x30, 
	0x1c, 0x90, 0x4f, 0x39, 0x24, 0x80, 0x4f, 0x30, 
	0x1c, 0x90, 0x4d, 0x3e, 0x24, 0x80, 0x4d, 0x30, 
	0x1c, 0x90, 0x4f, 0x4a, 0x24, 0x80, 0x4f, 0x30, 
	0x1c, 0x90, 0x54, 0x44, 0x24, 0x80, 0x54, 0x30, 
	0x1c, 0x90, 0x4f, 0x38, 0x24, 0x80, 0x4f, 0x30, 
	0x1c, 0x90, 0x54, 0x4d, 0x24, 0x80, 0x54, 0x30, 
	0x1c, 0x90, 0x4f, 0x3a, 0x24, 0x80, 0x4f, 0x30, 
	0x1c, 0x90, 0x54, 0x47, 0x24, 0x80, 0x54, 0x30, 
	0x1c, 0x90, 0x4f, 0x35, 0x24, 0x80, 0x4f, 0x30, 
	0x1c, 0x90, 0x4d, 0x41, 0x24, 0x80, 0x4d, 0x30, 
	0x1c, 0x90, 0x4f, 0x47, 0x24, 0x80, 0x30, 0x30, 
	0x00, 0x80, 0x4f, 0x30, 0x1c, 0x90, 0x30, 0x4b, 
	0x00, 0x90, 0x54, 0x4c, 0x24, 0x80, 0x54, 0x30, 
	0x1c, 0x90, 0x4f, 0x37, 0x24, 0x80, 0x4f, 0x30, 
	0x1c, 0x90, 0x54, 0x4a, 0x24, 0x80, 0x54, 0x30, 
	0x1c, 0x90, 0x4f, 0x39, 0x24, 0x80, 0x4f, 0x30, 
	0x1c, 0x90, 0x54, 0x49, 0x24, 0x80, 0x54, 0x30, 
	0x1c, 0x90, 0x4f, 0x3a, 0x24, 0x80, 0x4f, 0x30, 
	0x1c, 0x90, 0x4d, 0x38, 0x24, 0x80, 0x4d, 0x30, 
	0x1c, 0x90, 0x4f, 0x45, 0x24, 0x80, 0x4f, 0x30, 
	0x1c, 0x90, 0x54, 0x46, 0x83, 0x64, 0x80, 0x30, 
	0x30, 0x00, 0x80, 0x54, 0x30, 0x1c, 0x90, 0x2b, 
	0x43, 0x00, 0x90, 0x37, 0x35, 0x64, 0x80, 0x37, 
	0x30, 0x1c, 0x90, 0x38, 0x48, 0x24, 0x80, 0x38, 
	0x30, 0x1c, 0x90, 0x3a, 0x3f, 0x24, 0x80, 0x2b, 
	0x30, 0x00, 0x80, 0x3a, 0x30, 0x1c, 0x90, 0x2b, 
	0x53, 0x00, 0x90, 0x3c, 0x48, 0x24, 0x80, 0x3c, 
	0x30, 0x1c, 0x90, 0x3e, 0x46, 0x24, 0x80, 0x3e, 
	0x30, 0x1c, 0x90, 0x3f, 0x46, 0x24, 0x80, 0x3f, 
	0x30, 0x1c, 0x90, 0x41, 0x47, 0x24, 0x80, 0x2b, 
	0x30, 0x00, 0x80, 0x41, 0x30, 0x1c, 0x90, 0x2b, 
	0x4a, 0x00, 0x90, 0x43, 0x48, 0x24, 0x80, 0x43, 
	0x30, 0x1c, 0x90, 0x44, 0x44, 0x24, 0x80, 0x44, 
	0x30, 0x1c, 0x90, 0x46, 0x48, 0x24, 0x80, 0x46, 
	0x30, 0x1c, 0x90, 0x48, 0x4a, 0x24, 0x80, 0x2b, 
	0x30, 0x00, 0x80, 0x48, 0x30, 0x1c, 0x90, 0x2b, 
	0x4a, 0x00, 0x90, 0x4a, 0x45, 0x24, 0x80, 0x4a, 
	0x30, 0x1c, 0x90, 0x4b, 0x46, 0x24, 0x80, 0x4b, 
	0x30, 0x1c, 0x90, 0x4d, 0x45, 0x24, 0x80, 0x4d, 
	0x30, 0x1c, 0x90, 0x4f, 0x46, 0x24, 0x80, 0x2b, 
	0x30, 0x00, 0x80, 0x4f, 0x30, 0x1c, 0x90, 0x2b, 
	0x4e, 0x00, 0x90, 0x52, 0x4a, 0x64, 0x80, 0x52, 
	0x30, 0x00, 0x80, 0x2b, 0x30, 0x1c, 0x90, 0x2b, 
	0x4f, 0x00, 0x90, 0x52, 0x41, 0x64, 0x80, 0x2b, 
	0x30, 0x81, 0x00, 0x80, 0x52, 0x30, 0x1c, 0x90, 
	0x2b, 0x42, 0x00, 0x90, 0x54, 0x47, 0x64, 0x80, 
	0x54, 0x30, 0x00, 0x80, 0x2b, 0x30, 0x1c, 0x90, 
	0x2b, 0x4a, 0x00, 0x90, 0x52, 0x3a, 0x64, 0x80, 
	0x52, 0x30, 0x1c, 0x90, 0x4f, 0x39, 0x64, 0x80, 
	0x4f, 0x30, 0x1c, 0x90, 0x4b, 0x3a, 0x81, 0x64, 
	0x80, 0x2b, 0x30, 0x00, 0x80, 0x4b, 0x30, 0x1c, 
	0x90, 0x30, 0x4e, 0x00, 0x90, 0x54, 0x4c, 0x2a, 
	0x90, 0x4f, 0x3b, 0x14, 0x80, 0x54, 0x30, 0x17, 
	0x90, 0x4b, 0x38, 0x0f, 0x80, 0x30, 0x30, 0x04, 
	0x80, 0x4f, 0x30, 0x18, 0x90, 0x30, 0x4f, 0x00, 
	0x90, 0x54, 0x4b, 0x14, 0x80, 0x4b, 0x30, 0x16, 
	0x90, 0x4f, 0x39, 0x14, 0x80, 0x54, 0x30, 0x17, 
	0x90, 0x4b, 0x39, 0x0f, 0x80, 0x30, 0x30, 0x04, 
	0x80, 0x4f, 0x30, 0x18, 0x90, 0x54, 0x51, 0x14, 
	0x80, 0x4b, 0x30, 0x16, 0x90, 0x4f, 0x3a, 0x14, 
	0x80, 0x54, 0x30, 0x17, 0x90, 0x4b, 0x3c, 0x13, 
	0x80, 0x4f, 0x30, 0x18, 0x90, 0x54, 0x4d, 0x14, 
	0x80, 0x4b, 0x30, 0x16, 0x90, 0x4f, 0x3a, 0x14, 
	0x80, 0x54, 0x30, 0x17, 0x90, 0x4b, 0x3b, 0x13, 
	0x80, 0x4f, 0x30, 0x18, 0x90, 0x54, 0x4e, 0x14, 
	0x80, 0x4b, 0x30, 0x16, 0x90, 0x4f, 0x37, 0x14, 
	0x80, 0x54, 0x30, 0x17, 0x90, 0x4b, 0x37, 0x13, 
	0x80, 0x4f, 0x30, 0x18, 0x90, 0x54, 0x4b, 0x14, 
	0x80, 0x4b, 0x30, 0x16, 0x90, 0x4f, 0x3b, 0x14, 
	0x80, 0x54, 0x30, 0x17, 0x90, 0x4b, 0x36, 0x13, 
	0x80, 0x4f, 0x30, 0x18, 0x90, 0x54, 0x4b, 0x14, 
	0x80, 0x4b, 0x30, 0x16, 0x90, 0x4f, 0x3c, 0x14, 
	0x80, 0x54, 0x30, 0x17, 0x90, 0x4b, 0x3b, 0x13, 
	0x80, 0x4f, 0x30, 0x18, 0x90, 0x30, 0x45, 0x00, 
	0x90, 0x54, 0x50, 0x14, 0x80, 0x4b, 0x30, 0x16, 
	0x90, 0x4f, 0x3b, 0x14, 0x80, 0x54, 0x30, 0x17, 
	0x90, 0x4b, 0x35, 0x0f, 0x80, 0x30, 0x30, 0x04, 
	0x80, 0x4f, 0x30, 0x18, 0x90, 0x30, 0x4f, 0x00, 
	0x90, 0x54, 0x4d, 0x14, 0x80, 0x4b, 0x30, 0x50, 
	0x80, 0x54, 0x30, 0x00, 0x80, 0x30, 0x30, 0x1c, 
	0x90, 0x30, 0x4a, 0x00, 0x90, 0x54, 0x47, 0x64, 
	0x80, 0x54, 0x30, 0x00, 0x80, 0x30, 0x30, 0x1c, 
	0x90, 0x52, 0x40, 0x64, 0x80, 0x52, 0x30, 0x1c, 
	0x90, 0x4f, 0x3b, 0x64, 0x80, 0x4f, 0x30, 0x1c, 
	0x90, 0x52, 0x47, 0x64, 0x80, 0x52, 0x30, 0x1c, 
	0x90, 0x4f, 0x3a, 0x64, 0x80, 0x4f, 0x30, 0x1c, 
	0x90, 0x4d, 0x40, 0x64, 0x80, 0x4d, 0x30, 0x1c, 
	0x90, 0x4f, 0x48, 0x64, 0x80, 0x4f, 0x30, 0x1c, 
	0x90, 0x2c, 0x44, 0x00, 0x90, 0x54, 0x4d, 0x2a, 
	0x90, 0x4b, 0x35, 0x14, 0x80, 0x54, 0x30, 0x17, 
	0x90, 0x54, 0x4a, 0x13, 0x80, 0x4b, 0x30, 0x18, 
	0x90, 0x52, 0x3e, 0x14, 0x80, 0x54, 0x30, 0x16, 
	0x90, 0x4b, 0x33, 0x14, 0x80, 0x52, 0x30, 0x17, 
	0x90, 0x52, 0x49, 0x0f, 0x80, 0x2c, 0x30, 0x04, 
	0x80, 0x4b, 0x30, 0x18, 0x90, 0x2c, 0x4a, 0x00, 
	0x90, 0x54, 0x48, 0x14, 0x80, 0x52, 0x30, 0x16, 
	0x90, 0x4b, 0x35, 0x14, 0x80, 0x54, 0x30, 0x17, 
	0x90, 0x54, 0x4f, 0x13, 0x80, 0x4b, 0x30, 0x18, 
	0x90, 0x50, 0x3c, 0x14, 0x80, 0x54, 0x30, 0x16, 
	0x90, 0x4b, 0x39, 0x14, 0x80, 0x50, 0x30, 0x17, 
	0x90, 0x50, 0x4a, 0x0f, 0x80, 0x2c, 0x30, 0x04, 
	0x80, 0x4b, 0x30, 0x18, 0x90, 0x2c, 0x4b, 0x00, 
	0x90, 0x54, 0x4c, 0x14, 0x80, 0x50, 0x30, 0x16, 
	0x90, 0x4b, 0x36, 0x14, 0x80, 0x54, 0x30, 0x17, 
	0x90, 0x54, 0x4d, 0x13, 0x80, 0x4b, 0x30, 0x18, 
	0x90, 0x52, 0x45, 0x14, 0x80, 0x54, 0x30, 0x16, 
	0x90, 0x4b, 0x37, 0x14, 0x80, 0x52, 0x30, 0x17, 
	0x90, 0x52, 0x4e, 0x0f, 0x80, 0x2c, 0x30, 0x04, 
	0x80, 0x4b, 0x30, 0x18, 0x90, 0x2c, 0x47, 0x00, 
	0x90, 0x54, 0x44, 0x14, 0x80, 0x52, 0x30, 0x16, 
	0x90, 0x4b, 0x35, 0x14, 0x80, 0x54, 0x30, 0x17, 
	0x90, 0x54, 0x50, 0x13, 0x80, 0x4b, 0x30, 0x18, 
	0x90, 0x50, 0x3e, 0x14, 0x80, 0x54, 0x30, 0x16, 
	0x90, 0x4b, 0x35, 0x14, 0x80, 0x50, 0x30, 0x17, 
	0x90, 0x50, 0x45, 0x0f, 0x80, 0x2c, 0x30, 0x04, 
	0x80, 0x4b, 0x30, 0x18, 0x90, 0x2c, 0x4e, 0x00, 
	0x90, 0x54, 0x4c, 0x14, 0x80, 0x50, 0x30, 0x10, 
	0x80, 0x54, 0x30, 0x1c, 0x90, 0x50, 0x3b, 0x24, 
	0x80, 0x50, 0x30, 0x1c, 0x90, 0x4b, 0x36, 0x24, 
	0x80, 0x4b, 0x30, 0x1c, 0x90, 0x48, 0x3c, 0x24, 
	0x80, 0x2c, 0x30, 0x00, 0x80, 0x48, 0x30, 0x1c, 
	0x90, 0x2c, 0x4a, 0x00, 0x90, 0x44, 0x3a, 0x24, 
	0x80, 0x44, 0x30, 0x1c, 0x90, 0x48, 0x44, 0x24, 
	0x80, 0x48, 0x30, 0x1c, 0x90, 0x4b, 0x49, 0x24, 
	0x80, 0x4b, 0x30, 0x1c, 0x90, 0x50, 0x4b, 0x24, 
	0x80, 0x2c, 0x30, 0x00, 0x80, 0x50, 0x30, 0x1c, 
	0x90, 0x2c, 0x4d, 0x00, 0x90, 0x52, 0x48, 0x24, 
	0x80, 0x52, 0x30, 0x1c, 0x90, 0x50, 0x3d, 0x24, 
	0x80, 0x50, 0x30, 0x1c, 0x90, 0x52, 0x40, 0x24, 
	0x80, 0x52, 0x30, 0x1c, 0x90, 0x54, 0x47, 0x24, 
	0x80, 0x2c, 0x30, 0x00, 0x80, 0x54, 0x30, 0x1c, 
	0x90, 0x2c, 0x4f, 0x00, 0x90, 0x57, 0x4f, 0x64, 
	0x80, 0x57, 0x30, 0x1c, 0x90, 0x50, 0x36, 0x64, 
	0x80, 0x2c, 0x30, 0x00, 0x80, 0x50, 0x30, 0x1c, 
	0x90, 0x2e, 0x4f, 0x00, 0x90, 0x4d, 0x3e, 0x24, 
	0x80, 0x4d, 0x30, 0x1c, 0x90, 0x52, 0x4a, 0x24, 
	0x80, 0x52, 0x30, 0x1c, 0x90, 0x4d, 0x39, 0x24, 
	0x80, 0x4d, 0x30, 0x1c, 0x90, 0x52, 0x4b, 0x24, 
	0x80, 0x2e, 0x30, 0x00, 0x80, 0x52, 0x30, 0x1c, 
	0x90, 0x4d, 0x33, 0x24, 0x80, 0x4d, 0x30, 0x1c, 
	0x90, 0x56, 0x4d, 0x24, 0x80, 0x56, 0x30, 0x1c, 
	0x90, 0x4d, 0x32, 0x24, 0x80, 0x4d, 0x30, 0x1c, 
	0x90, 0x56, 0x4b, 0x24, 0x80, 0x56, 0x30, 0x1c, 
	0x90, 0x4d, 0x36, 0x24, 0x80, 0x4d, 0x30, 0x1c, 
	0x90, 0x56, 0x4e, 0x83, 0x24, 0x80, 0x56, 0x30, 
	0x1c, 0x90, 0x3e, 0x31, 0x24, 0x80, 0x3e, 0x30, 
	0x1c, 0x90, 0x3f, 0x40, 0x24, 0x80, 0x3f, 0x30, 
	0x1c, 0x90, 0x41, 0x43, 0x24, 0x80, 0x41, 0x30, 
	0x1c, 0x90, 0x43, 0x43, 0x24, 0x80, 0x43, 0x30, 
	0x1c, 0x90, 0x44, 0x43, 0x24, 0x80, 0x44, 0x30, 
	0x1c, 0x90, 0x46, 0x48, 0x24, 0x80, 0x46, 0x30, 
	0x1c, 0x90, 0x48, 0x48, 0x24, 0x80, 0x48, 0x30, 
	0x1c, 0x90, 0x4a, 0x47, 0x24, 0x80, 0x4a, 0x30, 
	0x1c, 0x90, 0x50, 0x49, 0x83, 0x64, 0x80, 0x50, 
	0x30, 0x1c, 0x90, 0x27, 0x43, 0x00, 0x90, 0x4f, 
	0x3f, 0x81, 0x64, 0x80, 0x27, 0x30, 0x1c, 0x90, 
	0x27, 0x4b, 0x81, 0x64, 0x80, 0x4f, 0x30, 0x00, 
	0x80, 0x27, 0x30, 0x1c, 0x90, 0x27, 0x50, 0x00, 
	0x90, 0x4f, 0x3f, 0x81, 0x64, 0x80, 0x27, 0x30, 
	0x1c, 0x90, 0x27, 0x4c, 0x64, 0x80, 0x4f, 0x30, 
	0x1c, 0x90, 0x4d, 0x3d, 0x24, 0x80, 0x4d, 0x30, 
	0x1c, 0x90, 0x4b, 0x3c, 0x24, 0x80, 0x27, 0x30, 
	0x00, 0x80, 0x4b, 0x30, 0x1c, 0x90, 0x2e, 0x56, 
	0x00, 0x90, 0x4d, 0x44, 0x64, 0x80, 0x4d, 0x30, 
	0x1c, 0x90, 0x4b, 0x3f, 0x64, 0x80, 0x2e, 0x30, 
	0x00, 0x80, 0x4b, 0x30, 0x1c, 0x90, 0x2e, 0x52, 
	0x00, 0x90, 0x48, 0x37, 0x64, 0x80, 0x48, 0x30, 
	0x1c, 0x90, 0x46, 0x3b, 0x64, 0x80, 0x2e, 0x30, 
	0x1c, 0x90, 0x2e, 0x47, 0x81, 0x64, 0x80, 0x2e, 
	0x30, 0x1c, 0x90, 0x2e, 0x4a, 0x64, 0x80, 0x46, 
	0x30, 0x1c, 0x90, 0x41, 0x38, 0x24, 0x80, 0x41, 
	0x30, 0x1c, 0x90, 0x43, 0x44, 0x24, 0x80, 0x2e, 
	0x30, 0x00, 0x80, 0x43, 0x30, 0x1c, 0x90, 0x2c, 
	0x4e, 0x00, 0x90, 0x46, 0x48, 0x64, 0x80, 0x46, 
	0x30, 0x1c, 0x90, 0x43, 0x3b, 0x64, 0x80, 0x2c, 
	0x30, 0x00, 0x80, 0x43, 0x30, 0x1c, 0x90, 0x2c, 
	0x49, 0x00, 0x90, 0x43, 0x44, 0x64, 0x80, 0x43, 
	0x30, 0x1c, 0x90, 0x41, 0x3e, 0x64, 0x80, 0x2c, 
	0x30, 0x00, 0x80, 0x41, 0x30, 0x1c, 0x90, 0x2c, 
	0x4a, 0x00, 0x90, 0x3f, 0x40, 0x64, 0x80, 0x3f, 
	0x30, 0x1c, 0x90, 0x41, 0x49, 0x64, 0x80, 0x2c, 
	0x30, 0x00, 0x80, 0x41, 0x30, 0x1c, 0x90, 0x2c, 
	0x4b, 0x00, 0x90, 0x43, 0x41, 0x64, 0x80, 0x43, 
	0x30, 0x1c, 0x90, 0x46, 0x4b, 0x64, 0x80, 0x2c, 
	0x30, 0x00, 0x80, 0x46, 0x30, 0x1c, 0x90, 0x2c, 
	0x4a, 0x00, 0x90, 0x48, 0x45, 0x64, 0x80, 0x48, 
	0x30, 0x1c, 0x90, 0x4b, 0x47, 0x64, 0x80, 0x2c, 
	0x30, 0x00, 0x80, 0x4b, 0x30, 0x1c, 0x90, 0x2c, 
	0x49, 0x00, 0x90, 0x4d, 0x47, 0x64, 0x80, 0x4d, 
	0x30, 0x1c, 0x90, 0x46, 0x32, 0x64, 0x80, 0x2c, 
	0x30, 0x00, 0x80, 0x46, 0x30, 0x1c, 0x90, 0x2c, 
	0x4c, 0x00, 0x90, 0x57, 0x4d, 0x81, 0x64, 0x80, 
	0x2c, 0x30, 0x1c, 0x90, 0x2c, 0x4a, 0x81, 0x64, 
	0x80, 0x57, 0x30, 0x00, 0x80, 0x2c, 0x30, 0x1c, 
	0x90, 0x30, 0x52, 0x81, 0x64, 0x80, 0x30, 0x30, 
	0x1c, 0x90, 0x30, 0x4b, 0x00, 0x90, 0x4f, 0x35, 
	0x81, 0x64, 0x80, 0x4f, 0x30, 0x00, 0x80, 0x30, 
	0x30, 0x1c, 0x90, 0x30, 0x50, 0x00, 0x90, 0x50, 
	0x46, 0x81, 0x64, 0x80, 0x50, 0x30, 0x00, 0x80, 
	0x30, 0x30, 0x1c, 0x90, 0x30, 0x4d, 0x00, 0x90, 
	0x52, 0x43, 0x64, 0x80, 0x52, 0x30, 0x1c, 0x90, 
	0x50, 0x3a, 0x64, 0x80, 0x30, 0x30, 0x00, 0x80, 
	0x50, 0x30, 0x1c, 0x90, 0x2e, 0x50, 0x00, 0x90, 
	0x54, 0x49, 0x64, 0x80, 0x54, 0x30, 0x1c, 0x90, 
	0x52, 0x37, 0x64, 0x80, 0x2e, 0x30, 0x1c, 0x90, 
	0x2e, 0x4c, 0x64, 0x80, 0x52, 0x30, 0x1c, 0x90, 
	0x52, 0x40, 0x64, 0x80, 0x2e, 0x30, 0x1c, 0x90, 
	0x2e, 0x53, 0x64, 0x80, 0x52, 0x30, 0x1c, 0x90, 
	0x50, 0x3d, 0x64, 0x80, 0x2e, 0x30, 0x1c, 0x90, 
	0x2e, 0x4f, 0x64, 0x80, 0x50, 0x30, 0x1c, 0x90, 
	0x4f, 0x3d, 0x64, 0x80, 0x2e, 0x30, 0x00, 0x80, 
	0x4f, 0x30, 0x1c, 0x90, 0x2c, 0x49, 0x00, 0x90, 
	0x50, 0x44, 0x64, 0x80, 0x50, 0x30, 0x1c, 0x90, 
	0x4f, 0x3d, 0x64, 0x80, 0x2c, 0x30, 0x00, 0x80, 
	0x4f, 0x30, 0x1c, 0x90, 0x2c, 0x4c, 0x00, 0x90, 
	0x4b, 0x39, 0x64, 0x80, 0x4b, 0x30, 0x1c, 0x90, 
	0x46, 0x37, 0x64, 0x80, 0x2c, 0x30, 0x00, 0x80, 
	0x46, 0x30, 0x1c, 0x90, 0x2c, 0x4a, 0x00, 0x90, 
	0x43, 0x38, 0x64, 0x80, 0x43, 0x30, 0x1c, 0x90, 
	0x46, 0x46, 0x64, 0x80, 0x2c, 0x30, 0x00, 0x80, 
	0x46, 0x30, 0x1c, 0x90, 0x2c, 0x4f, 0x00, 0x90, 
	0x4d, 0x4e, 0x64, 0x80, 0x4d, 0x30, 0x1c, 0x90, 
	0x4b, 0x3e, 0x64, 0x80, 0x2c, 0x30, 0x1c, 0x90, 
	0x2c, 0x4b, 0x81, 0x64, 0x80, 0x4b, 0x30, 0x00, 
	0x80, 0x2c, 0x30, 0x1c, 0x90, 0x2c, 0x4a, 0x00, 
	0x90, 0x4d, 0x45, 0x64, 0x80, 0x4d, 0x30, 0x1c, 
	0x90, 0x4b, 0x3d, 0x64, 0x80, 0x2c, 0x30, 0x00, 
	0x80, 0x4b, 0x30, 0x1c, 0x90, 0x2c, 0x4c, 0x00, 
	0x90, 0x4d, 0x44, 0x81, 0x24, 0x80, 0x4d, 0x30, 
	0x1c, 0x90, 0x4b, 0x3e, 0x24, 0x80, 0x2c, 0x30, 
	0x00, 0x80, 0x4b, 0x30, 0x1c, 0x90, 0x2c, 0x4e, 
	0x00, 0x90, 0x46, 0x39, 0x81, 0x64, 0x80, 0x46, 
	0x30, 0x00, 0x80, 0x2c, 0x30, 0x1c, 0x90, 0x30, 
	0x4e, 0x00, 0x90, 0x4b, 0x4c, 0x64, 0x80, 0x4b, 
	0x30, 0x1c, 0x90, 0x52, 0x4f, 0x64, 0x80, 0x30, 
	0x30, 0x00, 0x80, 0x52, 0x30, 0x1c, 0x90, 0x30, 
	0x4e, 0x00, 0x90, 0x4b, 0x37, 0x64, 0x80, 0x4b, 
	0x30, 0x1c, 0x90, 0x48, 0x37, 0x64, 0x80, 0x30, 
	0x30, 0x1c, 0x90, 0x30, 0x4e, 0x64, 0x80, 0x48, 
	0x30, 0x1c, 0x90, 0x4f, 0x4f, 0x64, 0x80, 0x30, 
	0x30, 0x00, 0x80, 0x4f, 0x30, 0x1c, 0x90, 0x30, 
	0x4c, 0x00, 0x90, 0x48, 0x35, 0x64, 0x80, 0x48, 
	0x30, 0x1c, 0x90, 0x46, 0x3a, 0x64, 0x80, 0x30, 
	0x30, 0x00, 0x80, 0x46, 0x30, 0x1c, 0x90, 0x2c, 
	0x43, 0x00, 0x90, 0x44, 0x3d, 0x64, 0x80, 0x44, 
	0x30, 0x1c, 0x90, 0x46, 0x46, 0x64, 0x80, 0x2c, 
	0x30, 0x00, 0x80, 0x46, 0x30, 0x1c, 0x90, 0x2c, 
	0x4e, 0x00, 0x90, 0x4b, 0x4c, 0x64, 0x80, 0x4b, 
	0x30, 0x1c, 0x90, 0x4d, 0x46, 0x64, 0x80, 0x2c, 
	0x30, 0x00, 0x80, 0x4d, 0x30, 0x1c, 0x90, 0x2c, 
	0x4a, 0x00, 0x90, 0x4f, 0x47, 0x24, 0x80, 0x4f, 
	0x30, 0x1c, 0x90, 0x4d, 0x3f, 0x24, 0x80, 0x4d, 
	0x30, 0x1c, 0x90, 0x4b, 0x3e, 0x24, 0x80, 0x4b, 
	0x30, 0x1c, 0x90, 0x4d, 0x43, 0x24, 0x80, 0x2c, 
	0x30, 0x00, 0x80, 0x4d, 0x30, 0x1c, 0x90, 0x2c, 
	0x4e, 0x00, 0x90, 0x52, 0x48, 0x81, 0x64, 0x80, 
	0x52, 0x30, 0x00, 0x80, 0x2c, 0x30, 0x1c, 0x90, 
	0x30, 0x4f, 0x00, 0x90, 0x5e, 0x58, 0x81, 0x64, 
	0x80, 0x5e, 0x30, 0x00, 0x80, 0x30, 0x30, 0x1c, 
	0x90, 0x30, 0x51, 0x00, 0x90, 0x59, 0x3d, 0x81, 
	0x64, 0x80, 0x59, 0x30, 0x00, 0x80, 0x30, 0x30, 
	0x1c, 0x90, 0x30, 0x49, 0x00, 0x90, 0x57, 0x3a, 
	0x81, 0x64, 0x80, 0x57, 0x30, 0x00, 0x80, 0x30, 
	0x30, 0x1c, 0x90, 0x30, 0x4d, 0x00, 0x90, 0x54, 
	0x3e, 0x81, 0x64, 0x80, 0x54, 0x30, 0x00, 0x80, 
	0x30, 0x30, 0x1c, 0x90, 0x27, 0x45, 0x00, 0x90, 
	0x4d, 0x30, 0x81, 0x64, 0x80, 0x27, 0x30, 0x1c, 
	0x90, 0x27, 0x4c, 0x64, 0x80, 0x4d, 0x30, 0x1c, 
	0x90, 0x4f, 0x40, 0x64, 0x80, 0x27, 0x30, 0x1c, 
	0x90, 0x27, 0x4e, 0x81, 0x64, 0x80, 0x27, 0x30, 
	0x1c, 0x90, 0x27, 0x52, 0x81, 0x64, 0x80, 0x4f, 
	0x30, 0x00, 0x80, 0x27, 0x30, 0x1c, 0x90, 0x29, 
	0x4e, 0x00, 0x90, 0x54, 0x4d, 0x24, 0x80, 0x54, 
	0x30, 0x1c, 0x90, 0x50, 0x3d, 0x24, 0x80, 0x50, 
	0x30, 0x1c, 0x90, 0x4f, 0x3c, 0x24, 0x80, 0x4f, 
	0x30, 0x1c, 0x90, 0x4b, 0x3b, 0x24, 0x80, 0x29, 
	0x30, 0x00, 0x80, 0x4b, 0x30, 0x1c, 0x90, 0x29, 
	0x4c, 0x00, 0x90, 0x4f, 0x46, 0x24, 0x80, 0x4f, 
	0x30, 0x1c, 0x90, 0x50, 0x45, 0x24, 0x80, 0x50, 
	0x30, 0x1c, 0x90, 0x54, 0x47, 0x24, 0x80, 0x54, 
	0x30, 0x1c, 0x90, 0x50, 0x38, 0x24, 0x80, 0x29, 
	0x30, 0x00, 0x80, 0x50, 0x30, 0x1c, 0x90, 0x29, 
	0x4d, 0x00, 0x90, 0x54, 0x4a, 0x24, 0x80, 0x54, 
	0x30, 0x1c, 0x90, 0x50, 0x3e, 0x24, 0x80, 0x50, 
	0x30, 0x1c, 0x90, 0x4f, 0x43, 0x24, 0x80, 0x4f, 
	0x30, 0x1c, 0x90, 0x4b, 0x38, 0x24, 0x80, 0x29, 
	0x30, 0x00, 0x80, 0x4b, 0x30, 0x1c, 0x90, 0x29, 
	0x50, 0x00, 0x90, 0x4f, 0x4b, 0x24, 0x80, 0x4f, 
	0x30, 0x1c, 0x90, 0x50, 0x46, 0x24, 0x80, 0x50, 
	0x30, 0x1c, 0x90, 0x54, 0x45, 0x24, 0x80, 0x54, 
	0x30, 0x1c, 0x90, 0x50, 0x38, 0x24, 0x80, 0x29, 
	0x30, 0x00, 0x80, 0x50, 0x30, 0x1c, 0x90, 0x29, 
	0x4f, 0x00, 0x90, 0x54, 0x48, 0x24, 0x80, 0x54, 
	0x30, 0x1c, 0x90, 0x50, 0x3e, 0x24, 0x80, 0x50, 
	0x30, 0x1c, 0x90, 0x4f, 0x3a, 0x24, 0x80, 0x4f, 
	0x30, 0x1c, 0x90, 0x4b, 0x3b, 0x24, 0x80, 0x29, 
	0x30, 0x00, 0x80, 0x4b, 0x30, 0x1c, 0x90, 0x29, 
	0x47, 0x00, 0x90, 0x4a, 0x3a, 0x24, 0x80, 0x4a, 
	0x30, 0x1c, 0x90, 0x48, 0x3f, 0x24, 0x80, 0x48, 
	0x30, 0x1c, 0x90, 0x46, 0x3b, 0x24, 0x80, 0x46, 
	0x30, 0x1c, 0x90, 0x44, 0x3f, 0x24, 0x80, 0x29, 
	0x30, 0x00, 0x80, 0x44, 0x30, 0x1c, 0x90, 0x29, 
	0x4a, 0x00, 0x90, 0x41, 0x3d, 0x24, 0x80, 0x41, 
	0x30, 0x1c, 0x90, 0x3f, 0x3c, 0x24, 0x80, 0x3f, 
	0x30, 0x1c, 0x90, 0x41, 0x46, 0x24, 0x80, 0x41, 
	0x30, 0x1c, 0x90, 0x44, 0x47, 0x24, 0x80, 0x29, 
	0x30, 0x00, 0x80, 0x44, 0x30, 0x1c, 0x90, 0x29, 
	0x49, 0x00, 0x90, 0x43, 0x3e, 0x64, 0x80, 0x43, 
	0x30, 0x1c, 0x90, 0x41, 0x3d, 0x64, 0x80, 0x29, 
	0x30, 0x00, 0x80, 0x41, 0x30, 0x1c, 0x90, 0x30, 
	0x51, 0x00, 0x90, 0x3f, 0x3e, 0x64, 0x80, 0x3f, 
	0x30, 0x1c, 0x90, 0x43, 0x48, 0x24, 0x80, 0x43, 
	0x30, 0x1c, 0x90, 0x46, 0x44, 0x24, 0x80, 0x30, 
	0x30, 0x00, 0x80, 0x46, 0x30, 0x1c, 0x90, 0x30, 
	0x4b, 0x00, 0x90, 0x4b, 0x4b, 0x24, 0x80, 0x4b, 
	0x30, 0x1c, 0x90, 0x52, 0x4f, 0x24, 0x80, 0x52, 
	0x30, 0x1c, 0x90, 0x50, 0x41, 0x24, 0x80, 0x50, 
	0x30, 0x1c, 0x90, 0x4f, 0x3e, 0x24, 0x80, 0x30, 
	0x30, 0x00, 0x80, 0x4f, 0x30, 0x1c, 0x90, 0x30, 
	0x4f, 0x00, 0x90, 0x4d, 0x3b, 0x24, 0x80, 0x4d, 
	0x30, 0x1c, 0x90, 0x4b, 0x3d, 0x24, 0x80, 0x4b, 
	0x30, 0x1c, 0x90, 0x4a, 0x3a, 0x24, 0x80, 0x4a, 
	0x30, 0x1c, 0x90, 0x48, 0x3c, 0x24, 0x80, 0x30, 
	0x30, 0x00, 0x80, 0x48, 0x30, 0x1c, 0x90, 0x30, 
	0x4d, 0x00, 0x90, 0x46, 0x38, 0x24, 0x80, 0x46, 
	0x30, 0x1c, 0x90, 0x44, 0x3a, 0x24, 0x80, 0x44, 
	0x30, 0x1c, 0x90, 0x43, 0x3e, 0x24, 0x80, 0x43, 
	0x30, 0x1c, 0x90, 0x41, 0x3a, 0x24, 0x80, 0x30, 
	0x30, 0x00, 0x80, 0x41, 0x30, 0x1c, 0x90, 0x2e, 
	0x4a, 0x00, 0x90, 0x3f, 0x3d, 0x24, 0x80, 0x3f, 
	0x30, 0x1c, 0x90, 0x41, 0x47, 0x24, 0x80, 0x41, 
	0x30, 0x1c, 0x90, 0x43, 0x45, 0x24, 0x80, 0x43, 
	0x30, 0x1c, 0x90, 0x44, 0x46, 0x24, 0x80, 0x2e, 
	0x30, 0x00, 0x80, 0x44, 0x30, 0x1c, 0x90, 0x2e, 
	0x4e, 0x00, 0x90, 0x46, 0x4a, 0x24, 0x80, 0x46, 
	0x30, 0x1c, 0x90, 0x48, 0x45, 0x24, 0x80, 0x48, 
	0x30, 0x1c, 0x90, 0x4a, 0x44, 0x24, 0x80, 0x4a, 
	0x30, 0x1c, 0x90, 0x4b, 0x46, 0x24, 0x80, 0x2e, 
	0x30, 0x00, 0x80, 0x4b, 0x30, 0x1c, 0x90, 0x2e, 
	0x4c, 0x00, 0x90, 0x4a, 0x3a, 0x24, 0x80, 0x4a, 
	0x30, 0x1c, 0x90, 0x48, 0x3b, 0x24, 0x80, 0x48, 
	0x30, 0x1c, 0x90, 0x46, 0x3f, 0x24, 0x80, 0x46, 
	0x30, 0x1c, 0x90, 0x44, 0x3e, 0x24, 0x80, 0x2e, 
	0x30, 0x00, 0x80, 0x44, 0x30, 0x1c, 0x90, 0x2e, 
	0x4b, 0x00, 0x90, 0x46, 0x44, 0x24, 0x80, 0x46, 
	0x30, 0x1c, 0x90, 0x48, 0x48, 0x24, 0x80, 0x48, 
	0x30, 0x1c, 0x90, 0x4a, 0x45, 0x24, 0x80, 0x4a, 
	0x30, 0x1c, 0x90, 0x4b, 0x46, 0x24, 0x80, 0x2e, 
	0x30, 0x1c, 0x90, 0x2c, 0x4d, 0x81, 0x64, 0x80, 
	0x2c, 0x30, 0x1c, 0x90, 0x2c, 0x4b, 0x64, 0x80, 
	0x4b, 0x30, 0x1c, 0x90, 0x4b, 0x41, 0x64, 0x80, 
	0x2c, 0x30, 0x1c, 0x90, 0x2c, 0x4f, 0x64, 0x80, 
	0x4b, 0x30, 0x1c, 0x90, 0x48, 0x3a, 0x64, 0x80, 
	0x2c, 0x30, 0x1c, 0x90, 0x2c, 0x4a, 0x64, 0x80, 
	0x48, 0x30, 0x1c, 0x90, 0x48, 0x3d, 0x64, 0x80, 
	0x2c, 0x30, 0x00, 0x80, 0x48, 0x30, 0x1c, 0x90, 
	0x2c, 0x48, 0x00, 0x90, 0x4b, 0x48, 0x64, 0x80, 
	0x4b, 0x30, 0x1c, 0x90, 0x4d, 0x48, 0x64, 0x80, 
	0x2c, 0x30, 0x1c, 0x90, 0x2c, 0x4f, 0x64, 0x80, 
	0x4d, 0x30, 0x1c, 0x90, 0x4f, 0x48, 0x64, 0x80, 
	0x2c, 0x30, 0x1c, 0x90, 0x2c, 0x47, 0x64, 0x80, 
	0x4f, 0x30, 0x1c, 0x90, 0x4b, 0x3b, 0x64, 0x80, 
	0x2c, 0x30, 0x1c, 0x90, 0x2c, 0x4d, 0x64, 0x80, 
	0x4b, 0x30, 0x1c, 0x90, 0x4a, 0x38, 0x64, 0x80, 
	0x2c, 0x30, 0x00, 0x80, 0x4a, 0x30, 0x1c, 0x90, 
	0x30, 0x54, 0x00, 0x90, 0x48, 0x3a, 0x24, 0x80, 
	0x48, 0x30, 0x1c, 0x90, 0x46, 0x3e, 0x24, 0x80, 
	0x46, 0x30, 0x1c, 0x90, 0x43, 0x3a, 0x24, 0x80, 
	0x43, 0x30, 0x1c, 0x90, 0x3f, 0x35, 0x24, 0x80, 
	0x30, 0x30, 0x00, 0x80, 0x3f, 0x30, 0x1c, 0x90, 
	0x30, 0x51, 0x00, 0x90, 0x41, 0x40, 0x24, 0x80, 
	0x41, 0x30, 0x1c, 0x90, 0x43, 0x45, 0x24, 0x80, 
	0x43, 0x30, 0x1c, 0x90, 0x41, 0x3c, 0x24, 0x80, 
	0x41, 0x30, 0x1c, 0x90, 0x3f, 0x37, 0x24, 0x80, 
	0x30, 0x30, 0x00, 0x80, 0x3f, 0x30, 0x1c, 0x90, 
	0x30, 0x4c, 0x00, 0x90, 0x41, 0x40, 0x81, 0x64, 
	0x80, 0x30, 0x30, 0x1c, 0x90, 0x30, 0x4d, 0x81, 
	0x64, 0x80, 0x41, 0x30, 0x00, 0x80, 0x30, 0x30, 
	0x1c, 0x90, 0x30, 0x4d, 0x00, 0x90, 0x41, 0x41, 
	0x64, 0x80, 0x41, 0x30, 0x1c, 0x90, 0x3f, 0x3c, 
	0x64, 0x80, 0x30, 0x30, 0x00, 0x80, 0x3f, 0x30, 
	0x1c, 0x90, 0x30, 0x4d, 0x00, 0x90, 0x43, 0x46, 
	0x64, 0x80, 0x43, 0x30, 0x1c, 0x90, 0x4b, 0x50, 
	0x64, 0x80, 0x30, 0x30, 0x1c, 0x90, 0x30, 0x4d, 
	0x81, 0x64, 0x80, 0x30, 0x30, 0x1c, 0x90, 0x30, 
	0x4f, 0x81, 0x64, 0x80, 0x4b, 0x30, 0x00, 0x80, 
	0x30, 0x30, 0x1c, 0x90, 0x2e, 0x47, 0x00, 0x90, 
	0x4f, 0x48, 0x64, 0x80, 0x4f, 0x30, 0x1c, 0x90, 
	0x4f, 0x41, 0x64, 0x80, 0x2e, 0x30, 0x00, 0x80, 
	0x4f, 0x30, 0x1c, 0x90, 0x2e, 0x4f, 0x00, 0x90, 
	0x4b, 0x3a, 0x64, 0x80, 0x4b, 0x30, 0x1c, 0x90, 
	0x4f, 0x44, 0x64, 0x80, 0x2e, 0x30, 0x00, 0x80, 
	0x4f, 0x30, 0x1c, 0x90, 0x2e, 0x50, 0x00, 0x90, 
	0x4f, 0x43, 0x64, 0x80, 0x4f, 0x30, 0x1c, 0x90, 
	0x4b, 0x40, 0x64, 0x80, 0x2e, 0x30, 0x00, 0x80, 
	0x4b, 0x30, 0x1c, 0x90, 0x2e, 0x4d, 0x00, 0x90, 
	0x4f, 0x40, 0x64, 0x80, 0x4f, 0x30, 0x1c, 0x90, 
	0x4b, 0x3e, 0x64, 0x80, 0x2e, 0x30, 0x00, 0x80, 
	0x4b, 0x30, 0x1c, 0x90, 0x2e, 0x4b, 0x00, 0x90, 
	0x4f, 0x46, 0x64, 0x80, 0x4f, 0x30, 0x1c, 0x90, 
	0x50, 0x46, 0x64, 0x80, 0x2e, 0x30, 0x00, 0x80, 
	0x50, 0x30, 0x1c, 0x90, 0x2e, 0x4c, 0x81, 0x00, 
	0x90, 0x4f, 0x3a, 0x64, 0x80, 0x2e, 0x30, 0x00, 
	0x80, 0x4f, 0x30, 0x1c, 0x90, 0x2e, 0x4a, 0x81, 
	0x00, 0x90, 0x4b, 0x3b, 0x64, 0x80, 0x2e, 0x30, 
	0x00, 0x80, 0x4b, 0x30, 0x1c, 0x90, 0x2e, 0x4e, 
	0x00, 0x90, 0x57, 0x51, 0x81, 0x64, 0x80, 0x57, 
	0x30, 0x00, 0x80, 0x2e, 0x30, 0x1c, 0x90, 0x2b, 
	0x48, 0x00, 0x90, 0x3c, 0x31, 0x24, 0x80, 0x3c, 
	0x30, 0x1c, 0x90, 0x3e, 0x3f, 0x24, 0x80, 0x3e, 
	0x30, 0x1c, 0x90, 0x3f, 0x45, 0x24, 0x80, 0x3f, 
	0x30, 0x1c, 0x90, 0x41, 0x45, 0x24, 0x80, 0x2b, 
	0x30, 0x00, 0x80, 0x41, 0x30, 0x1c, 0x90, 0x2b, 
	0x4b, 0x00, 0x90, 0x43, 0x49, 0x24, 0x80, 0x43, 
	0x30, 0x1c, 0x90, 0x3f, 0x3e, 0x24, 0x80, 0x3f, 
	0x30, 0x1c, 0x90, 0x41, 0x45, 0x24, 0x80, 0x41, 
	0x30, 0x1c, 0x90, 0x43, 0x45, 0x24, 0x80, 0x2b, 
	0x30, 0x00, 0x80, 0x43, 0x30, 0x1c, 0x90, 0x2b, 
	0x4b, 0x00, 0x90, 0x44, 0x41, 0x24, 0x80, 0x44, 
	0x30, 0x1c, 0x90, 0x41, 0x38, 0x24, 0x80, 0x41, 
	0x30, 0x1c, 0x90, 0x43, 0x43, 0x24, 0x80, 0x43, 
	0x30, 0x1c, 0x90, 0x44, 0x45, 0x24, 0x80, 0x2b, 
	0x30, 0x00, 0x80, 0x44, 0x30, 0x1c, 0x90, 0x2b, 
	0x4b, 0x00, 0x90, 0x46, 0x44, 0x24, 0x80, 0x46, 
	0x30, 0x1c, 0x90, 0x43, 0x3b, 0x24, 0x80, 0x43, 
	0x30, 0x1c, 0x90, 0x44, 0x46, 0x24, 0x80, 0x44, 
	0x30, 0x1c, 0x90, 0x46, 0x43, 0x24, 0x80, 0x2b, 
	0x30, 0x00, 0x80, 0x46, 0x30, 0x1c, 0x90, 0x2c, 
	0x50, 0x00, 0x90, 0x4b, 0x4c, 0x24, 0x80, 0x4b, 
	0x30, 0x1c, 0x90, 0x48, 0x41, 0x24, 0x80, 0x48, 
	0x30, 0x1c, 0x90, 0x4d, 0x47, 0x24, 0x80, 0x4d, 
	0x30, 0x1c, 0x90, 0x48, 0x3b, 0x24, 0x80, 0x2c, 
	0x30, 0x00, 0x80, 0x48, 0x30, 0x1c, 0x90, 0x2c, 
	0x4d, 0x00, 0x90, 0x4f, 0x4e, 0x24, 0x80, 0x4f, 
	0x30, 0x1c, 0x90, 0x4d, 0x41, 0x24, 0x80, 0x4d, 
	0x30, 0x1c, 0x90, 0x4b, 0x40, 0x24, 0x80, 0x4b, 
	0x30, 0x1c, 0x90, 0x48, 0x38, 0x24, 0x80, 0x2c, 
	0x30, 0x00, 0x80, 0x48, 0x30, 0x1c, 0x90, 0x2e, 
	0x52, 0x00, 0x90, 0x4d, 0x45, 0x24, 0x80, 0x4d, 
	0x30, 0x1c, 0x90, 0x4a, 0x3e, 0x24, 0x80, 0x4a, 
	0x30, 0x1c, 0x90, 0x4f, 0x4a, 0x24, 0x80, 0x4f, 
	0x30, 0x1c, 0x90, 0x4a, 0x36, 0x24, 0x80, 0x2e, 
	0x30, 0x00, 0x80, 0x4a, 0x30, 0x1c, 0x90, 0x2e, 
	0x4c, 0x00, 0x90, 0x52, 0x4a, 0x24, 0x80, 0x52, 
	0x30, 0x1c, 0x90, 0x4f, 0x40, 0x24, 0x80, 0x4f, 
	0x30, 0x1c, 0x90, 0x4b, 0x3c, 0x24, 0x80, 0x4b, 
	0x30, 0x1c, 0x90, 0x48, 0x3a, 0x24, 0x80, 0x2e, 
	0x30, 0x00, 0x80, 0x48, 0x30, 0x1c, 0x90, 0x2c, 
	0x4a, 0x00, 0x90, 0x4b, 0x40, 0x64, 0x80, 0x4b, 
	0x30, 0x1c, 0x90, 0x48, 0x37, 0x64, 0x80, 0x2c, 
	0x30, 0x00, 0x80, 0x48, 0x30, 0x1c, 0x90, 0x2c, 
	0x4a, 0x00, 0x90, 0x4d, 0x49, 0x64, 0x80, 0x4d, 
	0x30, 0x1c, 0x90, 0x48, 0x37, 0x64, 0x80, 0x2c, 
	0x30, 0x00, 0x80, 0x48, 0x30, 0x1c, 0x90, 0x2c, 
	0x47, 0x00, 0x90, 0x4f, 0x4c, 0x64, 0x80, 0x4f, 
	0x30, 0x1c, 0x90, 0x48, 0x38, 0x64, 0x80, 0x2c, 
	0x30, 0x00, 0x80, 0x48, 0x30, 0x1c, 0x90, 0x2c, 
	0x4f, 0x00, 0x90, 0x4d, 0x4a, 0x64, 0x80, 0x4d, 
	0x30, 0x1c, 0x90, 0x48, 0x3a, 0x64, 0x80, 0x2c, 
	0x30, 0x00, 0x80, 0x48, 0x30, 0x1c, 0x90, 0x2c, 
	0x4c, 0x00, 0x90, 0x50, 0x4e, 0x2a, 0x90, 0x4b, 
	0x3e, 0x14, 0x80, 0x50, 0x30, 0x17, 0x90, 0x48, 
	0x3c, 0x13, 0x80, 0x4b, 0x30, 0x18, 0x90, 0x50, 
	0x50, 0x14, 0x80, 0x48, 0x30, 0x16, 0x90, 0x4b, 
	0x38, 0x14, 0x80, 0x50, 0x30, 0x17, 0x90, 0x48, 
	0x39, 0x0f, 0x80, 0x2c, 0x30, 0x04, 0x80, 0x4b, 
	0x30, 0x18, 0x90, 0x2c, 0x4e, 0x00, 0x90, 0x50, 
	0x4f, 0x14, 0x80, 0x48, 0x30, 0x16, 0x90, 0x4b, 
	0x3a, 0x14, 0x80, 0x50, 0x30, 0x17, 0x90, 0x48, 
	0x3a, 0x13, 0x80, 0x4b, 0x30, 0x18, 0x90, 0x50, 
	0x4a, 0x14, 0x80, 0x48, 0x30, 0x16, 0x90, 0x4b, 
	0x3b, 0x14, 0x80, 0x50, 0x30, 0x17, 0x90, 0x48, 
	0x3a, 0x0f, 0x80, 0x2c, 0x30, 0x04, 0x80, 0x4b, 
	0x30, 0x18, 0x90, 0x2c, 0x4f, 0x00, 0x90, 0x50, 
	0x4d, 0x14, 0x80, 0x48, 0x30, 0x16, 0x90, 0x4b, 
	0x3b, 0x14, 0x80, 0x50, 0x30, 0x17, 0x90, 0x48, 
	0x3a, 0x13, 0x80, 0x4b, 0x30, 0x18, 0x90, 0x50, 
	0x44, 0x14, 0x80, 0x48, 0x30, 0x16, 0x90, 0x4b, 
	0x3c, 0x14, 0x80, 0x50, 0x30, 0x17, 0x90, 0x48, 
	0x3a, 0x0f, 0x80, 0x2c, 0x30, 0x04, 0x80, 0x4b, 
	0x30, 0x18, 0x90, 0x2c, 0x4f, 0x00, 0x90, 0x50, 
	0x4b, 0x14, 0x80, 0x48, 0x30, 0x16, 0x90, 0x4b, 
	0x3f, 0x14, 0x80, 0x50, 0x30, 0x17, 0x90, 0x48, 
	0x3c, 0x13, 0x80, 0x4b, 0x30, 0x18, 0x90, 0x50, 
	0x4e, 0x14, 0x80, 0x48, 0x30, 0x16, 0x90, 0x4b, 
	0x3e, 0x14, 0x80, 0x50, 0x30, 0x17, 0x90, 0x48, 
	0x3a, 0x0f, 0x80, 0x2c, 0x30, 0x04, 0x80, 0x4b, 
	0x30, 0x18, 0x90, 0x30, 0x50, 0x00, 0x90, 0x48, 
	0x42, 0x14, 0x80, 0x48, 0x30, 0x10, 0x80, 0x48, 
	0x30, 0x1c, 0x90, 0x46, 0x38, 0x24, 0x80, 0x46, 
	0x30, 0x1c, 0x90, 0x48, 0x45, 0x24, 0x80, 0x48, 
	0x30, 0x1c, 0x90, 0x4b, 0x45, 0x24, 0x80, 0x30, 
	0x30, 0x00, 0x80, 0x4b, 0x30, 0x1c, 0x90, 0x30, 
	0x4e, 0x00, 0x90, 0x4d, 0x45, 0x24, 0x80, 0x4d, 
	0x30, 0x1c, 0x90, 0x4f, 0x42, 0x24, 0x80, 0x4f, 
	0x30, 0x1c, 0x90, 0x4d, 0x3b, 0x24, 0x80, 0x4d, 
	0x30, 0x1c, 0x90, 0x4b, 0x3b, 0x24, 0x80, 0x30, 
	0x30, 0x00, 0x80, 0x4b, 0x30, 0x1c, 0x90, 0x30, 
	0x52, 0x00, 0x90, 0x4d, 0x47, 0x24, 0x80, 0x4d, 
	0x30, 0x1c, 0x90, 0x4b, 0x40, 0x24, 0x80, 0x4b, 
	0x30, 0x1c, 0x90, 0x48, 0x3c, 0x24, 0x80, 0x48, 
	0x30, 0x1c, 0x90, 0x46, 0x3b, 0x24, 0x80, 0x30, 
	0x30, 0x00, 0x80, 0x46, 0x30, 0x1c, 0x90, 0x30, 
	0x4d, 0x00, 0x90, 0x43, 0x40, 0x24, 0x80, 0x43, 
	0x30, 0x1c, 0x90, 0x41, 0x3e, 0x24, 0x80, 0x41, 
	0x30, 0x1c, 0x90, 0x43, 0x44, 0x24, 0x80, 0x43, 
	0x30, 0x1c, 0x90, 0x46, 0x44, 0x24, 0x80, 0x30, 
	0x30, 0x00, 0x80, 0x46, 0x30, 0x1c, 0x90, 0x30, 
	0x4e, 0x00, 0x90, 0x48, 0x46, 0x64, 0x80, 0x48, 
	0x30, 0x1c, 0x90, 0x46, 0x3e, 0x24, 0x80, 0x46, 
	0x30, 0x1c, 0x90, 0x43, 0x3a, 0x24, 0x80, 0x30, 
	0x30, 0x00, 0x80, 0x43, 0x30, 0x1c, 0x90, 0x30, 
	0x4e, 0x00, 0x90, 0x46, 0x48, 0x64, 0x80, 0x46, 
	0x30, 0x1c, 0x90, 0x43, 0x3a, 0x64, 0x80, 0x30, 
	0x30, 0x00, 0x80, 0x43, 0x30, 0x1c, 0x90, 0x30, 
	0x4c, 0x00, 0x90, 0x41, 0x39, 0x24, 0x80, 0x41, 
	0x30, 0x1c, 0x90, 0x43, 0x4a, 0x24, 0x80, 0x43, 
	0x30, 0x1c, 0x90, 0x41, 0x3d, 0x24, 0x80, 0x41, 
	0x30, 0x1c, 0x90, 0x3f, 0x3c, 0x24, 0x80, 0x30, 
	0x30, 0x00, 0x80, 0x3f, 0x30, 0x1c, 0x90, 0x30, 
	0x4c, 0x00, 0x90, 0x57, 0x53, 0x81, 0x64, 0x80, 
	0x57, 0x30, 0x00, 0x80, 0x30, 0x30, 0x1c, 0x90, 
	0x2e, 0x47, 0x00, 0x90, 0x4b, 0x36, 0x64, 0x80, 
	0x4b, 0x30, 0x1c, 0x90, 0x4a, 0x3c, 0x64, 0x80, 
	0x2e, 0x30, 0x00, 0x80, 0x4a, 0x30, 0x1c, 0x90, 
	0x2e, 0x4a, 0x00, 0x90, 0x4b, 0x42, 0x64, 0x80, 
	0x4b, 0x30, 0x1c, 0x90, 0x4a, 0x38, 0x64, 0x80, 
	0x2e, 0x30, 0x00, 0x80, 0x4a, 0x30, 0x1c, 0x90, 
	0x2e, 0x47, 0x81, 0x00, 0x90, 0x46, 0x3e, 0x64, 
	0x80, 0x2e, 0x30, 0x1c, 0x90, 0x2e, 0x4e, 0x64, 
	0x80, 0x46, 0x30, 0x1c, 0x90, 0x46, 0x3d, 0x64, 
	0x80, 0x2e, 0x30, 0x00, 0x80, 0x46, 0x30, 0x1c, 
	0x90, 0x2e, 0x50, 0x00, 0x90, 0x56, 0x4f, 0x81, 
	0x64, 0x80, 0x2e, 0x30, 0x1c, 0x90, 0x2e, 0x4d, 
	0x64, 0x80, 0x56, 0x30, 0x1c, 0x90, 0x43, 0x2f, 
	0x64, 0x80, 0x2e, 0x30, 0x00, 0x80, 0x43, 0x30, 
	0x1c, 0x90, 0x2e, 0x4b, 0x00, 0x90, 0x41, 0x38, 
	0x64, 0x80, 0x41, 0x30, 0x1c, 0x90, 0x3f, 0x3e, 
	0x64, 0x80, 0x2e, 0x30, 0x00, 0x80, 0x3f, 0x30, 
	0x1c, 0x90, 0x2e, 0x48, 0x00, 0x90, 0x4b, 0x54, 
	0x81, 0x64, 0x80, 0x4b, 0x30, 0x00, 0x80, 0x2e, 
	0x30, 0x1c, 0x90, 0x30, 0x4f, 0x00, 0x90, 0x3c, 
	0x34, 0x24, 0x80, 0x3c, 0x30, 0x1c, 0x90, 0x3e, 
	0x44, 0x24, 0x80, 0x3e, 0x30, 0x1c, 0x90, 0x3f, 
	0x41, 0x24, 0x80, 0x3f, 0x30, 0x1c, 0x90, 0x41, 
	0x49, 0x24, 0x80, 0x30, 0x30, 0x00, 0x80, 0x41, 
	0x30, 0x1c, 0x90, 0x30, 0x4e, 0x00, 0x90, 0x43, 
	0x45, 0x24, 0x80, 0x43, 0x30, 0x1c, 0x90, 0x44, 
	0x46, 0x24, 0x80, 0x44, 0x30, 0x1c, 0x90, 0x46, 
	0x4b, 0x24, 0x80, 0x46, 0x30, 0x1c, 0x90, 0x48, 
	0x45, 0x24, 0x80, 0x30, 0x30, 0x00, 0x80, 0x48, 
	0x30, 0x1c, 0x90, 0x30, 0x4f, 0x00, 0x90, 0x48, 
	0x3a, 0x24, 0x80, 0x48, 0x30, 0x1c, 0x90, 0x43, 
	0x39, 0x24, 0x80, 0x43, 0x30, 0x1c, 0x90, 0x48, 
	0x4b, 0x24, 0x80, 0x48, 0x30, 0x1c, 0x90, 0x43, 
	0x3e, 0x24, 0x80, 0x30, 0x30, 0x00, 0x80, 0x43, 
	0x30, 0x1c, 0x90, 0x30, 0x4d, 0x00, 0x90, 0x48, 
	0x47, 0x24, 0x80, 0x48, 0x30, 0x1c, 0x90, 0x43, 
	0x37, 0x24, 0x80, 0x43, 0x30, 0x1c, 0x90, 0x48, 
	0x45, 0x24, 0x80, 0x48, 0x30, 0x1c, 0x90, 0x43, 
	0x39, 0x24, 0x80, 0x30, 0x30, 0x00, 0x80, 0x43, 
	0x30, 0x1c, 0x90, 0x30, 0x4f, 0x00, 0x90, 0x54, 
	0x53, 0x81, 0x64, 0x80, 0x54, 0x30, 0x00, 0x80, 
	0x30, 0x30, 0x1c, 0x90, 0x30, 0x4a, 0x00, 0x90, 
	0x3c, 0x35, 0x81, 0x64, 0x80, 0x3c, 0x30, 0x00, 
	0x80, 0x30, 0x30, 0x1c, 0x90, 0x30, 0x4b, 0x00, 
	0x90, 0x3f, 0x48, 0x81, 0x64, 0x80, 0x3f, 0x30, 
	0x00, 0x80, 0x30, 0x30, 0x1c, 0x90, 0x30, 0x50, 
	0x00, 0x90, 0x41, 0x44, 0x81, 0x64, 0x80, 0x41, 
	0x30, 0x00, 0x80, 0x30, 0x30, 0x1c, 0x90, 0x30, 
	0x4f, 0x00, 0x90, 0x43, 0x46, 0x82, 0x64, 0x80, 
	0x43, 0x30, 0x1c, 0x90, 0x43, 0x41, 0x82, 0x64, 
	0x80, 0x43, 0x30, 0x1c, 0x90, 0x43, 0x3f, 0x81, 
	0x64, 0x80, 0x43, 0x30, 0x1c, 0x90, 0x43, 0x41, 
	0x82, 0x64, 0x80, 0x30, 0x30, 0x00, 0x80, 0x43, 
	0x30, 0x1c, 0x90, 0x24, 0x40, 0x00, 0x90, 0x41, 
	0x3f, 0x82, 0x64, 0x80, 0x41, 0x30, 0x00, 0x80, 
	0x24, 0x30, 0x1c, 0x90, 0x27, 0x4c, 0x00, 0x90, 
	0x3f, 0x3e, 0x81, 0x64, 0x80, 0x3f, 0x30, 0x00, 
	0x80, 0x27, 0x30, 0x1c, 0x90, 0x2c, 0x51, 0x00, 
	0x90, 0x3c, 0x39, 0x87, 0x64, 0x80, 0x3c, 0x30, 
	0x82, 0x1c, 0x90, 0x3c, 0x3d, 0x81, 0x64, 0x80, 
	0x3c, 0x30, 0x1c, 0x90, 0x3e, 0x41, 0x81, 0x64, 
	0x80, 0x3e, 0x30, 0x1c, 0x90, 0x3f, 0x43, 0x81, 
	0x64, 0x80, 0x2c, 0x30, 0x00, 0x80, 0x3f, 0x30, 
	0x1c, 0x90, 0x22, 0x41, 0x00, 0x90, 0x41, 0x43, 
	0x82, 0x64, 0x80, 0x41, 0x30, 0x1c, 0x90, 0x41, 
	0x40, 0x82, 0x64, 0x80, 0x41, 0x30, 0x1c, 0x90, 
	0x41, 0x3f, 0x81, 0x64, 0x80, 0x41, 0x30, 0x1c, 
	0x90, 0x41, 0x3e, 0x82, 0x64, 0x80, 0x22, 0x30, 
	0x00, 0x80, 0x41, 0x30, 0x1c, 0x90, 0x2b, 0x51, 
	0x00, 0x90, 0x3f, 0x3b, 0x82, 0x64, 0x80, 0x3f, 
	0x30, 0x00, 0x80, 0x2b, 0x30, 0x1c, 0x90, 0x29, 
	0x47, 0x00, 0x90, 0x41, 0x44, 0x81, 0x64, 0x80, 
	0x41, 0x30, 0x00, 0x80, 0x29, 0x30, 0x1c, 0x90, 
	0x27, 0x49, 0x00, 0x90, 0x43, 0x41, 0x87, 0x64, 
	0x80, 0x43, 0x30, 0x82, 0x00, 0x80, 0x27, 0x30, 
	0x1c, 0x90, 0x29, 0x52, 0x00, 0x90, 0x3c, 0x3b, 
	0x81, 0x64, 0x80, 0x3c, 0x30, 0x00, 0x80, 0x29, 
	0x30, 0x1c, 0x90, 0x2b, 0x4d, 0x00, 0x90, 0x3f, 
	0x43, 0x81, 0x64, 0x80, 0x3f, 0x30, 0x00, 0x80, 
	0x2b, 0x30, 0x1c, 0x90, 0x2e, 0x54, 0x00, 0x90, 
	0x41, 0x45, 0x81, 0x64, 0x80, 0x41, 0x30, 0x00, 
	0x80, 0x2e, 0x30, 0x1c, 0x90, 0x30, 0x4e, 0x00, 
	0x90, 0x43, 0x45, 0x82, 0x64, 0x80, 0x43, 0x30, 
	0x1c, 0x90, 0x43, 0x43, 0x82, 0x64, 0x80, 0x43, 
	0x30, 0x1c, 0x90, 0x43, 0x45, 0x81, 0x64, 0x80, 
	0x43, 0x30, 0x1c, 0x90, 0x43, 0x3e, 0x82, 0x64, 
	0x80, 0x30, 0x30, 0x00, 0x80, 0x43, 0x30, 0x1c, 
	0x90, 0x33, 0x4f, 0x00, 0x90, 0x41, 0x3e, 0x82, 
	0x64, 0x80, 0x41, 0x30, 0x00, 0x80, 0x33, 0x30, 
	0x1c, 0x90, 0x2e, 0x4d, 0x00, 0x90, 0x3f, 0x3a, 
	0x81, 0x64, 0x80, 0x3f, 0x30, 0x00, 0x80, 0x2e, 
	0x30, 0x1c, 0x90, 0x2c, 0x4f, 0x00, 0x90, 0x3f, 
	0x3d, 0x82, 0x64, 0x80, 0x3f, 0x30, 0x1c, 0x90, 
	0x41, 0x45, 0x82, 0x64, 0x80, 0x41, 0x30, 0x1c, 
	0x90, 0x3f, 0x3a, 0x81, 0x64, 0x80, 0x3f, 0x30, 
	0x1c, 0x90, 0x3c, 0x3b, 0x82, 0x64, 0x80, 0x2c, 
	0x30, 0x1c, 0x90, 0x2e, 0x4e, 0x64, 0x80, 0x3c, 
	0x30, 0x82, 0x00, 0x80, 0x2e, 0x30, 0x1c, 0x90, 
	0x30, 0x4f, 0x00, 0x90, 0x3f, 0x3e, 0x81, 0x64, 
	0x80, 0x3f, 0x30, 0x00, 0x80, 0x30, 0x30, 0x1c, 
	0x90, 0x2e, 0x46, 0x00, 0x90, 0x41, 0x3f, 0x82, 
	0x64, 0x80, 0x41, 0x30, 0x1c, 0x90, 0x41, 0x40, 
	0x82, 0x64, 0x80, 0x41, 0x30, 0x1c, 0x90, 0x41, 
	0x44, 0x81, 0x64, 0x80, 0x41, 0x30, 0x1c, 0x90, 
	0x41, 0x42, 0x82, 0x64, 0x80, 0x41, 0x30, 0x1c, 
	0x90, 0x43, 0x46, 0x82, 0x64, 0x80, 0x43, 0x30, 
	0x1c, 0x90, 0x44, 0x43, 0x81, 0x64, 0x80, 0x2e, 
	0x30, 0x00, 0x80, 0x44, 0x30, 0x1c, 0x90, 0x1f, 
	0x42, 0x00, 0x90, 0x43, 0x3f, 0x81, 0x64, 0x80, 
	0x43, 0x30, 0x00, 0x80, 0x1f, 0x30, 0x88, 0x1c, 
	0x90, 0x3f, 0x3a, 0x81, 0x64, 0x80, 0x3f, 0x30, 
	0x1c, 0x90, 0x43, 0x46, 0x81, 0x64, 0x80, 0x43, 
	0x30, 0x1c, 0x90, 0x46, 0x47, 0x81, 0x64, 0x80, 
	0x46, 0x30, 0x1c, 0x90, 0x20, 0x49, 0x00, 0x90, 
	0x48, 0x4d, 0x64, 0x80, 0x20, 0x30, 0x1c, 0x90, 
	0x2c, 0x52, 0x64, 0x80, 0x2c, 0x30, 0x1c, 0x90, 
	0x20, 0x43, 0x64, 0x80, 0x20, 0x30, 0x1c, 0x90, 
	0x2c, 0x56, 0x64, 0x80, 0x2c, 0x30, 0x1c, 0x90, 
	0x20, 0x40, 0x64, 0x80, 0x20, 0x30, 0x1c, 0x90, 
	0x2c, 0x51, 0x64, 0x80, 0x48, 0x30, 0x00, 0x80, 
	0x2c, 0x30, 0x1c, 0x90, 0x20, 0x45, 0x00, 0x90, 
	0x48, 0x44, 0x64, 0x80, 0x20, 0x30, 0x1c, 0x90, 
	0x2c, 0x57, 0x64, 0x80, 0x48, 0x30, 0x00, 0x80, 
	0x2c, 0x30, 0x1c, 0x90, 0x20, 0x40, 0x00, 0x90, 
	0x48, 0x42, 0x64, 0x80, 0x20, 0x30, 0x1c, 0x90, 
	0x2c, 0x53, 0x64, 0x80, 0x2c, 0x30, 0x1c, 0x90, 
	0x20, 0x43, 0x64, 0x80, 0x48, 0x30, 0x00, 0x80, 
	0x20, 0x30, 0x1c, 0x90, 0x2c, 0x52, 0x00, 0x90, 
	0x46, 0x38, 0x64, 0x80, 0x2c, 0x30, 0x1c, 0x90, 
	0x20, 0x45, 0x64, 0x80, 0x20, 0x30, 0x1c, 0x90, 
	0x2c, 0x4f, 0x64, 0x80, 0x46, 0x30, 0x00, 0x80, 
	0x2c, 0x30, 0x1c, 0x90, 0x20, 0x43, 0x00, 0x90, 
	0x41, 0x39, 0x64, 0x80, 0x20, 0x30, 0x1c, 0x90, 
	0x2c, 0x57, 0x64, 0x80, 0x41, 0x30, 0x00, 0x80, 
	0x2c, 0x30, 0x1c, 0x90, 0x24, 0x46, 0x00, 0x90, 
	0x43, 0x41, 0x64, 0x80, 0x24, 0x30, 0x1c, 0x90, 
	0x30, 0x58, 0x64, 0x80, 0x43, 0x30, 0x00, 0x80, 
	0x30, 0x30, 0x1c, 0x90, 0x24, 0x3d, 0x00, 0x90, 
	0x46, 0x47, 0x64, 0x80, 0x46, 0x30, 0x00, 0x80, 
	0x24, 0x30, 0x1c, 0x90, 0x30, 0x54, 0x00, 0x90, 
	0x43, 0x3d, 0x64, 0x80, 0x30, 0x30, 0x1c, 0x90, 
	0x24, 0x45, 0x64, 0x80, 0x24, 0x30, 0x1c, 0x90, 
	0x30, 0x55, 0x64, 0x80, 0x30, 0x30, 0x1c, 0x90, 
	0x24, 0x3f, 0x64, 0x80, 0x24, 0x30, 0x1c, 0x90, 
	0x30, 0x56, 0x64, 0x80, 0x30, 0x30, 0x1c, 0x90, 
	0x24, 0x45, 0x64, 0x80, 0x24, 0x30, 0x1c, 0x90, 
	0x30, 0x56, 0x64, 0x80, 0x43, 0x30, 0x00, 0x80, 
	0x30, 0x30, 0x1c, 0x90, 0x24, 0x48, 0x64, 0x80, 
	0x24, 0x30, 0x1c, 0x90, 0x30, 0x51, 0x64, 0x80, 
	0x30, 0x30, 0x1c, 0x90, 0x24, 0x43, 0x00, 0x90, 
	0x3f, 0x38, 0x64, 0x80, 0x24, 0x30, 0x1c, 0x90, 
	0x30, 0x57, 0x64, 0x80, 0x3f, 0x30, 0x00, 0x80, 
	0x30, 0x30, 0x1c, 0x90, 0x24, 0x46, 0x00, 0x90, 
	0x3f, 0x43, 0x64, 0x80, 0x24, 0x30, 0x1c, 0x90, 
	0x30, 0x55, 0x64, 0x80, 0x3f, 0x30, 0x00, 0x80, 
	0x30, 0x30, 0x1c, 0x90, 0x22, 0x42, 0x00, 0x90, 
	0x41, 0x45, 0x64, 0x80, 0x22, 0x30, 0x1c, 0x90, 
	0x2e, 0x58, 0x64, 0x80, 0x2e, 0x30, 0x1c, 0x90, 
	0x22, 0x41, 0x64, 0x80, 0x41, 0x30, 0x00, 0x80, 
	0x22, 0x30, 0x1c, 0x90, 0x2e, 0x53, 0x00, 0x90, 
	0x41, 0x40, 0x64, 0x80, 0x2e, 0x30, 0x1c, 0x90, 
	0x22, 0x3f, 0x64, 0x80, 0x22, 0x30, 0x1c, 0x90, 
	0x2e, 0x56, 0x64, 0x80, 0x41, 0x30, 0x00, 0x80, 
	0x2e, 0x30, 0x1c, 0x90, 0x22, 0x46, 0x00, 0x90, 
	0x41, 0x3b, 0x64, 0x80, 0x22, 0x30, 0x1c, 0x90, 
	0x2e, 0x55, 0x64, 0x80, 0x41, 0x30, 0x00, 0x80, 
	0x2e, 0x30, 0x1c, 0x90, 0x22, 0x42, 0x00, 0x90, 
	0x43, 0x3c, 0x64, 0x80, 0x22, 0x30, 0x1c, 0x90, 
	0x2e, 0x51, 0x64, 0x80, 0x2e, 0x30, 0x1c, 0x90, 
	0x22, 0x41, 0x64, 0x80, 0x43, 0x30, 0x00, 0x80, 
	0x22, 0x30, 0x1c, 0x90, 0x2e, 0x55, 0x00, 0x90, 
	0x41, 0x3e, 0x64, 0x80, 0x2e, 0x30, 0x1c, 0x90, 
	0x22, 0x45, 0x64, 0x80, 0x22, 0x30, 0x1c, 0x90, 
	0x2e, 0x54, 0x64, 0x80, 0x41, 0x30, 0x00, 0x80, 
	0x2e, 0x30, 0x1c, 0x90, 0x22, 0x45, 0x00, 0x90, 
	0x3f, 0x3a, 0x64, 0x80, 0x22, 0x30, 0x1c, 0x90, 
	0x2e, 0x56, 0x64, 0x80, 0x3f, 0x30, 0x00, 0x80, 
	0x2e, 0x30, 0x1c, 0x90, 0x1f, 0x41, 0x00, 0x90, 
	0x43, 0x48, 0x64, 0x80, 0x1f, 0x30, 0x1c, 0x90, 
	0x2b, 0x53, 0x64, 0x80, 0x2b, 0x30, 0x1c, 0x90, 
	0x1f, 0x40, 0x64, 0x80, 0x1f, 0x30, 0x1c, 0x90, 
	0x2b, 0x56, 0x64, 0x80, 0x2b, 0x30, 0x1c, 0x90, 
	0x1f, 0x44, 0x64, 0x80, 0x1f, 0x30, 0x1c, 0x90, 
	0x2b, 0x59, 0x64, 0x80, 0x2b, 0x30, 0x1c, 0x90, 
	0x1f, 0x3e, 0x64, 0x80, 0x1f, 0x30, 0x1c, 0x90, 
	0x2b, 0x51, 0x64, 0x80, 0x2b, 0x30, 0x1c, 0x90, 
	0x1f, 0x45, 0x64, 0x80, 0x1f, 0x30, 0x1c, 0x90, 
	0x2b, 0x59, 0x64, 0x80, 0x43, 0x30, 0x00, 0x80, 
	0x2b, 0x30, 0x1c, 0x90, 0x1f, 0x41, 0x00, 0x90, 
	0x3f, 0x33, 0x64, 0x80, 0x1f, 0x30, 0x1c, 0x90, 
	0x2b, 0x55, 0x64, 0x80, 0x3f, 0x30, 0x00, 0x80, 
	0x2b, 0x30, 0x1c, 0x90, 0x1f, 0x44, 0x00, 0x90, 
	0x43, 0x47, 0x64, 0x80, 0x1f, 0x30, 0x1c, 0x90, 
	0x2b, 0x4e, 0x64, 0x80, 0x43, 0x30, 0x00, 0x80, 
	0x2b, 0x30, 0x1c, 0x90, 0x1f, 0x41, 0x00, 0x90, 
	0x46, 0x47, 0x64, 0x80, 0x1f, 0x30, 0x1c, 0x90, 
	0x2b, 0x56, 0x64, 0x80, 0x46, 0x30, 0x00, 0x80, 
	0x2b, 0x30, 0x1c, 0x90, 0x20, 0x46, 0x00, 0x90, 
	0x48, 0x46, 0x64, 0x80, 0x20, 0x30, 0x1c, 0x90, 
	0x2c, 0x53, 0x64, 0x80, 0x2c, 0x30, 0x1c, 0x90, 
	0x20, 0x47, 0x64, 0x80, 0x20, 0x30, 0x1c, 0x90, 
	0x2c, 0x5a, 0x64, 0x80, 0x2c, 0x30, 0x1c, 0x90, 
	0x20, 0x43, 0x64, 0x80, 0x20, 0x30, 0x1c, 0x90, 
	0x2c, 0x54, 0x64, 0x80, 0x48, 0x30, 0x00, 0x80, 
	0x2c, 0x30, 0x1c, 0x90, 0x20, 0x42, 0x00, 0x90, 
	0x48, 0x40, 0x64, 0x80, 0x48, 0x30, 0x00, 0x80, 
	0x20, 0x30, 0x1c, 0x90, 0x2c, 0x56, 0x00, 0x90, 
	0x48, 0x42, 0x64, 0x80, 0x48, 0x30, 0x00, 0x80, 
	0x2c, 0x30, 0x1c, 0x90, 0x20, 0x42, 0x00, 0x90, 
	0x48, 0x40, 0x64, 0x80, 0x20, 0x30, 0x1c, 0x90, 
	0x2c, 0x52, 0x64, 0x80, 0x2c, 0x30, 0x1c, 0x90, 
	0x20, 0x44, 0x64, 0x80, 0x48, 0x30, 0x00, 0x80, 
	0x20, 0x30, 0x1c, 0x90, 0x2c, 0x55, 0x00, 0x90, 
	0x46, 0x3a, 0x64, 0x80, 0x2c, 0x30, 0x1c, 0x90, 
	0x20, 0x44, 0x64, 0x80, 0x20, 0x30, 0x1c, 0x90, 
	0x2c, 0x58, 0x64, 0x80, 0x46, 0x30, 0x00, 0x80, 
	0x2c, 0x30, 0x1c, 0x90, 0x20, 0x40, 0x00, 0x90, 
	0x41, 0x38, 0x64, 0x80, 0x20, 0x30, 0x1c, 0x90, 
	0x2c, 0x54, 0x64, 0x80, 0x41, 0x30, 0x00, 0x80, 
	0x2c, 0x30, 0x1c, 0x90, 0x24, 0x47, 0x00, 0x90, 
	0x43, 0x42, 0x64, 0x80, 0x24, 0x30, 0x1c, 0x90, 
	0x30, 0x56, 0x64, 0x80, 0x43, 0x30, 0x00, 0x80, 
	0x30, 0x30, 0x1c, 0x90, 0x24, 0x45, 0x00, 0x90, 
	0x46, 0x45, 0x64, 0x80, 0x46, 0x30, 0x00, 0x80, 
	0x24, 0x30, 0x1c, 0x90, 0x30, 0x56, 0x00, 0x90, 
	0x43, 0x3a, 0x64, 0x80, 0x30, 0x30, 0x1c, 0x90, 
	0x24, 0x42, 0x64, 0x80, 0x24, 0x30, 0x1c, 0x90, 
	0x30, 0x56, 0x64, 0x80, 0x43, 0x30, 0x00, 0x80, 
	0x30, 0x30, 0x1c, 0x90, 0x24, 0x43, 0x00, 0x90, 
	0x41, 0x3e, 0x64, 0x80, 0x24, 0x30, 0x1c, 0x90, 
	0x30, 0x53, 0x64, 0x80, 0x41, 0x30, 0x00, 0x80, 
	0x30, 0x30, 0x1c, 0x90, 0x24, 0x43, 0x00, 0x90, 
	0x43, 0x43, 0x64, 0x80, 0x24, 0x30, 0x1c, 0x90, 
	0x30, 0x57, 0x64, 0x80, 0x30, 0x30, 0x1c, 0x90, 
	0x24, 0x44, 0x64, 0x80, 0x24, 0x30, 0x1c, 0x90, 
	0x30, 0x55, 0x64, 0x80, 0x43, 0x30, 0x00, 0x80, 
	0x30, 0x30, 0x1c, 0x90, 0x24, 0x44, 0x00, 0x90, 
	0x3c, 0x32, 0x64, 0x80, 0x24, 0x30, 0x1c, 0x90, 
	0x30, 0x55, 0x64, 0x80, 0x3c, 0x30, 0x00, 0x80, 
	0x30, 0x30, 0x1c, 0x90, 0x24, 0x42, 0x00, 0x90, 
	0x3f, 0x42, 0x64, 0x80, 0x24, 0x30, 0x1c, 0x90, 
	0x30, 0x58, 0x64, 0x80, 0x3f, 0x30, 0x00, 0x80, 
	0x30, 0x30, 0x1c, 0x90, 0x22, 0x44, 0x00, 0x90, 
	0x41, 0x48, 0x64, 0x80, 0x22, 0x30, 0x1c, 0x90, 
	0x2e, 0x52, 0x64, 0x80, 0x41, 0x30, 0x00, 0x80, 
	0x2e, 0x30, 0x1c, 0x90, 0x22, 0x48, 0x00, 0x90, 
	0x41, 0x41, 0x64, 0x80, 0x41, 0x30, 0x00, 0x80, 
	0x22, 0x30, 0x1c, 0x90, 0x2e, 0x52, 0x00, 0x90, 
	0x41, 0x3f, 0x64, 0x80, 0x2e, 0x30, 0x1c, 0x90, 
	0x22, 0x3f, 0x64, 0x80, 0x22, 0x30, 0x1c, 0x90, 
	0x2e, 0x53, 0x64, 0x80, 0x41, 0x30, 0x00, 0x80, 
	0x2e, 0x30, 0x1c, 0x90, 0x22, 0x46, 0x00, 0x90, 
	0x41, 0x42, 0x64, 0x80, 0x22, 0x30, 0x1c, 0x90, 
	0x2e, 0x58, 0x64, 0x80, 0x41, 0x30, 0x00, 0x80, 
	0x2e, 0x30, 0x1c, 0x90, 0x22, 0x46, 0x00, 0x90, 
	0x41, 0x3e, 0x81, 0x64, 0x80, 0x41, 0x30, 0x00, 
	0x80, 0x22, 0x30, 0x1c, 0x90, 0x3f, 0x3c, 0x81, 
	0x64, 0x80, 0x3f, 0x30, 0x1c, 0x90, 0x3c, 0x3c, 
	0x81, 0x64, 0x80, 0x3c, 0x30, 0x1c, 0x90, 0x46, 
	0x4d, 0x00, 0x90, 0x3a, 0x4d, 0x81, 0x64, 0x80, 
	0x3a, 0x30, 0x00, 0x80, 0x46, 0x30, 0x1c, 0x90, 
	0x30, 0x42, 0x00, 0x90, 0x4b, 0x4c, 0x81, 0x64, 
	0x80, 0x4b, 0x30, 0x1c, 0x90, 0x48, 0x39, 0x64, 
	0x80, 0x30, 0x30, 0x00, 0x80, 0x48, 0x30, 0x1c, 
	0x90, 0x30, 0x47, 0x00, 0x90, 0x4b, 0x4b, 0x81, 
	0x64, 0x80, 0x4b, 0x30, 0x1c, 0x90, 0x48, 0x3b, 
	0x64, 0x80, 0x30, 0x30, 0x00, 0x80, 0x48, 0x30, 
	0x1c, 0x90, 0x30, 0x4c, 0x00, 0x90, 0x4b, 0x41, 
	0x64, 0x80, 0x4b, 0x30, 0x1c, 0x90, 0x48, 0x3d, 
	0x64, 0x80, 0x30, 0x30, 0x00, 0x80, 0x48, 0x30, 
	0x1c, 0x90, 0x30, 0x4b, 0x00, 0x90, 0x4b, 0x49, 
	0x81, 0x64, 0x80, 0x4b, 0x30, 0x1c, 0x90, 0x48, 
	0x3d, 0x64, 0x80, 0x30, 0x30, 0x00, 0x80, 0x48, 
	0x30, 0x1c, 0x90, 0x30, 0x4e, 0x00, 0x90, 0x4b, 
	0x46, 0x81, 0x64, 0x80, 0x4b, 0x30, 0x1c, 0x90, 
	0x48, 0x3b, 0x64, 0x80, 0x30, 0x30, 0x00, 0x80, 
	0x48, 0x30, 0x1c, 0x90, 0x30, 0x49, 0x00, 0x90, 
	0x4b, 0x46, 0x64, 0x80, 0x4b, 0x30, 0x1c, 0x90, 
	0x48, 0x3b, 0x64, 0x80, 0x30, 0x30, 0x00, 0x80, 
	0x48, 0x30, 0x1c, 0x90, 0x2c, 0x48, 0x00, 0x90, 
	0x4f, 0x4f, 0x81, 0x64, 0x80, 0x4f, 0x30, 0x1c, 
	0x90, 0x48, 0x36, 0x64, 0x80, 0x2c, 0x30, 0x00, 
	0x80, 0x48, 0x30, 0x1c, 0x90, 0x2c, 0x4c, 0x00, 
	0x90, 0x4f, 0x49, 0x81, 0x64, 0x80, 0x4f, 0x30, 
	0x1c, 0x90, 0x48, 0x3a, 0x64, 0x80, 0x2c, 0x30, 
	0x00, 0x80, 0x48, 0x30, 0x1c, 0x90, 0x2c, 0x4d, 
	0x00, 0x90, 0x4f, 0x4d, 0x64, 0x80, 0x4f, 0x30, 
	0x1c, 0x90, 0x48, 0x39, 0x64, 0x80, 0x2c, 0x30, 
	0x00, 0x80, 0x48, 0x30, 0x1c, 0x90, 0x2c, 0x4d, 
	0x00, 0x90, 0x4f, 0x4c, 0x81, 0x64, 0x80, 0x4f, 
	0x30, 0x1c, 0x90, 0x48, 0x38, 0x64, 0x80, 0x2c, 
	0x30, 0x00, 0x80, 0x48, 0x30, 0x1c, 0x90, 0x2c, 
	0x4b, 0x00, 0x90, 0x4f, 0x4a, 0x81, 0x64, 0x80, 
	0x4f, 0x30, 0x1c, 0x90, 0x48, 0x36, 0x64, 0x80, 
	0x2c, 0x30, 0x00, 0x80, 0x48, 0x30, 0x1c, 0x90, 
	0x2c, 0x4a, 0x00, 0x90, 0x4f, 0x49, 0x64, 0x80, 
	0x4f, 0x30, 0x1c, 0x90, 0x48, 0x39, 0x64, 0x80, 
	0x2c, 0x30, 0x00, 0x80, 0x48, 0x30, 0x1c, 0x90, 
	0x29, 0x4a, 0x00, 0x90, 0x4d, 0x4a, 0x81, 0x64, 
	0x80, 0x4d, 0x30, 0x1c, 0x90, 0x48, 0x37, 0x64, 
	0x80, 0x29, 0x30, 0x00, 0x80, 0x48, 0x30, 0x1c, 
	0x90, 0x29, 0x4f, 0x00, 0x90, 0x4d, 0x4a, 0x81, 
	0x64, 0x80, 0x4d, 0x30, 0x1c, 0x90, 0x48, 0x3a, 
	0x64, 0x80, 0x29, 0x30, 0x00, 0x80, 0x48, 0x30, 
	0x1c, 0x90, 0x29, 0x4c, 0x00, 0x90, 0x4d, 0x48, 
	0x64, 0x80, 0x4d, 0x30, 0x1c, 0x90, 0x48, 0x3b, 
	0x64, 0x80, 0x29, 0x30, 0x00, 0x80, 0x48, 0x30, 
	0x1c, 0x90, 0x29, 0x4c, 0x00, 0x90, 0x4d, 0x46, 
	0x81, 0x64, 0x80, 0x4d, 0x30, 0x1c, 0x90, 0x48, 
	0x3d, 0x64, 0x80, 0x29, 0x30, 0x00, 0x80, 0x48, 
	0x30, 0x1c, 0x90, 0x29, 0x4d, 0x00, 0x90, 0x4d, 
	0x47, 0x81, 0x64, 0x80, 0x4d, 0x30, 0x1c, 0x90, 
	0x48, 0x38, 0x64, 0x80, 0x29, 0x30, 0x00, 0x80, 
	0x48, 0x30, 0x1c, 0x90, 0x29, 0x4a, 0x00, 0x90, 
	0x4d, 0x48, 0x64, 0x80, 0x4d, 0x30, 0x1c, 0x90, 
	0x48, 0x3b, 0x64, 0x80, 0x29, 0x30, 0x00, 0x80, 
	0x48, 0x30, 0x1c, 0x90, 0x2c, 0x4d, 0x00, 0x90, 
	0x4b, 0x47, 0x81, 0x64, 0x80, 0x4b, 0x30, 0x1c, 
	0x90, 0x48, 0x36, 0x64, 0x80, 0x2c, 0x30, 0x00, 
	0x80, 0x48, 0x30, 0x1c, 0x90, 0x2c, 0x49, 0x00, 
	0x90, 0x4b, 0x46, 0x81, 0x64, 0x80, 0x4b, 0x30, 
	0x1c, 0x90, 0x48, 0x3d, 0x64, 0x80, 0x2c, 0x30, 
	0x00, 0x80, 0x48, 0x30, 0x1c, 0x90, 0x2c, 0x4c, 
	0x00, 0x90, 0x4b, 0x47, 0x64, 0x80, 0x4b, 0x30, 
	0x1c, 0x90, 0x48, 0x3d, 0x64, 0x80, 0x2c, 0x30, 
	0x00, 0x80, 0x48, 0x30, 0x1c, 0x90, 0x2c, 0x4a, 
	0x00, 0x90, 0x46, 0x3a, 0x24, 0x80, 0x46, 0x30, 
	0x1c, 0x90, 0x48, 0x42, 0x24, 0x80, 0x48, 0x30, 
	0x1c, 0x90, 0x4a, 0x49, 0x24, 0x80, 0x4a, 0x30, 
	0x1c, 0x90, 0x4b, 0x43, 0x24, 0x80, 0x2c, 0x30, 
	0x00, 0x80, 0x4b, 0x30, 0x1c, 0x90, 0x2c, 0x4a, 
	0x00, 0x90, 0x4a, 0x3e, 0x24, 0x80, 0x4a, 0x30, 
	0x1c, 0x90, 0x4b, 0x44, 0x24, 0x80, 0x4b, 0x30, 
	0x1c, 0x90, 0x4d, 0x49, 0x24, 0x80, 0x4d, 0x30, 
	0x1c, 0x90, 0x4b, 0x39, 0x24, 0x80, 0x2c, 0x30, 
	0x00, 0x80, 0x4b, 0x30, 0x1c, 0x90, 0x2c, 0x47, 
	0x00, 0x90, 0x4d, 0x45, 0x24, 0x80, 0x4d, 0x30, 
	0x1c, 0x90, 0x4f, 0x44, 0x24, 0x80, 0x4f, 0x30, 
	0x1c, 0x90, 0x4d, 0x3d, 0x24, 0x80, 0x4d, 0x30, 
	0x1c, 0x90, 0x4b, 0x3b, 0x24, 0x80, 0x2c, 0x30, 
	0x00, 0x80, 0x4b, 0x30, 0x1c, 0x90, 0x2c, 0x49, 
	0x00, 0x90, 0x4d, 0x44, 0x24, 0x80, 0x4d, 0x30, 
	0x1c, 0x90, 0x4b, 0x3c, 0x24, 0x80, 0x4b, 0x30, 
	0x1c, 0x90, 0x48, 0x3a, 0x24, 0x80, 0x48, 0x30, 
	0x1c, 0x90, 0x46, 0x3b, 0x24, 0x80, 0x2c, 0x30, 
	0x00, 0x80, 0x46, 0x30, 0x1c, 0x90, 0x30, 0x51, 
	0x00, 0x90, 0x4b, 0x47, 0x64, 0x80, 0x4b, 0x30, 
	0x1c, 0x90, 0x4b, 0x46, 0x64, 0x80, 0x4b, 0x30, 
	0x1c, 0x90, 0x48, 0x3e, 0x64, 0x80, 0x30, 0x30, 
	0x00, 0x80, 0x48, 0x30, 0x1c, 0x90, 0x30, 0x49, 
	0x00, 0x90, 0x4b, 0x46, 0x64, 0x80, 0x4b, 0x30, 
	0x1c, 0x90, 0x4b, 0x41, 0x64, 0x80, 0x4b, 0x30, 
	0x1c, 0x90, 0x48, 0x3c, 0x64, 0x80, 0x30, 0x30, 
	0x00, 0x80, 0x48, 0x30, 0x1c, 0x90, 0x30, 0x4a, 
	0x00, 0x90, 0x4b, 0x48, 0x64, 0x80, 0x4b, 0x30, 
	0x1c, 0x90, 0x48, 0x38, 0x64, 0x80, 0x30, 0x30, 
	0x00, 0x80, 0x48, 0x30, 0x1c, 0x90, 0x30, 0x4d, 
	0x00, 0x90, 0x4b, 0x44, 0x64, 0x80, 0x4b, 0x30, 
	0x1c, 0x90, 0x4b, 0x3c, 0x64, 0x80, 0x4b, 0x30, 
	0x1c, 0x90, 0x48, 0x3b, 0x64, 0x80, 0x30, 0x30, 
	0x00, 0x80, 0x48, 0x30, 0x1c, 0x90, 0x30, 0x4d, 
	0x00, 0x90, 0x4b, 0x46, 0x64, 0x80, 0x4b, 0x30, 
	0x1c, 0x90, 0x4b, 0x41, 0x64, 0x80, 0x4b, 0x30, 
	0x1c, 0x90, 0x48, 0x3c, 0x64, 0x80, 0x30, 0x30, 
	0x00, 0x80, 0x48, 0x30, 0x1c, 0x90, 0x30, 0x4f, 
	0x00, 0x90, 0x4b, 0x49, 0x64, 0x80, 0x4b, 0x30, 
	0x1c, 0x90, 0x48, 0x3e, 0x64, 0x80, 0x30, 0x30, 
	0x00, 0x80, 0x48, 0x30, 0x1c, 0x90, 0x2c, 0x4c, 
	0x00, 0x90, 0x4f, 0x4a, 0x64, 0x80, 0x4f, 0x30, 
	0x1c, 0x90, 0x4f, 0x43, 0x64, 0x80, 0x4f, 0x30, 
	0x1c, 0x90, 0x48, 0x36, 0x64, 0x80, 0x2c, 0x30, 
	0x00, 0x80, 0x48, 0x30, 0x1c, 0x90, 0x2c, 0x4f, 
	0x00, 0x90, 0x4f, 0x4e, 0x64, 0x80, 0x4f, 0x30, 
	0x1c, 0x90, 0x4f, 0x40, 0x64, 0x80, 0x4f, 0x30, 
	0x1c, 0x90, 0x48, 0x2f, 0x64, 0x80, 0x2c, 0x30, 
	0x00, 0x80, 0x48, 0x30, 0x1c, 0x90, 0x2c, 0x4e, 
	0x00, 0x90, 0x4f, 0x4b, 0x64, 0x80, 0x4f, 0x30, 
	0x1c, 0x90, 0x48, 0x35, 0x64, 0x80, 0x2c, 0x30, 
	0x00, 0x80, 0x48, 0x30, 0x1c, 0x90, 0x2c, 0x4c, 
	0x00, 0x90, 0x4f, 0x4c, 0x64, 0x80, 0x4f, 0x30, 
	0x1c, 0x90, 0x4f, 0x43, 0x64, 0x80, 0x4f, 0x30, 
	0x1c, 0x90, 0x48, 0x36, 0x64, 0x80, 0x2c, 0x30, 
	0x00, 0x80, 0x48, 0x30, 0x1c, 0x90, 0x2c, 0x4e, 
	0x00, 0x90, 0x4f, 0x4a, 0x64, 0x80, 0x4f, 0x30, 
	0x1c, 0x90, 0x4f, 0x41, 0x64, 0x80, 0x4f, 0x30, 
	0x1c, 0x90, 0x48, 0x33, 0x64, 0x80, 0x2c, 0x30, 
	0x00, 0x80, 0x48, 0x30, 0x1c, 0x90, 0x2c, 0x4b, 
	0x00, 0x90, 0x4f, 0x4d, 0x64, 0x80, 0x4f, 0x30, 
	0x1c, 0x90, 0x48, 0x32, 0x64, 0x80, 0x2c, 0x30, 
	0x00, 0x80, 0x48, 0x30, 0x1c, 0x90, 0x29, 0x4b, 
	0x00, 0x90, 0x4d, 0x4b, 0x64, 0x80, 0x4d, 0x30, 
	0x1c, 0x90, 0x4d, 0x40, 0x64, 0x80, 0x4d, 0x30, 
	0x1c, 0x90, 0x48, 0x36, 0x64, 0x80, 0x29, 0x30, 
	0x00, 0x80, 0x48, 0x30, 0x1c, 0x90, 0x29, 0x4d, 
	0x00, 0x90, 0x4d, 0x4a, 0x64, 0x80, 0x4d, 0x30, 
	0x1c, 0x90, 0x4d, 0x42, 0x64, 0x80, 0x4d, 0x30, 
	0x1c, 0x90, 0x48, 0x37, 0x64, 0x80, 0x29, 0x30, 
	0x00, 0x80, 0x48, 0x30, 0x1c, 0x90, 0x29, 0x49, 
	0x00, 0x90, 0x4d, 0x48, 0x64, 0x80, 0x4d, 0x30, 
	0x1c, 0x90, 0x48, 0x3a, 0x64, 0x80, 0x29, 0x30, 
	0x00, 0x80, 0x48, 0x30, 0x1c, 0x90, 0x29, 0x4c, 
	0x00, 0x90, 0x4d, 0x4c, 0x64, 0x80, 0x4d, 0x30, 
	0x1c, 0x90, 0x4d, 0x44, 0x64, 0x80, 0x4d, 0x30, 
	0x1c, 0x90, 0x48, 0x38, 0x64, 0x80, 0x29, 0x30, 
	0x00, 0x80, 0x48, 0x30, 0x1c, 0x90, 0x29, 0x4c, 
	0x00, 0x90, 0x4d, 0x4a, 0x64, 0x80, 0x4d, 0x30, 
	0x1c, 0x90, 0x4d, 0x41, 0x64, 0x80, 0x4d, 0x30, 
	0x1c, 0x90, 0x48, 0x38, 0x64, 0x80, 0x29, 0x30, 
	0x00, 0x80, 0x48, 0x30, 0x1c, 0x90, 0x29, 0x4f, 
	0x00, 0x90, 0x4d, 0x49, 0x64, 0x80, 0x4d, 0x30, 
	0x1c, 0x90, 0x48, 0x3b, 0x64, 0x80, 0x29, 0x30, 
	0x00, 0x80, 0x48, 0x30, 0x1c, 0x90, 0x2e, 0x54, 
	0x00, 0x90, 0x3f, 0x30, 0x24, 0x80, 0x3f, 0x30, 
	0x1c, 0x90, 0x43, 0x44, 0x24, 0x80, 0x43, 0x30, 
	0x1c, 0x90, 0x48, 0x4a, 0x24, 0x80, 0x48, 0x30, 
	0x1c, 0x90, 0x4b, 0x44, 0x24, 0x80, 0x4b, 0x30, 
	0x1c, 0x90, 0x4f, 0x4b, 0x24, 0x80, 0x4f, 0x30, 
	0x1c, 0x90, 0x50, 0x46, 0x24, 0x80, 0x50, 0x30, 
	0x1c, 0x90, 0x4b, 0x35, 0x24, 0x80, 0x4b, 0x30, 
	0x1c, 0x90, 0x48, 0x3e, 0x24, 0x80, 0x48, 0x30, 
	0x1c, 0x90, 0x4b, 0x45, 0x24, 0x80, 0x4b, 0x30, 
	0x1c, 0x90, 0x48, 0x3c, 0x24, 0x80, 0x48, 0x30, 
	0x1c, 0x90, 0x43, 0x35, 0x24, 0x80, 0x43, 0x30, 
	0x1c, 0x90, 0x48, 0x47, 0x24, 0x80, 0x48, 0x30, 
	0x1c, 0x90, 0x43, 0x35, 0x24, 0x80, 0x43, 0x30, 
	0x1c, 0x90, 0x3f, 0x39, 0x24, 0x80, 0x3f, 0x30, 
	0x1c, 0x90, 0x43, 0x47, 0x24, 0x80, 0x43, 0x30, 
	0x1c, 0x90, 0x3f, 0x3e, 0x24, 0x80, 0x2e, 0x30, 
	0x00, 0x80, 0x3f, 0x30, 0x1c, 0x90, 0x3c, 0x41, 
	0x24, 0x80, 0x3c, 0x30, 0x1c, 0x90, 0x3f, 0x45, 
	0x24, 0x80, 0x3f, 0x30, 0x1c, 0x90, 0x43, 0x4b, 
	0x24, 0x80, 0x43, 0x30, 0x1c, 0x90, 0x48, 0x47, 
	0x24, 0x80, 0x48, 0x30, 0x1c, 0x90, 0x4b, 0x49, 
	0x24, 0x80, 0x4b, 0x30, 0x1c, 0x90, 0x48, 0x3d, 
	0x24, 0x80, 0x48, 0x30, 0x1c, 0x90, 0x4f, 0x4d, 
	0x24, 0x80, 0x4f, 0x30, 0x1c, 0x90, 0x4b, 0x40, 
	0x24, 0x80, 0x4b, 0x30, 0x1c, 0x90, 0x50, 0x4f, 
	0x24, 0x80, 0x50, 0x30, 0x1c, 0x90, 0x4f, 0x3d, 
	0x24, 0x80, 0x4f, 0x30, 0x1c, 0x90, 0x4b, 0x3a, 
	0x24, 0x80, 0x4b, 0x30, 0x1c, 0x90, 0x4f, 0x47, 
	0x24, 0x80, 0x4f, 0x30, 0x1c, 0x90, 0x50, 0x43, 
	0x24, 0x80, 0x50, 0x30, 0x1c, 0x90, 0x4f, 0x42, 
	0x24, 0x80, 0x4f, 0x30, 0x1c, 0x90, 0x4b, 0x3a, 
	0x24, 0x80, 0x4b, 0x30, 0x1c, 0x90, 0x50, 0x4b, 
	0x24, 0x80, 0x50, 0x30, 0x1c, 0x90, 0x30, 0x54, 
	0x00, 0x90, 0x4f, 0x3f, 0x64, 0x80, 0x4f, 0x30, 
	0x00, 0x80, 0x30, 0x30, 0x1c, 0x90, 0x30, 0x4b, 
	0x00, 0x90, 0x52, 0x46, 0x64, 0x80, 0x52, 0x30, 
	0x00, 0x80, 0x30, 0x30, 0x1c, 0x90, 0x30, 0x4e, 
	0x00, 0x90, 0x52, 0x46, 0x64, 0x80, 0x52, 0x30, 
	0x00, 0x80, 0x30, 0x30, 0x1c, 0x90, 0x30, 0x4e, 
	0x00, 0x90, 0x4f, 0x3e, 0x64, 0x80, 0x4f, 0x30, 
	0x00, 0x80, 0x30, 0x30, 0x1c, 0x90, 0x52, 0x48, 
	0x64, 0x80, 0x52, 0x30, 0x1c, 0x90, 0x30, 0x4a, 
	0x00, 0x90, 0x52, 0x42, 0x64, 0x80, 0x52, 0x30, 
	0x00, 0x80, 0x30, 0x30, 0x1c, 0x90, 0x4f, 0x38, 
	0x64, 0x80, 0x4f, 0x30, 0x1c, 0x90, 0x30, 0x45, 
	0x00, 0x90, 0x52, 0x49, 0x64, 0x80, 0x52, 0x30, 
	0x00, 0x80, 0x30, 0x30, 0x1c, 0x90, 0x52, 0x47, 
	0x64, 0x80, 0x52, 0x30, 0x1c, 0x90, 0x30, 0x43, 
	0x00, 0x90, 0x4f, 0x3f, 0x64, 0x80, 0x4f, 0x30, 
	0x00, 0x80, 0x30, 0x30, 0x1c, 0x90, 0x4f, 0x3e, 
	0x64, 0x80, 0x4f, 0x30, 0x1c, 0x90, 0x30, 0x3d, 
	0x00, 0x90, 0x52, 0x4c, 0x64, 0x80, 0x52, 0x30, 
	0x00, 0x80, 0x30, 0x30, 0x1c, 0x90, 0x30, 0x4b, 
	0x00, 0x90, 0x52, 0x40, 0x64, 0x80, 0x52, 0x30, 
	0x00, 0x80, 0x30, 0x30, 0x1c, 0x90, 0x30, 0x4f, 
	0x00, 0x90, 0x4f, 0x3d, 0x64, 0x80, 0x4f, 0x30, 
	0x00, 0x80, 0x30, 0x30, 0x1c, 0x90, 0x30, 0x4a, 
	0x00, 0x90, 0x4d, 0x3d, 0x64, 0x80, 0x4d, 0x30, 
	0x00, 0x80, 0x30, 0x30, 0x1c, 0x90, 0x4b, 0x3b, 
	0x64, 0x80, 0x4b, 0x30, 0x1c, 0x90, 0x27, 0x44, 
	0x00, 0x90, 0x4d, 0x45, 0x64, 0x80, 0x4d, 0x30, 
	0x00, 0x80, 0x27, 0x30, 0x1c, 0x90, 0x27, 0x4a, 
	0x00, 0x90, 0x4f, 0x46, 0x64, 0x80, 0x4f, 0x30, 
	0x00, 0x80, 0x27, 0x30, 0x1c, 0x90, 0x27, 0x49, 
	0x00, 0x90, 0x4f, 0x46, 0x64, 0x80, 0x4f, 0x30, 
	0x00, 0x80, 0x27, 0x30, 0x1c, 0x90, 0x27, 0x4b, 
	0x00, 0x90, 0x4d, 0x3e, 0x64, 0x80, 0x4d, 0x30, 
	0x00, 0x80, 0x27, 0x30, 0x1c, 0x90, 0x4f, 0x40, 
	0x64, 0x80, 0x4f, 0x30, 0x1c, 0x90, 0x27, 0x43, 
	0x00, 0x90, 0x4f, 0x43, 0x64, 0x80, 0x4f, 0x30, 
	0x00, 0x80, 0x27, 0x30, 0x1c, 0x90, 0x4d, 0x39, 
	0x64, 0x80, 0x4d, 0x30, 0x1c, 0x90, 0x27, 0x42, 
	0x00, 0x90, 0x4f, 0x44, 0x64, 0x80, 0x4f, 0x30, 
	0x00, 0x80, 0x27, 0x30, 0x1c, 0x90, 0x4f, 0x44, 
	0x64, 0x80, 0x4f, 0x30, 0x1c, 0x90, 0x27, 0x46, 
	0x00, 0x90, 0x4d, 0x3d, 0x64, 0x80, 0x4d, 0x30, 
	0x00, 0x80, 0x27, 0x30, 0x1c, 0x90, 0x4f, 0x41, 
	0x64, 0x80, 0x4f, 0x30, 0x1c, 0x90, 0x27, 0x44, 
	0x00, 0x90, 0x4f, 0x41, 0x64, 0x80, 0x4f, 0x30, 
	0x00, 0x80, 0x27, 0x30, 0x1c, 0x90, 0x27, 0x4f, 
	0x00, 0x90, 0x50, 0x47, 0x64, 0x80, 0x50, 0x30, 
	0x00, 0x80, 0x27, 0x30, 0x1c, 0x90, 0x27, 0x4d, 
	0x00, 0x90, 0x4f, 0x3e, 0x64, 0x80, 0x4f, 0x30, 
	0x00, 0x80, 0x27, 0x30, 0x1c, 0x90, 0x27, 0x4d, 
	0x00, 0x90, 0x4d, 0x36, 0x64, 0x80, 0x4d, 0x30, 
	0x00, 0x80, 0x27, 0x30, 0x1c, 0x90, 0x4b, 0x3b, 
	0x64, 0x80, 0x4b, 0x30, 0x1c, 0x90, 0x29, 0x48, 
	0x64, 0x80, 0x29, 0x30, 0x1c, 0x90, 0x29, 0x48, 
	0x64, 0x80, 0x29, 0x30, 0x1c, 0x90, 0x29, 0x50, 
	0x64, 0x80, 0x29, 0x30, 0x1c, 0x90, 0x29, 0x4c, 
	0x64, 0x80, 0x29, 0x30, 0x81, 0x1c, 0x90, 0x29, 
	0x48, 0x64, 0x80, 0x29, 0x30, 0x81, 0x1c, 0x90, 
	0x29, 0x44, 0x64, 0x80, 0x29, 0x30, 0x81, 0x1c, 
	0x90, 0x29, 0x43, 0x64, 0x80, 0x29, 0x30, 0x81, 
	0x1c, 0x90, 0x29, 0x42, 0x64, 0x80, 0x29, 0x30, 
	0x1c, 0x90, 0x29, 0x4e, 0x64, 0x80, 0x29, 0x30, 
	0x1c, 0x90, 0x29, 0x48, 0x64, 0x80, 0x29, 0x30, 
	0x1c, 0x90, 0x29, 0x4f, 0x64, 0x80, 0x29, 0x30, 
	0x81, 0x1c, 0x90, 0x2b, 0x40, 0x00, 0x90, 0x52, 
	0x4f, 0x24, 0x80, 0x52, 0x30, 0x1c, 0x90, 0x4f, 
	0x3a, 0x24, 0x80, 0x4f, 0x30, 0x1c, 0x90, 0x52, 
	0x48, 0x24, 0x80, 0x52, 0x30, 0x1c, 0x90, 0x4f, 
	0x3c, 0x24, 0x80, 0x4f, 0x30, 0x1c, 0x90, 0x52, 
	0x43, 0x24, 0x80, 0x52, 0x30, 0x1c, 0x90, 0x4f, 
	0x3d, 0x24, 0x80, 0x4f, 0x30, 0x1c, 0x90, 0x52, 
	0x44, 0x24, 0x80, 0x52, 0x30, 0x1c, 0x90, 0x4f, 
	0x3c, 0x24, 0x80, 0x4f, 0x30, 0x1c, 0x90, 0x52, 
	0x49, 0x24, 0x80, 0x52, 0x30, 0x1c, 0x90, 0x4f, 
	0x38, 0x24, 0x80, 0x4f, 0x30, 0x1c, 0x90, 0x52, 
	0x45, 0x24, 0x80, 0x52, 0x30, 0x1c, 0x90, 0x4f, 
	0x38, 0x24, 0x80, 0x4f, 0x30, 0x1c, 0x90, 0x52, 
	0x46, 0x24, 0x80, 0x52, 0x30, 0x1c, 0x90, 0x4f, 
	0x3d, 0x24, 0x80, 0x4f, 0x30, 0x1c, 0x90, 0x52, 
	0x47, 0x24, 0x80, 0x52, 0x30, 0x1c, 0x90, 0x4f, 
	0x3a, 0x24, 0x80, 0x4f, 0x30, 0x1c, 0x90, 0x52, 
	0x43, 0x24, 0x80, 0x52, 0x30, 0x1c, 0x90, 0x4f, 
	0x3b, 0x24, 0x80, 0x4f, 0x30, 0x1c, 0x90, 0x52, 
	0x47, 0x24, 0x80, 0x52, 0x30, 0x1c, 0x90, 0x4f, 
	0x3d, 0x24, 0x80, 0x4f, 0x30, 0x1c, 0x90, 0x52, 
	0x42, 0x24, 0x80, 0x52, 0x30, 0x1c, 0x90, 0x4f, 
	0x3b, 0x24, 0x80, 0x4f, 0x30, 0x1c, 0x90, 0x52, 
	0x44, 0x24, 0x80, 0x52, 0x30, 0x1c, 0x90, 0x4f, 
	0x3a, 0x24, 0x80, 0x4f, 0x30, 0x1c, 0x90, 0x52, 
	0x45, 0x24, 0x80, 0x52, 0x30, 0x1c, 0x90, 0x4f, 
	0x37, 0x24, 0x80, 0x4f, 0x30, 0x1c, 0x90, 0x52, 
	0x42, 0x24, 0x80, 0x52, 0x30, 0x1c, 0x90, 0x4f, 
	0x3d, 0x24, 0x80, 0x4f, 0x30, 0x1c, 0x90, 0x52, 
	0x47, 0x24, 0x80, 0x52, 0x30, 0x1c, 0x90, 0x4f, 
	0x3c, 0x24, 0x80, 0x4f, 0x30, 0x1c, 0x90, 0x52, 
	0x42, 0x24, 0x80, 0x52, 0x30, 0x1c, 0x90, 0x4f, 
	0x3b, 0x24, 0x80, 0x4f, 0x30, 0x1c, 0x90, 0x52, 
	0x46, 0x24, 0x80, 0x52, 0x30, 0x1c, 0x90, 0x4f, 
	0x3c, 0x24, 0x80, 0x4f, 0x30, 0x1c, 0x90, 0x52, 
	0x44, 0x24, 0x80, 0x52, 0x30, 0x1c, 0x90, 0x4f, 
	0x41, 0x24, 0x80, 0x4f, 0x30, 0x1c, 0x90, 0x52, 
	0x49, 0x24, 0x80, 0x52, 0x30, 0x1c, 0x90, 0x4f, 
	0x3d, 0x24, 0x80, 0x4f, 0x30, 0x1c, 0x90, 0x52, 
	0x49, 0x24, 0x80, 0x52, 0x30, 0x1c, 0x90, 0x4f, 
	0x3c, 0x24, 0x80, 0x4f, 0x30, 0x1c, 0x90, 0x52, 
	0x4b, 0x24, 0x80, 0x52, 0x30, 0x1c, 0x90, 0x4f, 
	0x3c, 0x24, 0x80, 0x4f, 0x30, 0x1c, 0x90, 0x52, 
	0x45, 0x24, 0x80, 0x52, 0x30, 0x1c, 0x90, 0x4f, 
	0x3e, 0x24, 0x80, 0x4f, 0x30, 0x1c, 0x90, 0x52, 
	0x47, 0x24, 0x80, 0x52, 0x30, 0x1c, 0x90, 0x4f, 
	0x3a, 0x24, 0x80, 0x4f, 0x30, 0x1c, 0x90, 0x52, 
	0x47, 0x24, 0x80, 0x52, 0x30, 0x1c, 0x90, 0x4f, 
	0x38, 0x24, 0x80, 0x4f, 0x30, 0x1c, 0x90, 0x52, 
	0x42, 0x24, 0x80, 0x52, 0x30, 0x1c, 0x90, 0x4f, 
	0x3c, 0x24, 0x80, 0x4f, 0x30, 0x1c, 0x90, 0x52, 
	0x49, 0x24, 0x80, 0x52, 0x30, 0x1c, 0x90, 0x4f, 
	0x38, 0x24, 0x80, 0x4f, 0x30, 0x1c, 0x90, 0x52, 
	0x41, 0x24, 0x80, 0x52, 0x30, 0x1c, 0x90, 0x4f, 
	0x3c, 0x24, 0x80, 0x4f, 0x30, 0x1c, 0x90, 0x52, 
	0x42, 0x24, 0x80, 0x52, 0x30, 0x1c, 0x90, 0x4f, 
	0x3a, 0x24, 0x80, 0x4f, 0x30, 0x1c, 0x90, 0x52, 
	0x46, 0x24, 0x80, 0x52, 0x30, 0x1c, 0x90, 0x4f, 
	0x3c, 0x24, 0x80, 0x4f, 0x30, 0x1c, 0x90, 0x52, 
	0x42, 0x24, 0x80, 0x52, 0x30, 0x1c, 0x90, 0x4f, 
	0x3e, 0x24, 0x80, 0x4f, 0x30, 0x1c, 0x90, 0x52, 
	0x46, 0x24, 0x80, 0x52, 0x30, 0x1c, 0x90, 0x4f, 
	0x37, 0x24, 0x80, 0x4f, 0x30, 0x1c, 0x90, 0x52, 
	0x47, 0x24, 0x80, 0x52, 0x30, 0x1c, 0x90, 0x4f, 
	0x3b, 0x24, 0x80, 0x4f, 0x30, 0x1c, 0x90, 0x52, 
	0x3f, 0x24, 0x80, 0x52, 0x30, 0x1c, 0x90, 0x4f, 
	0x3a, 0x24, 0x80, 0x4f, 0x30, 0x1c, 0x90, 0x52, 
	0x41, 0x24, 0x80, 0x52, 0x30, 0x1c, 0x90, 0x4f, 
	0x3c, 0x24, 0x80, 0x4f, 0x30, 0x1c, 0x90, 0x52, 
	0x43, 0x24, 0x80, 0x52, 0x30, 0x1c, 0x90, 0x4f, 
	0x3d, 0x24, 0x80, 0x4f, 0x30, 0x1c, 0x90, 0x52, 
	0x43, 0x24, 0x80, 0x52, 0x30, 0x1c, 0x90, 0x4f, 
	0x3c, 0x24, 0x80, 0x4f, 0x30, 0x1c, 0x90, 0x52, 
	0x46, 0x24, 0x80, 0x52, 0x30, 0x1c, 0x90, 0x4f, 
	0x39, 0x24, 0x80, 0x4f, 0x30, 0x1c, 0x90, 0x52, 
	0x49, 0x24, 0x80, 0x52, 0x30, 0x1c, 0x90, 0x4f, 
	0x39, 0x24, 0x80, 0x4f, 0x30, 0x1c, 0x90, 0x52, 
	0x44, 0x24, 0x80, 0x52, 0x30, 0x1c, 0x90, 0x4f, 
	0x3a, 0x24, 0x80, 0x4f, 0x30, 0x1c, 0x90, 0x52, 
	0x4a, 0x24, 0x80, 0x52, 0x30, 0x1c, 0x90, 0x4f, 
	0x39, 0x24, 0x80, 0x4f, 0x30, 0x1c, 0x90, 0x52, 
	0x45, 0x24, 0x80, 0x52, 0x30, 0x1c, 0x90, 0x4f, 
	0x3b, 0x24, 0x80, 0x4f, 0x30, 0x1c, 0x90, 0x52, 
	0x46, 0x24, 0x80, 0x52, 0x30, 0x1c, 0x90, 0x4f, 
	0x39, 0x24, 0x80, 0x4f, 0x30, 0x1c, 0x90, 0x52, 
	0x47, 0x24, 0x80, 0x52, 0x30, 0x1c, 0x90, 0x4f, 
	0x3d, 0x24, 0x80, 0x4f, 0x30, 0x1c, 0x90, 0x52, 
	0x43, 0x24, 0x80, 0x52, 0x30, 0x1c, 0x90, 0x4f, 
	0x3d, 0x24, 0x80, 0x4f, 0x30, 0x1c, 0x90, 0x52, 
	0x42, 0x24, 0x80, 0x52, 0x30, 0x1c, 0x90, 0x4f, 
	0x3d, 0x24, 0x80, 0x4f, 0x30, 0x1c, 0x90, 0x52, 
	0x45, 0x24, 0x80, 0x52, 0x30, 0x1c, 0x90, 0x4f, 
	0x3b, 0x24, 0x80, 0x4f, 0x30, 0x1c, 0x90, 0x52, 
	0x42, 0x24, 0x80, 0x52, 0x30, 0x1c, 0x90, 0x4f, 
	0x3b, 0x24, 0x80, 0x4f, 0x30, 0x1c, 0x90, 0x52, 
	0x47, 0x24, 0x80, 0x52, 0x30, 0x1c, 0x90, 0x4f, 
	0x36, 0x24, 0x80, 0x2b, 0x30, 0x00, 0x80, 0x4f, 
	0x30, 0x1c, 0x90, 0x2b, 0x49, 0x00, 0x90, 0x50, 
	0x42, 0x00, 0x90, 0x44, 0x42, 0x64, 0x80, 0x44, 
	0x30, 0x00, 0x80, 0x50, 0x30, 0x00, 0x80, 0x2b, 
	0x30, 0x1c, 0x90, 0x2b, 0x4e, 0x00, 0x90, 0x4f, 
	0x3d, 0x00, 0x90, 0x43, 0x3d, 0x64, 0x80, 0x43, 
	0x30, 0x00, 0x80, 0x4f, 0x30, 0x00, 0x80, 0x2b, 
	0x30, 0x1c, 0x90, 0x2b, 0x51, 0x00, 0x90, 0x4d, 
	0x39, 0x00, 0x90, 0x41, 0x39, 0x64, 0x80, 0x41, 
	0x30, 0x00, 0x80, 0x4d, 0x30, 0x00, 0x80, 0x2b, 
	0x30, 0x1c, 0x90, 0x2b, 0x49, 0x00, 0x90, 0x4b, 
	0x3b, 0x00, 0x90, 0x3f, 0x3b, 0x64, 0x80, 0x3f, 
	0x30, 0x00, 0x80, 0x4b, 0x30, 0x00, 0x80, 0x2b, 
	0x30, 0x1c, 0x90, 0x2b, 0x4c, 0x00, 0x90, 0x4f, 
	0x44, 0x00, 0x90, 0x43, 0x44, 0x64, 0x80, 0x43, 
	0x30, 0x00, 0x80, 0x4f, 0x30, 0x00, 0x80, 0x2b, 
	0x30, 0x1c, 0x90, 0x2b, 0x51, 0x00, 0x90, 0x4d, 
	0x3e, 0x00, 0x90, 0x41, 0x3e, 0x64, 0x80, 0x41, 
	0x30, 0x00, 0x80, 0x4d, 0x30, 0x00, 0x80, 0x2b, 
	0x30, 0x1c, 0x90, 0x2b, 0x4f, 0x00, 0x90, 0x4b, 
	0x39, 0x00, 0x90, 0x3f, 0x39, 0x64, 0x80, 0x3f, 
	0x30, 0x00, 0x80, 0x4b, 0x30, 0x00, 0x80, 0x2b, 
	0x30, 0x1c, 0x90, 0x2b, 0x4f, 0x00, 0x90, 0x4a, 
	0x3c, 0x00, 0x90, 0x3e, 0x3c, 0x64, 0x80, 0x3e, 
	0x30, 0x00, 0x80, 0x4a, 0x30, 0x00, 0x80, 0x2b, 
	0x30, 0x1c, 0x90, 0x2b, 0x4f, 0x00, 0x90, 0x5b, 
	0x53, 0x81, 0x64, 0x80, 0x2b, 0x30, 0x82, 0x00, 
	0x80, 0x5b, 0x30, 0x1c, 0x90, 0x3e, 0x34, 0x83, 
	0x64, 0x80, 0x3e, 0x30, 0x1c, 0x90, 0x30, 0x42, 
	0x00, 0x90, 0x4b, 0x4a, 0x24, 0x80, 0x4b, 0x30, 
	0x1c, 0x90, 0x4d, 0x48, 0x24, 0x80, 0x30, 0x30, 
	0x00, 0x80, 0x4d, 0x30, 0x1c, 0x90, 0x30, 0x52, 
	0x00, 0x90, 0x4b, 0x3c, 0x64, 0x80, 0x4b, 0x30, 
	0x00, 0x80, 0x30, 0x30, 0x1c, 0x90, 0x30, 0x4e, 
	0x00, 0x90, 0x48, 0x37, 0x64, 0x80, 0x48, 0x30, 
	0x1c, 0x90, 0x46, 0x3b, 0x64, 0x80, 0x30, 0x30, 
	0x00, 0x80, 0x46, 0x30, 0x1c, 0x90, 0x30, 0x4e, 
	0x00, 0x90, 0x43, 0x3a, 0x81, 0x0f, 0x80, 0x43, 
	0x30, 0x00, 0x80, 0x30, 0x30, 0x1b, 0x90, 0x30, 
	0x49, 0x00, 0x90, 0x46, 0x45, 0x81, 0x10, 0x80, 
	0x46, 0x30, 0x00, 0x80, 0x30, 0x30, 0x1b, 0x90, 
	0x30, 0x4b, 0x00, 0x90, 0x48, 0x46, 0x81, 0x0f, 
	0x80, 0x48, 0x30, 0x00, 0x80, 0x30, 0x30, 0x1c, 
	0x90, 0x30, 0x4d, 0x00, 0x90, 0x60, 0x52, 0x83, 
	0x64, 0x80, 0x60, 0x30, 0x00, 0x80, 0x30, 0x30, 
	0x71, 0xff, 0x2f, 0x00, 
};