// Dragosta Din Tei
{
	0x4d, 0x54, 0x68, 0x64, 0x00, 0x00, 0x00, 0x06, 
	0x00, 0x01, 0x00, 0x01, 0x03, 0xc0, 0x4d, 0x54, 
	0x72, 0x6b, 0x00, 0x00, 0x2b, 0x12, 0x00, 0xff, 
	0x58, 0x04, 0x04, 0x02, 0x18, 0x08, 0x00, 0xff, 
	0x51, 0x03, 0x07, 0x0a, 0xe2, 0x92, 0x60, 0x90, 
	0x3c, 0x63, 0x83, 0x56, 0x80, 0x3c, 0x30, 0x0a, 
	0x90, 0x3b, 0x63, 0x83, 0x56, 0x80, 0x3b, 0x30, 
	0x0a, 0x90, 0x3c, 0x63, 0x83, 0x56, 0x80, 0x3c, 
	0x30, 0x0a, 0x90, 0x45, 0x63, 0x8b, 0x16, 0x80, 
	0x45, 0x30, 0x87, 0x4a, 0x90, 0x3c, 0x63, 0x83, 
	0x56, 0x80, 0x3c, 0x30, 0x0a, 0x90, 0x3b, 0x63, 
	0x83, 0x56, 0x80, 0x3b, 0x30, 0x0a, 0x90, 0x3c, 
	0x63, 0x83, 0x56, 0x80, 0x3c, 0x30, 0x0a, 0x90, 
	0x43, 0x63, 0x8b, 0x16, 0x80, 0x43, 0x30, 0x87, 
	0x4a, 0x90, 0x3c, 0x63, 0x83, 0x56, 0x80, 0x3c, 
	0x30, 0x0a, 0x90, 0x3b, 0x63, 0x83, 0x56, 0x80, 
	0x3b, 0x30, 0x0a, 0x90, 0x3c, 0x63, 0x83, 0x56, 
	0x80, 0x3c, 0x30, 0x0a, 0x90, 0x43, 0x63, 0x8b, 
	0x16, 0x80, 0x43, 0x30, 0x87, 0x4a, 0x90, 0x3c, 
	0x63, 0x83, 0x56, 0x80, 0x3c, 0x30, 0x0a, 0x90, 
	0x3b, 0x63, 0x83, 0x56, 0x80, 0x3b, 0x30, 0x0a, 
	0x90, 0x3c, 0x63, 0x83, 0x56, 0x80, 0x3c, 0x30, 
	0x0a, 0x90, 0x48, 0x63, 0x83, 0x56, 0x80, 0x48, 
	0x30, 0x83, 0x6a, 0x90, 0x45, 0x63, 0x83, 0x56, 
	0x80, 0x45, 0x30, 0x87, 0x4a, 0x90, 0x3c, 0x63, 
	0x83, 0x56, 0x80, 0x3c, 0x30, 0x0a, 0x90, 0x3b, 
	0x63, 0x83, 0x56, 0x80, 0x3b, 0x30, 0x0a, 0x90, 
	0x3c, 0x63, 0x83, 0x56, 0x80, 0x3c, 0x30, 0x0a, 
	0x90, 0x45, 0x63, 0x8b, 0x16, 0x80, 0x45, 0x30, 
	0x87, 0x4a, 0x90, 0x3c, 0x63, 0x83, 0x56, 0x80, 
	0x3c, 0x30, 0x0a, 0x90, 0x3b, 0x63, 0x83, 0x56, 
	0x80, 0x3b, 0x30, 0x0a, 0x90, 0x3c, 0x63, 0x83, 
	0x56, 0x80, 0x3c, 0x30, 0x0a, 0x90, 0x43, 0x63, 
	0x8b, 0x16, 0x80, 0x43, 0x30, 0x87, 0x4a, 0x90, 
	0x3c, 0x63, 0x83, 0x56, 0x80, 0x3c, 0x30, 0x0a, 
	0x90, 0x3b, 0x63, 0x83, 0x56, 0x80, 0x3b, 0x30, 
	0x0a, 0x90, 0x3c, 0x63, 0x83, 0x56, 0x80, 0x3c, 
	0x30, 0x0a, 0x90, 0x43, 0x63, 0x8b, 0x16, 0x80, 
	0x43, 0x30, 0x87, 0x4a, 0x90, 0x3c, 0x63, 0x83, 
	0x56, 0x80, 0x3c, 0x30, 0x0a, 0x90, 0x3b, 0x63, 
	0x83, 0x56, 0x80, 0x3b, 0x30, 0x0a, 0x90, 0x3c, 
	0x63, 0x83, 0x56, 0x80, 0x3c, 0x30, 0x0a, 0x90, 
	0x48, 0x63, 0x83, 0x56, 0x80, 0x48, 0x30, 0x83, 
	0x6a, 0x90, 0x45, 0x63, 0x83, 0x56, 0x80, 0x45, 
	0x30, 0x88, 0x06, 0x90, 0x3c, 0x63, 0x83, 0x56, 
	0x80, 0x3c, 0x30, 0x0a, 0x90, 0x3b, 0x63, 0x83, 
	0x56, 0x80, 0x3b, 0x30, 0x0a, 0x90, 0x3c, 0x63, 
	0x83, 0x24, 0x90, 0x1d, 0x54, 0x00, 0x90, 0x35, 
	0x3a, 0x32, 0x80, 0x3c, 0x30, 0x83, 0x24, 0x80, 
	0x35, 0x30, 0x00, 0x80, 0x1d, 0x30, 0x0a, 0x90, 
	0x29, 0x54, 0x00, 0x90, 0x30, 0x3a, 0x83, 0x56, 
	0x80, 0x30, 0x30, 0x00, 0x80, 0x29, 0x30, 0x0a, 
	0x90, 0x1d, 0x54, 0x00, 0x90, 0x35, 0x3a, 0x83, 
	0x56, 0x80, 0x35, 0x30, 0x00, 0x80, 0x1d, 0x30, 
	0x0a, 0x90, 0x29, 0x54, 0x00, 0x90, 0x39, 0x3a, 
	0x83, 0x56, 0x80, 0x39, 0x30, 0x00, 0x80, 0x29, 
	0x30, 0x0a, 0x90, 0x1d, 0x54, 0x00, 0x90, 0x35, 
	0x3a, 0x83, 0x56, 0x80, 0x35, 0x30, 0x00, 0x80, 
	0x1d, 0x30, 0x0a, 0x90, 0x29, 0x54, 0x00, 0x90, 
	0x39, 0x3a, 0x83, 0x56, 0x80, 0x39, 0x30, 0x00, 
	0x80, 0x29, 0x30, 0x0a, 0x90, 0x1d, 0x54, 0x00, 
	0x90, 0x3c, 0x3a, 0x83, 0x56, 0x80, 0x3c, 0x30, 
	0x00, 0x80, 0x1d, 0x30, 0x0a, 0x90, 0x29, 0x54, 
	0x00, 0x90, 0x39, 0x3a, 0x83, 0x56, 0x80, 0x39, 
	0x30, 0x00, 0x80, 0x29, 0x30, 0x0a, 0x90, 0x24, 
	0x54, 0x00, 0x90, 0x3c, 0x3a, 0x83, 0x56, 0x80, 
	0x3c, 0x30, 0x00, 0x80, 0x24, 0x30, 0x0a, 0x90, 
	0x30, 0x54, 0x00, 0x90, 0x37, 0x3a, 0x83, 0x56, 
	0x80, 0x37, 0x30, 0x00, 0x80, 0x30, 0x30, 0x0a, 
	0x90, 0x24, 0x54, 0x00, 0x90, 0x3c, 0x3a, 0x83, 
	0x56, 0x80, 0x3c, 0x30, 0x00, 0x80, 0x24, 0x30, 
	0x0a, 0x90, 0x30, 0x54, 0x00, 0x90, 0x40, 0x3a, 
	0x83, 0x56, 0x80, 0x40, 0x30, 0x00, 0x80, 0x30, 
	0x30, 0x0a, 0x90, 0x24, 0x54, 0x00, 0x90, 0x3c, 
	0x3a, 0x83, 0x56, 0x80, 0x3c, 0x30, 0x00, 0x80, 
	0x24, 0x30, 0x0a, 0x90, 0x30, 0x54, 0x00, 0x90, 
	0x40, 0x3a, 0x83, 0x56, 0x80, 0x40, 0x30, 0x00, 
	0x80, 0x30, 0x30, 0x0a, 0x90, 0x24, 0x54, 0x00, 
	0x90, 0x43, 0x3a, 0x83, 0x56, 0x80, 0x43, 0x30, 
	0x00, 0x80, 0x24, 0x30, 0x0a, 0x90, 0x30, 0x54, 
	0x00, 0x90, 0x40, 0x3a, 0x83, 0x56, 0x80, 0x40, 
	0x30, 0x00, 0x80, 0x30, 0x30, 0x0a, 0x90, 0x1f, 
	0x54, 0x00, 0x90, 0x37, 0x3b, 0x83, 0x56, 0x80, 
	0x37, 0x30, 0x00, 0x80, 0x1f, 0x30, 0x0a, 0x90, 
	0x2b, 0x54, 0x00, 0x90, 0x32, 0x3b, 0x83, 0x56, 
	0x80, 0x32, 0x30, 0x00, 0x80, 0x2b, 0x30, 0x0a, 
	0x90, 0x1f, 0x54, 0x00, 0x90, 0x37, 0x3b, 0x83, 
	0x56, 0x80, 0x37, 0x30, 0x00, 0x80, 0x1f, 0x30, 
	0x0a, 0x90, 0x2b, 0x54, 0x00, 0x90, 0x3b, 0x3b, 
	0x83, 0x56, 0x80, 0x3b, 0x30, 0x00, 0x80, 0x2b, 
	0x30, 0x0a, 0x90, 0x1f, 0x54, 0x00, 0x90, 0x37, 
	0x3b, 0x83, 0x56, 0x80, 0x37, 0x30, 0x00, 0x80, 
	0x1f, 0x30, 0x0a, 0x90, 0x2b, 0x54, 0x00, 0x90, 
	0x3b, 0x3b, 0x83, 0x56, 0x80, 0x3b, 0x30, 0x00, 
	0x80, 0x2b, 0x30, 0x0a, 0x90, 0x1f, 0x54, 0x00, 
	0x90, 0x3e, 0x3b, 0x83, 0x56, 0x80, 0x3e, 0x30, 
	0x00, 0x80, 0x1f, 0x30, 0x0a, 0x90, 0x2b, 0x54, 
	0x00, 0x90, 0x3b, 0x3b, 0x83, 0x56, 0x80, 0x3b, 
	0x30, 0x00, 0x80, 0x2b, 0x30, 0x0a, 0x90, 0x21, 
	0x54, 0x00, 0x90, 0x39, 0x3b, 0x83, 0x56, 0x80, 
	0x39, 0x30, 0x00, 0x80, 0x21, 0x30, 0x0a, 0x90, 
	0x2d, 0x54, 0x00, 0x90, 0x34, 0x3b, 0x83, 0x56, 
	0x80, 0x34, 0x30, 0x00, 0x80, 0x2d, 0x30, 0x0a, 
	0x90, 0x21, 0x54, 0x00, 0x90, 0x39, 0x3b, 0x83, 
	0x56, 0x80, 0x39, 0x30, 0x00, 0x80, 0x21, 0x30, 
	0x0a, 0x90, 0x2d, 0x54, 0x00, 0x90, 0x3c, 0x3b, 
	0x83, 0x56, 0x80, 0x3c, 0x30, 0x00, 0x80, 0x2d, 
	0x30, 0x0a, 0x90, 0x21, 0x54, 0x00, 0x90, 0x39, 
	0x3b, 0x83, 0x56, 0x80, 0x39, 0x30, 0x00, 0x80, 
	0x21, 0x30, 0x0a, 0x90, 0x2d, 0x54, 0x00, 0x90, 
	0x3c, 0x3b, 0x83, 0x56, 0x80, 0x3c, 0x30, 0x00, 
	0x80, 0x2d, 0x30, 0x0a, 0x90, 0x21, 0x54, 0x00, 
	0x90, 0x40, 0x3b, 0x83, 0x56, 0x80, 0x40, 0x30, 
	0x00, 0x80, 0x21, 0x30, 0x0a, 0x90, 0x2d, 0x54, 
	0x00, 0x90, 0x3c, 0x3b, 0x83, 0x56, 0x80, 0x3c, 
	0x30, 0x00, 0x80, 0x2d, 0x30, 0x0a, 0x90, 0x1d, 
	0x54, 0x00, 0x90, 0x35, 0x3a, 0x83, 0x56, 0x80, 
	0x35, 0x30, 0x00, 0x80, 0x1d, 0x30, 0x0a, 0x90, 
	0x29, 0x54, 0x00, 0x90, 0x30, 0x3a, 0x83, 0x56, 
	0x80, 0x30, 0x30, 0x00, 0x80, 0x29, 0x30, 0x0a, 
	0x90, 0x1d, 0x54, 0x00, 0x90, 0x35, 0x3a, 0x83, 
	0x56, 0x80, 0x35, 0x30, 0x00, 0x80, 0x1d, 0x30, 
	0x0a, 0x90, 0x29, 0x54, 0x00, 0x90, 0x39, 0x3a, 
	0x83, 0x56, 0x80, 0x39, 0x30, 0x00, 0x80, 0x29, 
	0x30, 0x0a, 0x90, 0x1d, 0x54, 0x00, 0x90, 0x35, 
	0x3a, 0x83, 0x56, 0x80, 0x35, 0x30, 0x00, 0x80, 
	0x1d, 0x30, 0x0a, 0x90, 0x29, 0x54, 0x00, 0x90, 
	0x39, 0x3a, 0x83, 0x56, 0x80, 0x39, 0x30, 0x00, 
	0x80, 0x29, 0x30, 0x0a, 0x90, 0x1d, 0x54, 0x00, 
	0x90, 0x3c, 0x3a, 0x83, 0x56, 0x80, 0x3c, 0x30, 
	0x00, 0x80, 0x1d, 0x30, 0x0a, 0x90, 0x29, 0x54, 
	0x00, 0x90, 0x39, 0x3a, 0x83, 0x56, 0x80, 0x39, 
	0x30, 0x00, 0x80, 0x29, 0x30, 0x0a, 0x90, 0x24, 
	0x54, 0x00, 0x90, 0x3c, 0x3a, 0x83, 0x56, 0x80, 
	0x3c, 0x30, 0x00, 0x80, 0x24, 0x30, 0x0a, 0x90, 
	0x30, 0x54, 0x00, 0x90, 0x37, 0x3a, 0x83, 0x56, 
	0x80, 0x37, 0x30, 0x00, 0x80, 0x30, 0x30, 0x0a, 
	0x90, 0x24, 0x54, 0x00, 0x90, 0x3c, 0x3a, 0x83, 
	0x56, 0x80, 0x3c, 0x30, 0x00, 0x80, 0x24, 0x30, 
	0x0a, 0x90, 0x30, 0x54, 0x00, 0x90, 0x40, 0x3a, 
	0x83, 0x56, 0x80, 0x40, 0x30, 0x00, 0x80, 0x30, 
	0x30, 0x0a, 0x90, 0x24, 0x54, 0x00, 0x90, 0x3c, 
	0x3a, 0x83, 0x56, 0x80, 0x3c, 0x30, 0x00, 0x80, 
	0x24, 0x30, 0x0a, 0x90, 0x30, 0x54, 0x00, 0x90, 
	0x40, 0x3a, 0x83, 0x56, 0x80, 0x40, 0x30, 0x00, 
	0x80, 0x30, 0x30, 0x0a, 0x90, 0x24, 0x54, 0x00, 
	0x90, 0x43, 0x3a, 0x83, 0x56, 0x80, 0x43, 0x30, 
	0x00, 0x80, 0x24, 0x30, 0x0a, 0x90, 0x30, 0x54, 
	0x00, 0x90, 0x40, 0x3a, 0x83, 0x56, 0x80, 0x40, 
	0x30, 0x00, 0x80, 0x30, 0x30, 0x0a, 0x90, 0x1f, 
	0x54, 0x00, 0x90, 0x37, 0x3b, 0x83, 0x56, 0x80, 
	0x37, 0x30, 0x00, 0x80, 0x1f, 0x30, 0x0a, 0x90, 
	0x2b, 0x54, 0x00, 0x90, 0x32, 0x3b, 0x83, 0x56, 
	0x80, 0x32, 0x30, 0x00, 0x80, 0x2b, 0x30, 0x0a, 
	0x90, 0x1f, 0x54, 0x00, 0x90, 0x37, 0x3b, 0x83, 
	0x56, 0x80, 0x37, 0x30, 0x00, 0x80, 0x1f, 0x30, 
	0x0a, 0x90, 0x2b, 0x54, 0x00, 0x90, 0x3b, 0x3b, 
	0x83, 0x56, 0x80, 0x3b, 0x30, 0x00, 0x80, 0x2b, 
	0x30, 0x0a, 0x90, 0x1f, 0x54, 0x00, 0x90, 0x37, 
	0x3b, 0x83, 0x56, 0x80, 0x37, 0x30, 0x00, 0x80, 
	0x1f, 0x30, 0x0a, 0x90, 0x2b, 0x54, 0x00, 0x90, 
	0x3b, 0x3b, 0x83, 0x56, 0x80, 0x3b, 0x30, 0x00, 
	0x80, 0x2b, 0x30, 0x0a, 0x90, 0x1f, 0x54, 0x00, 
	0x90, 0x3e, 0x3b, 0x83, 0x56, 0x80, 0x3e, 0x30, 
	0x00, 0x80, 0x1f, 0x30, 0x0a, 0x90, 0x2b, 0x54, 
	0x00, 0x90, 0x3b, 0x3b, 0x83, 0x56, 0x80, 0x3b, 
	0x30, 0x00, 0x80, 0x2b, 0x30, 0x0a, 0x90, 0x1f, 
	0x54, 0x00, 0x90, 0x39, 0x3b, 0x83, 0x56, 0x80, 
	0x39, 0x30, 0x00, 0x80, 0x1f, 0x30, 0x0a, 0x90, 
	0x2b, 0x54, 0x00, 0x90, 0x34, 0x3b, 0x81, 0x2a, 
	0x80, 0x2b, 0x30, 0x46, 0x90, 0x2b, 0x54, 0x81, 
	0x2a, 0x80, 0x2b, 0x30, 0x3c, 0x80, 0x34, 0x30, 
	0x0a, 0x90, 0x1f, 0x54, 0x00, 0x90, 0x39, 0x3b, 
	0x83, 0x56, 0x80, 0x39, 0x30, 0x00, 0x80, 0x1f, 
	0x30, 0x0a, 0x90, 0x2b, 0x54, 0x00, 0x90, 0x3c, 
	0x3b, 0x81, 0x2a, 0x80, 0x2b, 0x30, 0x46, 0x90, 
	0x2b, 0x54, 0x81, 0x2a, 0x80, 0x2b, 0x30, 0x3c, 
	0x80, 0x3c, 0x30, 0x0a, 0x90, 0x2b, 0x54, 0x00, 
	0x90, 0x39, 0x3b, 0x81, 0x2a, 0x80, 0x2b, 0x30, 
	0x46, 0x90, 0x2b, 0x54, 0x81, 0x2a, 0x80, 0x2b, 
	0x30, 0x3c, 0x80, 0x39, 0x30, 0x0a, 0x90, 0x2b, 
	0x54, 0x00, 0x90, 0x3c, 0x3b, 0x82, 0x22, 0x80, 
	0x2b, 0x30, 0x81, 0x34, 0x80, 0x3c, 0x30, 0x0a, 
	0x90, 0x2b, 0x54, 0x00, 0x90, 0x40, 0x3b, 0x83, 
	0x1a, 0x80, 0x2b, 0x30, 0x3c, 0x80, 0x40, 0x30, 
	0x0a, 0x90, 0x1f, 0x54, 0x00, 0x90, 0x3c, 0x3b, 
	0x83, 0x56, 0x80, 0x3c, 0x30, 0x00, 0x80, 0x1f, 
	0x30, 0x0a, 0x90, 0x21, 0x54, 0x83, 0x56, 0x80, 
	0x21, 0x30, 0x0a, 0x90, 0x2d, 0x54, 0x83, 0x56, 
	0x80, 0x2d, 0x30, 0x87, 0x4a, 0x90, 0x21, 0x54, 
	0x83, 0x56, 0x80, 0x21, 0x30, 0x0a, 0x90, 0x2d, 
	0x54, 0x83, 0x56, 0x80, 0x2d, 0x30, 0x83, 0x6a, 
	0x90, 0x2d, 0x63, 0x83, 0x56, 0x80, 0x2d, 0x30, 
	0x0a, 0x90, 0x1d, 0x54, 0x00, 0x90, 0x35, 0x63, 
	0x83, 0x56, 0x80, 0x1d, 0x30, 0x0a, 0x90, 0x29, 
	0x54, 0x83, 0x1a, 0x80, 0x29, 0x30, 0x46, 0x90, 
	0x29, 0x54, 0x81, 0x2a, 0x80, 0x29, 0x30, 0x46, 
	0x90, 0x29, 0x54, 0x81, 0x2a, 0x80, 0x29, 0x30, 
	0x3c, 0x80, 0x35, 0x30, 0x0a, 0x90, 0x29, 0x54, 
	0x83, 0x1a, 0x80, 0x29, 0x30, 0x46, 0x90, 0x1d, 
	0x54, 0x83, 0x56, 0x80, 0x1d, 0x30, 0x0a, 0x90, 
	0x29, 0x54, 0x83, 0x56, 0x80, 0x29, 0x30, 0x83, 
	0x6a, 0x90, 0x30, 0x63, 0x83, 0x56, 0x80, 0x30, 
	0x30, 0x0a, 0x90, 0x24, 0x54, 0x00, 0x90, 0x34, 
	0x63, 0x83, 0x56, 0x80, 0x24, 0x30, 0x0a, 0x90, 
	0x30, 0x54, 0x83, 0x56, 0x80, 0x30, 0x30, 0x0a, 
	0x90, 0x24, 0x54, 0x83, 0x56, 0x80, 0x34, 0x30, 
	0x00, 0x80, 0x24, 0x30, 0x0a, 0x90, 0x30, 0x54, 
	0x83, 0x56, 0x80, 0x30, 0x30, 0x0a, 0x90, 0x24, 
	0x54, 0x83, 0x56, 0x80, 0x24, 0x30, 0x0a, 0x90, 
	0x30, 0x54, 0x83, 0x56, 0x80, 0x30, 0x30, 0x0a, 
	0x90, 0x24, 0x54, 0x83, 0x56, 0x80, 0x24, 0x30, 
	0x0a, 0x90, 0x30, 0x54, 0x00, 0x90, 0x2b, 0x63, 
	0x83, 0x56, 0x80, 0x2b, 0x30, 0x00, 0x80, 0x30, 
	0x30, 0x0a, 0x90, 0x1f, 0x54, 0x00, 0x90, 0x32, 
	0x63, 0x83, 0x56, 0x80, 0x1f, 0x30, 0x0a, 0x90, 
	0x2b, 0x54, 0x83, 0x56, 0x80, 0x2b, 0x30, 0x0a, 
	0x90, 0x1f, 0x54, 0x83, 0x56, 0x80, 0x32, 0x30, 
	0x00, 0x80, 0x1f, 0x30, 0x0a, 0x90, 0x2b, 0x54, 
	0x83, 0x56, 0x80, 0x2b, 0x30, 0x0a, 0x90, 0x2b, 
	0x63, 0x89, 0x26, 0x80, 0x2b, 0x30, 0x81, 0x7a, 
	0x90, 0x2b, 0x63, 0x83, 0x56, 0x80, 0x2b, 0x30, 
	0x0a, 0x90, 0x2d, 0x63, 0x83, 0x60, 0x90, 0x2d, 
	0x54, 0x81, 0x2a, 0x80, 0x2d, 0x30, 0x82, 0x36, 
	0x90, 0x2d, 0x54, 0x81, 0x2a, 0x80, 0x2d, 0x30, 
	0x46, 0x90, 0x2d, 0x54, 0x81, 0x2a, 0x80, 0x2d, 
	0x30, 0x3c, 0x80, 0x2d, 0x30, 0x0a, 0x90, 0x2d, 
	0x54, 0x81, 0x2a, 0x80, 0x2d, 0x30, 0x46, 0x90, 
	0x2d, 0x54, 0x81, 0x2a, 0x80, 0x2d, 0x30, 0x46, 
	0x90, 0x21, 0x54, 0x83, 0x56, 0x80, 0x21, 0x30, 
	0x0a, 0x90, 0x2d, 0x54, 0x83, 0x56, 0x80, 0x2d, 
	0x30, 0x0a, 0x90, 0x21, 0x54, 0x00, 0x90, 0x34, 
	0x63, 0x81, 0x66, 0x80, 0x34, 0x30, 0x81, 0x70, 
	0x80, 0x21, 0x30, 0x0a, 0x90, 0x2d, 0x54, 0x00, 
	0x90, 0x34, 0x63, 0x83, 0x56, 0x80, 0x34, 0x30, 
	0x00, 0x80, 0x2d, 0x30, 0x0a, 0x90, 0x1d, 0x54, 
	0x00, 0x90, 0x35, 0x63, 0x83, 0x56, 0x80, 0x1d, 
	0x30, 0x0a, 0x90, 0x29, 0x54, 0x83, 0x56, 0x80, 
	0x29, 0x30, 0x0a, 0x90, 0x1d, 0x54, 0x83, 0x56, 
	0x80, 0x35, 0x30, 0x00, 0x80, 0x1d, 0x30, 0x0a, 
	0x90, 0x29, 0x54, 0x83, 0x56, 0x80, 0x29, 0x30, 
	0x0a, 0x90, 0x1d, 0x54, 0x83, 0x56, 0x80, 0x1d, 
	0x30, 0x0a, 0x90, 0x29, 0x54, 0x83, 0x56, 0x80, 
	0x29, 0x30, 0x0a, 0x90, 0x1d, 0x54, 0x00, 0x90, 
	0x35, 0x63, 0x83, 0x56, 0x80, 0x35, 0x30, 0x00, 
	0x80, 0x1d, 0x30, 0x0a, 0x90, 0x29, 0x54, 0x83, 
	0x56, 0x80, 0x29, 0x30, 0x0a, 0x90, 0x24, 0x54, 
	0x00, 0x90, 0x34, 0x63, 0x83, 0x56, 0x80, 0x34, 
	0x30, 0x00, 0x80, 0x24, 0x30, 0x0a, 0x90, 0x30, 
	0x54, 0x83, 0x56, 0x80, 0x30, 0x30, 0x0a, 0x90, 
	0x24, 0x54, 0x00, 0x90, 0x30, 0x63, 0x83, 0x56, 
	0x80, 0x30, 0x30, 0x00, 0x80, 0x24, 0x30, 0x0a, 
	0x90, 0x30, 0x54, 0x83, 0x56, 0x80, 0x30, 0x30, 
	0x0a, 0x90, 0x24, 0x54, 0x00, 0x90, 0x2b, 0x63, 
	0x83, 0x56, 0x80, 0x24, 0x30, 0x0a, 0x90, 0x30, 
	0x54, 0x83, 0x56, 0x80, 0x30, 0x30, 0x0a, 0x90, 
	0x24, 0x54, 0x81, 0x66, 0x80, 0x2b, 0x30, 0x81, 
	0x70, 0x80, 0x24, 0x30, 0x0a, 0x90, 0x30, 0x54, 
	0x00, 0x90, 0x37, 0x63, 0x83, 0x56, 0x80, 0x37, 
	0x30, 0x00, 0x80, 0x30, 0x30, 0x0a, 0x90, 0x1f, 
	0x54, 0x00, 0x90, 0x32, 0x63, 0x83, 0x56, 0x80, 
	0x32, 0x30, 0x00, 0x80, 0x1f, 0x30, 0x0a, 0x90, 
	0x2b, 0x54, 0x83, 0x56, 0x80, 0x2b, 0x30, 0x0a, 
	0x90, 0x1f, 0x54, 0x00, 0x90, 0x2b, 0x63, 0x83, 
	0x60, 0x90, 0x2b, 0x54, 0x6e, 0x80, 0x1f, 0x30, 
	0x82, 0x72, 0x90, 0x1f, 0x54, 0x6e, 0x80, 0x2b, 
	0x30, 0x82, 0x68, 0x80, 0x2b, 0x30, 0x78, 0x80, 
	0x1f, 0x30, 0x82, 0x72, 0x90, 0x30, 0x63, 0x83, 
	0x56, 0x80, 0x30, 0x30, 0x0a, 0x90, 0x2f, 0x63, 
	0x83, 0x56, 0x80, 0x2f, 0x30, 0x0a, 0x90, 0x21, 
	0x54, 0x00, 0x90, 0x30, 0x63, 0x83, 0x56, 0x80, 
	0x21, 0x30, 0x0a, 0x90, 0x2d, 0x54, 0x83, 0x56, 
	0x80, 0x30, 0x30, 0x00, 0x80, 0x2d, 0x30, 0x0a, 
	0x90, 0x21, 0x54, 0x00, 0x90, 0x2d, 0x63, 0x83, 
	0x56, 0x80, 0x21, 0x30, 0x0a, 0x90, 0x2d, 0x54, 
	0x83, 0x56, 0x80, 0x2d, 0x30, 0x0a, 0x90, 0x21, 
	0x54, 0x83, 0x56, 0x80, 0x2d, 0x30, 0x00, 0x80, 
	0x21, 0x30, 0x0a, 0x90, 0x2d, 0x54, 0x83, 0x56, 
	0x80, 0x2d, 0x30, 0x0a, 0x90, 0x21, 0x54, 0x83, 
	0x56, 0x80, 0x21, 0x30, 0x0a, 0x90, 0x2d, 0x54, 
	0x00, 0x90, 0x43, 0x63, 0x83, 0x56, 0x80, 0x43, 
	0x30, 0x00, 0x80, 0x2d, 0x30, 0x0a, 0x90, 0x1d, 
	0x54, 0x00, 0x90, 0x45, 0x63, 0x83, 0x56, 0x80, 
	0x1d, 0x30, 0x0a, 0x90, 0x29, 0x54, 0x83, 0x56, 
	0x80, 0x29, 0x30, 0x0a, 0x90, 0x1d, 0x54, 0x83, 
	0x56, 0x80, 0x45, 0x30, 0x00, 0x80, 0x1d, 0x30, 
	0x0a, 0x90, 0x29, 0x54, 0x83, 0x56, 0x80, 0x29, 
	0x30, 0x0a, 0x90, 0x1d, 0x54, 0x83, 0x56, 0x80, 
	0x1d, 0x30, 0x0a, 0x90, 0x29, 0x54, 0x83, 0x56, 
	0x80, 0x29, 0x30, 0x0a, 0x90, 0x1d, 0x54, 0x00, 
	0x90, 0x48, 0x63, 0x83, 0x56, 0x80, 0x48, 0x30, 
	0x00, 0x80, 0x1d, 0x30, 0x0a, 0x90, 0x29, 0x54, 
	0x00, 0x90, 0x45, 0x63, 0x83, 0x56, 0x80, 0x45, 
	0x30, 0x00, 0x80, 0x29, 0x30, 0x0a, 0x90, 0x24, 
	0x54, 0x00, 0x90, 0x43, 0x63, 0x83, 0x56, 0x80, 
	0x24, 0x30, 0x0a, 0x90, 0x30, 0x54, 0x83, 0x56, 
	0x80, 0x30, 0x30, 0x0a, 0x90, 0x24, 0x54, 0x83, 
	0x56, 0x80, 0x43, 0x30, 0x00, 0x80, 0x24, 0x30, 
	0x0a, 0x90, 0x30, 0x54, 0x83, 0x56, 0x80, 0x30, 
	0x30, 0x0a, 0x90, 0x24, 0x54, 0x83, 0x56, 0x80, 
	0x24, 0x30, 0x0a, 0x90, 0x30, 0x54, 0x83, 0x56, 
	0x80, 0x30, 0x30, 0x0a, 0x90, 0x24, 0x54, 0x83, 
	0x56, 0x80, 0x24, 0x30, 0x0a, 0x90, 0x30, 0x54, 
	0x00, 0x90, 0x48, 0x63, 0x83, 0x56, 0x80, 0x48, 
	0x30, 0x00, 0x80, 0x30, 0x30, 0x0a, 0x90, 0x1f, 
	0x54, 0x00, 0x90, 0x4a, 0x63, 0x83, 0x56, 0x80, 
	0x1f, 0x30, 0x0a, 0x90, 0x2b, 0x54, 0x83, 0x56, 
	0x80, 0x2b, 0x30, 0x0a, 0x90, 0x1f, 0x54, 0x83, 
	0x56, 0x80, 0x4a, 0x30, 0x00, 0x80, 0x1f, 0x30, 
	0x0a, 0x90, 0x2b, 0x54, 0x00, 0x90, 0x48, 0x63, 
	0x83, 0x56, 0x80, 0x2b, 0x30, 0x0a, 0x90, 0x1f, 
	0x54, 0x83, 0x56, 0x80, 0x1f, 0x30, 0x0a, 0x90, 
	0x2b, 0x54, 0x81, 0x66, 0x80, 0x48, 0x30, 0x81, 
	0x70, 0x80, 0x2b, 0x30, 0x0a, 0x90, 0x1f, 0x54, 
	0x00, 0x90, 0x48, 0x63, 0x83, 0x56, 0x80, 0x48, 
	0x30, 0x00, 0x80, 0x1f, 0x30, 0x0a, 0x90, 0x2b, 
	0x54, 0x00, 0x90, 0x47, 0x63, 0x83, 0x56, 0x80, 
	0x47, 0x30, 0x00, 0x80, 0x2b, 0x30, 0x0a, 0x90, 
	0x21, 0x54, 0x00, 0x90, 0x48, 0x63, 0x83, 0x56, 
	0x80, 0x21, 0x30, 0x0a, 0x90, 0x2d, 0x54, 0x83, 
	0x56, 0x80, 0x48, 0x30, 0x00, 0x80, 0x2d, 0x30, 
	0x0a, 0x90, 0x21, 0x54, 0x00, 0x90, 0x4c, 0x63, 
	0x83, 0x56, 0x80, 0x4c, 0x30, 0x00, 0x80, 0x21, 
	0x30, 0x0a, 0x90, 0x2d, 0x54, 0x83, 0x56, 0x80, 
	0x2d, 0x30, 0x0a, 0x90, 0x21, 0x54, 0x00, 0x90, 
	0x4c, 0x63, 0x83, 0x56, 0x80, 0x4c, 0x30, 0x00, 
	0x80, 0x21, 0x30, 0x0a, 0x90, 0x2d, 0x54, 0x83, 
	0x56, 0x80, 0x2d, 0x30, 0x0a, 0x90, 0x21, 0x54, 
	0x00, 0x90, 0x48, 0x63, 0x83, 0x56, 0x80, 0x48, 
	0x30, 0x00, 0x80, 0x21, 0x30, 0x0a, 0x90, 0x2d, 
	0x54, 0x83, 0x56, 0x80, 0x2d, 0x30, 0x0a, 0x90, 
	0x45, 0x63, 0x8b, 0x16, 0x80, 0x45, 0x30, 0x8b, 
	0x2a, 0x90, 0x4c, 0x63, 0x83, 0x56, 0x80, 0x4c, 
	0x30, 0x0a, 0x90, 0x48, 0x63, 0x83, 0x56, 0x80, 
	0x48, 0x30, 0x0a, 0x90, 0x24, 0x54, 0x00, 0x90, 
	0x45, 0x63, 0x83, 0x56, 0x80, 0x45, 0x30, 0x00, 
	0x80, 0x24, 0x30, 0x0a, 0x90, 0x30, 0x54, 0x00, 
	0x90, 0x43, 0x63, 0x83, 0x56, 0x80, 0x30, 0x30, 
	0x0a, 0x90, 0x24, 0x54, 0x83, 0x56, 0x80, 0x24, 
	0x30, 0x0a, 0x90, 0x30, 0x54, 0x83, 0x56, 0x80, 
	0x43, 0x30, 0x00, 0x80, 0x30, 0x30, 0x0a, 0x90, 
	0x24, 0x54, 0x83, 0x56, 0x80, 0x24, 0x30, 0x0a, 
	0x90, 0x30, 0x54, 0x00, 0x90, 0x43, 0x63, 0x83, 
	0x56, 0x80, 0x43, 0x30, 0x00, 0x80, 0x30, 0x30, 
	0x0a, 0x90, 0x24, 0x54, 0x00, 0x90, 0x43, 0x63, 
	0x83, 0x56, 0x80, 0x43, 0x30, 0x00, 0x80, 0x24, 
	0x30, 0x0a, 0x90, 0x30, 0x54, 0x83, 0x56, 0x80, 
	0x30, 0x30, 0x0a, 0x90, 0x4a, 0x63, 0x89, 0x26, 
	0x80, 0x4a, 0x30, 0x81, 0x7a, 0x90, 0x48, 0x63, 
	0x87, 0x36, 0x80, 0x48, 0x30, 0x0a, 0x90, 0x4a, 
	0x63, 0x87, 0x36, 0x80, 0x4a, 0x30, 0x0a, 0x90, 
	0x47, 0x63, 0x83, 0x56, 0x80, 0x47, 0x30, 0x0a, 
	0x90, 0x48, 0x63, 0x87, 0x36, 0x80, 0x48, 0x30, 
	0x0a, 0x90, 0x45, 0x63, 0x85, 0x46, 0x80, 0x45, 
	0x30, 0x81, 0x7a, 0x90, 0x3c, 0x64, 0x87, 0x36, 
	0x80, 0x3c, 0x30, 0x0a, 0x90, 0x3b, 0x64, 0x83, 
	0x56, 0x80, 0x3b, 0x30, 0x0a, 0x90, 0x3c, 0x64, 
	0x83, 0x60, 0x90, 0x1d, 0x54, 0x83, 0x56, 0x80, 
	0x1d, 0x30, 0x0a, 0x90, 0x29, 0x54, 0x83, 0x56, 
	0x80, 0x29, 0x30, 0x00, 0x80, 0x3c, 0x30, 0x0a, 
	0x90, 0x39, 0x64, 0x00, 0x90, 0x1d, 0x54, 0x83, 
	0x56, 0x80, 0x1d, 0x30, 0x0a, 0x90, 0x29, 0x54, 
	0x83, 0x56, 0x80, 0x29, 0x30, 0x00, 0x80, 0x39, 
	0x30, 0x0a, 0x90, 0x39, 0x64, 0x00, 0x90, 0x1d, 
	0x54, 0x83, 0x56, 0x80, 0x1d, 0x30, 0x00, 0x80, 
	0x39, 0x30, 0x0a, 0x90, 0x3b, 0x64, 0x00, 0x90, 
	0x29, 0x54, 0x83, 0x56, 0x80, 0x29, 0x30, 0x00, 
	0x80, 0x3b, 0x30, 0x0a, 0x90, 0x39, 0x64, 0x00, 
	0x90, 0x1d, 0x54, 0x83, 0x56, 0x80, 0x1d, 0x30, 
	0x00, 0x80, 0x39, 0x30, 0x0a, 0x90, 0x37, 0x64, 
	0x00, 0x90, 0x29, 0x54, 0x83, 0x56, 0x80, 0x29, 
	0x30, 0x00, 0x80, 0x37, 0x30, 0x0a, 0x90, 0x34, 
	0x64, 0x00, 0x90, 0x24, 0x54, 0x83, 0x56, 0x80, 
	0x24, 0x30, 0x0a, 0x90, 0x30, 0x54, 0x83, 0x56, 
	0x80, 0x30, 0x30, 0x0a, 0x90, 0x24, 0x54, 0x83, 
	0x56, 0x80, 0x24, 0x30, 0x0a, 0x90, 0x30, 0x54, 
	0x83, 0x56, 0x80, 0x30, 0x30, 0x00, 0x80, 0x34, 
	0x30, 0x0a, 0x90, 0x3c, 0x64, 0x00, 0x90, 0x24, 
	0x54, 0x83, 0x56, 0x80, 0x24, 0x30, 0x00, 0x80, 
	0x3c, 0x30, 0x0a, 0x90, 0x40, 0x64, 0x00, 0x90, 
	0x30, 0x54, 0x83, 0x56, 0x80, 0x30, 0x30, 0x00, 
	0x80, 0x40, 0x30, 0x0a, 0x90, 0x3e, 0x64, 0x00, 
	0x90, 0x24, 0x54, 0x83, 0x56, 0x80, 0x24, 0x30, 
	0x00, 0x80, 0x3e, 0x30, 0x0a, 0x90, 0x3c, 0x64, 
	0x00, 0x90, 0x30, 0x54, 0x83, 0x56, 0x80, 0x30, 
	0x30, 0x00, 0x80, 0x3c, 0x30, 0x0a, 0x90, 0x37, 
	0x64, 0x00, 0x90, 0x1f, 0x54, 0x83, 0x56, 0x80, 
	0x1f, 0x30, 0x0a, 0x90, 0x2b, 0x54, 0x83, 0x56, 
	0x80, 0x2b, 0x30, 0x0a, 0x90, 0x1f, 0x54, 0x83, 
	0x56, 0x80, 0x1f, 0x30, 0x0a, 0x90, 0x2b, 0x54, 
	0x83, 0x56, 0x80, 0x2b, 0x30, 0x00, 0x80, 0x37, 
	0x30, 0x0a, 0x90, 0x37, 0x64, 0x00, 0x90, 0x1f, 
	0x54, 0x83, 0x56, 0x80, 0x1f, 0x30, 0x00, 0x80, 
	0x37, 0x30, 0x0a, 0x90, 0x3e, 0x64, 0x00, 0x90, 
	0x2b, 0x54, 0x83, 0x56, 0x80, 0x2b, 0x30, 0x00, 
	0x80, 0x3e, 0x30, 0x0a, 0x90, 0x3c, 0x64, 0x00, 
	0x90, 0x1f, 0x54, 0x83, 0x56, 0x80, 0x1f, 0x30, 
	0x00, 0x80, 0x3c, 0x30, 0x0a, 0x90, 0x3b, 0x64, 
	0x00, 0x90, 0x2b, 0x54, 0x83, 0x56, 0x80, 0x2b, 
	0x30, 0x00, 0x80, 0x3b, 0x30, 0x0a, 0x90, 0x3c, 
	0x64, 0x00, 0x90, 0x21, 0x54, 0x83, 0x56, 0x80, 
	0x21, 0x30, 0x00, 0x80, 0x3c, 0x30, 0x0a, 0x90, 
	0x3b, 0x64, 0x00, 0x90, 0x2d, 0x54, 0x83, 0x56, 
	0x80, 0x2d, 0x30, 0x00, 0x80, 0x3b, 0x30, 0x0a, 
	0x90, 0x39, 0x64, 0x00, 0x90, 0x21, 0x54, 0x83, 
	0x56, 0x80, 0x21, 0x30, 0x00, 0x80, 0x39, 0x30, 
	0x0a, 0x90, 0x2d, 0x54, 0x83, 0x56, 0x80, 0x2d, 
	0x30, 0x0a, 0x90, 0x3c, 0x64, 0x00, 0x90, 0x21, 
	0x54, 0x83, 0x56, 0x80, 0x21, 0x30, 0x0a, 0x90, 
	0x2d, 0x54, 0x83, 0x56, 0x80, 0x2d, 0x30, 0x00, 
	0x80, 0x3c, 0x30, 0x0a, 0x90, 0x3b, 0x64, 0x00, 
	0x90, 0x21, 0x54, 0x83, 0x56, 0x80, 0x21, 0x30, 
	0x00, 0x80, 0x3b, 0x30, 0x0a, 0x90, 0x3c, 0x64, 
	0x00, 0x90, 0x2d, 0x54, 0x83, 0x56, 0x80, 0x2d, 
	0x30, 0x0a, 0x90, 0x1d, 0x54, 0x83, 0x56, 0x80, 
	0x1d, 0x30, 0x0a, 0x90, 0x29, 0x54, 0x83, 0x56, 
	0x80, 0x29, 0x30, 0x00, 0x80, 0x3c, 0x30, 0x0a, 
	0x90, 0x39, 0x64, 0x00, 0x90, 0x1d, 0x54, 0x83, 
	0x56, 0x80, 0x1d, 0x30, 0x0a, 0x90, 0x29, 0x54, 
	0x83, 0x56, 0x80, 0x29, 0x30, 0x00, 0x80, 0x39, 
	0x30, 0x0a, 0x90, 0x39, 0x64, 0x00, 0x90, 0x1d, 
	0x54, 0x83, 0x56, 0x80, 0x1d, 0x30, 0x00, 0x80, 
	0x39, 0x30, 0x0a, 0x90, 0x3b, 0x64, 0x00, 0x90, 
	0x29, 0x54, 0x83, 0x56, 0x80, 0x29, 0x30, 0x00, 
	0x80, 0x3b, 0x30, 0x0a, 0x90, 0x39, 0x64, 0x00, 
	0x90, 0x1d, 0x54, 0x83, 0x56, 0x80, 0x1d, 0x30, 
	0x00, 0x80, 0x39, 0x30, 0x0a, 0x90, 0x37, 0x64, 
	0x00, 0x90, 0x29, 0x54, 0x83, 0x56, 0x80, 0x29, 
	0x30, 0x00, 0x80, 0x37, 0x30, 0x0a, 0x90, 0x34, 
	0x64, 0x00, 0x90, 0x24, 0x54, 0x83, 0x56, 0x80, 
	0x24, 0x30, 0x0a, 0x90, 0x30, 0x54, 0x83, 0x56, 
	0x80, 0x30, 0x30, 0x0a, 0x90, 0x24, 0x54, 0x83, 
	0x56, 0x80, 0x24, 0x30, 0x0a, 0x90, 0x30, 0x54, 
	0x83, 0x56, 0x80, 0x30, 0x30, 0x00, 0x80, 0x34, 
	0x30, 0x0a, 0x90, 0x3c, 0x64, 0x00, 0x90, 0x24, 
	0x54, 0x83, 0x56, 0x80, 0x24, 0x30, 0x0a, 0x90, 
	0x30, 0x54, 0x83, 0x56, 0x80, 0x30, 0x30, 0x00, 
	0x80, 0x3c, 0x30, 0x0a, 0x90, 0x3e, 0x64, 0x00, 
	0x90, 0x24, 0x54, 0x83, 0x56, 0x80, 0x24, 0x30, 
	0x00, 0x80, 0x3e, 0x30, 0x0a, 0x90, 0x3e, 0x64, 
	0x00, 0x90, 0x30, 0x54, 0x83, 0x56, 0x80, 0x30, 
	0x30, 0x0a, 0x90, 0x1f, 0x54, 0x83, 0x56, 0x80, 
	0x1f, 0x30, 0x0a, 0x90, 0x2b, 0x54, 0x83, 0x56, 
	0x80, 0x2b, 0x30, 0x00, 0x80, 0x3e, 0x30, 0x0a, 
	0x90, 0x3b, 0x64, 0x00, 0x90, 0x1f, 0x54, 0x83, 
	0x56, 0x80, 0x1f, 0x30, 0x00, 0x80, 0x3b, 0x30, 
	0x0a, 0x90, 0x3e, 0x64, 0x00, 0x90, 0x2b, 0x54, 
	0x83, 0x56, 0x80, 0x2b, 0x30, 0x0a, 0x90, 0x1f, 
	0x54, 0x83, 0x56, 0x80, 0x1f, 0x30, 0x0a, 0x90, 
	0x2b, 0x54, 0x83, 0x56, 0x80, 0x2b, 0x30, 0x00, 
	0x80, 0x3e, 0x30, 0x0a, 0x90, 0x3b, 0x64, 0x00, 
	0x90, 0x1f, 0x54, 0x83, 0x56, 0x80, 0x1f, 0x30, 
	0x00, 0x80, 0x3b, 0x30, 0x0a, 0x90, 0x3c, 0x64, 
	0x00, 0x90, 0x2b, 0x54, 0x83, 0x56, 0x80, 0x2b, 
	0x30, 0x0a, 0x90, 0x21, 0x54, 0x83, 0x56, 0x80, 
	0x21, 0x30, 0x00, 0x80, 0x3c, 0x30, 0x0a, 0x90, 
	0x39, 0x64, 0x00, 0x90, 0x2d, 0x54, 0x83, 0x56, 
	0x80, 0x2d, 0x30, 0x0a, 0x90, 0x21, 0x54, 0x83, 
	0x56, 0x80, 0x21, 0x30, 0x0a, 0x90, 0x2d, 0x54, 
	0x83, 0x56, 0x80, 0x2d, 0x30, 0x0a, 0x90, 0x3c, 
	0x62, 0x00, 0x90, 0x21, 0x54, 0x81, 0x66, 0x80, 
	0x39, 0x30, 0x81, 0x70, 0x80, 0x21, 0x30, 0x0a, 
	0x90, 0x2d, 0x54, 0x83, 0x56, 0x80, 0x2d, 0x30, 
	0x00, 0x80, 0x3c, 0x30, 0x0a, 0x90, 0x3b, 0x62, 
	0x00, 0x90, 0x21, 0x54, 0x83, 0x56, 0x80, 0x21, 
	0x30, 0x00, 0x80, 0x3b, 0x30, 0x0a, 0x90, 0x3c, 
	0x62, 0x00, 0x90, 0x2d, 0x54, 0x83, 0x56, 0x80, 
	0x2d, 0x30, 0x0a, 0x90, 0x1d, 0x54, 0x83, 0x56, 
	0x80, 0x1d, 0x30, 0x0a, 0x90, 0x29, 0x54, 0x83, 
	0x56, 0x80, 0x29, 0x30, 0x00, 0x80, 0x3c, 0x30, 
	0x0a, 0x90, 0x39, 0x62, 0x00, 0x90, 0x1d, 0x54, 
	0x83, 0x56, 0x80, 0x1d, 0x30, 0x0a, 0x90, 0x29, 
	0x54, 0x83, 0x56, 0x80, 0x29, 0x30, 0x00, 0x80, 
	0x39, 0x30, 0x0a, 0x90, 0x39, 0x62, 0x00, 0x90, 
	0x1d, 0x54, 0x83, 0x56, 0x80, 0x1d, 0x30, 0x00, 
	0x80, 0x39, 0x30, 0x0a, 0x90, 0x3b, 0x62, 0x00, 
	0x90, 0x29, 0x54, 0x83, 0x56, 0x80, 0x29, 0x30, 
	0x00, 0x80, 0x3b, 0x30, 0x0a, 0x90, 0x39, 0x62, 
	0x00, 0x90, 0x1d, 0x54, 0x83, 0x56, 0x80, 0x1d, 
	0x30, 0x00, 0x80, 0x39, 0x30, 0x0a, 0x90, 0x37, 
	0x62, 0x00, 0x90, 0x29, 0x54, 0x83, 0x56, 0x80, 
	0x29, 0x30, 0x00, 0x80, 0x37, 0x30, 0x0a, 0x90, 
	0x34, 0x62, 0x00, 0x90, 0x24, 0x54, 0x83, 0x56, 
	0x80, 0x24, 0x30, 0x0a, 0x90, 0x30, 0x54, 0x83, 
	0x56, 0x80, 0x30, 0x30, 0x0a, 0x90, 0x24, 0x54, 
	0x83, 0x56, 0x80, 0x24, 0x30, 0x0a, 0x90, 0x30, 
	0x54, 0x83, 0x56, 0x80, 0x30, 0x30, 0x00, 0x80, 
	0x34, 0x30, 0x0a, 0x90, 0x3c, 0x62, 0x00, 0x90, 
	0x24, 0x54, 0x83, 0x56, 0x80, 0x24, 0x30, 0x00, 
	0x80, 0x3c, 0x30, 0x0a, 0x90, 0x40, 0x62, 0x00, 
	0x90, 0x30, 0x54, 0x83, 0x56, 0x80, 0x30, 0x30, 
	0x00, 0x80, 0x40, 0x30, 0x0a, 0x90, 0x3e, 0x62, 
	0x00, 0x90, 0x24, 0x54, 0x83, 0x56, 0x80, 0x24, 
	0x30, 0x00, 0x80, 0x3e, 0x30, 0x0a, 0x90, 0x3c, 
	0x62, 0x00, 0x90, 0x30, 0x54, 0x83, 0x56, 0x80, 
	0x30, 0x30, 0x00, 0x80, 0x3c, 0x30, 0x0a, 0x90, 
	0x37, 0x62, 0x00, 0x90, 0x1f, 0x54, 0x83, 0x56, 
	0x80, 0x1f, 0x30, 0x0a, 0x90, 0x2b, 0x54, 0x83, 
	0x56, 0x80, 0x2b, 0x30, 0x0a, 0x90, 0x1f, 0x54, 
	0x83, 0x56, 0x80, 0x1f, 0x30, 0x0a, 0x90, 0x2b, 
	0x54, 0x83, 0x56, 0x80, 0x2b, 0x30, 0x00, 0x80, 
	0x37, 0x30, 0x0a, 0x90, 0x37, 0x62, 0x00, 0x90, 
	0x1f, 0x54, 0x83, 0x56, 0x80, 0x1f, 0x30, 0x00, 
	0x80, 0x37, 0x30, 0x0a, 0x90, 0x3e, 0x62, 0x00, 
	0x90, 0x2b, 0x54, 0x83, 0x56, 0x80, 0x2b, 0x30, 
	0x00, 0x80, 0x3e, 0x30, 0x0a, 0x90, 0x3c, 0x62, 
	0x00, 0x90, 0x1f, 0x54, 0x83, 0x56, 0x80, 0x1f, 
	0x30, 0x00, 0x80, 0x3c, 0x30, 0x0a, 0x90, 0x3b, 
	0x62, 0x00, 0x90, 0x2b, 0x54, 0x83, 0x56, 0x80, 
	0x2b, 0x30, 0x00, 0x80, 0x3b, 0x30, 0x0a, 0x90, 
	0x3c, 0x62, 0x00, 0x90, 0x21, 0x54, 0x83, 0x56, 
	0x80, 0x21, 0x30, 0x00, 0x80, 0x3c, 0x30, 0x0a, 
	0x90, 0x3b, 0x62, 0x00, 0x90, 0x2d, 0x54, 0x83, 
	0x56, 0x80, 0x2d, 0x30, 0x00, 0x80, 0x3b, 0x30, 
	0x0a, 0x90, 0x39, 0x62, 0x00, 0x90, 0x21, 0x54, 
	0x83, 0x56, 0x80, 0x21, 0x30, 0x00, 0x80, 0x39, 
	0x30, 0x0a, 0x90, 0x2d, 0x54, 0x83, 0x56, 0x80, 
	0x2d, 0x30, 0x0a, 0x90, 0x3c, 0x63, 0x00, 0x90, 
	0x21, 0x54, 0x83, 0x56, 0x80, 0x21, 0x30, 0x0a, 
	0x90, 0x2d, 0x54, 0x83, 0x56, 0x80, 0x2d, 0x30, 
	0x00, 0x80, 0x3c, 0x30, 0x0a, 0x90, 0x3b, 0x63, 
	0x00, 0x90, 0x21, 0x54, 0x83, 0x56, 0x80, 0x21, 
	0x30, 0x00, 0x80, 0x3b, 0x30, 0x0a, 0x90, 0x3c, 
	0x63, 0x00, 0x90, 0x2d, 0x54, 0x83, 0x56, 0x80, 
	0x2d, 0x30, 0x0a, 0x90, 0x1d, 0x54, 0x83, 0x56, 
	0x80, 0x1d, 0x30, 0x0a, 0x90, 0x29, 0x54, 0x83, 
	0x56, 0x80, 0x29, 0x30, 0x00, 0x80, 0x3c, 0x30, 
	0x0a, 0x90, 0x39, 0x63, 0x00, 0x90, 0x1d, 0x54, 
	0x83, 0x56, 0x80, 0x1d, 0x30, 0x0a, 0x90, 0x29, 
	0x54, 0x83, 0x56, 0x80, 0x29, 0x30, 0x00, 0x80, 
	0x39, 0x30, 0x0a, 0x90, 0x39, 0x63, 0x00, 0x90, 
	0x1d, 0x54, 0x83, 0x56, 0x80, 0x1d, 0x30, 0x00, 
	0x80, 0x39, 0x30, 0x0a, 0x90, 0x3b, 0x63, 0x00, 
	0x90, 0x29, 0x54, 0x83, 0x56, 0x80, 0x29, 0x30, 
	0x00, 0x80, 0x3b, 0x30, 0x0a, 0x90, 0x39, 0x63, 
	0x00, 0x90, 0x1d, 0x54, 0x83, 0x56, 0x80, 0x1d, 
	0x30, 0x00, 0x80, 0x39, 0x30, 0x0a, 0x90, 0x37, 
	0x63, 0x00, 0x90, 0x29, 0x54, 0x83, 0x56, 0x80, 
	0x29, 0x30, 0x00, 0x80, 0x37, 0x30, 0x0a, 0x90, 
	0x34, 0x63, 0x00, 0x90, 0x24, 0x54, 0x83, 0x56, 
	0x80, 0x24, 0x30, 0x0a, 0x90, 0x30, 0x54, 0x83, 
	0x56, 0x80, 0x30, 0x30, 0x0a, 0x90, 0x24, 0x54, 
	0x83, 0x56, 0x80, 0x24, 0x30, 0x0a, 0x90, 0x30, 
	0x54, 0x83, 0x56, 0x80, 0x30, 0x30, 0x00, 0x80, 
	0x34, 0x30, 0x0a, 0x90, 0x3c, 0x63, 0x00, 0x90, 
	0x24, 0x54, 0x83, 0x56, 0x80, 0x24, 0x30, 0x0a, 
	0x90, 0x30, 0x54, 0x83, 0x56, 0x80, 0x30, 0x30, 
	0x00, 0x80, 0x3c, 0x30, 0x0a, 0x90, 0x3e, 0x63, 
	0x00, 0x90, 0x24, 0x54, 0x83, 0x56, 0x80, 0x24, 
	0x30, 0x00, 0x80, 0x3e, 0x30, 0x0a, 0x90, 0x3e, 
	0x63, 0x00, 0x90, 0x30, 0x54, 0x83, 0x56, 0x80, 
	0x30, 0x30, 0x0a, 0x90, 0x1f, 0x52, 0x83, 0x56, 
	0x80, 0x1f, 0x30, 0x0a, 0x90, 0x2b, 0x52, 0x83, 
	0x56, 0x80, 0x2b, 0x30, 0x00, 0x80, 0x3e, 0x30, 
	0x0a, 0x90, 0x3b, 0x63, 0x00, 0x90, 0x1f, 0x52, 
	0x83, 0x56, 0x80, 0x1f, 0x30, 0x00, 0x80, 0x3b, 
	0x30, 0x0a, 0x90, 0x3e, 0x63, 0x00, 0x90, 0x2b, 
	0x53, 0x83, 0x56, 0x80, 0x2b, 0x30, 0x0a, 0x90, 
	0x1f, 0x53, 0x83, 0x56, 0x80, 0x1f, 0x30, 0x0a, 
	0x90, 0x2b, 0x54, 0x83, 0x56, 0x80, 0x2b, 0x30, 
	0x00, 0x80, 0x3e, 0x30, 0x0a, 0x90, 0x3b, 0x63, 
	0x00, 0x90, 0x1f, 0x55, 0x83, 0x56, 0x80, 0x1f, 
	0x30, 0x00, 0x80, 0x3b, 0x30, 0x0a, 0x90, 0x3c, 
	0x63, 0x00, 0x90, 0x2b, 0x54, 0x83, 0x56, 0x80, 
	0x2b, 0x30, 0x0a, 0x90, 0x21, 0x28, 0x83, 0x56, 
	0x80, 0x21, 0x30, 0x00, 0x80, 0x3c, 0x30, 0x0a, 
	0x90, 0x39, 0x63, 0x00, 0x90, 0x2d, 0x2a, 0x83, 
	0x56, 0x80, 0x2d, 0x30, 0x0a, 0x90, 0x21, 0x29, 
	0x83, 0x56, 0x80, 0x21, 0x30, 0x0a, 0x90, 0x2d, 
	0x28, 0x83, 0x56, 0x80, 0x2d, 0x30, 0x0a, 0x90, 
	0x21, 0x27, 0x81, 0x66, 0x80, 0x39, 0x30, 0x81, 
	0x70, 0x80, 0x21, 0x30, 0x0a, 0x90, 0x2d, 0x26, 
	0x83, 0x56, 0x80, 0x2d, 0x30, 0x0a, 0x90, 0x21, 
	0x25, 0x83, 0x56, 0x80, 0x21, 0x30, 0x0a, 0x90, 
	0x2d, 0x24, 0x00, 0x90, 0x2d, 0x64, 0x83, 0x56, 
	0x80, 0x2d, 0x30, 0x00, 0x80, 0x2d, 0x30, 0x0a, 
	0x90, 0x1d, 0x22, 0x00, 0x90, 0x35, 0x64, 0x83, 
	0x56, 0x80, 0x1d, 0x30, 0x0a, 0x90, 0x29, 0x23, 
	0x83, 0x56, 0x80, 0x29, 0x30, 0x0a, 0x90, 0x1d, 
	0x25, 0x83, 0x56, 0x80, 0x35, 0x30, 0x00, 0x80, 
	0x1d, 0x30, 0x0a, 0x90, 0x29, 0x28, 0x83, 0x56, 
	0x80, 0x29, 0x30, 0x0a, 0x90, 0x1d, 0x2a, 0x83, 
	0x56, 0x80, 0x1d, 0x30, 0x0a, 0x90, 0x29, 0x2c, 
	0x83, 0x56, 0x80, 0x29, 0x30, 0x0a, 0x90, 0x1d, 
	0x2e, 0x83, 0x56, 0x80, 0x1d, 0x30, 0x0a, 0x90, 
	0x29, 0x30, 0x00, 0x90, 0x30, 0x64, 0x83, 0x56, 
	0x80, 0x30, 0x30, 0x00, 0x80, 0x29, 0x30, 0x0a, 
	0x90, 0x24, 0x32, 0x00, 0x90, 0x34, 0x64, 0x83, 
	0x56, 0x80, 0x24, 0x30, 0x0a, 0x90, 0x30, 0x34, 
	0x83, 0x56, 0x80, 0x30, 0x30, 0x0a, 0x90, 0x24, 
	0x36, 0x83, 0x56, 0x80, 0x34, 0x30, 0x00, 0x80, 
	0x24, 0x30, 0x0a, 0x90, 0x30, 0x38, 0x83, 0x56, 
	0x80, 0x30, 0x30, 0x0a, 0x90, 0x24, 0x3a, 0x83, 
	0x56, 0x80, 0x24, 0x30, 0x0a, 0x90, 0x30, 0x3c, 
	0x83, 0x56, 0x80, 0x30, 0x30, 0x0a, 0x90, 0x24, 
	0x3d, 0x83, 0x56, 0x80, 0x24, 0x30, 0x0a, 0x90, 
	0x30, 0x3f, 0x00, 0x90, 0x2b, 0x64, 0x83, 0x56, 
	0x80, 0x2b, 0x30, 0x00, 0x80, 0x30, 0x30, 0x0a, 
	0x90, 0x1f, 0x41, 0x00, 0x90, 0x32, 0x64, 0x83, 
	0x56, 0x80, 0x1f, 0x30, 0x0a, 0x90, 0x2b, 0x43, 
	0x83, 0x56, 0x80, 0x2b, 0x30, 0x0a, 0x90, 0x1f, 
	0x45, 0x83, 0x56, 0x80, 0x32, 0x30, 0x00, 0x80, 
	0x1f, 0x30, 0x0a, 0x90, 0x2b, 0x47, 0x83, 0x56, 
	0x80, 0x2b, 0x30, 0x0a, 0x90, 0x1f, 0x49, 0x83, 
	0x56, 0x80, 0x1f, 0x30, 0x0a, 0x90, 0x2b, 0x4b, 
	0x83, 0x56, 0x80, 0x2b, 0x30, 0x0a, 0x90, 0x1f, 
	0x4d, 0x00, 0x90, 0x2b, 0x64, 0x83, 0x56, 0x80, 
	0x2b, 0x30, 0x00, 0x80, 0x1f, 0x30, 0x0a, 0x90, 
	0x2b, 0x4f, 0x83, 0x56, 0x80, 0x2b, 0x30, 0x0a, 
	0x90, 0x21, 0x53, 0x00, 0x90, 0x2d, 0x64, 0x83, 
	0x56, 0x80, 0x21, 0x30, 0x0a, 0x90, 0x2d, 0x53, 
	0x83, 0x56, 0x80, 0x2d, 0x30, 0x0a, 0x90, 0x21, 
	0x53, 0x83, 0x56, 0x80, 0x2d, 0x30, 0x00, 0x80, 
	0x21, 0x30, 0x0a, 0x90, 0x2d, 0x52, 0x83, 0x56, 
	0x80, 0x2d, 0x30, 0x0a, 0x90, 0x21, 0x52, 0x83, 
	0x56, 0x80, 0x21, 0x30, 0x0a, 0x90, 0x2d, 0x51, 
	0x83, 0x56, 0x80, 0x2d, 0x30, 0x0a, 0x90, 0x21, 
	0x51, 0x83, 0x56, 0x80, 0x21, 0x30, 0x0a, 0x90, 
	0x2d, 0x50, 0x00, 0x90, 0x2d, 0x64, 0x83, 0x56, 
	0x80, 0x2d, 0x30, 0x00, 0x80, 0x2d, 0x30, 0x0a, 
	0x90, 0x1d, 0x54, 0x00, 0x90, 0x35, 0x64, 0x83, 
	0x56, 0x80, 0x1d, 0x30, 0x0a, 0x90, 0x29, 0x54, 
	0x83, 0x56, 0x80, 0x29, 0x30, 0x0a, 0x90, 0x1d, 
	0x54, 0x83, 0x56, 0x80, 0x35, 0x30, 0x00, 0x80, 
	0x1d, 0x30, 0x0a, 0x90, 0x29, 0x54, 0x83, 0x56, 
	0x80, 0x29, 0x30, 0x0a, 0x90, 0x1d, 0x54, 0x83, 
	0x56, 0x80, 0x1d, 0x30, 0x0a, 0x90, 0x29, 0x54, 
	0x83, 0x56, 0x80, 0x29, 0x30, 0x0a, 0x90, 0x1d, 
	0x54, 0x00, 0x90, 0x35, 0x64, 0x83, 0x56, 0x80, 
	0x35, 0x30, 0x00, 0x80, 0x1d, 0x30, 0x0a, 0x90, 
	0x29, 0x54, 0x83, 0x56, 0x80, 0x29, 0x30, 0x0a, 
	0x90, 0x24, 0x54, 0x00, 0x90, 0x34, 0x64, 0x83, 
	0x56, 0x80, 0x34, 0x30, 0x00, 0x80, 0x24, 0x30, 
	0x0a, 0x90, 0x30, 0x54, 0x83, 0x56, 0x80, 0x30, 
	0x30, 0x0a, 0x90, 0x24, 0x54, 0x00, 0x90, 0x30, 
	0x64, 0x83, 0x56, 0x80, 0x30, 0x30, 0x00, 0x80, 
	0x24, 0x30, 0x0a, 0x90, 0x30, 0x54, 0x83, 0x56, 
	0x80, 0x30, 0x30, 0x0a, 0x90, 0x24, 0x54, 0x00, 
	0x90, 0x2b, 0x64, 0x83, 0x56, 0x80, 0x24, 0x30, 
	0x0a, 0x90, 0x30, 0x54, 0x83, 0x56, 0x80, 0x2b, 
	0x30, 0x00, 0x80, 0x30, 0x30, 0x0a, 0x90, 0x24, 
	0x54, 0x83, 0x56, 0x80, 0x24, 0x30, 0x0a, 0x90, 
	0x30, 0x54, 0x00, 0x90, 0x37, 0x64, 0x83, 0x56, 
	0x80, 0x37, 0x30, 0x00, 0x80, 0x30, 0x30, 0x0a, 
	0x90, 0x1f, 0x54, 0x00, 0x90, 0x32, 0x64, 0x83, 
	0x56, 0x80, 0x32, 0x30, 0x00, 0x80, 0x1f, 0x30, 
	0x0a, 0x90, 0x2b, 0x54, 0x83, 0x56, 0x80, 0x2b, 
	0x30, 0x0a, 0x90, 0x30, 0x64, 0x87, 0x40, 0x90, 
	0x1f, 0x54, 0x83, 0x56, 0x80, 0x30, 0x30, 0x00, 
	0x80, 0x1f, 0x30, 0x0a, 0x90, 0x2b, 0x54, 0x83, 
	0x56, 0x80, 0x2b, 0x30, 0x0a, 0x90, 0x30, 0x64, 
	0x83, 0x56, 0x80, 0x30, 0x30, 0x0a, 0x90, 0x2f, 
	0x64, 0x83, 0x56, 0x80, 0x2f, 0x30, 0x0a, 0x90, 
	0x21, 0x54, 0x00, 0x90, 0x30, 0x64, 0x83, 0x56, 
	0x80, 0x21, 0x30, 0x0a, 0x90, 0x2d, 0x54, 0x83, 
	0x56, 0x80, 0x30, 0x30, 0x00, 0x80, 0x2d, 0x30, 
	0x0a, 0x90, 0x2d, 0x64, 0x87, 0x40, 0x90, 0x21, 
	0x54, 0x83, 0x56, 0x80, 0x2d, 0x30, 0x00, 0x80, 
	0x21, 0x30, 0x0a, 0x90, 0x2d, 0x54, 0x83, 0x56, 
	0x80, 0x2d, 0x30, 0x83, 0x6a, 0x90, 0x2d, 0x54, 
	0x00, 0x90, 0x40, 0x64, 0x83, 0x56, 0x80, 0x40, 
	0x30, 0x00, 0x80, 0x2d, 0x30, 0x0a, 0x90, 0x1d, 
	0x54, 0x00, 0x90, 0x45, 0x64, 0x83, 0x56, 0x80, 
	0x1d, 0x30, 0x0a, 0x90, 0x29, 0x54, 0x83, 0x56, 
	0x80, 0x29, 0x30, 0x83, 0x60, 0x80, 0x45, 0x30, 
	0x83, 0x6a, 0x90, 0x1d, 0x54, 0x83, 0x56, 0x80, 
	0x1d, 0x30, 0x0a, 0x90, 0x29, 0x54, 0x83, 0x56, 
	0x80, 0x29, 0x30, 0x0a, 0x90, 0x48, 0x63, 0x83, 
	0x56, 0x80, 0x48, 0x30, 0x0a, 0x90, 0x45, 0x63, 
	0x83, 0x56, 0x80, 0x45, 0x30, 0x0a, 0x90, 0x24, 
	0x54, 0x00, 0x90, 0x43, 0x63, 0x83, 0x56, 0x80, 
	0x24, 0x30, 0x0a, 0x90, 0x30, 0x54, 0x83, 0x56, 
	0x80, 0x30, 0x30, 0x0a, 0x90, 0x24, 0x54, 0x81, 
	0x66, 0x80, 0x43, 0x30, 0x81, 0x70, 0x80, 0x24, 
	0x30, 0x0a, 0x90, 0x30, 0x54, 0x83, 0x56, 0x80, 
	0x30, 0x30, 0xa5, 0x4a, 0x90, 0x48, 0x63, 0x83, 
	0x56, 0x80, 0x48, 0x30, 0x0a, 0x90, 0x47, 0x63, 
	0x83, 0x56, 0x80, 0x47, 0x30, 0x0a, 0x90, 0x21, 
	0x54, 0x00, 0x90, 0x48, 0x63, 0x83, 0x56, 0x80, 
	0x21, 0x30, 0x0a, 0x90, 0x2d, 0x54, 0x83, 0x56, 
	0x80, 0x48, 0x30, 0x00, 0x80, 0x2d, 0x30, 0x0a, 
	0x90, 0x21, 0x54, 0x00, 0x90, 0x4c, 0x63, 0x83, 
	0x56, 0x80, 0x4c, 0x30, 0x00, 0x80, 0x21, 0x30, 
	0x0a, 0x90, 0x2d, 0x54, 0x83, 0x56, 0x80, 0x2d, 
	0x30, 0x0a, 0x90, 0x21, 0x54, 0x00, 0x90, 0x4c, 
	0x63, 0x83, 0x56, 0x80, 0x4c, 0x30, 0x00, 0x80, 
	0x21, 0x30, 0x0a, 0x90, 0x2d, 0x54, 0x83, 0x56, 
	0x80, 0x2d, 0x30, 0x0a, 0x90, 0x21, 0x54, 0x00, 
	0x90, 0x48, 0x63, 0x83, 0x56, 0x80, 0x48, 0x30, 
	0x00, 0x80, 0x21, 0x30, 0x0a, 0x90, 0x2d, 0x54, 
	0x83, 0x56, 0x80, 0x2d, 0x30, 0x0a, 0x90, 0x1d, 
	0x54, 0x00, 0x90, 0x45, 0x63, 0x83, 0x56, 0x80, 
	0x1d, 0x30, 0x0a, 0x90, 0x29, 0x54, 0x83, 0x56, 
	0x80, 0x29, 0x30, 0x0a, 0x90, 0x1d, 0x54, 0x83, 
	0x56, 0x80, 0x45, 0x30, 0x00, 0x80, 0x1d, 0x30, 
	0x0a, 0x90, 0x29, 0x54, 0x83, 0x56, 0x80, 0x29, 
	0x30, 0x0a, 0x90, 0x1d, 0x54, 0x83, 0x56, 0x80, 
	0x1d, 0x30, 0x0a, 0x90, 0x29, 0x54, 0x83, 0x56, 
	0x80, 0x29, 0x30, 0x0a, 0x90, 0x1d, 0x54, 0x00, 
	0x90, 0x48, 0x63, 0x83, 0x56, 0x80, 0x48, 0x30, 
	0x00, 0x80, 0x1d, 0x30, 0x0a, 0x90, 0x29, 0x54, 
	0x00, 0x90, 0x48, 0x63, 0x83, 0x56, 0x80, 0x48, 
	0x30, 0x00, 0x80, 0x29, 0x30, 0x0a, 0x90, 0x24, 
	0x54, 0x00, 0x90, 0x45, 0x63, 0x83, 0x56, 0x80, 
	0x45, 0x30, 0x00, 0x80, 0x24, 0x30, 0x0a, 0x90, 
	0x30, 0x54, 0x00, 0x90, 0x43, 0x63, 0x83, 0x56, 
	0x80, 0x43, 0x30, 0x00, 0x80, 0x30, 0x30, 0x0a, 
	0x90, 0x24, 0x54, 0x83, 0x56, 0x80, 0x24, 0x30, 
	0x0a, 0x90, 0x30, 0x54, 0x83, 0x56, 0x80, 0x30, 
	0x30, 0x0a, 0x90, 0x24, 0x54, 0x83, 0x56, 0x80, 
	0x24, 0x30, 0x0a, 0x90, 0x30, 0x54, 0x00, 0x90, 
	0x43, 0x63, 0x83, 0x56, 0x80, 0x43, 0x30, 0x00, 
	0x80, 0x30, 0x30, 0x0a, 0x90, 0x24, 0x54, 0x00, 
	0x90, 0x43, 0x63, 0x83, 0x56, 0x80, 0x43, 0x30, 
	0x00, 0x80, 0x24, 0x30, 0x0a, 0x90, 0x30, 0x54, 
	0x83, 0x56, 0x80, 0x30, 0x30, 0x0a, 0x90, 0x4a, 
	0x63, 0x89, 0x26, 0x80, 0x4a, 0x30, 0x81, 0x7a, 
	0x90, 0x48, 0x63, 0x87, 0x36, 0x80, 0x48, 0x30, 
	0x0a, 0x90, 0x4a, 0x63, 0x87, 0x36, 0x80, 0x4a, 
	0x30, 0x0a, 0x90, 0x47, 0x63, 0x83, 0x56, 0x80, 
	0x47, 0x30, 0x0a, 0x90, 0x48, 0x63, 0x87, 0x36, 
	0x80, 0x48, 0x30, 0x0a, 0x90, 0x45, 0x63, 0x85, 
	0x46, 0x80, 0x45, 0x30, 0x81, 0x7a, 0x90, 0x3c, 
	0x64, 0x87, 0x36, 0x80, 0x3c, 0x30, 0x0a, 0x90, 
	0x3b, 0x64, 0x83, 0x56, 0x80, 0x3b, 0x30, 0x0a, 
	0x90, 0x3c, 0x64, 0x83, 0x60, 0x90, 0x1d, 0x54, 
	0x83, 0x56, 0x80, 0x1d, 0x30, 0x0a, 0x90, 0x29, 
	0x54, 0x83, 0x56, 0x80, 0x29, 0x30, 0x00, 0x80, 
	0x3c, 0x30, 0x0a, 0x90, 0x39, 0x64, 0x00, 0x90, 
	0x1d, 0x54, 0x83, 0x56, 0x80, 0x1d, 0x30, 0x0a, 
	0x90, 0x29, 0x54, 0x83, 0x56, 0x80, 0x29, 0x30, 
	0x00, 0x80, 0x39, 0x30, 0x0a, 0x90, 0x39, 0x64, 
	0x00, 0x90, 0x1d, 0x54, 0x83, 0x56, 0x80, 0x1d, 
	0x30, 0x00, 0x80, 0x39, 0x30, 0x0a, 0x90, 0x3b, 
	0x64, 0x00, 0x90, 0x29, 0x54, 0x83, 0x56, 0x80, 
	0x29, 0x30, 0x00, 0x80, 0x3b, 0x30, 0x0a, 0x90, 
	0x39, 0x64, 0x00, 0x90, 0x1d, 0x54, 0x83, 0x56, 
	0x80, 0x1d, 0x30, 0x00, 0x80, 0x39, 0x30, 0x0a, 
	0x90, 0x37, 0x64, 0x00, 0x90, 0x29, 0x54, 0x83, 
	0x56, 0x80, 0x29, 0x30, 0x00, 0x80, 0x37, 0x30, 
	0x0a, 0x90, 0x34, 0x64, 0x00, 0x90, 0x24, 0x54, 
	0x83, 0x56, 0x80, 0x24, 0x30, 0x0a, 0x90, 0x30, 
	0x54, 0x83, 0x56, 0x80, 0x30, 0x30, 0x0a, 0x90, 
	0x24, 0x54, 0x83, 0x56, 0x80, 0x24, 0x30, 0x0a, 
	0x90, 0x30, 0x54, 0x83, 0x56, 0x80, 0x30, 0x30, 
	0x00, 0x80, 0x34, 0x30, 0x0a, 0x90, 0x3c, 0x64, 
	0x00, 0x90, 0x24, 0x54, 0x83, 0x56, 0x80, 0x24, 
	0x30, 0x00, 0x80, 0x3c, 0x30, 0x0a, 0x90, 0x40, 
	0x64, 0x00, 0x90, 0x30, 0x54, 0x83, 0x56, 0x80, 
	0x30, 0x30, 0x00, 0x80, 0x40, 0x30, 0x0a, 0x90, 
	0x3e, 0x64, 0x00, 0x90, 0x24, 0x54, 0x83, 0x56, 
	0x80, 0x24, 0x30, 0x00, 0x80, 0x3e, 0x30, 0x0a, 
	0x90, 0x3c, 0x64, 0x00, 0x90, 0x30, 0x54, 0x83, 
	0x56, 0x80, 0x30, 0x30, 0x00, 0x80, 0x3c, 0x30, 
	0x0a, 0x90, 0x37, 0x64, 0x00, 0x90, 0x1f, 0x54, 
	0x83, 0x56, 0x80, 0x1f, 0x30, 0x0a, 0x90, 0x2b, 
	0x54, 0x83, 0x56, 0x80, 0x2b, 0x30, 0x0a, 0x90, 
	0x1f, 0x54, 0x83, 0x56, 0x80, 0x1f, 0x30, 0x0a, 
	0x90, 0x2b, 0x54, 0x83, 0x56, 0x80, 0x2b, 0x30, 
	0x00, 0x80, 0x37, 0x30, 0x0a, 0x90, 0x37, 0x64, 
	0x00, 0x90, 0x1f, 0x54, 0x83, 0x56, 0x80, 0x1f, 
	0x30, 0x00, 0x80, 0x37, 0x30, 0x0a, 0x90, 0x3e, 
	0x64, 0x00, 0x90, 0x2b, 0x54, 0x83, 0x56, 0x80, 
	0x2b, 0x30, 0x00, 0x80, 0x3e, 0x30, 0x0a, 0x90, 
	0x3c, 0x64, 0x00, 0x90, 0x1f, 0x54, 0x83, 0x56, 
	0x80, 0x1f, 0x30, 0x00, 0x80, 0x3c, 0x30, 0x0a, 
	0x90, 0x3b, 0x64, 0x00, 0x90, 0x2b, 0x54, 0x83, 
	0x56, 0x80, 0x2b, 0x30, 0x00, 0x80, 0x3b, 0x30, 
	0x0a, 0x90, 0x3c, 0x64, 0x00, 0x90, 0x21, 0x54, 
	0x83, 0x56, 0x80, 0x21, 0x30, 0x00, 0x80, 0x3c, 
	0x30, 0x0a, 0x90, 0x3b, 0x64, 0x00, 0x90, 0x2d, 
	0x54, 0x83, 0x56, 0x80, 0x2d, 0x30, 0x00, 0x80, 
	0x3b, 0x30, 0x0a, 0x90, 0x39, 0x64, 0x00, 0x90, 
	0x21, 0x54, 0x83, 0x56, 0x80, 0x21, 0x30, 0x00, 
	0x80, 0x39, 0x30, 0x0a, 0x90, 0x2d, 0x54, 0x83, 
	0x56, 0x80, 0x2d, 0x30, 0x0a, 0x90, 0x3c, 0x64, 
	0x00, 0x90, 0x21, 0x54, 0x83, 0x56, 0x80, 0x21, 
	0x30, 0x0a, 0x90, 0x2d, 0x54, 0x83, 0x56, 0x80, 
	0x2d, 0x30, 0x00, 0x80, 0x3c, 0x30, 0x0a, 0x90, 
	0x3b, 0x64, 0x00, 0x90, 0x21, 0x54, 0x83, 0x56, 
	0x80, 0x21, 0x30, 0x00, 0x80, 0x3b, 0x30, 0x0a, 
	0x90, 0x3c, 0x64, 0x00, 0x90, 0x2d, 0x54, 0x83, 
	0x56, 0x80, 0x2d, 0x30, 0x0a, 0x90, 0x1d, 0x54, 
	0x83, 0x56, 0x80, 0x1d, 0x30, 0x0a, 0x90, 0x29, 
	0x54, 0x83, 0x56, 0x80, 0x29, 0x30, 0x00, 0x80, 
	0x3c, 0x30, 0x0a, 0x90, 0x39, 0x64, 0x00, 0x90, 
	0x1d, 0x54, 0x83, 0x56, 0x80, 0x1d, 0x30, 0x0a, 
	0x90, 0x29, 0x54, 0x83, 0x56, 0x80, 0x29, 0x30, 
	0x00, 0x80, 0x39, 0x30, 0x0a, 0x90, 0x39, 0x64, 
	0x00, 0x90, 0x1d, 0x54, 0x83, 0x56, 0x80, 0x1d, 
	0x30, 0x00, 0x80, 0x39, 0x30, 0x0a, 0x90, 0x3b, 
	0x64, 0x00, 0x90, 0x29, 0x54, 0x83, 0x56, 0x80, 
	0x29, 0x30, 0x00, 0x80, 0x3b, 0x30, 0x0a, 0x90, 
	0x39, 0x64, 0x00, 0x90, 0x1d, 0x54, 0x83, 0x56, 
	0x80, 0x1d, 0x30, 0x00, 0x80, 0x39, 0x30, 0x0a, 
	0x90, 0x37, 0x64, 0x00, 0x90, 0x29, 0x54, 0x83, 
	0x56, 0x80, 0x29, 0x30, 0x00, 0x80, 0x37, 0x30, 
	0x0a, 0x90, 0x34, 0x64, 0x00, 0x90, 0x24, 0x54, 
	0x83, 0x56, 0x80, 0x24, 0x30, 0x0a, 0x90, 0x30, 
	0x54, 0x83, 0x56, 0x80, 0x30, 0x30, 0x0a, 0x90, 
	0x24, 0x54, 0x83, 0x56, 0x80, 0x24, 0x30, 0x0a, 
	0x90, 0x30, 0x54, 0x83, 0x56, 0x80, 0x30, 0x30, 
	0x00, 0x80, 0x34, 0x30, 0x0a, 0x90, 0x3c, 0x64, 
	0x00, 0x90, 0x24, 0x54, 0x83, 0x56, 0x80, 0x24, 
	0x30, 0x0a, 0x90, 0x30, 0x54, 0x83, 0x56, 0x80, 
	0x30, 0x30, 0x00, 0x80, 0x3c, 0x30, 0x0a, 0x90, 
	0x3e, 0x64, 0x00, 0x90, 0x24, 0x54, 0x83, 0x56, 
	0x80, 0x24, 0x30, 0x00, 0x80, 0x3e, 0x30, 0x0a, 
	0x90, 0x3e, 0x64, 0x00, 0x90, 0x30, 0x54, 0x83, 
	0x56, 0x80, 0x30, 0x30, 0x0a, 0x90, 0x1f, 0x54, 
	0x83, 0x56, 0x80, 0x1f, 0x30, 0x0a, 0x90, 0x2b, 
	0x54, 0x83, 0x56, 0x80, 0x2b, 0x30, 0x00, 0x80, 
	0x3e, 0x30, 0x0a, 0x90, 0x3b, 0x64, 0x00, 0x90, 
	0x1f, 0x54, 0x83, 0x56, 0x80, 0x1f, 0x30, 0x00, 
	0x80, 0x3b, 0x30, 0x0a, 0x90, 0x3e, 0x64, 0x00, 
	0x90, 0x2b, 0x54, 0x83, 0x56, 0x80, 0x2b, 0x30, 
	0x0a, 0x90, 0x1f, 0x54, 0x83, 0x56, 0x80, 0x1f, 
	0x30, 0x0a, 0x90, 0x2b, 0x54, 0x83, 0x56, 0x80, 
	0x2b, 0x30, 0x00, 0x80, 0x3e, 0x30, 0x0a, 0x90, 
	0x3b, 0x64, 0x00, 0x90, 0x1f, 0x54, 0x83, 0x56, 
	0x80, 0x1f, 0x30, 0x00, 0x80, 0x3b, 0x30, 0x0a, 
	0x90, 0x3c, 0x64, 0x00, 0x90, 0x2b, 0x54, 0x83, 
	0x56, 0x80, 0x2b, 0x30, 0x0a, 0x90, 0x21, 0x54, 
	0x83, 0x56, 0x80, 0x21, 0x30, 0x00, 0x80, 0x3c, 
	0x30, 0x0a, 0x90, 0x39, 0x64, 0x00, 0x90, 0x2d, 
	0x54, 0x83, 0x56, 0x80, 0x2d, 0x30, 0x0a, 0x90, 
	0x21, 0x54, 0x83, 0x56, 0x80, 0x21, 0x30, 0x0a, 
	0x90, 0x2d, 0x54, 0x83, 0x56, 0x80, 0x2d, 0x30, 
	0x0a, 0x90, 0x3c, 0x62, 0x00, 0x90, 0x21, 0x54, 
	0x81, 0x66, 0x80, 0x39, 0x30, 0x81, 0x70, 0x80, 
	0x21, 0x30, 0x0a, 0x90, 0x2d, 0x54, 0x83, 0x56, 
	0x80, 0x2d, 0x30, 0x00, 0x80, 0x3c, 0x30, 0x0a, 
	0x90, 0x3b, 0x62, 0x00, 0x90, 0x21, 0x54, 0x83, 
	0x56, 0x80, 0x21, 0x30, 0x00, 0x80, 0x3b, 0x30, 
	0x0a, 0x90, 0x3c, 0x62, 0x00, 0x90, 0x2d, 0x54, 
	0x83, 0x56, 0x80, 0x2d, 0x30, 0x0a, 0x90, 0x1d, 
	0x54, 0x83, 0x56, 0x80, 0x1d, 0x30, 0x0a, 0x90, 
	0x29, 0x54, 0x83, 0x56, 0x80, 0x29, 0x30, 0x00, 
	0x80, 0x3c, 0x30, 0x0a, 0x90, 0x39, 0x62, 0x00, 
	0x90, 0x1d, 0x54, 0x83, 0x56, 0x80, 0x1d, 0x30, 
	0x0a, 0x90, 0x29, 0x54, 0x83, 0x56, 0x80, 0x29, 
	0x30, 0x00, 0x80, 0x39, 0x30, 0x0a, 0x90, 0x39, 
	0x62, 0x00, 0x90, 0x1d, 0x54, 0x83, 0x56, 0x80, 
	0x1d, 0x30, 0x00, 0x80, 0x39, 0x30, 0x0a, 0x90, 
	0x3b, 0x62, 0x00, 0x90, 0x29, 0x54, 0x83, 0x56, 
	0x80, 0x29, 0x30, 0x00, 0x80, 0x3b, 0x30, 0x0a, 
	0x90, 0x39, 0x62, 0x00, 0x90, 0x1d, 0x54, 0x83, 
	0x56, 0x80, 0x1d, 0x30, 0x00, 0x80, 0x39, 0x30, 
	0x0a, 0x90, 0x37, 0x62, 0x00, 0x90, 0x29, 0x54, 
	0x83, 0x56, 0x80, 0x29, 0x30, 0x00, 0x80, 0x37, 
	0x30, 0x0a, 0x90, 0x34, 0x62, 0x00, 0x90, 0x24, 
	0x54, 0x83, 0x56, 0x80, 0x24, 0x30, 0x0a, 0x90, 
	0x30, 0x54, 0x83, 0x56, 0x80, 0x30, 0x30, 0x0a, 
	0x90, 0x24, 0x54, 0x83, 0x56, 0x80, 0x24, 0x30, 
	0x0a, 0x90, 0x30, 0x54, 0x83, 0x56, 0x80, 0x30, 
	0x30, 0x00, 0x80, 0x34, 0x30, 0x0a, 0x90, 0x3c, 
	0x62, 0x00, 0x90, 0x24, 0x54, 0x83, 0x56, 0x80, 
	0x24, 0x30, 0x00, 0x80, 0x3c, 0x30, 0x0a, 0x90, 
	0x40, 0x62, 0x00, 0x90, 0x30, 0x54, 0x83, 0x56, 
	0x80, 0x30, 0x30, 0x00, 0x80, 0x40, 0x30, 0x0a, 
	0x90, 0x3e, 0x62, 0x00, 0x90, 0x24, 0x54, 0x83, 
	0x56, 0x80, 0x24, 0x30, 0x00, 0x80, 0x3e, 0x30, 
	0x0a, 0x90, 0x3c, 0x62, 0x00, 0x90, 0x30, 0x54, 
	0x83, 0x56, 0x80, 0x30, 0x30, 0x00, 0x80, 0x3c, 
	0x30, 0x0a, 0x90, 0x37, 0x62, 0x00, 0x90, 0x1f, 
	0x54, 0x83, 0x56, 0x80, 0x1f, 0x30, 0x0a, 0x90, 
	0x2b, 0x54, 0x83, 0x56, 0x80, 0x2b, 0x30, 0x0a, 
	0x90, 0x1f, 0x54, 0x83, 0x56, 0x80, 0x1f, 0x30, 
	0x0a, 0x90, 0x2b, 0x54, 0x83, 0x56, 0x80, 0x2b, 
	0x30, 0x00, 0x80, 0x37, 0x30, 0x0a, 0x90, 0x37, 
	0x62, 0x00, 0x90, 0x1f, 0x54, 0x83, 0x56, 0x80, 
	0x1f, 0x30, 0x00, 0x80, 0x37, 0x30, 0x0a, 0x90, 
	0x3e, 0x62, 0x00, 0x90, 0x2b, 0x54, 0x83, 0x56, 
	0x80, 0x2b, 0x30, 0x00, 0x80, 0x3e, 0x30, 0x0a, 
	0x90, 0x3c, 0x62, 0x00, 0x90, 0x1f, 0x54, 0x83, 
	0x56, 0x80, 0x1f, 0x30, 0x00, 0x80, 0x3c, 0x30, 
	0x0a, 0x90, 0x3b, 0x62, 0x00, 0x90, 0x2b, 0x54, 
	0x83, 0x56, 0x80, 0x2b, 0x30, 0x00, 0x80, 0x3b, 
	0x30, 0x0a, 0x90, 0x3c, 0x62, 0x00, 0x90, 0x21, 
	0x54, 0x83, 0x56, 0x80, 0x21, 0x30, 0x00, 0x80, 
	0x3c, 0x30, 0x0a, 0x90, 0x3b, 0x62, 0x00, 0x90, 
	0x2d, 0x54, 0x83, 0x56, 0x80, 0x2d, 0x30, 0x00, 
	0x80, 0x3b, 0x30, 0x0a, 0x90, 0x39, 0x62, 0x00, 
	0x90, 0x21, 0x54, 0x83, 0x56, 0x80, 0x21, 0x30, 
	0x00, 0x80, 0x39, 0x30, 0x0a, 0x90, 0x2d, 0x54, 
	0x83, 0x56, 0x80, 0x2d, 0x30, 0x0a, 0x90, 0x3c, 
	0x63, 0x00, 0x90, 0x21, 0x54, 0x83, 0x56, 0x80, 
	0x21, 0x30, 0x0a, 0x90, 0x2d, 0x54, 0x83, 0x56, 
	0x80, 0x2d, 0x30, 0x00, 0x80, 0x3c, 0x30, 0x0a, 
	0x90, 0x3b, 0x63, 0x00, 0x90, 0x21, 0x54, 0x83, 
	0x56, 0x80, 0x21, 0x30, 0x00, 0x80, 0x3b, 0x30, 
	0x0a, 0x90, 0x3c, 0x63, 0x00, 0x90, 0x2d, 0x54, 
	0x83, 0x56, 0x80, 0x2d, 0x30, 0x0a, 0x90, 0x1d, 
	0x54, 0x83, 0x56, 0x80, 0x1d, 0x30, 0x0a, 0x90, 
	0x29, 0x54, 0x83, 0x56, 0x80, 0x29, 0x30, 0x00, 
	0x80, 0x3c, 0x30, 0x0a, 0x90, 0x39, 0x63, 0x00, 
	0x90, 0x1d, 0x54, 0x83, 0x56, 0x80, 0x1d, 0x30, 
	0x0a, 0x90, 0x29, 0x54, 0x83, 0x56, 0x80, 0x29, 
	0x30, 0x00, 0x80, 0x39, 0x30, 0x0a, 0x90, 0x39, 
	0x63, 0x00, 0x90, 0x1d, 0x54, 0x83, 0x56, 0x80, 
	0x1d, 0x30, 0x00, 0x80, 0x39, 0x30, 0x0a, 0x90, 
	0x3b, 0x63, 0x00, 0x90, 0x29, 0x54, 0x83, 0x56, 
	0x80, 0x29, 0x30, 0x00, 0x80, 0x3b, 0x30, 0x0a, 
	0x90, 0x39, 0x63, 0x00, 0x90, 0x1d, 0x54, 0x83, 
	0x56, 0x80, 0x1d, 0x30, 0x00, 0x80, 0x39, 0x30, 
	0x0a, 0x90, 0x37, 0x63, 0x00, 0x90, 0x29, 0x54, 
	0x83, 0x56, 0x80, 0x29, 0x30, 0x00, 0x80, 0x37, 
	0x30, 0x0a, 0x90, 0x34, 0x63, 0x00, 0x90, 0x24, 
	0x54, 0x83, 0x56, 0x80, 0x24, 0x30, 0x0a, 0x90, 
	0x30, 0x54, 0x83, 0x56, 0x80, 0x30, 0x30, 0x0a, 
	0x90, 0x24, 0x54, 0x83, 0x56, 0x80, 0x24, 0x30, 
	0x0a, 0x90, 0x30, 0x54, 0x83, 0x56, 0x80, 0x30, 
	0x30, 0x00, 0x80, 0x34, 0x30, 0x0a, 0x90, 0x3c, 
	0x63, 0x00, 0x90, 0x24, 0x54, 0x83, 0x56, 0x80, 
	0x24, 0x30, 0x0a, 0x90, 0x30, 0x54, 0x83, 0x56, 
	0x80, 0x30, 0x30, 0x00, 0x80, 0x3c, 0x30, 0x0a, 
	0x90, 0x3e, 0x63, 0x00, 0x90, 0x24, 0x54, 0x83, 
	0x56, 0x80, 0x24, 0x30, 0x00, 0x80, 0x3e, 0x30, 
	0x0a, 0x90, 0x3e, 0x63, 0x00, 0x90, 0x30, 0x54, 
	0x83, 0x56, 0x80, 0x30, 0x30, 0x0a, 0x90, 0x1f, 
	0x54, 0x83, 0x56, 0x80, 0x1f, 0x30, 0x0a, 0x90, 
	0x2b, 0x54, 0x83, 0x56, 0x80, 0x2b, 0x30, 0x00, 
	0x80, 0x3e, 0x30, 0x0a, 0x90, 0x3b, 0x63, 0x00, 
	0x90, 0x1f, 0x54, 0x83, 0x56, 0x80, 0x1f, 0x30, 
	0x00, 0x80, 0x3b, 0x30, 0x0a, 0x90, 0x3e, 0x63, 
	0x00, 0x90, 0x2b, 0x54, 0x83, 0x56, 0x80, 0x2b, 
	0x30, 0x0a, 0x90, 0x1f, 0x54, 0x83, 0x56, 0x80, 
	0x1f, 0x30, 0x0a, 0x90, 0x2b, 0x54, 0x83, 0x56, 
	0x80, 0x2b, 0x30, 0x00, 0x80, 0x3e, 0x30, 0x0a, 
	0x90, 0x3b, 0x63, 0x00, 0x90, 0x1f, 0x54, 0x83, 
	0x56, 0x80, 0x1f, 0x30, 0x00, 0x80, 0x3b, 0x30, 
	0x0a, 0x90, 0x3c, 0x63, 0x00, 0x90, 0x2b, 0x54, 
	0x83, 0x56, 0x80, 0x2b, 0x30, 0x83, 0x60, 0x80, 
	0x3c, 0x30, 0x0a, 0x90, 0x39, 0x63, 0x83, 0x60, 
	0x90, 0x45, 0x63, 0x89, 0x26, 0x80, 0x39, 0x30, 
	0x81, 0x7a, 0x90, 0x3c, 0x63, 0x81, 0x66, 0x80, 
	0x45, 0x30, 0x81, 0x70, 0x80, 0x3c, 0x30, 0x0a, 
	0x90, 0x3b, 0x63, 0x83, 0x56, 0x80, 0x3b, 0x30, 
	0x0a, 0x90, 0x3c, 0x63, 0x83, 0x56, 0x80, 0x3c, 
	0x30, 0x0a, 0x90, 0x35, 0x3a, 0x00, 0x90, 0x45, 
	0x63, 0x83, 0x56, 0x80, 0x35, 0x30, 0x0a, 0x90, 
	0x30, 0x3a, 0x83, 0x56, 0x80, 0x30, 0x30, 0x0a, 
	0x90, 0x35, 0x3a, 0x83, 0x56, 0x80, 0x45, 0x30, 
	0x00, 0x80, 0x35, 0x30, 0x0a, 0x90, 0x39, 0x3a, 
	0x83, 0x56, 0x80, 0x39, 0x30, 0x0a, 0x90, 0x35, 
	0x3a, 0x83, 0x56, 0x80, 0x35, 0x30, 0x0a, 0x90, 
	0x39, 0x3a, 0x00, 0x90, 0x3c, 0x63, 0x83, 0x56, 
	0x80, 0x3c, 0x30, 0x00, 0x80, 0x39, 0x30, 0x0a, 
	0x90, 0x3c, 0x3a, 0x00, 0x90, 0x3b, 0x63, 0x83, 
	0x56, 0x80, 0x3b, 0x30, 0x00, 0x80, 0x3c, 0x30, 
	0x0a, 0x90, 0x39, 0x3a, 0x00, 0x90, 0x3c, 0x63, 
	0x83, 0x56, 0x80, 0x3c, 0x30, 0x00, 0x80, 0x39, 
	0x30, 0x0a, 0x90, 0x3c, 0x3a, 0x00, 0x90, 0x43, 
	0x63, 0x83, 0x56, 0x80, 0x3c, 0x30, 0x0a, 0x90, 
	0x37, 0x3a, 0x83, 0x56, 0x80, 0x37, 0x30, 0x0a, 
	0x90, 0x3c, 0x3a, 0x83, 0x56, 0x80, 0x43, 0x30, 
	0x00, 0x80, 0x3c, 0x30, 0x0a, 0x90, 0x40, 0x3a, 
	0x83, 0x56, 0x80, 0x40, 0x30, 0x0a, 0x90, 0x3c, 
	0x3a, 0x83, 0x56, 0x80, 0x3c, 0x30, 0x0a, 0x90, 
	0x40, 0x3a, 0x00, 0x90, 0x3c, 0x63, 0x83, 0x56, 
	0x80, 0x3c, 0x30, 0x00, 0x80, 0x40, 0x30, 0x0a, 
	0x90, 0x43, 0x3a, 0x00, 0x90, 0x3b, 0x63, 0x83, 
	0x56, 0x80, 0x3b, 0x30, 0x00, 0x80, 0x43, 0x30, 
	0x0a, 0x90, 0x40, 0x3a, 0x00, 0x90, 0x3c, 0x63, 
	0x83, 0x56, 0x80, 0x3c, 0x30, 0x00, 0x80, 0x40, 
	0x30, 0x0a, 0x90, 0x37, 0x3b, 0x00, 0x90, 0x43, 
	0x63, 0x83, 0x56, 0x80, 0x37, 0x30, 0x0a, 0x90, 
	0x32, 0x3b, 0x83, 0x56, 0x80, 0x32, 0x30, 0x0a, 
	0x90, 0x37, 0x3b, 0x83, 0x56, 0x80, 0x43, 0x30, 
	0x00, 0x80, 0x37, 0x30, 0x0a, 0x90, 0x3b, 0x3b, 
	0x83, 0x56, 0x80, 0x3b, 0x30, 0x0a, 0x90, 0x37, 
	0x3b, 0x83, 0x56, 0x80, 0x37, 0x30, 0x0a, 0x90, 
	0x3b, 0x3b, 0x00, 0x90, 0x3c, 0x63, 0x83, 0x56, 
	0x80, 0x3c, 0x30, 0x00, 0x80, 0x3b, 0x30, 0x0a, 
	0x90, 0x3e, 0x3b, 0x00, 0x90, 0x3b, 0x63, 0x83, 
	0x56, 0x80, 0x3b, 0x30, 0x00, 0x80, 0x3e, 0x30, 
	0x0a, 0x90, 0x3b, 0x3b, 0x00, 0x90, 0x3c, 0x63, 
	0x83, 0x56, 0x80, 0x3c, 0x30, 0x00, 0x80, 0x3b, 
	0x30, 0x0a, 0x90, 0x39, 0x3b, 0x00, 0x90, 0x48, 
	0x63, 0x83, 0x56, 0x80, 0x48, 0x30, 0x00, 0x80, 
	0x39, 0x30, 0x0a, 0x90, 0x34, 0x3b, 0x83, 0x56, 
	0x80, 0x34, 0x30, 0x0a, 0x90, 0x39, 0x3b, 0x00, 
	0x90, 0x45, 0x63, 0x83, 0x56, 0x80, 0x45, 0x30, 
	0x00, 0x80, 0x39, 0x30, 0x0a, 0x90, 0x3c, 0x3b, 
	0x83, 0x56, 0x80, 0x3c, 0x30, 0x0a, 0x90, 0x39, 
	0x3b, 0x83, 0x56, 0x80, 0x39, 0x30, 0x0a, 0x90, 
	0x3c, 0x3b, 0x00, 0x90, 0x3c, 0x63, 0x83, 0x56, 
	0x80, 0x3c, 0x30, 0x00, 0x80, 0x3c, 0x30, 0x0a, 
	0x90, 0x40, 0x3b, 0x00, 0x90, 0x3b, 0x63, 0x83, 
	0x56, 0x80, 0x3b, 0x30, 0x00, 0x80, 0x40, 0x30, 
	0x0a, 0x90, 0x3c, 0x3b, 0x00, 0x90, 0x3c, 0x63, 
	0x83, 0x56, 0x80, 0x3c, 0x30, 0x00, 0x80, 0x3c, 
	0x30, 0x0a, 0x90, 0x35, 0x3a, 0x00, 0x90, 0x45, 
	0x63, 0x83, 0x56, 0x80, 0x35, 0x30, 0x0a, 0x90, 
	0x30, 0x3a, 0x83, 0x56, 0x80, 0x30, 0x30, 0x0a, 
	0x90, 0x35, 0x3a, 0x83, 0x56, 0x80, 0x45, 0x30, 
	0x00, 0x80, 0x35, 0x30, 0x0a, 0x90, 0x39, 0x3a, 
	0x83, 0x56, 0x80, 0x39, 0x30, 0x0a, 0x90, 0x35, 
	0x3a, 0x83, 0x56, 0x80, 0x35, 0x30, 0x0a, 0x90, 
	0x39, 0x3a, 0x00, 0x90, 0x3c, 0x63, 0x83, 0x56, 
	0x80, 0x3c, 0x30, 0x00, 0x80, 0x39, 0x30, 0x0a, 
	0x90, 0x3c, 0x3a, 0x00, 0x90, 0x3b, 0x63, 0x83, 
	0x56, 0x80, 0x3b, 0x30, 0x00, 0x80, 0x3c, 0x30, 
	0x0a, 0x90, 0x39, 0x3a, 0x00, 0x90, 0x3c, 0x63, 
	0x83, 0x56, 0x80, 0x3c, 0x30, 0x00, 0x80, 0x39, 
	0x30, 0x0a, 0x90, 0x3c, 0x3a, 0x00, 0x90, 0x43, 
	0x63, 0x83, 0x56, 0x80, 0x3c, 0x30, 0x0a, 0x90, 
	0x37, 0x3a, 0x83, 0x56, 0x80, 0x37, 0x30, 0x0a, 
	0x90, 0x3c, 0x3a, 0x83, 0x56, 0x80, 0x43, 0x30, 
	0x00, 0x80, 0x3c, 0x30, 0x0a, 0x90, 0x40, 0x3a, 
	0x83, 0x56, 0x80, 0x40, 0x30, 0x0a, 0x90, 0x3c, 
	0x3a, 0x83, 0x56, 0x80, 0x3c, 0x30, 0x0a, 0x90, 
	0x40, 0x3a, 0x00, 0x90, 0x3c, 0x63, 0x83, 0x56, 
	0x80, 0x3c, 0x30, 0x00, 0x80, 0x40, 0x30, 0x0a, 
	0x90, 0x43, 0x3a, 0x00, 0x90, 0x3b, 0x63, 0x83, 
	0x56, 0x80, 0x3b, 0x30, 0x00, 0x80, 0x43, 0x30, 
	0x0a, 0x90, 0x40, 0x3a, 0x00, 0x90, 0x3c, 0x63, 
	0x83, 0x56, 0x80, 0x3c, 0x30, 0x00, 0x80, 0x40, 
	0x30, 0x0a, 0x90, 0x37, 0x3b, 0x00, 0x90, 0x43, 
	0x63, 0x83, 0x56, 0x80, 0x37, 0x30, 0x0a, 0x90, 
	0x32, 0x3b, 0x83, 0x56, 0x80, 0x32, 0x30, 0x0a, 
	0x90, 0x37, 0x3b, 0x83, 0x56, 0x80, 0x43, 0x30, 
	0x00, 0x80, 0x37, 0x30, 0x0a, 0x90, 0x3b, 0x3b, 
	0x83, 0x56, 0x80, 0x3b, 0x30, 0x0a, 0x90, 0x37, 
	0x3b, 0x83, 0x56, 0x80, 0x37, 0x30, 0x0a, 0x90, 
	0x3b, 0x3b, 0x00, 0x90, 0x3c, 0x63, 0x83, 0x56, 
	0x80, 0x3c, 0x30, 0x00, 0x80, 0x3b, 0x30, 0x0a, 
	0x90, 0x3e, 0x3b, 0x00, 0x90, 0x3b, 0x63, 0x83, 
	0x56, 0x80, 0x3b, 0x30, 0x00, 0x80, 0x3e, 0x30, 
	0x0a, 0x90, 0x3b, 0x3b, 0x00, 0x90, 0x3c, 0x63, 
	0x83, 0x56, 0x80, 0x3c, 0x30, 0x00, 0x80, 0x3b, 
	0x30, 0x0a, 0x90, 0x39, 0x3b, 0x00, 0x90, 0x48, 
	0x63, 0x83, 0x56, 0x80, 0x48, 0x30, 0x00, 0x80, 
	0x39, 0x30, 0x0a, 0x90, 0x34, 0x3b, 0x83, 0x56, 
	0x80, 0x34, 0x30, 0x0a, 0x90, 0x39, 0x3b, 0x00, 
	0x90, 0x45, 0x63, 0x83, 0x56, 0x80, 0x45, 0x30, 
	0x00, 0x80, 0x39, 0x30, 0x0a, 0x90, 0x3c, 0x3b, 
	0x83, 0x56, 0x80, 0x3c, 0x30, 0x0a, 0x90, 0x39, 
	0x3b, 0x83, 0x56, 0x80, 0x39, 0x30, 0x0a, 0x90, 
	0x3c, 0x3b, 0x00, 0x90, 0x3c, 0x63, 0x83, 0x56, 
	0x80, 0x3c, 0x30, 0x00, 0x80, 0x3c, 0x30, 0x0a, 
	0x90, 0x40, 0x3b, 0x00, 0x90, 0x3b, 0x63, 0x83, 
	0x56, 0x80, 0x3b, 0x30, 0x00, 0x80, 0x40, 0x30, 
	0x0a, 0x90, 0x3c, 0x3b, 0x00, 0x90, 0x3c, 0x63, 
	0x83, 0x56, 0x80, 0x3c, 0x30, 0x00, 0x80, 0x3c, 
	0x30, 0x0a, 0x90, 0x1d, 0x54, 0x00, 0x90, 0x35, 
	0x3a, 0x83, 0x56, 0x80, 0x35, 0x30, 0x00, 0x80, 
	0x1d, 0x30, 0x0a, 0x90, 0x29, 0x54, 0x00, 0x90, 
	0x30, 0x3a, 0x83, 0x56, 0x80, 0x30, 0x30, 0x00, 
	0x80, 0x29, 0x30, 0x0a, 0x90, 0x1d, 0x54, 0x00, 
	0x90, 0x35, 0x3a, 0x83, 0x56, 0x80, 0x35, 0x30, 
	0x00, 0x80, 0x1d, 0x30, 0x0a, 0x90, 0x29, 0x54, 
	0x00, 0x90, 0x39, 0x3a, 0x83, 0x56, 0x80, 0x39, 
	0x30, 0x00, 0x80, 0x29, 0x30, 0x0a, 0x90, 0x1d, 
	0x54, 0x00, 0x90, 0x35, 0x3a, 0x83, 0x56, 0x80, 
	0x35, 0x30, 0x00, 0x80, 0x1d, 0x30, 0x0a, 0x90, 
	0x29, 0x54, 0x00, 0x90, 0x39, 0x3a, 0x83, 0x56, 
	0x80, 0x39, 0x30, 0x00, 0x80, 0x29, 0x30, 0x0a, 
	0x90, 0x1d, 0x54, 0x00, 0x90, 0x3c, 0x3a, 0x83, 
	0x56, 0x80, 0x3c, 0x30, 0x00, 0x80, 0x1d, 0x30, 
	0x0a, 0x90, 0x29, 0x54, 0x00, 0x90, 0x39, 0x3a, 
	0x83, 0x56, 0x80, 0x39, 0x30, 0x00, 0x80, 0x29, 
	0x30, 0x0a, 0x90, 0x24, 0x54, 0x00, 0x90, 0x3c, 
	0x3a, 0x83, 0x56, 0x80, 0x3c, 0x30, 0x00, 0x80, 
	0x24, 0x30, 0x0a, 0x90, 0x30, 0x54, 0x00, 0x90, 
	0x37, 0x3a, 0x83, 0x56, 0x80, 0x37, 0x30, 0x00, 
	0x80, 0x30, 0x30, 0x0a, 0x90, 0x24, 0x54, 0x00, 
	0x90, 0x3c, 0x3a, 0x83, 0x56, 0x80, 0x3c, 0x30, 
	0x00, 0x80, 0x24, 0x30, 0x0a, 0x90, 0x30, 0x54, 
	0x00, 0x90, 0x40, 0x3a, 0x83, 0x56, 0x80, 0x40, 
	0x30, 0x00, 0x80, 0x30, 0x30, 0x0a, 0x90, 0x24, 
	0x54, 0x00, 0x90, 0x3c, 0x3a, 0x83, 0x56, 0x80, 
	0x3c, 0x30, 0x00, 0x80, 0x24, 0x30, 0x0a, 0x90, 
	0x30, 0x54, 0x00, 0x90, 0x40, 0x3a, 0x83, 0x56, 
	0x80, 0x40, 0x30, 0x00, 0x80, 0x30, 0x30, 0x0a, 
	0x90, 0x24, 0x54, 0x00, 0x90, 0x43, 0x3a, 0x83, 
	0x56, 0x80, 0x43, 0x30, 0x00, 0x80, 0x24, 0x30, 
	0x0a, 0x90, 0x30, 0x54, 0x00, 0x90, 0x40, 0x3a, 
	0x83, 0x56, 0x80, 0x40, 0x30, 0x00, 0x80, 0x30, 
	0x30, 0x0a, 0x90, 0x1f, 0x54, 0x00, 0x90, 0x37, 
	0x3b, 0x83, 0x56, 0x80, 0x37, 0x30, 0x00, 0x80, 
	0x1f, 0x30, 0x0a, 0x90, 0x2b, 0x54, 0x00, 0x90, 
	0x32, 0x3b, 0x83, 0x56, 0x80, 0x32, 0x30, 0x00, 
	0x80, 0x2b, 0x30, 0x0a, 0x90, 0x1f, 0x54, 0x00, 
	0x90, 0x37, 0x3b, 0x83, 0x56, 0x80, 0x37, 0x30, 
	0x00, 0x80, 0x1f, 0x30, 0x0a, 0x90, 0x2b, 0x54, 
	0x00, 0x90, 0x3b, 0x3b, 0x83, 0x56, 0x80, 0x3b, 
	0x30, 0x00, 0x80, 0x2b, 0x30, 0x0a, 0x90, 0x1f, 
	0x54, 0x00, 0x90, 0x37, 0x3b, 0x83, 0x56, 0x80, 
	0x37, 0x30, 0x00, 0x80, 0x1f, 0x30, 0x0a, 0x90, 
	0x2b, 0x54, 0x00, 0x90, 0x3b, 0x3b, 0x83, 0x56, 
	0x80, 0x3b, 0x30, 0x00, 0x80, 0x2b, 0x30, 0x0a, 
	0x90, 0x1f, 0x54, 0x00, 0x90, 0x3e, 0x3b, 0x83, 
	0x56, 0x80, 0x3e, 0x30, 0x00, 0x80, 0x1f, 0x30, 
	0x0a, 0x90, 0x2b, 0x54, 0x00, 0x90, 0x3b, 0x3b, 
	0x83, 0x56, 0x80, 0x3b, 0x30, 0x00, 0x80, 0x2b, 
	0x30, 0x0a, 0x90, 0x21, 0x54, 0x00, 0x90, 0x39, 
	0x3b, 0x83, 0x56, 0x80, 0x39, 0x30, 0x00, 0x80, 
	0x21, 0x30, 0x0a, 0x90, 0x2d, 0x54, 0x00, 0x90, 
	0x34, 0x3b, 0x83, 0x56, 0x80, 0x34, 0x30, 0x00, 
	0x80, 0x2d, 0x30, 0x0a, 0x90, 0x21, 0x54, 0x00, 
	0x90, 0x39, 0x3b, 0x83, 0x56, 0x80, 0x39, 0x30, 
	0x00, 0x80, 0x21, 0x30, 0x0a, 0x90, 0x2d, 0x54, 
	0x00, 0x90, 0x3c, 0x3b, 0x83, 0x56, 0x80, 0x3c, 
	0x30, 0x00, 0x80, 0x2d, 0x30, 0x0a, 0x90, 0x21, 
	0x54, 0x00, 0x90, 0x39, 0x3b, 0x83, 0x56, 0x80, 
	0x39, 0x30, 0x00, 0x80, 0x21, 0x30, 0x0a, 0x90, 
	0x2d, 0x54, 0x00, 0x90, 0x3c, 0x3b, 0x83, 0x56, 
	0x80, 0x3c, 0x30, 0x00, 0x80, 0x2d, 0x30, 0x0a, 
	0x90, 0x21, 0x54, 0x00, 0x90, 0x40, 0x3b, 0x83, 
	0x56, 0x80, 0x40, 0x30, 0x00, 0x80, 0x21, 0x30, 
	0x0a, 0x90, 0x2d, 0x54, 0x00, 0x90, 0x3c, 0x3b, 
	0x83, 0x56, 0x80, 0x3c, 0x30, 0x00, 0x80, 0x2d, 
	0x30, 0x0a, 0x90, 0x1d, 0x54, 0x00, 0x90, 0x35, 
	0x3a, 0x83, 0x56, 0x80, 0x35, 0x30, 0x00, 0x80, 
	0x1d, 0x30, 0x0a, 0x90, 0x29, 0x54, 0x00, 0x90, 
	0x30, 0x3a, 0x83, 0x56, 0x80, 0x30, 0x30, 0x00, 
	0x80, 0x29, 0x30, 0x0a, 0x90, 0x1d, 0x54, 0x00, 
	0x90, 0x35, 0x3a, 0x83, 0x56, 0x80, 0x35, 0x30, 
	0x00, 0x80, 0x1d, 0x30, 0x0a, 0x90, 0x29, 0x54, 
	0x00, 0x90, 0x39, 0x3a, 0x83, 0x56, 0x80, 0x39, 
	0x30, 0x00, 0x80, 0x29, 0x30, 0x0a, 0x90, 0x1d, 
	0x54, 0x00, 0x90, 0x35, 0x3a, 0x83, 0x56, 0x80, 
	0x35, 0x30, 0x00, 0x80, 0x1d, 0x30, 0x0a, 0x90, 
	0x29, 0x54, 0x00, 0x90, 0x39, 0x3a, 0x83, 0x56, 
	0x80, 0x39, 0x30, 0x00, 0x80, 0x29, 0x30, 0x0a, 
	0x90, 0x1d, 0x54, 0x00, 0x90, 0x3c, 0x3a, 0x83, 
	0x56, 0x80, 0x3c, 0x30, 0x00, 0x80, 0x1d, 0x30, 
	0x0a, 0x90, 0x29, 0x54, 0x00, 0x90, 0x39, 0x3a, 
	0x83, 0x56, 0x80, 0x39, 0x30, 0x00, 0x80, 0x29, 
	0x30, 0x0a, 0x90, 0x24, 0x54, 0x00, 0x90, 0x3c, 
	0x3a, 0x83, 0x56, 0x80, 0x3c, 0x30, 0x00, 0x80, 
	0x24, 0x30, 0x0a, 0x90, 0x30, 0x54, 0x00, 0x90, 
	0x37, 0x3a, 0x83, 0x56, 0x80, 0x37, 0x30, 0x00, 
	0x80, 0x30, 0x30, 0x0a, 0x90, 0x24, 0x54, 0x00, 
	0x90, 0x3c, 0x3a, 0x83, 0x56, 0x80, 0x3c, 0x30, 
	0x00, 0x80, 0x24, 0x30, 0x0a, 0x90, 0x30, 0x54, 
	0x00, 0x90, 0x40, 0x3a, 0x83, 0x56, 0x80, 0x40, 
	0x30, 0x00, 0x80, 0x30, 0x30, 0x0a, 0x90, 0x24, 
	0x54, 0x00, 0x90, 0x3c, 0x3a, 0x83, 0x56, 0x80, 
	0x3c, 0x30, 0x00, 0x80, 0x24, 0x30, 0x0a, 0x90, 
	0x30, 0x54, 0x00, 0x90, 0x40, 0x3a, 0x83, 0x56, 
	0x80, 0x40, 0x30, 0x00, 0x80, 0x30, 0x30, 0x0a, 
	0x90, 0x24, 0x54, 0x00, 0x90, 0x43, 0x3a, 0x83, 
	0x56, 0x80, 0x43, 0x30, 0x00, 0x80, 0x24, 0x30, 
	0x0a, 0x90, 0x30, 0x54, 0x00, 0x90, 0x40, 0x3a, 
	0x83, 0x56, 0x80, 0x40, 0x30, 0x00, 0x80, 0x30, 
	0x30, 0x0a, 0x90, 0x1f, 0x54, 0x00, 0x90, 0x37, 
	0x3b, 0x83, 0x56, 0x80, 0x37, 0x30, 0x00, 0x80, 
	0x1f, 0x30, 0x0a, 0x90, 0x2b, 0x54, 0x00, 0x90, 
	0x32, 0x3b, 0x83, 0x56, 0x80, 0x32, 0x30, 0x00, 
	0x80, 0x2b, 0x30, 0x0a, 0x90, 0x1f, 0x54, 0x00, 
	0x90, 0x37, 0x3b, 0x83, 0x56, 0x80, 0x37, 0x30, 
	0x00, 0x80, 0x1f, 0x30, 0x0a, 0x90, 0x2b, 0x54, 
	0x00, 0x90, 0x3b, 0x3b, 0x83, 0x56, 0x80, 0x3b, 
	0x30, 0x00, 0x80, 0x2b, 0x30, 0x0a, 0x90, 0x1f, 
	0x54, 0x00, 0x90, 0x37, 0x3b, 0x83, 0x56, 0x80, 
	0x37, 0x30, 0x00, 0x80, 0x1f, 0x30, 0x0a, 0x90, 
	0x2b, 0x54, 0x00, 0x90, 0x3b, 0x3b, 0x83, 0x56, 
	0x80, 0x3b, 0x30, 0x00, 0x80, 0x2b, 0x30, 0x0a, 
	0x90, 0x1f, 0x54, 0x00, 0x90, 0x3e, 0x3b, 0x83, 
	0x56, 0x80, 0x3e, 0x30, 0x00, 0x80, 0x1f, 0x30, 
	0x0a, 0x90, 0x2b, 0x54, 0x00, 0x90, 0x3b, 0x3b, 
	0x83, 0x56, 0x80, 0x3b, 0x30, 0x00, 0x80, 0x2b, 
	0x30, 0x0a, 0x90, 0x39, 0x3b, 0x83, 0x56, 0x80, 
	0x39, 0x30, 0x0a, 0x90, 0x34, 0x3b, 0x83, 0x56, 
	0x80, 0x34, 0x30, 0x0a, 0x90, 0x39, 0x3b, 0x83, 
	0x56, 0x80, 0x39, 0x30, 0x0a, 0x90, 0x3c, 0x3b, 
	0x83, 0x56, 0x80, 0x3c, 0x30, 0x0a, 0x90, 0x3c, 
	0x64, 0x87, 0x36, 0x80, 0x3c, 0x30, 0x0a, 0x90, 
	0x3b, 0x64, 0x83, 0x56, 0x80, 0x3b, 0x30, 0x0a, 
	0x90, 0x3c, 0x64, 0x83, 0x60, 0x90, 0x1d, 0x54, 
	0x83, 0x56, 0x80, 0x1d, 0x30, 0x0a, 0x90, 0x29, 
	0x54, 0x83, 0x56, 0x80, 0x29, 0x30, 0x00, 0x80, 
	0x3c, 0x30, 0x0a, 0x90, 0x39, 0x64, 0x00, 0x90, 
	0x1d, 0x54, 0x83, 0x56, 0x80, 0x1d, 0x30, 0x0a, 
	0x90, 0x29, 0x54, 0x83, 0x56, 0x80, 0x29, 0x30, 
	0x00, 0x80, 0x39, 0x30, 0x0a, 0x90, 0x39, 0x64, 
	0x00, 0x90, 0x1d, 0x54, 0x83, 0x56, 0x80, 0x1d, 
	0x30, 0x00, 0x80, 0x39, 0x30, 0x0a, 0x90, 0x3b, 
	0x64, 0x00, 0x90, 0x29, 0x54, 0x83, 0x56, 0x80, 
	0x29, 0x30, 0x00, 0x80, 0x3b, 0x30, 0x0a, 0x90, 
	0x39, 0x64, 0x00, 0x90, 0x1d, 0x54, 0x83, 0x56, 
	0x80, 0x1d, 0x30, 0x00, 0x80, 0x39, 0x30, 0x0a, 
	0x90, 0x37, 0x64, 0x00, 0x90, 0x29, 0x54, 0x83, 
	0x56, 0x80, 0x29, 0x30, 0x00, 0x80, 0x37, 0x30, 
	0x0a, 0x90, 0x34, 0x64, 0x00, 0x90, 0x24, 0x54, 
	0x83, 0x56, 0x80, 0x24, 0x30, 0x0a, 0x90, 0x30, 
	0x54, 0x83, 0x56, 0x80, 0x30, 0x30, 0x0a, 0x90, 
	0x24, 0x54, 0x83, 0x56, 0x80, 0x24, 0x30, 0x0a, 
	0x90, 0x30, 0x54, 0x83, 0x56, 0x80, 0x30, 0x30, 
	0x00, 0x80, 0x34, 0x30, 0x0a, 0x90, 0x3c, 0x64, 
	0x00, 0x90, 0x24, 0x54, 0x83, 0x56, 0x80, 0x24, 
	0x30, 0x00, 0x80, 0x3c, 0x30, 0x0a, 0x90, 0x40, 
	0x64, 0x00, 0x90, 0x30, 0x54, 0x83, 0x56, 0x80, 
	0x30, 0x30, 0x00, 0x80, 0x40, 0x30, 0x0a, 0x90, 
	0x3e, 0x64, 0x00, 0x90, 0x24, 0x54, 0x83, 0x56, 
	0x80, 0x24, 0x30, 0x00, 0x80, 0x3e, 0x30, 0x0a, 
	0x90, 0x3c, 0x64, 0x00, 0x90, 0x30, 0x54, 0x83, 
	0x56, 0x80, 0x30, 0x30, 0x00, 0x80, 0x3c, 0x30, 
	0x0a, 0x90, 0x37, 0x64, 0x00, 0x90, 0x1f, 0x54, 
	0x83, 0x56, 0x80, 0x1f, 0x30, 0x0a, 0x90, 0x2b, 
	0x54, 0x83, 0x56, 0x80, 0x2b, 0x30, 0x0a, 0x90, 
	0x1f, 0x54, 0x83, 0x56, 0x80, 0x1f, 0x30, 0x0a, 
	0x90, 0x2b, 0x54, 0x83, 0x56, 0x80, 0x2b, 0x30, 
	0x00, 0x80, 0x37, 0x30, 0x0a, 0x90, 0x37, 0x64, 
	0x00, 0x90, 0x1f, 0x54, 0x83, 0x56, 0x80, 0x1f, 
	0x30, 0x00, 0x80, 0x37, 0x30, 0x0a, 0x90, 0x3e, 
	0x64, 0x00, 0x90, 0x2b, 0x54, 0x83, 0x56, 0x80, 
	0x2b, 0x30, 0x00, 0x80, 0x3e, 0x30, 0x0a, 0x90, 
	0x3c, 0x64, 0x00, 0x90, 0x1f, 0x54, 0x83, 0x56, 
	0x80, 0x1f, 0x30, 0x00, 0x80, 0x3c, 0x30, 0x0a, 
	0x90, 0x3b, 0x64, 0x00, 0x90, 0x2b, 0x54, 0x83, 
	0x56, 0x80, 0x2b, 0x30, 0x00, 0x80, 0x3b, 0x30, 
	0x0a, 0x90, 0x3c, 0x64, 0x00, 0x90, 0x21, 0x54, 
	0x83, 0x56, 0x80, 0x21, 0x30, 0x00, 0x80, 0x3c, 
	0x30, 0x0a, 0x90, 0x3b, 0x64, 0x00, 0x90, 0x2d, 
	0x54, 0x83, 0x56, 0x80, 0x2d, 0x30, 0x00, 0x80, 
	0x3b, 0x30, 0x0a, 0x90, 0x39, 0x64, 0x00, 0x90, 
	0x21, 0x54, 0x83, 0x56, 0x80, 0x21, 0x30, 0x00, 
	0x80, 0x39, 0x30, 0x0a, 0x90, 0x2d, 0x54, 0x83, 
	0x56, 0x80, 0x2d, 0x30, 0x0a, 0x90, 0x3c, 0x64, 
	0x00, 0x90, 0x21, 0x54, 0x83, 0x56, 0x80, 0x21, 
	0x30, 0x0a, 0x90, 0x2d, 0x54, 0x83, 0x56, 0x80, 
	0x2d, 0x30, 0x00, 0x80, 0x3c, 0x30, 0x0a, 0x90, 
	0x3b, 0x64, 0x00, 0x90, 0x21, 0x54, 0x83, 0x56, 
	0x80, 0x21, 0x30, 0x00, 0x80, 0x3b, 0x30, 0x0a, 
	0x90, 0x3c, 0x64, 0x00, 0x90, 0x2d, 0x54, 0x83, 
	0x56, 0x80, 0x2d, 0x30, 0x0a, 0x90, 0x1d, 0x54, 
	0x83, 0x56, 0x80, 0x1d, 0x30, 0x0a, 0x90, 0x29, 
	0x54, 0x83, 0x56, 0x80, 0x29, 0x30, 0x00, 0x80, 
	0x3c, 0x30, 0x0a, 0x90, 0x39, 0x64, 0x00, 0x90, 
	0x1d, 0x54, 0x83, 0x56, 0x80, 0x1d, 0x30, 0x0a, 
	0x90, 0x29, 0x54, 0x83, 0x56, 0x80, 0x29, 0x30, 
	0x00, 0x80, 0x39, 0x30, 0x0a, 0x90, 0x39, 0x64, 
	0x00, 0x90, 0x1d, 0x54, 0x83, 0x56, 0x80, 0x1d, 
	0x30, 0x00, 0x80, 0x39, 0x30, 0x0a, 0x90, 0x3b, 
	0x64, 0x00, 0x90, 0x29, 0x54, 0x83, 0x56, 0x80, 
	0x29, 0x30, 0x00, 0x80, 0x3b, 0x30, 0x0a, 0x90, 
	0x39, 0x64, 0x00, 0x90, 0x1d, 0x54, 0x83, 0x56, 
	0x80, 0x1d, 0x30, 0x00, 0x80, 0x39, 0x30, 0x0a, 
	0x90, 0x37, 0x64, 0x00, 0x90, 0x29, 0x54, 0x83, 
	0x56, 0x80, 0x29, 0x30, 0x00, 0x80, 0x37, 0x30, 
	0x0a, 0x90, 0x34, 0x64, 0x00, 0x90, 0x24, 0x54, 
	0x83, 0x56, 0x80, 0x24, 0x30, 0x0a, 0x90, 0x30, 
	0x54, 0x83, 0x56, 0x80, 0x30, 0x30, 0x0a, 0x90, 
	0x24, 0x54, 0x83, 0x56, 0x80, 0x24, 0x30, 0x0a, 
	0x90, 0x30, 0x54, 0x83, 0x56, 0x80, 0x30, 0x30, 
	0x00, 0x80, 0x34, 0x30, 0x0a, 0x90, 0x3c, 0x64, 
	0x00, 0x90, 0x24, 0x54, 0x83, 0x56, 0x80, 0x24, 
	0x30, 0x0a, 0x90, 0x30, 0x54, 0x83, 0x56, 0x80, 
	0x30, 0x30, 0x00, 0x80, 0x3c, 0x30, 0x0a, 0x90, 
	0x3e, 0x64, 0x00, 0x90, 0x24, 0x54, 0x83, 0x56, 
	0x80, 0x24, 0x30, 0x00, 0x80, 0x3e, 0x30, 0x0a, 
	0x90, 0x3e, 0x64, 0x00, 0x90, 0x30, 0x54, 0x83, 
	0x56, 0x80, 0x30, 0x30, 0x0a, 0x90, 0x1f, 0x54, 
	0x83, 0x56, 0x80, 0x1f, 0x30, 0x0a, 0x90, 0x2b, 
	0x54, 0x83, 0x56, 0x80, 0x2b, 0x30, 0x00, 0x80, 
	0x3e, 0x30, 0x0a, 0x90, 0x3b, 0x64, 0x00, 0x90, 
	0x1f, 0x54, 0x83, 0x56, 0x80, 0x1f, 0x30, 0x00, 
	0x80, 0x3b, 0x30, 0x0a, 0x90, 0x3e, 0x64, 0x00, 
	0x90, 0x2b, 0x54, 0x83, 0x56, 0x80, 0x2b, 0x30, 
	0x0a, 0x90, 0x1f, 0x54, 0x83, 0x56, 0x80, 0x1f, 
	0x30, 0x0a, 0x90, 0x2b, 0x54, 0x83, 0x56, 0x80, 
	0x2b, 0x30, 0x00, 0x80, 0x3e, 0x30, 0x0a, 0x90, 
	0x3b, 0x64, 0x00, 0x90, 0x1f, 0x54, 0x83, 0x56, 
	0x80, 0x1f, 0x30, 0x00, 0x80, 0x3b, 0x30, 0x0a, 
	0x90, 0x3c, 0x64, 0x00, 0x90, 0x2b, 0x54, 0x83, 
	0x56, 0x80, 0x2b, 0x30, 0x0a, 0x90, 0x21, 0x54, 
	0x83, 0x56, 0x80, 0x21, 0x30, 0x00, 0x80, 0x3c, 
	0x30, 0x0a, 0x90, 0x39, 0x64, 0x00, 0x90, 0x2d, 
	0x54, 0x83, 0x56, 0x80, 0x2d, 0x30, 0x0a, 0x90, 
	0x21, 0x54, 0x83, 0x56, 0x80, 0x21, 0x30, 0x0a, 
	0x90, 0x2d, 0x54, 0x83, 0x56, 0x80, 0x2d, 0x30, 
	0x0a, 0x90, 0x3c, 0x62, 0x00, 0x90, 0x21, 0x54, 
	0x81, 0x66, 0x80, 0x39, 0x30, 0x81, 0x70, 0x80, 
	0x21, 0x30, 0x0a, 0x90, 0x2d, 0x54, 0x83, 0x56, 
	0x80, 0x2d, 0x30, 0x00, 0x80, 0x3c, 0x30, 0x0a, 
	0x90, 0x3b, 0x62, 0x00, 0x90, 0x21, 0x54, 0x83, 
	0x56, 0x80, 0x21, 0x30, 0x00, 0x80, 0x3b, 0x30, 
	0x0a, 0x90, 0x3c, 0x62, 0x00, 0x90, 0x2d, 0x54, 
	0x83, 0x56, 0x80, 0x2d, 0x30, 0x0a, 0x90, 0x1d, 
	0x54, 0x83, 0x56, 0x80, 0x1d, 0x30, 0x0a, 0x90, 
	0x29, 0x54, 0x83, 0x56, 0x80, 0x29, 0x30, 0x00, 
	0x80, 0x3c, 0x30, 0x0a, 0x90, 0x39, 0x62, 0x00, 
	0x90, 0x1d, 0x54, 0x83, 0x56, 0x80, 0x1d, 0x30, 
	0x0a, 0x90, 0x29, 0x54, 0x83, 0x56, 0x80, 0x29, 
	0x30, 0x00, 0x80, 0x39, 0x30, 0x0a, 0x90, 0x39, 
	0x62, 0x00, 0x90, 0x1d, 0x54, 0x83, 0x56, 0x80, 
	0x1d, 0x30, 0x00, 0x80, 0x39, 0x30, 0x0a, 0x90, 
	0x3b, 0x62, 0x00, 0x90, 0x29, 0x54, 0x83, 0x56, 
	0x80, 0x29, 0x30, 0x00, 0x80, 0x3b, 0x30, 0x0a, 
	0x90, 0x39, 0x62, 0x00, 0x90, 0x1d, 0x54, 0x83, 
	0x56, 0x80, 0x1d, 0x30, 0x00, 0x80, 0x39, 0x30, 
	0x0a, 0x90, 0x37, 0x62, 0x00, 0x90, 0x29, 0x54, 
	0x83, 0x56, 0x80, 0x29, 0x30, 0x00, 0x80, 0x37, 
	0x30, 0x0a, 0x90, 0x34, 0x62, 0x00, 0x90, 0x24, 
	0x54, 0x83, 0x56, 0x80, 0x24, 0x30, 0x0a, 0x90, 
	0x30, 0x54, 0x83, 0x56, 0x80, 0x30, 0x30, 0x0a, 
	0x90, 0x24, 0x54, 0x83, 0x56, 0x80, 0x24, 0x30, 
	0x0a, 0x90, 0x30, 0x54, 0x83, 0x56, 0x80, 0x30, 
	0x30, 0x00, 0x80, 0x34, 0x30, 0x0a, 0x90, 0x3c, 
	0x62, 0x00, 0x90, 0x24, 0x54, 0x83, 0x56, 0x80, 
	0x24, 0x30, 0x00, 0x80, 0x3c, 0x30, 0x0a, 0x90, 
	0x40, 0x62, 0x00, 0x90, 0x30, 0x54, 0x83, 0x56, 
	0x80, 0x30, 0x30, 0x00, 0x80, 0x40, 0x30, 0x0a, 
	0x90, 0x3e, 0x62, 0x00, 0x90, 0x24, 0x54, 0x83, 
	0x56, 0x80, 0x24, 0x30, 0x00, 0x80, 0x3e, 0x30, 
	0x0a, 0x90, 0x3c, 0x62, 0x00, 0x90, 0x30, 0x54, 
	0x83, 0x56, 0x80, 0x30, 0x30, 0x00, 0x80, 0x3c, 
	0x30, 0x0a, 0x90, 0x37, 0x62, 0x00, 0x90, 0x1f, 
	0x54, 0x83, 0x56, 0x80, 0x1f, 0x30, 0x0a, 0x90, 
	0x2b, 0x54, 0x83, 0x56, 0x80, 0x2b, 0x30, 0x0a, 
	0x90, 0x1f, 0x54, 0x83, 0x56, 0x80, 0x1f, 0x30, 
	0x0a, 0x90, 0x2b, 0x54, 0x83, 0x56, 0x80, 0x2b, 
	0x30, 0x00, 0x80, 0x37, 0x30, 0x0a, 0x90, 0x37, 
	0x62, 0x00, 0x90, 0x1f, 0x54, 0x83, 0x56, 0x80, 
	0x1f, 0x30, 0x00, 0x80, 0x37, 0x30, 0x0a, 0x90, 
	0x3e, 0x62, 0x00, 0x90, 0x2b, 0x54, 0x83, 0x56, 
	0x80, 0x2b, 0x30, 0x00, 0x80, 0x3e, 0x30, 0x0a, 
	0x90, 0x3c, 0x62, 0x00, 0x90, 0x1f, 0x54, 0x83, 
	0x56, 0x80, 0x1f, 0x30, 0x00, 0x80, 0x3c, 0x30, 
	0x0a, 0x90, 0x3b, 0x62, 0x00, 0x90, 0x2b, 0x54, 
	0x83, 0x56, 0x80, 0x2b, 0x30, 0x00, 0x80, 0x3b, 
	0x30, 0x0a, 0x90, 0x3c, 0x62, 0x00, 0x90, 0x21, 
	0x54, 0x83, 0x56, 0x80, 0x21, 0x30, 0x00, 0x80, 
	0x3c, 0x30, 0x0a, 0x90, 0x3b, 0x62, 0x00, 0x90, 
	0x2d, 0x54, 0x83, 0x56, 0x80, 0x2d, 0x30, 0x00, 
	0x80, 0x3b, 0x30, 0x0a, 0x90, 0x39, 0x62, 0x00, 
	0x90, 0x21, 0x54, 0x83, 0x56, 0x80, 0x21, 0x30, 
	0x00, 0x80, 0x39, 0x30, 0x0a, 0x90, 0x2d, 0x54, 
	0x83, 0x56, 0x80, 0x2d, 0x30, 0x0a, 0x90, 0x3c, 
	0x63, 0x00, 0x90, 0x21, 0x54, 0x83, 0x56, 0x80, 
	0x21, 0x30, 0x0a, 0x90, 0x2d, 0x54, 0x83, 0x56, 
	0x80, 0x2d, 0x30, 0x00, 0x80, 0x3c, 0x30, 0x0a, 
	0x90, 0x3b, 0x63, 0x00, 0x90, 0x21, 0x54, 0x83, 
	0x56, 0x80, 0x21, 0x30, 0x00, 0x80, 0x3b, 0x30, 
	0x0a, 0x90, 0x3c, 0x63, 0x00, 0x90, 0x2d, 0x54, 
	0x83, 0x56, 0x80, 0x2d, 0x30, 0x0a, 0x90, 0x1d, 
	0x54, 0x83, 0x56, 0x80, 0x1d, 0x30, 0x0a, 0x90, 
	0x29, 0x54, 0x83, 0x56, 0x80, 0x29, 0x30, 0x00, 
	0x80, 0x3c, 0x30, 0x0a, 0x90, 0x39, 0x63, 0x00, 
	0x90, 0x1d, 0x54, 0x83, 0x56, 0x80, 0x1d, 0x30, 
	0x0a, 0x90, 0x29, 0x54, 0x83, 0x56, 0x80, 0x29, 
	0x30, 0x00, 0x80, 0x39, 0x30, 0x0a, 0x90, 0x39, 
	0x63, 0x00, 0x90, 0x1d, 0x54, 0x83, 0x56, 0x80, 
	0x1d, 0x30, 0x00, 0x80, 0x39, 0x30, 0x0a, 0x90, 
	0x3b, 0x63, 0x00, 0x90, 0x29, 0x54, 0x83, 0x56, 
	0x80, 0x29, 0x30, 0x00, 0x80, 0x3b, 0x30, 0x0a, 
	0x90, 0x39, 0x63, 0x00, 0x90, 0x1d, 0x54, 0x83, 
	0x56, 0x80, 0x1d, 0x30, 0x00, 0x80, 0x39, 0x30, 
	0x0a, 0x90, 0x37, 0x63, 0x00, 0x90, 0x29, 0x54, 
	0x83, 0x56, 0x80, 0x29, 0x30, 0x00, 0x80, 0x37, 
	0x30, 0x0a, 0x90, 0x34, 0x63, 0x00, 0x90, 0x24, 
	0x54, 0x83, 0x56, 0x80, 0x24, 0x30, 0x0a, 0x90, 
	0x30, 0x54, 0x83, 0x56, 0x80, 0x30, 0x30, 0x0a, 
	0x90, 0x24, 0x54, 0x83, 0x56, 0x80, 0x24, 0x30, 
	0x0a, 0x90, 0x30, 0x54, 0x83, 0x56, 0x80, 0x30, 
	0x30, 0x00, 0x80, 0x34, 0x30, 0x0a, 0x90, 0x3c, 
	0x63, 0x00, 0x90, 0x24, 0x54, 0x83, 0x56, 0x80, 
	0x24, 0x30, 0x0a, 0x90, 0x30, 0x54, 0x83, 0x56, 
	0x80, 0x30, 0x30, 0x00, 0x80, 0x3c, 0x30, 0x0a, 
	0x90, 0x3e, 0x63, 0x00, 0x90, 0x24, 0x54, 0x83, 
	0x56, 0x80, 0x24, 0x30, 0x00, 0x80, 0x3e, 0x30, 
	0x0a, 0x90, 0x3e, 0x63, 0x00, 0x90, 0x30, 0x54, 
	0x83, 0x56, 0x80, 0x30, 0x30, 0x0a, 0x90, 0x1f, 
	0x54, 0x83, 0x56, 0x80, 0x1f, 0x30, 0x0a, 0x90, 
	0x2b, 0x54, 0x83, 0x56, 0x80, 0x2b, 0x30, 0x00, 
	0x80, 0x3e, 0x30, 0x0a, 0x90, 0x3b, 0x63, 0x00, 
	0x90, 0x1f, 0x54, 0x83, 0x56, 0x80, 0x1f, 0x30, 
	0x00, 0x80, 0x3b, 0x30, 0x0a, 0x90, 0x3e, 0x63, 
	0x00, 0x90, 0x2b, 0x54, 0x83, 0x56, 0x80, 0x2b, 
	0x30, 0x0a, 0x90, 0x1f, 0x54, 0x83, 0x56, 0x80, 
	0x1f, 0x30, 0x0a, 0x90, 0x2b, 0x54, 0x83, 0x56, 
	0x80, 0x2b, 0x30, 0x00, 0x80, 0x3e, 0x30, 0x0a, 
	0x90, 0x3b, 0x63, 0x00, 0x90, 0x1f, 0x54, 0x83, 
	0x56, 0x80, 0x1f, 0x30, 0x00, 0x80, 0x3b, 0x30, 
	0x0a, 0x90, 0x3c, 0x63, 0x00, 0x90, 0x2b, 0x54, 
	0x83, 0x56, 0x80, 0x2b, 0x30, 0x83, 0x60, 0x80, 
	0x3c, 0x30, 0x0a, 0x90, 0x39, 0x63, 0x8d, 0x06, 
	0x80, 0x39, 0x30, 0x81, 0x4f, 0xff, 0x2f, 0x00, 
};