// Duke Nukem

{
	0x4d, 0x54, 0x68, 0x64, 0x00, 0x00, 0x00, 0x06, 
	0x00, 0x01, 0x00, 0x0d, 0x00, 0x90, 0x4d, 0x54, 
	0x72, 0x6b, 0x00, 0x00, 0x00, 0x82, 0x00, 0xff, 
	0x58, 0x04, 0x01, 0x02, 0x18, 0x08, 0x00, 0xff, 
	0x51, 0x03, 0x0a, 0xa5, 0x4a, 0x00, 0xff, 0x59, 
	0x02, 0x00, 0x00, 0x00, 0xff, 0x06, 0x07, 0x47, 
	0x72, 0x61, 0x62, 0x62, 0x61, 0x67, 0x81, 0x10, 
	0xff, 0x58, 0x04, 0x04, 0x02, 0x18, 0x08, 0x00, 
	0xff, 0x59, 0x02, 0x03, 0x00, 0x84, 0x40, 0xff, 
	0x06, 0x0e, 0x62, 0x79, 0x20, 0x4c, 0x65, 0x65, 
	0x20, 0x4a, 0x61, 0x63, 0x6b, 0x73, 0x6f, 0x6e, 
	0x84, 0x40, 0xff, 0x06, 0x1d, 0x43, 0x6f, 0x70, 
	0x79, 0x72, 0x69, 0x67, 0x68, 0x74, 0x20, 0xa9, 
	0x20, 0x31, 0x39, 0x39, 0x35, 0x20, 0x4c, 0x65, 
	0x65, 0x20, 0x4a, 0x61, 0x63, 0x6b, 0x73, 0x6f, 
	0x6e, 0x2e, 0xbf, 0x00, 0xff, 0x06, 0x14, 0x41, 
	0x6c, 0x6c, 0x20, 0x52, 0x69, 0x67, 0x68, 0x74, 
	0x73, 0x20, 0x52, 0x65, 0x73, 0x65, 0x72, 0x76, 
	0x65, 0x64, 0x2e, 0x9b, 0x13, 0xff, 0x2f, 0x00, 
	0x4d, 0x54, 0x72, 0x6b, 0x00, 0x00, 0x02, 0x41, 
	0x00, 0xff, 0x21, 0x01, 0x00, 0x00, 0xff, 0x03, 
	0x04, 0x42, 0x61, 0x73, 0x73, 0x00, 0xff, 0x01, 
	0x07, 0x47, 0x72, 0x61, 0x62, 0x62, 0x61, 0x67, 
	0x00, 0xff, 0x01, 0x0e, 0x62, 0x79, 0x20, 0x4c, 
	0x65, 0x65, 0x20, 0x4a, 0x61, 0x63, 0x6b, 0x73, 
	0x6f, 0x6e, 0x00, 0xff, 0x01, 0x1d, 0x43, 0x6f, 
	0x70, 0x79, 0x72, 0x69, 0x67, 0x68, 0x74, 0x20, 
	0xa9, 0x20, 0x31, 0x39, 0x39, 0x35, 0x20, 0x4c, 
	0x65, 0x65, 0x20, 0x4a, 0x61, 0x63, 0x6b, 0x73, 
	0x6f, 0x6e, 0x2e, 0x00, 0xff, 0x01, 0x14, 0x41, 
	0x6c, 0x6c, 0x20, 0x52, 0x69, 0x67, 0x68, 0x74, 
	0x73, 0x20, 0x52, 0x65, 0x73, 0x65, 0x72, 0x76, 
	0x65, 0x64, 0x2e, 0x00, 0xc0, 0x50, 0x00, 0xb0, 
	0x07, 0x69, 0x00, 0xb0, 0x0a, 0x21, 0x00, 0xb0, 
	0x6e, 0x7f, 0x0a, 0xb0, 0x64, 0x00, 0x00, 0xb0, 
	0x65, 0x00, 0x0a, 0xb0, 0x06, 0x02, 0x00, 0xb0, 
	0x26, 0x00, 0x0a, 0xb0, 0x64, 0x7f, 0x00, 0xb0, 
	0x65, 0x7f, 0x0a, 0xb0, 0x5b, 0x64, 0x0a, 0xb0, 
	0x5d, 0x14, 0x0a, 0xe0, 0x00, 0x40, 0x0a, 0xb0, 
	0x01, 0x00, 0x4a, 0xb0, 0x74, 0x00, 0x00, 0x90, 
	0x1e, 0x64, 0x23, 0x80, 0x1e, 0x30, 0x01, 0x90, 
	0x21, 0x64, 0x23, 0x80, 0x21, 0x30, 0x25, 0x90, 
	0x23, 0x64, 0x23, 0x80, 0x23, 0x30, 0x49, 0x90, 
	0x1e, 0x64, 0x23, 0x80, 0x1e, 0x30, 0x01, 0x90, 
	0x23, 0x64, 0x23, 0x80, 0x23, 0x30, 0x25, 0x90, 
	0x25, 0x64, 0x23, 0x80, 0x25, 0x30, 0x49, 0x90, 
	0x1e, 0x64, 0x23, 0x80, 0x1e, 0x30, 0x01, 0x90, 
	0x25, 0x64, 0x23, 0x80, 0x25, 0x30, 0x25, 0x90, 
	0x26, 0x64, 0x23, 0x80, 0x26, 0x30, 0x25, 0x90, 
	0x1e, 0x64, 0x23, 0x80, 0x1e, 0x30, 0x25, 0x90, 
	0x25, 0x64, 0x47, 0x80, 0x25, 0x30, 0x01, 0x90, 
	0x23, 0x64, 0x23, 0x80, 0x23, 0x30, 0x01, 0x90, 
	0x21, 0x64, 0x23, 0x80, 0x21, 0x30, 0x01, 0x90, 
	0x1e, 0x64, 0x23, 0x80, 0x1e, 0x30, 0x81, 0x59, 
	0x90, 0x21, 0x64, 0x23, 0x80, 0x21, 0x30, 0x01, 
	0x90, 0x1f, 0x64, 0x23, 0x80, 0x1f, 0x30, 0x01, 
	0x90, 0x1e, 0x64, 0x23, 0x80, 0x1e, 0x30, 0x01, 
	0x90, 0x21, 0x64, 0x23, 0x80, 0x21, 0x30, 0x25, 
	0x90, 0x23, 0x64, 0x23, 0x80, 0x23, 0x30, 0x49, 
	0x90, 0x1e, 0x64, 0x23, 0x80, 0x1e, 0x30, 0x01, 
	0x90, 0x23, 0x64, 0x23, 0x80, 0x23, 0x30, 0x25, 
	0x90, 0x25, 0x64, 0x23, 0x80, 0x25, 0x30, 0x49, 
	0x90, 0x1e, 0x64, 0x23, 0x80, 0x1e, 0x30, 0x01, 
	0x90, 0x25, 0x64, 0x23, 0x80, 0x25, 0x30, 0x25, 
	0x90, 0x26, 0x64, 0x23, 0x80, 0x26, 0x30, 0x25, 
	0x90, 0x1e, 0x64, 0x23, 0x80, 0x1e, 0x30, 0x25, 
	0x90, 0x25, 0x64, 0x47, 0x80, 0x25, 0x30, 0x01, 
	0x90, 0x23, 0x64, 0x23, 0x80, 0x23, 0x30, 0x01, 
	0x90, 0x21, 0x64, 0x23, 0x80, 0x21, 0x30, 0x01, 
	0x90, 0x1e, 0x64, 0x23, 0x80, 0x1e, 0x30, 0x9d, 
	0x21, 0x90, 0x1e, 0x64, 0x23, 0x80, 0x1e, 0x30, 
	0x01, 0x90, 0x21, 0x64, 0x23, 0x80, 0x21, 0x30, 
	0x25, 0x90, 0x23, 0x64, 0x23, 0x80, 0x23, 0x30, 
	0x49, 0x90, 0x1e, 0x64, 0x23, 0x80, 0x1e, 0x30, 
	0x01, 0x90, 0x23, 0x64, 0x23, 0x80, 0x23, 0x30, 
	0x25, 0x90, 0x25, 0x64, 0x23, 0x80, 0x25, 0x30, 
	0x49, 0x90, 0x1e, 0x64, 0x23, 0x80, 0x1e, 0x30, 
	0x01, 0x90, 0x25, 0x64, 0x23, 0x80, 0x25, 0x30, 
	0x25, 0x90, 0x26, 0x64, 0x23, 0x80, 0x26, 0x30, 
	0x25, 0x90, 0x1e, 0x64, 0x23, 0x80, 0x1e, 0x30, 
	0x25, 0x90, 0x25, 0x64, 0x47, 0x80, 0x25, 0x30, 
	0x01, 0x90, 0x23, 0x64, 0x23, 0x80, 0x23, 0x30, 
	0x01, 0x90, 0x21, 0x64, 0x23, 0x80, 0x21, 0x30, 
	0x01, 0x90, 0x1e, 0x64, 0x23, 0x80, 0x1e, 0x30, 
	0x01, 0x90, 0x1c, 0x6e, 0x23, 0x80, 0x1c, 0x30, 
	0x01, 0x90, 0x1d, 0x64, 0x23, 0x80, 0x1d, 0x30, 
	0x01, 0x90, 0x1e, 0x64, 0x23, 0x80, 0x1e, 0x30, 
	0x01, 0x90, 0x1f, 0x6e, 0x47, 0x80, 0x1f, 0x30, 
	0x01, 0x90, 0x23, 0x64, 0x23, 0x80, 0x23, 0x30, 
	0x01, 0x90, 0x21, 0x64, 0x23, 0x80, 0x21, 0x30, 
	0x01, 0x90, 0x1f, 0x64, 0x23, 0x80, 0x1f, 0x30, 
	0xad, 0x00, 0xb0, 0x75, 0x7f, 0x14, 0xff, 0x2f, 
	0x00, 0x4d, 0x54, 0x72, 0x6b, 0x00, 0x00, 0x00, 
	0x59, 0x00, 0xff, 0x21, 0x01, 0x00, 0x00, 0xff, 
	0x03, 0x0c, 0x44, 0x69, 0x73, 0x74, 0x6f, 0x72, 
	0x74, 0x69, 0x6f, 0x6e, 0x20, 0x31, 0x00, 0xc1, 
	0x1e, 0x00, 0xb1, 0x07, 0x6e, 0x00, 0xb1, 0x0a, 
	0x35, 0x00, 0xb1, 0x6e, 0x7f, 0x0a, 0xb1, 0x64, 
	0x00, 0x00, 0xb1, 0x65, 0x00, 0x0a, 0xb1, 0x06, 
	0x02, 0x00, 0xb1, 0x26, 0x00, 0x0a, 0xb1, 0x64, 
	0x7f, 0x00, 0xb1, 0x65, 0x7f, 0x0a, 0xb1, 0x5b, 
	0x64, 0x0a, 0xb1, 0x5d, 0x14, 0x0a, 0xe1, 0x00, 
	0x40, 0x0a, 0xb1, 0x01, 0x00, 0x4a, 0xb1, 0x74, 
	0x00, 0xe2, 0x7f, 0xb1, 0x75, 0x7f, 0x14, 0xff, 
	0x2f, 0x00, 0x4d, 0x54, 0x72, 0x6b, 0x00, 0x00, 
	0x09, 0x01, 0x00, 0xff, 0x21, 0x01, 0x00, 0x00, 
	0xff, 0x03, 0x0b, 0x4f, 0x76, 0x65, 0x72, 0x64, 
	0x72, 0x69, 0x76, 0x65, 0x20, 0x31, 0x00, 0xc2, 
	0x50, 0x00, 0xb2, 0x07, 0x64, 0x00, 0xb2, 0x0a, 
	0x49, 0x00, 0xb2, 0x6e, 0x7f, 0x0a, 0xb2, 0x64, 
	0x00, 0x00, 0xb2, 0x65, 0x00, 0x0a, 0xb2, 0x06, 
	0x02, 0x00, 0xb2, 0x26, 0x00, 0x0a, 0xb2, 0x64, 
	0x7f, 0x00, 0xb2, 0x65, 0x7f, 0x0a, 0xb2, 0x5b, 
	0x64, 0x0a, 0xb2, 0x5d, 0x14, 0x0a, 0xe2, 0x00, 
	0x40, 0x0a, 0xb2, 0x01, 0x00, 0x4a, 0xb2, 0x74, 
	0x00, 0x00, 0x90, 0x2a, 0x64, 0x23, 0x80, 0x2a, 
	0x30, 0x01, 0x90, 0x2d, 0x64, 0x23, 0x80, 0x2d, 
	0x30, 0x25, 0x90, 0x2f, 0x64, 0x23, 0x80, 0x2f, 
	0x30, 0x49, 0x90, 0x2a, 0x64, 0x23, 0x80, 0x2a, 
	0x30, 0x01, 0x90, 0x2f, 0x64, 0x23, 0x80, 0x2f, 
	0x30, 0x25, 0x90, 0x31, 0x64, 0x23, 0x80, 0x31, 
	0x30, 0x49, 0x90, 0x2a, 0x64, 0x23, 0x80, 0x2a, 
	0x30, 0x01, 0x90, 0x31, 0x64, 0x23, 0x80, 0x31, 
	0x30, 0x25, 0x90, 0x32, 0x64, 0x23, 0x80, 0x32, 
	0x30, 0x25, 0x90, 0x2a, 0x64, 0x23, 0x80, 0x2a, 
	0x30, 0x25, 0x90, 0x31, 0x64, 0x47, 0x80, 0x31, 
	0x30, 0x01, 0x90, 0x2f, 0x64, 0x23, 0x80, 0x2f, 
	0x30, 0x01, 0x90, 0x2d, 0x64, 0x23, 0x80, 0x2d, 
	0x30, 0x01, 0x90, 0x2a, 0x64, 0x23, 0x80, 0x2a, 
	0x30, 0x01, 0x90, 0x31, 0x6e, 0x00, 0x90, 0x28, 
	0x6e, 0x6b, 0x80, 0x31, 0x30, 0x00, 0x80, 0x28, 
	0x30, 0x01, 0x90, 0x2b, 0x6e, 0x00, 0x90, 0x32, 
	0x6e, 0x47, 0x80, 0x32, 0x30, 0x01, 0x90, 0x32, 
	0x64, 0x23, 0x80, 0x2b, 0x30, 0x00, 0x80, 0x32, 
	0x30, 0x01, 0x90, 0x31, 0x64, 0x23, 0x80, 0x31, 
	0x30, 0x01, 0x90, 0x2f, 0x64, 0x23, 0x80, 0x2f, 
	0x30, 0x89, 0x01, 0x90, 0x2a, 0x5a, 0x23, 0x80, 
	0x2a, 0x30, 0x01, 0x90, 0x2a, 0x51, 0x11, 0x80, 
	0x2a, 0x30, 0x13, 0x90, 0x2a, 0x51, 0x11, 0x80, 
	0x2a, 0x30, 0x13, 0x90, 0x2a, 0x51, 0x11, 0x80, 
	0x2a, 0x30, 0x13, 0x90, 0x2a, 0x51, 0x11, 0x80, 
	0x2a, 0x30, 0x13, 0x90, 0x2a, 0x51, 0x11, 0x80, 
	0x2a, 0x30, 0x13, 0x90, 0x2a, 0x58, 0x23, 0x80, 
	0x2a, 0x30, 0x01, 0x90, 0x2a, 0x51, 0x11, 0x80, 
	0x2a, 0x30, 0x13, 0x90, 0x2a, 0x51, 0x11, 0x80, 
	0x2a, 0x30, 0x13, 0x90, 0x2a, 0x51, 0x11, 0x80, 
	0x2a, 0x30, 0x13, 0x90, 0x2a, 0x51, 0x11, 0x80, 
	0x2a, 0x30, 0x13, 0x90, 0x2a, 0x51, 0x11, 0x80, 
	0x2a, 0x30, 0x13, 0x90, 0x2a, 0x51, 0x11, 0x80, 
	0x2a, 0x30, 0x13, 0x90, 0x2a, 0x51, 0x11, 0x80, 
	0x2a, 0x30, 0x13, 0x90, 0x2a, 0x58, 0x23, 0x80, 
	0x2a, 0x30, 0x01, 0x90, 0x2a, 0x51, 0x11, 0x80, 
	0x2a, 0x30, 0x13, 0x90, 0x2a, 0x58, 0x23, 0x80, 
	0x2a, 0x30, 0x01, 0x90, 0x2a, 0x51, 0x11, 0x80, 
	0x2a, 0x30, 0x13, 0x90, 0x2a, 0x51, 0x11, 0x80, 
	0x2a, 0x30, 0x13, 0x90, 0x2a, 0x51, 0x11, 0x80, 
	0x2a, 0x30, 0x13, 0x90, 0x2a, 0x51, 0x11, 0x80, 
	0x2a, 0x30, 0x13, 0x90, 0x2a, 0x51, 0x11, 0x80, 
	0x2a, 0x30, 0x13, 0x90, 0x2a, 0x58, 0x23, 0x80, 
	0x2a, 0x30, 0x01, 0x90, 0x2a, 0x51, 0x11, 0x80, 
	0x2a, 0x30, 0x13, 0x90, 0x2a, 0x51, 0x11, 0x80, 
	0x2a, 0x30, 0x13, 0x90, 0x2a, 0x51, 0x11, 0x80, 
	0x2a, 0x30, 0x13, 0x90, 0x2b, 0x58, 0x23, 0x80, 
	0x2b, 0x30, 0x01, 0x90, 0x2b, 0x51, 0x11, 0x80, 
	0x2b, 0x30, 0x13, 0x90, 0x2a, 0x51, 0x11, 0x80, 
	0x2a, 0x30, 0x13, 0x90, 0x28, 0x58, 0x23, 0x80, 
	0x28, 0x30, 0x01, 0x90, 0x2b, 0x51, 0x14, 0x80, 
	0x2b, 0x30, 0x10, 0x90, 0x2b, 0x58, 0x23, 0x80, 
	0x2b, 0x30, 0x01, 0x90, 0x2a, 0x58, 0x23, 0x80, 
	0x2a, 0x30, 0x01, 0x90, 0x2a, 0x51, 0x11, 0x80, 
	0x2a, 0x30, 0x13, 0x90, 0x2a, 0x51, 0x11, 0x80, 
	0x2a, 0x30, 0x13, 0x90, 0x2a, 0x51, 0x11, 0x80, 
	0x2a, 0x30, 0x13, 0x90, 0x2a, 0x51, 0x11, 0x80, 
	0x2a, 0x30, 0x13, 0x90, 0x2a, 0x51, 0x11, 0x80, 
	0x2a, 0x30, 0x13, 0x90, 0x2a, 0x58, 0x23, 0x80, 
	0x2a, 0x30, 0x01, 0x90, 0x2a, 0x51, 0x11, 0x80, 
	0x2a, 0x30, 0x13, 0x90, 0x2a, 0x51, 0x11, 0x80, 
	0x2a, 0x30, 0x13, 0x90, 0x2a, 0x51, 0x11, 0x80, 
	0x2a, 0x30, 0x13, 0x90, 0x2a, 0x51, 0x11, 0x80, 
	0x2a, 0x30, 0x13, 0x90, 0x2a, 0x51, 0x11, 0x80, 
	0x2a, 0x30, 0x13, 0x90, 0x2a, 0x51, 0x11, 0x80, 
	0x2a, 0x30, 0x13, 0x90, 0x2a, 0x51, 0x11, 0x80, 
	0x2a, 0x30, 0x13, 0x90, 0x2a, 0x58, 0x23, 0x80, 
	0x2a, 0x30, 0x01, 0x90, 0x2a, 0x51, 0x11, 0x80, 
	0x2a, 0x30, 0x13, 0x90, 0x2a, 0x58, 0x23, 0x80, 
	0x2a, 0x30, 0x01, 0x90, 0x2a, 0x51, 0x11, 0x80, 
	0x2a, 0x30, 0x13, 0x90, 0x2a, 0x51, 0x11, 0x80, 
	0x2a, 0x30, 0x13, 0x90, 0x2a, 0x51, 0x11, 0x80, 
	0x2a, 0x30, 0x13, 0x90, 0x2a, 0x51, 0x11, 0x80, 
	0x2a, 0x30, 0x13, 0x90, 0x2a, 0x51, 0x11, 0x80, 
	0x2a, 0x30, 0x13, 0x90, 0x2a, 0x58, 0x23, 0x80, 
	0x2a, 0x30, 0x01, 0x90, 0x2a, 0x51, 0x11, 0x80, 
	0x2a, 0x30, 0x13, 0x90, 0x2a, 0x51, 0x11, 0x80, 
	0x2a, 0x30, 0x13, 0x90, 0x2a, 0x51, 0x11, 0x80, 
	0x2a, 0x30, 0x13, 0x90, 0x32, 0x58, 0x23, 0x80, 
	0x32, 0x30, 0x01, 0x90, 0x31, 0x51, 0x12, 0x80, 
	0x31, 0x30, 0x12, 0x90, 0x2a, 0x51, 0x11, 0x80, 
	0x2a, 0x30, 0x13, 0x90, 0x2b, 0x58, 0x23, 0x80, 
	0x2b, 0x30, 0x01, 0x90, 0x2a, 0x51, 0x14, 0x80, 
	0x2a, 0x30, 0x10, 0x90, 0x2a, 0x58, 0x23, 0x80, 
	0x2a, 0x30, 0x01, 0x90, 0x2b, 0x58, 0x23, 0x80, 
	0x2b, 0x30, 0x01, 0x90, 0x2b, 0x51, 0x11, 0x80, 
	0x2b, 0x30, 0x13, 0x90, 0x2b, 0x51, 0x11, 0x80, 
	0x2b, 0x30, 0x13, 0x90, 0x2b, 0x51, 0x11, 0x80, 
	0x2b, 0x30, 0x13, 0x90, 0x2b, 0x51, 0x11, 0x80, 
	0x2b, 0x30, 0x13, 0x90, 0x2b, 0x51, 0x11, 0x80, 
	0x2b, 0x30, 0x13, 0x90, 0x2b, 0x58, 0x23, 0x80, 
	0x2b, 0x30, 0x01, 0x90, 0x2b, 0x51, 0x11, 0x80, 
	0x2b, 0x30, 0x13, 0x90, 0x2b, 0x51, 0x11, 0x80, 
	0x2b, 0x30, 0x13, 0x90, 0x2b, 0x51, 0x11, 0x80, 
	0x2b, 0x30, 0x13, 0x90, 0x2b, 0x51, 0x11, 0x80, 
	0x2b, 0x30, 0x13, 0x90, 0x2b, 0x51, 0x11, 0x80, 
	0x2b, 0x30, 0x13, 0x90, 0x2b, 0x51, 0x11, 0x80, 
	0x2b, 0x30, 0x13, 0x90, 0x2b, 0x51, 0x11, 0x80, 
	0x2b, 0x30, 0x13, 0x90, 0x2b, 0x58, 0x23, 0x80, 
	0x2b, 0x30, 0x01, 0x90, 0x2b, 0x51, 0x11, 0x80, 
	0x2b, 0x30, 0x13, 0x90, 0x2b, 0x58, 0x23, 0x80, 
	0x2b, 0x30, 0x01, 0x90, 0x2b, 0x51, 0x11, 0x80, 
	0x2b, 0x30, 0x13, 0x90, 0x2b, 0x51, 0x11, 0x80, 
	0x2b, 0x30, 0x13, 0x90, 0x2b, 0x51, 0x11, 0x80, 
	0x2b, 0x30, 0x13, 0x90, 0x2b, 0x51, 0x11, 0x80, 
	0x2b, 0x30, 0x13, 0x90, 0x2b, 0x51, 0x11, 0x80, 
	0x2b, 0x30, 0x13, 0x90, 0x2b, 0x58, 0x23, 0x80, 
	0x2b, 0x30, 0x01, 0x90, 0x2b, 0x51, 0x11, 0x80, 
	0x2b, 0x30, 0x13, 0x90, 0x2b, 0x51, 0x11, 0x80, 
	0x2b, 0x30, 0x13, 0x90, 0x2b, 0x51, 0x11, 0x80, 
	0x2b, 0x30, 0x13, 0x90, 0x2b, 0x51, 0x11, 0x80, 
	0x2b, 0x30, 0x13, 0x90, 0x2b, 0x51, 0x11, 0x80, 
	0x2b, 0x30, 0x13, 0x90, 0x2b, 0x51, 0x11, 0x80, 
	0x2b, 0x30, 0x13, 0x90, 0x2b, 0x51, 0x11, 0x80, 
	0x2b, 0x30, 0x13, 0x90, 0x2b, 0x58, 0x23, 0x80, 
	0x2b, 0x30, 0x01, 0x90, 0x2b, 0x51, 0x11, 0x80, 
	0x2b, 0x30, 0x89, 0x13, 0x90, 0x2a, 0x5a, 0x23, 
	0x80, 0x2a, 0x30, 0x01, 0x90, 0x2a, 0x51, 0x11, 
	0x80, 0x2a, 0x30, 0x13, 0x90, 0x2a, 0x51, 0x11, 
	0x80, 0x2a, 0x30, 0x13, 0x90, 0x2a, 0x51, 0x11, 
	0x80, 0x2a, 0x30, 0x13, 0x90, 0x2a, 0x51, 0x11, 
	0x80, 0x2a, 0x30, 0x13, 0x90, 0x2a, 0x51, 0x11, 
	0x80, 0x2a, 0x30, 0x13, 0x90, 0x2a, 0x58, 0x23, 
	0x80, 0x2a, 0x30, 0x01, 0x90, 0x2a, 0x51, 0x11, 
	0x80, 0x2a, 0x30, 0x13, 0x90, 0x2a, 0x51, 0x11, 
	0x80, 0x2a, 0x30, 0x13, 0x90, 0x2a, 0x51, 0x11, 
	0x80, 0x2a, 0x30, 0x13, 0x90, 0x2a, 0x51, 0x11, 
	0x80, 0x2a, 0x30, 0x13, 0x90, 0x2a, 0x51, 0x11, 
	0x80, 0x2a, 0x30, 0x13, 0x90, 0x2a, 0x51, 0x11, 
	0x80, 0x2a, 0x30, 0x13, 0x90, 0x2a, 0x51, 0x11, 
	0x80, 0x2a, 0x30, 0x13, 0x90, 0x2a, 0x58, 0x23, 
	0x80, 0x2a, 0x30, 0x01, 0x90, 0x2a, 0x51, 0x11, 
	0x80, 0x2a, 0x30, 0x13, 0x90, 0x2a, 0x58, 0x23, 
	0x80, 0x2a, 0x30, 0x01, 0x90, 0x2a, 0x51, 0x11, 
	0x80, 0x2a, 0x30, 0x13, 0x90, 0x2a, 0x51, 0x11, 
	0x80, 0x2a, 0x30, 0x13, 0x90, 0x2a, 0x51, 0x11, 
	0x80, 0x2a, 0x30, 0x13, 0x90, 0x2a, 0x51, 0x11, 
	0x80, 0x2a, 0x30, 0x13, 0x90, 0x2a, 0x51, 0x11, 
	0x80, 0x2a, 0x30, 0x13, 0x90, 0x2a, 0x58, 0x23, 
	0x80, 0x2a, 0x30, 0x01, 0x90, 0x2a, 0x51, 0x11, 
	0x80, 0x2a, 0x30, 0x13, 0x90, 0x2a, 0x51, 0x11, 
	0x80, 0x2a, 0x30, 0x13, 0x90, 0x2a, 0x51, 0x11, 
	0x80, 0x2a, 0x30, 0x13, 0x90, 0x2b, 0x58, 0x23, 
	0x80, 0x2b, 0x30, 0x01, 0x90, 0x2b, 0x51, 0x11, 
	0x80, 0x2b, 0x30, 0x13, 0x90, 0x2a, 0x51, 0x11, 
	0x80, 0x2a, 0x30, 0x13, 0x90, 0x28, 0x58, 0x23, 
	0x80, 0x28, 0x30, 0x01, 0x90, 0x2b, 0x51, 0x14, 
	0x80, 0x2b, 0x30, 0x10, 0x90, 0x2b, 0x58, 0x23, 
	0x80, 0x2b, 0x30, 0x01, 0x90, 0x2a, 0x58, 0x23, 
	0x80, 0x2a, 0x30, 0x01, 0x90, 0x2a, 0x51, 0x11, 
	0x80, 0x2a, 0x30, 0x13, 0x90, 0x2a, 0x51, 0x11, 
	0x80, 0x2a, 0x30, 0x13, 0x90, 0x2a, 0x51, 0x11, 
	0x80, 0x2a, 0x30, 0x13, 0x90, 0x2a, 0x51, 0x11, 
	0x80, 0x2a, 0x30, 0x13, 0x90, 0x2a, 0x51, 0x11, 
	0x80, 0x2a, 0x30, 0x13, 0x90, 0x2a, 0x58, 0x23, 
	0x80, 0x2a, 0x30, 0x01, 0x90, 0x2a, 0x51, 0x11, 
	0x80, 0x2a, 0x30, 0x13, 0x90, 0x2a, 0x51, 0x11, 
	0x80, 0x2a, 0x30, 0x13, 0x90, 0x2a, 0x51, 0x11, 
	0x80, 0x2a, 0x30, 0x13, 0x90, 0x2a, 0x51, 0x11, 
	0x80, 0x2a, 0x30, 0x13, 0x90, 0x2a, 0x51, 0x11, 
	0x80, 0x2a, 0x30, 0x13, 0x90, 0x2a, 0x51, 0x11, 
	0x80, 0x2a, 0x30, 0x13, 0x90, 0x2a, 0x51, 0x11, 
	0x80, 0x2a, 0x30, 0x13, 0x90, 0x2a, 0x58, 0x23, 
	0x80, 0x2a, 0x30, 0x01, 0x90, 0x2a, 0x51, 0x11, 
	0x80, 0x2a, 0x30, 0x13, 0x90, 0x2a, 0x58, 0x23, 
	0x80, 0x2a, 0x30, 0x01, 0x90, 0x2a, 0x51, 0x11, 
	0x80, 0x2a, 0x30, 0x13, 0x90, 0x2a, 0x51, 0x11, 
	0x80, 0x2a, 0x30, 0x13, 0x90, 0x2a, 0x51, 0x11, 
	0x80, 0x2a, 0x30, 0x13, 0x90, 0x2a, 0x51, 0x11, 
	0x80, 0x2a, 0x30, 0x13, 0x90, 0x2a, 0x51, 0x11, 
	0x80, 0x2a, 0x30, 0x13, 0x90, 0x2a, 0x58, 0x23, 
	0x80, 0x2a, 0x30, 0x01, 0x90, 0x2a, 0x51, 0x11, 
	0x80, 0x2a, 0x30, 0x13, 0x90, 0x2a, 0x51, 0x11, 
	0x80, 0x2a, 0x30, 0x13, 0x90, 0x2a, 0x51, 0x11, 
	0x80, 0x2a, 0x30, 0x13, 0x90, 0x32, 0x58, 0x23, 
	0x80, 0x32, 0x30, 0x01, 0x90, 0x31, 0x51, 0x11, 
	0x80, 0x31, 0x30, 0x13, 0x90, 0x2a, 0x51, 0x11, 
	0x80, 0x2a, 0x30, 0x13, 0x90, 0x2b, 0x58, 0x23, 
	0x80, 0x2b, 0x30, 0x01, 0x90, 0x2a, 0x51, 0x14, 
	0x80, 0x2a, 0x30, 0x10, 0x90, 0x2a, 0x58, 0x23, 
	0x80, 0x2a, 0x30, 0x01, 0x90, 0x2a, 0x5a, 0x23, 
	0x80, 0x2a, 0x30, 0x01, 0x90, 0x2a, 0x51, 0x11, 
	0x80, 0x2a, 0x30, 0x13, 0x90, 0x2a, 0x51, 0x11, 
	0x80, 0x2a, 0x30, 0x13, 0x90, 0x2a, 0x51, 0x11, 
	0x80, 0x2a, 0x30, 0x13, 0x90, 0x2a, 0x51, 0x11, 
	0x80, 0x2a, 0x30, 0x13, 0x90, 0x2a, 0x51, 0x11, 
	0x80, 0x2a, 0x30, 0x13, 0x90, 0x2a, 0x58, 0x23, 
	0x80, 0x2a, 0x30, 0x01, 0x90, 0x2a, 0x51, 0x11, 
	0x80, 0x2a, 0x30, 0x13, 0x90, 0x2a, 0x51, 0x11, 
	0x80, 0x2a, 0x30, 0x13, 0x90, 0x2a, 0x51, 0x11, 
	0x80, 0x2a, 0x30, 0x13, 0x90, 0x2a, 0x51, 0x11, 
	0x80, 0x2a, 0x30, 0x13, 0x90, 0x2a, 0x51, 0x11, 
	0x80, 0x2a, 0x30, 0x13, 0x90, 0x2a, 0x51, 0x11, 
	0x80, 0x2a, 0x30, 0x13, 0x90, 0x2a, 0x51, 0x11, 
	0x80, 0x2a, 0x30, 0x13, 0x90, 0x2a, 0x58, 0x23, 
	0x80, 0x2a, 0x30, 0x01, 0x90, 0x2a, 0x51, 0x11, 
	0x80, 0x2a, 0x30, 0x13, 0x90, 0x2a, 0x58, 0x23, 
	0x80, 0x2a, 0x30, 0x01, 0x90, 0x2a, 0x51, 0x11, 
	0x80, 0x2a, 0x30, 0x13, 0x90, 0x2a, 0x51, 0x11, 
	0x80, 0x2a, 0x30, 0x13, 0x90, 0x2a, 0x51, 0x11, 
	0x80, 0x2a, 0x30, 0x13, 0x90, 0x2a, 0x51, 0x11, 
	0x80, 0x2a, 0x30, 0x13, 0x90, 0x2a, 0x51, 0x11, 
	0x80, 0x2a, 0x30, 0x13, 0x90, 0x2a, 0x58, 0x23, 
	0x80, 0x2a, 0x30, 0x01, 0x90, 0x2a, 0x51, 0x11, 
	0x80, 0x2a, 0x30, 0x13, 0x90, 0x36, 0x51, 0x11, 
	0x80, 0x36, 0x30, 0x13, 0x90, 0x36, 0x51, 0x11, 
	0x80, 0x36, 0x30, 0x13, 0x90, 0x34, 0x58, 0x23, 
	0x80, 0x34, 0x30, 0x01, 0x90, 0x34, 0x51, 0x11, 
	0x80, 0x34, 0x30, 0x13, 0x90, 0x32, 0x51, 0x11, 
	0x80, 0x32, 0x30, 0x13, 0x90, 0x32, 0x58, 0x23, 
	0x80, 0x32, 0x30, 0x01, 0x90, 0x31, 0x51, 0x14, 
	0x80, 0x31, 0x30, 0x10, 0x90, 0x32, 0x58, 0x23, 
	0x80, 0x32, 0x30, 0x01, 0x90, 0x2a, 0x58, 0x23, 
	0x80, 0x2a, 0x30, 0x01, 0x90, 0x2a, 0x51, 0x11, 
	0x80, 0x2a, 0x30, 0x13, 0x90, 0x2a, 0x51, 0x11, 
	0x80, 0x2a, 0x30, 0x13, 0x90, 0x2a, 0x51, 0x11, 
	0x80, 0x2a, 0x30, 0x13, 0x90, 0x2a, 0x51, 0x11, 
	0x80, 0x2a, 0x30, 0x13, 0x90, 0x2a, 0x51, 0x11, 
	0x80, 0x2a, 0x30, 0x13, 0x90, 0x2a, 0x58, 0x23, 
	0x80, 0x2a, 0x30, 0x01, 0x90, 0x2a, 0x51, 0x11, 
	0x80, 0x2a, 0x30, 0x13, 0x90, 0x2a, 0x51, 0x11, 
	0x80, 0x2a, 0x30, 0x13, 0x90, 0x2a, 0x51, 0x11, 
	0x80, 0x2a, 0x30, 0x13, 0x90, 0x2a, 0x51, 0x11, 
	0x80, 0x2a, 0x30, 0x13, 0x90, 0x2a, 0x51, 0x11, 
	0x80, 0x2a, 0x30, 0x13, 0x90, 0x2a, 0x51, 0x11, 
	0x80, 0x2a, 0x30, 0x13, 0x90, 0x2a, 0x51, 0x11, 
	0x80, 0x2a, 0x30, 0x13, 0x90, 0x2a, 0x58, 0x23, 
	0x80, 0x2a, 0x30, 0x01, 0x90, 0x2a, 0x51, 0x11, 
	0x80, 0x2a, 0x30, 0x13, 0x90, 0x2a, 0x58, 0x23, 
	0x80, 0x2a, 0x30, 0x01, 0x90, 0x2a, 0x51, 0x11, 
	0x80, 0x2a, 0x30, 0x13, 0x90, 0x2a, 0x51, 0x11, 
	0x80, 0x2a, 0x30, 0x13, 0x90, 0x2a, 0x51, 0x11, 
	0x80, 0x2a, 0x30, 0x13, 0x90, 0x2a, 0x51, 0x11, 
	0x80, 0x2a, 0x30, 0x13, 0x90, 0x2a, 0x51, 0x11, 
	0x80, 0x2a, 0x30, 0x13, 0x90, 0x2a, 0x58, 0x23, 
	0x80, 0x2a, 0x30, 0x01, 0x90, 0x2a, 0x51, 0x11, 
	0x80, 0x2a, 0x30, 0x13, 0x90, 0x2a, 0x51, 0x11, 
	0x80, 0x2a, 0x30, 0x13, 0x90, 0x2a, 0x51, 0x11, 
	0x80, 0x2a, 0x30, 0x13, 0x90, 0x32, 0x58, 0x23, 
	0x80, 0x32, 0x30, 0x01, 0x90, 0x31, 0x51, 0x11, 
	0x80, 0x31, 0x30, 0x13, 0x90, 0x2a, 0x51, 0x11, 
	0x80, 0x2a, 0x30, 0x13, 0x90, 0x2b, 0x58, 0x23, 
	0x80, 0x2b, 0x30, 0x01, 0x90, 0x2a, 0x51, 0x14, 
	0x80, 0x2a, 0x30, 0x10, 0x90, 0x2a, 0x58, 0x23, 
	0x80, 0x2a, 0x30, 0x01, 0x90, 0x2a, 0x58, 0x23, 
	0x80, 0x2a, 0x30, 0x01, 0x90, 0x2a, 0x51, 0x11, 
	0x80, 0x2a, 0x30, 0x13, 0x90, 0x2a, 0x51, 0x11, 
	0x80, 0x2a, 0x30, 0x13, 0x90, 0x2a, 0x51, 0x11, 
	0x80, 0x2a, 0x30, 0x13, 0x90, 0x2a, 0x51, 0x11, 
	0x80, 0x2a, 0x30, 0x13, 0x90, 0x2a, 0x51, 0x11, 
	0x80, 0x2a, 0x30, 0x13, 0x90, 0x2a, 0x58, 0x23, 
	0x80, 0x2a, 0x30, 0x01, 0x90, 0x2a, 0x51, 0x11, 
	0x80, 0x2a, 0x30, 0x13, 0x90, 0x2a, 0x51, 0x11, 
	0x80, 0x2a, 0x30, 0x13, 0x90, 0x2a, 0x51, 0x11, 
	0x80, 0x2a, 0x30, 0x13, 0x90, 0x2a, 0x51, 0x11, 
	0x80, 0x2a, 0x30, 0x13, 0x90, 0x2a, 0x51, 0x11, 
	0x80, 0x2a, 0x30, 0x13, 0x90, 0x2a, 0x51, 0x11, 
	0x80, 0x2a, 0x30, 0x13, 0x90, 0x2a, 0x51, 0x11, 
	0x80, 0x2a, 0x30, 0x13, 0x90, 0x2a, 0x58, 0x23, 
	0x80, 0x2a, 0x30, 0x01, 0x90, 0x2a, 0x51, 0x11, 
	0x80, 0x2a, 0x30, 0x13, 0x90, 0x2a, 0x58, 0x23, 
	0x80, 0x2a, 0x30, 0x01, 0x90, 0x2a, 0x51, 0x11, 
	0x80, 0x2a, 0x30, 0x13, 0x90, 0x2a, 0x51, 0x11, 
	0x80, 0x2a, 0x30, 0x13, 0x90, 0x2a, 0x51, 0x11, 
	0x80, 0x2a, 0x30, 0x13, 0x90, 0x2a, 0x51, 0x11, 
	0x80, 0x2a, 0x30, 0x13, 0x90, 0x2a, 0x51, 0x11, 
	0x80, 0x2a, 0x30, 0x13, 0x90, 0x2a, 0x58, 0x23, 
	0x80, 0x2a, 0x30, 0x01, 0x90, 0x2a, 0x51, 0x11, 
	0x80, 0x2a, 0x30, 0x13, 0x90, 0x2a, 0x51, 0x11, 
	0x80, 0x2a, 0x30, 0x13, 0x90, 0x2a, 0x51, 0x11, 
	0x80, 0x2a, 0x30, 0x13, 0x90, 0x2a, 0x51, 0x11, 
	0x80, 0x2a, 0x30, 0x13, 0x90, 0x2a, 0x51, 0x11, 
	0x80, 0x2a, 0x30, 0x13, 0x90, 0x2a, 0x51, 0x11, 
	0x80, 0x2a, 0x30, 0x12, 0x90, 0x2a, 0x51, 0x12, 
	0x80, 0x2a, 0x30, 0x13, 0x90, 0x2a, 0x58, 0x23, 
	0x80, 0x2a, 0x30, 0x01, 0x90, 0x2a, 0x51, 0x11, 
	0x80, 0x2a, 0x30, 0x12, 0xb2, 0x75, 0x7f, 0x14, 
	0xff, 0x2f, 0x00, 0x4d, 0x54, 0x72, 0x6b, 0x00, 
	0x00, 0x01, 0xb2, 0x00, 0xff, 0x21, 0x01, 0x00, 
	0x00, 0xff, 0x03, 0x0a, 0x53, 0x61, 0x77, 0x74, 
	0x6f, 0x6f, 0x74, 0x68, 0x20, 0x58, 0x00, 0xc3, 
	0x51, 0x00, 0xb3, 0x07, 0x69, 0x00, 0xb3, 0x0a, 
	0x5d, 0x00, 0xb3, 0x6e, 0x7f, 0x0a, 0xb3, 0x64, 
	0x00, 0x00, 0xb3, 0x65, 0x00, 0x0a, 0xb3, 0x06, 
	0x02, 0x00, 0xb3, 0x26, 0x00, 0x0a, 0xb3, 0x64, 
	0x7f, 0x00, 0xb3, 0x65, 0x7f, 0x0a, 0xb3, 0x5b, 
	0x64, 0x0a, 0xb3, 0x5d, 0x14, 0x0a, 0xe3, 0x00, 
	0x40, 0x0a, 0xb3, 0x01, 0x00, 0x4a, 0xb3, 0x74, 
	0x00, 0xa6, 0x68, 0x90, 0x37, 0x67, 0x11, 0x80, 
	0x37, 0x30, 0x01, 0x90, 0x39, 0x66, 0x11, 0x80, 
	0x39, 0x30, 0x01, 0x90, 0x3b, 0x65, 0x11, 0x80, 
	0x3b, 0x30, 0x01, 0x90, 0x3e, 0x64, 0x11, 0x80, 
	0x3e, 0x30, 0x01, 0x90, 0x42, 0x69, 0x23, 0x80, 
	0x42, 0x30, 0x01, 0x90, 0x40, 0x61, 0x11, 0x80, 
	0x40, 0x30, 0x01, 0x90, 0x3e, 0x61, 0x11, 0x80, 
	0x3e, 0x30, 0x01, 0x90, 0x40, 0x66, 0x23, 0x80, 
	0x40, 0x30, 0x01, 0x90, 0x42, 0x69, 0x11, 0x80, 
	0x42, 0x30, 0x82, 0x7b, 0x90, 0x3b, 0x71, 0x11, 
	0x80, 0x3b, 0x30, 0x01, 0x90, 0x3d, 0x5a, 0x11, 
	0x80, 0x3d, 0x30, 0x01, 0x90, 0x3e, 0x5a, 0x11, 
	0x80, 0x3e, 0x30, 0x01, 0x90, 0x3d, 0x71, 0x11, 
	0x80, 0x3d, 0x30, 0x01, 0x90, 0x3e, 0x5a, 0x11, 
	0x80, 0x3e, 0x30, 0x01, 0x90, 0x40, 0x5a, 0x11, 
	0x80, 0x40, 0x30, 0x01, 0x90, 0x42, 0x6e, 0x11, 
	0x80, 0x42, 0x30, 0x01, 0x90, 0x3e, 0x64, 0x11, 
	0x80, 0x3e, 0x30, 0x01, 0x90, 0x3d, 0x6e, 0x11, 
	0x80, 0x3d, 0x30, 0x01, 0x90, 0x40, 0x64, 0x11, 
	0x80, 0x40, 0x30, 0x01, 0x90, 0x3e, 0x6e, 0x11, 
	0x80, 0x3e, 0x30, 0x01, 0x90, 0x3d, 0x64, 0x11, 
	0x80, 0x3d, 0x30, 0xaf, 0x69, 0x90, 0x36, 0x67, 
	0x11, 0x80, 0x36, 0x30, 0x01, 0x90, 0x39, 0x66, 
	0x11, 0x80, 0x39, 0x30, 0x01, 0x90, 0x3b, 0x65, 
	0x11, 0x80, 0x3b, 0x30, 0x01, 0x90, 0x3d, 0x64, 
	0x11, 0x80, 0x3d, 0x30, 0x01, 0x90, 0x40, 0x69, 
	0x11, 0x80, 0x40, 0x30, 0x01, 0x90, 0x42, 0x69, 
	0x11, 0x80, 0x42, 0x30, 0x01, 0x90, 0x3d, 0x61, 
	0x11, 0x80, 0x3d, 0x30, 0x01, 0x90, 0x3e, 0x61, 
	0x11, 0x80, 0x3e, 0x30, 0x01, 0x90, 0x40, 0x66, 
	0x23, 0x80, 0x40, 0x30, 0x01, 0x90, 0x42, 0x69, 
	0x11, 0x80, 0x42, 0x30, 0x82, 0x7b, 0x90, 0x3b, 
	0x71, 0x11, 0x80, 0x3b, 0x30, 0x01, 0x90, 0x3d, 
	0x5a, 0x11, 0x80, 0x3d, 0x30, 0x01, 0x90, 0x3e, 
	0x5a, 0x11, 0x80, 0x3e, 0x30, 0x01, 0x90, 0x3d, 
	0x71, 0x11, 0x80, 0x3d, 0x30, 0x01, 0x90, 0x3e, 
	0x5a, 0x11, 0x80, 0x3e, 0x30, 0x01, 0x90, 0x40, 
	0x5a, 0x11, 0x80, 0x40, 0x30, 0x01, 0x90, 0x42, 
	0x6e, 0x11, 0x80, 0x42, 0x30, 0x01, 0x90, 0x3e, 
	0x64, 0x11, 0x80, 0x3e, 0x30, 0x01, 0x90, 0x3d, 
	0x6e, 0x11, 0x80, 0x3d, 0x30, 0x01, 0x90, 0x40, 
	0x64, 0x11, 0x80, 0x40, 0x30, 0x01, 0x90, 0x3e, 
	0x6e, 0x11, 0x80, 0x3e, 0x30, 0x01, 0x90, 0x3d, 
	0x64, 0x10, 0x80, 0x3d, 0x30, 0x01, 0xb3, 0x75, 
	0x7f, 0x14, 0xff, 0x2f, 0x00, 0x4d, 0x54, 0x72, 
	0x6b, 0x00, 0x00, 0x00, 0x52, 0x00, 0xff, 0x21, 
	0x01, 0x00, 0x00, 0xff, 0x03, 0x05, 0x44, 0x72, 
	0x6f, 0x6e, 0x65, 0x00, 0xc4, 0x51, 0x00, 0xb4, 
	0x07, 0x6e, 0x00, 0xb4, 0x0a, 0x5d, 0x00, 0xb4, 
	0x6e, 0x7f, 0x0a, 0xb4, 0x64, 0x00, 0x00, 0xb4, 
	0x65, 0x00, 0x0a, 0xb4, 0x06, 0x02, 0x00, 0xb4, 
	0x26, 0x00, 0x0a, 0xb4, 0x64, 0x7f, 0x00, 0xb4, 
	0x65, 0x7f, 0x0a, 0xb4, 0x5b, 0x64, 0x0a, 0xb4, 
	0x5d, 0x14, 0x0a, 0xe4, 0x00, 0x40, 0x0a, 0xb4, 
	0x01, 0x00, 0x4a, 0xb4, 0x74, 0x00, 0xe2, 0x7f, 
	0xb4, 0x75, 0x7f, 0x14, 0xff, 0x2f, 0x00, 0x4d, 
	0x54, 0x72, 0x6b, 0x00, 0x00, 0x00, 0x53, 0x00, 
	0xff, 0x21, 0x01, 0x00, 0x00, 0xff, 0x03, 0x06, 
	0x43, 0x68, 0x69, 0x6d, 0x65, 0x73, 0x00, 0xc5, 
	0x0e, 0x00, 0xb5, 0x07, 0x5e, 0x00, 0xb5, 0x0a, 
	0x53, 0x00, 0xb5, 0x6e, 0x7f, 0x0a, 0xb5, 0x64, 
	0x00, 0x00, 0xb5, 0x65, 0x00, 0x0a, 0xb5, 0x06, 
	0x02, 0x00, 0xb5, 0x26, 0x00, 0x0a, 0xb5, 0x64, 
	0x7f, 0x00, 0xb5, 0x65, 0x7f, 0x0a, 0xb5, 0x5b, 
	0x64, 0x0a, 0xb5, 0x5d, 0x14, 0x0a, 0xe5, 0x00, 
	0x40, 0x0a, 0xb5, 0x01, 0x00, 0x4a, 0xb5, 0x74, 
	0x00, 0xe2, 0x7f, 0xb5, 0x75, 0x7f, 0x14, 0xff, 
	0x2f, 0x00, 0x4d, 0x54, 0x72, 0x6b, 0x00, 0x00, 
	0x00, 0x13, 0x00, 0xff, 0x21, 0x01, 0x00, 0x00, 
	0xff, 0x03, 0x05, 0x53, 0x6e, 0x61, 0x72, 0x65, 
	0xe4, 0x23, 0xff, 0x2f, 0x00, 0x4d, 0x54, 0x72, 
	0x6b, 0x00, 0x00, 0x00, 0x17, 0x00, 0xff, 0x21, 
	0x01, 0x00, 0x00, 0xff, 0x03, 0x09, 0x42, 0x61, 
	0x73, 0x73, 0x20, 0x44, 0x72, 0x75, 0x6d, 0xe4, 
	0x23, 0xff, 0x2f, 0x00, 0x4d, 0x54, 0x72, 0x6b, 
	0x00, 0x00, 0x00, 0x15, 0x00, 0xff, 0x21, 0x01, 
	0x00, 0x00, 0xff, 0x03, 0x07, 0x43, 0x79, 0x6d, 
	0x62, 0x61, 0x6c, 0x73, 0xe4, 0x23, 0xff, 0x2f, 
	0x00, 0x4d, 0x54, 0x72, 0x6b, 0x00, 0x00, 0x00, 
	0x12, 0x00, 0xff, 0x21, 0x01, 0x00, 0x00, 0xff, 
	0x03, 0x04, 0x54, 0x6f, 0x6d, 0x73, 0xe4, 0x23, 
	0xff, 0x2f, 0x00, 0x4d, 0x54, 0x72, 0x6b, 0x00, 
	0x00, 0x00, 0xe2, 0x00, 0xff, 0x21, 0x01, 0x00, 
	0x00, 0xff, 0x03, 0x0c, 0x44, 0x69, 0x73, 0x74, 
	0x6f, 0x72, 0x74, 0x69, 0x6f, 0x6e, 0x20, 0x44, 
	0x00, 0xca, 0x1e, 0x00, 0xba, 0x07, 0x69, 0x00, 
	0xba, 0x0a, 0x35, 0x00, 0xba, 0x6e, 0x7f, 0x0a, 
	0xba, 0x64, 0x00, 0x00, 0xba, 0x65, 0x00, 0x0a, 
	0xba, 0x06, 0x02, 0x00, 0xba, 0x26, 0x00, 0x0a, 
	0xba, 0x64, 0x7f, 0x00, 0xba, 0x65, 0x7f, 0x0a, 
	0xba, 0x5b, 0x64, 0x0a, 0xba, 0x5d, 0x14, 0x0a, 
	0xea, 0x00, 0x40, 0x0a, 0xba, 0x01, 0x00, 0x4a, 
	0xba, 0x74, 0x00, 0xad, 0x00, 0x90, 0x31, 0x64, 
	0x23, 0x80, 0x31, 0x30, 0x01, 0x90, 0x34, 0x64, 
	0x23, 0x80, 0x34, 0x30, 0x25, 0x90, 0x36, 0x64, 
	0x23, 0x80, 0x36, 0x30, 0x49, 0x90, 0x31, 0x64, 
	0x23, 0x80, 0x31, 0x30, 0x01, 0x90, 0x36, 0x64, 
	0x23, 0x80, 0x36, 0x30, 0x25, 0x90, 0x38, 0x64, 
	0x23, 0x80, 0x38, 0x30, 0x49, 0x90, 0x31, 0x64, 
	0x23, 0x80, 0x31, 0x30, 0x01, 0x90, 0x38, 0x64, 
	0x23, 0x80, 0x38, 0x30, 0x25, 0x90, 0x39, 0x64, 
	0x23, 0x80, 0x39, 0x30, 0x25, 0x90, 0x31, 0x64, 
	0x23, 0x80, 0x31, 0x30, 0x25, 0x90, 0x39, 0x64, 
	0x47, 0x80, 0x39, 0x30, 0x01, 0x90, 0x38, 0x64, 
	0x23, 0x80, 0x38, 0x30, 0x01, 0x90, 0x36, 0x64, 
	0x23, 0x80, 0x36, 0x30, 0x01, 0x90, 0x31, 0x64, 
	0x23, 0x80, 0x31, 0x30, 0x01, 0x90, 0x39, 0x64, 
	0x6b, 0x80, 0x39, 0x30, 0x01, 0x90, 0x3b, 0x64, 
	0x6b, 0x80, 0x3b, 0x30, 0x01, 0x90, 0x3e, 0x64, 
	0x47, 0x80, 0x3e, 0x30, 0xad, 0x00, 0xba, 0x75, 
	0x7f, 0x14, 0xff, 0x2f, 0x00, 0x4d, 0x54, 0x72, 
	0x6b, 0x00, 0x00, 0x04, 0xdd, 0x00, 0xff, 0x21, 
	0x01, 0x00, 0x00, 0xff, 0x03, 0x0c, 0x44, 0x69, 
	0x73, 0x74, 0x6f, 0x72, 0x74, 0x69, 0x6f, 0x6e, 
	0x20, 0x32, 0x00, 0xcb, 0x1e, 0x00, 0xbb, 0x07, 
	0x69, 0x00, 0xbb, 0x0a, 0x35, 0x00, 0xbb, 0x6e, 
	0x7f, 0x0a, 0xbb, 0x64, 0x00, 0x00, 0xbb, 0x65, 
	0x00, 0x0a, 0xbb, 0x06, 0x02, 0x00, 0xbb, 0x26, 
	0x00, 0x0a, 0xbb, 0x64, 0x7f, 0x00, 0xbb, 0x65, 
	0x7f, 0x0a, 0xbb, 0x5b, 0x64, 0x0a, 0xbb, 0x5d, 
	0x14, 0x0a, 0xeb, 0x00, 0x40, 0x0a, 0xbb, 0x01, 
	0x00, 0x4a, 0xbb, 0x74, 0x00, 0x89, 0x04, 0x90, 
	0x31, 0x64, 0x23, 0x80, 0x31, 0x30, 0x01, 0x90, 
	0x34, 0x64, 0x23, 0x80, 0x34, 0x30, 0x25, 0x90, 
	0x36, 0x64, 0x23, 0x80, 0x36, 0x30, 0x49, 0x90, 
	0x31, 0x64, 0x23, 0x80, 0x31, 0x30, 0x01, 0x90, 
	0x36, 0x64, 0x23, 0x80, 0x36, 0x30, 0x25, 0x90, 
	0x38, 0x64, 0x23, 0x80, 0x38, 0x30, 0x49, 0x90, 
	0x31, 0x64, 0x23, 0x80, 0x31, 0x30, 0x01, 0x90, 
	0x38, 0x64, 0x23, 0x80, 0x38, 0x30, 0x25, 0x90, 
	0x39, 0x64, 0x23, 0x80, 0x39, 0x30, 0x25, 0x90, 
	0x31, 0x64, 0x23, 0x80, 0x31, 0x30, 0x25, 0x90, 
	0x39, 0x64, 0x47, 0x80, 0x39, 0x30, 0x01, 0x90, 
	0x38, 0x64, 0x23, 0x80, 0x38, 0x30, 0x01, 0x90, 
	0x36, 0x64, 0x23, 0x80, 0x36, 0x30, 0x01, 0x90, 
	0x31, 0x64, 0x23, 0x80, 0x31, 0x30, 0x01, 0x90, 
	0x2f, 0x64, 0x00, 0x90, 0x39, 0x64, 0x6b, 0x80, 
	0x2f, 0x30, 0x00, 0x80, 0x39, 0x30, 0x01, 0x90, 
	0x2d, 0x64, 0x00, 0x90, 0x3b, 0x64, 0x47, 0x80, 
	0x2d, 0x30, 0x01, 0x90, 0x2f, 0x64, 0x23, 0x80, 
	0x3b, 0x30, 0x00, 0x80, 0x2f, 0x30, 0x01, 0x90, 
	0x2d, 0x64, 0x00, 0x90, 0x3e, 0x64, 0x23, 0x80, 
	0x2d, 0x30, 0x01, 0x90, 0x2f, 0x64, 0x23, 0x80, 
	0x3e, 0x30, 0x00, 0x80, 0x2f, 0x30, 0x01, 0x90, 
	0x3d, 0x64, 0x23, 0x80, 0x3d, 0x30, 0x01, 0x90, 
	0x3d, 0x64, 0x23, 0x80, 0x3d, 0x30, 0x25, 0x90, 
	0x3d, 0x64, 0x6b, 0x80, 0x3d, 0x30, 0x01, 0x90, 
	0x3d, 0x64, 0x23, 0x80, 0x3d, 0x30, 0x01, 0x90, 
	0x3d, 0x64, 0x23, 0x80, 0x3d, 0x30, 0x25, 0x90, 
	0x3e, 0x64, 0x6b, 0x80, 0x3e, 0x30, 0x01, 0x90, 
	0x3b, 0x64, 0x23, 0x80, 0x3b, 0x30, 0x01, 0x90, 
	0x3b, 0x64, 0x23, 0x80, 0x3b, 0x30, 0x25, 0x90, 
	0x3b, 0x64, 0x6b, 0x80, 0x3b, 0x30, 0x01, 0x90, 
	0x3b, 0x64, 0x23, 0x80, 0x3b, 0x30, 0x01, 0x90, 
	0x3b, 0x64, 0x23, 0x80, 0x3b, 0x30, 0x25, 0x90, 
	0x3b, 0x64, 0x23, 0x80, 0x3b, 0x30, 0x25, 0x90, 
	0x3b, 0x64, 0x47, 0x80, 0x3b, 0x30, 0x01, 0x90, 
	0x39, 0x64, 0x47, 0x80, 0x39, 0x30, 0x01, 0x90, 
	0x37, 0x64, 0x47, 0x80, 0x37, 0x30, 0x01, 0x90, 
	0x39, 0x64, 0x43, 0x90, 0x36, 0x64, 0x04, 0x80, 
	0x39, 0x30, 0x67, 0x80, 0x36, 0x30, 0x06, 0x90, 
	0x3d, 0x64, 0x23, 0x80, 0x3d, 0x30, 0x01, 0x90, 
	0x3d, 0x64, 0x23, 0x80, 0x3d, 0x30, 0x25, 0x90, 
	0x3d, 0x64, 0x23, 0x80, 0x3d, 0x30, 0x25, 0x90, 
	0x3e, 0x64, 0x47, 0x80, 0x3e, 0x30, 0x01, 0x90, 
	0x3d, 0x64, 0x47, 0x80, 0x3d, 0x30, 0x01, 0x90, 
	0x3b, 0x64, 0x47, 0x80, 0x3b, 0x30, 0x01, 0x90, 
	0x3d, 0x64, 0x6b, 0x80, 0x3d, 0x30, 0x01, 0x90, 
	0x39, 0x64, 0x23, 0x80, 0x39, 0x30, 0x01, 0x90, 
	0x36, 0x64, 0x23, 0x80, 0x36, 0x30, 0x25, 0x90, 
	0x39, 0x64, 0x23, 0x80, 0x39, 0x30, 0x25, 0x90, 
	0x3b, 0x64, 0x23, 0x80, 0x3b, 0x30, 0x25, 0x90, 
	0x38, 0x64, 0x47, 0x80, 0x38, 0x30, 0x01, 0x90, 
	0x34, 0x64, 0x23, 0x80, 0x34, 0x30, 0x25, 0x90, 
	0x38, 0x64, 0x23, 0x80, 0x38, 0x30, 0x25, 0x90, 
	0x39, 0x64, 0x6b, 0x80, 0x39, 0x30, 0x03, 0x90, 
	0x36, 0x66, 0x23, 0x80, 0x36, 0x30, 0x01, 0x90, 
	0x36, 0x5e, 0x23, 0x80, 0x36, 0x30, 0x25, 0x90, 
	0x36, 0x66, 0x23, 0x80, 0x36, 0x30, 0x49, 0x90, 
	0x36, 0x66, 0x23, 0x80, 0x36, 0x30, 0x01, 0x90, 
	0x36, 0x5e, 0x23, 0x80, 0x36, 0x30, 0x25, 0x90, 
	0x36, 0x66, 0x23, 0x80, 0x36, 0x30, 0x81, 0x59, 
	0x90, 0x36, 0x66, 0x23, 0x80, 0x36, 0x30, 0x01, 
	0x90, 0x36, 0x5e, 0x23, 0x80, 0x36, 0x30, 0x25, 
	0x90, 0x36, 0x66, 0x23, 0x80, 0x36, 0x30, 0x49, 
	0x90, 0x36, 0x66, 0x23, 0x80, 0x36, 0x30, 0x01, 
	0x90, 0x36, 0x5e, 0x23, 0x80, 0x36, 0x30, 0x25, 
	0x90, 0x36, 0x66, 0x23, 0x80, 0x36, 0x30, 0x8a, 
	0x57, 0x90, 0x3d, 0x64, 0x23, 0x80, 0x3d, 0x30, 
	0x01, 0x90, 0x3d, 0x64, 0x23, 0x80, 0x3d, 0x30, 
	0x25, 0x90, 0x3d, 0x64, 0x6b, 0x80, 0x3d, 0x30, 
	0x01, 0x90, 0x3d, 0x64, 0x23, 0x80, 0x3d, 0x30, 
	0x01, 0x90, 0x3d, 0x64, 0x23, 0x80, 0x3d, 0x30, 
	0x25, 0x90, 0x3e, 0x64, 0x6b, 0x80, 0x3e, 0x30, 
	0x01, 0x90, 0x3b, 0x64, 0x23, 0x80, 0x3b, 0x30, 
	0x01, 0x90, 0x3b, 0x64, 0x23, 0x80, 0x3b, 0x30, 
	0x25, 0x90, 0x3b, 0x64, 0x6b, 0x80, 0x3b, 0x30, 
	0x01, 0x90, 0x3b, 0x64, 0x23, 0x80, 0x3b, 0x30, 
	0x01, 0x90, 0x3b, 0x64, 0x23, 0x80, 0x3b, 0x30, 
	0x25, 0x90, 0x3b, 0x64, 0x23, 0x80, 0x3b, 0x30, 
	0x25, 0x90, 0x3b, 0x64, 0x47, 0x80, 0x3b, 0x30, 
	0x01, 0x90, 0x39, 0x64, 0x47, 0x80, 0x39, 0x30, 
	0x01, 0x90, 0x37, 0x64, 0x47, 0x80, 0x37, 0x30, 
	0x01, 0x90, 0x39, 0x64, 0x47, 0x80, 0x39, 0x30, 
	0x01, 0x90, 0x36, 0x64, 0x6b, 0x80, 0x36, 0x30, 
	0x01, 0x90, 0x3d, 0x64, 0x23, 0x80, 0x3d, 0x30, 
	0x01, 0x90, 0x3d, 0x64, 0x23, 0x80, 0x3d, 0x30, 
	0x25, 0x90, 0x3d, 0x64, 0x23, 0x80, 0x3d, 0x30, 
	0x25, 0x90, 0x3e, 0x64, 0x47, 0x80, 0x3e, 0x30, 
	0x01, 0x90, 0x3d, 0x64, 0x47, 0x80, 0x3d, 0x30, 
	0x01, 0x90, 0x3b, 0x64, 0x47, 0x80, 0x3b, 0x30, 
	0x01, 0x90, 0x3d, 0x64, 0x6b, 0x80, 0x3d, 0x30, 
	0x01, 0x90, 0x39, 0x64, 0x23, 0x80, 0x39, 0x30, 
	0x01, 0x90, 0x36, 0x64, 0x23, 0x80, 0x36, 0x30, 
	0x25, 0x90, 0x39, 0x64, 0x23, 0x80, 0x39, 0x30, 
	0x25, 0x90, 0x3b, 0x64, 0x23, 0x80, 0x3b, 0x30, 
	0x25, 0x90, 0x38, 0x64, 0x47, 0x80, 0x38, 0x30, 
	0x01, 0x90, 0x34, 0x64, 0x23, 0x80, 0x34, 0x30, 
	0x25, 0x90, 0x38, 0x64, 0x23, 0x80, 0x38, 0x30, 
	0x25, 0x90, 0x39, 0x64, 0x6b, 0x80, 0x39, 0x30, 
	0x01, 0x90, 0x39, 0x64, 0x23, 0x80, 0x39, 0x30, 
	0x01, 0x90, 0x39, 0x64, 0x23, 0x80, 0x39, 0x30, 
	0x25, 0x90, 0x39, 0x6e, 0x6b, 0x80, 0x39, 0x30, 
	0x01, 0x90, 0x39, 0x64, 0x23, 0x80, 0x39, 0x30, 
	0x01, 0x90, 0x39, 0x64, 0x23, 0x80, 0x39, 0x30, 
	0x25, 0x90, 0x3b, 0x6e, 0x6b, 0x80, 0x3b, 0x30, 
	0x01, 0x90, 0x3b, 0x64, 0x23, 0x80, 0x3b, 0x30, 
	0x01, 0x90, 0x3b, 0x64, 0x23, 0x80, 0x3b, 0x30, 
	0x25, 0x90, 0x3b, 0x6e, 0x6b, 0x80, 0x3b, 0x30, 
	0x01, 0x90, 0x3b, 0x64, 0x23, 0x80, 0x3b, 0x30, 
	0x01, 0x90, 0x3b, 0x64, 0x23, 0x80, 0x3b, 0x30, 
	0x25, 0x90, 0x3b, 0x64, 0x23, 0x80, 0x3b, 0x30, 
	0x25, 0x90, 0x3d, 0x66, 0x47, 0x80, 0x3d, 0x30, 
	0x01, 0x90, 0x3b, 0x68, 0x47, 0x80, 0x3b, 0x30, 
	0x01, 0x90, 0x39, 0x6a, 0x47, 0x80, 0x39, 0x30, 
	0x01, 0x90, 0x38, 0x6c, 0x47, 0x80, 0x38, 0x30, 
	0x01, 0x90, 0x39, 0x6e, 0x6b, 0x80, 0x39, 0x30, 
	0x01, 0x90, 0x3d, 0x64, 0x23, 0x80, 0x3d, 0x30, 
	0x01, 0x90, 0x3d, 0x64, 0x23, 0x80, 0x3d, 0x30, 
	0x25, 0x90, 0x3b, 0x64, 0x23, 0x80, 0x3b, 0x30, 
	0x25, 0x90, 0x39, 0x64, 0x47, 0x80, 0x39, 0x30, 
	0x01, 0x90, 0x38, 0x64, 0x47, 0x80, 0x38, 0x30, 
	0x01, 0x90, 0x39, 0x64, 0x47, 0x80, 0x39, 0x30, 
	0x01, 0x90, 0x38, 0x6c, 0x23, 0x80, 0x38, 0x30, 
	0x01, 0x90, 0x36, 0x6c, 0x23, 0x80, 0x36, 0x30, 
	0x01, 0x90, 0x38, 0x6c, 0x23, 0x80, 0x38, 0x30, 
	0x01, 0x90, 0x39, 0x64, 0x23, 0x80, 0x39, 0x30, 
	0x01, 0x90, 0x36, 0x64, 0x23, 0x80, 0x36, 0x30, 
	0x25, 0x90, 0x39, 0x64, 0x23, 0x80, 0x39, 0x30, 
	0x25, 0x90, 0x3b, 0x64, 0x23, 0x80, 0x3b, 0x30, 
	0x25, 0x90, 0x38, 0x64, 0x47, 0x80, 0x38, 0x30, 
	0x01, 0x90, 0x34, 0x64, 0x23, 0x80, 0x34, 0x30, 
	0x25, 0x90, 0x38, 0x64, 0x23, 0x80, 0x38, 0x30, 
	0x25, 0x90, 0x39, 0x64, 0x6b, 0x80, 0x39, 0x30, 
	0x03, 0x90, 0x36, 0x66, 0x23, 0x80, 0x36, 0x30, 
	0x01, 0x90, 0x36, 0x5e, 0x23, 0x80, 0x36, 0x30, 
	0x25, 0x90, 0x36, 0x66, 0x23, 0x80, 0x36, 0x30, 
	0x49, 0x90, 0x36, 0x66, 0x23, 0x80, 0x36, 0x30, 
	0x01, 0x90, 0x36, 0x5e, 0x23, 0x80, 0x36, 0x30, 
	0x25, 0x90, 0x36, 0x66, 0x23, 0x80, 0x36, 0x30, 
	0x81, 0x59, 0x90, 0x36, 0x66, 0x23, 0x80, 0x36, 
	0x30, 0x01, 0x90, 0x36, 0x5e, 0x23, 0x80, 0x36, 
	0x30, 0x25, 0x90, 0x36, 0x66, 0x23, 0x80, 0x36, 
	0x30, 0x49, 0x90, 0x36, 0x66, 0x23, 0x80, 0x36, 
	0x30, 0x01, 0x90, 0x36, 0x5e, 0x23, 0x80, 0x36, 
	0x30, 0x25, 0x90, 0x36, 0x66, 0x23, 0x80, 0x36, 
	0x30, 0x81, 0x52, 0xbb, 0x75, 0x7f, 0x14, 0xff, 
	0x2f, 0x00, 
};
