// Mortal Kombat

{
	0x4d, 0x54, 0x68, 0x64, 0x00, 0x00, 0x00, 0x06, 
	0x00, 0x01, 0x00, 0x01, 0x01, 0x80, 0x4d, 0x54, 
	0x72, 0x6b, 0x00, 0x00, 0x3f, 0x45, 0x00, 0xff, 
	0x58, 0x04, 0x04, 0x02, 0x60, 0x08, 0x00, 0xff, 
	0x51, 0x03, 0x06, 0xae, 0xc4, 0x08, 0x90, 0x39, 
	0x7f, 0x81, 0x00, 0x80, 0x39, 0x30, 0x40, 0x90, 
	0x39, 0x7f, 0x81, 0x00, 0x80, 0x39, 0x30, 0x40, 
	0x90, 0x3c, 0x7f, 0x81, 0x00, 0x80, 0x3c, 0x30, 
	0x40, 0x90, 0x39, 0x7f, 0x81, 0x00, 0x80, 0x39, 
	0x30, 0x40, 0x90, 0x3e, 0x7f, 0x81, 0x00, 0x80, 
	0x3e, 0x30, 0x40, 0x90, 0x39, 0x7f, 0x81, 0x00, 
	0x80, 0x39, 0x30, 0x40, 0x90, 0x40, 0x7f, 0x81, 
	0x00, 0x80, 0x40, 0x30, 0x40, 0x90, 0x3e, 0x7f, 
	0x81, 0x00, 0x80, 0x3e, 0x30, 0x40, 0x90, 0x3c, 
	0x7f, 0x81, 0x00, 0x80, 0x3c, 0x30, 0x40, 0x90, 
	0x3c, 0x7f, 0x81, 0x00, 0x80, 0x3c, 0x30, 0x40, 
	0x90, 0x40, 0x7f, 0x81, 0x00, 0x80, 0x40, 0x30, 
	0x40, 0x90, 0x3c, 0x7f, 0x81, 0x00, 0x80, 0x3c, 
	0x30, 0x40, 0x90, 0x43, 0x7f, 0x81, 0x01, 0x80, 
	0x43, 0x30, 0x40, 0x90, 0x3c, 0x7f, 0x81, 0x00, 
	0x80, 0x3c, 0x30, 0x40, 0x90, 0x40, 0x7f, 0x81, 
	0x00, 0x80, 0x40, 0x30, 0x40, 0x90, 0x3c, 0x7f, 
	0x81, 0x00, 0x80, 0x3c, 0x30, 0x40, 0x90, 0x37, 
	0x7f, 0x81, 0x00, 0x80, 0x37, 0x30, 0x40, 0x90, 
	0x37, 0x7f, 0x81, 0x00, 0x80, 0x37, 0x30, 0x40, 
	0x90, 0x3b, 0x7f, 0x81, 0x00, 0x80, 0x3b, 0x30, 
	0x40, 0x90, 0x37, 0x7f, 0x81, 0x00, 0x80, 0x37, 
	0x30, 0x40, 0x90, 0x3c, 0x7f, 0x81, 0x00, 0x80, 
	0x3c, 0x30, 0x40, 0x90, 0x37, 0x7f, 0x81, 0x00, 
	0x80, 0x37, 0x30, 0x40, 0x90, 0x3e, 0x7f, 0x81, 
	0x00, 0x80, 0x3e, 0x30, 0x40, 0x90, 0x3c, 0x7f, 
	0x81, 0x00, 0x80, 0x3c, 0x30, 0x40, 0x90, 0x35, 
	0x7f, 0x81, 0x00, 0x80, 0x35, 0x30, 0x40, 0x90, 
	0x35, 0x7f, 0x81, 0x00, 0x80, 0x35, 0x30, 0x40, 
	0x90, 0x39, 0x7f, 0x81, 0x00, 0x80, 0x39, 0x30, 
	0x40, 0x90, 0x35, 0x7f, 0x81, 0x00, 0x80, 0x35, 
	0x30, 0x40, 0x90, 0x3c, 0x7f, 0x81, 0x00, 0x80, 
	0x3c, 0x30, 0x40, 0x90, 0x35, 0x7f, 0x81, 0x00, 
	0x80, 0x35, 0x30, 0x40, 0x90, 0x3c, 0x7f, 0x81, 
	0x00, 0x80, 0x3c, 0x30, 0x40, 0x90, 0x3b, 0x7f, 
	0x81, 0x00, 0x80, 0x3b, 0x30, 0x40, 0x90, 0x39, 
	0x7f, 0x00, 0x90, 0x2d, 0x7f, 0x40, 0x80, 0x2d, 
	0x30, 0x1f, 0x90, 0x2d, 0x7f, 0x21, 0x80, 0x39, 
	0x30, 0x1f, 0x80, 0x2d, 0x30, 0x21, 0x90, 0x39, 
	0x7f, 0x00, 0x90, 0x2d, 0x7f, 0x40, 0x80, 0x2d, 
	0x30, 0x1f, 0x90, 0x2d, 0x7f, 0x21, 0x80, 0x39, 
	0x30, 0x1f, 0x80, 0x2d, 0x30, 0x21, 0x90, 0x3c, 
	0x7f, 0x00, 0x90, 0x2d, 0x7f, 0x40, 0x80, 0x2d, 
	0x30, 0x1f, 0x90, 0x2d, 0x7f, 0x21, 0x80, 0x3c, 
	0x30, 0x1f, 0x80, 0x2d, 0x30, 0x21, 0x90, 0x39, 
	0x7f, 0x00, 0x90, 0x2b, 0x7f, 0x40, 0x80, 0x2b, 
	0x30, 0x20, 0x90, 0x2b, 0x7f, 0x20, 0x80, 0x39, 
	0x30, 0x20, 0x80, 0x2b, 0x30, 0x20, 0x90, 0x3e, 
	0x7f, 0x00, 0x90, 0x2d, 0x7f, 0x40, 0x80, 0x2d, 
	0x30, 0x20, 0x90, 0x2d, 0x7f, 0x20, 0x80, 0x3e, 
	0x30, 0x20, 0x80, 0x2d, 0x30, 0x20, 0x90, 0x39, 
	0x7f, 0x00, 0x90, 0x2d, 0x7f, 0x40, 0x80, 0x2d, 
	0x30, 0x20, 0x90, 0x2d, 0x7f, 0x20, 0x80, 0x39, 
	0x30, 0x20, 0x80, 0x2d, 0x30, 0x1f, 0x90, 0x40, 
	0x7f, 0x00, 0x90, 0x2d, 0x7f, 0x40, 0x80, 0x2d, 
	0x30, 0x21, 0x90, 0x2d, 0x7f, 0x1f, 0x80, 0x40, 
	0x30, 0x21, 0x80, 0x2d, 0x30, 0x1f, 0x90, 0x3e, 
	0x7f, 0x00, 0x90, 0x2b, 0x7f, 0x40, 0x80, 0x2b, 
	0x30, 0x21, 0x90, 0x2b, 0x7f, 0x1f, 0x80, 0x3e, 
	0x30, 0x21, 0x80, 0x2b, 0x30, 0x1f, 0x90, 0x3c, 
	0x7f, 0x00, 0x90, 0x2d, 0x7f, 0x40, 0x80, 0x2d, 
	0x30, 0x21, 0x90, 0x2d, 0x7f, 0x1f, 0x80, 0x3c, 
	0x30, 0x21, 0x80, 0x2d, 0x30, 0x1f, 0x90, 0x3c, 
	0x7f, 0x00, 0x90, 0x2d, 0x7f, 0x40, 0x80, 0x2d, 
	0x30, 0x21, 0x90, 0x2d, 0x7f, 0x1f, 0x80, 0x3c, 
	0x30, 0x21, 0x80, 0x2d, 0x30, 0x1f, 0x90, 0x40, 
	0x7f, 0x00, 0x90, 0x2d, 0x7f, 0x40, 0x80, 0x2d, 
	0x30, 0x21, 0x90, 0x2d, 0x7f, 0x1f, 0x80, 0x40, 
	0x30, 0x21, 0x80, 0x2d, 0x30, 0x1f, 0x90, 0x3c, 
	0x7f, 0x00, 0x90, 0x2b, 0x7f, 0x40, 0x80, 0x2b, 
	0x30, 0x21, 0x90, 0x2b, 0x7f, 0x1f, 0x80, 0x3c, 
	0x30, 0x21, 0x80, 0x2b, 0x30, 0x1f, 0x90, 0x43, 
	0x7f, 0x00, 0x90, 0x2d, 0x7f, 0x40, 0x80, 0x2d, 
	0x30, 0x21, 0x90, 0x2d, 0x7f, 0x1f, 0x80, 0x43, 
	0x30, 0x21, 0x80, 0x2d, 0x30, 0x1f, 0x90, 0x3c, 
	0x7f, 0x00, 0x90, 0x2d, 0x7f, 0x40, 0x80, 0x2d, 
	0x30, 0x21, 0x90, 0x2d, 0x7f, 0x1f, 0x80, 0x3c, 
	0x30, 0x21, 0x80, 0x2d, 0x30, 0x1f, 0x90, 0x40, 
	0x7f, 0x00, 0x90, 0x2d, 0x7f, 0x40, 0x80, 0x2d, 
	0x30, 0x21, 0x90, 0x2d, 0x7f, 0x1f, 0x80, 0x40, 
	0x30, 0x21, 0x80, 0x2d, 0x30, 0x1f, 0x90, 0x3c, 
	0x7f, 0x00, 0x90, 0x2b, 0x7f, 0x40, 0x80, 0x2b, 
	0x30, 0x21, 0x90, 0x2b, 0x7f, 0x1f, 0x80, 0x3c, 
	0x30, 0x21, 0x80, 0x2b, 0x30, 0x1f, 0x90, 0x37, 
	0x7f, 0x00, 0x90, 0x2d, 0x7f, 0x40, 0x80, 0x2d, 
	0x30, 0x21, 0x90, 0x2d, 0x7f, 0x1f, 0x80, 0x37, 
	0x30, 0x21, 0x80, 0x2d, 0x30, 0x1f, 0x90, 0x37, 
	0x7f, 0x00, 0x90, 0x2d, 0x7f, 0x40, 0x80, 0x2d, 
	0x30, 0x21, 0x90, 0x2d, 0x7f, 0x1f, 0x80, 0x37, 
	0x30, 0x21, 0x80, 0x2d, 0x30, 0x1f, 0x90, 0x3b, 
	0x7f, 0x00, 0x90, 0x2d, 0x7f, 0x40, 0x80, 0x2d, 
	0x30, 0x21, 0x90, 0x2d, 0x7f, 0x1f, 0x80, 0x3b, 
	0x30, 0x21, 0x80, 0x2d, 0x30, 0x1f, 0x90, 0x37, 
	0x7f, 0x00, 0x90, 0x2b, 0x7f, 0x40, 0x80, 0x2b, 
	0x30, 0x21, 0x90, 0x2b, 0x7f, 0x1f, 0x80, 0x37, 
	0x30, 0x21, 0x80, 0x2b, 0x30, 0x1f, 0x90, 0x3c, 
	0x7f, 0x00, 0x90, 0x2d, 0x7f, 0x40, 0x80, 0x2d, 
	0x30, 0x21, 0x90, 0x2d, 0x7f, 0x1f, 0x80, 0x3c, 
	0x30, 0x21, 0x80, 0x2d, 0x30, 0x1f, 0x90, 0x37, 
	0x7f, 0x00, 0x90, 0x2d, 0x7f, 0x40, 0x80, 0x2d, 
	0x30, 0x21, 0x90, 0x2d, 0x7f, 0x1f, 0x80, 0x37, 
	0x30, 0x21, 0x80, 0x2d, 0x30, 0x1f, 0x90, 0x3e, 
	0x7f, 0x00, 0x90, 0x2d, 0x7f, 0x40, 0x80, 0x2d, 
	0x30, 0x21, 0x90, 0x2d, 0x7f, 0x1f, 0x80, 0x3e, 
	0x30, 0x21, 0x80, 0x2d, 0x30, 0x1f, 0x90, 0x3c, 
	0x7f, 0x00, 0x90, 0x2b, 0x7f, 0x40, 0x80, 0x2b, 
	0x30, 0x21, 0x90, 0x2b, 0x7f, 0x1f, 0x80, 0x3c, 
	0x30, 0x21, 0x80, 0x2b, 0x30, 0x1f, 0x90, 0x35, 
	0x7f, 0x81, 0x00, 0x80, 0x35, 0x30, 0x40, 0x90, 
	0x35, 0x7f, 0x81, 0x00, 0x80, 0x35, 0x30, 0x41, 
	0x90, 0x39, 0x7f, 0x81, 0x00, 0x80, 0x39, 0x30, 
	0x40, 0x90, 0x35, 0x7f, 0x81, 0x00, 0x80, 0x35, 
	0x30, 0x40, 0x90, 0x3c, 0x7f, 0x81, 0x00, 0x80, 
	0x3c, 0x30, 0x40, 0x90, 0x35, 0x7f, 0x81, 0x00, 
	0x80, 0x35, 0x30, 0x40, 0x90, 0x3c, 0x7f, 0x81, 
	0x00, 0x80, 0x3c, 0x30, 0x40, 0x90, 0x3b, 0x7f, 
	0x81, 0x00, 0x80, 0x3b, 0x30, 0x40, 0x90, 0x45, 
	0x7f, 0x00, 0x90, 0x2d, 0x64, 0x81, 0x40, 0x80, 
	0x45, 0x30, 0x00, 0x80, 0x2d, 0x30, 0x5f, 0x90, 
	0x45, 0x7f, 0x00, 0x90, 0x2d, 0x64, 0x81, 0x40, 
	0x80, 0x45, 0x30, 0x00, 0x80, 0x2d, 0x30, 0x61, 
	0x90, 0x45, 0x7f, 0x00, 0x90, 0x2b, 0x64, 0x81, 
	0x00, 0x80, 0x2b, 0x30, 0x40, 0x90, 0x2d, 0x64, 
	0x00, 0x80, 0x45, 0x30, 0x40, 0x80, 0x2d, 0x30, 
	0x1f, 0x90, 0x45, 0x7f, 0x00, 0x90, 0x2d, 0x64, 
	0x40, 0x80, 0x2d, 0x30, 0x21, 0x90, 0x2d, 0x64, 
	0x40, 0x80, 0x2d, 0x30, 0x1f, 0x80, 0x45, 0x30, 
	0x61, 0x90, 0x43, 0x7f, 0x00, 0x90, 0x2d, 0x64, 
	0x81, 0x00, 0x80, 0x43, 0x30, 0x00, 0x80, 0x2d, 
	0x30, 0x40, 0x90, 0x48, 0x7f, 0x00, 0x90, 0x2b, 
	0x64, 0x81, 0x00, 0x80, 0x48, 0x30, 0x00, 0x80, 
	0x2b, 0x30, 0x40, 0x90, 0x45, 0x7f, 0x00, 0x90, 
	0x2d, 0x64, 0x81, 0x40, 0x80, 0x45, 0x30, 0x00, 
	0x80, 0x2d, 0x30, 0x5f, 0x90, 0x45, 0x7f, 0x00, 
	0x90, 0x2d, 0x64, 0x81, 0x40, 0x80, 0x45, 0x30, 
	0x00, 0x80, 0x2d, 0x30, 0x61, 0x90, 0x45, 0x7f, 
	0x00, 0x90, 0x2b, 0x64, 0x81, 0x00, 0x80, 0x2b, 
	0x30, 0x40, 0x90, 0x2d, 0x64, 0x00, 0x80, 0x45, 
	0x30, 0x40, 0x80, 0x2d, 0x30, 0x1f, 0x90, 0x45, 
	0x7f, 0x00, 0x90, 0x2d, 0x64, 0x40, 0x80, 0x2d, 
	0x30, 0x21, 0x90, 0x2d, 0x64, 0x40, 0x80, 0x2d, 
	0x30, 0x1f, 0x80, 0x45, 0x30, 0x61, 0x90, 0x43, 
	0x7f, 0x00, 0x90, 0x2d, 0x64, 0x81, 0x00, 0x80, 
	0x43, 0x30, 0x00, 0x80, 0x2d, 0x30, 0x40, 0x90, 
	0x40, 0x7f, 0x00, 0x90, 0x2b, 0x64, 0x81, 0x00, 
	0x80, 0x40, 0x30, 0x00, 0x80, 0x2b, 0x30, 0x40, 
	0x90, 0x45, 0x7f, 0x00, 0x90, 0x2d, 0x64, 0x81, 
	0x40, 0x80, 0x45, 0x30, 0x00, 0x80, 0x2d, 0x30, 
	0x60, 0x90, 0x45, 0x7f, 0x00, 0x90, 0x2d, 0x64, 
	0x81, 0x40, 0x80, 0x45, 0x30, 0x00, 0x80, 0x2d, 
	0x30, 0x60, 0x90, 0x45, 0x7f, 0x00, 0x90, 0x2b, 
	0x64, 0x7f, 0x80, 0x2b, 0x30, 0x40, 0x90, 0x2d, 
	0x64, 0x00, 0x80, 0x45, 0x30, 0x40, 0x80, 0x2d, 
	0x30, 0x21, 0x90, 0x45, 0x7f, 0x00, 0x90, 0x2d, 
	0x64, 0x40, 0x80, 0x2d, 0x30, 0x1f, 0x90, 0x2d, 
	0x64, 0x40, 0x80, 0x2d, 0x30, 0x21, 0x80, 0x45, 
	0x30, 0x5f, 0x90, 0x43, 0x7f, 0x00, 0x90, 0x2d, 
	0x64, 0x81, 0x00, 0x80, 0x43, 0x30, 0x00, 0x80, 
	0x2d, 0x30, 0x40, 0x90, 0x48, 0x7f, 0x00, 0x90, 
	0x2b, 0x64, 0x81, 0x00, 0x80, 0x48, 0x30, 0x00, 
	0x80, 0x2b, 0x30, 0x40, 0x90, 0x45, 0x7f, 0x00, 
	0x90, 0x2d, 0x64, 0x81, 0x40, 0x80, 0x45, 0x30, 
	0x00, 0x80, 0x2d, 0x30, 0x61, 0x90, 0x45, 0x7f, 
	0x00, 0x90, 0x2d, 0x64, 0x81, 0x40, 0x80, 0x45, 
	0x30, 0x00, 0x80, 0x2d, 0x30, 0x5f, 0x90, 0x45, 
	0x7f, 0x00, 0x90, 0x2b, 0x64, 0x81, 0x00, 0x80, 
	0x45, 0x30, 0x00, 0x80, 0x2b, 0x30, 0x40, 0x90, 
	0x45, 0x7f, 0x00, 0x90, 0x30, 0x64, 0x40, 0x80, 
	0x45, 0x30, 0x00, 0x80, 0x30, 0x30, 0x21, 0x90, 
	0x45, 0x7f, 0x00, 0x90, 0x30, 0x64, 0x40, 0x80, 
	0x45, 0x30, 0x00, 0x80, 0x30, 0x30, 0x1f, 0x90, 
	0x30, 0x64, 0x40, 0x80, 0x30, 0x30, 0x21, 0x90, 
	0x45, 0x7f, 0x40, 0x80, 0x45, 0x30, 0x1f, 0x90, 
	0x45, 0x7f, 0x00, 0x90, 0x32, 0x64, 0x40, 0x80, 
	0x45, 0x30, 0x40, 0x80, 0x32, 0x30, 0x40, 0x90, 
	0x32, 0x64, 0x81, 0x00, 0x80, 0x32, 0x30, 0x40, 
	0x90, 0x45, 0x7f, 0x00, 0x90, 0x2d, 0x64, 0x81, 
	0x40, 0x80, 0x45, 0x30, 0x00, 0x80, 0x2d, 0x30, 
	0x61, 0x90, 0x45, 0x7f, 0x00, 0x90, 0x2d, 0x64, 
	0x81, 0x40, 0x80, 0x45, 0x30, 0x00, 0x80, 0x2d, 
	0x30, 0x5f, 0x90, 0x45, 0x7f, 0x00, 0x90, 0x2b, 
	0x64, 0x81, 0x00, 0x80, 0x2b, 0x30, 0x40, 0x90, 
	0x2d, 0x64, 0x00, 0x80, 0x45, 0x30, 0x40, 0x80, 
	0x2d, 0x30, 0x21, 0x90, 0x45, 0x7f, 0x00, 0x90, 
	0x2d, 0x64, 0x40, 0x80, 0x2d, 0x30, 0x1f, 0x90, 
	0x2d, 0x64, 0x40, 0x80, 0x2d, 0x30, 0x21, 0x80, 
	0x45, 0x30, 0x5f, 0x90, 0x43, 0x7f, 0x00, 0x90, 
	0x2d, 0x64, 0x81, 0x00, 0x80, 0x43, 0x30, 0x00, 
	0x80, 0x2d, 0x30, 0x40, 0x90, 0x48, 0x7f, 0x00, 
	0x90, 0x2b, 0x64, 0x81, 0x01, 0x80, 0x48, 0x30, 
	0x00, 0x80, 0x2b, 0x30, 0x40, 0x90, 0x45, 0x7f, 
	0x00, 0x90, 0x2d, 0x64, 0x81, 0x40, 0x80, 0x45, 
	0x30, 0x00, 0x80, 0x2d, 0x30, 0x60, 0x90, 0x45, 
	0x7f, 0x00, 0x90, 0x2d, 0x64, 0x81, 0x3f, 0x80, 
	0x45, 0x30, 0x00, 0x80, 0x2d, 0x30, 0x61, 0x90, 
	0x45, 0x7f, 0x00, 0x90, 0x2b, 0x64, 0x81, 0x00, 
	0x80, 0x2b, 0x30, 0x40, 0x90, 0x2d, 0x64, 0x00, 
	0x80, 0x45, 0x30, 0x40, 0x80, 0x2d, 0x30, 0x1f, 
	0x90, 0x45, 0x7f, 0x00, 0x90, 0x2d, 0x64, 0x40, 
	0x80, 0x2d, 0x30, 0x21, 0x90, 0x2d, 0x64, 0x40, 
	0x80, 0x2d, 0x30, 0x1f, 0x80, 0x45, 0x30, 0x61, 
	0x90, 0x43, 0x7f, 0x00, 0x90, 0x2d, 0x64, 0x81, 
	0x00, 0x80, 0x43, 0x30, 0x00, 0x80, 0x2d, 0x30, 
	0x40, 0x90, 0x40, 0x7f, 0x00, 0x90, 0x2b, 0x64, 
	0x81, 0x00, 0x80, 0x40, 0x30, 0x00, 0x80, 0x2b, 
	0x30, 0x40, 0x90, 0x45, 0x7f, 0x00, 0x90, 0x2d, 
	0x64, 0x81, 0x40, 0x80, 0x45, 0x30, 0x00, 0x80, 
	0x2d, 0x30, 0x5f, 0x90, 0x45, 0x7f, 0x00, 0x90, 
	0x2d, 0x64, 0x81, 0x40, 0x80, 0x45, 0x30, 0x00, 
	0x80, 0x2d, 0x30, 0x61, 0x90, 0x45, 0x7f, 0x00, 
	0x90, 0x2b, 0x64, 0x81, 0x00, 0x80, 0x2b, 0x30, 
	0x40, 0x90, 0x2d, 0x64, 0x00, 0x80, 0x45, 0x30, 
	0x40, 0x80, 0x2d, 0x30, 0x1f, 0x90, 0x45, 0x7f, 
	0x00, 0x90, 0x2d, 0x64, 0x40, 0x80, 0x2d, 0x30, 
	0x21, 0x90, 0x2d, 0x64, 0x40, 0x80, 0x2d, 0x30, 
	0x1f, 0x80, 0x45, 0x30, 0x61, 0x90, 0x43, 0x7f, 
	0x00, 0x90, 0x2d, 0x64, 0x81, 0x00, 0x80, 0x43, 
	0x30, 0x00, 0x80, 0x2d, 0x30, 0x40, 0x90, 0x48, 
	0x7f, 0x00, 0x90, 0x2b, 0x64, 0x81, 0x00, 0x80, 
	0x48, 0x30, 0x00, 0x80, 0x2b, 0x30, 0x40, 0x90, 
	0x45, 0x7f, 0x00, 0x90, 0x2d, 0x64, 0x81, 0x40, 
	0x80, 0x45, 0x30, 0x00, 0x80, 0x2d, 0x30, 0x5f, 
	0x90, 0x45, 0x7f, 0x00, 0x90, 0x2d, 0x64, 0x81, 
	0x40, 0x80, 0x45, 0x30, 0x00, 0x80, 0x2d, 0x30, 
	0x61, 0x90, 0x45, 0x7f, 0x00, 0x90, 0x2b, 0x64, 
	0x81, 0x00, 0x80, 0x45, 0x30, 0x00, 0x80, 0x2b, 
	0x30, 0x40, 0x90, 0x45, 0x7f, 0x00, 0x90, 0x30, 
	0x64, 0x40, 0x80, 0x45, 0x30, 0x00, 0x80, 0x30, 
	0x30, 0x1f, 0x90, 0x45, 0x7f, 0x00, 0x90, 0x30, 
	0x64, 0x40, 0x80, 0x45, 0x30, 0x00, 0x80, 0x30, 
	0x30, 0x21, 0x90, 0x30, 0x64, 0x40, 0x80, 0x30, 
	0x30, 0x1f, 0x90, 0x45, 0x7f, 0x40, 0x80, 0x45, 
	0x30, 0x21, 0x90, 0x45, 0x7f, 0x00, 0x90, 0x32, 
	0x64, 0x40, 0x80, 0x45, 0x30, 0x40, 0x80, 0x32, 
	0x30, 0x40, 0x90, 0x32, 0x64, 0x81, 0x00, 0x80, 
	0x32, 0x30, 0x40, 0x90, 0x45, 0x7f, 0x00, 0x90, 
	0x2d, 0x64, 0x40, 0x80, 0x45, 0x30, 0x20, 0x90, 
	0x4c, 0x7f, 0x60, 0x80, 0x2d, 0x30, 0x20, 0x80, 
	0x4c, 0x30, 0x40, 0x90, 0x45, 0x7f, 0x00, 0x90, 
	0x2d, 0x64, 0x40, 0x80, 0x45, 0x30, 0x1f, 0x90, 
	0x48, 0x7f, 0x61, 0x80, 0x2d, 0x30, 0x1f, 0x80, 
	0x48, 0x30, 0x40, 0x90, 0x45, 0x7f, 0x00, 0x90, 
	0x2b, 0x64, 0x40, 0x80, 0x45, 0x30, 0x21, 0x90, 
	0x46, 0x7f, 0x1f, 0x80, 0x2b, 0x30, 0x40, 0x90, 
	0x2d, 0x64, 0x21, 0x80, 0x46, 0x30, 0x1f, 0x80, 
	0x2d, 0x30, 0x21, 0x90, 0x45, 0x7f, 0x00, 0x90, 
	0x2d, 0x64, 0x40, 0x80, 0x45, 0x30, 0x00, 0x80, 
	0x2d, 0x30, 0x1f, 0x90, 0x48, 0x7f, 0x00, 0x90, 
	0x2d, 0x64, 0x40, 0x80, 0x2d, 0x30, 0x40, 0x80, 
	0x48, 0x30, 0x40, 0x90, 0x45, 0x7f, 0x00, 0x90, 
	0x2d, 0x64, 0x40, 0x80, 0x45, 0x30, 0x21, 0x90, 
	0x46, 0x7f, 0x1f, 0x80, 0x2d, 0x30, 0x21, 0x80, 
	0x46, 0x30, 0x1f, 0x90, 0x43, 0x7f, 0x00, 0x90, 
	0x2b, 0x64, 0x81, 0x00, 0x80, 0x43, 0x30, 0x00, 
	0x80, 0x2b, 0x30, 0x40, 0x90, 0x45, 0x7f, 0x00, 
	0x90, 0x2d, 0x64, 0x40, 0x80, 0x45, 0x30, 0x21, 
	0x90, 0x4c, 0x7f, 0x5f, 0x80, 0x2d, 0x30, 0x21, 
	0x80, 0x4c, 0x30, 0x40, 0x90, 0x45, 0x7f, 0x00, 
	0x90, 0x2d, 0x64, 0x40, 0x80, 0x45, 0x30, 0x1f, 
	0x90, 0x48, 0x7f, 0x61, 0x80, 0x2d, 0x30, 0x1f, 
	0x80, 0x48, 0x30, 0x40, 0x90, 0x45, 0x7f, 0x00, 
	0x90, 0x2b, 0x64, 0x40, 0x80, 0x45, 0x30, 0x21, 
	0x90, 0x46, 0x7f, 0x1f, 0x80, 0x2b, 0x30, 0x40, 
	0x90, 0x2d, 0x64, 0x21, 0x80, 0x46, 0x30, 0x1f, 
	0x80, 0x2d, 0x30, 0x21, 0x90, 0x45, 0x7f, 0x00, 
	0x90, 0x2d, 0x64, 0x40, 0x80, 0x45, 0x30, 0x00, 
	0x80, 0x2d, 0x30, 0x1f, 0x90, 0x48, 0x7f, 0x00, 
	0x90, 0x2d, 0x64, 0x40, 0x80, 0x2d, 0x30, 0x40, 
	0x80, 0x48, 0x30, 0x40, 0x90, 0x45, 0x7f, 0x00, 
	0x90, 0x2d, 0x64, 0x40, 0x80, 0x45, 0x30, 0x21, 
	0x90, 0x46, 0x7f, 0x1f, 0x80, 0x2d, 0x30, 0x21, 
	0x80, 0x46, 0x30, 0x1f, 0x90, 0x43, 0x7f, 0x00, 
	0x90, 0x2b, 0x64, 0x81, 0x00, 0x80, 0x43, 0x30, 
	0x00, 0x80, 0x2b, 0x30, 0x40, 0x90, 0x45, 0x7f, 
	0x00, 0x90, 0x2d, 0x64, 0x40, 0x80, 0x45, 0x30, 
	0x21, 0x90, 0x4c, 0x7f, 0x5f, 0x80, 0x2d, 0x30, 
	0x21, 0x80, 0x4c, 0x30, 0x40, 0x90, 0x45, 0x7f, 
	0x00, 0x90, 0x2d, 0x64, 0x40, 0x80, 0x45, 0x30, 
	0x1f, 0x90, 0x48, 0x7f, 0x61, 0x80, 0x2d, 0x30, 
	0x1f, 0x80, 0x48, 0x30, 0x40, 0x90, 0x45, 0x7f, 
	0x00, 0x90, 0x2b, 0x64, 0x40, 0x80, 0x45, 0x30, 
	0x21, 0x90, 0x46, 0x7f, 0x1f, 0x80, 0x2b, 0x30, 
	0x40, 0x90, 0x2d, 0x64, 0x21, 0x80, 0x46, 0x30, 
	0x1f, 0x80, 0x2d, 0x30, 0x21, 0x90, 0x45, 0x7f, 
	0x00, 0x90, 0x2d, 0x64, 0x40, 0x80, 0x45, 0x30, 
	0x00, 0x80, 0x2d, 0x30, 0x1f, 0x90, 0x48, 0x7f, 
	0x00, 0x90, 0x2d, 0x64, 0x41, 0x80, 0x2d, 0x30, 
	0x40, 0x80, 0x48, 0x30, 0x40, 0x90, 0x45, 0x7f, 
	0x00, 0x90, 0x2d, 0x64, 0x40, 0x80, 0x45, 0x30, 
	0x20, 0x90, 0x46, 0x7f, 0x20, 0x80, 0x2d, 0x30, 
	0x20, 0x80, 0x46, 0x30, 0x20, 0x90, 0x43, 0x7f, 
	0x00, 0x90, 0x2b, 0x64, 0x81, 0x00, 0x80, 0x43, 
	0x30, 0x00, 0x80, 0x2b, 0x30, 0x40, 0x90, 0x45, 
	0x7f, 0x00, 0x90, 0x2d, 0x64, 0x40, 0x80, 0x45, 
	0x30, 0x1f, 0x90, 0x4c, 0x7f, 0x61, 0x80, 0x2d, 
	0x30, 0x1f, 0x80, 0x4c, 0x30, 0x40, 0x90, 0x45, 
	0x7f, 0x00, 0x90, 0x2d, 0x64, 0x40, 0x80, 0x45, 
	0x30, 0x21, 0x90, 0x48, 0x7f, 0x5f, 0x80, 0x2d, 
	0x30, 0x21, 0x80, 0x48, 0x30, 0x40, 0x90, 0x43, 
	0x7f, 0x00, 0x90, 0x2b, 0x64, 0x40, 0x80, 0x43, 
	0x30, 0x1f, 0x90, 0x43, 0x7f, 0x21, 0x80, 0x2b, 
	0x30, 0x40, 0x90, 0x30, 0x64, 0x1f, 0x80, 0x43, 
	0x30, 0x21, 0x80, 0x30, 0x30, 0x1f, 0x90, 0x43, 
	0x7f, 0x00, 0x90, 0x30, 0x64, 0x40, 0x80, 0x43, 
	0x30, 0x00, 0x80, 0x30, 0x30, 0x21, 0x90, 0x45, 
	0x7f, 0x00, 0x90, 0x30, 0x64, 0x40, 0x80, 0x30, 
	0x30, 0x40, 0x80, 0x45, 0x30, 0x40, 0x90, 0x45, 
	0x7f, 0x00, 0x90, 0x32, 0x64, 0x81, 0x00, 0x80, 
	0x45, 0x30, 0x00, 0x80, 0x32, 0x30, 0x40, 0x90, 
	0x32, 0x64, 0x81, 0x00, 0x80, 0x32, 0x30, 0x40, 
	0x90, 0x45, 0x7f, 0x00, 0x90, 0x2d, 0x64, 0x40, 
	0x80, 0x45, 0x30, 0x1f, 0x90, 0x4c, 0x7f, 0x61, 
	0x80, 0x2d, 0x30, 0x1f, 0x80, 0x4c, 0x30, 0x40, 
	0x90, 0x45, 0x7f, 0x00, 0x90, 0x2d, 0x64, 0x40, 
	0x80, 0x45, 0x30, 0x21, 0x90, 0x48, 0x7f, 0x5f, 
	0x80, 0x2d, 0x30, 0x21, 0x80, 0x48, 0x30, 0x40, 
	0x90, 0x45, 0x7f, 0x00, 0x90, 0x2b, 0x64, 0x40, 
	0x80, 0x45, 0x30, 0x1f, 0x90, 0x46, 0x7f, 0x21, 
	0x80, 0x2b, 0x30, 0x40, 0x90, 0x2d, 0x64, 0x1f, 
	0x80, 0x46, 0x30, 0x21, 0x80, 0x2d, 0x30, 0x1f, 
	0x90, 0x45, 0x7f, 0x00, 0x90, 0x2d, 0x64, 0x40, 
	0x80, 0x45, 0x30, 0x00, 0x80, 0x2d, 0x30, 0x21, 
	0x90, 0x48, 0x7f, 0x00, 0x90, 0x2d, 0x64, 0x40, 
	0x80, 0x2d, 0x30, 0x40, 0x80, 0x48, 0x30, 0x40, 
	0x90, 0x45, 0x7f, 0x00, 0x90, 0x2d, 0x64, 0x40, 
	0x80, 0x45, 0x30, 0x1f, 0x90, 0x46, 0x7f, 0x21, 
	0x80, 0x2d, 0x30, 0x1f, 0x80, 0x46, 0x30, 0x21, 
	0x90, 0x43, 0x7f, 0x00, 0x90, 0x2b, 0x64, 0x81, 
	0x00, 0x80, 0x43, 0x30, 0x00, 0x80, 0x2b, 0x30, 
	0x40, 0x90, 0x45, 0x7f, 0x00, 0x90, 0x2d, 0x64, 
	0x40, 0x80, 0x45, 0x30, 0x1f, 0x90, 0x4c, 0x7f, 
	0x61, 0x80, 0x2d, 0x30, 0x1f, 0x80, 0x4c, 0x30, 
	0x40, 0x90, 0x45, 0x7f, 0x00, 0x90, 0x2d, 0x64, 
	0x40, 0x80, 0x45, 0x30, 0x21, 0x90, 0x48, 0x7f, 
	0x5f, 0x80, 0x2d, 0x30, 0x21, 0x80, 0x48, 0x30, 
	0x40, 0x90, 0x45, 0x7f, 0x00, 0x90, 0x2b, 0x64, 
	0x40, 0x80, 0x45, 0x30, 0x1f, 0x90, 0x46, 0x7f, 
	0x21, 0x80, 0x2b, 0x30, 0x40, 0x90, 0x2d, 0x64, 
	0x20, 0x80, 0x46, 0x30, 0x20, 0x80, 0x2d, 0x30, 
	0x20, 0x90, 0x45, 0x7f, 0x00, 0x90, 0x2d, 0x64, 
	0x40, 0x80, 0x45, 0x30, 0x00, 0x80, 0x2d, 0x30, 
	0x20, 0x90, 0x48, 0x7f, 0x00, 0x90, 0x2d, 0x64, 
	0x40, 0x80, 0x2d, 0x30, 0x40, 0x80, 0x48, 0x30, 
	0x40, 0x90, 0x45, 0x7f, 0x00, 0x90, 0x2d, 0x64, 
	0x40, 0x80, 0x45, 0x30, 0x20, 0x90, 0x46, 0x7f, 
	0x20, 0x80, 0x2d, 0x30, 0x20, 0x80, 0x46, 0x30, 
	0x1f, 0x90, 0x43, 0x7f, 0x00, 0x90, 0x2b, 0x64, 
	0x81, 0x00, 0x80, 0x43, 0x30, 0x00, 0x80, 0x2b, 
	0x30, 0x40, 0x90, 0x45, 0x7f, 0x00, 0x90, 0x2d, 
	0x64, 0x40, 0x80, 0x45, 0x30, 0x21, 0x90, 0x4c, 
	0x7f, 0x5f, 0x80, 0x2d, 0x30, 0x21, 0x80, 0x4c, 
	0x30, 0x40, 0x90, 0x45, 0x7f, 0x00, 0x90, 0x2d, 
	0x64, 0x40, 0x80, 0x45, 0x30, 0x1f, 0x90, 0x48, 
	0x7f, 0x61, 0x80, 0x2d, 0x30, 0x1f, 0x80, 0x48, 
	0x30, 0x40, 0x90, 0x45, 0x7f, 0x00, 0x90, 0x2b, 
	0x64, 0x40, 0x80, 0x45, 0x30, 0x21, 0x90, 0x46, 
	0x7f, 0x1f, 0x80, 0x2b, 0x30, 0x40, 0x90, 0x2d, 
	0x64, 0x21, 0x80, 0x46, 0x30, 0x1f, 0x80, 0x2d, 
	0x30, 0x21, 0x90, 0x45, 0x7f, 0x00, 0x90, 0x2d, 
	0x64, 0x40, 0x80, 0x45, 0x30, 0x00, 0x80, 0x2d, 
	0x30, 0x1f, 0x90, 0x48, 0x7f, 0x00, 0x90, 0x2d, 
	0x64, 0x40, 0x80, 0x2d, 0x30, 0x40, 0x80, 0x48, 
	0x30, 0x40, 0x90, 0x45, 0x7f, 0x00, 0x90, 0x2d, 
	0x64, 0x40, 0x80, 0x45, 0x30, 0x21, 0x90, 0x46, 
	0x7f, 0x1f, 0x80, 0x2d, 0x30, 0x21, 0x80, 0x46, 
	0x30, 0x1f, 0x90, 0x43, 0x7f, 0x00, 0x90, 0x2b, 
	0x64, 0x81, 0x00, 0x80, 0x43, 0x30, 0x00, 0x80, 
	0x2b, 0x30, 0x40, 0x90, 0x57, 0x5a, 0x00, 0x90, 
	0x51, 0x5a, 0x00, 0x90, 0x4b, 0x5a, 0x82, 0x35, 
	0x80, 0x57, 0x30, 0x00, 0x80, 0x51, 0x30, 0x00, 
	0x80, 0x4b, 0x30, 0x4b, 0x90, 0x57, 0x5a, 0x00, 
	0x90, 0x51, 0x5a, 0x00, 0x90, 0x4b, 0x5a, 0x82, 
	0x35, 0x80, 0x57, 0x30, 0x00, 0x80, 0x51, 0x30, 
	0x00, 0x80, 0x4b, 0x30, 0x4b, 0x90, 0x57, 0x5a, 
	0x00, 0x90, 0x4b, 0x5a, 0x00, 0x90, 0x51, 0x5a, 
	0x82, 0x34, 0x80, 0x57, 0x30, 0x00, 0x80, 0x4b, 
	0x30, 0x00, 0x80, 0x51, 0x30, 0x4c, 0x90, 0x4b, 
	0x5a, 0x00, 0x90, 0x51, 0x5a, 0x00, 0x90, 0x57, 
	0x5a, 0x82, 0x34, 0x80, 0x4b, 0x30, 0x00, 0x80, 
	0x51, 0x30, 0x00, 0x80, 0x57, 0x30, 0x4c, 0x90, 
	0x2d, 0x64, 0x00, 0x90, 0x2d, 0x64, 0x40, 0x80, 
	0x2d, 0x30, 0x21, 0x90, 0x2d, 0x64, 0x40, 0x80, 
	0x2d, 0x30, 0x1f, 0x90, 0x2d, 0x64, 0x00, 0x80, 
	0x2d, 0x30, 0x40, 0x80, 0x2d, 0x30, 0x21, 0x90, 
	0x2d, 0x64, 0x00, 0x90, 0x2d, 0x64, 0x40, 0x80, 
	0x2d, 0x30, 0x81, 0x00, 0x80, 0x2d, 0x30, 0x60, 
	0x90, 0x2b, 0x64, 0x81, 0x00, 0x80, 0x2b, 0x30, 
	0x40, 0x90, 0x2b, 0x64, 0x00, 0x90, 0x2d, 0x64, 
	0x40, 0x80, 0x2b, 0x30, 0x00, 0x80, 0x2d, 0x30, 
	0x20, 0x90, 0x2b, 0x64, 0x00, 0x90, 0x2d, 0x64, 
	0x40, 0x80, 0x2b, 0x30, 0x00, 0x80, 0x2d, 0x30, 
	0x20, 0x90, 0x2b, 0x64, 0x00, 0x90, 0x2d, 0x64, 
	0x40, 0x80, 0x2b, 0x30, 0x00, 0x80, 0x2d, 0x30, 
	0x20, 0x90, 0x2b, 0x64, 0x3f, 0x80, 0x2b, 0x30, 
	0x21, 0x90, 0x2d, 0x64, 0x81, 0x00, 0x80, 0x2d, 
	0x30, 0x40, 0x90, 0x2b, 0x64, 0x81, 0x00, 0x80, 
	0x2b, 0x30, 0x40, 0x90, 0x2d, 0x64, 0x00, 0x90, 
	0x2d, 0x64, 0x40, 0x80, 0x2d, 0x30, 0x1f, 0x90, 
	0x2d, 0x64, 0x40, 0x80, 0x2d, 0x30, 0x21, 0x90, 
	0x2d, 0x64, 0x00, 0x80, 0x2d, 0x30, 0x40, 0x80, 
	0x2d, 0x30, 0x1f, 0x90, 0x2d, 0x64, 0x00, 0x90, 
	0x2d, 0x64, 0x40, 0x80, 0x2d, 0x30, 0x81, 0x00, 
	0x80, 0x2d, 0x30, 0x61, 0x90, 0x2b, 0x64, 0x81, 
	0x00, 0x80, 0x2b, 0x30, 0x40, 0x90, 0x2b, 0x64, 
	0x00, 0x90, 0x2d, 0x64, 0x40, 0x80, 0x2b, 0x30, 
	0x00, 0x80, 0x2d, 0x30, 0x1f, 0x90, 0x2b, 0x64, 
	0x00, 0x90, 0x2d, 0x64, 0x40, 0x80, 0x2b, 0x30, 
	0x00, 0x80, 0x2d, 0x30, 0x21, 0x90, 0x2b, 0x64, 
	0x00, 0x90, 0x2d, 0x64, 0x40, 0x80, 0x2b, 0x30, 
	0x00, 0x80, 0x2d, 0x30, 0x1f, 0x90, 0x2b, 0x64, 
	0x40, 0x80, 0x2b, 0x30, 0x21, 0x90, 0x28, 0x64, 
	0x00, 0x90, 0x2d, 0x64, 0x81, 0x00, 0x80, 0x28, 
	0x30, 0x00, 0x80, 0x2d, 0x30, 0x40, 0x90, 0x2b, 
	0x64, 0x00, 0x90, 0x2b, 0x64, 0x81, 0x00, 0x80, 
	0x2b, 0x30, 0x00, 0x80, 0x2b, 0x30, 0x40, 0x90, 
	0x2d, 0x64, 0x00, 0x90, 0x2d, 0x64, 0x40, 0x80, 
	0x2d, 0x30, 0x1f, 0x90, 0x2d, 0x64, 0x40, 0x80, 
	0x2d, 0x30, 0x21, 0x90, 0x2d, 0x64, 0x00, 0x80, 
	0x2d, 0x30, 0x40, 0x80, 0x2d, 0x30, 0x1f, 0x90, 
	0x2d, 0x64, 0x00, 0x90, 0x2d, 0x64, 0x40, 0x80, 
	0x2d, 0x30, 0x81, 0x00, 0x80, 0x2d, 0x30, 0x61, 
	0x90, 0x2b, 0x64, 0x81, 0x00, 0x80, 0x2b, 0x30, 
	0x40, 0x90, 0x2b, 0x64, 0x00, 0x90, 0x2d, 0x64, 
	0x40, 0x80, 0x2b, 0x30, 0x00, 0x80, 0x2d, 0x30, 
	0x1f, 0x90, 0x2b, 0x64, 0x00, 0x90, 0x2d, 0x64, 
	0x40, 0x80, 0x2b, 0x30, 0x00, 0x80, 0x2d, 0x30, 
	0x21, 0x90, 0x2b, 0x64, 0x00, 0x90, 0x2d, 0x64, 
	0x40, 0x80, 0x2b, 0x30, 0x00, 0x80, 0x2d, 0x30, 
	0x1f, 0x90, 0x2b, 0x64, 0x40, 0x80, 0x2b, 0x30, 
	0x21, 0x90, 0x28, 0x64, 0x00, 0x90, 0x2d, 0x64, 
	0x81, 0x00, 0x80, 0x28, 0x30, 0x00, 0x80, 0x2d, 
	0x30, 0x40, 0x90, 0x2b, 0x64, 0x00, 0x90, 0x2b, 
	0x64, 0x81, 0x00, 0x80, 0x2b, 0x30, 0x00, 0x80, 
	0x2b, 0x30, 0x40, 0x90, 0x2d, 0x64, 0x00, 0x90, 
	0x2d, 0x64, 0x40, 0x80, 0x2d, 0x30, 0x1f, 0x90, 
	0x2d, 0x64, 0x40, 0x80, 0x2d, 0x30, 0x21, 0x90, 
	0x2d, 0x64, 0x00, 0x80, 0x2d, 0x30, 0x40, 0x80, 
	0x2d, 0x30, 0x1f, 0x90, 0x2d, 0x64, 0x00, 0x90, 
	0x2d, 0x64, 0x41, 0x80, 0x2d, 0x30, 0x81, 0x00, 
	0x80, 0x2d, 0x30, 0x60, 0x90, 0x2b, 0x64, 0x81, 
	0x00, 0x80, 0x2b, 0x30, 0x40, 0x90, 0x2b, 0x64, 
	0x00, 0x90, 0x2d, 0x64, 0x40, 0x80, 0x2b, 0x30, 
	0x00, 0x80, 0x2d, 0x30, 0x20, 0x90, 0x2b, 0x64, 
	0x00, 0x90, 0x2d, 0x64, 0x40, 0x80, 0x2b, 0x30, 
	0x00, 0x80, 0x2d, 0x30, 0x1f, 0x90, 0x2b, 0x64, 
	0x00, 0x90, 0x2d, 0x64, 0x40, 0x80, 0x2b, 0x30, 
	0x00, 0x80, 0x2d, 0x30, 0x21, 0x90, 0x2b, 0x64, 
	0x40, 0x80, 0x2b, 0x30, 0x1f, 0x90, 0x28, 0x64, 
	0x00, 0x90, 0x2d, 0x64, 0x81, 0x00, 0x80, 0x28, 
	0x30, 0x00, 0x80, 0x2d, 0x30, 0x40, 0x90, 0x2b, 
	0x64, 0x00, 0x90, 0x2b, 0x64, 0x81, 0x00, 0x80, 
	0x2b, 0x30, 0x00, 0x80, 0x2b, 0x30, 0x40, 0x90, 
	0x2d, 0x64, 0x00, 0x90, 0x2d, 0x64, 0x40, 0x80, 
	0x2d, 0x30, 0x21, 0x90, 0x2d, 0x64, 0x40, 0x80, 
	0x2d, 0x30, 0x1f, 0x90, 0x2d, 0x64, 0x00, 0x80, 
	0x2d, 0x30, 0x40, 0x80, 0x2d, 0x30, 0x21, 0x90, 
	0x2d, 0x64, 0x00, 0x90, 0x2d, 0x64, 0x40, 0x80, 
	0x2d, 0x30, 0x81, 0x00, 0x80, 0x2d, 0x30, 0x5f, 
	0x90, 0x2b, 0x64, 0x81, 0x00, 0x80, 0x2b, 0x30, 
	0x40, 0x90, 0x2b, 0x64, 0x00, 0x90, 0x2d, 0x64, 
	0x40, 0x80, 0x2b, 0x30, 0x00, 0x80, 0x2d, 0x30, 
	0x21, 0x90, 0x2b, 0x64, 0x00, 0x90, 0x2d, 0x64, 
	0x40, 0x80, 0x2b, 0x30, 0x00, 0x80, 0x2d, 0x30, 
	0x1f, 0x90, 0x2b, 0x64, 0x00, 0x90, 0x2d, 0x64, 
	0x40, 0x80, 0x2b, 0x30, 0x00, 0x80, 0x2d, 0x30, 
	0x21, 0x90, 0x2b, 0x64, 0x40, 0x80, 0x2b, 0x30, 
	0x1f, 0x90, 0x28, 0x64, 0x00, 0x90, 0x2d, 0x64, 
	0x81, 0x00, 0x80, 0x28, 0x30, 0x00, 0x80, 0x2d, 
	0x30, 0x40, 0x90, 0x2b, 0x64, 0x00, 0x90, 0x2b, 
	0x64, 0x81, 0x00, 0x80, 0x2b, 0x30, 0x00, 0x80, 
	0x2b, 0x30, 0x40, 0x90, 0x2d, 0x64, 0x00, 0x90, 
	0x2d, 0x64, 0x40, 0x80, 0x2d, 0x30, 0x21, 0x90, 
	0x2d, 0x64, 0x40, 0x80, 0x2d, 0x30, 0x1f, 0x90, 
	0x2d, 0x64, 0x00, 0x80, 0x2d, 0x30, 0x40, 0x80, 
	0x2d, 0x30, 0x21, 0x90, 0x2d, 0x64, 0x00, 0x90, 
	0x2d, 0x64, 0x40, 0x80, 0x2d, 0x30, 0x81, 0x00, 
	0x80, 0x2d, 0x30, 0x5f, 0x90, 0x2b, 0x64, 0x81, 
	0x00, 0x80, 0x2b, 0x30, 0x40, 0x90, 0x2b, 0x64, 
	0x00, 0x90, 0x2d, 0x64, 0x40, 0x80, 0x2b, 0x30, 
	0x00, 0x80, 0x2d, 0x30, 0x21, 0x90, 0x2b, 0x64, 
	0x00, 0x90, 0x2d, 0x64, 0x40, 0x80, 0x2b, 0x30, 
	0x00, 0x80, 0x2d, 0x30, 0x1f, 0x90, 0x2b, 0x64, 
	0x00, 0x90, 0x2d, 0x64, 0x40, 0x80, 0x2b, 0x30, 
	0x00, 0x80, 0x2d, 0x30, 0x21, 0x90, 0x2b, 0x64, 
	0x40, 0x80, 0x2b, 0x30, 0x1f, 0x90, 0x28, 0x64, 
	0x00, 0x90, 0x2d, 0x64, 0x81, 0x00, 0x80, 0x28, 
	0x30, 0x00, 0x80, 0x2d, 0x30, 0x40, 0x90, 0x2b, 
	0x64, 0x00, 0x90, 0x2b, 0x64, 0x81, 0x00, 0x80, 
	0x2b, 0x30, 0x00, 0x80, 0x2b, 0x30, 0x40, 0x90, 
	0x2d, 0x64, 0x00, 0x90, 0x2d, 0x64, 0x40, 0x80, 
	0x2d, 0x30, 0x21, 0x90, 0x2d, 0x64, 0x40, 0x80, 
	0x2d, 0x30, 0x20, 0x90, 0x2d, 0x64, 0x00, 0x80, 
	0x2d, 0x30, 0x40, 0x80, 0x2d, 0x30, 0x20, 0x90, 
	0x2d, 0x64, 0x00, 0x90, 0x2d, 0x64, 0x40, 0x80, 
	0x2d, 0x30, 0x81, 0x00, 0x80, 0x2d, 0x30, 0x60, 
	0x90, 0x2b, 0x64, 0x81, 0x00, 0x80, 0x2b, 0x30, 
	0x40, 0x90, 0x2b, 0x64, 0x00, 0x90, 0x2d, 0x64, 
	0x40, 0x80, 0x2b, 0x30, 0x00, 0x80, 0x2d, 0x30, 
	0x1f, 0x90, 0x2b, 0x64, 0x00, 0x90, 0x2d, 0x64, 
	0x40, 0x80, 0x2b, 0x30, 0x00, 0x80, 0x2d, 0x30, 
	0x21, 0x90, 0x2b, 0x64, 0x00, 0x90, 0x2d, 0x64, 
	0x40, 0x80, 0x2b, 0x30, 0x00, 0x80, 0x2d, 0x30, 
	0x1f, 0x90, 0x2b, 0x64, 0x40, 0x80, 0x2b, 0x30, 
	0x21, 0x90, 0x28, 0x64, 0x00, 0x90, 0x2d, 0x64, 
	0x81, 0x00, 0x80, 0x28, 0x30, 0x00, 0x80, 0x2d, 
	0x30, 0x40, 0x90, 0x2b, 0x64, 0x00, 0x90, 0x2b, 
	0x64, 0x81, 0x00, 0x80, 0x2b, 0x30, 0x00, 0x80, 
	0x2b, 0x30, 0x40, 0x90, 0x2d, 0x64, 0x00, 0x90, 
	0x2d, 0x64, 0x40, 0x80, 0x2d, 0x30, 0x1f, 0x90, 
	0x2d, 0x64, 0x40, 0x80, 0x2d, 0x30, 0x21, 0x90, 
	0x2d, 0x64, 0x00, 0x80, 0x2d, 0x30, 0x40, 0x80, 
	0x2d, 0x30, 0x1f, 0x90, 0x2d, 0x64, 0x00, 0x90, 
	0x2d, 0x64, 0x40, 0x80, 0x2d, 0x30, 0x81, 0x00, 
	0x80, 0x2d, 0x30, 0x61, 0x90, 0x2b, 0x64, 0x81, 
	0x00, 0x80, 0x2b, 0x30, 0x40, 0x90, 0x2b, 0x64, 
	0x00, 0x90, 0x2d, 0x64, 0x40, 0x80, 0x2b, 0x30, 
	0x00, 0x80, 0x2d, 0x30, 0x1f, 0x90, 0x2b, 0x64, 
	0x00, 0x90, 0x2d, 0x64, 0x40, 0x80, 0x2b, 0x30, 
	0x00, 0x80, 0x2d, 0x30, 0x21, 0x90, 0x2b, 0x64, 
	0x00, 0x90, 0x2d, 0x64, 0x40, 0x80, 0x2b, 0x30, 
	0x00, 0x80, 0x2d, 0x30, 0x1f, 0x90, 0x2b, 0x64, 
	0x40, 0x80, 0x2b, 0x30, 0x21, 0x90, 0x28, 0x64, 
	0x00, 0x90, 0x2d, 0x64, 0x81, 0x00, 0x80, 0x28, 
	0x30, 0x00, 0x80, 0x2d, 0x30, 0x40, 0x90, 0x2b, 
	0x64, 0x00, 0x90, 0x2b, 0x64, 0x81, 0x00, 0x80, 
	0x2b, 0x30, 0x00, 0x80, 0x2b, 0x30, 0x40, 0x90, 
	0x39, 0x7f, 0x00, 0x90, 0x45, 0x7f, 0x81, 0x00, 
	0x80, 0x39, 0x30, 0x40, 0x90, 0x39, 0x7f, 0x00, 
	0x80, 0x45, 0x30, 0x5f, 0x90, 0x45, 0x7f, 0x21, 
	0x80, 0x39, 0x30, 0x40, 0x90, 0x3c, 0x7f, 0x5f, 
	0x80, 0x45, 0x30, 0x21, 0x80, 0x3c, 0x30, 0x40, 
	0x90, 0x39, 0x7f, 0x00, 0x90, 0x45, 0x7f, 0x81, 
	0x00, 0x80, 0x39, 0x30, 0x40, 0x90, 0x3e, 0x7f, 
	0x00, 0x80, 0x45, 0x30, 0x5f, 0x90, 0x45, 0x7f, 
	0x21, 0x80, 0x3e, 0x30, 0x40, 0x90, 0x39, 0x7f, 
	0x5f, 0x80, 0x45, 0x30, 0x21, 0x80, 0x39, 0x30, 
	0x40, 0x90, 0x40, 0x7f, 0x00, 0x90, 0x43, 0x7f, 
	0x81, 0x00, 0x80, 0x40, 0x30, 0x00, 0x80, 0x43, 
	0x30, 0x40, 0x90, 0x3e, 0x7f, 0x00, 0x90, 0x48, 
	0x7f, 0x81, 0x00, 0x80, 0x3e, 0x30, 0x00, 0x80, 
	0x48, 0x30, 0x40, 0x90, 0x3c, 0x7f, 0x00, 0x90, 
	0x45, 0x7f, 0x81, 0x00, 0x80, 0x3c, 0x30, 0x40, 
	0x90, 0x3c, 0x7f, 0x00, 0x80, 0x45, 0x30, 0x60, 
	0x90, 0x45, 0x7f, 0x20, 0x80, 0x3c, 0x30, 0x40, 
	0x90, 0x40, 0x7f, 0x60, 0x80, 0x45, 0x30, 0x1f, 
	0x80, 0x40, 0x30, 0x40, 0x90, 0x3c, 0x7f, 0x00, 
	0x90, 0x45, 0x7f, 0x81, 0x00, 0x80, 0x3c, 0x30, 
	0x40, 0x90, 0x43, 0x7f, 0x00, 0x80, 0x45, 0x30, 
	0x61, 0x90, 0x45, 0x7f, 0x1f, 0x80, 0x43, 0x30, 
	0x40, 0x90, 0x3c, 0x7f, 0x61, 0x80, 0x45, 0x30, 
	0x1f, 0x80, 0x3c, 0x30, 0x40, 0x90, 0x40, 0x7f, 
	0x00, 0x90, 0x43, 0x7f, 0x81, 0x00, 0x80, 0x40, 
	0x30, 0x00, 0x80, 0x43, 0x30, 0x40, 0x90, 0x3c, 
	0x7f, 0x00, 0x90, 0x40, 0x7f, 0x81, 0x00, 0x80, 
	0x3c, 0x30, 0x00, 0x80, 0x40, 0x30, 0x40, 0x90, 
	0x37, 0x7f, 0x00, 0x90, 0x45, 0x7f, 0x81, 0x00, 
	0x80, 0x37, 0x30, 0x40, 0x90, 0x37, 0x7f, 0x00, 
	0x80, 0x45, 0x30, 0x61, 0x90, 0x45, 0x7f, 0x1f, 
	0x80, 0x37, 0x30, 0x40, 0x90, 0x3b, 0x7f, 0x61, 
	0x80, 0x45, 0x30, 0x1f, 0x80, 0x3b, 0x30, 0x40, 
	0x90, 0x37, 0x7f, 0x00, 0x90, 0x45, 0x7f, 0x81, 
	0x00, 0x80, 0x37, 0x30, 0x40, 0x90, 0x3c, 0x7f, 
	0x00, 0x80, 0x45, 0x30, 0x61, 0x90, 0x45, 0x7f, 
	0x1f, 0x80, 0x3c, 0x30, 0x40, 0x90, 0x37, 0x7f, 
	0x61, 0x80, 0x45, 0x30, 0x1f, 0x80, 0x37, 0x30, 
	0x40, 0x90, 0x3e, 0x7f, 0x00, 0x90, 0x43, 0x7f, 
	0x81, 0x00, 0x80, 0x3e, 0x30, 0x00, 0x80, 0x43, 
	0x30, 0x40, 0x90, 0x3c, 0x7f, 0x00, 0x90, 0x48, 
	0x7f, 0x81, 0x00, 0x80, 0x3c, 0x30, 0x00, 0x80, 
	0x48, 0x30, 0x40, 0x90, 0x35, 0x7f, 0x00, 0x90, 
	0x45, 0x7f, 0x81, 0x00, 0x80, 0x35, 0x30, 0x40, 
	0x90, 0x35, 0x7f, 0x00, 0x80, 0x45, 0x30, 0x61, 
	0x90, 0x45, 0x7f, 0x1f, 0x80, 0x35, 0x30, 0x40, 
	0x90, 0x39, 0x7f, 0x61, 0x80, 0x45, 0x30, 0x1f, 
	0x80, 0x39, 0x30, 0x40, 0x90, 0x35, 0x7f, 0x00, 
	0x90, 0x45, 0x7f, 0x81, 0x00, 0x80, 0x35, 0x30, 
	0x00, 0x80, 0x45, 0x30, 0x40, 0x90, 0x3c, 0x7f, 
	0x00, 0x90, 0x45, 0x7f, 0x40, 0x80, 0x45, 0x30, 
	0x21, 0x90, 0x45, 0x7f, 0x1f, 0x80, 0x3c, 0x30, 
	0x21, 0x80, 0x45, 0x30, 0x1f, 0x90, 0x35, 0x7f, 
	0x61, 0x90, 0x45, 0x7f, 0x1f, 0x80, 0x35, 0x30, 
	0x21, 0x80, 0x45, 0x30, 0x1f, 0x90, 0x3c, 0x7f, 
	0x00, 0x90, 0x45, 0x7f, 0x41, 0x80, 0x45, 0x30, 
	0x40, 0x80, 0x3c, 0x30, 0x40, 0x90, 0x3b, 0x7f, 
	0x81, 0x00, 0x80, 0x3b, 0x30, 0x40, 0x90, 0x39, 
	0x64, 0x00, 0x90, 0x45, 0x7f, 0x00, 0x90, 0x2d, 
	0x7f, 0x40, 0x80, 0x2d, 0x30, 0x20, 0x90, 0x2d, 
	0x7f, 0x20, 0x80, 0x39, 0x30, 0x20, 0x80, 0x2d, 
	0x30, 0x20, 0x90, 0x39, 0x64, 0x00, 0x90, 0x2d, 
	0x7f, 0x00, 0x80, 0x45, 0x30, 0x40, 0x80, 0x2d, 
	0x30, 0x1f, 0x90, 0x45, 0x7f, 0x00, 0x90, 0x2d, 
	0x7f, 0x21, 0x80, 0x39, 0x30, 0x1f, 0x80, 0x2d, 
	0x30, 0x21, 0x90, 0x3c, 0x64, 0x00, 0x90, 0x2d, 
	0x7f, 0x40, 0x80, 0x2d, 0x30, 0x1f, 0x90, 0x2d, 
	0x7f, 0x00, 0x80, 0x45, 0x30, 0x21, 0x80, 0x3c, 
	0x30, 0x1f, 0x80, 0x2d, 0x30, 0x21, 0x90, 0x39, 
	0x64, 0x00, 0x90, 0x45, 0x7f, 0x00, 0x90, 0x2b, 
	0x7f, 0x40, 0x80, 0x2b, 0x30, 0x1f, 0x90, 0x2b, 
	0x7f, 0x21, 0x80, 0x39, 0x30, 0x1f, 0x80, 0x2b, 
	0x30, 0x21, 0x90, 0x3e, 0x64, 0x00, 0x90, 0x2d, 
	0x7f, 0x00, 0x80, 0x45, 0x30, 0x40, 0x80, 0x2d, 
	0x30, 0x1f, 0x90, 0x45, 0x7f, 0x00, 0x90, 0x2d, 
	0x7f, 0x21, 0x80, 0x3e, 0x30, 0x1f, 0x80, 0x2d, 
	0x30, 0x21, 0x90, 0x39, 0x64, 0x00, 0x90, 0x2d, 
	0x7f, 0x40, 0x80, 0x2d, 0x30, 0x1f, 0x90, 0x2d, 
	0x7f, 0x00, 0x80, 0x45, 0x30, 0x21, 0x80, 0x39, 
	0x30, 0x1f, 0x80, 0x2d, 0x30, 0x21, 0x90, 0x40, 
	0x64, 0x00, 0x90, 0x43, 0x7f, 0x00, 0x90, 0x2d, 
	0x7f, 0x40, 0x80, 0x2d, 0x30, 0x1f, 0x90, 0x2d, 
	0x7f, 0x21, 0x80, 0x40, 0x30, 0x00, 0x80, 0x43, 
	0x30, 0x1f, 0x80, 0x2d, 0x30, 0x21, 0x90, 0x3e, 
	0x64, 0x00, 0x90, 0x48, 0x7f, 0x00, 0x90, 0x2b, 
	0x7f, 0x40, 0x80, 0x2b, 0x30, 0x1f, 0x90, 0x2b, 
	0x7f, 0x21, 0x80, 0x3e, 0x30, 0x00, 0x80, 0x48, 
	0x30, 0x1f, 0x80, 0x2b, 0x30, 0x21, 0x90, 0x3c, 
	0x64, 0x00, 0x90, 0x45, 0x7f, 0x00, 0x90, 0x2d, 
	0x7f, 0x40, 0x80, 0x2d, 0x30, 0x1f, 0x90, 0x2d, 
	0x7f, 0x21, 0x80, 0x3c, 0x30, 0x1f, 0x80, 0x2d, 
	0x30, 0x21, 0x90, 0x3c, 0x64, 0x00, 0x90, 0x2d, 
	0x7f, 0x00, 0x80, 0x45, 0x30, 0x40, 0x80, 0x2d, 
	0x30, 0x1f, 0x90, 0x45, 0x7f, 0x00, 0x90, 0x2d, 
	0x7f, 0x21, 0x80, 0x3c, 0x30, 0x1f, 0x80, 0x2d, 
	0x30, 0x21, 0x90, 0x40, 0x64, 0x00, 0x90, 0x2d, 
	0x7f, 0x40, 0x80, 0x2d, 0x30, 0x1f, 0x90, 0x2d, 
	0x7f, 0x00, 0x80, 0x45, 0x30, 0x21, 0x80, 0x40, 
	0x30, 0x1f, 0x80, 0x2d, 0x30, 0x21, 0x90, 0x3c, 
	0x64, 0x00, 0x90, 0x45, 0x7f, 0x00, 0x90, 0x2b, 
	0x7f, 0x40, 0x80, 0x2b, 0x30, 0x1f, 0x90, 0x2b, 
	0x7f, 0x21, 0x80, 0x3c, 0x30, 0x1f, 0x80, 0x2b, 
	0x30, 0x21, 0x90, 0x43, 0x64, 0x00, 0x90, 0x2d, 
	0x7f, 0x00, 0x80, 0x45, 0x30, 0x40, 0x80, 0x2d, 
	0x30, 0x1f, 0x90, 0x45, 0x7f, 0x00, 0x90, 0x2d, 
	0x7f, 0x21, 0x80, 0x43, 0x30, 0x1f, 0x80, 0x2d, 
	0x30, 0x21, 0x90, 0x3c, 0x64, 0x00, 0x90, 0x2d, 
	0x7f, 0x40, 0x80, 0x2d, 0x30, 0x1f, 0x90, 0x2d, 
	0x7f, 0x00, 0x80, 0x45, 0x30, 0x21, 0x80, 0x3c, 
	0x30, 0x1f, 0x80, 0x2d, 0x30, 0x21, 0x90, 0x40, 
	0x64, 0x00, 0x90, 0x43, 0x7f, 0x00, 0x90, 0x2d, 
	0x7f, 0x40, 0x80, 0x2d, 0x30, 0x1f, 0x90, 0x2d, 
	0x7f, 0x21, 0x80, 0x40, 0x30, 0x00, 0x80, 0x43, 
	0x30, 0x1f, 0x80, 0x2d, 0x30, 0x21, 0x90, 0x3c, 
	0x64, 0x00, 0x90, 0x40, 0x7f, 0x00, 0x90, 0x2b, 
	0x7f, 0x40, 0x80, 0x2b, 0x30, 0x1f, 0x90, 0x2b, 
	0x7f, 0x21, 0x80, 0x3c, 0x30, 0x00, 0x80, 0x40, 
	0x30, 0x1f, 0x80, 0x2b, 0x30, 0x21, 0x90, 0x37, 
	0x64, 0x00, 0x90, 0x45, 0x7f, 0x00, 0x90, 0x2d, 
	0x7f, 0x40, 0x80, 0x2d, 0x30, 0x1f, 0x90, 0x2d, 
	0x7f, 0x21, 0x80, 0x37, 0x30, 0x1f, 0x80, 0x2d, 
	0x30, 0x21, 0x90, 0x37, 0x64, 0x00, 0x90, 0x2d, 
	0x7f, 0x00, 0x80, 0x45, 0x30, 0x40, 0x80, 0x2d, 
	0x30, 0x1f, 0x90, 0x45, 0x7f, 0x00, 0x90, 0x2d, 
	0x7f, 0x21, 0x80, 0x37, 0x30, 0x1f, 0x80, 0x2d, 
	0x30, 0x21, 0x90, 0x3b, 0x64, 0x00, 0x90, 0x2d, 
	0x7f, 0x40, 0x80, 0x2d, 0x30, 0x1f, 0x90, 0x2d, 
	0x7f, 0x00, 0x80, 0x45, 0x30, 0x21, 0x80, 0x3b, 
	0x30, 0x1f, 0x80, 0x2d, 0x30, 0x21, 0x90, 0x37, 
	0x64, 0x00, 0x90, 0x45, 0x7f, 0x00, 0x90, 0x2b, 
	0x7f, 0x40, 0x80, 0x2b, 0x30, 0x1f, 0x90, 0x2b, 
	0x7f, 0x21, 0x80, 0x37, 0x30, 0x1f, 0x80, 0x2b, 
	0x30, 0x21, 0x90, 0x3c, 0x64, 0x00, 0x90, 0x2d, 
	0x7f, 0x00, 0x80, 0x45, 0x30, 0x40, 0x80, 0x2d, 
	0x30, 0x1f, 0x90, 0x45, 0x7f, 0x00, 0x90, 0x2d, 
	0x7f, 0x21, 0x80, 0x3c, 0x30, 0x1f, 0x80, 0x2d, 
	0x30, 0x21, 0x90, 0x37, 0x64, 0x00, 0x90, 0x2d, 
	0x7f, 0x40, 0x80, 0x2d, 0x30, 0x20, 0x90, 0x2d, 
	0x7f, 0x00, 0x80, 0x45, 0x30, 0x20, 0x80, 0x37, 
	0x30, 0x20, 0x80, 0x2d, 0x30, 0x20, 0x90, 0x3e, 
	0x64, 0x00, 0x90, 0x43, 0x7f, 0x00, 0x90, 0x2d, 
	0x7f, 0x40, 0x80, 0x2d, 0x30, 0x20, 0x90, 0x2d, 
	0x7f, 0x20, 0x80, 0x3e, 0x30, 0x00, 0x80, 0x43, 
	0x30, 0x20, 0x80, 0x2d, 0x30, 0x20, 0x90, 0x3c, 
	0x64, 0x00, 0x90, 0x48, 0x7f, 0x00, 0x90, 0x2b, 
	0x7f, 0x40, 0x80, 0x2b, 0x30, 0x20, 0x90, 0x2b, 
	0x7f, 0x20, 0x80, 0x3c, 0x30, 0x00, 0x80, 0x48, 
	0x30, 0x20, 0x80, 0x2b, 0x30, 0x1f, 0x90, 0x35, 
	0x64, 0x00, 0x90, 0x45, 0x7f, 0x00, 0x90, 0x2d, 
	0x7f, 0x40, 0x80, 0x2d, 0x30, 0x21, 0x90, 0x2d, 
	0x7f, 0x1f, 0x80, 0x35, 0x30, 0x21, 0x80, 0x2d, 
	0x30, 0x1f, 0x90, 0x35, 0x64, 0x00, 0x90, 0x2d, 
	0x7f, 0x00, 0x80, 0x45, 0x30, 0x40, 0x80, 0x2d, 
	0x30, 0x21, 0x90, 0x45, 0x7f, 0x00, 0x90, 0x2d, 
	0x7f, 0x1f, 0x80, 0x35, 0x30, 0x21, 0x80, 0x2d, 
	0x30, 0x1f, 0x90, 0x39, 0x64, 0x00, 0x90, 0x2d, 
	0x7f, 0x40, 0x80, 0x2d, 0x30, 0x21, 0x90, 0x2d, 
	0x7f, 0x00, 0x80, 0x45, 0x30, 0x1f, 0x80, 0x39, 
	0x30, 0x21, 0x80, 0x2d, 0x30, 0x1f, 0x90, 0x35, 
	0x64, 0x00, 0x90, 0x45, 0x7f, 0x00, 0x90, 0x2b, 
	0x7f, 0x40, 0x80, 0x2b, 0x30, 0x21, 0x90, 0x2b, 
	0x7f, 0x1f, 0x80, 0x35, 0x30, 0x00, 0x80, 0x45, 
	0x30, 0x21, 0x80, 0x2b, 0x30, 0x1f, 0x90, 0x3c, 
	0x64, 0x00, 0x90, 0x45, 0x7f, 0x00, 0x90, 0x30, 
	0x7f, 0x40, 0x80, 0x45, 0x30, 0x00, 0x80, 0x30, 
	0x30, 0x21, 0x90, 0x45, 0x7f, 0x00, 0x90, 0x30, 
	0x7f, 0x1f, 0x80, 0x3c, 0x30, 0x21, 0x80, 0x45, 
	0x30, 0x00, 0x80, 0x30, 0x30, 0x1f, 0x90, 0x35, 
	0x64, 0x00, 0x90, 0x30, 0x7f, 0x40, 0x80, 0x30, 
	0x30, 0x21, 0x90, 0x45, 0x7f, 0x00, 0x90, 0x30, 
	0x7f, 0x1f, 0x80, 0x35, 0x30, 0x21, 0x80, 0x45, 
	0x30, 0x00, 0x80, 0x30, 0x30, 0x1f, 0x90, 0x3c, 
	0x64, 0x00, 0x90, 0x45, 0x7f, 0x00, 0x90, 0x32, 
	0x7f, 0x40, 0x80, 0x45, 0x30, 0x00, 0x80, 0x32, 
	0x30, 0x21, 0x90, 0x32, 0x7f, 0x1f, 0x80, 0x3c, 
	0x30, 0x21, 0x80, 0x32, 0x30, 0x1f, 0x90, 0x3b, 
	0x64, 0x00, 0x90, 0x32, 0x7f, 0x40, 0x80, 0x32, 
	0x30, 0x21, 0x90, 0x32, 0x7f, 0x1f, 0x80, 0x3b, 
	0x30, 0x21, 0x80, 0x32, 0x30, 0x1f, 0x90, 0x45, 
	0x7f, 0x00, 0x90, 0x2d, 0x64, 0x40, 0x80, 0x45, 
	0x30, 0x21, 0x90, 0x4c, 0x7f, 0x5f, 0x80, 0x2d, 
	0x30, 0x21, 0x80, 0x4c, 0x30, 0x40, 0x90, 0x45, 
	0x7f, 0x00, 0x90, 0x2d, 0x64, 0x40, 0x80, 0x45, 
	0x30, 0x1f, 0x90, 0x48, 0x7f, 0x61, 0x80, 0x2d, 
	0x30, 0x1f, 0x80, 0x48, 0x30, 0x40, 0x90, 0x45, 
	0x7f, 0x00, 0x90, 0x2b, 0x64, 0x40, 0x80, 0x45, 
	0x30, 0x21, 0x90, 0x46, 0x7f, 0x1f, 0x80, 0x2b, 
	0x30, 0x40, 0x90, 0x2d, 0x64, 0x21, 0x80, 0x46, 
	0x30, 0x1f, 0x80, 0x2d, 0x30, 0x21, 0x90, 0x45, 
	0x7f, 0x00, 0x90, 0x2d, 0x64, 0x40, 0x80, 0x45, 
	0x30, 0x00, 0x80, 0x2d, 0x30, 0x1f, 0x90, 0x48, 
	0x7f, 0x00, 0x90, 0x2d, 0x64, 0x40, 0x80, 0x2d, 
	0x30, 0x40, 0x80, 0x48, 0x30, 0x40, 0x90, 0x45, 
	0x7f, 0x00, 0x90, 0x2d, 0x64, 0x40, 0x80, 0x45, 
	0x30, 0x21, 0x90, 0x46, 0x7f, 0x1f, 0x80, 0x2d, 
	0x30, 0x21, 0x80, 0x46, 0x30, 0x1f, 0x90, 0x43, 
	0x7f, 0x00, 0x90, 0x2b, 0x64, 0x81, 0x00, 0x80, 
	0x43, 0x30, 0x00, 0x80, 0x2b, 0x30, 0x40, 0x90, 
	0x45, 0x7f, 0x00, 0x90, 0x2d, 0x64, 0x40, 0x80, 
	0x45, 0x30, 0x21, 0x90, 0x4c, 0x7f, 0x5f, 0x80, 
	0x2d, 0x30, 0x21, 0x80, 0x4c, 0x30, 0x40, 0x90, 
	0x45, 0x7f, 0x00, 0x90, 0x2d, 0x64, 0x40, 0x80, 
	0x45, 0x30, 0x1f, 0x90, 0x48, 0x7f, 0x61, 0x80, 
	0x2d, 0x30, 0x1f, 0x80, 0x48, 0x30, 0x40, 0x90, 
	0x45, 0x7f, 0x00, 0x90, 0x2b, 0x64, 0x40, 0x80, 
	0x45, 0x30, 0x21, 0x90, 0x46, 0x7f, 0x1f, 0x80, 
	0x2b, 0x30, 0x41, 0x90, 0x2d, 0x64, 0x20, 0x80, 
	0x46, 0x30, 0x20, 0x80, 0x2d, 0x30, 0x20, 0x90, 
	0x45, 0x7f, 0x00, 0x90, 0x2d, 0x64, 0x40, 0x80, 
	0x45, 0x30, 0x00, 0x80, 0x2d, 0x30, 0x20, 0x90, 
	0x48, 0x7f, 0x00, 0x90, 0x2d, 0x64, 0x40, 0x80, 
	0x2d, 0x30, 0x40, 0x80, 0x48, 0x30, 0x40, 0x90, 
	0x45, 0x7f, 0x00, 0x90, 0x2d, 0x64, 0x40, 0x80, 
	0x45, 0x30, 0x20, 0x90, 0x46, 0x7f, 0x20, 0x80, 
	0x2d, 0x30, 0x1f, 0x80, 0x46, 0x30, 0x21, 0x90, 
	0x43, 0x7f, 0x00, 0x90, 0x2b, 0x64, 0x81, 0x00, 
	0x80, 0x43, 0x30, 0x00, 0x80, 0x2b, 0x30, 0x40, 
	0x90, 0x45, 0x7f, 0x00, 0x90, 0x2d, 0x64, 0x40, 
	0x80, 0x45, 0x30, 0x1f, 0x90, 0x4c, 0x7f, 0x61, 
	0x80, 0x2d, 0x30, 0x1f, 0x80, 0x4c, 0x30, 0x40, 
	0x90, 0x45, 0x7f, 0x00, 0x90, 0x2d, 0x64, 0x40, 
	0x80, 0x45, 0x30, 0x21, 0x90, 0x48, 0x7f, 0x5f, 
	0x80, 0x2d, 0x30, 0x21, 0x80, 0x48, 0x30, 0x40, 
	0x90, 0x45, 0x7f, 0x00, 0x90, 0x2b, 0x64, 0x40, 
	0x80, 0x45, 0x30, 0x1f, 0x90, 0x46, 0x7f, 0x21, 
	0x80, 0x2b, 0x30, 0x40, 0x90, 0x2d, 0x64, 0x1f, 
	0x80, 0x46, 0x30, 0x21, 0x80, 0x2d, 0x30, 0x1f, 
	0x90, 0x45, 0x7f, 0x00, 0x90, 0x2d, 0x64, 0x40, 
	0x80, 0x45, 0x30, 0x00, 0x80, 0x2d, 0x30, 0x21, 
	0x90, 0x48, 0x7f, 0x00, 0x90, 0x2d, 0x64, 0x40, 
	0x80, 0x2d, 0x30, 0x40, 0x80, 0x48, 0x30, 0x40, 
	0x90, 0x45, 0x7f, 0x00, 0x90, 0x2d, 0x64, 0x40, 
	0x80, 0x45, 0x30, 0x1f, 0x90, 0x46, 0x7f, 0x21, 
	0x80, 0x2d, 0x30, 0x1f, 0x80, 0x46, 0x30, 0x21, 
	0x90, 0x43, 0x7f, 0x00, 0x90, 0x2b, 0x64, 0x81, 
	0x00, 0x80, 0x43, 0x30, 0x00, 0x80, 0x2b, 0x30, 
	0x40, 0x90, 0x45, 0x7f, 0x00, 0x90, 0x2d, 0x64, 
	0x40, 0x80, 0x45, 0x30, 0x1f, 0x90, 0x4c, 0x7f, 
	0x61, 0x80, 0x2d, 0x30, 0x1f, 0x80, 0x4c, 0x30, 
	0x40, 0x90, 0x45, 0x7f, 0x00, 0x90, 0x2d, 0x64, 
	0x40, 0x80, 0x45, 0x30, 0x21, 0x90, 0x48, 0x7f, 
	0x5f, 0x80, 0x2d, 0x30, 0x21, 0x80, 0x48, 0x30, 
	0x40, 0x90, 0x43, 0x7f, 0x00, 0x90, 0x2b, 0x64, 
	0x40, 0x80, 0x43, 0x30, 0x1f, 0x90, 0x43, 0x7f, 
	0x21, 0x80, 0x2b, 0x30, 0x40, 0x90, 0x30, 0x64, 
	0x1f, 0x80, 0x43, 0x30, 0x21, 0x80, 0x30, 0x30, 
	0x1f, 0x90, 0x43, 0x7f, 0x00, 0x90, 0x30, 0x64, 
	0x40, 0x80, 0x43, 0x30, 0x00, 0x80, 0x30, 0x30, 
	0x21, 0x90, 0x45, 0x7f, 0x00, 0x90, 0x30, 0x64, 
	0x40, 0x80, 0x30, 0x30, 0x40, 0x80, 0x45, 0x30, 
	0x40, 0x90, 0x45, 0x7f, 0x00, 0x90, 0x32, 0x64, 
	0x81, 0x00, 0x80, 0x45, 0x30, 0x00, 0x80, 0x32, 
	0x30, 0x40, 0x90, 0x32, 0x64, 0x81, 0x00, 0x80, 
	0x32, 0x30, 0x40, 0x90, 0x45, 0x7f, 0x00, 0x90, 
	0x2d, 0x64, 0x40, 0x80, 0x45, 0x30, 0x1f, 0x90, 
	0x4c, 0x7f, 0x61, 0x80, 0x2d, 0x30, 0x1f, 0x80, 
	0x4c, 0x30, 0x40, 0x90, 0x45, 0x7f, 0x00, 0x90, 
	0x2d, 0x64, 0x40, 0x80, 0x45, 0x30, 0x21, 0x90, 
	0x48, 0x7f, 0x5f, 0x80, 0x2d, 0x30, 0x21, 0x80, 
	0x48, 0x30, 0x40, 0x90, 0x45, 0x7f, 0x00, 0x90, 
	0x2b, 0x64, 0x40, 0x80, 0x45, 0x30, 0x20, 0x90, 
	0x46, 0x7f, 0x20, 0x80, 0x2b, 0x30, 0x40, 0x90, 
	0x2d, 0x64, 0x20, 0x80, 0x46, 0x30, 0x20, 0x80, 
	0x2d, 0x30, 0x20, 0x90, 0x45, 0x7f, 0x00, 0x90, 
	0x2d, 0x64, 0x40, 0x80, 0x45, 0x30, 0x00, 0x80, 
	0x2d, 0x30, 0x20, 0x90, 0x48, 0x7f, 0x00, 0x90, 
	0x2d, 0x64, 0x40, 0x80, 0x2d, 0x30, 0x3f, 0x80, 
	0x48, 0x30, 0x40, 0x90, 0x45, 0x7f, 0x00, 0x90, 
	0x2d, 0x64, 0x40, 0x80, 0x45, 0x30, 0x21, 0x90, 
	0x46, 0x7f, 0x1f, 0x80, 0x2d, 0x30, 0x21, 0x80, 
	0x46, 0x30, 0x1f, 0x90, 0x43, 0x7f, 0x00, 0x90, 
	0x2b, 0x64, 0x81, 0x00, 0x80, 0x43, 0x30, 0x00, 
	0x80, 0x2b, 0x30, 0x40, 0x90, 0x45, 0x7f, 0x00, 
	0x90, 0x2d, 0x64, 0x40, 0x80, 0x45, 0x30, 0x21, 
	0x90, 0x4c, 0x7f, 0x5f, 0x80, 0x2d, 0x30, 0x21, 
	0x80, 0x4c, 0x30, 0x40, 0x90, 0x45, 0x7f, 0x00, 
	0x90, 0x2d, 0x64, 0x40, 0x80, 0x45, 0x30, 0x1f, 
	0x90, 0x48, 0x7f, 0x61, 0x80, 0x2d, 0x30, 0x1f, 
	0x80, 0x48, 0x30, 0x40, 0x90, 0x45, 0x7f, 0x00, 
	0x90, 0x2b, 0x64, 0x40, 0x80, 0x45, 0x30, 0x21, 
	0x90, 0x46, 0x7f, 0x1f, 0x80, 0x2b, 0x30, 0x40, 
	0x90, 0x2d, 0x64, 0x21, 0x80, 0x46, 0x30, 0x1f, 
	0x80, 0x2d, 0x30, 0x21, 0x90, 0x45, 0x7f, 0x00, 
	0x90, 0x2d, 0x64, 0x40, 0x80, 0x45, 0x30, 0x00, 
	0x80, 0x2d, 0x30, 0x1f, 0x90, 0x48, 0x7f, 0x00, 
	0x90, 0x2d, 0x64, 0x40, 0x80, 0x2d, 0x30, 0x40, 
	0x80, 0x48, 0x30, 0x40, 0x90, 0x45, 0x7f, 0x00, 
	0x90, 0x2d, 0x64, 0x40, 0x80, 0x45, 0x30, 0x21, 
	0x90, 0x46, 0x7f, 0x1f, 0x80, 0x2d, 0x30, 0x21, 
	0x80, 0x46, 0x30, 0x1f, 0x90, 0x43, 0x7f, 0x00, 
	0x90, 0x2b, 0x64, 0x81, 0x00, 0x80, 0x43, 0x30, 
	0x00, 0x80, 0x2b, 0x30, 0x40, 0x90, 0x45, 0x7f, 
	0x00, 0x90, 0x2d, 0x64, 0x40, 0x80, 0x45, 0x30, 
	0x21, 0x90, 0x4c, 0x7f, 0x5f, 0x80, 0x2d, 0x30, 
	0x21, 0x80, 0x4c, 0x30, 0x40, 0x90, 0x45, 0x7f, 
	0x00, 0x90, 0x2d, 0x64, 0x40, 0x80, 0x45, 0x30, 
	0x1f, 0x90, 0x48, 0x7f, 0x61, 0x80, 0x2d, 0x30, 
	0x1f, 0x80, 0x48, 0x30, 0x40, 0x90, 0x45, 0x7f, 
	0x00, 0x90, 0x2b, 0x64, 0x40, 0x80, 0x45, 0x30, 
	0x21, 0x90, 0x46, 0x7f, 0x1f, 0x80, 0x2b, 0x30, 
	0x40, 0x90, 0x2d, 0x64, 0x21, 0x80, 0x46, 0x30, 
	0x1f, 0x80, 0x2d, 0x30, 0x21, 0x90, 0x45, 0x7f, 
	0x00, 0x90, 0x2d, 0x64, 0x40, 0x80, 0x45, 0x30, 
	0x00, 0x80, 0x2d, 0x30, 0x1f, 0x90, 0x48, 0x7f, 
	0x00, 0x90, 0x2d, 0x64, 0x40, 0x80, 0x2d, 0x30, 
	0x40, 0x80, 0x48, 0x30, 0x40, 0x90, 0x45, 0x7f, 
	0x00, 0x90, 0x2d, 0x64, 0x40, 0x80, 0x45, 0x30, 
	0x21, 0x90, 0x46, 0x7f, 0x1f, 0x80, 0x2d, 0x30, 
	0x21, 0x80, 0x46, 0x30, 0x1f, 0x90, 0x43, 0x7f, 
	0x00, 0x90, 0x2b, 0x64, 0x81, 0x00, 0x80, 0x43, 
	0x30, 0x00, 0x80, 0x2b, 0x30, 0x40, 0x90, 0x45, 
	0x7f, 0x00, 0x90, 0x2d, 0x64, 0x40, 0x80, 0x45, 
	0x30, 0x21, 0x90, 0x4c, 0x7f, 0x5f, 0x80, 0x2d, 
	0x30, 0x21, 0x80, 0x4c, 0x30, 0x40, 0x90, 0x45, 
	0x7f, 0x00, 0x90, 0x2d, 0x64, 0x40, 0x80, 0x45, 
	0x30, 0x20, 0x90, 0x48, 0x7f, 0x60, 0x80, 0x2d, 
	0x30, 0x20, 0x80, 0x48, 0x30, 0x40, 0x90, 0x43, 
	0x7f, 0x00, 0x90, 0x2b, 0x64, 0x40, 0x80, 0x43, 
	0x30, 0x20, 0x90, 0x43, 0x7f, 0x20, 0x80, 0x2b, 
	0x30, 0x40, 0x90, 0x30, 0x64, 0x20, 0x80, 0x43, 
	0x30, 0x20, 0x80, 0x30, 0x30, 0x1f, 0x90, 0x43, 
	0x7f, 0x00, 0x90, 0x30, 0x64, 0x40, 0x80, 0x43, 
	0x30, 0x00, 0x80, 0x30, 0x30, 0x21, 0x90, 0x45, 
	0x7f, 0x00, 0x90, 0x30, 0x64, 0x40, 0x80, 0x30, 
	0x30, 0x40, 0x80, 0x45, 0x30, 0x40, 0x90, 0x45, 
	0x7f, 0x00, 0x90, 0x32, 0x64, 0x81, 0x00, 0x80, 
	0x45, 0x30, 0x00, 0x80, 0x32, 0x30, 0x40, 0x90, 
	0x32, 0x64, 0x81, 0x00, 0x80, 0x32, 0x30, 0x40, 
	0x90, 0x2d, 0x64, 0x00, 0x90, 0x2d, 0x64, 0x40, 
	0x80, 0x2d, 0x30, 0x1f, 0x90, 0x2d, 0x64, 0x40, 
	0x80, 0x2d, 0x30, 0x21, 0x90, 0x51, 0x4b, 0x00, 
	0x90, 0x2d, 0x64, 0x00, 0x80, 0x2d, 0x30, 0x40, 
	0x80, 0x2d, 0x30, 0x1f, 0x90, 0x2d, 0x64, 0x00, 
	0x90, 0x2d, 0x64, 0x40, 0x80, 0x2d, 0x30, 0x51, 
	0x80, 0x51, 0x30, 0x2f, 0x90, 0x4f, 0x4b, 0x00, 
	0x80, 0x2d, 0x30, 0x61, 0x90, 0x2b, 0x64, 0x81, 
	0x00, 0x80, 0x2b, 0x30, 0x0f, 0x80, 0x4f, 0x30, 
	0x31, 0x90, 0x4d, 0x4b, 0x00, 0x90, 0x2b, 0x64, 
	0x00, 0x90, 0x2d, 0x64, 0x40, 0x80, 0x2b, 0x30, 
	0x00, 0x80, 0x2d, 0x30, 0x1f, 0x90, 0x2b, 0x64, 
	0x00, 0x90, 0x2d, 0x64, 0x40, 0x80, 0x2b, 0x30, 
	0x00, 0x80, 0x2d, 0x30, 0x21, 0x90, 0x2b, 0x64, 
	0x00, 0x90, 0x2d, 0x64, 0x30, 0x80, 0x4d, 0x30, 
	0x10, 0x80, 0x2b, 0x30, 0x00, 0x80, 0x2d, 0x30, 
	0x1f, 0x90, 0x4c, 0x4b, 0x00, 0x90, 0x2b, 0x64, 
	0x40, 0x80, 0x2b, 0x30, 0x21, 0x90, 0x2d, 0x64, 
	0x81, 0x00, 0x80, 0x2d, 0x30, 0x10, 0x80, 0x4c, 
	0x30, 0x30, 0x90, 0x4a, 0x4b, 0x00, 0x90, 0x2b, 
	0x64, 0x81, 0x00, 0x80, 0x2b, 0x30, 0x40, 0x90, 
	0x2d, 0x64, 0x00, 0x90, 0x2d, 0x64, 0x08, 0x80, 
	0x4a, 0x30, 0x38, 0x80, 0x2d, 0x30, 0x1f, 0x90, 
	0x2d, 0x64, 0x40, 0x80, 0x2d, 0x30, 0x21, 0x90, 
	0x51, 0x4b, 0x00, 0x90, 0x2d, 0x64, 0x00, 0x80, 
	0x2d, 0x30, 0x40, 0x80, 0x2d, 0x30, 0x1f, 0x90, 
	0x2d, 0x64, 0x00, 0x90, 0x2d, 0x64, 0x40, 0x80, 
	0x2d, 0x30, 0x50, 0x80, 0x51, 0x30, 0x30, 0x90, 
	0x4f, 0x4b, 0x00, 0x80, 0x2d, 0x30, 0x61, 0x90, 
	0x2b, 0x64, 0x81, 0x00, 0x80, 0x2b, 0x30, 0x10, 
	0x80, 0x4f, 0x30, 0x30, 0x90, 0x4d, 0x4b, 0x00, 
	0x90, 0x2b, 0x64, 0x00, 0x90, 0x2d, 0x64, 0x40, 
	0x80, 0x2b, 0x30, 0x00, 0x80, 0x2d, 0x30, 0x1f, 
	0x90, 0x2b, 0x64, 0x00, 0x90, 0x2d, 0x64, 0x40, 
	0x80, 0x2b, 0x30, 0x00, 0x80, 0x2d, 0x30, 0x21, 
	0x90, 0x2b, 0x64, 0x00, 0x90, 0x2d, 0x64, 0x2f, 
	0x80, 0x4d, 0x30, 0x11, 0x80, 0x2b, 0x30, 0x00, 
	0x80, 0x2d, 0x30, 0x1f, 0x90, 0x4c, 0x4b, 0x00, 
	0x90, 0x2b, 0x64, 0x40, 0x80, 0x2b, 0x30, 0x21, 
	0x90, 0x28, 0x64, 0x00, 0x90, 0x2d, 0x64, 0x81, 
	0x00, 0x80, 0x28, 0x30, 0x00, 0x80, 0x2d, 0x30, 
	0x10, 0x80, 0x4c, 0x30, 0x30, 0x90, 0x4a, 0x4b, 
	0x00, 0x90, 0x2b, 0x64, 0x00, 0x90, 0x2b, 0x64, 
	0x81, 0x00, 0x80, 0x2b, 0x30, 0x00, 0x80, 0x2b, 
	0x30, 0x40, 0x90, 0x2d, 0x64, 0x00, 0x90, 0x2d, 
	0x64, 0x08, 0x80, 0x4a, 0x30, 0x38, 0x80, 0x2d, 
	0x30, 0x20, 0x90, 0x2d, 0x64, 0x40, 0x80, 0x2d, 
	0x30, 0x20, 0x90, 0x51, 0x4b, 0x00, 0x90, 0x2d, 
	0x64, 0x00, 0x80, 0x2d, 0x30, 0x40, 0x80, 0x2d, 
	0x30, 0x20, 0x90, 0x2d, 0x64, 0x00, 0x90, 0x2d, 
	0x64, 0x40, 0x80, 0x2d, 0x30, 0x4f, 0x80, 0x51, 
	0x30, 0x31, 0x90, 0x4f, 0x4b, 0x00, 0x80, 0x2d, 
	0x30, 0x60, 0x90, 0x2b, 0x64, 0x7f, 0x80, 0x2b, 
	0x30, 0x11, 0x80, 0x4f, 0x30, 0x2f, 0x90, 0x4d, 
	0x4b, 0x00, 0x90, 0x2b, 0x64, 0x00, 0x90, 0x2d, 
	0x64, 0x40, 0x80, 0x2b, 0x30, 0x00, 0x80, 0x2d, 
	0x30, 0x21, 0x90, 0x2b, 0x64, 0x00, 0x90, 0x2d, 
	0x64, 0x40, 0x80, 0x2b, 0x30, 0x00, 0x80, 0x2d, 
	0x30, 0x1f, 0x90, 0x2b, 0x64, 0x00, 0x90, 0x2d, 
	0x64, 0x30, 0x80, 0x4d, 0x30, 0x10, 0x80, 0x2b, 
	0x30, 0x00, 0x80, 0x2d, 0x30, 0x21, 0x90, 0x4c, 
	0x4b, 0x00, 0x90, 0x2b, 0x64, 0x40, 0x80, 0x2b, 
	0x30, 0x1f, 0x90, 0x28, 0x64, 0x00, 0x90, 0x2d, 
	0x64, 0x81, 0x00, 0x80, 0x28, 0x30, 0x00, 0x80, 
	0x2d, 0x30, 0x11, 0x80, 0x4c, 0x30, 0x2f, 0x90, 
	0x4a, 0x4b, 0x00, 0x90, 0x2b, 0x64, 0x00, 0x90, 
	0x2b, 0x64, 0x81, 0x00, 0x80, 0x2b, 0x30, 0x00, 
	0x80, 0x2b, 0x30, 0x40, 0x90, 0x2d, 0x64, 0x00, 
	0x90, 0x2d, 0x64, 0x09, 0x80, 0x4a, 0x30, 0x37, 
	0x80, 0x2d, 0x30, 0x21, 0x90, 0x2d, 0x64, 0x40, 
	0x80, 0x2d, 0x30, 0x1f, 0x90, 0x4c, 0x4b, 0x00, 
	0x90, 0x2d, 0x64, 0x00, 0x80, 0x2d, 0x30, 0x40, 
	0x80, 0x2d, 0x30, 0x21, 0x90, 0x2d, 0x64, 0x00, 
	0x90, 0x2d, 0x64, 0x40, 0x80, 0x2d, 0x30, 0x4f, 
	0x80, 0x4c, 0x30, 0x31, 0x90, 0x4a, 0x4b, 0x00, 
	0x80, 0x2d, 0x30, 0x5f, 0x90, 0x2b, 0x64, 0x81, 
	0x00, 0x80, 0x2b, 0x30, 0x11, 0x80, 0x4a, 0x30, 
	0x2f, 0x90, 0x48, 0x4b, 0x00, 0x90, 0x2b, 0x64, 
	0x00, 0x90, 0x2d, 0x64, 0x40, 0x80, 0x2b, 0x30, 
	0x00, 0x80, 0x2d, 0x30, 0x21, 0x90, 0x2b, 0x64, 
	0x00, 0x90, 0x2d, 0x64, 0x40, 0x80, 0x2b, 0x30, 
	0x00, 0x80, 0x2d, 0x30, 0x1f, 0x90, 0x2b, 0x64, 
	0x00, 0x90, 0x2d, 0x64, 0x31, 0x80, 0x48, 0x30, 
	0x0f, 0x80, 0x2b, 0x30, 0x00, 0x80, 0x2d, 0x30, 
	0x21, 0x90, 0x47, 0x4b, 0x00, 0x90, 0x2b, 0x64, 
	0x40, 0x80, 0x2b, 0x30, 0x1f, 0x90, 0x28, 0x64, 
	0x00, 0x90, 0x2d, 0x64, 0x81, 0x00, 0x80, 0x28, 
	0x30, 0x00, 0x80, 0x2d, 0x30, 0x10, 0x80, 0x47, 
	0x30, 0x30, 0x90, 0x45, 0x4b, 0x00, 0x90, 0x2b, 
	0x64, 0x00, 0x90, 0x2b, 0x64, 0x81, 0x00, 0x80, 
	0x2b, 0x30, 0x00, 0x80, 0x2b, 0x30, 0x40, 0x90, 
	0x2d, 0x64, 0x00, 0x90, 0x2d, 0x64, 0x08, 0x80, 
	0x45, 0x30, 0x38, 0x80, 0x2d, 0x30, 0x21, 0x90, 
	0x2d, 0x64, 0x40, 0x80, 0x2d, 0x30, 0x1f, 0x90, 
	0x51, 0x4b, 0x00, 0x90, 0x2d, 0x64, 0x00, 0x80, 
	0x2d, 0x30, 0x40, 0x80, 0x2d, 0x30, 0x21, 0x90, 
	0x2d, 0x64, 0x00, 0x90, 0x2d, 0x64, 0x40, 0x80, 
	0x2d, 0x30, 0x50, 0x80, 0x51, 0x30, 0x30, 0x90, 
	0x4f, 0x4b, 0x00, 0x80, 0x2d, 0x30, 0x5f, 0x90, 
	0x2b, 0x64, 0x81, 0x00, 0x80, 0x2b, 0x30, 0x10, 
	0x80, 0x4f, 0x30, 0x30, 0x90, 0x4d, 0x4b, 0x00, 
	0x90, 0x2b, 0x64, 0x00, 0x90, 0x2d, 0x64, 0x40, 
	0x80, 0x2b, 0x30, 0x00, 0x80, 0x2d, 0x30, 0x21, 
	0x90, 0x2b, 0x64, 0x00, 0x90, 0x2d, 0x64, 0x40, 
	0x80, 0x2b, 0x30, 0x00, 0x80, 0x2d, 0x30, 0x1f, 
	0x90, 0x2b, 0x64, 0x00, 0x90, 0x2d, 0x64, 0x31, 
	0x80, 0x4d, 0x30, 0x0f, 0x80, 0x2b, 0x30, 0x00, 
	0x80, 0x2d, 0x30, 0x21, 0x90, 0x4c, 0x4b, 0x00, 
	0x90, 0x2b, 0x64, 0x40, 0x80, 0x2b, 0x30, 0x1f, 
	0x90, 0x28, 0x64, 0x00, 0x90, 0x2d, 0x64, 0x81, 
	0x00, 0x80, 0x28, 0x30, 0x00, 0x80, 0x2d, 0x30, 
	0x10, 0x80, 0x4c, 0x30, 0x30, 0x90, 0x4a, 0x4b, 
	0x00, 0x90, 0x2b, 0x64, 0x00, 0x90, 0x2b, 0x64, 
	0x81, 0x01, 0x80, 0x2b, 0x30, 0x00, 0x80, 0x2b, 
	0x30, 0x40, 0x90, 0x2d, 0x64, 0x00, 0x90, 0x2d, 
	0x64, 0x07, 0x80, 0x4a, 0x30, 0x39, 0x80, 0x2d, 
	0x30, 0x20, 0x90, 0x2d, 0x64, 0x40, 0x80, 0x2d, 
	0x30, 0x20, 0x90, 0x51, 0x4b, 0x00, 0x90, 0x2d, 
	0x64, 0x00, 0x80, 0x2d, 0x30, 0x40, 0x80, 0x2d, 
	0x30, 0x20, 0x90, 0x2d, 0x64, 0x00, 0x90, 0x2d, 
	0x64, 0x40, 0x80, 0x2d, 0x30, 0x50, 0x80, 0x51, 
	0x30, 0x2f, 0x90, 0x4f, 0x4b, 0x00, 0x80, 0x2d, 
	0x30, 0x61, 0x90, 0x2b, 0x64, 0x81, 0x00, 0x80, 
	0x2b, 0x30, 0x0f, 0x80, 0x4f, 0x30, 0x31, 0x90, 
	0x4d, 0x4b, 0x00, 0x90, 0x2b, 0x64, 0x00, 0x90, 
	0x2d, 0x64, 0x40, 0x80, 0x2b, 0x30, 0x00, 0x80, 
	0x2d, 0x30, 0x1f, 0x90, 0x2b, 0x64, 0x00, 0x90, 
	0x2d, 0x64, 0x40, 0x80, 0x2b, 0x30, 0x00, 0x80, 
	0x2d, 0x30, 0x21, 0x90, 0x2b, 0x64, 0x00, 0x90, 
	0x2d, 0x64, 0x30, 0x80, 0x4d, 0x30, 0x10, 0x80, 
	0x2b, 0x30, 0x00, 0x80, 0x2d, 0x30, 0x1f, 0x90, 
	0x4c, 0x4b, 0x00, 0x90, 0x2b, 0x64, 0x40, 0x80, 
	0x2b, 0x30, 0x21, 0x90, 0x28, 0x64, 0x00, 0x90, 
	0x2d, 0x64, 0x81, 0x00, 0x80, 0x28, 0x30, 0x00, 
	0x80, 0x2d, 0x30, 0x0f, 0x80, 0x4c, 0x30, 0x31, 
	0x90, 0x4a, 0x4b, 0x00, 0x90, 0x2b, 0x64, 0x00, 
	0x90, 0x2b, 0x64, 0x81, 0x00, 0x80, 0x2b, 0x30, 
	0x00, 0x80, 0x2b, 0x30, 0x40, 0x90, 0x2d, 0x64, 
	0x00, 0x90, 0x2d, 0x64, 0x08, 0x80, 0x4a, 0x30, 
	0x38, 0x80, 0x2d, 0x30, 0x1f, 0x90, 0x2d, 0x64, 
	0x40, 0x80, 0x2d, 0x30, 0x21, 0x90, 0x51, 0x4b, 
	0x00, 0x90, 0x2d, 0x64, 0x00, 0x80, 0x2d, 0x30, 
	0x40, 0x80, 0x2d, 0x30, 0x1f, 0x90, 0x2d, 0x64, 
	0x00, 0x90, 0x2d, 0x64, 0x40, 0x80, 0x2d, 0x30, 
	0x51, 0x80, 0x51, 0x30, 0x2f, 0x90, 0x4f, 0x4b, 
	0x00, 0x80, 0x2d, 0x30, 0x61, 0x90, 0x2b, 0x64, 
	0x81, 0x00, 0x80, 0x2b, 0x30, 0x10, 0x80, 0x4f, 
	0x30, 0x30, 0x90, 0x4d, 0x4b, 0x00, 0x90, 0x2b, 
	0x64, 0x00, 0x90, 0x2d, 0x64, 0x40, 0x80, 0x2b, 
	0x30, 0x00, 0x80, 0x2d, 0x30, 0x1f, 0x90, 0x2b, 
	0x64, 0x00, 0x90, 0x2d, 0x64, 0x40, 0x80, 0x2b, 
	0x30, 0x00, 0x80, 0x2d, 0x30, 0x21, 0x90, 0x2b, 
	0x64, 0x00, 0x90, 0x2d, 0x64, 0x30, 0x80, 0x4d, 
	0x30, 0x10, 0x80, 0x2b, 0x30, 0x00, 0x80, 0x2d, 
	0x30, 0x1f, 0x90, 0x4c, 0x4b, 0x00, 0x90, 0x2b, 
	0x64, 0x40, 0x80, 0x2b, 0x30, 0x21, 0x90, 0x28, 
	0x64, 0x00, 0x90, 0x2d, 0x64, 0x81, 0x00, 0x80, 
	0x28, 0x30, 0x00, 0x80, 0x2d, 0x30, 0x10, 0x80, 
	0x4c, 0x30, 0x30, 0x90, 0x4a, 0x4b, 0x00, 0x90, 
	0x2b, 0x64, 0x00, 0x90, 0x2b, 0x64, 0x81, 0x00, 
	0x80, 0x2b, 0x30, 0x00, 0x80, 0x2b, 0x30, 0x40, 
	0x90, 0x2d, 0x64, 0x00, 0x90, 0x2d, 0x64, 0x08, 
	0x80, 0x4a, 0x30, 0x38, 0x80, 0x2d, 0x30, 0x1f, 
	0x90, 0x2d, 0x64, 0x40, 0x80, 0x2d, 0x30, 0x21, 
	0x90, 0x4c, 0x4b, 0x00, 0x90, 0x2d, 0x64, 0x00, 
	0x80, 0x2d, 0x30, 0x40, 0x80, 0x2d, 0x30, 0x1f, 
	0x90, 0x2d, 0x64, 0x00, 0x90, 0x2d, 0x64, 0x40, 
	0x80, 0x2d, 0x30, 0x50, 0x80, 0x4c, 0x30, 0x30, 
	0x90, 0x4a, 0x4b, 0x00, 0x80, 0x2d, 0x30, 0x61, 
	0x90, 0x2b, 0x64, 0x81, 0x00, 0x80, 0x2b, 0x30, 
	0x10, 0x80, 0x4a, 0x30, 0x30, 0x90, 0x48, 0x4b, 
	0x00, 0x90, 0x2b, 0x64, 0x00, 0x90, 0x2d, 0x64, 
	0x40, 0x80, 0x2b, 0x30, 0x00, 0x80, 0x2d, 0x30, 
	0x1f, 0x90, 0x2b, 0x64, 0x00, 0x90, 0x2d, 0x64, 
	0x40, 0x80, 0x2b, 0x30, 0x00, 0x80, 0x2d, 0x30, 
	0x21, 0x90, 0x2b, 0x64, 0x00, 0x90, 0x2d, 0x64, 
	0x2f, 0x80, 0x48, 0x30, 0x11, 0x80, 0x2b, 0x30, 
	0x00, 0x80, 0x2d, 0x30, 0x1f, 0x90, 0x47, 0x4b, 
	0x00, 0x90, 0x2b, 0x64, 0x40, 0x80, 0x2b, 0x30, 
	0x21, 0x90, 0x28, 0x64, 0x00, 0x90, 0x2d, 0x64, 
	0x81, 0x00, 0x80, 0x28, 0x30, 0x00, 0x80, 0x2d, 
	0x30, 0x10, 0x80, 0x47, 0x30, 0x30, 0x90, 0x45, 
	0x4b, 0x00, 0x90, 0x2b, 0x64, 0x00, 0x90, 0x2b, 
	0x64, 0x81, 0x00, 0x80, 0x2b, 0x30, 0x00, 0x80, 
	0x2b, 0x30, 0x40, 0x90, 0x39, 0x7f, 0x00, 0x90, 
	0x45, 0x7f, 0x08, 0x80, 0x45, 0x30, 0x78, 0x80, 
	0x39, 0x30, 0x3f, 0x90, 0x39, 0x7f, 0x00, 0x80, 
	0x45, 0x30, 0x61, 0x90, 0x45, 0x7f, 0x1f, 0x80, 
	0x39, 0x30, 0x40, 0x90, 0x3c, 0x7f, 0x61, 0x80, 
	0x45, 0x30, 0x1f, 0x80, 0x3c, 0x30, 0x40, 0x90, 
	0x39, 0x7f, 0x00, 0x90, 0x45, 0x7f, 0x81, 0x00, 
	0x80, 0x39, 0x30, 0x40, 0x90, 0x3e, 0x7f, 0x00, 
	0x80, 0x45, 0x30, 0x61, 0x90, 0x45, 0x7f, 0x1f, 
	0x80, 0x3e, 0x30, 0x40, 0x90, 0x39, 0x7f, 0x61, 
	0x80, 0x45, 0x30, 0x1f, 0x80, 0x39, 0x30, 0x40, 
	0x90, 0x40, 0x7f, 0x00, 0x90, 0x43, 0x7f, 0x81, 
	0x00, 0x80, 0x40, 0x30, 0x00, 0x80, 0x43, 0x30, 
	0x40, 0x90, 0x3e, 0x7f, 0x00, 0x90, 0x48, 0x7f, 
	0x81, 0x00, 0x80, 0x3e, 0x30, 0x00, 0x80, 0x48, 
	0x30, 0x40, 0x90, 0x3c, 0x7f, 0x00, 0x90, 0x45, 
	0x7f, 0x81, 0x00, 0x80, 0x3c, 0x30, 0x40, 0x90, 
	0x3c, 0x7f, 0x00, 0x80, 0x45, 0x30, 0x61, 0x90, 
	0x45, 0x7f, 0x1f, 0x80, 0x3c, 0x30, 0x40, 0x90, 
	0x40, 0x7f, 0x61, 0x80, 0x45, 0x30, 0x1f, 0x80, 
	0x40, 0x30, 0x40, 0x90, 0x3c, 0x7f, 0x00, 0x90, 
	0x45, 0x7f, 0x81, 0x00, 0x80, 0x3c, 0x30, 0x40, 
	0x90, 0x43, 0x7f, 0x00, 0x80, 0x45, 0x30, 0x61, 
	0x90, 0x45, 0x7f, 0x1f, 0x80, 0x43, 0x30, 0x40, 
	0x90, 0x3c, 0x7f, 0x61, 0x80, 0x45, 0x30, 0x1f, 
	0x80, 0x3c, 0x30, 0x40, 0x90, 0x40, 0x7f, 0x00, 
	0x90, 0x43, 0x7f, 0x81, 0x00, 0x80, 0x40, 0x30, 
	0x00, 0x80, 0x43, 0x30, 0x40, 0x90, 0x3c, 0x7f, 
	0x00, 0x90, 0x40, 0x7f, 0x81, 0x00, 0x80, 0x3c, 
	0x30, 0x00, 0x80, 0x40, 0x30, 0x40, 0x90, 0x37, 
	0x7f, 0x00, 0x90, 0x45, 0x7f, 0x81, 0x00, 0x80, 
	0x37, 0x30, 0x40, 0x90, 0x37, 0x7f, 0x00, 0x80, 
	0x45, 0x30, 0x61, 0x90, 0x45, 0x7f, 0x1f, 0x80, 
	0x37, 0x30, 0x40, 0x90, 0x3b, 0x7f, 0x61, 0x80, 
	0x45, 0x30, 0x1f, 0x80, 0x3b, 0x30, 0x40, 0x90, 
	0x37, 0x7f, 0x00, 0x90, 0x45, 0x7f, 0x81, 0x00, 
	0x80, 0x37, 0x30, 0x40, 0x90, 0x3c, 0x7f, 0x00, 
	0x80, 0x45, 0x30, 0x61, 0x90, 0x45, 0x7f, 0x1f, 
	0x80, 0x3c, 0x30, 0x41, 0x90, 0x37, 0x7f, 0x60, 
	0x80, 0x45, 0x30, 0x20, 0x80, 0x37, 0x30, 0x40, 
	0x90, 0x3e, 0x7f, 0x00, 0x90, 0x43, 0x7f, 0x81, 
	0x00, 0x80, 0x3e, 0x30, 0x00, 0x80, 0x43, 0x30, 
	0x40, 0x90, 0x3c, 0x7f, 0x00, 0x90, 0x48, 0x7f, 
	0x81, 0x00, 0x80, 0x3c, 0x30, 0x00, 0x80, 0x48, 
	0x30, 0x40, 0x90, 0x35, 0x7f, 0x00, 0x90, 0x45, 
	0x7f, 0x81, 0x00, 0x80, 0x35, 0x30, 0x40, 0x90, 
	0x35, 0x7f, 0x00, 0x80, 0x45, 0x30, 0x5f, 0x90, 
	0x45, 0x7f, 0x21, 0x80, 0x35, 0x30, 0x40, 0x90, 
	0x39, 0x7f, 0x5f, 0x80, 0x45, 0x30, 0x21, 0x80, 
	0x39, 0x30, 0x40, 0x90, 0x35, 0x7f, 0x00, 0x90, 
	0x45, 0x7f, 0x81, 0x00, 0x80, 0x35, 0x30, 0x00, 
	0x80, 0x45, 0x30, 0x40, 0x90, 0x3c, 0x7f, 0x00, 
	0x90, 0x45, 0x7f, 0x40, 0x80, 0x45, 0x30, 0x1f, 
	0x90, 0x45, 0x7f, 0x21, 0x80, 0x3c, 0x30, 0x1f, 
	0x80, 0x45, 0x30, 0x21, 0x90, 0x35, 0x7f, 0x5f, 
	0x90, 0x45, 0x7f, 0x21, 0x80, 0x35, 0x30, 0x1f, 
	0x80, 0x45, 0x30, 0x21, 0x90, 0x3c, 0x7f, 0x00, 
	0x90, 0x45, 0x7f, 0x40, 0x80, 0x45, 0x30, 0x40, 
	0x80, 0x3c, 0x30, 0x40, 0x90, 0x3b, 0x7f, 0x81, 
	0x00, 0x80, 0x3b, 0x30, 0x40, 0x90, 0x39, 0x7f, 
	0x00, 0x90, 0x45, 0x7f, 0x00, 0x90, 0x2d, 0x7f, 
	0x40, 0x80, 0x2d, 0x30, 0x1f, 0x90, 0x2d, 0x7f, 
	0x21, 0x80, 0x39, 0x30, 0x1f, 0x80, 0x2d, 0x30, 
	0x21, 0x90, 0x39, 0x7f, 0x00, 0x90, 0x2d, 0x7f, 
	0x00, 0x80, 0x45, 0x30, 0x40, 0x80, 0x2d, 0x30, 
	0x1f, 0x90, 0x45, 0x7f, 0x00, 0x90, 0x2d, 0x7f, 
	0x21, 0x80, 0x39, 0x30, 0x1f, 0x80, 0x2d, 0x30, 
	0x21, 0x90, 0x3c, 0x7f, 0x00, 0x90, 0x2d, 0x7f, 
	0x40, 0x80, 0x2d, 0x30, 0x1f, 0x90, 0x2d, 0x7f, 
	0x00, 0x80, 0x45, 0x30, 0x21, 0x80, 0x3c, 0x30, 
	0x1f, 0x80, 0x2d, 0x30, 0x21, 0x90, 0x39, 0x7f, 
	0x00, 0x90, 0x45, 0x7f, 0x00, 0x90, 0x2b, 0x7f, 
	0x40, 0x80, 0x2b, 0x30, 0x1f, 0x90, 0x2b, 0x7f, 
	0x21, 0x80, 0x39, 0x30, 0x1f, 0x80, 0x2b, 0x30, 
	0x21, 0x90, 0x3e, 0x7f, 0x00, 0x90, 0x2d, 0x7f, 
	0x00, 0x80, 0x45, 0x30, 0x40, 0x80, 0x2d, 0x30, 
	0x1f, 0x90, 0x45, 0x7f, 0x00, 0x90, 0x2d, 0x7f, 
	0x21, 0x80, 0x3e, 0x30, 0x1f, 0x80, 0x2d, 0x30, 
	0x21, 0x90, 0x39, 0x7f, 0x00, 0x90, 0x2d, 0x7f, 
	0x40, 0x80, 0x2d, 0x30, 0x1f, 0x90, 0x2d, 0x7f, 
	0x00, 0x80, 0x45, 0x30, 0x21, 0x80, 0x39, 0x30, 
	0x1f, 0x80, 0x2d, 0x30, 0x21, 0x90, 0x40, 0x7f, 
	0x00, 0x90, 0x43, 0x7f, 0x00, 0x90, 0x2d, 0x7f, 
	0x40, 0x80, 0x2d, 0x30, 0x1f, 0x90, 0x2d, 0x7f, 
	0x21, 0x80, 0x40, 0x30, 0x00, 0x80, 0x43, 0x30, 
	0x1f, 0x80, 0x2d, 0x30, 0x21, 0x90, 0x3e, 0x7f, 
	0x00, 0x90, 0x48, 0x7f, 0x00, 0x90, 0x2b, 0x7f, 
	0x40, 0x80, 0x2b, 0x30, 0x1f, 0x90, 0x2b, 0x7f, 
	0x21, 0x80, 0x3e, 0x30, 0x00, 0x80, 0x48, 0x30, 
	0x1f, 0x80, 0x2b, 0x30, 0x21, 0x90, 0x3c, 0x7f, 
	0x00, 0x90, 0x45, 0x7f, 0x00, 0x90, 0x2d, 0x7f, 
	0x40, 0x80, 0x2d, 0x30, 0x1f, 0x90, 0x2d, 0x7f, 
	0x21, 0x80, 0x3c, 0x30, 0x1f, 0x80, 0x2d, 0x30, 
	0x21, 0x90, 0x3c, 0x7f, 0x00, 0x90, 0x2d, 0x7f, 
	0x00, 0x80, 0x45, 0x30, 0x40, 0x80, 0x2d, 0x30, 
	0x1f, 0x90, 0x45, 0x7f, 0x00, 0x90, 0x2d, 0x7f, 
	0x21, 0x80, 0x3c, 0x30, 0x1f, 0x80, 0x2d, 0x30, 
	0x21, 0x90, 0x40, 0x7f, 0x00, 0x90, 0x2d, 0x7f, 
	0x40, 0x80, 0x2d, 0x30, 0x1f, 0x90, 0x2d, 0x7f, 
	0x00, 0x80, 0x45, 0x30, 0x21, 0x80, 0x40, 0x30, 
	0x1f, 0x80, 0x2d, 0x30, 0x21, 0x90, 0x3c, 0x7f, 
	0x00, 0x90, 0x45, 0x7f, 0x00, 0x90, 0x2b, 0x7f, 
	0x40, 0x80, 0x2b, 0x30, 0x1f, 0x90, 0x2b, 0x7f, 
	0x21, 0x80, 0x3c, 0x30, 0x20, 0x80, 0x2b, 0x30, 
	0x20, 0x90, 0x43, 0x7f, 0x00, 0x90, 0x2d, 0x7f, 
	0x00, 0x80, 0x45, 0x30, 0x40, 0x80, 0x2d, 0x30, 
	0x20, 0x90, 0x45, 0x7f, 0x00, 0x90, 0x2d, 0x7f, 
	0x20, 0x80, 0x43, 0x30, 0x20, 0x80, 0x2d, 0x30, 
	0x20, 0x90, 0x3c, 0x7f, 0x00, 0x90, 0x2d, 0x7f, 
	0x40, 0x80, 0x2d, 0x30, 0x20, 0x90, 0x2d, 0x7f, 
	0x00, 0x80, 0x45, 0x30, 0x20, 0x80, 0x3c, 0x30, 
	0x20, 0x80, 0x2d, 0x30, 0x20, 0x90, 0x40, 0x7f, 
	0x00, 0x90, 0x43, 0x7f, 0x00, 0x90, 0x2d, 0x7f, 
	0x40, 0x80, 0x2d, 0x30, 0x20, 0x90, 0x2d, 0x7f, 
	0x1f, 0x80, 0x40, 0x30, 0x00, 0x80, 0x43, 0x30, 
	0x21, 0x80, 0x2d, 0x30, 0x1f, 0x90, 0x3c, 0x7f, 
	0x00, 0x90, 0x40, 0x7f, 0x00, 0x90, 0x2b, 0x7f, 
	0x40, 0x80, 0x2b, 0x30, 0x21, 0x90, 0x2b, 0x7f, 
	0x1f, 0x80, 0x3c, 0x30, 0x00, 0x80, 0x40, 0x30, 
	0x21, 0x80, 0x2b, 0x30, 0x1f, 0x90, 0x37, 0x7f, 
	0x00, 0x90, 0x45, 0x7f, 0x00, 0x90, 0x2d, 0x7f, 
	0x40, 0x80, 0x2d, 0x30, 0x21, 0x90, 0x2d, 0x7f, 
	0x1f, 0x80, 0x37, 0x30, 0x21, 0x80, 0x2d, 0x30, 
	0x1f, 0x90, 0x37, 0x7f, 0x00, 0x90, 0x2d, 0x7f, 
	0x00, 0x80, 0x45, 0x30, 0x40, 0x80, 0x2d, 0x30, 
	0x21, 0x90, 0x45, 0x7f, 0x00, 0x90, 0x2d, 0x7f, 
	0x1f, 0x80, 0x37, 0x30, 0x21, 0x80, 0x2d, 0x30, 
	0x1f, 0x90, 0x3b, 0x7f, 0x00, 0x90, 0x2d, 0x7f, 
	0x40, 0x80, 0x2d, 0x30, 0x21, 0x90, 0x2d, 0x7f, 
	0x00, 0x80, 0x45, 0x30, 0x1f, 0x80, 0x3b, 0x30, 
	0x21, 0x80, 0x2d, 0x30, 0x1f, 0x90, 0x37, 0x7f, 
	0x00, 0x90, 0x45, 0x7f, 0x00, 0x90, 0x2b, 0x7f, 
	0x40, 0x80, 0x2b, 0x30, 0x21, 0x90, 0x2b, 0x7f, 
	0x1f, 0x80, 0x37, 0x30, 0x21, 0x80, 0x2b, 0x30, 
	0x1f, 0x90, 0x3c, 0x7f, 0x00, 0x90, 0x2d, 0x7f, 
	0x00, 0x80, 0x45, 0x30, 0x40, 0x80, 0x2d, 0x30, 
	0x21, 0x90, 0x45, 0x7f, 0x00, 0x90, 0x2d, 0x7f, 
	0x1f, 0x80, 0x3c, 0x30, 0x21, 0x80, 0x2d, 0x30, 
	0x1f, 0x90, 0x37, 0x7f, 0x00, 0x90, 0x2d, 0x7f, 
	0x40, 0x80, 0x2d, 0x30, 0x21, 0x90, 0x2d, 0x7f, 
	0x00, 0x80, 0x45, 0x30, 0x1f, 0x80, 0x37, 0x30, 
	0x21, 0x80, 0x2d, 0x30, 0x1f, 0x90, 0x3e, 0x7f, 
	0x00, 0x90, 0x43, 0x7f, 0x00, 0x90, 0x2d, 0x7f, 
	0x40, 0x80, 0x2d, 0x30, 0x21, 0x90, 0x2d, 0x7f, 
	0x1f, 0x80, 0x3e, 0x30, 0x00, 0x80, 0x43, 0x30, 
	0x21, 0x80, 0x2d, 0x30, 0x1f, 0x90, 0x3c, 0x7f, 
	0x00, 0x90, 0x48, 0x7f, 0x00, 0x90, 0x2b, 0x7f, 
	0x40, 0x80, 0x2b, 0x30, 0x21, 0x90, 0x2b, 0x7f, 
	0x1f, 0x80, 0x3c, 0x30, 0x00, 0x80, 0x48, 0x30, 
	0x21, 0x80, 0x2b, 0x30, 0x1f, 0x90, 0x35, 0x7f, 
	0x00, 0x90, 0x45, 0x7f, 0x00, 0x90, 0x2d, 0x7f, 
	0x40, 0x80, 0x2d, 0x30, 0x21, 0x90, 0x2d, 0x7f, 
	0x1f, 0x80, 0x35, 0x30, 0x21, 0x80, 0x2d, 0x30, 
	0x1f, 0x90, 0x35, 0x7f, 0x00, 0x90, 0x2d, 0x7f, 
	0x00, 0x80, 0x45, 0x30, 0x40, 0x80, 0x2d, 0x30, 
	0x21, 0x90, 0x45, 0x7f, 0x00, 0x90, 0x2d, 0x7f, 
	0x1f, 0x80, 0x35, 0x30, 0x21, 0x80, 0x2d, 0x30, 
	0x1f, 0x90, 0x39, 0x7f, 0x00, 0x90, 0x2d, 0x7f, 
	0x40, 0x80, 0x2d, 0x30, 0x21, 0x90, 0x2d, 0x7f, 
	0x00, 0x80, 0x45, 0x30, 0x1f, 0x80, 0x39, 0x30, 
	0x21, 0x80, 0x2d, 0x30, 0x1f, 0x90, 0x35, 0x7f, 
	0x00, 0x90, 0x45, 0x7f, 0x00, 0x90, 0x2b, 0x7f, 
	0x40, 0x80, 0x2b, 0x30, 0x21, 0x90, 0x2b, 0x7f, 
	0x1f, 0x80, 0x35, 0x30, 0x00, 0x80, 0x45, 0x30, 
	0x21, 0x80, 0x2b, 0x30, 0x1f, 0x90, 0x3c, 0x7f, 
	0x00, 0x90, 0x45, 0x7f, 0x00, 0x90, 0x30, 0x7f, 
	0x40, 0x80, 0x45, 0x30, 0x00, 0x80, 0x30, 0x30, 
	0x21, 0x90, 0x45, 0x7f, 0x00, 0x90, 0x30, 0x7f, 
	0x1f, 0x80, 0x3c, 0x30, 0x21, 0x80, 0x45, 0x30, 
	0x00, 0x80, 0x30, 0x30, 0x1f, 0x90, 0x35, 0x7f, 
	0x00, 0x90, 0x30, 0x7f, 0x40, 0x80, 0x30, 0x30, 
	0x21, 0x90, 0x45, 0x7f, 0x00, 0x90, 0x30, 0x7f, 
	0x1f, 0x80, 0x35, 0x30, 0x21, 0x80, 0x45, 0x30, 
	0x00, 0x80, 0x30, 0x30, 0x1f, 0x90, 0x3c, 0x7f, 
	0x00, 0x90, 0x45, 0x7f, 0x00, 0x90, 0x32, 0x7f, 
	0x40, 0x80, 0x45, 0x30, 0x00, 0x80, 0x32, 0x30, 
	0x21, 0x90, 0x32, 0x7f, 0x1f, 0x80, 0x3c, 0x30, 
	0x21, 0x80, 0x32, 0x30, 0x1f, 0x90, 0x3b, 0x7f, 
	0x00, 0x90, 0x32, 0x7f, 0x40, 0x80, 0x32, 0x30, 
	0x21, 0x90, 0x32, 0x7f, 0x1f, 0x80, 0x3b, 0x30, 
	0x21, 0x80, 0x32, 0x30, 0x1f, 0x90, 0x45, 0x7f, 
	0x00, 0x90, 0x2d, 0x64, 0x40, 0x80, 0x45, 0x30, 
	0x21, 0x90, 0x4c, 0x7f, 0x5f, 0x80, 0x2d, 0x30, 
	0x21, 0x80, 0x4c, 0x30, 0x40, 0x90, 0x45, 0x7f, 
	0x00, 0x90, 0x2d, 0x64, 0x40, 0x80, 0x45, 0x30, 
	0x1f, 0x90, 0x48, 0x7f, 0x61, 0x80, 0x2d, 0x30, 
	0x20, 0x80, 0x48, 0x30, 0x40, 0x90, 0x45, 0x7f, 
	0x00, 0x90, 0x2b, 0x64, 0x40, 0x80, 0x45, 0x30, 
	0x20, 0x90, 0x46, 0x7f, 0x20, 0x80, 0x2b, 0x30, 
	0x40, 0x90, 0x2d, 0x64, 0x20, 0x80, 0x46, 0x30, 
	0x20, 0x80, 0x2d, 0x30, 0x20, 0x90, 0x45, 0x7f, 
	0x00, 0x90, 0x2d, 0x64, 0x40, 0x80, 0x45, 0x30, 
	0x00, 0x80, 0x2d, 0x30, 0x20, 0x90, 0x48, 0x7f, 
	0x00, 0x90, 0x2d, 0x64, 0x40, 0x80, 0x2d, 0x30, 
	0x40, 0x80, 0x48, 0x30, 0x40, 0x90, 0x45, 0x7f, 
	0x00, 0x90, 0x2d, 0x64, 0x40, 0x80, 0x45, 0x30, 
	0x1f, 0x90, 0x46, 0x7f, 0x21, 0x80, 0x2d, 0x30, 
	0x1f, 0x80, 0x46, 0x30, 0x21, 0x90, 0x43, 0x7f, 
	0x00, 0x90, 0x2b, 0x64, 0x81, 0x00, 0x80, 0x43, 
	0x30, 0x00, 0x80, 0x2b, 0x30, 0x40, 0x90, 0x45, 
	0x7f, 0x00, 0x90, 0x2d, 0x64, 0x40, 0x80, 0x45, 
	0x30, 0x1f, 0x90, 0x4c, 0x7f, 0x61, 0x80, 0x2d, 
	0x30, 0x1f, 0x80, 0x4c, 0x30, 0x40, 0x90, 0x45, 
	0x7f, 0x00, 0x90, 0x2d, 0x64, 0x40, 0x80, 0x45, 
	0x30, 0x21, 0x90, 0x48, 0x7f, 0x5f, 0x80, 0x2d, 
	0x30, 0x21, 0x80, 0x48, 0x30, 0x40, 0x90, 0x45, 
	0x7f, 0x00, 0x90, 0x2b, 0x64, 0x40, 0x80, 0x45, 
	0x30, 0x1f, 0x90, 0x46, 0x7f, 0x21, 0x80, 0x2b, 
	0x30, 0x40, 0x90, 0x2d, 0x64, 0x1f, 0x80, 0x46, 
	0x30, 0x21, 0x80, 0x2d, 0x30, 0x1f, 0x90, 0x45, 
	0x7f, 0x00, 0x90, 0x2d, 0x64, 0x40, 0x80, 0x45, 
	0x30, 0x00, 0x80, 0x2d, 0x30, 0x21, 0x90, 0x48, 
	0x7f, 0x00, 0x90, 0x2d, 0x64, 0x40, 0x80, 0x2d, 
	0x30, 0x40, 0x80, 0x48, 0x30, 0x40, 0x90, 0x45, 
	0x7f, 0x00, 0x90, 0x2d, 0x64, 0x40, 0x80, 0x45, 
	0x30, 0x1f, 0x90, 0x46, 0x7f, 0x21, 0x80, 0x2d, 
	0x30, 0x1f, 0x80, 0x46, 0x30, 0x21, 0x90, 0x43, 
	0x7f, 0x00, 0x90, 0x2b, 0x64, 0x81, 0x00, 0x80, 
	0x43, 0x30, 0x00, 0x80, 0x2b, 0x30, 0x40, 0x90, 
	0x45, 0x7f, 0x00, 0x90, 0x2d, 0x64, 0x40, 0x80, 
	0x45, 0x30, 0x1f, 0x90, 0x4c, 0x7f, 0x61, 0x80, 
	0x2d, 0x30, 0x1f, 0x80, 0x4c, 0x30, 0x40, 0x90, 
	0x45, 0x7f, 0x00, 0x90, 0x2d, 0x64, 0x40, 0x80, 
	0x45, 0x30, 0x21, 0x90, 0x48, 0x7f, 0x5f, 0x80, 
	0x2d, 0x30, 0x21, 0x80, 0x48, 0x30, 0x40, 0x90, 
	0x45, 0x7f, 0x00, 0x90, 0x2b, 0x64, 0x40, 0x80, 
	0x45, 0x30, 0x1f, 0x90, 0x46, 0x7f, 0x21, 0x80, 
	0x2b, 0x30, 0x40, 0x90, 0x2d, 0x64, 0x1f, 0x80, 
	0x46, 0x30, 0x21, 0x80, 0x2d, 0x30, 0x1f, 0x90, 
	0x45, 0x7f, 0x00, 0x90, 0x2d, 0x64, 0x40, 0x80, 
	0x45, 0x30, 0x00, 0x80, 0x2d, 0x30, 0x21, 0x90, 
	0x48, 0x7f, 0x00, 0x90, 0x2d, 0x64, 0x40, 0x80, 
	0x2d, 0x30, 0x40, 0x80, 0x48, 0x30, 0x40, 0x90, 
	0x45, 0x7f, 0x00, 0x90, 0x2d, 0x64, 0x40, 0x80, 
	0x45, 0x30, 0x1f, 0x90, 0x46, 0x7f, 0x21, 0x80, 
	0x2d, 0x30, 0x1f, 0x80, 0x46, 0x30, 0x21, 0x90, 
	0x43, 0x7f, 0x00, 0x90, 0x2b, 0x64, 0x81, 0x00, 
	0x80, 0x43, 0x30, 0x00, 0x80, 0x2b, 0x30, 0x40, 
	0x90, 0x45, 0x7f, 0x00, 0x90, 0x2d, 0x64, 0x40, 
	0x80, 0x45, 0x30, 0x1f, 0x90, 0x4c, 0x7f, 0x61, 
	0x80, 0x2d, 0x30, 0x1f, 0x80, 0x4c, 0x30, 0x41, 
	0x90, 0x45, 0x7f, 0x00, 0x90, 0x2d, 0x64, 0x40, 
	0x80, 0x45, 0x30, 0x20, 0x90, 0x48, 0x7f, 0x60, 
	0x80, 0x2d, 0x30, 0x20, 0x80, 0x48, 0x30, 0x40, 
	0x90, 0x43, 0x7f, 0x00, 0x90, 0x2b, 0x64, 0x40, 
	0x80, 0x43, 0x30, 0x20, 0x90, 0x43, 0x7f, 0x20, 
	0x80, 0x2b, 0x30, 0x40, 0x90, 0x30, 0x64, 0x20, 
	0x80, 0x43, 0x30, 0x1f, 0x80, 0x30, 0x30, 0x21, 
	0x90, 0x43, 0x7f, 0x00, 0x90, 0x30, 0x64, 0x40, 
	0x80, 0x43, 0x30, 0x00, 0x80, 0x30, 0x30, 0x1f, 
	0x90, 0x45, 0x7f, 0x00, 0x90, 0x30, 0x64, 0x40, 
	0x80, 0x30, 0x30, 0x40, 0x80, 0x45, 0x30, 0x40, 
	0x90, 0x45, 0x7f, 0x00, 0x90, 0x32, 0x64, 0x81, 
	0x00, 0x80, 0x45, 0x30, 0x00, 0x80, 0x32, 0x30, 
	0x40, 0x90, 0x32, 0x64, 0x81, 0x00, 0x80, 0x32, 
	0x30, 0x40, 0x90, 0x45, 0x7f, 0x00, 0x90, 0x2d, 
	0x64, 0x40, 0x80, 0x45, 0x30, 0x21, 0x90, 0x4c, 
	0x7f, 0x5f, 0x80, 0x2d, 0x30, 0x21, 0x80, 0x4c, 
	0x30, 0x40, 0x90, 0x45, 0x7f, 0x00, 0x90, 0x2d, 
	0x64, 0x40, 0x80, 0x45, 0x30, 0x1f, 0x90, 0x48, 
	0x7f, 0x61, 0x80, 0x2d, 0x30, 0x1f, 0x80, 0x48, 
	0x30, 0x40, 0x90, 0x45, 0x7f, 0x00, 0x90, 0x2b, 
	0x64, 0x40, 0x80, 0x45, 0x30, 0x21, 0x90, 0x46, 
	0x7f, 0x1f, 0x80, 0x2b, 0x30, 0x40, 0x90, 0x2d, 
	0x64, 0x21, 0x80, 0x46, 0x30, 0x1f, 0x80, 0x2d, 
	0x30, 0x21, 0x90, 0x45, 0x7f, 0x00, 0x90, 0x2d, 
	0x64, 0x40, 0x80, 0x45, 0x30, 0x00, 0x80, 0x2d, 
	0x30, 0x1f, 0x90, 0x48, 0x7f, 0x00, 0x90, 0x2d, 
	0x64, 0x40, 0x80, 0x2d, 0x30, 0x40, 0x80, 0x48, 
	0x30, 0x40, 0x90, 0x45, 0x7f, 0x00, 0x90, 0x2d, 
	0x64, 0x40, 0x80, 0x45, 0x30, 0x21, 0x90, 0x46, 
	0x7f, 0x1f, 0x80, 0x2d, 0x30, 0x21, 0x80, 0x46, 
	0x30, 0x1f, 0x90, 0x43, 0x7f, 0x00, 0x90, 0x2b, 
	0x64, 0x81, 0x00, 0x80, 0x43, 0x30, 0x00, 0x80, 
	0x2b, 0x30, 0x40, 0x90, 0x45, 0x7f, 0x00, 0x90, 
	0x2d, 0x64, 0x40, 0x80, 0x45, 0x30, 0x21, 0x90, 
	0x4c, 0x7f, 0x5f, 0x80, 0x2d, 0x30, 0x21, 0x80, 
	0x4c, 0x30, 0x40, 0x90, 0x45, 0x7f, 0x00, 0x90, 
	0x2d, 0x64, 0x40, 0x80, 0x45, 0x30, 0x1f, 0x90, 
	0x48, 0x7f, 0x61, 0x80, 0x2d, 0x30, 0x1f, 0x80, 
	0x48, 0x30, 0x40, 0x90, 0x45, 0x7f, 0x00, 0x90, 
	0x2b, 0x64, 0x40, 0x80, 0x45, 0x30, 0x21, 0x90, 
	0x46, 0x7f, 0x1f, 0x80, 0x2b, 0x30, 0x40, 0x90, 
	0x2d, 0x64, 0x21, 0x80, 0x46, 0x30, 0x1f, 0x80, 
	0x2d, 0x30, 0x21, 0x90, 0x45, 0x7f, 0x00, 0x90, 
	0x2d, 0x64, 0x40, 0x80, 0x45, 0x30, 0x00, 0x80, 
	0x2d, 0x30, 0x1f, 0x90, 0x48, 0x7f, 0x00, 0x90, 
	0x2d, 0x64, 0x40, 0x80, 0x2d, 0x30, 0x40, 0x80, 
	0x48, 0x30, 0x40, 0x90, 0x45, 0x7f, 0x00, 0x90, 
	0x2d, 0x64, 0x40, 0x80, 0x45, 0x30, 0x21, 0x90, 
	0x46, 0x7f, 0x1f, 0x80, 0x2d, 0x30, 0x21, 0x80, 
	0x46, 0x30, 0x1f, 0x90, 0x43, 0x7f, 0x00, 0x90, 
	0x2b, 0x64, 0x81, 0x00, 0x80, 0x43, 0x30, 0x00, 
	0x80, 0x2b, 0x30, 0x40, 0x90, 0x45, 0x7f, 0x00, 
	0x90, 0x2d, 0x64, 0x41, 0x80, 0x45, 0x30, 0x20, 
	0x90, 0x4c, 0x7f, 0x60, 0x80, 0x2d, 0x30, 0x20, 
	0x80, 0x4c, 0x30, 0x40, 0x90, 0x45, 0x7f, 0x00, 
	0x90, 0x2d, 0x64, 0x40, 0x80, 0x45, 0x30, 0x20, 
	0x90, 0x48, 0x7f, 0x60, 0x80, 0x2d, 0x30, 0x20, 
	0x80, 0x48, 0x30, 0x40, 0x90, 0x45, 0x7f, 0x00, 
	0x90, 0x2b, 0x64, 0x40, 0x80, 0x45, 0x30, 0x1f, 
	0x90, 0x46, 0x7f, 0x21, 0x80, 0x2b, 0x30, 0x40, 
	0x90, 0x2d, 0x64, 0x1f, 0x80, 0x46, 0x30, 0x21, 
	0x80, 0x2d, 0x30, 0x1f, 0x90, 0x45, 0x7f, 0x00, 
	0x90, 0x2d, 0x64, 0x40, 0x80, 0x45, 0x30, 0x00, 
	0x80, 0x2d, 0x30, 0x21, 0x90, 0x48, 0x7f, 0x00, 
	0x90, 0x2d, 0x64, 0x40, 0x80, 0x2d, 0x30, 0x40, 
	0x80, 0x48, 0x30, 0x40, 0x90, 0x45, 0x7f, 0x00, 
	0x90, 0x2d, 0x64, 0x40, 0x80, 0x45, 0x30, 0x1f, 
	0x90, 0x46, 0x7f, 0x21, 0x80, 0x2d, 0x30, 0x1f, 
	0x80, 0x46, 0x30, 0x21, 0x90, 0x43, 0x7f, 0x00, 
	0x90, 0x2b, 0x64, 0x81, 0x00, 0x80, 0x43, 0x30, 
	0x00, 0x80, 0x2b, 0x30, 0x40, 0x90, 0x57, 0x5a, 
	0x00, 0x90, 0x51, 0x5a, 0x00, 0x90, 0x4b, 0x5a, 
	0x82, 0x33, 0x80, 0x57, 0x30, 0x00, 0x80, 0x51, 
	0x30, 0x00, 0x80, 0x4b, 0x30, 0x4d, 0x90, 0x57, 
	0x5a, 0x00, 0x90, 0x51, 0x5a, 0x00, 0x90, 0x4b, 
	0x5a, 0x82, 0x33, 0x80, 0x57, 0x30, 0x00, 0x80, 
	0x51, 0x30, 0x00, 0x80, 0x4b, 0x30, 0x4d, 0x90, 
	0x57, 0x5a, 0x00, 0x90, 0x4b, 0x5a, 0x00, 0x90, 
	0x51, 0x5a, 0x82, 0x33, 0x80, 0x57, 0x30, 0x00, 
	0x80, 0x4b, 0x30, 0x00, 0x80, 0x51, 0x30, 0x4d, 
	0x90, 0x4b, 0x5a, 0x00, 0x90, 0x51, 0x5a, 0x00, 
	0x90, 0x57, 0x5a, 0x82, 0x34, 0x80, 0x4b, 0x30, 
	0x00, 0x80, 0x51, 0x30, 0x00, 0x80, 0x57, 0x30, 
	0x4c, 0x90, 0x2d, 0x64, 0x00, 0x90, 0x2d, 0x64, 
	0x40, 0x80, 0x2d, 0x30, 0x1f, 0x90, 0x2d, 0x64, 
	0x40, 0x80, 0x2d, 0x30, 0x21, 0x90, 0x51, 0x4b, 
	0x00, 0x90, 0x2d, 0x64, 0x00, 0x80, 0x2d, 0x30, 
	0x40, 0x80, 0x2d, 0x30, 0x1f, 0x90, 0x2d, 0x64, 
	0x00, 0x90, 0x2d, 0x64, 0x40, 0x80, 0x2d, 0x30, 
	0x50, 0x80, 0x51, 0x30, 0x30, 0x90, 0x4f, 0x4b, 
	0x00, 0x80, 0x2d, 0x30, 0x61, 0x90, 0x2b, 0x64, 
	0x81, 0x00, 0x80, 0x2b, 0x30, 0x10, 0x80, 0x4f, 
	0x30, 0x30, 0x90, 0x4d, 0x4b, 0x00, 0x90, 0x2b, 
	0x64, 0x00, 0x90, 0x2d, 0x64, 0x40, 0x80, 0x2b, 
	0x30, 0x00, 0x80, 0x2d, 0x30, 0x1f, 0x90, 0x2b, 
	0x64, 0x00, 0x90, 0x2d, 0x64, 0x40, 0x80, 0x2b, 
	0x30, 0x00, 0x80, 0x2d, 0x30, 0x21, 0x90, 0x2b, 
	0x64, 0x00, 0x90, 0x2d, 0x64, 0x2f, 0x80, 0x4d, 
	0x30, 0x11, 0x80, 0x2b, 0x30, 0x00, 0x80, 0x2d, 
	0x30, 0x1f, 0x90, 0x4c, 0x4b, 0x00, 0x90, 0x2b, 
	0x64, 0x40, 0x80, 0x2b, 0x30, 0x21, 0x90, 0x2d, 
	0x64, 0x81, 0x00, 0x80, 0x2d, 0x30, 0x10, 0x80, 
	0x4c, 0x30, 0x30, 0x90, 0x4a, 0x4b, 0x00, 0x90, 
	0x2b, 0x64, 0x81, 0x00, 0x80, 0x2b, 0x30, 0x40, 
	0x90, 0x2d, 0x64, 0x00, 0x90, 0x2d, 0x64, 0x08, 
	0x80, 0x4a, 0x30, 0x38, 0x80, 0x2d, 0x30, 0x20, 
	0x90, 0x2d, 0x64, 0x40, 0x80, 0x2d, 0x30, 0x20, 
	0x90, 0x51, 0x4b, 0x00, 0x90, 0x2d, 0x64, 0x00, 
	0x80, 0x2d, 0x30, 0x40, 0x80, 0x2d, 0x30, 0x20, 
	0x90, 0x2d, 0x64, 0x00, 0x90, 0x2d, 0x64, 0x40, 
	0x80, 0x2d, 0x30, 0x4f, 0x80, 0x51, 0x30, 0x31, 
	0x90, 0x4f, 0x4b, 0x00, 0x80, 0x2d, 0x30, 0x5f, 
	0x90, 0x2b, 0x64, 0x81, 0x00, 0x80, 0x2b, 0x30, 
	0x11, 0x80, 0x4f, 0x30, 0x2f, 0x90, 0x4d, 0x4b, 
	0x00, 0x90, 0x2b, 0x64, 0x00, 0x90, 0x2d, 0x64, 
	0x40, 0x80, 0x2b, 0x30, 0x00, 0x80, 0x2d, 0x30, 
	0x21, 0x90, 0x2b, 0x64, 0x00, 0x90, 0x2d, 0x64, 
	0x40, 0x80, 0x2b, 0x30, 0x00, 0x80, 0x2d, 0x30, 
	0x1f, 0x90, 0x2b, 0x64, 0x00, 0x90, 0x2d, 0x64, 
	0x30, 0x80, 0x4d, 0x30, 0x10, 0x80, 0x2b, 0x30, 
	0x00, 0x80, 0x2d, 0x30, 0x21, 0x90, 0x4c, 0x4b, 
	0x00, 0x90, 0x2b, 0x64, 0x40, 0x80, 0x2b, 0x30, 
	0x1f, 0x90, 0x28, 0x64, 0x00, 0x90, 0x2d, 0x64, 
	0x81, 0x00, 0x80, 0x28, 0x30, 0x00, 0x80, 0x2d, 
	0x30, 0x11, 0x80, 0x4c, 0x30, 0x2f, 0x90, 0x4a, 
	0x4b, 0x00, 0x90, 0x2b, 0x64, 0x00, 0x90, 0x2b, 
	0x64, 0x81, 0x00, 0x80, 0x2b, 0x30, 0x00, 0x80, 
	0x2b, 0x30, 0x40, 0x90, 0x2d, 0x64, 0x00, 0x90, 
	0x2d, 0x64, 0x08, 0x80, 0x4a, 0x30, 0x38, 0x80, 
	0x2d, 0x30, 0x21, 0x90, 0x2d, 0x64, 0x40, 0x80, 
	0x2d, 0x30, 0x1f, 0x90, 0x51, 0x4b, 0x00, 0x90, 
	0x2d, 0x64, 0x00, 0x80, 0x2d, 0x30, 0x40, 0x80, 
	0x2d, 0x30, 0x21, 0x90, 0x2d, 0x64, 0x00, 0x90, 
	0x2d, 0x64, 0x40, 0x80, 0x2d, 0x30, 0x4f, 0x80, 
	0x51, 0x30, 0x31, 0x90, 0x4f, 0x4b, 0x00, 0x80, 
	0x2d, 0x30, 0x5f, 0x90, 0x2b, 0x64, 0x81, 0x00, 
	0x80, 0x2b, 0x30, 0x11, 0x80, 0x4f, 0x30, 0x2f, 
	0x90, 0x4d, 0x4b, 0x00, 0x90, 0x2b, 0x64, 0x00, 
	0x90, 0x2d, 0x64, 0x40, 0x80, 0x2b, 0x30, 0x00, 
	0x80, 0x2d, 0x30, 0x21, 0x90, 0x2b, 0x64, 0x00, 
	0x90, 0x2d, 0x64, 0x40, 0x80, 0x2b, 0x30, 0x00, 
	0x80, 0x2d, 0x30, 0x1f, 0x90, 0x2b, 0x64, 0x00, 
	0x90, 0x2d, 0x64, 0x31, 0x80, 0x4d, 0x30, 0x0f, 
	0x80, 0x2b, 0x30, 0x00, 0x80, 0x2d, 0x30, 0x21, 
	0x90, 0x4c, 0x4b, 0x00, 0x90, 0x2b, 0x64, 0x40, 
	0x80, 0x2b, 0x30, 0x1f, 0x90, 0x28, 0x64, 0x00, 
	0x90, 0x2d, 0x64, 0x81, 0x00, 0x80, 0x28, 0x30, 
	0x00, 0x80, 0x2d, 0x30, 0x10, 0x80, 0x4c, 0x30, 
	0x30, 0x90, 0x4a, 0x4b, 0x00, 0x90, 0x2b, 0x64, 
	0x00, 0x90, 0x2b, 0x64, 0x81, 0x00, 0x80, 0x2b, 
	0x30, 0x00, 0x80, 0x2b, 0x30, 0x40, 0x90, 0x2d, 
	0x64, 0x00, 0x90, 0x2d, 0x64, 0x08, 0x80, 0x4a, 
	0x30, 0x38, 0x80, 0x2d, 0x30, 0x21, 0x90, 0x2d, 
	0x64, 0x40, 0x80, 0x2d, 0x30, 0x1f, 0x90, 0x4c, 
	0x4b, 0x00, 0x90, 0x2d, 0x64, 0x00, 0x80, 0x2d, 
	0x30, 0x40, 0x80, 0x2d, 0x30, 0x21, 0x90, 0x2d, 
	0x64, 0x00, 0x90, 0x2d, 0x64, 0x40, 0x80, 0x2d, 
	0x30, 0x50, 0x80, 0x4c, 0x30, 0x30, 0x90, 0x4a, 
	0x4b, 0x00, 0x80, 0x2d, 0x30, 0x5f, 0x90, 0x2b, 
	0x64, 0x81, 0x00, 0x80, 0x2b, 0x30, 0x10, 0x80, 
	0x4a, 0x30, 0x30, 0x90, 0x48, 0x4b, 0x00, 0x90, 
	0x2b, 0x64, 0x00, 0x90, 0x2d, 0x64, 0x40, 0x80, 
	0x2b, 0x30, 0x00, 0x80, 0x2d, 0x30, 0x21, 0x90, 
	0x2b, 0x64, 0x00, 0x90, 0x2d, 0x64, 0x40, 0x80, 
	0x2b, 0x30, 0x00, 0x80, 0x2d, 0x30, 0x1f, 0x90, 
	0x2b, 0x64, 0x00, 0x90, 0x2d, 0x64, 0x31, 0x80, 
	0x48, 0x30, 0x0f, 0x80, 0x2b, 0x30, 0x00, 0x80, 
	0x2d, 0x30, 0x21, 0x90, 0x47, 0x4b, 0x00, 0x90, 
	0x2b, 0x64, 0x40, 0x80, 0x2b, 0x30, 0x20, 0x90, 
	0x28, 0x64, 0x00, 0x90, 0x2d, 0x64, 0x81, 0x00, 
	0x80, 0x28, 0x30, 0x00, 0x80, 0x2d, 0x30, 0x0f, 
	0x80, 0x47, 0x30, 0x31, 0x90, 0x45, 0x4b, 0x00, 
	0x90, 0x2b, 0x64, 0x00, 0x90, 0x2b, 0x64, 0x81, 
	0x00, 0x80, 0x2b, 0x30, 0x00, 0x80, 0x2b, 0x30, 
	0x40, 0x90, 0x2d, 0x64, 0x00, 0x90, 0x2d, 0x64, 
	0x07, 0x80, 0x45, 0x30, 0x39, 0x80, 0x2d, 0x30, 
	0x20, 0x90, 0x2d, 0x64, 0x3f, 0x80, 0x2d, 0x30, 
	0x21, 0x90, 0x51, 0x4b, 0x00, 0x90, 0x2d, 0x64, 
	0x00, 0x80, 0x2d, 0x30, 0x40, 0x80, 0x2d, 0x30, 
	0x1f, 0x90, 0x2d, 0x64, 0x00, 0x90, 0x2d, 0x64, 
	0x40, 0x80, 0x2d, 0x30, 0x51, 0x80, 0x51, 0x30, 
	0x2f, 0x90, 0x4f, 0x4b, 0x00, 0x80, 0x2d, 0x30, 
	0x61, 0x90, 0x2b, 0x64, 0x81, 0x00, 0x80, 0x2b, 
	0x30, 0x0f, 0x80, 0x4f, 0x30, 0x31, 0x90, 0x4d, 
	0x4b, 0x00, 0x90, 0x2b, 0x64, 0x00, 0x90, 0x2d, 
	0x64, 0x40, 0x80, 0x2b, 0x30, 0x00, 0x80, 0x2d, 
	0x30, 0x1f, 0x90, 0x2b, 0x64, 0x00, 0x90, 0x2d, 
	0x64, 0x40, 0x80, 0x2b, 0x30, 0x00, 0x80, 0x2d, 
	0x30, 0x21, 0x90, 0x2b, 0x64, 0x00, 0x90, 0x2d, 
	0x64, 0x30, 0x80, 0x4d, 0x30, 0x10, 0x80, 0x2b, 
	0x30, 0x00, 0x80, 0x2d, 0x30, 0x1f, 0x90, 0x4c, 
	0x4b, 0x00, 0x90, 0x2b, 0x64, 0x40, 0x80, 0x2b, 
	0x30, 0x21, 0x90, 0x28, 0x64, 0x00, 0x90, 0x2d, 
	0x64, 0x81, 0x00, 0x80, 0x28, 0x30, 0x00, 0x80, 
	0x2d, 0x30, 0x0f, 0x80, 0x4c, 0x30, 0x31, 0x90, 
	0x4a, 0x4b, 0x00, 0x90, 0x2b, 0x64, 0x00, 0x90, 
	0x2b, 0x64, 0x81, 0x00, 0x80, 0x2b, 0x30, 0x00, 
	0x80, 0x2b, 0x30, 0x40, 0x90, 0x2d, 0x64, 0x00, 
	0x90, 0x2d, 0x64, 0x08, 0x80, 0x4a, 0x30, 0x38, 
	0x80, 0x2d, 0x30, 0x1f, 0x90, 0x2d, 0x64, 0x40, 
	0x80, 0x2d, 0x30, 0x21, 0x90, 0x51, 0x4b, 0x00, 
	0x90, 0x2d, 0x64, 0x00, 0x80, 0x2d, 0x30, 0x40, 
	0x80, 0x2d, 0x30, 0x1f, 0x90, 0x2d, 0x64, 0x00, 
	0x90, 0x2d, 0x64, 0x40, 0x80, 0x2d, 0x30, 0x51, 
	0x80, 0x51, 0x30, 0x2f, 0x90, 0x4f, 0x4b, 0x00, 
	0x80, 0x2d, 0x30, 0x61, 0x90, 0x2b, 0x64, 0x81, 
	0x00, 0x80, 0x2b, 0x30, 0x10, 0x80, 0x4f, 0x30, 
	0x30, 0x90, 0x4d, 0x4b, 0x00, 0x90, 0x2b, 0x64, 
	0x00, 0x90, 0x2d, 0x64, 0x40, 0x80, 0x2b, 0x30, 
	0x00, 0x80, 0x2d, 0x30, 0x1f, 0x90, 0x2b, 0x64, 
	0x00, 0x90, 0x2d, 0x64, 0x40, 0x80, 0x2b, 0x30, 
	0x00, 0x80, 0x2d, 0x30, 0x21, 0x90, 0x2b, 0x64, 
	0x00, 0x90, 0x2d, 0x64, 0x2f, 0x80, 0x4d, 0x30, 
	0x11, 0x80, 0x2b, 0x30, 0x00, 0x80, 0x2d, 0x30, 
	0x1f, 0x90, 0x4c, 0x4b, 0x00, 0x90, 0x2b, 0x64, 
	0x40, 0x80, 0x2b, 0x30, 0x21, 0x90, 0x28, 0x64, 
	0x00, 0x90, 0x2d, 0x64, 0x81, 0x00, 0x80, 0x28, 
	0x30, 0x00, 0x80, 0x2d, 0x30, 0x10, 0x80, 0x4c, 
	0x30, 0x30, 0x90, 0x4a, 0x4b, 0x00, 0x90, 0x2b, 
	0x64, 0x00, 0x90, 0x2b, 0x64, 0x81, 0x00, 0x80, 
	0x2b, 0x30, 0x00, 0x80, 0x2b, 0x30, 0x40, 0x90, 
	0x2d, 0x64, 0x00, 0x90, 0x2d, 0x64, 0x08, 0x80, 
	0x4a, 0x30, 0x38, 0x80, 0x2d, 0x30, 0x1f, 0x90, 
	0x2d, 0x64, 0x40, 0x80, 0x2d, 0x30, 0x21, 0x90, 
	0x51, 0x4b, 0x00, 0x90, 0x2d, 0x64, 0x00, 0x80, 
	0x2d, 0x30, 0x40, 0x80, 0x2d, 0x30, 0x1f, 0x90, 
	0x2d, 0x64, 0x00, 0x90, 0x2d, 0x64, 0x40, 0x80, 
	0x2d, 0x30, 0x50, 0x80, 0x51, 0x30, 0x30, 0x90, 
	0x4f, 0x4b, 0x00, 0x80, 0x2d, 0x30, 0x61, 0x90, 
	0x2b, 0x64, 0x81, 0x00, 0x80, 0x2b, 0x30, 0x10, 
	0x80, 0x4f, 0x30, 0x30, 0x90, 0x4d, 0x4b, 0x00, 
	0x90, 0x2b, 0x64, 0x00, 0x90, 0x2d, 0x64, 0x40, 
	0x80, 0x2b, 0x30, 0x00, 0x80, 0x2d, 0x30, 0x1f, 
	0x90, 0x2b, 0x64, 0x00, 0x90, 0x2d, 0x64, 0x41, 
	0x80, 0x2b, 0x30, 0x00, 0x80, 0x2d, 0x30, 0x20, 
	0x90, 0x2b, 0x64, 0x00, 0x90, 0x2d, 0x64, 0x2f, 
	0x80, 0x4d, 0x30, 0x11, 0x80, 0x2b, 0x30, 0x00, 
	0x80, 0x2d, 0x30, 0x20, 0x90, 0x4c, 0x4b, 0x00, 
	0x90, 0x2b, 0x64, 0x40, 0x80, 0x2b, 0x30, 0x20, 
	0x90, 0x28, 0x64, 0x00, 0x90, 0x2d, 0x64, 0x81, 
	0x00, 0x80, 0x28, 0x30, 0x00, 0x80, 0x2d, 0x30, 
	0x10, 0x80, 0x4c, 0x30, 0x30, 0x90, 0x4a, 0x4b, 
	0x00, 0x90, 0x2b, 0x64, 0x00, 0x90, 0x2b, 0x64, 
	0x7f, 0x80, 0x2b, 0x30, 0x00, 0x80, 0x2b, 0x30, 
	0x40, 0x90, 0x2d, 0x64, 0x00, 0x90, 0x2d, 0x64, 
	0x09, 0x80, 0x4a, 0x30, 0x37, 0x80, 0x2d, 0x30, 
	0x21, 0x90, 0x2d, 0x64, 0x40, 0x80, 0x2d, 0x30, 
	0x1f, 0x90, 0x4c, 0x4b, 0x00, 0x90, 0x2d, 0x64, 
	0x00, 0x80, 0x2d, 0x30, 0x40, 0x80, 0x2d, 0x30, 
	0x21, 0x90, 0x2d, 0x64, 0x00, 0x90, 0x2d, 0x64, 
	0x40, 0x80, 0x2d, 0x30, 0x4f, 0x80, 0x4c, 0x30, 
	0x31, 0x90, 0x4a, 0x4b, 0x00, 0x80, 0x2d, 0x30, 
	0x5f, 0x90, 0x2b, 0x64, 0x81, 0x00, 0x80, 0x2b, 
	0x30, 0x11, 0x80, 0x4a, 0x30, 0x2f, 0x90, 0x48, 
	0x4b, 0x00, 0x90, 0x2b, 0x64, 0x00, 0x90, 0x2d, 
	0x64, 0x40, 0x80, 0x2b, 0x30, 0x00, 0x80, 0x2d, 
	0x30, 0x21, 0x90, 0x2b, 0x64, 0x00, 0x90, 0x2d, 
	0x64, 0x40, 0x80, 0x2b, 0x30, 0x00, 0x80, 0x2d, 
	0x30, 0x1f, 0x90, 0x2b, 0x64, 0x00, 0x90, 0x2d, 
	0x64, 0x30, 0x80, 0x48, 0x30, 0x10, 0x80, 0x2b, 
	0x30, 0x00, 0x80, 0x2d, 0x30, 0x21, 0x90, 0x47, 
	0x4b, 0x00, 0x90, 0x2b, 0x64, 0x40, 0x80, 0x2b, 
	0x30, 0x1f, 0x90, 0x28, 0x64, 0x00, 0x90, 0x2d, 
	0x64, 0x81, 0x00, 0x80, 0x28, 0x30, 0x00, 0x80, 
	0x2d, 0x30, 0x11, 0x80, 0x47, 0x30, 0x2f, 0x90, 
	0x45, 0x4b, 0x00, 0x90, 0x2b, 0x64, 0x00, 0x90, 
	0x2b, 0x64, 0x81, 0x00, 0x80, 0x2b, 0x30, 0x00, 
	0x80, 0x2b, 0x30, 0x40, 0x90, 0x39, 0x7f, 0x00, 
	0x90, 0x45, 0x7f, 0x00, 0x90, 0x2d, 0x7f, 0x08, 
	0x80, 0x45, 0x30, 0x38, 0x80, 0x2d, 0x30, 0x21, 
	0x90, 0x2d, 0x7f, 0x1f, 0x80, 0x39, 0x30, 0x21, 
	0x80, 0x2d, 0x30, 0x1f, 0x90, 0x39, 0x7f, 0x00, 
	0x90, 0x2d, 0x7f, 0x00, 0x80, 0x45, 0x30, 0x40, 
	0x80, 0x2d, 0x30, 0x21, 0x90, 0x45, 0x7f, 0x00, 
	0x90, 0x2d, 0x7f, 0x1f, 0x80, 0x39, 0x30, 0x21, 
	0x80, 0x2d, 0x30, 0x1f, 0x90, 0x3c, 0x7f, 0x00, 
	0x90, 0x2d, 0x7f, 0x40, 0x80, 0x2d, 0x30, 0x21, 
	0x90, 0x2d, 0x7f, 0x00, 0x80, 0x45, 0x30, 0x1f, 
	0x80, 0x3c, 0x30, 0x21, 0x80, 0x2d, 0x30, 0x1f, 
	0x90, 0x39, 0x7f, 0x00, 0x90, 0x45, 0x7f, 0x00, 
	0x90, 0x2b, 0x7f, 0x40, 0x80, 0x2b, 0x30, 0x21, 
	0x90, 0x2b, 0x7f, 0x1f, 0x80, 0x39, 0x30, 0x21, 
	0x80, 0x2b, 0x30, 0x1f, 0x90, 0x3e, 0x7f, 0x00, 
	0x90, 0x2d, 0x7f, 0x00, 0x80, 0x45, 0x30, 0x40, 
	0x80, 0x2d, 0x30, 0x21, 0x90, 0x45, 0x7f, 0x00, 
	0x90, 0x2d, 0x7f, 0x1f, 0x80, 0x3e, 0x30, 0x21, 
	0x80, 0x2d, 0x30, 0x1f, 0x90, 0x39, 0x7f, 0x00, 
	0x90, 0x2d, 0x7f, 0x40, 0x80, 0x2d, 0x30, 0x21, 
	0x90, 0x2d, 0x7f, 0x00, 0x80, 0x45, 0x30, 0x1f, 
	0x80, 0x39, 0x30, 0x21, 0x80, 0x2d, 0x30, 0x1f, 
	0x90, 0x40, 0x7f, 0x00, 0x90, 0x43, 0x7f, 0x00, 
	0x90, 0x2d, 0x7f, 0x40, 0x80, 0x2d, 0x30, 0x21, 
	0x90, 0x2d, 0x7f, 0x1f, 0x80, 0x40, 0x30, 0x00, 
	0x80, 0x43, 0x30, 0x21, 0x80, 0x2d, 0x30, 0x1f, 
	0x90, 0x3e, 0x7f, 0x00, 0x90, 0x48, 0x7f, 0x00, 
	0x90, 0x2b, 0x7f, 0x40, 0x80, 0x2b, 0x30, 0x21, 
	0x90, 0x2b, 0x7f, 0x1f, 0x80, 0x3e, 0x30, 0x00, 
	0x80, 0x48, 0x30, 0x21, 0x80, 0x2b, 0x30, 0x1f, 
	0x90, 0x3c, 0x7f, 0x00, 0x90, 0x45, 0x7f, 0x00, 
	0x90, 0x2d, 0x7f, 0x40, 0x80, 0x2d, 0x30, 0x21, 
	0x90, 0x2d, 0x7f, 0x1f, 0x80, 0x3c, 0x30, 0x21, 
	0x80, 0x2d, 0x30, 0x1f, 0x90, 0x3c, 0x7f, 0x00, 
	0x90, 0x2d, 0x7f, 0x00, 0x80, 0x45, 0x30, 0x40, 
	0x80, 0x2d, 0x30, 0x21, 0x90, 0x45, 0x7f, 0x00, 
	0x90, 0x2d, 0x7f, 0x1f, 0x80, 0x3c, 0x30, 0x21, 
	0x80, 0x2d, 0x30, 0x1f, 0x90, 0x40, 0x7f, 0x00, 
	0x90, 0x2d, 0x7f, 0x40, 0x80, 0x2d, 0x30, 0x21, 
	0x90, 0x2d, 0x7f, 0x00, 0x80, 0x45, 0x30, 0x1f, 
	0x80, 0x40, 0x30, 0x21, 0x80, 0x2d, 0x30, 0x1f, 
	0x90, 0x3c, 0x7f, 0x00, 0x90, 0x45, 0x7f, 0x00, 
	0x90, 0x2b, 0x7f, 0x40, 0x80, 0x2b, 0x30, 0x21, 
	0x90, 0x2b, 0x7f, 0x20, 0x80, 0x3c, 0x30, 0x20, 
	0x80, 0x2b, 0x30, 0x20, 0x90, 0x43, 0x7f, 0x00, 
	0x90, 0x2d, 0x7f, 0x00, 0x80, 0x45, 0x30, 0x40, 
	0x80, 0x2d, 0x30, 0x20, 0x90, 0x45, 0x7f, 0x00, 
	0x90, 0x2d, 0x7f, 0x20, 0x80, 0x43, 0x30, 0x20, 
	0x80, 0x2d, 0x30, 0x20, 0x90, 0x3c, 0x7f, 0x00, 
	0x90, 0x2d, 0x7f, 0x40, 0x80, 0x2d, 0x30, 0x20, 
	0x90, 0x2d, 0x7f, 0x00, 0x80, 0x45, 0x30, 0x20, 
	0x80, 0x3c, 0x30, 0x20, 0x80, 0x2d, 0x30, 0x20, 
	0x90, 0x40, 0x7f, 0x00, 0x90, 0x43, 0x7f, 0x00, 
	0x90, 0x2d, 0x7f, 0x40, 0x80, 0x2d, 0x30, 0x1f, 
	0x90, 0x2d, 0x7f, 0x21, 0x80, 0x40, 0x30, 0x00, 
	0x80, 0x43, 0x30, 0x1f, 0x80, 0x2d, 0x30, 0x21, 
	0x90, 0x3c, 0x7f, 0x00, 0x90, 0x40, 0x7f, 0x00, 
	0x90, 0x2b, 0x7f, 0x40, 0x80, 0x2b, 0x30, 0x1f, 
	0x90, 0x2b, 0x7f, 0x21, 0x80, 0x3c, 0x30, 0x00, 
	0x80, 0x40, 0x30, 0x1f, 0x80, 0x2b, 0x30, 0x21, 
	0x90, 0x37, 0x7f, 0x00, 0x90, 0x45, 0x7f, 0x00, 
	0x90, 0x2d, 0x7f, 0x40, 0x80, 0x2d, 0x30, 0x1f, 
	0x90, 0x2d, 0x7f, 0x21, 0x80, 0x37, 0x30, 0x1f, 
	0x80, 0x2d, 0x30, 0x21, 0x90, 0x37, 0x7f, 0x00, 
	0x90, 0x2d, 0x7f, 0x00, 0x80, 0x45, 0x30, 0x40, 
	0x80, 0x2d, 0x30, 0x1f, 0x90, 0x45, 0x7f, 0x00, 
	0x90, 0x2d, 0x7f, 0x21, 0x80, 0x37, 0x30, 0x1f, 
	0x80, 0x2d, 0x30, 0x21, 0x90, 0x3b, 0x7f, 0x00, 
	0x90, 0x2d, 0x7f, 0x40, 0x80, 0x2d, 0x30, 0x1f, 
	0x90, 0x2d, 0x7f, 0x00, 0x80, 0x45, 0x30, 0x21, 
	0x80, 0x3b, 0x30, 0x1f, 0x80, 0x2d, 0x30, 0x21, 
	0x90, 0x37, 0x7f, 0x00, 0x90, 0x45, 0x7f, 0x00, 
	0x90, 0x2b, 0x7f, 0x40, 0x80, 0x2b, 0x30, 0x1f, 
	0x90, 0x2b, 0x7f, 0x21, 0x80, 0x37, 0x30, 0x1f, 
	0x80, 0x2b, 0x30, 0x21, 0x90, 0x3c, 0x7f, 0x00, 
	0x90, 0x2d, 0x7f, 0x00, 0x80, 0x45, 0x30, 0x40, 
	0x80, 0x2d, 0x30, 0x1f, 0x90, 0x45, 0x7f, 0x00, 
	0x90, 0x2d, 0x7f, 0x21, 0x80, 0x3c, 0x30, 0x1f, 
	0x80, 0x2d, 0x30, 0x21, 0x90, 0x37, 0x7f, 0x00, 
	0x90, 0x2d, 0x7f, 0x40, 0x80, 0x2d, 0x30, 0x1f, 
	0x90, 0x2d, 0x7f, 0x00, 0x80, 0x45, 0x30, 0x21, 
	0x80, 0x37, 0x30, 0x1f, 0x80, 0x2d, 0x30, 0x21, 
	0x90, 0x3e, 0x7f, 0x00, 0x90, 0x43, 0x7f, 0x00, 
	0x90, 0x2d, 0x7f, 0x40, 0x80, 0x2d, 0x30, 0x1f, 
	0x90, 0x2d, 0x7f, 0x21, 0x80, 0x3e, 0x30, 0x00, 
	0x80, 0x43, 0x30, 0x1f, 0x80, 0x2d, 0x30, 0x21, 
	0x90, 0x3c, 0x7f, 0x00, 0x90, 0x48, 0x7f, 0x00, 
	0x90, 0x2b, 0x7f, 0x40, 0x80, 0x2b, 0x30, 0x1f, 
	0x90, 0x2b, 0x7f, 0x21, 0x80, 0x3c, 0x30, 0x00, 
	0x80, 0x48, 0x30, 0x1f, 0x80, 0x2b, 0x30, 0x21, 
	0x90, 0x35, 0x7f, 0x00, 0x90, 0x45, 0x7f, 0x00, 
	0x90, 0x2d, 0x7f, 0x40, 0x80, 0x2d, 0x30, 0x1f, 
	0x90, 0x2d, 0x7f, 0x21, 0x80, 0x35, 0x30, 0x1f, 
	0x80, 0x2d, 0x30, 0x21, 0x90, 0x35, 0x7f, 0x00, 
	0x90, 0x2d, 0x7f, 0x00, 0x80, 0x45, 0x30, 0x40, 
	0x80, 0x2d, 0x30, 0x1f, 0x90, 0x45, 0x7f, 0x00, 
	0x90, 0x2d, 0x7f, 0x21, 0x80, 0x35, 0x30, 0x1f, 
	0x80, 0x2d, 0x30, 0x21, 0x90, 0x39, 0x7f, 0x00, 
	0x90, 0x2d, 0x7f, 0x40, 0x80, 0x2d, 0x30, 0x1f, 
	0x90, 0x2d, 0x7f, 0x00, 0x80, 0x45, 0x30, 0x21, 
	0x80, 0x39, 0x30, 0x1f, 0x80, 0x2d, 0x30, 0x21, 
	0x90, 0x35, 0x7f, 0x00, 0x90, 0x45, 0x7f, 0x00, 
	0x90, 0x2b, 0x7f, 0x40, 0x80, 0x2b, 0x30, 0x1f, 
	0x90, 0x2b, 0x7f, 0x21, 0x80, 0x35, 0x30, 0x00, 
	0x80, 0x45, 0x30, 0x1f, 0x80, 0x2b, 0x30, 0x21, 
	0x90, 0x3c, 0x7f, 0x00, 0x90, 0x45, 0x7f, 0x00, 
	0x90, 0x30, 0x7f, 0x40, 0x80, 0x45, 0x30, 0x00, 
	0x80, 0x30, 0x30, 0x1f, 0x90, 0x45, 0x7f, 0x00, 
	0x90, 0x30, 0x7f, 0x21, 0x80, 0x3c, 0x30, 0x1f, 
	0x80, 0x45, 0x30, 0x00, 0x80, 0x30, 0x30, 0x21, 
	0x90, 0x35, 0x7f, 0x00, 0x90, 0x30, 0x7f, 0x40, 
	0x80, 0x30, 0x30, 0x1f, 0x90, 0x45, 0x7f, 0x00, 
	0x90, 0x30, 0x7f, 0x21, 0x80, 0x35, 0x30, 0x1f, 
	0x80, 0x45, 0x30, 0x00, 0x80, 0x30, 0x30, 0x21, 
	0x90, 0x3c, 0x7f, 0x00, 0x90, 0x45, 0x7f, 0x00, 
	0x90, 0x32, 0x7f, 0x40, 0x80, 0x45, 0x30, 0x00, 
	0x80, 0x32, 0x30, 0x1f, 0x90, 0x32, 0x7f, 0x21, 
	0x80, 0x3c, 0x30, 0x1f, 0x80, 0x32, 0x30, 0x21, 
	0x90, 0x3b, 0x7f, 0x00, 0x90, 0x32, 0x7f, 0x40, 
	0x80, 0x32, 0x30, 0x1f, 0x90, 0x32, 0x7f, 0x21, 
	0x80, 0x3b, 0x30, 0x1f, 0x80, 0x32, 0x30, 0x21, 
	0x90, 0x39, 0x7f, 0x00, 0x90, 0x45, 0x7f, 0x00, 
	0x90, 0x2d, 0x7f, 0x40, 0x80, 0x2d, 0x30, 0x1f, 
	0x90, 0x2d, 0x7f, 0x21, 0x80, 0x39, 0x30, 0x1f, 
	0x80, 0x2d, 0x30, 0x21, 0x90, 0x39, 0x7f, 0x00, 
	0x90, 0x2d, 0x7f, 0x00, 0x80, 0x45, 0x30, 0x40, 
	0x80, 0x2d, 0x30, 0x1f, 0x90, 0x45, 0x7f, 0x00, 
	0x90, 0x2d, 0x7f, 0x21, 0x80, 0x39, 0x30, 0x1f, 
	0x80, 0x2d, 0x30, 0x21, 0x90, 0x3c, 0x7f, 0x00, 
	0x90, 0x2d, 0x7f, 0x40, 0x80, 0x2d, 0x30, 0x20, 
	0x90, 0x2d, 0x7f, 0x00, 0x80, 0x45, 0x30, 0x20, 
	0x80, 0x3c, 0x30, 0x20, 0x80, 0x2d, 0x30, 0x20, 
	0x90, 0x39, 0x7f, 0x00, 0x90, 0x45, 0x7f, 0x00, 
	0x90, 0x2b, 0x7f, 0x40, 0x80, 0x2b, 0x30, 0x20, 
	0x90, 0x2b, 0x7f, 0x20, 0x80, 0x39, 0x30, 0x20, 
	0x80, 0x2b, 0x30, 0x20, 0x90, 0x3e, 0x7f, 0x00, 
	0x90, 0x2d, 0x7f, 0x00, 0x80, 0x45, 0x30, 0x40, 
	0x80, 0x2d, 0x30, 0x20, 0x90, 0x45, 0x7f, 0x00, 
	0x90, 0x2d, 0x7f, 0x20, 0x80, 0x3e, 0x30, 0x20, 
	0x80, 0x2d, 0x30, 0x20, 0x90, 0x39, 0x7f, 0x00, 
	0x90, 0x2d, 0x7f, 0x3f, 0x80, 0x2d, 0x30, 0x21, 
	0x90, 0x2d, 0x7f, 0x00, 0x80, 0x45, 0x30, 0x1f, 
	0x80, 0x39, 0x30, 0x21, 0x80, 0x2d, 0x30, 0x1f, 
	0x90, 0x40, 0x7f, 0x00, 0x90, 0x43, 0x7f, 0x00, 
	0x90, 0x2d, 0x7f, 0x40, 0x80, 0x2d, 0x30, 0x21, 
	0x90, 0x2d, 0x7f, 0x1f, 0x80, 0x40, 0x30, 0x00, 
	0x80, 0x43, 0x30, 0x21, 0x80, 0x2d, 0x30, 0x1f, 
	0x90, 0x3e, 0x7f, 0x00, 0x90, 0x48, 0x7f, 0x00, 
	0x90, 0x2b, 0x7f, 0x40, 0x80, 0x2b, 0x30, 0x21, 
	0x90, 0x2b, 0x7f, 0x1f, 0x80, 0x3e, 0x30, 0x00, 
	0x80, 0x48, 0x30, 0x21, 0x80, 0x2b, 0x30, 0x1f, 
	0x90, 0x3c, 0x7f, 0x00, 0x90, 0x45, 0x7f, 0x00, 
	0x90, 0x2d, 0x7f, 0x40, 0x80, 0x2d, 0x30, 0x21, 
	0x90, 0x2d, 0x7f, 0x1f, 0x80, 0x3c, 0x30, 0x21, 
	0x80, 0x2d, 0x30, 0x1f, 0x90, 0x3c, 0x7f, 0x00, 
	0x90, 0x2d, 0x7f, 0x00, 0x80, 0x45, 0x30, 0x40, 
	0x80, 0x2d, 0x30, 0x21, 0x90, 0x45, 0x7f, 0x00, 
	0x90, 0x2d, 0x7f, 0x1f, 0x80, 0x3c, 0x30, 0x21, 
	0x80, 0x2d, 0x30, 0x1f, 0x90, 0x40, 0x7f, 0x00, 
	0x90, 0x2d, 0x7f, 0x40, 0x80, 0x2d, 0x30, 0x21, 
	0x90, 0x2d, 0x7f, 0x00, 0x80, 0x45, 0x30, 0x1f, 
	0x80, 0x40, 0x30, 0x21, 0x80, 0x2d, 0x30, 0x1f, 
	0x90, 0x3c, 0x7f, 0x00, 0x90, 0x45, 0x7f, 0x00, 
	0x90, 0x2b, 0x7f, 0x40, 0x80, 0x2b, 0x30, 0x21, 
	0x90, 0x2b, 0x7f, 0x1f, 0x80, 0x3c, 0x30, 0x21, 
	0x80, 0x2b, 0x30, 0x1f, 0x90, 0x43, 0x7f, 0x00, 
	0x90, 0x2d, 0x7f, 0x00, 0x80, 0x45, 0x30, 0x40, 
	0x80, 0x2d, 0x30, 0x21, 0x90, 0x45, 0x7f, 0x00, 
	0x90, 0x2d, 0x7f, 0x1f, 0x80, 0x43, 0x30, 0x21, 
	0x80, 0x2d, 0x30, 0x1f, 0x90, 0x3c, 0x7f, 0x00, 
	0x90, 0x2d, 0x7f, 0x40, 0x80, 0x2d, 0x30, 0x21, 
	0x90, 0x2d, 0x7f, 0x00, 0x80, 0x45, 0x30, 0x1f, 
	0x80, 0x3c, 0x30, 0x21, 0x80, 0x2d, 0x30, 0x1f, 
	0x90, 0x40, 0x7f, 0x00, 0x90, 0x43, 0x7f, 0x00, 
	0x90, 0x2d, 0x7f, 0x40, 0x80, 0x2d, 0x30, 0x21, 
	0x90, 0x2d, 0x7f, 0x1f, 0x80, 0x40, 0x30, 0x00, 
	0x80, 0x43, 0x30, 0x21, 0x80, 0x2d, 0x30, 0x1f, 
	0x90, 0x3c, 0x7f, 0x00, 0x90, 0x40, 0x7f, 0x00, 
	0x90, 0x2b, 0x7f, 0x40, 0x80, 0x2b, 0x30, 0x21, 
	0x90, 0x2b, 0x7f, 0x1f, 0x80, 0x3c, 0x30, 0x00, 
	0x80, 0x40, 0x30, 0x21, 0x80, 0x2b, 0x30, 0x1f, 
	0x90, 0x37, 0x7f, 0x00, 0x90, 0x45, 0x7f, 0x00, 
	0x90, 0x2d, 0x7f, 0x40, 0x80, 0x2d, 0x30, 0x21, 
	0x90, 0x2d, 0x7f, 0x1f, 0x80, 0x37, 0x30, 0x21, 
	0x80, 0x2d, 0x30, 0x1f, 0x90, 0x37, 0x7f, 0x00, 
	0x90, 0x2d, 0x7f, 0x00, 0x80, 0x45, 0x30, 0x40, 
	0x80, 0x2d, 0x30, 0x21, 0x90, 0x45, 0x7f, 0x00, 
	0x90, 0x2d, 0x7f, 0x1f, 0x80, 0x37, 0x30, 0x21, 
	0x80, 0x2d, 0x30, 0x1f, 0x90, 0x3b, 0x7f, 0x00, 
	0x90, 0x2d, 0x7f, 0x40, 0x80, 0x2d, 0x30, 0x21, 
	0x90, 0x2d, 0x7f, 0x00, 0x80, 0x45, 0x30, 0x1f, 
	0x80, 0x3b, 0x30, 0x21, 0x80, 0x2d, 0x30, 0x1f, 
	0x90, 0x37, 0x7f, 0x00, 0x90, 0x45, 0x7f, 0x00, 
	0x90, 0x2b, 0x7f, 0x40, 0x80, 0x2b, 0x30, 0x21, 
	0x90, 0x2b, 0x7f, 0x1f, 0x80, 0x37, 0x30, 0x21, 
	0x80, 0x2b, 0x30, 0x1f, 0x90, 0x3c, 0x7f, 0x00, 
	0x90, 0x2d, 0x7f, 0x00, 0x80, 0x45, 0x30, 0x40, 
	0x80, 0x2d, 0x30, 0x21, 0x90, 0x45, 0x7f, 0x00, 
	0x90, 0x2d, 0x7f, 0x1f, 0x80, 0x3c, 0x30, 0x21, 
	0x80, 0x2d, 0x30, 0x1f, 0x90, 0x37, 0x7f, 0x00, 
	0x90, 0x2d, 0x7f, 0x40, 0x80, 0x2d, 0x30, 0x21, 
	0x90, 0x2d, 0x7f, 0x00, 0x80, 0x45, 0x30, 0x1f, 
	0x80, 0x37, 0x30, 0x21, 0x80, 0x2d, 0x30, 0x1f, 
	0x90, 0x3e, 0x7f, 0x00, 0x90, 0x43, 0x7f, 0x00, 
	0x90, 0x2d, 0x7f, 0x40, 0x80, 0x2d, 0x30, 0x21, 
	0x90, 0x2d, 0x7f, 0x1f, 0x80, 0x3e, 0x30, 0x00, 
	0x80, 0x43, 0x30, 0x21, 0x80, 0x2d, 0x30, 0x1f, 
	0x90, 0x3c, 0x7f, 0x00, 0x90, 0x48, 0x7f, 0x00, 
	0x90, 0x2b, 0x7f, 0x40, 0x80, 0x2b, 0x30, 0x21, 
	0x90, 0x2b, 0x7f, 0x1f, 0x80, 0x3c, 0x30, 0x00, 
	0x80, 0x48, 0x30, 0x21, 0x80, 0x2b, 0x30, 0x1f, 
	0x90, 0x35, 0x7f, 0x00, 0x90, 0x45, 0x7f, 0x00, 
	0x90, 0x2d, 0x7f, 0x40, 0x80, 0x2d, 0x30, 0x21, 
	0x90, 0x2d, 0x7f, 0x1f, 0x80, 0x35, 0x30, 0x21, 
	0x80, 0x2d, 0x30, 0x1f, 0x90, 0x35, 0x7f, 0x00, 
	0x90, 0x2d, 0x7f, 0x00, 0x80, 0x45, 0x30, 0x41, 
	0x80, 0x2d, 0x30, 0x20, 0x90, 0x45, 0x7f, 0x00, 
	0x90, 0x2d, 0x7f, 0x20, 0x80, 0x35, 0x30, 0x20, 
	0x80, 0x2d, 0x30, 0x20, 0x90, 0x39, 0x7f, 0x00, 
	0x90, 0x2d, 0x7f, 0x40, 0x80, 0x2d, 0x30, 0x20, 
	0x90, 0x2d, 0x7f, 0x00, 0x80, 0x45, 0x30, 0x20, 
	0x80, 0x39, 0x30, 0x20, 0x80, 0x2d, 0x30, 0x20, 
	0x90, 0x35, 0x7f, 0x00, 0x90, 0x45, 0x7f, 0x00, 
	0x90, 0x2b, 0x7f, 0x40, 0x80, 0x2b, 0x30, 0x20, 
	0x90, 0x2b, 0x7f, 0x20, 0x80, 0x35, 0x30, 0x00, 
	0x80, 0x45, 0x30, 0x20, 0x80, 0x2b, 0x30, 0x20, 
	0x90, 0x3c, 0x7f, 0x00, 0x90, 0x45, 0x7f, 0x00, 
	0x90, 0x30, 0x7f, 0x40, 0x80, 0x45, 0x30, 0x00, 
	0x80, 0x30, 0x30, 0x1f, 0x90, 0x45, 0x7f, 0x00, 
	0x90, 0x30, 0x7f, 0x21, 0x80, 0x3c, 0x30, 0x1f, 
	0x80, 0x45, 0x30, 0x00, 0x80, 0x30, 0x30, 0x21, 
	0x90, 0x35, 0x7f, 0x00, 0x90, 0x30, 0x7f, 0x40, 
	0x80, 0x30, 0x30, 0x1f, 0x90, 0x45, 0x7f, 0x00, 
	0x90, 0x30, 0x7f, 0x21, 0x80, 0x35, 0x30, 0x1f, 
	0x80, 0x45, 0x30, 0x00, 0x80, 0x30, 0x30, 0x21, 
	0x90, 0x3c, 0x7f, 0x00, 0x90, 0x45, 0x7f, 0x00, 
	0x90, 0x32, 0x7f, 0x40, 0x80, 0x45, 0x30, 0x00, 
	0x80, 0x32, 0x30, 0x1f, 0x90, 0x32, 0x7f, 0x21, 
	0x80, 0x3c, 0x30, 0x1f, 0x80, 0x32, 0x30, 0x21, 
	0x90, 0x3b, 0x7f, 0x00, 0x90, 0x32, 0x7f, 0x40, 
	0x80, 0x32, 0x30, 0x1f, 0x90, 0x32, 0x7f, 0x21, 
	0x80, 0x3b, 0x30, 0x1f, 0x80, 0x32, 0x30, 0x21, 
	0x90, 0x45, 0x7f, 0x00, 0x90, 0x2d, 0x64, 0x40, 
	0x80, 0x45, 0x30, 0x1f, 0x90, 0x4c, 0x7f, 0x61, 
	0x80, 0x2d, 0x30, 0x1f, 0x80, 0x4c, 0x30, 0x40, 
	0x90, 0x45, 0x7f, 0x00, 0x90, 0x2d, 0x64, 0x40, 
	0x80, 0x45, 0x30, 0x21, 0x90, 0x48, 0x7f, 0x5f, 
	0x80, 0x2d, 0x30, 0x21, 0x80, 0x48, 0x30, 0x40, 
	0x90, 0x45, 0x7f, 0x00, 0x90, 0x2b, 0x64, 0x40, 
	0x80, 0x45, 0x30, 0x1f, 0x90, 0x46, 0x7f, 0x21, 
	0x80, 0x2b, 0x30, 0x40, 0x90, 0x2d, 0x64, 0x1f, 
	0x80, 0x46, 0x30, 0x21, 0x80, 0x2d, 0x30, 0x1f, 
	0x90, 0x45, 0x7f, 0x00, 0x90, 0x2d, 0x64, 0x40, 
	0x80, 0x45, 0x30, 0x00, 0x80, 0x2d, 0x30, 0x21, 
	0x90, 0x48, 0x7f, 0x00, 0x90, 0x2d, 0x64, 0x40, 
	0x80, 0x2d, 0x30, 0x40, 0x80, 0x48, 0x30, 0x40, 
	0x90, 0x45, 0x7f, 0x00, 0x90, 0x2d, 0x64, 0x40, 
	0x80, 0x45, 0x30, 0x1f, 0x90, 0x46, 0x7f, 0x21, 
	0x80, 0x2d, 0x30, 0x1f, 0x80, 0x46, 0x30, 0x21, 
	0x90, 0x43, 0x7f, 0x00, 0x90, 0x2b, 0x64, 0x81, 
	0x00, 0x80, 0x43, 0x30, 0x00, 0x80, 0x2b, 0x30, 
	0x40, 0x90, 0x45, 0x7f, 0x00, 0x90, 0x2d, 0x64, 
	0x40, 0x80, 0x45, 0x30, 0x1f, 0x90, 0x4c, 0x7f, 
	0x61, 0x80, 0x2d, 0x30, 0x1f, 0x80, 0x4c, 0x30, 
	0x40, 0x90, 0x45, 0x7f, 0x00, 0x90, 0x2d, 0x64, 
	0x40, 0x80, 0x45, 0x30, 0x21, 0x90, 0x48, 0x7f, 
	0x5f, 0x80, 0x2d, 0x30, 0x21, 0x80, 0x48, 0x30, 
	0x40, 0x90, 0x45, 0x7f, 0x00, 0x90, 0x2b, 0x64, 
	0x40, 0x80, 0x45, 0x30, 0x1f, 0x90, 0x46, 0x7f, 
	0x21, 0x80, 0x2b, 0x30, 0x40, 0x90, 0x2d, 0x64, 
	0x1f, 0x80, 0x46, 0x30, 0x21, 0x80, 0x2d, 0x30, 
	0x1f, 0x90, 0x45, 0x7f, 0x00, 0x90, 0x2d, 0x64, 
	0x40, 0x80, 0x45, 0x30, 0x00, 0x80, 0x2d, 0x30, 
	0x21, 0x90, 0x48, 0x7f, 0x00, 0x90, 0x2d, 0x64, 
	0x40, 0x80, 0x2d, 0x30, 0x40, 0x80, 0x48, 0x30, 
	0x40, 0x90, 0x45, 0x7f, 0x00, 0x90, 0x2d, 0x64, 
	0x40, 0x80, 0x45, 0x30, 0x1f, 0x90, 0x46, 0x7f, 
	0x21, 0x80, 0x2d, 0x30, 0x1f, 0x80, 0x46, 0x30, 
	0x21, 0x90, 0x43, 0x7f, 0x00, 0x90, 0x2b, 0x64, 
	0x81, 0x00, 0x80, 0x43, 0x30, 0x00, 0x80, 0x2b, 
	0x30, 0x40, 0x90, 0x45, 0x7f, 0x00, 0x90, 0x2d, 
	0x64, 0x40, 0x80, 0x45, 0x30, 0x20, 0x90, 0x4c, 
	0x7f, 0x60, 0x80, 0x2d, 0x30, 0x20, 0x80, 0x4c, 
	0x30, 0x40, 0x90, 0x45, 0x7f, 0x00, 0x90, 0x2d, 
	0x64, 0x40, 0x80, 0x45, 0x30, 0x20, 0x90, 0x48, 
	0x7f, 0x60, 0x80, 0x2d, 0x30, 0x20, 0x80, 0x48, 
	0x30, 0x3f, 0x90, 0x45, 0x7f, 0x00, 0x90, 0x2b, 
	0x64, 0x40, 0x80, 0x45, 0x30, 0x21, 0x90, 0x46, 
	0x7f, 0x1f, 0x80, 0x2b, 0x30, 0x40, 0x90, 0x2d, 
	0x64, 0x21, 0x80, 0x46, 0x30, 0x1f, 0x80, 0x2d, 
	0x30, 0x21, 0x90, 0x45, 0x7f, 0x00, 0x90, 0x2d, 
	0x64, 0x40, 0x80, 0x45, 0x30, 0x00, 0x80, 0x2d, 
	0x30, 0x1f, 0x90, 0x48, 0x7f, 0x00, 0x90, 0x2d, 
	0x64, 0x40, 0x80, 0x2d, 0x30, 0x40, 0x80, 0x48, 
	0x30, 0x40, 0x90, 0x45, 0x7f, 0x00, 0x90, 0x2d, 
	0x64, 0x40, 0x80, 0x45, 0x30, 0x21, 0x90, 0x46, 
	0x7f, 0x1f, 0x80, 0x2d, 0x30, 0x21, 0x80, 0x46, 
	0x30, 0x1f, 0x90, 0x43, 0x7f, 0x00, 0x90, 0x2b, 
	0x64, 0x81, 0x00, 0x80, 0x43, 0x30, 0x00, 0x80, 
	0x2b, 0x30, 0x40, 0x90, 0x45, 0x7f, 0x00, 0x90, 
	0x2d, 0x64, 0x40, 0x80, 0x45, 0x30, 0x21, 0x90, 
	0x4c, 0x7f, 0x5f, 0x80, 0x2d, 0x30, 0x21, 0x80, 
	0x4c, 0x30, 0x40, 0x90, 0x45, 0x7f, 0x00, 0x90, 
	0x2d, 0x64, 0x40, 0x80, 0x45, 0x30, 0x1f, 0x90, 
	0x48, 0x7f, 0x61, 0x80, 0x2d, 0x30, 0x1f, 0x80, 
	0x48, 0x30, 0x40, 0x90, 0x43, 0x7f, 0x00, 0x90, 
	0x2b, 0x64, 0x40, 0x80, 0x43, 0x30, 0x21, 0x90, 
	0x43, 0x7f, 0x1f, 0x80, 0x2b, 0x30, 0x40, 0x90, 
	0x30, 0x64, 0x21, 0x80, 0x43, 0x30, 0x1f, 0x80, 
	0x30, 0x30, 0x21, 0x90, 0x43, 0x7f, 0x00, 0x90, 
	0x30, 0x64, 0x40, 0x80, 0x43, 0x30, 0x00, 0x80, 
	0x30, 0x30, 0x1f, 0x90, 0x45, 0x7f, 0x00, 0x90, 
	0x30, 0x64, 0x40, 0x80, 0x30, 0x30, 0x40, 0x80, 
	0x45, 0x30, 0x40, 0x90, 0x45, 0x7f, 0x00, 0x90, 
	0x32, 0x64, 0x81, 0x00, 0x80, 0x45, 0x30, 0x00, 
	0x80, 0x32, 0x30, 0x40, 0x90, 0x32, 0x64, 0x81, 
	0x00, 0x80, 0x32, 0x30, 0x40, 0x90, 0x45, 0x7f, 
	0x00, 0x90, 0x2d, 0x64, 0x40, 0x80, 0x45, 0x30, 
	0x21, 0x90, 0x4c, 0x7f, 0x5f, 0x80, 0x2d, 0x30, 
	0x21, 0x80, 0x4c, 0x30, 0x40, 0x90, 0x45, 0x7f, 
	0x00, 0x90, 0x2d, 0x64, 0x40, 0x80, 0x45, 0x30, 
	0x1f, 0x90, 0x48, 0x7f, 0x61, 0x80, 0x2d, 0x30, 
	0x1f, 0x80, 0x48, 0x30, 0x40, 0x90, 0x45, 0x7f, 
	0x00, 0x90, 0x2b, 0x64, 0x40, 0x80, 0x45, 0x30, 
	0x21, 0x90, 0x46, 0x7f, 0x1f, 0x80, 0x2b, 0x30, 
	0x40, 0x90, 0x2d, 0x64, 0x21, 0x80, 0x46, 0x30, 
	0x1f, 0x80, 0x2d, 0x30, 0x21, 0x90, 0x45, 0x7f, 
	0x00, 0x90, 0x2d, 0x64, 0x40, 0x80, 0x45, 0x30, 
	0x00, 0x80, 0x2d, 0x30, 0x1f, 0x90, 0x48, 0x7f, 
	0x00, 0x90, 0x2d, 0x64, 0x40, 0x80, 0x2d, 0x30, 
	0x40, 0x80, 0x48, 0x30, 0x40, 0x90, 0x45, 0x7f, 
	0x00, 0x90, 0x2d, 0x64, 0x40, 0x80, 0x45, 0x30, 
	0x21, 0x90, 0x46, 0x7f, 0x1f, 0x80, 0x2d, 0x30, 
	0x21, 0x80, 0x46, 0x30, 0x20, 0x90, 0x43, 0x7f, 
	0x00, 0x90, 0x2b, 0x64, 0x81, 0x00, 0x80, 0x43, 
	0x30, 0x00, 0x80, 0x2b, 0x30, 0x40, 0x90, 0x45, 
	0x7f, 0x00, 0x90, 0x2d, 0x64, 0x40, 0x80, 0x45, 
	0x30, 0x20, 0x90, 0x4c, 0x7f, 0x60, 0x80, 0x2d, 
	0x30, 0x20, 0x80, 0x4c, 0x30, 0x40, 0x90, 0x45, 
	0x7f, 0x00, 0x90, 0x2d, 0x64, 0x3f, 0x80, 0x45, 
	0x30, 0x21, 0x90, 0x48, 0x7f, 0x5f, 0x80, 0x2d, 
	0x30, 0x21, 0x80, 0x48, 0x30, 0x40, 0x90, 0x45, 
	0x7f, 0x00, 0x90, 0x2b, 0x64, 0x40, 0x80, 0x45, 
	0x30, 0x1f, 0x90, 0x46, 0x7f, 0x21, 0x80, 0x2b, 
	0x30, 0x40, 0x90, 0x2d, 0x64, 0x1f, 0x80, 0x46, 
	0x30, 0x21, 0x80, 0x2d, 0x30, 0x1f, 0x90, 0x45, 
	0x7f, 0x00, 0x90, 0x2d, 0x64, 0x40, 0x80, 0x45, 
	0x30, 0x00, 0x80, 0x2d, 0x30, 0x21, 0x90, 0x48, 
	0x7f, 0x00, 0x90, 0x2d, 0x64, 0x40, 0x80, 0x2d, 
	0x30, 0x40, 0x80, 0x48, 0x30, 0x40, 0x90, 0x45, 
	0x7f, 0x00, 0x90, 0x2d, 0x64, 0x40, 0x80, 0x45, 
	0x30, 0x1f, 0x90, 0x46, 0x7f, 0x21, 0x80, 0x2d, 
	0x30, 0x1f, 0x80, 0x46, 0x30, 0x21, 0x90, 0x43, 
	0x7f, 0x00, 0x90, 0x2b, 0x64, 0x81, 0x00, 0x80, 
	0x43, 0x30, 0x00, 0x80, 0x2b, 0x30, 0x40, 0x90, 
	0x45, 0x7f, 0x00, 0x90, 0x2d, 0x64, 0x40, 0x80, 
	0x45, 0x30, 0x1f, 0x90, 0x4c, 0x7f, 0x61, 0x80, 
	0x2d, 0x30, 0x1f, 0x80, 0x4c, 0x30, 0x40, 0x90, 
	0x45, 0x7f, 0x00, 0x90, 0x2d, 0x64, 0x40, 0x80, 
	0x45, 0x30, 0x21, 0x90, 0x48, 0x7f, 0x5f, 0x80, 
	0x2d, 0x30, 0x21, 0x80, 0x48, 0x30, 0x40, 0x90, 
	0x45, 0x7f, 0x00, 0x90, 0x2b, 0x64, 0x40, 0x80, 
	0x45, 0x30, 0x1f, 0x90, 0x46, 0x7f, 0x21, 0x80, 
	0x2b, 0x30, 0x40, 0x90, 0x2d, 0x64, 0x1f, 0x80, 
	0x46, 0x30, 0x21, 0x80, 0x2d, 0x30, 0x1f, 0x90, 
	0x45, 0x7f, 0x00, 0x90, 0x2d, 0x64, 0x40, 0x80, 
	0x45, 0x30, 0x00, 0x80, 0x2d, 0x30, 0x21, 0x90, 
	0x48, 0x7f, 0x00, 0x90, 0x2d, 0x64, 0x40, 0x80, 
	0x2d, 0x30, 0x40, 0x80, 0x48, 0x30, 0x40, 0x90, 
	0x45, 0x7f, 0x00, 0x90, 0x2d, 0x64, 0x40, 0x80, 
	0x45, 0x30, 0x1f, 0x90, 0x46, 0x7f, 0x21, 0x80, 
	0x2d, 0x30, 0x1f, 0x80, 0x46, 0x30, 0x21, 0x90, 
	0x43, 0x7f, 0x00, 0x90, 0x2b, 0x64, 0x81, 0x00, 
	0x80, 0x43, 0x30, 0x00, 0x80, 0x2b, 0x30, 0x40, 
	0x90, 0x45, 0x7f, 0x00, 0x90, 0x2d, 0x64, 0x40, 
	0x80, 0x45, 0x30, 0x1f, 0x90, 0x4c, 0x7f, 0x61, 
	0x80, 0x2d, 0x30, 0x1f, 0x80, 0x4c, 0x30, 0x40, 
	0x90, 0x45, 0x7f, 0x00, 0x90, 0x2d, 0x64, 0x40, 
	0x80, 0x45, 0x30, 0x21, 0x90, 0x48, 0x7f, 0x5f, 
	0x80, 0x2d, 0x30, 0x21, 0x80, 0x48, 0x30, 0x40, 
	0x90, 0x43, 0x7f, 0x00, 0x90, 0x2b, 0x64, 0x40, 
	0x80, 0x43, 0x30, 0x1f, 0x90, 0x43, 0x7f, 0x21, 
	0x80, 0x2b, 0x30, 0x40, 0x90, 0x30, 0x64, 0x1f, 
	0x80, 0x43, 0x30, 0x21, 0x80, 0x30, 0x30, 0x1f, 
	0x90, 0x43, 0x7f, 0x00, 0x90, 0x30, 0x64, 0x40, 
	0x80, 0x43, 0x30, 0x00, 0x80, 0x30, 0x30, 0x21, 
	0x90, 0x45, 0x7f, 0x00, 0x90, 0x30, 0x64, 0x40, 
	0x80, 0x30, 0x30, 0x40, 0x80, 0x45, 0x30, 0x40, 
	0x90, 0x45, 0x7f, 0x00, 0x90, 0x32, 0x64, 0x81, 
	0x00, 0x80, 0x45, 0x30, 0x00, 0x80, 0x32, 0x30, 
	0x40, 0x90, 0x32, 0x64, 0x81, 0x00, 0x80, 0x32, 
	0x30, 0x40, 0x90, 0x45, 0x7f, 0x40, 0x80, 0x45, 
	0x30, 0x20, 0x90, 0x4c, 0x7f, 0x81, 0x00, 0x80, 
	0x4c, 0x30, 0x40, 0x90, 0x45, 0x7f, 0x40, 0x80, 
	0x45, 0x30, 0x1f, 0x90, 0x48, 0x7f, 0x81, 0x00, 
	0x80, 0x48, 0x30, 0x40, 0x90, 0x43, 0x7f, 0x40, 
	0x80, 0x43, 0x30, 0x21, 0x90, 0x43, 0x7f, 0x81, 
	0x00, 0x80, 0x43, 0x30, 0x40, 0x90, 0x43, 0x7f, 
	0x40, 0x80, 0x43, 0x30, 0x1f, 0x90, 0x45, 0x7f, 
	0x81, 0x00, 0x80, 0x45, 0x30, 0x40, 0x90, 0x45, 
	0x7f, 0x81, 0x00, 0x80, 0x45, 0x30, 0x82, 0x00, 
	0x90, 0x39, 0x7f, 0x81, 0x00, 0x80, 0x39, 0x30, 
	0x40, 0x90, 0x39, 0x7f, 0x81, 0x00, 0x80, 0x39, 
	0x30, 0x40, 0x90, 0x3c, 0x7f, 0x81, 0x00, 0x80, 
	0x3c, 0x30, 0x40, 0x90, 0x39, 0x7f, 0x81, 0x00, 
	0x80, 0x39, 0x30, 0x40, 0x90, 0x3e, 0x7f, 0x81, 
	0x00, 0x80, 0x3e, 0x30, 0x40, 0x90, 0x39, 0x7f, 
	0x81, 0x00, 0x80, 0x39, 0x30, 0x40, 0x90, 0x40, 
	0x7f, 0x81, 0x00, 0x80, 0x40, 0x30, 0x40, 0x90, 
	0x3e, 0x7f, 0x81, 0x00, 0x80, 0x3e, 0x30, 0x40, 
	0x90, 0x3c, 0x7f, 0x81, 0x00, 0x80, 0x3c, 0x30, 
	0x40, 0x90, 0x3c, 0x7f, 0x81, 0x00, 0x80, 0x3c, 
	0x30, 0x40, 0x90, 0x40, 0x7f, 0x81, 0x00, 0x80, 
	0x40, 0x30, 0x40, 0x90, 0x3c, 0x7f, 0x81, 0x00, 
	0x80, 0x3c, 0x30, 0x40, 0x90, 0x43, 0x7f, 0x81, 
	0x01, 0x80, 0x43, 0x30, 0x40, 0x90, 0x3c, 0x7f, 
	0x81, 0x00, 0x80, 0x3c, 0x30, 0x40, 0x90, 0x40, 
	0x7f, 0x81, 0x00, 0x80, 0x40, 0x30, 0x40, 0x90, 
	0x3c, 0x7f, 0x81, 0x00, 0x80, 0x3c, 0x30, 0x40, 
	0x90, 0x37, 0x7f, 0x81, 0x00, 0x80, 0x37, 0x30, 
	0x40, 0x90, 0x37, 0x7f, 0x81, 0x00, 0x80, 0x37, 
	0x30, 0x40, 0x90, 0x3b, 0x7f, 0x81, 0x00, 0x80, 
	0x3b, 0x30, 0x40, 0x90, 0x37, 0x7f, 0x81, 0x00, 
	0x80, 0x37, 0x30, 0x40, 0x90, 0x3c, 0x7f, 0x81, 
	0x00, 0x80, 0x3c, 0x30, 0x40, 0x90, 0x37, 0x7f, 
	0x81, 0x00, 0x80, 0x37, 0x30, 0x40, 0x90, 0x3e, 
	0x7f, 0x81, 0x00, 0x80, 0x3e, 0x30, 0x40, 0x90, 
	0x3c, 0x7f, 0x81, 0x00, 0x80, 0x3c, 0x30, 0x40, 
	0x90, 0x35, 0x7f, 0x81, 0x00, 0x80, 0x35, 0x30, 
	0x40, 0x90, 0x35, 0x7f, 0x81, 0x00, 0x80, 0x35, 
	0x30, 0x40, 0x90, 0x39, 0x7f, 0x81, 0x00, 0x80, 
	0x39, 0x30, 0x40, 0x90, 0x35, 0x7f, 0x81, 0x00, 
	0x80, 0x35, 0x30, 0x40, 0x90, 0x3c, 0x7f, 0x81, 
	0x00, 0x80, 0x3c, 0x30, 0x40, 0x90, 0x35, 0x7f, 
	0x81, 0x00, 0x80, 0x35, 0x30, 0x40, 0x90, 0x3c, 
	0x7f, 0x81, 0x00, 0x80, 0x3c, 0x30, 0x40, 0x90, 
	0x3b, 0x7f, 0x81, 0x00, 0x80, 0x3b, 0x30, 0x40, 
	0x90, 0x39, 0x7f, 0x81, 0x00, 0x80, 0x39, 0x30, 
	0x40, 0x90, 0x39, 0x7f, 0x81, 0x00, 0x80, 0x39, 
	0x30, 0x40, 0x90, 0x3c, 0x7f, 0x81, 0x00, 0x80, 
	0x3c, 0x30, 0x40, 0x90, 0x39, 0x7f, 0x81, 0x00, 
	0x80, 0x39, 0x30, 0x40, 0x90, 0x3e, 0x7f, 0x81, 
	0x00, 0x80, 0x3e, 0x30, 0x40, 0x90, 0x39, 0x7f, 
	0x81, 0x00, 0x80, 0x39, 0x30, 0x40, 0x90, 0x40, 
	0x7f, 0x7f, 0x80, 0x40, 0x30, 0x40, 0x90, 0x3e, 
	0x7f, 0x81, 0x00, 0x80, 0x3e, 0x30, 0x40, 0x90, 
	0x3c, 0x7f, 0x81, 0x00, 0x80, 0x3c, 0x30, 0x40, 
	0x90, 0x3c, 0x7f, 0x81, 0x00, 0x80, 0x3c, 0x30, 
	0x40, 0x90, 0x40, 0x7f, 0x81, 0x00, 0x80, 0x40, 
	0x30, 0x40, 0x90, 0x3c, 0x7f, 0x81, 0x00, 0x80, 
	0x3c, 0x30, 0x40, 0x90, 0x43, 0x7f, 0x81, 0x00, 
	0x80, 0x43, 0x30, 0x40, 0x90, 0x3c, 0x7f, 0x81, 
	0x00, 0x80, 0x3c, 0x30, 0x40, 0x90, 0x40, 0x7f, 
	0x81, 0x00, 0x80, 0x40, 0x30, 0x40, 0x90, 0x3c, 
	0x7f, 0x81, 0x00, 0x80, 0x3c, 0x30, 0x40, 0x90, 
	0x37, 0x7f, 0x81, 0x00, 0x80, 0x37, 0x30, 0x40, 
	0x90, 0x37, 0x7f, 0x81, 0x00, 0x80, 0x37, 0x30, 
	0x40, 0x90, 0x3b, 0x7f, 0x81, 0x00, 0x80, 0x3b, 
	0x30, 0x40, 0x90, 0x37, 0x7f, 0x81, 0x00, 0x80, 
	0x37, 0x30, 0x40, 0x90, 0x3c, 0x7f, 0x81, 0x00, 
	0x80, 0x3c, 0x30, 0x40, 0x90, 0x37, 0x7f, 0x81, 
	0x00, 0x80, 0x37, 0x30, 0x40, 0x90, 0x3e, 0x7f, 
	0x81, 0x00, 0x80, 0x3e, 0x30, 0x40, 0x90, 0x3c, 
	0x7f, 0x81, 0x00, 0x80, 0x3c, 0x30, 0x40, 0x90, 
	0x35, 0x7f, 0x81, 0x00, 0x80, 0x35, 0x30, 0x40, 
	0x90, 0x35, 0x7f, 0x81, 0x00, 0x80, 0x35, 0x30, 
	0x40, 0x90, 0x39, 0x7f, 0x81, 0x01, 0x80, 0x39, 
	0x30, 0x40, 0x90, 0x35, 0x7f, 0x81, 0x00, 0x80, 
	0x35, 0x30, 0x40, 0x90, 0x3c, 0x7f, 0x81, 0x00, 
	0x80, 0x3c, 0x30, 0x40, 0x90, 0x35, 0x7f, 0x81, 
	0x00, 0x80, 0x35, 0x30, 0x40, 0x90, 0x3c, 0x7f, 
	0x81, 0x00, 0x80, 0x3c, 0x30, 0x40, 0x90, 0x3b, 
	0x7f, 0x82, 0x00, 0x80, 0x3b, 0x30, 0x81, 0x19, 
	0xff, 0x2f, 0x00, 
};
