// Pirates of the caribean 
{
  0x4d, 0x54, 0x68, 0x64, 0x00, 0x00, 0x00, 0x06, 0x00, 0x01, 0x00, 0x01,
  0x00, 0xc0, 0x4d, 0x54, 0x72, 0x6b, 0x00, 0x00, 0x13, 0xf0, 0x00, 0xff,
  0x58, 0x04, 0x06, 0x03, 0x18, 0x08, 0x00, 0xff, 0x51, 0x03, 0x04, 0x93,
  0xe0, 0x00, 0x90, 0x3e, 0x6e, 0x81, 0x03, 0x80, 0x3e, 0x30, 0x3d, 0x90,
  0x3e, 0x6e, 0x41, 0x80, 0x3e, 0x30, 0x1f, 0x90, 0x3e, 0x6e, 0x81, 0x03,
  0x80, 0x3e, 0x30, 0x3d, 0x90, 0x3e, 0x6e, 0x41, 0x80, 0x3e, 0x30, 0x1f,
  0x90, 0x3e, 0x6e, 0x81, 0x03, 0x80, 0x3e, 0x30, 0x3d, 0x90, 0x3e, 0x6e,
  0x41, 0x80, 0x3e, 0x30, 0x1f, 0x90, 0x3e, 0x6e, 0x41, 0x80, 0x3e, 0x30,
  0x1f, 0x90, 0x3e, 0x6e, 0x41, 0x80, 0x3e, 0x30, 0x1f, 0x90, 0x3e, 0x6e,
  0x41, 0x80, 0x3e, 0x30, 0x1f, 0x90, 0x3e, 0x6e, 0x81, 0x03, 0x80, 0x3e,
  0x30, 0x3d, 0x90, 0x3e, 0x6e, 0x41, 0x80, 0x3e, 0x30, 0x1f, 0x90, 0x3e,
  0x6e, 0x81, 0x03, 0x80, 0x3e, 0x30, 0x3d, 0x90, 0x3e, 0x6e, 0x41, 0x80,
  0x3e, 0x30, 0x1f, 0x90, 0x3e, 0x6e, 0x81, 0x03, 0x80, 0x3e, 0x30, 0x3d,
  0x90, 0x3e, 0x6e, 0x41, 0x80, 0x3e, 0x30, 0x1f, 0x90, 0x3e, 0x6e, 0x41,
  0x80, 0x3e, 0x30, 0x1f, 0x90, 0x3e, 0x6e, 0x41, 0x80, 0x3e, 0x30, 0x1f,
  0x90, 0x3e, 0x6e, 0x41, 0x80, 0x3e, 0x30, 0x1f, 0x90, 0x3e, 0x6e, 0x00,
  0x90, 0x26, 0x6e, 0x81, 0x03, 0x80, 0x3e, 0x30, 0x3d, 0x90, 0x3e, 0x6e,
  0x41, 0x80, 0x3e, 0x30, 0x1f, 0x90, 0x3e, 0x6e, 0x81, 0x03, 0x80, 0x3e,
  0x30, 0x3d, 0x90, 0x3e, 0x6e, 0x15, 0x80, 0x26, 0x30, 0x2c, 0x80, 0x3e,
  0x30, 0x1f, 0x90, 0x3e, 0x6e, 0x00, 0x90, 0x26, 0x6e, 0x81, 0x03, 0x80,
  0x3e, 0x30, 0x3d, 0x90, 0x3e, 0x6e, 0x25, 0x80, 0x26, 0x30, 0x1c, 0x80,
  0x3e, 0x30, 0x1f, 0x90, 0x3e, 0x6e, 0x00, 0x90, 0x26, 0x6e, 0x41, 0x80,
  0x3e, 0x30, 0x1f, 0x90, 0x39, 0x6e, 0x5e, 0x80, 0x39, 0x30, 0x02, 0x90,
  0x3c, 0x6e, 0x25, 0x80, 0x26, 0x30, 0x39, 0x80, 0x3c, 0x30, 0x02, 0x90,
  0x3e, 0x6e, 0x00, 0x90, 0x32, 0x6e, 0x81, 0x05, 0x80, 0x32, 0x30, 0x1b,
  0x80, 0x3e, 0x30, 0x20, 0x90, 0x3e, 0x6e, 0x00, 0x90, 0x32, 0x6e, 0x43,
  0x80, 0x32, 0x30, 0x1d, 0x90, 0x32, 0x6e, 0x40, 0x80, 0x3e, 0x30, 0x20,
  0x90, 0x3e, 0x6e, 0x25, 0x80, 0x32, 0x30, 0x39, 0x80, 0x3e, 0x30, 0x02,
  0x90, 0x40, 0x6e, 0x00, 0x90, 0x30, 0x6e, 0x43, 0x80, 0x30, 0x30, 0x1b,
  0x80, 0x40, 0x30, 0x02, 0x90, 0x41, 0x6e, 0x00, 0x90, 0x2e, 0x6e, 0x81,
  0x05, 0x80, 0x2e, 0x30, 0x1b, 0x80, 0x41, 0x30, 0x20, 0x90, 0x41, 0x6e,
  0x00, 0x90, 0x2e, 0x6e, 0x43, 0x80, 0x2e, 0x30, 0x1d, 0x90, 0x2e, 0x6e,
  0x40, 0x80, 0x41, 0x30, 0x20, 0x90, 0x41, 0x6e, 0x25, 0x80, 0x2e, 0x30,
  0x39, 0x80, 0x41, 0x30, 0x02, 0x90, 0x43, 0x6e, 0x00, 0x90, 0x2e, 0x6e,
  0x43, 0x80, 0x2e, 0x30, 0x1b, 0x80, 0x43, 0x30, 0x02, 0x90, 0x40, 0x6e,
  0x00, 0x90, 0x2d, 0x6e, 0x81, 0x05, 0x80, 0x2d, 0x30, 0x1b, 0x80, 0x40,
  0x30, 0x20, 0x90, 0x40, 0x6e, 0x00, 0x90, 0x2d, 0x6e, 0x43, 0x80, 0x2d,
  0x30, 0x1d, 0x90, 0x2d, 0x6e, 0x40, 0x80, 0x40, 0x30, 0x20, 0x90, 0x3e,
  0x6e, 0x25, 0x80, 0x2d, 0x30, 0x39, 0x80, 0x3e, 0x30, 0x02, 0x90, 0x3c,
  0x6e, 0x00, 0x90, 0x2d, 0x6e, 0x43, 0x80, 0x2d, 0x30, 0x1b, 0x80, 0x3c,
  0x30, 0x02, 0x90, 0x3c, 0x6e, 0x00, 0x90, 0x32, 0x6e, 0x5e, 0x80, 0x3c,
  0x30, 0x02, 0x90, 0x3e, 0x6e, 0x25, 0x80, 0x32, 0x30, 0x3b, 0x90, 0x32,
  0x6e, 0x40, 0x80, 0x3e, 0x30, 0x03, 0x80, 0x32, 0x30, 0x1d, 0x90, 0x32,
  0x6e, 0x60, 0x90, 0x39, 0x6e, 0x25, 0x80, 0x32, 0x30, 0x39, 0x80, 0x39,
  0x30, 0x02, 0x90, 0x3c, 0x6e, 0x00, 0x90, 0x32, 0x6e, 0x43, 0x80, 0x32,
  0x30, 0x1b, 0x80, 0x3c, 0x30, 0x02, 0x90, 0x3e, 0x6e, 0x00, 0x90, 0x2e,
  0x6e, 0x81, 0x05, 0x80, 0x2e, 0x30, 0x1b, 0x80, 0x3e, 0x30, 0x20, 0x90,
  0x3e, 0x6e, 0x00, 0x90, 0x2e, 0x6e, 0x43, 0x80, 0x2e, 0x30, 0x1d, 0x90,
  0x2e, 0x6e, 0x40, 0x80, 0x3e, 0x30, 0x20, 0x90, 0x3e, 0x6e, 0x25, 0x80,
  0x2e, 0x30, 0x39, 0x80, 0x3e, 0x30, 0x02, 0x90, 0x40, 0x6e, 0x00, 0x90,
  0x2e, 0x6e, 0x43, 0x80, 0x2e, 0x30, 0x1b, 0x80, 0x40, 0x30, 0x02, 0x90,
  0x41, 0x6e, 0x00, 0x90, 0x29, 0x6e, 0x81, 0x05, 0x80, 0x29, 0x30, 0x1b,
  0x80, 0x41, 0x30, 0x20, 0x90, 0x41, 0x6e, 0x00, 0x90, 0x29, 0x6e, 0x43,
  0x80, 0x29, 0x30, 0x1d, 0x90, 0x29, 0x6e, 0x40, 0x80, 0x41, 0x30, 0x20,
  0x90, 0x41, 0x6e, 0x25, 0x80, 0x29, 0x30, 0x39, 0x80, 0x41, 0x30, 0x02,
  0x90, 0x43, 0x6e, 0x00, 0x90, 0x29, 0x6e, 0x43, 0x80, 0x29, 0x30, 0x1b,
  0x80, 0x43, 0x30, 0x02, 0x90, 0x40, 0x6e, 0x00, 0x90, 0x30, 0x6e, 0x81,
  0x05, 0x80, 0x30, 0x30, 0x1b, 0x80, 0x40, 0x30, 0x20, 0x90, 0x40, 0x6e,
  0x00, 0x90, 0x30, 0x6e, 0x43, 0x80, 0x30, 0x30, 0x1d, 0x90, 0x2d, 0x6e,
  0x40, 0x80, 0x40, 0x30, 0x20, 0x90, 0x3e, 0x6e, 0x25, 0x80, 0x2d, 0x30,
  0x39, 0x80, 0x3e, 0x30, 0x02, 0x90, 0x3c, 0x6e, 0x00, 0x90, 0x2d, 0x6e,
  0x43, 0x80, 0x2d, 0x30, 0x1b, 0x80, 0x3c, 0x30, 0x02, 0x90, 0x3e, 0x6e,
  0x00, 0x90, 0x32, 0x6e, 0x81, 0x05, 0x80, 0x32, 0x30, 0x1b, 0x80, 0x3e,
  0x30, 0x20, 0x90, 0x32, 0x6e, 0x43, 0x80, 0x32, 0x30, 0x1d, 0x90, 0x32,
  0x6e, 0x60, 0x90, 0x39, 0x6e, 0x25, 0x80, 0x32, 0x30, 0x39, 0x80, 0x39,
  0x30, 0x02, 0x90, 0x3c, 0x6e, 0x00, 0x90, 0x32, 0x6e, 0x43, 0x80, 0x32,
  0x30, 0x1b, 0x80, 0x3c, 0x30, 0x02, 0x90, 0x3e, 0x6e, 0x00, 0x90, 0x32,
  0x6e, 0x81, 0x05, 0x80, 0x32, 0x30, 0x1b, 0x80, 0x3e, 0x30, 0x20, 0x90,
  0x3e, 0x6e, 0x00, 0x90, 0x32, 0x6e, 0x43, 0x80, 0x32, 0x30, 0x1d, 0x90,
  0x32, 0x6e, 0x40, 0x80, 0x3e, 0x30, 0x20, 0x90, 0x3e, 0x6e, 0x25, 0x80,
  0x32, 0x30, 0x39, 0x80, 0x3e, 0x30, 0x02, 0x90, 0x41, 0x6e, 0x00, 0x90,
  0x32, 0x6e, 0x43, 0x80, 0x32, 0x30, 0x1b, 0x80, 0x41, 0x30, 0x02, 0x90,
  0x43, 0x6e, 0x00, 0x90, 0x2e, 0x6e, 0x81, 0x05, 0x80, 0x2e, 0x30, 0x1b,
  0x80, 0x43, 0x30, 0x20, 0x90, 0x43, 0x6e, 0x00, 0x90, 0x2e, 0x6e, 0x43,
  0x80, 0x2e, 0x30, 0x1d, 0x90, 0x2e, 0x6e, 0x40, 0x80, 0x43, 0x30, 0x20,
  0x90, 0x43, 0x6e, 0x25, 0x80, 0x2e, 0x30, 0x39, 0x80, 0x43, 0x30, 0x02,
  0x90, 0x45, 0x6e, 0x00, 0x90, 0x2e, 0x6e, 0x43, 0x80, 0x2e, 0x30, 0x1b,
  0x80, 0x45, 0x30, 0x02, 0x90, 0x46, 0x6e, 0x00, 0x90, 0x2b, 0x6e, 0x81,
  0x05, 0x80, 0x2b, 0x30, 0x1b, 0x80, 0x46, 0x30, 0x20, 0x90, 0x46, 0x6e,
  0x00, 0x90, 0x2b, 0x6e, 0x43, 0x80, 0x2b, 0x30, 0x1d, 0x90, 0x2b, 0x6e,
  0x40, 0x80, 0x46, 0x30, 0x20, 0x90, 0x45, 0x6e, 0x25, 0x80, 0x2b, 0x30,
  0x39, 0x80, 0x45, 0x30, 0x02, 0x90, 0x43, 0x6e, 0x00, 0x90, 0x2b, 0x6e,
  0x43, 0x80, 0x2b, 0x30, 0x1b, 0x80, 0x43, 0x30, 0x02, 0x90, 0x45, 0x6e,
  0x00, 0x90, 0x32, 0x6e, 0x5e, 0x80, 0x45, 0x30, 0x02, 0x90, 0x3e, 0x6e,
  0x25, 0x80, 0x32, 0x30, 0x3b, 0x90, 0x32, 0x6e, 0x40, 0x80, 0x3e, 0x30,
  0x03, 0x80, 0x32, 0x30, 0x1d, 0x90, 0x32, 0x6e, 0x60, 0x90, 0x3e, 0x6e,
  0x25, 0x80, 0x32, 0x30, 0x39, 0x80, 0x3e, 0x30, 0x02, 0x90, 0x40, 0x6e,
  0x00, 0x90, 0x32, 0x6e, 0x43, 0x80, 0x32, 0x30, 0x1b, 0x80, 0x40, 0x30,
  0x02, 0x90, 0x41, 0x6e, 0x00, 0x90, 0x2e, 0x6e, 0x81, 0x05, 0x80, 0x2e,
  0x30, 0x1b, 0x80, 0x41, 0x30, 0x20, 0x90, 0x41, 0x6e, 0x00, 0x90, 0x2e,
  0x6e, 0x43, 0x80, 0x2e, 0x30, 0x1d, 0x90, 0x2e, 0x6e, 0x40, 0x80, 0x41,
  0x30, 0x20, 0x90, 0x43, 0x6e, 0x25, 0x80, 0x2e, 0x30, 0x3b, 0x90, 0x2e,
  0x6e, 0x40, 0x80, 0x43, 0x30, 0x03, 0x80, 0x2e, 0x30, 0x1d, 0x90, 0x45,
  0x6e, 0x00, 0x90, 0x32, 0x6e, 0x5e, 0x80, 0x45, 0x30, 0x02, 0x90, 0x3e,
  0x6e, 0x25, 0x80, 0x32, 0x30, 0x3b, 0x90, 0x32, 0x6e, 0x40, 0x80, 0x3e,
  0x30, 0x03, 0x80, 0x32, 0x30, 0x1d, 0x90, 0x32, 0x6e, 0x60, 0x90, 0x3e,
  0x6e, 0x25, 0x80, 0x32, 0x30, 0x39, 0x80, 0x3e, 0x30, 0x02, 0x90, 0x41,
  0x6e, 0x00, 0x90, 0x32, 0x6e, 0x43, 0x80, 0x32, 0x30, 0x1b, 0x80, 0x41,
  0x30, 0x02, 0x90, 0x40, 0x6e, 0x00, 0x90, 0x2d, 0x6e, 0x81, 0x05, 0x80,
  0x2d, 0x30, 0x1b, 0x80, 0x40, 0x30, 0x20, 0x90, 0x40, 0x6e, 0x00, 0x90,
  0x2d, 0x6e, 0x43, 0x80, 0x2d, 0x30, 0x1d, 0x90, 0x2d, 0x6e, 0x40, 0x80,
  0x40, 0x30, 0x20, 0x90, 0x41, 0x6e, 0x25, 0x80, 0x2d, 0x30, 0x39, 0x80,
  0x41, 0x30, 0x02, 0x90, 0x3e, 0x6e, 0x00, 0x90, 0x2d, 0x6e, 0x43, 0x80,
  0x2d, 0x30, 0x1b, 0x80, 0x3e, 0x30, 0x02, 0x90, 0x40, 0x6e, 0x00, 0x90,
  0x2d, 0x6e, 0x5e, 0x80, 0x40, 0x30, 0x27, 0x80, 0x2d, 0x30, 0x3b, 0x90,
  0x2d, 0x6e, 0x43, 0x80, 0x2d, 0x30, 0x1d, 0x90, 0x2d, 0x6e, 0x60, 0x90,
  0x45, 0x6e, 0x25, 0x80, 0x2d, 0x30, 0x39, 0x80, 0x45, 0x30, 0x02, 0x90,
  0x48, 0x6e, 0x00, 0x90, 0x2d, 0x6e, 0x43, 0x80, 0x2d, 0x30, 0x1b, 0x80,
  0x48, 0x30, 0x02, 0x90, 0x4a, 0x6e, 0x00, 0x90, 0x32, 0x6e, 0x81, 0x05,
  0x80, 0x32, 0x30, 0x1b, 0x80, 0x4a, 0x30, 0x20, 0x90, 0x4a, 0x6e, 0x00,
  0x90, 0x32, 0x6e, 0x43, 0x80, 0x32, 0x30, 0x1d, 0x90, 0x32, 0x6e, 0x40,
  0x80, 0x4a, 0x30, 0x20, 0x90, 0x4a, 0x6e, 0x25, 0x80, 0x32, 0x30, 0x39,
  0x80, 0x4a, 0x30, 0x02, 0x90, 0x4c, 0x6e, 0x00, 0x90, 0x30, 0x6e, 0x43,
  0x80, 0x30, 0x30, 0x1b, 0x80, 0x4c, 0x30, 0x02, 0x90, 0x4d, 0x6e, 0x00,
  0x90, 0x2e, 0x6e, 0x81, 0x05, 0x80, 0x2e, 0x30, 0x1b, 0x80, 0x4d, 0x30,
  0x20, 0x90, 0x4d, 0x6e, 0x00, 0x90, 0x2e, 0x6e, 0x43, 0x80, 0x2e, 0x30,
  0x1d, 0x90, 0x2e, 0x6e, 0x40, 0x80, 0x4d, 0x30, 0x20, 0x90, 0x4d, 0x6e,
  0x25, 0x80, 0x2e, 0x30, 0x39, 0x80, 0x4d, 0x30, 0x02, 0x90, 0x4f, 0x6e,
  0x00, 0x90, 0x2e, 0x6e, 0x43, 0x80, 0x2e, 0x30, 0x1b, 0x80, 0x4f, 0x30,
  0x02, 0x90, 0x4c, 0x6e, 0x00, 0x90, 0x2d, 0x6e, 0x81, 0x05, 0x80, 0x2d,
  0x30, 0x1b, 0x80, 0x4c, 0x30, 0x20, 0x90, 0x4c, 0x6e, 0x00, 0x90, 0x2d,
  0x6e, 0x43, 0x80, 0x2d, 0x30, 0x1d, 0x90, 0x2d, 0x6e, 0x40, 0x80, 0x4c,
  0x30, 0x20, 0x90, 0x4a, 0x6e, 0x25, 0x80, 0x2d, 0x30, 0x39, 0x80, 0x4a,
  0x30, 0x02, 0x90, 0x48, 0x6e, 0x00, 0x90, 0x2d, 0x6e, 0x43, 0x80, 0x2d,
  0x30, 0x1b, 0x80, 0x48, 0x30, 0x02, 0x90, 0x48, 0x6e, 0x00, 0x90, 0x32,
  0x6e, 0x5e, 0x80, 0x48, 0x30, 0x02, 0x90, 0x4a, 0x6e, 0x25, 0x80, 0x32,
  0x30, 0x3b, 0x90, 0x32, 0x6e, 0x40, 0x80, 0x4a, 0x30, 0x03, 0x80, 0x32,
  0x30, 0x1d, 0x90, 0x32, 0x6e, 0x60, 0x90, 0x45, 0x6e, 0x25, 0x80, 0x32,
  0x30, 0x39, 0x80, 0x45, 0x30, 0x02, 0x90, 0x48, 0x6e, 0x00, 0x90, 0x32,
  0x6e, 0x43, 0x80, 0x32, 0x30, 0x1b, 0x80, 0x48, 0x30, 0x02, 0x90, 0x4a,
  0x6e, 0x00, 0x90, 0x2e, 0x6e, 0x81, 0x05, 0x80, 0x2e, 0x30, 0x1b, 0x80,
  0x4a, 0x30, 0x20, 0x90, 0x4a, 0x6e, 0x00, 0x90, 0x2e, 0x6e, 0x43, 0x80,
  0x2e, 0x30, 0x1d, 0x90, 0x2e, 0x6e, 0x40, 0x80, 0x4a, 0x30, 0x20, 0x90,
  0x4a, 0x6e, 0x25, 0x80, 0x2e, 0x30, 0x39, 0x80, 0x4a, 0x30, 0x02, 0x90,
  0x4c, 0x6e, 0x00, 0x90, 0x2e, 0x6e, 0x43, 0x80, 0x2e, 0x30, 0x1b, 0x80,
  0x4c, 0x30, 0x02, 0x90, 0x4d, 0x6e, 0x00, 0x90, 0x29, 0x6e, 0x81, 0x05,
  0x80, 0x29, 0x30, 0x1b, 0x80, 0x4d, 0x30, 0x20, 0x90, 0x4d, 0x6e, 0x00,
  0x90, 0x29, 0x6e, 0x43, 0x80, 0x29, 0x30, 0x1d, 0x90, 0x29, 0x6e, 0x40,
  0x80, 0x4d, 0x30, 0x20, 0x90, 0x4d, 0x6e, 0x25, 0x80, 0x29, 0x30, 0x39,
  0x80, 0x4d, 0x30, 0x02, 0x90, 0x4f, 0x6e, 0x00, 0x90, 0x29, 0x6e, 0x43,
  0x80, 0x29, 0x30, 0x1b, 0x80, 0x4f, 0x30, 0x02, 0x90, 0x4c, 0x6e, 0x00,
  0x90, 0x30, 0x6e, 0x81, 0x05, 0x80, 0x30, 0x30, 0x1b, 0x80, 0x4c, 0x30,
  0x20, 0x90, 0x4c, 0x6e, 0x00, 0x90, 0x30, 0x6e, 0x43, 0x80, 0x30, 0x30,
  0x1d, 0x90, 0x2d, 0x6e, 0x40, 0x80, 0x4c, 0x30, 0x20, 0x90, 0x4a, 0x6e,
  0x25, 0x80, 0x2d, 0x30, 0x39, 0x80, 0x4a, 0x30, 0x02, 0x90, 0x48, 0x6e,
  0x00, 0x90, 0x2d, 0x6e, 0x43, 0x80, 0x2d, 0x30, 0x1b, 0x80, 0x48, 0x30,
  0x02, 0x90, 0x4a, 0x6e, 0x00, 0x90, 0x32, 0x6e, 0x81, 0x05, 0x80, 0x32,
  0x30, 0x1b, 0x80, 0x4a, 0x30, 0x20, 0x90, 0x32, 0x6e, 0x43, 0x80, 0x32,
  0x30, 0x1d, 0x90, 0x32, 0x6e, 0x60, 0x90, 0x45, 0x6e, 0x25, 0x80, 0x32,
  0x30, 0x39, 0x80, 0x45, 0x30, 0x02, 0x90, 0x48, 0x6e, 0x00, 0x90, 0x32,
  0x6e, 0x43, 0x80, 0x32, 0x30, 0x1b, 0x80, 0x48, 0x30, 0x02, 0x90, 0x4a,
  0x6e, 0x00, 0x90, 0x32, 0x6e, 0x81, 0x05, 0x80, 0x32, 0x30, 0x1b, 0x80,
  0x4a, 0x30, 0x20, 0x90, 0x4a, 0x6e, 0x00, 0x90, 0x32, 0x6e, 0x43, 0x80,
  0x32, 0x30, 0x1d, 0x90, 0x32, 0x6e, 0x40, 0x80, 0x4a, 0x30, 0x20, 0x90,
  0x4a, 0x6e, 0x25, 0x80, 0x32, 0x30, 0x39, 0x80, 0x4a, 0x30, 0x02, 0x90,
  0x4d, 0x6e, 0x00, 0x90, 0x32, 0x6e, 0x43, 0x80, 0x32, 0x30, 0x1b, 0x80,
  0x4d, 0x30, 0x02, 0x90, 0x4f, 0x6e, 0x00, 0x90, 0x2e, 0x6e, 0x81, 0x05,
  0x80, 0x2e, 0x30, 0x1b, 0x80, 0x4f, 0x30, 0x20, 0x90, 0x4f, 0x6e, 0x00,
  0x90, 0x2e, 0x6e, 0x43, 0x80, 0x2e, 0x30, 0x1d, 0x90, 0x2e, 0x6e, 0x40,
  0x80, 0x4f, 0x30, 0x20, 0x90, 0x4f, 0x6e, 0x25, 0x80, 0x2e, 0x30, 0x39,
  0x80, 0x4f, 0x30, 0x02, 0x90, 0x51, 0x6e, 0x00, 0x90, 0x2e, 0x6e, 0x43,
  0x80, 0x2e, 0x30, 0x1b, 0x80, 0x51, 0x30, 0x02, 0x90, 0x52, 0x6e, 0x00,
  0x90, 0x2b, 0x6e, 0x81, 0x05, 0x80, 0x2b, 0x30, 0x1b, 0x80, 0x52, 0x30,
  0x20, 0x90, 0x52, 0x6e, 0x00, 0x90, 0x2b, 0x6e, 0x43, 0x80, 0x2b, 0x30,
  0x1d, 0x90, 0x2b, 0x6e, 0x40, 0x80, 0x52, 0x30, 0x20, 0x90, 0x51, 0x6e,
  0x25, 0x80, 0x2b, 0x30, 0x39, 0x80, 0x51, 0x30, 0x02, 0x90, 0x4f, 0x6e,
  0x00, 0x90, 0x2b, 0x6e, 0x43, 0x80, 0x2b, 0x30, 0x1b, 0x80, 0x4f, 0x30,
  0x02, 0x90, 0x51, 0x6e, 0x00, 0x90, 0x32, 0x6e, 0x5e, 0x80, 0x51, 0x30,
  0x02, 0x90, 0x4a, 0x6e, 0x25, 0x80, 0x32, 0x30, 0x3b, 0x90, 0x32, 0x6e,
  0x40, 0x80, 0x4a, 0x30, 0x03, 0x80, 0x32, 0x30, 0x1d, 0x90, 0x32, 0x6e,
  0x60, 0x90, 0x4a, 0x6e, 0x25, 0x80, 0x32, 0x30, 0x39, 0x80, 0x4a, 0x30,
  0x02, 0x90, 0x4c, 0x6e, 0x00, 0x90, 0x32, 0x6e, 0x43, 0x80, 0x32, 0x30,
  0x1b, 0x80, 0x4c, 0x30, 0x02, 0x90, 0x4d, 0x6e, 0x00, 0x90, 0x2e, 0x6e,
  0x81, 0x05, 0x80, 0x2e, 0x30, 0x1b, 0x80, 0x4d, 0x30, 0x20, 0x90, 0x4d,
  0x6e, 0x00, 0x90, 0x2e, 0x6e, 0x43, 0x80, 0x2e, 0x30, 0x1d, 0x90, 0x2e,
  0x6e, 0x40, 0x80, 0x4d, 0x30, 0x20, 0x90, 0x4f, 0x6e, 0x25, 0x80, 0x2e,
  0x30, 0x3b, 0x90, 0x2e, 0x6e, 0x40, 0x80, 0x4f, 0x30, 0x03, 0x80, 0x2e,
  0x30, 0x1d, 0x90, 0x51, 0x6e, 0x00, 0x90, 0x32, 0x6e, 0x5e, 0x80, 0x51,
  0x30, 0x02, 0x90, 0x4a, 0x6e, 0x25, 0x80, 0x32, 0x30, 0x3b, 0x90, 0x32,
  0x6e, 0x40, 0x80, 0x4a, 0x30, 0x03, 0x80, 0x32, 0x30, 0x1d, 0x90, 0x32,
  0x6e, 0x60, 0x90, 0x4a, 0x6e, 0x25, 0x80, 0x32, 0x30, 0x39, 0x80, 0x4a,
  0x30, 0x02, 0x90, 0x4d, 0x6e, 0x00, 0x90, 0x32, 0x6e, 0x43, 0x80, 0x32,
  0x30, 0x1b, 0x80, 0x4d, 0x30, 0x02, 0x90, 0x4c, 0x6e, 0x00, 0x90, 0x2d,
  0x6e, 0x81, 0x05, 0x80, 0x2d, 0x30, 0x1b, 0x80, 0x4c, 0x30, 0x20, 0x90,
  0x4c, 0x6e, 0x00, 0x90, 0x2d, 0x6e, 0x43, 0x80, 0x2d, 0x30, 0x1d, 0x90,
  0x2d, 0x6e, 0x40, 0x80, 0x4c, 0x30, 0x20, 0x90, 0x4a, 0x6e, 0x25, 0x80,
  0x2d, 0x30, 0x39, 0x80, 0x4a, 0x30, 0x02, 0x90, 0x49, 0x6e, 0x00, 0x90,
  0x2d, 0x6e, 0x43, 0x80, 0x2d, 0x30, 0x1b, 0x80, 0x49, 0x30, 0x02, 0x90,
  0x4a, 0x6e, 0x00, 0x90, 0x32, 0x6e, 0x81, 0x05, 0x80, 0x32, 0x30, 0x1b,
  0x80, 0x4a, 0x30, 0x20, 0x90, 0x4a, 0x6e, 0x00, 0x90, 0x32, 0x6e, 0x81,
  0x05, 0x80, 0x32, 0x30, 0x1b, 0x80, 0x4a, 0x30, 0x20, 0x90, 0x4c, 0x6e,
  0x00, 0x90, 0x30, 0x6e, 0x81, 0x05, 0x80, 0x30, 0x30, 0x1b, 0x80, 0x4c,
  0x30, 0x20, 0x90, 0x4d, 0x6e, 0x00, 0x90, 0x30, 0x6e, 0x81, 0x05, 0x80,
  0x30, 0x30, 0x1b, 0x80, 0x4d, 0x30, 0x20, 0x90, 0x4d, 0x6e, 0x00, 0x90,
  0x30, 0x6e, 0x5e, 0x80, 0x4d, 0x30, 0x02, 0x90, 0x4d, 0x6e, 0x25, 0x80,
  0x30, 0x30, 0x39, 0x80, 0x4d, 0x30, 0x02, 0x90, 0x4f, 0x6e, 0x00, 0x90,
  0x2e, 0x6e, 0x81, 0x05, 0x80, 0x2e, 0x30, 0x1b, 0x80, 0x4f, 0x30, 0x20,
  0x90, 0x51, 0x6e, 0x00, 0x90, 0x2d, 0x6e, 0x5e, 0x80, 0x51, 0x30, 0x02,
  0x90, 0x4d, 0x6e, 0x25, 0x80, 0x2d, 0x30, 0x39, 0x80, 0x4d, 0x30, 0x02,
  0x90, 0x2d, 0x6e, 0x43, 0x80, 0x2d, 0x30, 0x1d, 0x90, 0x2d, 0x6e, 0x60,
  0x90, 0x4d, 0x6e, 0x25, 0x80, 0x2d, 0x30, 0x39, 0x80, 0x4d, 0x30, 0x02,
  0x90, 0x4a, 0x6e, 0x00, 0x90, 0x2d, 0x6e, 0x43, 0x80, 0x2d, 0x30, 0x1b,
  0x80, 0x4a, 0x30, 0x02, 0x90, 0x45, 0x6e, 0x00, 0x90, 0x2d, 0x6e, 0x5e,
  0x80, 0x45, 0x30, 0x27, 0x80, 0x2d, 0x30, 0x3b, 0x90, 0x2d, 0x6e, 0x43,
  0x80, 0x2d, 0x30, 0x1d, 0x90, 0x2d, 0x6e, 0x81, 0x05, 0x80, 0x2d, 0x30,
  0x3b, 0x90, 0x2d, 0x6e, 0x43, 0x80, 0x2d, 0x30, 0x1d, 0x90, 0x52, 0x6e,
  0x00, 0x90, 0x2b, 0x6e, 0x5e, 0x80, 0x52, 0x30, 0x27, 0x80, 0x2b, 0x30,
  0x3b, 0x90, 0x2b, 0x6e, 0x43, 0x80, 0x2b, 0x30, 0x1d, 0x90, 0x2b, 0x6e,
  0x60, 0x90, 0x4f, 0x6e, 0x25, 0x80, 0x2b, 0x30, 0x39, 0x80, 0x4f, 0x30,
  0x02, 0x90, 0x4a, 0x6e, 0x00, 0x90, 0x2b, 0x6e, 0x43, 0x80, 0x2b, 0x30,
  0x1b, 0x80, 0x4a, 0x30, 0x02, 0x90, 0x46, 0x6e, 0x00, 0x90, 0x2b, 0x6e,
  0x5e, 0x80, 0x46, 0x30, 0x27, 0x80, 0x2b, 0x30, 0x3b, 0x90, 0x2b, 0x6e,
  0x43, 0x80, 0x2b, 0x30, 0x1d, 0x90, 0x2b, 0x6e, 0x81, 0x05, 0x80, 0x2b,
  0x30, 0x3b, 0x90, 0x2b, 0x6e, 0x43, 0x80, 0x2b, 0x30, 0x1d, 0x90, 0x40,
  0x6e, 0x00, 0x90, 0x2d, 0x6e, 0x5e, 0x80, 0x40, 0x30, 0x02, 0x90, 0x40,
  0x6e, 0x25, 0x80, 0x2d, 0x30, 0x3b, 0x90, 0x2d, 0x6e, 0x40, 0x80, 0x40,
  0x30, 0x03, 0x80, 0x2d, 0x30, 0x1d, 0x90, 0x3e, 0x6e, 0x00, 0x90, 0x2d,
  0x6e, 0x81, 0x05, 0x80, 0x2d, 0x30, 0x3b, 0x90, 0x2d, 0x6e, 0x40, 0x80,
  0x3e, 0x30, 0x03, 0x80, 0x2d, 0x30, 0x1d, 0x90, 0x41, 0x6e, 0x00, 0x90,
  0x2d, 0x6e, 0x81, 0x05, 0x80, 0x2d, 0x30, 0x3b, 0x90, 0x2d, 0x6e, 0x40,
  0x80, 0x41, 0x30, 0x03, 0x80, 0x2d, 0x30, 0x1d, 0x90, 0x2d, 0x6e, 0x60,
  0x90, 0x41, 0x6e, 0x25, 0x80, 0x2d, 0x30, 0x39, 0x80, 0x41, 0x30, 0x02,
  0x90, 0x43, 0x6e, 0x00, 0x90, 0x2d, 0x6e, 0x43, 0x80, 0x2d, 0x30, 0x1b,
  0x80, 0x43, 0x30, 0x02, 0x90, 0x45, 0x6e, 0x00, 0x90, 0x32, 0x6e, 0x81,
  0x05, 0x80, 0x32, 0x30, 0x1b, 0x80, 0x45, 0x30, 0x20, 0x90, 0x45, 0x6e,
  0x00, 0x90, 0x32, 0x6e, 0x43, 0x80, 0x32, 0x30, 0x1d, 0x90, 0x32, 0x6e,
  0x40, 0x80, 0x45, 0x30, 0x20, 0x90, 0x45, 0x6e, 0x25, 0x80, 0x32, 0x30,
  0x3b, 0x90, 0x32, 0x6e, 0x40, 0x80, 0x45, 0x30, 0x03, 0x80, 0x32, 0x30,
  0x1d, 0x90, 0x46, 0x6e, 0x00, 0x90, 0x32, 0x6e, 0x5e, 0x80, 0x46, 0x30,
  0x02, 0x90, 0x45, 0x6e, 0x25, 0x80, 0x32, 0x30, 0x39, 0x80, 0x45, 0x30,
  0x02, 0x90, 0x32, 0x6e, 0x43, 0x80, 0x32, 0x30, 0x1d, 0x90, 0x32, 0x6e,
  0x43, 0x80, 0x32, 0x30, 0x1d, 0x90, 0x32, 0x6e, 0x43, 0x80, 0x32, 0x30,
  0x1d, 0x90, 0x32, 0x6e, 0x43, 0x80, 0x32, 0x30, 0x1d, 0x90, 0x43, 0x6e,
  0x00, 0x90, 0x30, 0x6e, 0x81, 0x05, 0x80, 0x30, 0x30, 0x1b, 0x80, 0x43,
  0x30, 0x20, 0x90, 0x43, 0x6e, 0x00, 0x90, 0x30, 0x6e, 0x43, 0x80, 0x30,
  0x30, 0x1d, 0x90, 0x30, 0x6e, 0x40, 0x80, 0x43, 0x30, 0x20, 0x90, 0x43,
  0x6e, 0x25, 0x80, 0x30, 0x30, 0x3b, 0x90, 0x30, 0x6e, 0x40, 0x80, 0x43,
  0x30, 0x03, 0x80, 0x30, 0x30, 0x1d, 0x90, 0x43, 0x6e, 0x00, 0x90, 0x35,
  0x6e, 0x5e, 0x80, 0x43, 0x30, 0x02, 0x90, 0x45, 0x6e, 0x25, 0x80, 0x35,
  0x30, 0x39, 0x80, 0x45, 0x30, 0x02, 0x90, 0x35, 0x6e, 0x43, 0x80, 0x35,
  0x30, 0x1d, 0x90, 0x35, 0x6e, 0x43, 0x80, 0x35, 0x30, 0x1d, 0x90, 0x35,
  0x6e, 0x43, 0x80, 0x35, 0x30, 0x1d, 0x90, 0x35, 0x6e, 0x43, 0x80, 0x35,
  0x30, 0x1d, 0x90, 0x45, 0x6e, 0x00, 0x90, 0x32, 0x6e, 0x81, 0x05, 0x80,
  0x32, 0x30, 0x1b, 0x80, 0x45, 0x30, 0x20, 0x90, 0x45, 0x6e, 0x00, 0x90,
  0x32, 0x6e, 0x43, 0x80, 0x32, 0x30, 0x1d, 0x90, 0x32, 0x6e, 0x40, 0x80,
  0x45, 0x30, 0x20, 0x90, 0x45, 0x6e, 0x25, 0x80, 0x32, 0x30, 0x3b, 0x90,
  0x32, 0x6e, 0x40, 0x80, 0x45, 0x30, 0x03, 0x80, 0x32, 0x30, 0x1d, 0x90,
  0x46, 0x6e, 0x00, 0x90, 0x32, 0x6e, 0x5e, 0x80, 0x46, 0x30, 0x02, 0x90,
  0x45, 0x6e, 0x25, 0x80, 0x32, 0x30, 0x39, 0x80, 0x45, 0x30, 0x02, 0x90,
  0x32, 0x6e, 0x43, 0x80, 0x32, 0x30, 0x1d, 0x90, 0x32, 0x6e, 0x43, 0x80,
  0x32, 0x30, 0x1d, 0x90, 0x32, 0x6e, 0x43, 0x80, 0x32, 0x30, 0x1d, 0x90,
  0x32, 0x6e, 0x43, 0x80, 0x32, 0x30, 0x1d, 0x90, 0x43, 0x6e, 0x00, 0x90,
  0x2d, 0x6e, 0x81, 0x05, 0x80, 0x2d, 0x30, 0x1b, 0x80, 0x43, 0x30, 0x20,
  0x90, 0x41, 0x6e, 0x00, 0x90, 0x2d, 0x6e, 0x43, 0x80, 0x2d, 0x30, 0x1d,
  0x90, 0x2d, 0x6e, 0x40, 0x80, 0x41, 0x30, 0x20, 0x90, 0x40, 0x6e, 0x25,
  0x80, 0x2d, 0x30, 0x3b, 0x90, 0x2d, 0x6e, 0x40, 0x80, 0x40, 0x30, 0x03,
  0x80, 0x2d, 0x30, 0x1d, 0x90, 0x3e, 0x6e, 0x00, 0x90, 0x32, 0x6e, 0x81,
  0x05, 0x80, 0x32, 0x30, 0x1b, 0x80, 0x3e, 0x30, 0x20, 0x90, 0x32, 0x6e,
  0x43, 0x80, 0x32, 0x30, 0x1d, 0x90, 0x32, 0x6e, 0x60, 0x90, 0x3e, 0x6e,
  0x25, 0x80, 0x32, 0x30, 0x39, 0x80, 0x3e, 0x30, 0x02, 0x90, 0x40, 0x6e,
  0x00, 0x90, 0x32, 0x6e, 0x43, 0x80, 0x32, 0x30, 0x1b, 0x80, 0x40, 0x30,
  0x02, 0x90, 0x41, 0x6e, 0x00, 0x90, 0x32, 0x6e, 0x81, 0x05, 0x80, 0x32,
  0x30, 0x3b, 0x90, 0x32, 0x6e, 0x43, 0x80, 0x32, 0x30, 0x1d, 0x90, 0x32,
  0x6e, 0x30, 0x80, 0x41, 0x30, 0x30, 0x90, 0x43, 0x6e, 0x25, 0x80, 0x32,
  0x30, 0x39, 0x80, 0x43, 0x30, 0x02, 0x90, 0x45, 0x6e, 0x00, 0x90, 0x32,
  0x6e, 0x43, 0x80, 0x32, 0x30, 0x1b, 0x80, 0x45, 0x30, 0x02, 0x90, 0x43,
  0x6e, 0x00, 0x90, 0x30, 0x6e, 0x81, 0x05, 0x80, 0x30, 0x30, 0x1b, 0x80,
  0x43, 0x30, 0x20, 0x90, 0x41, 0x6e, 0x00, 0x90, 0x30, 0x6e, 0x43, 0x80,
  0x30, 0x30, 0x1d, 0x90, 0x30, 0x6e, 0x40, 0x80, 0x41, 0x30, 0x03, 0x80,
  0x30, 0x30, 0x1d, 0x90, 0x40, 0x6e, 0x00, 0x90, 0x30, 0x6e, 0x43, 0x80,
  0x30, 0x30, 0x1d, 0x90, 0x30, 0x6e, 0x40, 0x80, 0x40, 0x30, 0x03, 0x80,
  0x30, 0x30, 0x1d, 0x90, 0x41, 0x6e, 0x00, 0x90, 0x35, 0x6e, 0x81, 0x05,
  0x80, 0x35, 0x30, 0x1b, 0x80, 0x41, 0x30, 0x20, 0x90, 0x43, 0x6e, 0x00,
  0x90, 0x35, 0x6e, 0x43, 0x80, 0x35, 0x30, 0x1d, 0x90, 0x35, 0x6e, 0x40,
  0x80, 0x43, 0x30, 0x03, 0x80, 0x35, 0x30, 0x1d, 0x90, 0x45, 0x6e, 0x00,
  0x90, 0x35, 0x6e, 0x43, 0x80, 0x35, 0x30, 0x1d, 0x90, 0x35, 0x6e, 0x40,
  0x80, 0x45, 0x30, 0x03, 0x80, 0x35, 0x30, 0x1d, 0x90, 0x43, 0x6e, 0x00,
  0x90, 0x30, 0x6e, 0x81, 0x05, 0x80, 0x30, 0x30, 0x1b, 0x80, 0x43, 0x30,
  0x20, 0x90, 0x30, 0x6e, 0x43, 0x80, 0x30, 0x30, 0x1d, 0x90, 0x30, 0x6e,
  0x43, 0x80, 0x30, 0x30, 0x1d, 0x90, 0x41, 0x6e, 0x00, 0x90, 0x30, 0x6e,
  0x43, 0x80, 0x30, 0x30, 0x1b, 0x80, 0x41, 0x30, 0x02, 0x90, 0x43, 0x6e,
  0x00, 0x90, 0x30, 0x6e, 0x43, 0x80, 0x30, 0x30, 0x1b, 0x80, 0x43, 0x30,
  0x02, 0x90, 0x45, 0x6e, 0x00, 0x90, 0x35, 0x6e, 0x81, 0x05, 0x80, 0x35,
  0x30, 0x1b, 0x80, 0x45, 0x30, 0x20, 0x90, 0x35, 0x6e, 0x43, 0x80, 0x35,
  0x30, 0x1d, 0x90, 0x35, 0x6e, 0x43, 0x80, 0x35, 0x30, 0x1d, 0x90, 0x43,
  0x6e, 0x00, 0x90, 0x35, 0x6e, 0x43, 0x80, 0x35, 0x30, 0x1b, 0x80, 0x43,
  0x30, 0x02, 0x90, 0x41, 0x6e, 0x00, 0x90, 0x35, 0x6e, 0x43, 0x80, 0x35,
  0x30, 0x1b, 0x80, 0x41, 0x30, 0x02, 0x90, 0x40, 0x6e, 0x00, 0x90, 0x2d,
  0x6e, 0x81, 0x05, 0x80, 0x2d, 0x30, 0x1b, 0x80, 0x40, 0x30, 0x20, 0x90,
  0x41, 0x6e, 0x00, 0x90, 0x2d, 0x6e, 0x43, 0x80, 0x2d, 0x30, 0x1d, 0x90,
  0x2d, 0x6e, 0x40, 0x80, 0x41, 0x30, 0x03, 0x80, 0x2d, 0x30, 0x1d, 0x90,
  0x40, 0x6e, 0x00, 0x90, 0x2d, 0x6e, 0x43, 0x80, 0x2d, 0x30, 0x1d, 0x90,
  0x2d, 0x6e, 0x40, 0x80, 0x40, 0x30, 0x03, 0x80, 0x2d, 0x30, 0x1d, 0x90,
  0x3e, 0x6e, 0x00, 0x90, 0x32, 0x6e, 0x81, 0x05, 0x80, 0x32, 0x30, 0x1b,
  0x80, 0x3e, 0x30, 0x20, 0x90, 0x32, 0x6e, 0x43, 0x80, 0x32, 0x30, 0x1d,
  0x90, 0x32, 0x6e, 0x60, 0x90, 0x40, 0x6e, 0x25, 0x80, 0x32, 0x30, 0x39,
  0x80, 0x40, 0x30, 0x02, 0x90, 0x3c, 0x6e, 0x00, 0x90, 0x32, 0x6e, 0x43,
  0x80, 0x32, 0x30, 0x1b, 0x80, 0x3c, 0x30, 0x02, 0x90, 0x3e, 0x6e, 0x00,
  0x90, 0x32, 0x6e, 0x5e, 0x80, 0x3e, 0x30, 0x27, 0x80, 0x32, 0x30, 0x3b,
  0x90, 0x32, 0x6e, 0x43, 0x80, 0x32, 0x30, 0x1d, 0x90, 0x32, 0x6e, 0x43,
  0x80, 0x32, 0x30, 0x1d, 0x90, 0x4a, 0x6e, 0x00, 0x90, 0x32, 0x6e, 0x43,
  0x80, 0x32, 0x30, 0x1b, 0x80, 0x4a, 0x30, 0x02, 0x90, 0x4c, 0x6e, 0x00,
  0x90, 0x32, 0x6e, 0x43, 0x80, 0x32, 0x30, 0x1b, 0x80, 0x4c, 0x30, 0x02,
  0x90, 0x4d, 0x6e, 0x00, 0x90, 0x32, 0x6e, 0x81, 0x05, 0x80, 0x32, 0x30,
  0x1b, 0x80, 0x4d, 0x30, 0x20, 0x90, 0x32, 0x6e, 0x43, 0x80, 0x32, 0x30,
  0x1d, 0x90, 0x32, 0x6e, 0x43, 0x80, 0x32, 0x30, 0x1d, 0x90, 0x4c, 0x6e,
  0x00, 0x90, 0x32, 0x6e, 0x43, 0x80, 0x32, 0x30, 0x1b, 0x80, 0x4c, 0x30,
  0x02, 0x90, 0x4d, 0x6e, 0x00, 0x90, 0x32, 0x6e, 0x43, 0x80, 0x32, 0x30,
  0x1b, 0x80, 0x4d, 0x30, 0x02, 0x90, 0x4f, 0x6e, 0x00, 0x90, 0x30, 0x6e,
  0x81, 0x05, 0x80, 0x30, 0x30, 0x1b, 0x80, 0x4f, 0x30, 0x20, 0x90, 0x4d,
  0x6e, 0x00, 0x90, 0x30, 0x6e, 0x43, 0x80, 0x30, 0x30, 0x1d, 0x90, 0x30,
  0x6e, 0x40, 0x80, 0x4d, 0x30, 0x03, 0x80, 0x30, 0x30, 0x1d, 0x90, 0x4f,
  0x6e, 0x00, 0x90, 0x30, 0x6e, 0x43, 0x80, 0x30, 0x30, 0x1d, 0x90, 0x30,
  0x6e, 0x40, 0x80, 0x4f, 0x30, 0x03, 0x80, 0x30, 0x30, 0x1d, 0x90, 0x51,
  0x6e, 0x00, 0x90, 0x35, 0x6e, 0x81, 0x05, 0x80, 0x35, 0x30, 0x1b, 0x80,
  0x51, 0x30, 0x20, 0x90, 0x4f, 0x6e, 0x00, 0x90, 0x35, 0x6e, 0x43, 0x80,
  0x35, 0x30, 0x1d, 0x90, 0x35, 0x6e, 0x40, 0x80, 0x4f, 0x30, 0x03, 0x80,
  0x35, 0x30, 0x1d, 0x90, 0x4d, 0x6e, 0x00, 0x90, 0x35, 0x6e, 0x43, 0x80,
  0x35, 0x30, 0x1d, 0x90, 0x35, 0x6e, 0x40, 0x80, 0x4d, 0x30, 0x03, 0x80,
  0x35, 0x30, 0x1d, 0x90, 0x4a, 0x6e, 0x00, 0x90, 0x2e, 0x6e, 0x81, 0x05,
  0x80, 0x2e, 0x30, 0x1b, 0x80, 0x4a, 0x30, 0x20, 0x90, 0x2e, 0x6e, 0x43,
  0x80, 0x2e, 0x30, 0x1d, 0x90, 0x2e, 0x6e, 0x43, 0x80, 0x2e, 0x30, 0x1d,
  0x90, 0x4a, 0x6e, 0x00, 0x90, 0x2e, 0x6e, 0x43, 0x80, 0x2e, 0x30, 0x1b,
  0x80, 0x4a, 0x30, 0x02, 0x90, 0x4c, 0x6e, 0x00, 0x90, 0x2e, 0x6e, 0x43,
  0x80, 0x2e, 0x30, 0x1b, 0x80, 0x4c, 0x30, 0x02, 0x90, 0x4d, 0x6e, 0x00,
  0x90, 0x32, 0x6e, 0x81, 0x05, 0x80, 0x32, 0x30, 0x1b, 0x80, 0x4d, 0x30,
  0x20, 0x90, 0x4f, 0x6e, 0x00, 0x90, 0x32, 0x6e, 0x43, 0x80, 0x32, 0x30,
  0x1d, 0x90, 0x32, 0x6e, 0x40, 0x80, 0x4f, 0x30, 0x03, 0x80, 0x32, 0x30,
  0x1d, 0x90, 0x51, 0x6e, 0x00, 0x90, 0x32, 0x6e, 0x43, 0x80, 0x32, 0x30,
  0x1d, 0x90, 0x32, 0x6e, 0x40, 0x80, 0x51, 0x30, 0x03, 0x80, 0x32, 0x30,
  0x1d, 0x90, 0x52, 0x6e, 0x00, 0x90, 0x2b, 0x6e, 0x81, 0x05, 0x80, 0x2b,
  0x30, 0x1b, 0x80, 0x52, 0x30, 0x20, 0x90, 0x4a, 0x6e, 0x00, 0x90, 0x2b,
  0x6e, 0x43, 0x80, 0x2b, 0x30, 0x1d, 0x90, 0x2b, 0x6e, 0x40, 0x80, 0x4a,
  0x30, 0x03, 0x80, 0x2b, 0x30, 0x1d, 0x90, 0x4f, 0x6e, 0x00, 0x90, 0x2b,
  0x6e, 0x43, 0x80, 0x2b, 0x30, 0x1d, 0x90, 0x2b, 0x6e, 0x40, 0x80, 0x4f,
  0x30, 0x03, 0x80, 0x2b, 0x30, 0x1d, 0x90, 0x4d, 0x6e, 0x00, 0x90, 0x2d,
  0x6e, 0x81, 0x05, 0x80, 0x2d, 0x30, 0x1b, 0x80, 0x4d, 0x30, 0x20, 0x90,
  0x2d, 0x6e, 0x43, 0x80, 0x2d, 0x30, 0x1d, 0x90, 0x2d, 0x6e, 0x43, 0x80,
  0x2d, 0x30, 0x1d, 0x90, 0x4f, 0x6e, 0x00, 0x90, 0x2d, 0x6e, 0x43, 0x80,
  0x2d, 0x30, 0x1b, 0x80, 0x4f, 0x30, 0x02, 0x90, 0x4c, 0x6e, 0x00, 0x90,
  0x2d, 0x6e, 0x43, 0x80, 0x2d, 0x30, 0x1b, 0x80, 0x4c, 0x30, 0x02, 0x90,
  0x4a, 0x6e, 0x00, 0x90, 0x2d, 0x6e, 0x81, 0x05, 0x80, 0x2d, 0x30, 0x1b,
  0x80, 0x4a, 0x30, 0x20, 0x90, 0x2d, 0x6e, 0x43, 0x80, 0x2d, 0x30, 0x1d,
  0x90, 0x2d, 0x6e, 0x43, 0x80, 0x2d, 0x30, 0x1d, 0x90, 0x4c, 0x6e, 0x00,
  0x90, 0x2d, 0x6e, 0x43, 0x80, 0x2d, 0x30, 0x1b, 0x80, 0x4c, 0x30, 0x02,
  0x90, 0x49, 0x6e, 0x00, 0x90, 0x2d, 0x6e, 0x43, 0x80, 0x2d, 0x30, 0x1b,
  0x80, 0x49, 0x30, 0x02, 0x90, 0x51, 0x6e, 0x00, 0x90, 0x32, 0x6e, 0x81,
  0x05, 0x80, 0x32, 0x30, 0x1b, 0x80, 0x51, 0x30, 0x20, 0x90, 0x32, 0x6e,
  0x43, 0x80, 0x32, 0x30, 0x1d, 0x90, 0x32, 0x6e, 0x43, 0x80, 0x32, 0x30,
  0x1d, 0x90, 0x32, 0x6e, 0x43, 0x80, 0x32, 0x30, 0x1d, 0x90, 0x32, 0x6e,
  0x43, 0x80, 0x32, 0x30, 0x1d, 0x90, 0x52, 0x6e, 0x00, 0x90, 0x2b, 0x6e,
  0x81, 0x05, 0x80, 0x2b, 0x30, 0x1b, 0x80, 0x52, 0x30, 0x20, 0x90, 0x2b,
  0x6e, 0x43, 0x80, 0x2b, 0x30, 0x1d, 0x90, 0x2b, 0x6e, 0x43, 0x80, 0x2b,
  0x30, 0x1d, 0x90, 0x2b, 0x6e, 0x43, 0x80, 0x2b, 0x30, 0x1d, 0x90, 0x2b,
  0x6e, 0x43, 0x80, 0x2b, 0x30, 0x1d, 0x90, 0x51, 0x6e, 0x00, 0x90, 0x35,
  0x6e, 0x81, 0x05, 0x80, 0x35, 0x30, 0x1b, 0x80, 0x51, 0x30, 0x20, 0x90,
  0x51, 0x6e, 0x00, 0x90, 0x35, 0x6e, 0x43, 0x80, 0x35, 0x30, 0x1d, 0x90,
  0x35, 0x6e, 0x40, 0x80, 0x51, 0x30, 0x20, 0x90, 0x51, 0x6e, 0x25, 0x80,
  0x35, 0x30, 0x3b, 0x90, 0x35, 0x6e, 0x40, 0x80, 0x51, 0x30, 0x03, 0x80,
  0x35, 0x30, 0x1d, 0x90, 0x51, 0x6e, 0x00, 0x90, 0x30, 0x6e, 0x5e, 0x80,
  0x51, 0x30, 0x02, 0x90, 0x4f, 0x6e, 0x25, 0x80, 0x30, 0x30, 0x39, 0x80,
  0x4f, 0x30, 0x02, 0x90, 0x30, 0x6e, 0x43, 0x80, 0x30, 0x30, 0x1d, 0x90,
  0x30, 0x6e, 0x43, 0x80, 0x30, 0x30, 0x1d, 0x90, 0x30, 0x6e, 0x43, 0x80,
  0x30, 0x30, 0x1d, 0x90, 0x30, 0x6e, 0x43, 0x80, 0x30, 0x30, 0x1d, 0x90,
  0x4f, 0x6e, 0x00, 0x90, 0x2b, 0x6e, 0x81, 0x05, 0x80, 0x2b, 0x30, 0x1b,
  0x80, 0x4f, 0x30, 0x20, 0x90, 0x2b, 0x6e, 0x43, 0x80, 0x2b, 0x30, 0x1d,
  0x90, 0x2b, 0x6e, 0x43, 0x80, 0x2b, 0x30, 0x1d, 0x90, 0x2b, 0x6e, 0x43,
  0x80, 0x2b, 0x30, 0x1d, 0x90, 0x2b, 0x6e, 0x43, 0x80, 0x2b, 0x30, 0x1d,
  0x90, 0x4d, 0x6e, 0x00, 0x90, 0x2d, 0x6e, 0x81, 0x05, 0x80, 0x2d, 0x30,
  0x1b, 0x80, 0x4d, 0x30, 0x20, 0x90, 0x2d, 0x6e, 0x43, 0x80, 0x2d, 0x30,
  0x1d, 0x90, 0x2d, 0x6e, 0x43, 0x80, 0x2d, 0x30, 0x1d, 0x90, 0x2d, 0x6e,
  0x43, 0x80, 0x2d, 0x30, 0x1d, 0x90, 0x2d, 0x6e, 0x43, 0x80, 0x2d, 0x30,
  0x1d, 0x90, 0x4d, 0x6e, 0x00, 0x90, 0x2d, 0x6e, 0x81, 0x05, 0x80, 0x2d,
  0x30, 0x1b, 0x80, 0x4d, 0x30, 0x20, 0x90, 0x4f, 0x6e, 0x00, 0x90, 0x2d,
  0x6e, 0x43, 0x80, 0x2d, 0x30, 0x1d, 0x90, 0x2d, 0x6e, 0x40, 0x80, 0x4f,
  0x30, 0x03, 0x80, 0x2d, 0x30, 0x1d, 0x90, 0x4c, 0x6e, 0x00, 0x90, 0x2d,
  0x6e, 0x43, 0x80, 0x2d, 0x30, 0x1d, 0x90, 0x2d, 0x6e, 0x40, 0x80, 0x4c,
  0x30, 0x03, 0x80, 0x2d, 0x30, 0x1d, 0x90, 0x4a, 0x6e, 0x00, 0x90, 0x32,
  0x6e, 0x81, 0x05, 0x80, 0x32, 0x30, 0x3b, 0x90, 0x32, 0x6e, 0x40, 0x80,
  0x4a, 0x30, 0x03, 0x80, 0x32, 0x30, 0x1d, 0x90, 0x4a, 0x6e, 0x00, 0x90,
  0x32, 0x6e, 0x43, 0x80, 0x32, 0x30, 0x1b, 0x80, 0x4a, 0x30, 0x02, 0x90,
  0x4c, 0x6e, 0x00, 0x90, 0x32, 0x6e, 0x43, 0x80, 0x32, 0x30, 0x1b, 0x80,
  0x4c, 0x30, 0x02, 0x90, 0x4d, 0x6e, 0x00, 0x90, 0x32, 0x6e, 0x43, 0x80,
  0x32, 0x30, 0x1b, 0x80, 0x4d, 0x30, 0x02, 0x90, 0x51, 0x6e, 0x00, 0x90,
  0x32, 0x6e, 0x81, 0x05, 0x80, 0x32, 0x30, 0x3b, 0x90, 0x32, 0x6e, 0x40,
  0x80, 0x51, 0x30, 0x03, 0x80, 0x32, 0x30, 0x1d, 0x90, 0x4a, 0x6e, 0x00,
  0x90, 0x32, 0x6e, 0x43, 0x80, 0x32, 0x30, 0x1b, 0x80, 0x4a, 0x30, 0x02,
  0x90, 0x4c, 0x6e, 0x00, 0x90, 0x32, 0x6e, 0x43, 0x80, 0x32, 0x30, 0x1b,
  0x80, 0x4c, 0x30, 0x02, 0x90, 0x4d, 0x6e, 0x00, 0x90, 0x32, 0x6e, 0x43,
  0x80, 0x32, 0x30, 0x1b, 0x80, 0x4d, 0x30, 0x02, 0x90, 0x52, 0x6e, 0x00,
  0x90, 0x2e, 0x6e, 0x81, 0x05, 0x80, 0x2e, 0x30, 0x3b, 0x90, 0x2e, 0x6e,
  0x40, 0x80, 0x52, 0x30, 0x03, 0x80, 0x2e, 0x30, 0x1d, 0x90, 0x4a, 0x6e,
  0x00, 0x90, 0x2e, 0x6e, 0x43, 0x80, 0x2e, 0x30, 0x1b, 0x80, 0x4a, 0x30,
  0x02, 0x90, 0x4c, 0x6e, 0x00, 0x90, 0x2e, 0x6e, 0x43, 0x80, 0x2e, 0x30,
  0x1b, 0x80, 0x4c, 0x30, 0x02, 0x90, 0x4d, 0x6e, 0x00, 0x90, 0x2e, 0x6e,
  0x43, 0x80, 0x2e, 0x30, 0x1b, 0x80, 0x4d, 0x30, 0x02, 0x90, 0x51, 0x6e,
  0x00, 0x90, 0x35, 0x6e, 0x81, 0x05, 0x80, 0x35, 0x30, 0x1b, 0x80, 0x51,
  0x30, 0x20, 0x90, 0x51, 0x6e, 0x00, 0x90, 0x35, 0x6e, 0x43, 0x80, 0x35,
  0x30, 0x1d, 0x90, 0x35, 0x6e, 0x40, 0x80, 0x51, 0x30, 0x03, 0x80, 0x35,
  0x30, 0x1d, 0x90, 0x54, 0x6e, 0x00, 0x90, 0x35, 0x6e, 0x43, 0x80, 0x35,
  0x30, 0x1d, 0x90, 0x35, 0x6e, 0x40, 0x80, 0x54, 0x30, 0x03, 0x80, 0x35,
  0x30, 0x1d, 0x90, 0x51, 0x6e, 0x00, 0x90, 0x30, 0x6e, 0x5e, 0x80, 0x51,
  0x30, 0x02, 0x90, 0x4f, 0x6e, 0x25, 0x80, 0x30, 0x30, 0x39, 0x80, 0x4f,
  0x30, 0x02, 0x90, 0x30, 0x6e, 0x43, 0x80, 0x30, 0x30, 0x1d, 0x90, 0x30,
  0x6e, 0x43, 0x80, 0x30, 0x30, 0x1d, 0x90, 0x30, 0x6e, 0x43, 0x80, 0x30,
  0x30, 0x1d, 0x90, 0x30, 0x6e, 0x43, 0x80, 0x30, 0x30, 0x1d, 0x90, 0x4f,
  0x6e, 0x00, 0x90, 0x2b, 0x6e, 0x81, 0x05, 0x80, 0x2b, 0x30, 0x1b, 0x80,
  0x4f, 0x30, 0x20, 0x90, 0x2b, 0x6e, 0x43, 0x80, 0x2b, 0x30, 0x1d, 0x90,
  0x2b, 0x6e, 0x43, 0x80, 0x2b, 0x30, 0x1d, 0x90, 0x2b, 0x6e, 0x43, 0x80,
  0x2b, 0x30, 0x1d, 0x90, 0x2b, 0x6e, 0x43, 0x80, 0x2b, 0x30, 0x1d, 0x90,
  0x4d, 0x6e, 0x00, 0x90, 0x2d, 0x6e, 0x81, 0x05, 0x80, 0x2d, 0x30, 0x1b,
  0x80, 0x4d, 0x30, 0x20, 0x90, 0x2d, 0x6e, 0x43, 0x80, 0x2d, 0x30, 0x1d,
  0x90, 0x2d, 0x6e, 0x43, 0x80, 0x2d, 0x30, 0x1d, 0x90, 0x2d, 0x6e, 0x43,
  0x80, 0x2d, 0x30, 0x1d, 0x90, 0x2d, 0x6e, 0x43, 0x80, 0x2d, 0x30, 0x1d,
  0x90, 0x4d, 0x6e, 0x00, 0x90, 0x2d, 0x6e, 0x81, 0x05, 0x80, 0x2d, 0x30,
  0x1b, 0x80, 0x4d, 0x30, 0x20, 0x90, 0x4f, 0x6e, 0x00, 0x90, 0x2d, 0x6e,
  0x43, 0x80, 0x2d, 0x30, 0x1d, 0x90, 0x2d, 0x6e, 0x40, 0x80, 0x4f, 0x30,
  0x03, 0x80, 0x2d, 0x30, 0x1d, 0x90, 0x4c, 0x6e, 0x00, 0x90, 0x2d, 0x6e,
  0x43, 0x80, 0x2d, 0x30, 0x1d, 0x90, 0x2d, 0x6e, 0x40, 0x80, 0x4c, 0x30,
  0x03, 0x80, 0x2d, 0x30, 0x1d, 0x90, 0x4a, 0x6e, 0x00, 0x90, 0x32, 0x6e,
  0x00, 0x90, 0x26, 0x6e, 0x81, 0x65, 0x80, 0x32, 0x30, 0x00, 0x80, 0x26,
  0x30, 0x1b, 0x80, 0x4a, 0x30, 0x20, 0x90, 0x32, 0x6e, 0x00, 0x90, 0x26,
  0x6e, 0x43, 0x80, 0x32, 0x30, 0x00, 0x80, 0x26, 0x30, 0x1d, 0x90, 0x32,
  0x6e, 0x00, 0x90, 0x26, 0x6e, 0x43, 0x80, 0x32, 0x30, 0x00, 0x80, 0x26,
  0x30, 0x1d, 0x90, 0x32, 0x6e, 0x00, 0x90, 0x26, 0x6e, 0x43, 0x80, 0x32,
  0x30, 0x00, 0x80, 0x26, 0x30, 0x1d, 0x90, 0x3e, 0x6e, 0x00, 0x90, 0x26,
  0x6e, 0x85, 0x35, 0x80, 0x26, 0x30, 0x1b, 0x80, 0x3e, 0x30, 0x40, 0xff,
  0x2f, 0x00
};
