// Sweet Home Alabama
{
  0x4d, 0x54, 0x68, 0x64, 0x00, 0x00, 0x00, 0x06, 0x00, 0x01, 0x00, 0x02,
  0x01, 0x80, 0x4d, 0x54, 0x72, 0x6b, 0x00, 0x00, 0x00, 0x8c, 0x00, 0xff,
  0x7f, 0x34, 0x05, 0x0f, 0x12, 0x03, 0x03, 0x7f, 0x7f, 0x00, 0xff, 0x01,
  0x04, 0x28, 0x53, 0x70, 0x65, 0x61, 0x6b, 0x65, 0x72, 0x73, 0x20, 0x28,
  0x52, 0x65, 0x61, 0x6c, 0x74, 0x65, 0x6b, 0x20, 0x48, 0x69, 0x67, 0x68,
  0x20, 0x44, 0x65, 0x66, 0x69, 0x6e, 0x69, 0x74, 0x69, 0x6f, 0x6e, 0x20,
  0x41, 0x75, 0x64, 0x69, 0x6f, 0x29, 0x00, 0xff, 0x7f, 0x0f, 0x05, 0x0f,
  0x1c, 0x32, 0x30, 0x31, 0x33, 0x2e, 0x31, 0x30, 0x2e, 0x30, 0x33, 0x01,
  0x03, 0x00, 0xff, 0x7f, 0x2a, 0x05, 0x0f, 0x2d, 0x4d, 0x69, 0x63, 0x72,
  0x6f, 0x73, 0x6f, 0x66, 0x74, 0x20, 0x53, 0x61, 0x6e, 0x73, 0x20, 0x53,
  0x65, 0x72, 0x69, 0x66, 0x2c, 0x38, 0x2e, 0x32, 0x35, 0x2c, 0x46, 0x61,
  0x6c, 0x73, 0x65, 0x2c, 0x46, 0x61, 0x6c, 0x73, 0x65, 0x2c, 0x31, 0x00,
  0xff, 0x51, 0x03, 0x09, 0xa3, 0x12, 0x00, 0xff, 0x58, 0x04, 0x04, 0x02,
  0x18, 0x08, 0x00, 0xff, 0x2f, 0x00, 0x4d, 0x54, 0x72, 0x6b, 0x00, 0x00,
  0x32, 0xf9, 0x00, 0xff, 0x7f, 0x62, 0x05, 0x0f, 0x23, 0x01, 0x00, 0x00,
  0x01, 0x02, 0x01, 0x00, 0x00, 0x24, 0x00, 0x4f, 0x00, 0x4e, 0x00, 0x4d,
  0x00, 0x4c, 0x00, 0x4b, 0x00, 0x4a, 0x00, 0x49, 0x00, 0x48, 0x00, 0x47,
  0x00, 0x46, 0x00, 0x45, 0x00, 0x44, 0x00, 0x43, 0x00, 0x42, 0x00, 0x41,
  0x00, 0x40, 0x00, 0x3f, 0x00, 0x3e, 0x00, 0x3d, 0x00, 0x3c, 0x00, 0x3b,
  0x00, 0x3a, 0x00, 0x39, 0x00, 0x38, 0x00, 0x37, 0x00, 0x36, 0x00, 0x35,
  0x00, 0x34, 0x00, 0x33, 0x00, 0x32, 0x00, 0x31, 0x00, 0x30, 0x00, 0x2f,
  0x00, 0x2e, 0x00, 0x2d, 0x00, 0x2c, 0x00, 0x2b, 0x00, 0x25, 0x00, 0x00,
  0x00, 0x00, 0x00, 0x04, 0x00, 0x02, 0x00, 0x01, 0x00, 0xff, 0x03, 0x14,
  0x42, 0x79, 0x20, 0x46, 0x69, 0x64, 0x64, 0x79, 0x20, 0x31, 0x32, 0x2f,
  0x31, 0x32, 0x2f, 0x2f, 0x32, 0x30, 0x31, 0x33, 0x00, 0xff, 0x20, 0x01,
  0x00, 0x00, 0xff, 0x7f, 0x05, 0x05, 0x0f, 0x09, 0x4c, 0x48, 0x00, 0xb0,
  0x0a, 0x3f, 0x00, 0xb0, 0x07, 0x7f, 0x00, 0xb0, 0x07, 0x7f, 0x00, 0xb0,
  0x0a, 0x3f, 0x00, 0xc0, 0x00, 0x00, 0xb0, 0x0a, 0x3f, 0x00, 0xff, 0x7f,
  0x0f, 0x05, 0x0f, 0x06, 0x47, 0x65, 0x6e, 0x65, 0x72, 0x61, 0x6c, 0x20,
  0x4d, 0x49, 0x44, 0x49, 0x00, 0xb0, 0x07, 0x7f, 0x83, 0x0c, 0xb0, 0x79,
  0x00, 0x0c, 0xb0, 0x79, 0x00, 0x81, 0x1c, 0xb0, 0x0b, 0x7f, 0x04, 0xb0,
  0x5b, 0x7f, 0x04, 0xb0, 0x5d, 0x00, 0x58, 0xb0, 0x0b, 0x7f, 0x04, 0xb0,
  0x5b, 0x7f, 0x04, 0xb0, 0x5d, 0x7f, 0x84, 0x40, 0xb0, 0x65, 0x00, 0x04,
  0xb0, 0x64, 0x00, 0x04, 0xb0, 0x06, 0x02, 0x04, 0xb0, 0x65, 0x00, 0x04,
  0xb0, 0x64, 0x02, 0x04, 0xb0, 0x06, 0x40, 0x04, 0xb0, 0x65, 0x7f, 0x04,
  0xb0, 0x64, 0x7f, 0x44, 0xb0, 0x65, 0x00, 0x04, 0xb0, 0x64, 0x00, 0x04,
  0xb0, 0x06, 0x02, 0x04, 0xb0, 0x65, 0x00, 0x04, 0xb0, 0x64, 0x02, 0x04,
  0xb0, 0x06, 0x40, 0x04, 0xb0, 0x65, 0x7f, 0x04, 0xb0, 0x64, 0x7f, 0x8d,
  0x24, 0x90, 0x32, 0x4b, 0x2c, 0x80, 0x32, 0x4b, 0x81, 0x18, 0x90, 0x32,
  0x4b, 0x81, 0x3c, 0x90, 0x3e, 0x4b, 0x04, 0x80, 0x32, 0x00, 0x60, 0x90,
  0x39, 0x4b, 0x81, 0x3e, 0x90, 0x32, 0x4b, 0x02, 0x80, 0x39, 0x00, 0x58,
  0x80, 0x32, 0x4b, 0x04, 0x90, 0x30, 0x4b, 0x1e, 0x80, 0x3e, 0x4b, 0x26,
  0x80, 0x30, 0x4b, 0x7e, 0x90, 0x30, 0x4b, 0x81, 0x40, 0x90, 0x3e, 0x4b,
  0x82, 0x24, 0x90, 0x32, 0x4b, 0x12, 0x80, 0x30, 0x4b, 0x1e, 0x80, 0x32,
  0x4b, 0x2c, 0x90, 0x2b, 0x4b, 0x40, 0x80, 0x2b, 0x4b, 0x81, 0x00, 0x90,
  0x2b, 0x4d, 0x26, 0x80, 0x3e, 0x4b, 0x81, 0x1e, 0x90, 0x3e, 0x4b, 0x82,
  0x3a, 0x80, 0x2b, 0x4d, 0x42, 0x90, 0x2d, 0x4b, 0x60, 0x90, 0x2e, 0x4b,
  0x14, 0x80, 0x2d, 0x4b, 0x40, 0x80, 0x2e, 0x4b, 0x0c, 0x90, 0x2f, 0x4b,
  0x1e, 0x80, 0x3e, 0x4b, 0x46, 0x90, 0x32, 0x4b, 0x2c, 0x80, 0x2f, 0x4b,
  0x34, 0x90, 0x34, 0x4b, 0x04, 0x80, 0x32, 0x4b, 0x58, 0x90, 0x32, 0x4b,
  0x0a, 0x80, 0x34, 0x4b, 0x56, 0x90, 0x2e, 0x4b, 0x04, 0x80, 0x32, 0x4b,
  0x5e, 0x90, 0x2f, 0x4b, 0x1e, 0x80, 0x2e, 0x4b, 0x36, 0x80, 0x2f, 0x4b,
  0x10, 0x90, 0x32, 0x4b, 0x50, 0x80, 0x32, 0x4b, 0x6c, 0x90, 0x32, 0x4b,
  0x81, 0x3e, 0x90, 0x3e, 0x4d, 0x62, 0x80, 0x32, 0x00, 0x00, 0x90, 0x39,
  0x4b, 0x81, 0x40, 0x80, 0x39, 0x00, 0x02, 0x90, 0x32, 0x4b, 0x40, 0x80,
  0x32, 0x4b, 0x1e, 0x90, 0x30, 0x4b, 0x1e, 0x80, 0x3e, 0x4d, 0x26, 0x80,
  0x30, 0x4b, 0x7a, 0x90, 0x30, 0x4b, 0x81, 0x40, 0x90, 0x3e, 0x4b, 0x82,
  0x24, 0x90, 0x32, 0x4b, 0x0c, 0x80, 0x30, 0x4b, 0x2c, 0x80, 0x32, 0x4b,
  0x28, 0x90, 0x2b, 0x4b, 0x36, 0x80, 0x2b, 0x4b, 0x38, 0x80, 0x3e, 0x4b,
  0x52, 0x90, 0x2b, 0x4b, 0x81, 0x40, 0x90, 0x3e, 0x4b, 0x81, 0x70, 0x80,
  0x3e, 0x4b, 0x72, 0x80, 0x2b, 0x4b, 0x1a, 0x90, 0x2f, 0x4b, 0x60, 0x90,
  0x2b, 0x4b, 0x38, 0x80, 0x2b, 0x4b, 0x12, 0x80, 0x2f, 0x4b, 0x16, 0x90,
  0x2b, 0x4b, 0x60, 0x90, 0x30, 0x4f, 0x08, 0x80, 0x2b, 0x4b, 0x58, 0x90,
  0x2b, 0x4b, 0x36, 0x80, 0x2b, 0x4b, 0x24, 0x80, 0x30, 0x4f, 0x08, 0x90,
  0x2b, 0x4b, 0x62, 0x90, 0x31, 0x4d, 0x0a, 0x80, 0x2b, 0x4b, 0x52, 0x90,
  0x2b, 0x4b, 0x28, 0x80, 0x31, 0x4d, 0x08, 0x80, 0x2b, 0x4b, 0x34, 0x90,
  0x32, 0x54, 0x32, 0x80, 0x32, 0x54, 0x81, 0x0c, 0x90, 0x32, 0x4d, 0x81,
  0x3e, 0x90, 0x3e, 0x4d, 0x62, 0x80, 0x32, 0x00, 0x00, 0x90, 0x39, 0x4b,
  0x81, 0x40, 0x80, 0x39, 0x00, 0x04, 0x90, 0x32, 0x4b, 0x38, 0x80, 0x32,
  0x4b, 0x26, 0x90, 0x30, 0x4b, 0x3a, 0x80, 0x3e, 0x4d, 0x02, 0x80, 0x30,
  0x4b, 0x81, 0x02, 0x90, 0x30, 0x4b, 0x81, 0x42, 0x90, 0x3e, 0x4b, 0x82,
  0x1e, 0x80, 0x30, 0x4b, 0x02, 0x90, 0x32, 0x4b, 0x36, 0x80, 0x32, 0x4b,
  0x2a, 0x90, 0x2b, 0x4b, 0x12, 0x80, 0x3e, 0x4b, 0x2c, 0x80, 0x2b, 0x4b,
  0x81, 0x00, 0x90, 0x2b, 0x4d, 0x81, 0x40, 0x80, 0x2b, 0x00, 0x00, 0x90,
  0x37, 0x4f, 0x02, 0x90, 0x3e, 0x4b, 0x82, 0x7e, 0x80, 0x37, 0x00, 0x02,
  0x90, 0x2b, 0x4b, 0x30, 0x80, 0x3e, 0x4b, 0x00, 0x80, 0x2b, 0x4b, 0x81,
  0x0e, 0x90, 0x2b, 0x4b, 0x60, 0x80, 0x2b, 0x00, 0x62, 0x90, 0x3e, 0x4b,
  0x81, 0x40, 0x90, 0x2f, 0x4b, 0x58, 0x80, 0x2f, 0x4b, 0x04, 0x90, 0x30,
  0x4b, 0x4e, 0x80, 0x30, 0x4b, 0x12, 0x90, 0x32, 0x4b, 0x3a, 0x80, 0x3e,
  0x4b, 0x08, 0x80, 0x32, 0x4b, 0x81, 0x00, 0x90, 0x32, 0x49, 0x81, 0x42,
  0x90, 0x3e, 0x4b, 0x5c, 0x90, 0x39, 0x4b, 0x02, 0x80, 0x32, 0x00, 0x81,
  0x32, 0x80, 0x39, 0x4b, 0x0e, 0x90, 0x37, 0x4b, 0x60, 0x80, 0x37, 0x00,
  0x02, 0x90, 0x30, 0x4b, 0x4a, 0x80, 0x3e, 0x4b, 0x02, 0x80, 0x30, 0x4b,
  0x72, 0x90, 0x30, 0x4b, 0x81, 0x40, 0x80, 0x30, 0x00, 0x00, 0x90, 0x37,
  0x4b, 0x02, 0x90, 0x3e, 0x4b, 0x82, 0x1e, 0x80, 0x37, 0x00, 0x04, 0x90,
  0x32, 0x4b, 0x26, 0x80, 0x32, 0x4b, 0x3a, 0x90, 0x2b, 0x4b, 0x38, 0x80,
  0x2b, 0x4b, 0x28, 0x80, 0x3e, 0x4b, 0x5e, 0x90, 0x2b, 0x4b, 0x81, 0x40,
  0x90, 0x3e, 0x4b, 0x81, 0x78, 0x80, 0x2b, 0x4b, 0x81, 0x04, 0x90, 0x2b,
  0x4b, 0x2a, 0x80, 0x2b, 0x4b, 0x81, 0x1a, 0x90, 0x2b, 0x4b, 0x70, 0x80,
  0x3e, 0x4b, 0x52, 0x90, 0x3e, 0x4d, 0x81, 0x3e, 0x90, 0x2f, 0x4b, 0x0c,
  0x80, 0x2b, 0x4b, 0x50, 0x90, 0x30, 0x4b, 0x06, 0x80, 0x2f, 0x4b, 0x36,
  0x80, 0x30, 0x4b, 0x28, 0x90, 0x32, 0x4b, 0x24, 0x80, 0x3e, 0x4d, 0x16,
  0x80, 0x32, 0x4b, 0x81, 0x04, 0x90, 0x32, 0x4b, 0x81, 0x40, 0x80, 0x32,
  0x00, 0x08, 0x90, 0x4c, 0x7e, 0x0c, 0xe0, 0x00, 0x47, 0x06, 0xe0, 0x60,
  0x4d, 0x05, 0xe0, 0x60, 0x56, 0x06, 0xe0, 0x10, 0x5e, 0x06, 0xe0, 0x30,
  0x64, 0x06, 0xe0, 0x00, 0x6a, 0x07, 0xe0, 0x50, 0x70, 0x05, 0xe0, 0x40,
  0x74, 0x06, 0xe0, 0x70, 0x79, 0x07, 0xe0, 0x20, 0x7e, 0x06, 0xe0, 0x7f,
  0x7f, 0x81, 0x62, 0x80, 0x4c, 0x7e, 0x31, 0xe0, 0x20, 0x7c, 0x06, 0xe0,
  0x00, 0x6d, 0x06, 0xe0, 0x40, 0x58, 0x06, 0xe0, 0x50, 0x43, 0x01, 0x90,
  0x4c, 0x7f, 0x05, 0xe0, 0x00, 0x40, 0x5f, 0x90, 0x4a, 0x69, 0x16, 0x80,
  0x4c, 0x7f, 0x81, 0x28, 0x80, 0x4a, 0x69, 0x66, 0x90, 0x4a, 0x7e, 0x66,
  0x90, 0x47, 0x75, 0x09, 0x80, 0x4a, 0x7e, 0x6b, 0x80, 0x47, 0x75, 0x5e,
  0x90, 0x4a, 0x7f, 0x81, 0x64, 0x80, 0x4a, 0x7f, 0x0b, 0x90, 0x45, 0x67,
  0x1a, 0xe0, 0x50, 0x4b, 0x07, 0xe0, 0x70, 0x58, 0x06, 0xe0, 0x20, 0x65,
  0x06, 0xe0, 0x60, 0x72, 0x06, 0xe0, 0x50, 0x7d, 0x06, 0xe0, 0x7f, 0x7f,
  0x81, 0x4d, 0xb0, 0x01, 0x01, 0x07, 0xb0, 0x01, 0x10, 0x06, 0xb0, 0x01,
  0x20, 0x06, 0xb0, 0x01, 0x31, 0x06, 0xb0, 0x01, 0x3e, 0x06, 0xb0, 0x01,
  0x4a, 0x06, 0xb0, 0x01, 0x57, 0x06, 0xb0, 0x01, 0x62, 0x06, 0xb0, 0x01,
  0x6b, 0x07, 0xb0, 0x01, 0x6f, 0x06, 0xb0, 0x01, 0x6b, 0x06, 0xb0, 0x01,
  0x5b, 0x05, 0xb0, 0x01, 0x41, 0x07, 0xb0, 0x01, 0x22, 0x06, 0xb0, 0x01,
  0x09, 0x07, 0xb0, 0x01, 0x00, 0x19, 0x80, 0x45, 0x67, 0x1f, 0x90, 0x3e,
  0x4b, 0x2d, 0xe0, 0x30, 0x7a, 0x06, 0xe0, 0x20, 0x70, 0x06, 0xe0, 0x20,
  0x63, 0x06, 0xe0, 0x40, 0x55, 0x06, 0xe0, 0x10, 0x48, 0x07, 0xe0, 0x00,
  0x40, 0x72, 0x90, 0x2b, 0x4b, 0x28, 0x80, 0x2b, 0x4b, 0x81, 0x18, 0x90,
  0x2b, 0x4d, 0x02, 0x80, 0x3e, 0x00, 0x81, 0x40, 0x90, 0x3e, 0x4b, 0x81,
  0x0a, 0x80, 0x2b, 0x4d, 0x38, 0x90, 0x30, 0x4b, 0x5a, 0x80, 0x30, 0x4b,
  0x04, 0x90, 0x31, 0x4b, 0x44, 0x80, 0x31, 0x4b, 0x1e, 0x90, 0x32, 0x4b,
  0x3a, 0x80, 0x32, 0x4b, 0x18, 0x80, 0x3e, 0x4b, 0x6c, 0x90, 0x32, 0x4b,
  0x81, 0x32, 0xe0, 0x30, 0x43, 0x0c, 0xe0, 0x40, 0x53, 0x02, 0x80, 0x32,
  0x00, 0x01, 0x90, 0x4c, 0x7f, 0x06, 0xe0, 0x00, 0x63, 0x07, 0xe0, 0x40,
  0x69, 0x05, 0xe0, 0x40, 0x71, 0x06, 0xe0, 0x00, 0x79, 0x07, 0xe0, 0x7f,
  0x7f, 0x19, 0x80, 0x4c, 0x7f, 0x29, 0x90, 0x4c, 0x7f, 0x2f, 0x80, 0x4c,
  0x7f, 0x2a, 0x90, 0x4c, 0x7f, 0x2e, 0x80, 0x4c, 0x7f, 0x29, 0x90, 0x4c,
  0x7f, 0x27, 0xe0, 0x30, 0x77, 0x07, 0xe0, 0x30, 0x65, 0x06, 0xe0, 0x30,
  0x53, 0x06, 0xe0, 0x00, 0x40, 0x81, 0x59, 0x80, 0x4c, 0x7f, 0x09, 0x90,
  0x4a, 0x7f, 0x2f, 0x80, 0x4a, 0x7f, 0x81, 0x16, 0x90, 0x4a, 0x7f, 0x81,
  0x42, 0x80, 0x4a, 0x7f, 0x00, 0x90, 0x47, 0x6f, 0x33, 0x80, 0x47, 0x6f,
  0x38, 0x90, 0x4a, 0x7f, 0x81, 0x5d, 0xb0, 0x01, 0x12, 0x06, 0xb0, 0x01,
  0x26, 0x05, 0xb0, 0x01, 0x38, 0x07, 0xb0, 0x01, 0x4a, 0x06, 0xb0, 0x01,
  0x5b, 0x06, 0xb0, 0x01, 0x68, 0x07, 0xb0, 0x01, 0x73, 0x06, 0xb0, 0x01,
  0x7a, 0x05, 0xb0, 0x01, 0x7f, 0x3c, 0xb0, 0x01, 0x7c, 0x06, 0xb0, 0x01,
  0x5d, 0x07, 0xb0, 0x01, 0x35, 0x05, 0xb0, 0x01, 0x09, 0x07, 0xb0, 0x01,
  0x00, 0x04, 0x80, 0x4a, 0x7f, 0x1a, 0x90, 0x2b, 0x4b, 0x62, 0x90, 0x3e,
  0x4b, 0x81, 0x3e, 0x80, 0x2b, 0x00, 0x81, 0x40, 0x90, 0x2b, 0x4b, 0x18,
  0x80, 0x3e, 0x4b, 0x12, 0x80, 0x2b, 0x4b, 0x81, 0x16, 0x90, 0x2b, 0x4b,
  0x81, 0x42, 0x90, 0x3e, 0x4b, 0x81, 0x02, 0x80, 0x2b, 0x4b, 0x40, 0x90,
  0x30, 0x4b, 0x42, 0x80, 0x30, 0x4b, 0x1e, 0x90, 0x31, 0x4b, 0x26, 0x80,
  0x31, 0x4b, 0x34, 0x90, 0x32, 0x4b, 0x42, 0x80, 0x32, 0x4b, 0x72, 0x80,
  0x3e, 0x4b, 0x0e, 0x90, 0x32, 0x4d, 0x81, 0x3f, 0x90, 0x4c, 0x7f, 0x01,
  0x80, 0x32, 0x00, 0x03, 0xe0, 0x00, 0x52, 0x06, 0xe0, 0x20, 0x5a, 0x06,
  0xe0, 0x70, 0x60, 0x06, 0xe0, 0x00, 0x67, 0x06, 0xe0, 0x20, 0x6e, 0x06,
  0xe0, 0x00, 0x73, 0x06, 0xe0, 0x30, 0x78, 0x06, 0xe0, 0x20, 0x7e, 0x06,
  0xe0, 0x7f, 0x7f, 0x01, 0x80, 0x4c, 0x7f, 0x2b, 0x90, 0x4c, 0x7f, 0x81,
  0x02, 0x80, 0x4c, 0x7f, 0x39, 0xe0, 0x20, 0x74, 0x07, 0xe0, 0x20, 0x65,
  0x02, 0x90, 0x4c, 0x7f, 0x04, 0xe0, 0x60, 0x53, 0x06, 0xe0, 0x50, 0x43,
  0x06, 0xe0, 0x00, 0x40, 0x81, 0x7f, 0x90, 0x4a, 0x7e, 0x11, 0x80, 0x4c,
  0x7f, 0x1b, 0x80, 0x4a, 0x7e, 0x40, 0x90, 0x4a, 0x7f, 0x82, 0x08, 0x80,
  0x4a, 0x7f, 0x08, 0x90, 0x47, 0x6f, 0x2e, 0x80, 0x47, 0x6f, 0x3b, 0x90,
  0x4a, 0x7e, 0x82, 0x0f, 0x80, 0x4a, 0x7e, 0x07, 0x90, 0x45, 0x6f, 0x17,
  0xe0, 0x70, 0x51, 0x06, 0xe0, 0x00, 0x5f, 0x07, 0xe0, 0x10, 0x69, 0x05,
  0xe0, 0x10, 0x6f, 0x06, 0xe0, 0x70, 0x73, 0x06, 0xe0, 0x10, 0x78, 0x07,
  0xe0, 0x40, 0x7c, 0x06, 0xe0, 0x7f, 0x7f, 0x81, 0x6a, 0xb0, 0x01, 0x03,
  0x0d, 0xb0, 0x01, 0x07, 0x06, 0xb0, 0x01, 0x10, 0x06, 0xb0, 0x01, 0x17,
  0x06, 0xb0, 0x01, 0x1d, 0x07, 0xb0, 0x01, 0x1f, 0x05, 0xb0, 0x01, 0x20,
  0x12, 0xb0, 0x01, 0x22, 0x06, 0xb0, 0x01, 0x17, 0x06, 0xb0, 0x01, 0x05,
  0x06, 0xb0, 0x01, 0x03, 0x06, 0xb0, 0x01, 0x10, 0x07, 0xb0, 0x01, 0x12,
  0x05, 0xb0, 0x01, 0x07, 0x07, 0xb0, 0x01, 0x05, 0x06, 0xb0, 0x01, 0x0a,
  0x06, 0xb0, 0x01, 0x09, 0x06, 0xb0, 0x01, 0x0e, 0x07, 0xb0, 0x01, 0x17,
  0x06, 0xb0, 0x01, 0x1d, 0x06, 0xb0, 0x01, 0x20, 0x05, 0xb0, 0x01, 0x22,
  0x06, 0xb0, 0x01, 0x26, 0x06, 0xb0, 0x01, 0x28, 0x06, 0xb0, 0x01, 0x2a,
  0x0c, 0xb0, 0x01, 0x26, 0x06, 0xb0, 0x01, 0x14, 0x06, 0xb0, 0x01, 0x03,
  0x0a, 0x80, 0x45, 0x6f, 0x03, 0xb0, 0x01, 0x00, 0x5f, 0xe0, 0x60, 0x7c,
  0x06, 0xe0, 0x50, 0x75, 0x06, 0xe0, 0x50, 0x6d, 0x06, 0xe0, 0x30, 0x65,
  0x06, 0xe0, 0x20, 0x5b, 0x06, 0xe0, 0x00, 0x51, 0x07, 0xe0, 0x40, 0x48,
  0x05, 0xe0, 0x00, 0x41, 0x07, 0xe0, 0x00, 0x40, 0x81, 0x10, 0x90, 0x2b,
  0x4b, 0x81, 0x40, 0x90, 0x3e, 0x4b, 0x81, 0x0a, 0x80, 0x2b, 0x4b, 0x38,
  0x90, 0x30, 0x4b, 0x5e, 0x90, 0x31, 0x4b, 0x02, 0x80, 0x30, 0x4b, 0x38,
  0x80, 0x31, 0x4b, 0x26, 0x90, 0x32, 0x4b, 0x3a, 0x80, 0x3e, 0x4b, 0x02,
  0x80, 0x32, 0x4b, 0x81, 0x02, 0x90, 0x32, 0x4f, 0x60, 0x80, 0x32, 0x00,
  0x04, 0x90, 0x4a, 0x7e, 0x53, 0x80, 0x4a, 0x7e, 0x03, 0x90, 0x4c, 0x7f,
  0x0e, 0xe0, 0x10, 0x4e, 0x07, 0xe0, 0x20, 0x5a, 0x06, 0xe0, 0x50, 0x65,
  0x06, 0xe0, 0x70, 0x6e, 0x07, 0xe0, 0x40, 0x77, 0x06, 0xe0, 0x20, 0x7e,
  0x06, 0xe0, 0x7f, 0x7f, 0x13, 0x80, 0x4c, 0x7f, 0x29, 0x90, 0x4c, 0x7f,
  0x78, 0x80, 0x4c, 0x7f, 0x1e, 0xe0, 0x60, 0x7c, 0x07, 0xe0, 0x30, 0x72,
  0x06, 0xe0, 0x60, 0x64, 0x03, 0x90, 0x4c, 0x7f, 0x04, 0xe0, 0x40, 0x52,
  0x06, 0xe0, 0x00, 0x44, 0x06, 0xe0, 0x00, 0x40, 0x81, 0x7a, 0x80, 0x4c,
  0x7f, 0x11, 0x90, 0x4a, 0x7b, 0x3e, 0x80, 0x4a, 0x7b, 0x81, 0x0c, 0x90,
  0x4a, 0x7f, 0x81, 0x3e, 0x90, 0x47, 0x6c, 0x03, 0x80, 0x4a, 0x7f, 0x2d,
  0x80, 0x47, 0x6c, 0x37, 0x90, 0x4a, 0x7f, 0x81, 0x5c, 0x80, 0x4a, 0x7f,
  0x47, 0x90, 0x4a, 0x7f, 0x7a, 0x80, 0x4a, 0x7f, 0x4d, 0x90, 0x4a, 0x7f,
  0x81, 0x28, 0x80, 0x4a, 0x7f, 0x21, 0x90, 0x4a, 0x7b, 0x33, 0x80, 0x4a,
  0x7b, 0x29, 0x90, 0x4a, 0x75, 0x81, 0x21, 0xb0, 0x01, 0x05, 0x06, 0xb0,
  0x01, 0x12, 0x06, 0xb0, 0x01, 0x1f, 0x06, 0xb0, 0x01, 0x2a, 0x07, 0xb0,
  0x01, 0x35, 0x05, 0xb0, 0x01, 0x3e, 0x06, 0xb0, 0x01, 0x49, 0x06, 0xb0,
  0x01, 0x54, 0x07, 0xb0, 0x01, 0x5d, 0x06, 0xb0, 0x01, 0x66, 0x07, 0xb0,
  0x01, 0x6d, 0x06, 0xb0, 0x01, 0x75, 0x05, 0xb0, 0x01, 0x7c, 0x06, 0xb0,
  0x01, 0x7f, 0x27, 0x90, 0x2b, 0x4b, 0x21, 0x80, 0x4a, 0x75, 0x02, 0xb0,
  0x01, 0x71, 0x06, 0xb0, 0x01, 0x57, 0x06, 0xb0, 0x01, 0x40, 0x07, 0xb0,
  0x01, 0x26, 0x06, 0xb0, 0x01, 0x0a, 0x07, 0xb0, 0x01, 0x00, 0x7f, 0x90,
  0x3e, 0x4b, 0x5e, 0x80, 0x2b, 0x00, 0x60, 0x90, 0x30, 0x4b, 0x5e, 0x90,
  0x31, 0x4b, 0x0a, 0x80, 0x30, 0x4b, 0x1e, 0x80, 0x31, 0x4b, 0x3a, 0xb0,
  0x79, 0x00, 0x00, 0xb0, 0x65, 0x7f, 0x00, 0xb0, 0x64, 0x7f, 0x00, 0xb0,
  0x5d, 0x7f, 0x00, 0xb0, 0x5b, 0x7f, 0x00, 0xb0, 0x0b, 0x7f, 0x00, 0xb0,
  0x06, 0x40, 0x04, 0x90, 0x32, 0x4b, 0x0a, 0x80, 0x3e, 0x4b, 0x3a, 0x80,
  0x32, 0x4b, 0x14, 0x90, 0x42, 0x70, 0x5a, 0x90, 0x4a, 0x72, 0x12, 0x80,
  0x42, 0x70, 0x26, 0x80, 0x4a, 0x72, 0x2c, 0x90, 0x4a, 0x72, 0x81, 0x2a,
  0x80, 0x4a, 0x72, 0x18, 0x90, 0x4a, 0x6d, 0x60, 0x90, 0x42, 0x72, 0x10,
  0x80, 0x4a, 0x6d, 0x48, 0x80, 0x42, 0x72, 0x66, 0x90, 0x3f, 0x72, 0x60,
  0x80, 0x3f, 0x72, 0x00, 0x90, 0x40, 0x6f, 0x56, 0x80, 0x40, 0x6f, 0x0a,
  0x90, 0x48, 0x72, 0x46, 0x80, 0x48, 0x72, 0x76, 0x90, 0x48, 0x72, 0x82,
  0x08, 0x80, 0x48, 0x72, 0x7a, 0x90, 0x39, 0x72, 0x5e, 0x90, 0x3a, 0x52,
  0x08, 0x80, 0x39, 0x72, 0x58, 0x80, 0x3a, 0x52, 0x00, 0x90, 0x3b, 0x63,
  0x50, 0x80, 0x3b, 0x63, 0x0e, 0x90, 0x43, 0x72, 0x68, 0x80, 0x43, 0x72,
  0x58, 0x90, 0x43, 0x6d, 0x50, 0x80, 0x43, 0x6d, 0x10, 0x90, 0x37, 0x72,
  0x81, 0x5a, 0xe0, 0x40, 0x41, 0x0c, 0xe0, 0x1d, 0x3a, 0x0a, 0xe0, 0x5a,
  0x34, 0x0a, 0xe0, 0x38, 0x30, 0x08, 0xe0, 0x55, 0x2b, 0x0a, 0xe0, 0x14,
  0x28, 0x0a, 0xe0, 0x72, 0x24, 0x08, 0xe0, 0x51, 0x22, 0x0a, 0xe0, 0x10,
  0x20, 0x0a, 0xe0, 0x0f, 0x1e, 0x08, 0xe0, 0x0e, 0x1d, 0x0a, 0xe0, 0x6e,
  0x1c, 0x0a, 0xe0, 0x4e, 0x1d, 0x08, 0xe0, 0x70, 0x20, 0x0a, 0xe0, 0x13,
  0x26, 0x08, 0xe0, 0x55, 0x2b, 0x0a, 0xe0, 0x17, 0x2f, 0x0a, 0xe0, 0x39,
  0x32, 0x08, 0xe0, 0x5a, 0x34, 0x0c, 0xe0, 0x7b, 0x36, 0x08, 0xe0, 0x7c,
  0x38, 0x0a, 0xe0, 0x1d, 0x3a, 0x0a, 0xe0, 0x7d, 0x3a, 0x0a, 0xe0, 0x5d,
  0x3a, 0x08, 0xe0, 0x3c, 0x38, 0x0a, 0xe0, 0x39, 0x33, 0x0a, 0xe0, 0x36,
  0x2d, 0x0a, 0xe0, 0x54, 0x28, 0x08, 0xe0, 0x32, 0x24, 0x0a, 0xe0, 0x70,
  0x21, 0x0a, 0xe0, 0x50, 0x20, 0x10, 0xe0, 0x70, 0x21, 0x0a, 0xe0, 0x52,
  0x25, 0x08, 0xe0, 0x16, 0x2c, 0x0a, 0xe0, 0x19, 0x32, 0x08, 0xe0, 0x1b,
  0x37, 0x0a, 0xe0, 0x3d, 0x3b, 0x0a, 0xe0, 0x1f, 0x3e, 0x0c, 0xe0, 0x3f,
  0x3f, 0x08, 0xe0, 0x00, 0x40, 0x1a, 0xe0, 0x00, 0x41, 0x08, 0xe0, 0x7d,
  0x3b, 0x0a, 0xe0, 0x7c, 0x38, 0x0a, 0xe0, 0x7b, 0x36, 0x08, 0xe0, 0x7a,
  0x35, 0x12, 0xe0, 0x3c, 0x38, 0x0a, 0xe0, 0x5e, 0x3c, 0x0a, 0xe0, 0x7f,
  0x3e, 0x0a, 0xe0, 0x00, 0x40, 0x64, 0x80, 0x37, 0x72, 0x81, 0x1c, 0x90,
  0x41, 0x72, 0x60, 0x90, 0x42, 0x5c, 0x1e, 0x80, 0x41, 0x72, 0x40, 0x80,
  0x42, 0x5c, 0x02, 0x90, 0x4a, 0x72, 0x48, 0x80, 0x4a, 0x72, 0x1a, 0x90,
  0x4a, 0x72, 0x5c, 0x80, 0x4a, 0x72, 0x66, 0x90, 0x4a, 0x72, 0x62, 0x90,
  0x42, 0x72, 0x10, 0x80, 0x4a, 0x72, 0x46, 0x80, 0x42, 0x72, 0x68, 0x90,
  0x3f, 0x72, 0x62, 0x90, 0x40, 0x6a, 0x04, 0x80, 0x3f, 0x72, 0x4a, 0x80,
  0x40, 0x6a, 0x10, 0x90, 0x48, 0x72, 0x4c, 0x80, 0x48, 0x72, 0x70, 0x90,
  0x48, 0x72, 0x82, 0x08, 0x80, 0x48, 0x72, 0x76, 0x90, 0x39, 0x72, 0x62,
  0x90, 0x3a, 0x58, 0x16, 0x80, 0x39, 0x72, 0x48, 0x90, 0x3b, 0x67, 0x0e,
  0x80, 0x3a, 0x58, 0x42, 0x80, 0x3b, 0x67, 0x12, 0x90, 0x43, 0x72, 0x5e,
  0x80, 0x43, 0x72, 0x62, 0x90, 0x43, 0x71, 0x0a, 0x90, 0x37, 0x72, 0x44,
  0x80, 0x43, 0x71, 0x81, 0x2c, 0xe0, 0x21, 0x42, 0x08, 0xe0, 0x3d, 0x3b,
  0x0a, 0xe0, 0x5c, 0x39, 0x0a, 0xe0, 0x3c, 0x38, 0x08, 0xe0, 0x1b, 0x37,
  0x0c, 0x80, 0x37, 0x00, 0x00, 0xe0, 0x7b, 0x36, 0x02, 0x90, 0x2b, 0x4d,
  0x12, 0xe0, 0x1b, 0x37, 0x08, 0xe0, 0x5d, 0x3a, 0x0a, 0xe0, 0x5e, 0x3d,
  0x06, 0x80, 0x2b, 0x4d, 0x04, 0xe0, 0x3f, 0x3f, 0x0a, 0xe0, 0x00, 0x40,
  0x5a, 0xe0, 0x40, 0x41, 0x08, 0xe0, 0x7d, 0x3b, 0x0a, 0xe0, 0x1c, 0x39,
  0x08, 0xe0, 0x7b, 0x36, 0x0a, 0xe0, 0x1a, 0x35, 0x08, 0x90, 0x2b, 0x4b,
  0x04, 0xe0, 0x59, 0x33, 0x0a, 0xe0, 0x39, 0x33, 0x08, 0xe0, 0x1a, 0x34,
  0x0a, 0xe0, 0x7b, 0x36, 0x0a, 0xe0, 0x7d, 0x3a, 0x08, 0xe0, 0x1f, 0x3e,
  0x0a, 0xe0, 0x3f, 0x3f, 0x0a, 0xe0, 0x00, 0x40, 0x46, 0xe0, 0x40, 0x40,
  0x0a, 0xe0, 0x60, 0x41, 0x0a, 0xe0, 0x5e, 0x3c, 0x08, 0xe0, 0x7d, 0x3b,
  0x12, 0xe0, 0x5e, 0x3c, 0x08, 0x90, 0x3e, 0x4b, 0x02, 0xe0, 0x7f, 0x3e,
  0x0a, 0xe0, 0x00, 0x40, 0x4a, 0xe0, 0x40, 0x40, 0x0a, 0xe0, 0x61, 0x42,
  0x08, 0xe0, 0x5d, 0x3a, 0x0a, 0xe0, 0x1c, 0x39, 0x0a, 0xe0, 0x7c, 0x38,
  0x08, 0xe0, 0x1c, 0x39, 0x0a, 0xe0, 0x3e, 0x3c, 0x0a, 0xe0, 0x3f, 0x3e,
  0x02, 0x80, 0x2b, 0x4b, 0x06, 0xe0, 0x00, 0x40, 0x1e, 0x90, 0x30, 0x4b,
  0x4a, 0x80, 0x30, 0x4b, 0x14, 0x90, 0x31, 0x4b, 0x28, 0x80, 0x31, 0x4b,
  0x3c, 0x90, 0x32, 0x4b, 0x3a, 0x80, 0x32, 0x4b, 0x10, 0x80, 0x3e, 0x4b,
  0x72, 0x90, 0x4a, 0x7f, 0x81, 0x00, 0x80, 0x4a, 0x7f, 0x43, 0x90, 0x4c,
  0x7f, 0x07, 0xe0, 0x50, 0x41, 0x06, 0xe0, 0x10, 0x4d, 0x06, 0xe0, 0x50,
  0x59, 0x06, 0xe0, 0x20, 0x65, 0x06, 0xe0, 0x40, 0x6e, 0x06, 0xe0, 0x40,
  0x76, 0x06, 0xe0, 0x20, 0x7c, 0x06, 0xe0, 0x7f, 0x7f, 0x02, 0x80, 0x4c,
  0x7f, 0x2a, 0x90, 0x4c, 0x7f, 0x81, 0x02, 0x80, 0x4c, 0x7f, 0x23, 0xe0,
  0x50, 0x7b, 0x06, 0xe0, 0x20, 0x6e, 0x05, 0xe0, 0x70, 0x5f, 0x07, 0xe0,
  0x60, 0x4e, 0x07, 0xe0, 0x00, 0x40, 0x09, 0x90, 0x4c, 0x7f, 0x82, 0x0c,
  0x80, 0x4c, 0x7f, 0x00, 0x90, 0x4a, 0x75, 0x42, 0x80, 0x4a, 0x75, 0x79,
  0x90, 0x4a, 0x7f, 0x81, 0x47, 0x90, 0x47, 0x6e, 0x03, 0x80, 0x4a, 0x7f,
  0x2e, 0x80, 0x47, 0x6e, 0x35, 0x90, 0x4a, 0x7f, 0x82, 0x07, 0x80, 0x4a,
  0x7f, 0x0c, 0x90, 0x45, 0x6f, 0x0e, 0xe0, 0x50, 0x44, 0x07, 0xe0, 0x50,
  0x4e, 0x06, 0xe0, 0x50, 0x5c, 0x07, 0xe0, 0x20, 0x69, 0x06, 0xe0, 0x10,
  0x77, 0x06, 0xe0, 0x7f, 0x7f, 0x81, 0x5e, 0xb0, 0x01, 0x01, 0x06, 0xb0,
  0x01, 0x10, 0x06, 0xb0, 0x01, 0x1d, 0x06, 0xb0, 0x01, 0x26, 0x06, 0xb0,
  0x01, 0x31, 0x07, 0xb0, 0x01, 0x3c, 0x05, 0xb0, 0x01, 0x41, 0x07, 0xb0,
  0x01, 0x45, 0x06, 0xb0, 0x01, 0x4a, 0x06, 0xb0, 0x01, 0x4e, 0x05, 0xb0,
  0x01, 0x50, 0x0d, 0xb0, 0x01, 0x4e, 0x05, 0xb0, 0x01, 0x49, 0x07, 0xb0,
  0x01, 0x40, 0x06, 0xb0, 0x01, 0x31, 0x06, 0xb0, 0x01, 0x1f, 0x07, 0xb0,
  0x01, 0x0e, 0x06, 0xb0, 0x01, 0x00, 0x02, 0x80, 0x45, 0x6f, 0x18, 0x90,
  0x3e, 0x4b, 0x4b, 0xe0, 0x50, 0x7b, 0x06, 0xe0, 0x50, 0x72, 0x07, 0xe0,
  0x30, 0x67, 0x06, 0xe0, 0x40, 0x5b, 0x07, 0xe0, 0x30, 0x4e, 0x06, 0xe0,
  0x40, 0x41, 0x06, 0xe0, 0x00, 0x40, 0x4b, 0x90, 0x2b, 0x4d, 0x04, 0x80,
  0x3e, 0x00, 0x30, 0x80, 0x2b, 0x4d, 0x81, 0x12, 0x90, 0x2b, 0x4d, 0x81,
  0x40, 0x90, 0x3e, 0x4b, 0x81, 0x26, 0x80, 0x2b, 0x4d, 0x1a, 0x90, 0x30,
  0x4b, 0x60, 0x90, 0x31, 0x4b, 0x0a, 0x80, 0x30, 0x4b, 0x1e, 0x80, 0x31,
  0x4b, 0x3a, 0x90, 0x32, 0x4b, 0x3a, 0x80, 0x32, 0x4b, 0x2a, 0x80, 0x3e,
  0x4b, 0x5b, 0x90, 0x4a, 0x7b, 0x66, 0x80, 0x4a, 0x7b, 0x4a, 0xe0, 0x50,
  0x41, 0x0b, 0x90, 0x4c, 0x7f, 0x05, 0xe0, 0x10, 0x58, 0x06, 0xe0, 0x20,
  0x60, 0x07, 0xe0, 0x00, 0x6b, 0x06, 0xe0, 0x60, 0x72, 0x05, 0xe0, 0x30,
  0x7a, 0x06, 0xe0, 0x10, 0x7f, 0x07, 0xe0, 0x7f, 0x7f, 0x48, 0x80, 0x4c,
  0x7f, 0x49, 0x90, 0x4c, 0x7f, 0x2a, 0x80, 0x4c, 0x7f, 0x2c, 0xe0, 0x10,
  0x7d, 0x01, 0x90, 0x4c, 0x7f, 0x06, 0xe0, 0x20, 0x70, 0x06, 0xe0, 0x40,
  0x60, 0x06, 0xe0, 0x00, 0x51, 0x06, 0xe0, 0x50, 0x43, 0x06, 0xe0, 0x00,
  0x40, 0x82, 0x05, 0x90, 0x4a, 0x72, 0x08, 0x80, 0x4c, 0x7f, 0x38, 0x80,
  0x4a, 0x72, 0x81, 0x00, 0x90, 0x4a, 0x7f, 0x81, 0x4b, 0x90, 0x47, 0x6d,
  0x04, 0x80, 0x4a, 0x7f, 0x2d, 0x80, 0x47, 0x6d, 0x2f, 0x90, 0x4a, 0x78,
  0x81, 0x46, 0xb0, 0x01, 0x01, 0x06, 0xb0, 0x01, 0x0a, 0x07, 0xb0, 0x01,
  0x14, 0x06, 0xb0, 0x01, 0x1b, 0x06, 0xb0, 0x01, 0x22, 0x05, 0xb0, 0x01,
  0x28, 0x06, 0xb0, 0x01, 0x2d, 0x07, 0xb0, 0x01, 0x31, 0x05, 0xb0, 0x01,
  0x36, 0x06, 0xb0, 0x01, 0x3c, 0x06, 0xb0, 0x01, 0x43, 0x06, 0xb0, 0x01,
  0x49, 0x06, 0xb0, 0x01, 0x4e, 0x06, 0xb0, 0x01, 0x50, 0x0d, 0xb0, 0x01,
  0x54, 0x06, 0xb0, 0x01, 0x57, 0x06, 0xb0, 0x01, 0x59, 0x0c, 0xb0, 0x01,
  0x54, 0x06, 0xb0, 0x01, 0x4a, 0x06, 0xb0, 0x01, 0x40, 0x06, 0xb0, 0x01,
  0x35, 0x06, 0xb0, 0x01, 0x22, 0x06, 0xb0, 0x01, 0x0a, 0x01, 0x80, 0x4a,
  0x78, 0x05, 0xb0, 0x01, 0x00, 0x25, 0x90, 0x2b, 0x4b, 0x5e, 0x90, 0x3e,
  0x4b, 0x62, 0x80, 0x2b, 0x00, 0x82, 0x22, 0x90, 0x2b, 0x4b, 0x2a, 0x80,
  0x2b, 0x4b, 0x04, 0x80, 0x3e, 0x4b, 0x81, 0x12, 0x90, 0x2b, 0x4b, 0x81,
  0x3c, 0x90, 0x3e, 0x4b, 0x81, 0x24, 0x80, 0x2b, 0x4b, 0x20, 0x90, 0x30,
  0x4b, 0x60, 0x90, 0x31, 0x4b, 0x04, 0x80, 0x30, 0x4b, 0x2c, 0x80, 0x31,
  0x4b, 0x30, 0x90, 0x32, 0x4b, 0x38, 0x80, 0x32, 0x4b, 0x42, 0x80, 0x3e,
  0x4b, 0x40, 0x90, 0x4a, 0x7e, 0x59, 0x80, 0x4a, 0x7e, 0x5e, 0x90, 0x4c,
  0x7f, 0x0e, 0xe0, 0x50, 0x4e, 0x06, 0xe0, 0x30, 0x59, 0x06, 0xe0, 0x50,
  0x62, 0x06, 0xe0, 0x40, 0x69, 0x06, 0xe0, 0x30, 0x72, 0x06, 0xe0, 0x60,
  0x7a, 0x07, 0xe0, 0x7f, 0x7f, 0x49, 0x80, 0x4c, 0x7f, 0x47, 0x90, 0x4c,
  0x7f, 0x2a, 0x80, 0x4c, 0x7f, 0x2e, 0xe0, 0x30, 0x7e, 0x06, 0xe0, 0x60,
  0x6e, 0x08, 0xe0, 0x00, 0x57, 0x02, 0x90, 0x4c, 0x7f, 0x06, 0xe0, 0x00,
  0x40, 0x81, 0x4f, 0x90, 0x4a, 0x6c, 0x06, 0x80, 0x4c, 0x7f, 0x23, 0x80,
  0x4a, 0x6c, 0x1c, 0x90, 0x4a, 0x70, 0x46, 0x80, 0x4a, 0x70, 0x72, 0x90,
  0x4a, 0x7f, 0x81, 0x2d, 0x80, 0x4a, 0x7f, 0x33, 0x90, 0x4a, 0x7f, 0x4b,
  0x80, 0x4a, 0x7f, 0x7b, 0x90, 0x4a, 0x7f, 0x82, 0x11, 0x80, 0x4a, 0x7f,
  0x03, 0x90, 0x45, 0x6f, 0x15, 0xe0, 0x30, 0x49, 0x06, 0xe0, 0x70, 0x57,
  0x06, 0xe0, 0x70, 0x60, 0x06, 0xe0, 0x70, 0x6a, 0x06, 0xe0, 0x10, 0x72,
  0x06, 0xe0, 0x60, 0x79, 0x06, 0xe0, 0x10, 0x7f, 0x06, 0xe0, 0x7f, 0x7f,
  0x81, 0x53, 0xb0, 0x01, 0x09, 0x05, 0xb0, 0x01, 0x12, 0x06, 0xb0, 0x01,
  0x19, 0x06, 0xb0, 0x01, 0x22, 0x07, 0xb0, 0x01, 0x2d, 0x06, 0xb0, 0x01,
  0x36, 0x06, 0xb0, 0x01, 0x3e, 0x06, 0xb0, 0x01, 0x43, 0x06, 0xb0, 0x01,
  0x4a, 0x06, 0xb0, 0x01, 0x52, 0x07, 0xb0, 0x01, 0x57, 0x06, 0xb0, 0x01,
  0x5d, 0x06, 0xb0, 0x01, 0x62, 0x06, 0xb0, 0x01, 0x68, 0x07, 0xb0, 0x01,
  0x6d, 0x05, 0xb0, 0x01, 0x75, 0x07, 0xb0, 0x01, 0x7a, 0x06, 0xb0, 0x01,
  0x7e, 0x06, 0xb0, 0x01, 0x7f, 0x13, 0xb0, 0x01, 0x7a, 0x05, 0xb0, 0x01,
  0x6d, 0x06, 0xb0, 0x01, 0x60, 0x07, 0xb0, 0x01, 0x50, 0x06, 0xb0, 0x01,
  0x3c, 0x06, 0xb0, 0x01, 0x2a, 0x05, 0xb0, 0x01, 0x19, 0x08, 0xb0, 0x01,
  0x03, 0x05, 0xb0, 0x01, 0x00, 0x11, 0x80, 0x45, 0x6f, 0x02, 0x90, 0x3e,
  0x4b, 0x02, 0x90, 0x2b, 0x4b, 0x26, 0x80, 0x2b, 0x4b, 0x10, 0xe0, 0x70,
  0x7e, 0x06, 0xe0, 0x00, 0x78, 0x06, 0xe0, 0x10, 0x6f, 0x06, 0xe0, 0x30,
  0x65, 0x06, 0xe0, 0x20, 0x5b, 0x06, 0xe0, 0x60, 0x50, 0x06, 0xe0, 0x30,
  0x48, 0x07, 0xe0, 0x00, 0x40, 0x5d, 0x80, 0x3e, 0x00, 0x02, 0x90, 0x2b,
  0x4b, 0x81, 0x40, 0x90, 0x3e, 0x4b, 0x81, 0x36, 0x80, 0x2b, 0x4b, 0x0a,
  0x90, 0x30, 0x4b, 0x5c, 0x90, 0x31, 0x4b, 0x0c, 0x80, 0x30, 0x4b, 0x2e,
  0x80, 0x31, 0x4b, 0x28, 0x90, 0x32, 0x4b, 0x42, 0x80, 0x32, 0x4b, 0x56,
  0x80, 0x3e, 0x4b, 0x28, 0x90, 0x32, 0x4d, 0x5c, 0x90, 0x4a, 0x75, 0x04,
  0x80, 0x32, 0x00, 0x55, 0x90, 0x4e, 0x7f, 0x11, 0x80, 0x4a, 0x75, 0x47,
  0x80, 0x4e, 0x7f, 0x57, 0x90, 0x4e, 0x7f, 0x56, 0x80, 0x4e, 0x7f, 0x0e,
  0x90, 0x4c, 0x7f, 0x81, 0x48, 0x80, 0x4c, 0x7f, 0x0a, 0x90, 0x4a, 0x6c,
  0x28, 0x80, 0x4a, 0x6c, 0x25, 0x90, 0x4a, 0x7f, 0x43, 0x80, 0x4a, 0x7f,
  0x81, 0x05, 0x90, 0x4a, 0x7f, 0x81, 0x1e, 0x80, 0x4a, 0x7f, 0x2d, 0x90,
  0x4a, 0x71, 0x2c, 0x80, 0x4a, 0x71, 0x40, 0x90, 0x4a, 0x7f, 0x81, 0x68,
  0x80, 0x4a, 0x7f, 0x2f, 0x90, 0x4a, 0x7f, 0x61, 0x80, 0x4a, 0x7f, 0x5e,
  0x90, 0x4a, 0x7f, 0x81, 0x0f, 0x80, 0x4a, 0x7f, 0x2d, 0x90, 0x4a, 0x7b,
  0x38, 0x80, 0x4a, 0x7b, 0x2c, 0x90, 0x4a, 0x7f, 0x82, 0x3d, 0xb0, 0x01,
  0x03, 0x06, 0xb0, 0x01, 0x05, 0x06, 0xb0, 0x01, 0x09, 0x0c, 0xb0, 0x01,
  0x0a, 0x06, 0xb0, 0x01, 0x0c, 0x06, 0xb0, 0x01, 0x10, 0x06, 0xb0, 0x01,
  0x12, 0x06, 0xb0, 0x01, 0x14, 0x06, 0xb0, 0x01, 0x15, 0x07, 0xb0, 0x01,
  0x17, 0x06, 0xb0, 0x01, 0x1b, 0x07, 0xb0, 0x01, 0x1d, 0x0b, 0xb0, 0x01,
  0x1f, 0x12, 0xb0, 0x01, 0x20, 0x07, 0xb0, 0x01, 0x22, 0x06, 0xb0, 0x01,
  0x24, 0x06, 0xb0, 0x01, 0x26, 0x05, 0xb0, 0x01, 0x28, 0x13, 0xb0, 0x01,
  0x2b, 0x05, 0xb0, 0x01, 0x2d, 0x07, 0xb0, 0x01, 0x31, 0x07, 0xb0, 0x01,
  0x33, 0x09, 0xb0, 0x01, 0x38, 0x06, 0xb0, 0x01, 0x3c, 0x06, 0xb0, 0x01,
  0x40, 0x06, 0xb0, 0x01, 0x45, 0x07, 0xb0, 0x01, 0x4a, 0x06, 0xb0, 0x01,
  0x4e, 0x06, 0xb0, 0x01, 0x52, 0x06, 0xb0, 0x01, 0x54, 0x0c, 0xb0, 0x01,
  0x55, 0x0c, 0xb0, 0x01, 0x59, 0x06, 0xb0, 0x01, 0x5b, 0x06, 0xb0, 0x01,
  0x5d, 0x06, 0xb0, 0x01, 0x60, 0x06, 0xb0, 0x01, 0x62, 0x06, 0xb0, 0x01,
  0x64, 0x0d, 0xb0, 0x01, 0x68, 0x0c, 0xb0, 0x01, 0x6a, 0x12, 0xb0, 0x01,
  0x6b, 0x23, 0xb0, 0x01, 0x6d, 0x0b, 0xb0, 0x01, 0x71, 0x05, 0xb0, 0x01,
  0x73, 0x07, 0xb0, 0x01, 0x75, 0x0d, 0xb0, 0x01, 0x76, 0x0c, 0xb0, 0x01,
  0x78, 0x0b, 0xb0, 0x01, 0x7a, 0x06, 0xb0, 0x01, 0x78, 0x06, 0xb0, 0x01,
  0x71, 0x06, 0xb0, 0x01, 0x62, 0x06, 0xb0, 0x01, 0x4e, 0x06, 0xb0, 0x01,
  0x33, 0x06, 0xb0, 0x01, 0x12, 0x05, 0xb0, 0x01, 0x00, 0x0b, 0x80, 0x4a,
  0x7f, 0x83, 0x5b, 0x90, 0x4c, 0x7f, 0x0d, 0xe0, 0x10, 0x4a, 0x06, 0xe0,
  0x30, 0x53, 0x06, 0xe0, 0x70, 0x5c, 0x06, 0xe0, 0x00, 0x67, 0x06, 0xe0,
  0x10, 0x71, 0x06, 0xe0, 0x70, 0x79, 0x07, 0xe0, 0x7f, 0x7f, 0x82, 0x0c,
  0x80, 0x4c, 0x7f, 0x21, 0xe0, 0x40, 0x76, 0x06, 0xe0, 0x30, 0x67, 0x05,
  0xe0, 0x00, 0x57, 0x06, 0xe0, 0x50, 0x44, 0x17, 0x90, 0x4c, 0x7f, 0x04,
  0xe0, 0x00, 0x40, 0x81, 0x36, 0x90, 0x4a, 0x7b, 0x1a, 0x80, 0x4c, 0x7f,
  0x3c, 0x80, 0x4a, 0x7b, 0x71, 0x90, 0x4a, 0x7f, 0x82, 0x16, 0x90, 0x47,
  0x7f, 0x01, 0x80, 0x4a, 0x7f, 0x4c, 0x80, 0x47, 0x7f, 0x04, 0x90, 0x4a,
  0x7f, 0x81, 0x38, 0x80, 0x4a, 0x7f, 0x0a, 0x90, 0x45, 0x7e, 0x29, 0xe0,
  0x10, 0x40, 0x06, 0xe0, 0x50, 0x43, 0x07, 0xe0, 0x00, 0x49, 0x06, 0xe0,
  0x30, 0x4c, 0x06, 0xe0, 0x70, 0x51, 0x06, 0xe0, 0x20, 0x58, 0x07, 0xe0,
  0x60, 0x60, 0x05, 0xe0, 0x50, 0x67, 0x06, 0xe0, 0x60, 0x6f, 0x06, 0xe0,
  0x60, 0x75, 0x06, 0xe0, 0x30, 0x7a, 0x06, 0xe0, 0x50, 0x7e, 0x06, 0xe0,
  0x7f, 0x7f, 0x52, 0x80, 0x45, 0x7e, 0x2c, 0xe0, 0x30, 0x7d, 0x06, 0xe0,
  0x60, 0x74, 0x06, 0xe0, 0x10, 0x69, 0x06, 0xe0, 0x10, 0x5e, 0x06, 0xe0,
  0x30, 0x51, 0x06, 0xe0, 0x40, 0x45, 0x06, 0xe0, 0x00, 0x40, 0x79, 0x90,
  0x34, 0x4b, 0x00, 0x90, 0x37, 0x4b, 0x81, 0x18, 0x80, 0x37, 0x4b, 0x0c,
  0x80, 0x34, 0x4b, 0x81, 0x5a, 0x90, 0x2b, 0x4b, 0x00, 0x90, 0x37, 0x4b,
  0x81, 0x12, 0x80, 0x37, 0x4b, 0x34, 0x80, 0x2b, 0x4b, 0x5c, 0x90, 0x37,
  0x4b, 0x00, 0x90, 0x3c, 0x4f, 0x81, 0x78, 0x80, 0x37, 0x4b, 0x0a, 0x80,
  0x3c, 0x4f, 0x22, 0x90, 0x39, 0x4b, 0x00, 0x90, 0x3e, 0x4b, 0x34, 0x80,
  0x39, 0x4b, 0x08, 0x80, 0x3e, 0x4b, 0x81, 0x04, 0x90, 0x32, 0x52, 0x00,
  0x90, 0x39, 0x4b, 0x44, 0x80, 0x32, 0x52, 0x1a, 0x90, 0x3e, 0x4b, 0x50,
  0x80, 0x39, 0x4b, 0x0a, 0x90, 0x4c, 0x7f, 0x06, 0x80, 0x3e, 0x00, 0x04,
  0xe0, 0x60, 0x56, 0x05, 0xe0, 0x40, 0x63, 0x06, 0xe0, 0x60, 0x6f, 0x07,
  0xe0, 0x10, 0x7a, 0x06, 0xe0, 0x7f, 0x7f, 0x5c, 0x80, 0x4c, 0x7f, 0x3a,
  0x90, 0x4c, 0x7f, 0x4f, 0x80, 0x4c, 0x7f, 0x70, 0x90, 0x4c, 0x7f, 0x05,
  0xe0, 0x30, 0x65, 0x0c, 0xe0, 0x00, 0x40, 0x81, 0x2c, 0x90, 0x4a, 0x7f,
  0x17, 0x80, 0x4c, 0x7f, 0x2c, 0x80, 0x4a, 0x7f, 0x81, 0x04, 0x90, 0x4a,
  0x7f, 0x81, 0x37, 0x80, 0x4a, 0x7f, 0x00, 0x90, 0x47, 0x7b, 0x35, 0x80,
  0x47, 0x7b, 0x2c, 0x90, 0x4a, 0x7f, 0x81, 0x43, 0xb0, 0x01, 0x05, 0x06,
  0xb0, 0x01, 0x09, 0x07, 0xb0, 0x01, 0x0e, 0x06, 0xb0, 0x01, 0x14, 0x06,
  0xb0, 0x01, 0x19, 0x06, 0xb0, 0x01, 0x1f, 0x07, 0xb0, 0x01, 0x24, 0x05,
  0xb0, 0x01, 0x2a, 0x06, 0xb0, 0x01, 0x2d, 0x06, 0xb0, 0x01, 0x31, 0x07,
  0xb0, 0x01, 0x33, 0x06, 0xb0, 0x01, 0x36, 0x05, 0xb0, 0x01, 0x38, 0x06,
  0xb0, 0x01, 0x3a, 0x0c, 0xb0, 0x01, 0x35, 0x07, 0xb0, 0x01, 0x2f, 0x11,
  0xb0, 0x01, 0x26, 0x02, 0x80, 0x4a, 0x7f, 0x04, 0xb0, 0x01, 0x20, 0x05,
  0xb0, 0x01, 0x1d, 0x07, 0xb0, 0x01, 0x1b, 0x06, 0xb0, 0x01, 0x15, 0x06,
  0xb0, 0x01, 0x0c, 0x06, 0xb0, 0x01, 0x00, 0x82, 0x5b, 0x90, 0x34, 0x4f,
  0x00, 0x90, 0x37, 0x4b, 0x81, 0x1a, 0x80, 0x34, 0x4f, 0x00, 0x80, 0x37,
  0x4b, 0x81, 0x62, 0x90, 0x32, 0x4b, 0x00, 0x90, 0x37, 0x4b, 0x81, 0x06,
  0x80, 0x32, 0x4b, 0x02, 0x80, 0x37, 0x4b, 0x81, 0x76, 0x90, 0x30, 0x4b,
  0x02, 0x90, 0x37, 0x4b, 0x81, 0x40, 0x90, 0x32, 0x4b, 0x00, 0x90, 0x39,
  0x4b, 0x18, 0x80, 0x37, 0x4b, 0x0a, 0x80, 0x30, 0x4b, 0x14, 0x80, 0x39,
  0x4b, 0x0a, 0x80, 0x32, 0x4b, 0x81, 0x00, 0x90, 0x39, 0x4b, 0x02, 0x90,
  0x3e, 0x4b, 0x81, 0x24, 0x80, 0x39, 0x4b, 0x1c, 0x80, 0x3e, 0x00, 0x00,
  0x90, 0x4c, 0x7f, 0x0d, 0xe0, 0x50, 0x43, 0x06, 0xe0, 0x30, 0x4c, 0x07,
  0xe0, 0x20, 0x58, 0x06, 0xe0, 0x30, 0x61, 0x07, 0xe0, 0x70, 0x6b, 0x05,
  0xe0, 0x40, 0x74, 0x06, 0xe0, 0x30, 0x7d, 0x06, 0xe0, 0x7f, 0x7f, 0x81,
  0x7f, 0x80, 0x4c, 0x7f, 0x07, 0xe0, 0x50, 0x7d, 0x07, 0xe0, 0x60, 0x71,
  0x06, 0xe0, 0x10, 0x64, 0x06, 0xe0, 0x50, 0x54, 0x06, 0xe0, 0x00, 0x47,
  0x06, 0xe0, 0x00, 0x40, 0x1c, 0x90, 0x4c, 0x7f, 0x81, 0x40, 0x90, 0x4a,
  0x78, 0x0e, 0x80, 0x4c, 0x7f, 0x48, 0x80, 0x4a, 0x78, 0x6f, 0x90, 0x4a,
  0x7f, 0x82, 0x30, 0x80, 0x4a, 0x7f, 0x00, 0x90, 0x47, 0x7b, 0x3b, 0x80,
  0x47, 0x7b, 0x0a, 0x90, 0x4a, 0x7f, 0x81, 0x39, 0x80, 0x4a, 0x7f, 0x09,
  0x90, 0x45, 0x7f, 0x13, 0xe0, 0x10, 0x58, 0x07, 0xe0, 0x60, 0x66, 0x06,
  0xe0, 0x50, 0x72, 0x06, 0xe0, 0x60, 0x7c, 0x05, 0xe0, 0x7f, 0x7f, 0x81,
  0x23, 0x80, 0x45, 0x7f, 0x2e, 0xe0, 0x10, 0x7d, 0x06, 0xe0, 0x30, 0x75,
  0x06, 0xe0, 0x40, 0x6c, 0x06, 0xe0, 0x70, 0x62, 0x07, 0xe0, 0x10, 0x59,
  0x06, 0xe0, 0x60, 0x4e, 0x06, 0xe0, 0x30, 0x46, 0x06, 0xe0, 0x00, 0x40,
  0x62, 0x90, 0x34, 0x4d, 0x00, 0x90, 0x37, 0x4b, 0x81, 0x0c, 0x80, 0x37,
  0x4b, 0x0a, 0x80, 0x34, 0x4d, 0x81, 0x68, 0x90, 0x37, 0x4b, 0x02, 0x90,
  0x32, 0x4b, 0x7c, 0x80, 0x32, 0x4b, 0x02, 0x80, 0x37, 0x4b, 0x81, 0x26,
  0x90, 0x30, 0x4d, 0x00, 0x90, 0x37, 0x4b, 0x81, 0x5c, 0x80, 0x37, 0x4b,
  0x02, 0x80, 0x30, 0x4d, 0x3e, 0x90, 0x39, 0x4b, 0x00, 0x90, 0x3e, 0x4b,
  0x38, 0x80, 0x3e, 0x4b, 0x0e, 0x80, 0x39, 0x4b, 0x82, 0x2f, 0x90, 0x4c,
  0x7f, 0x10, 0xe0, 0x10, 0x59, 0x05, 0xe0, 0x30, 0x61, 0x07, 0xe0, 0x40,
  0x68, 0x06, 0xe0, 0x70, 0x6e, 0x06, 0xe0, 0x00, 0x75, 0x06, 0xe0, 0x20,
  0x7b, 0x07, 0xe0, 0x7f, 0x7f, 0x50, 0x80, 0x4c, 0x7f, 0x42, 0x90, 0x4c,
  0x7f, 0x56, 0x80, 0x4c, 0x7f, 0x46, 0xe0, 0x40, 0x7f, 0x06, 0xe0, 0x50,
  0x72, 0x06, 0xe0, 0x60, 0x61, 0x0b, 0xe0, 0x00, 0x40, 0x06, 0x90, 0x4c,
  0x7f, 0x60, 0x90, 0x4a, 0x7f, 0x0c, 0x80, 0x4c, 0x7f, 0x77, 0x80, 0x4a,
  0x7f, 0x81, 0x18, 0x90, 0x4a, 0x7f, 0x81, 0x41, 0x90, 0x47, 0x71, 0x07,
  0x80, 0x4a, 0x7f, 0x29, 0x80, 0x47, 0x71, 0x39, 0x90, 0x4a, 0x7f, 0x81,
  0x66, 0xb0, 0x01, 0x0a, 0x06, 0xb0, 0x01, 0x15, 0x06, 0xb0, 0x01, 0x22,
  0x06, 0xb0, 0x01, 0x2d, 0x07, 0xb0, 0x01, 0x36, 0x06, 0xb0, 0x01, 0x3e,
  0x05, 0xb0, 0x01, 0x41, 0x06, 0xb0, 0x01, 0x45, 0x07, 0xb0, 0x01, 0x49,
  0x08, 0xb0, 0x01, 0x45, 0x03, 0x90, 0x2b, 0x72, 0x00, 0x90, 0x32, 0x70,
  0x09, 0xb0, 0x01, 0x2f, 0x03, 0x80, 0x4a, 0x7f, 0x03, 0xb0, 0x01, 0x19,
  0x06, 0xb0, 0x01, 0x03, 0x06, 0xb0, 0x01, 0x00, 0x81, 0x3b, 0x80, 0x32,
  0x70, 0x12, 0x80, 0x2b, 0x72, 0x82, 0x58, 0x90, 0x4f, 0x72, 0x16, 0xe0,
  0x00, 0x41, 0x0c, 0xe0, 0x66, 0x4d, 0x08, 0xe0, 0x4e, 0x5d, 0x0c, 0xe0,
  0x36, 0x6d, 0x0a, 0xe0, 0x3b, 0x77, 0x0c, 0xe0, 0x7e, 0x7c, 0x0a, 0xe0,
  0x3f, 0x7f, 0x0a, 0xe0, 0x7f, 0x7f, 0x81, 0x58, 0x80, 0x4f, 0x72, 0x26,
  0xe0, 0x7f, 0x7e, 0x0a, 0xe0, 0x7b, 0x77, 0x08, 0xe0, 0x54, 0x69, 0x0a,
  0xe0, 0x0b, 0x56, 0x08, 0x90, 0x4f, 0x72, 0x04, 0xe0, 0x45, 0x4a, 0x10,
  0xe0, 0x42, 0x44, 0x0a, 0xe0, 0x60, 0x41, 0x0a, 0xe0, 0x40, 0x40, 0x0a,
  0xe0, 0x00, 0x40, 0x81, 0x24, 0x80, 0x4f, 0x72, 0x81, 0x22, 0x90, 0x4e,
  0x72, 0x60, 0x90, 0x4a, 0x6f, 0x0c, 0x80, 0x4e, 0x72, 0x4c, 0x80, 0x4a,
  0x6f, 0x06, 0x90, 0x45, 0x72, 0x4a, 0x80, 0x45, 0x72, 0x78, 0x90, 0x4a,
  0x72, 0x81, 0x3e, 0xe0, 0x21, 0x42, 0x08, 0xe0, 0x02, 0x44, 0x0a, 0xe0,
  0x02, 0x45, 0x0a, 0xe0, 0x42, 0x44, 0x08, 0xe0, 0x21, 0x42, 0x0a, 0xe0,
  0x40, 0x40, 0x0a, 0xe0, 0x00, 0x40, 0x20, 0xe0, 0x21, 0x42, 0x0a, 0xe0,
  0x42, 0x44, 0x0a, 0xe0, 0x03, 0x47, 0x0a, 0xe0, 0x04, 0x49, 0x0a, 0xe0,
  0x05, 0x4a, 0x08, 0xe0, 0x45, 0x4a, 0x14, 0xe0, 0x04, 0x49, 0x0a, 0xe0,
  0x62, 0x45, 0x0a, 0xe0, 0x21, 0x42, 0x0a, 0xe0, 0x40, 0x40, 0x08, 0xe0,
  0x00, 0x40, 0x2c, 0x80, 0x4a, 0x72, 0x3a, 0x90, 0x45, 0x72, 0x60, 0x80,
  0x45, 0x72, 0x00, 0x90, 0x48, 0x70, 0x60, 0x90, 0x47, 0x6b, 0x1a, 0x80,
  0x48, 0x70, 0x3c, 0x80, 0x47, 0x6b, 0x0c, 0x90, 0x48, 0x72, 0x60, 0x90,
  0x47, 0x68, 0x18, 0x80, 0x48, 0x72, 0x46, 0x90, 0x45, 0x72, 0x04, 0x80,
  0x47, 0x68, 0x4e, 0x80, 0x45, 0x72, 0x0a, 0x90, 0x43, 0x71, 0x3e, 0x80,
  0x43, 0x71, 0x26, 0x90, 0x43, 0x72, 0x4a, 0xe0, 0x61, 0x42, 0x0a, 0xe0,
  0x63, 0x46, 0x0a, 0xe0, 0x44, 0x49, 0x0c, 0xe0, 0x65, 0x4a, 0x0a, 0xe0,
  0x44, 0x49, 0x0a, 0xe0, 0x03, 0x47, 0x0a, 0xe0, 0x22, 0x45, 0x0a, 0xe0,
  0x21, 0x43, 0x08, 0xe0, 0x00, 0x41, 0x0a, 0xe0, 0x00, 0x40, 0x1e, 0x90,
  0x40, 0x6d, 0x0a, 0x80, 0x43, 0x72, 0x3c, 0x80, 0x40, 0x6d, 0x1a, 0x90,
  0x3e, 0x6f, 0x34, 0x80, 0x3e, 0x6f, 0x28, 0x90, 0x40, 0x72, 0x5c, 0x90,
  0x43, 0x72, 0x22, 0x80, 0x40, 0x72, 0x81, 0x3c, 0xe0, 0x21, 0x42, 0x08,
  0xe0, 0x63, 0x46, 0x0a, 0xe0, 0x44, 0x49, 0x12, 0xe0, 0x63, 0x46, 0x0a,
  0xe0, 0x61, 0x42, 0x08, 0xe0, 0x00, 0x41, 0x0a, 0xe0, 0x00, 0x40, 0x16,
  0xe0, 0x41, 0x43, 0x08, 0xe0, 0x27, 0x4e, 0x0c, 0xe0, 0x4d, 0x5a, 0x08,
  0xe0, 0x70, 0x61, 0x0a, 0xe0, 0x71, 0x62, 0x0a, 0xe0, 0x4e, 0x5d, 0x0a,
  0xe0, 0x2a, 0x54, 0x08, 0xe0, 0x44, 0x49, 0x0a, 0xe0, 0x02, 0x44, 0x0a,
  0xe0, 0x40, 0x41, 0x08, 0xe0, 0x40, 0x40, 0x0a, 0xe0, 0x21, 0x42, 0x0a,
  0xe0, 0x22, 0x45, 0x0a, 0xe0, 0x63, 0x46, 0x08, 0xe0, 0x42, 0x44, 0x0a,
  0xe0, 0x60, 0x41, 0x08, 0xe0, 0x40, 0x40, 0x08, 0xe0, 0x61, 0x42, 0x0a,
  0xe0, 0x25, 0x4b, 0x0a, 0xe0, 0x4a, 0x55, 0x0a, 0xe0, 0x6e, 0x5c, 0x0a,
  0xe0, 0x0f, 0x5e, 0x0a, 0xe0, 0x6c, 0x59, 0x08, 0xe0, 0x68, 0x50, 0x0a,
  0xe0, 0x43, 0x47, 0x0a, 0xe0, 0x21, 0x43, 0x08, 0xe0, 0x00, 0x41, 0x0a,
  0xe0, 0x00, 0x40, 0x18, 0xe0, 0x40, 0x40, 0x0a, 0xe0, 0x21, 0x42, 0x12,
  0xe0, 0x00, 0x41, 0x0a, 0xe0, 0x00, 0x40, 0x50, 0x80, 0x43, 0x72, 0x08,
  0xe0, 0x02, 0x45, 0x0a, 0xe0, 0x65, 0x4b, 0x0a, 0xe0, 0x08, 0x50, 0x08,
  0xe0, 0x48, 0x51, 0x0a, 0xe0, 0x67, 0x4e, 0x08, 0xe0, 0x44, 0x49, 0x0a,
  0xe0, 0x02, 0x44, 0x0c, 0xe0, 0x40, 0x41, 0x0c, 0xe0, 0x00, 0x40, 0x82,
  0x0e, 0x90, 0x41, 0x72, 0x60, 0x90, 0x42, 0x6a, 0x1c, 0x80, 0x41, 0x72,
  0x40, 0x90, 0x4a, 0x72, 0x06, 0x80, 0x42, 0x6a, 0x32, 0x80, 0x4a, 0x72,
  0x2c, 0x90, 0x4a, 0x72, 0x5e, 0xe0, 0x00, 0x41, 0x0a, 0xe0, 0x02, 0x44,
  0x0a, 0xe0, 0x03, 0x47, 0x0a, 0xe0, 0x04, 0x49, 0x12, 0xe0, 0x43, 0x47,
  0x08, 0x80, 0x4a, 0x72, 0x00, 0xe0, 0x22, 0x45, 0x0c, 0xe0, 0x21, 0x42,
  0x0a, 0xe0, 0x40, 0x40, 0x0a, 0xe0, 0x00, 0x40, 0x0a, 0x90, 0x4a, 0x72,
  0x60, 0x90, 0x42, 0x72, 0x06, 0x80, 0x4a, 0x72, 0x60, 0x80, 0x42, 0x72,
  0x58, 0x90, 0x3f, 0x72, 0x5c, 0x90, 0x40, 0x63, 0x1e, 0x80, 0x3f, 0x72,
  0x38, 0x80, 0x40, 0x63, 0x0e, 0x90, 0x48, 0x72, 0x44, 0x80, 0x48, 0x72,
  0x7e, 0x90, 0x48, 0x72, 0x7e, 0xe0, 0x60, 0x41, 0x08, 0xe0, 0x41, 0x43,
  0x0a, 0xe0, 0x02, 0x44, 0x0a, 0xe0, 0x21, 0x43, 0x08, 0xe0, 0x00, 0x41,
  0x0a, 0xe0, 0x00, 0x40, 0x2a, 0xe0, 0x40, 0x40, 0x0a, 0xe0, 0x63, 0x46,
  0x0a, 0xe0, 0x46, 0x4d, 0x08, 0x80, 0x48, 0x72, 0x00, 0xe0, 0x28, 0x51,
  0x0a, 0xe0, 0x09, 0x52, 0x0a, 0xe0, 0x47, 0x4f, 0x0a, 0xe0, 0x65, 0x4b,
  0x08, 0xe0, 0x63, 0x46, 0x0c, 0xe0, 0x61, 0x42, 0x0a, 0xe0, 0x00, 0x41,
  0x0a, 0xe0, 0x00, 0x40, 0x42, 0x90, 0x39, 0x72, 0x62, 0x90, 0x3a, 0x66,
  0x0e, 0x80, 0x39, 0x72, 0x48, 0x80, 0x3a, 0x66, 0x06, 0x90, 0x3b, 0x6b,
  0x4a, 0x80, 0x3b, 0x6b, 0x1a, 0x90, 0x43, 0x72, 0x54, 0x80, 0x43, 0x72,
  0x6c, 0x90, 0x43, 0x71, 0x46, 0x80, 0x43, 0x71, 0x18, 0x90, 0x37, 0x72,
  0x81, 0x24, 0xe0, 0x40, 0x41, 0x08, 0xe0, 0x3d, 0x3b, 0x0a, 0xe0, 0x5b,
  0x37, 0x0a, 0xe0, 0x1a, 0x34, 0x0a, 0xe0, 0x19, 0x32, 0x0c, 0xe0, 0x58,
  0x30, 0x0a, 0xe0, 0x38, 0x30, 0x0a, 0xe0, 0x77, 0x2f, 0x0a, 0xe0, 0x58,
  0x30, 0x0a, 0xe0, 0x59, 0x33, 0x08, 0xe0, 0x1c, 0x39, 0x0a, 0xe0, 0x1e,
  0x3d, 0x0a, 0xe0, 0x7f, 0x3e, 0x08, 0xe0, 0x00, 0x40, 0x52, 0xe0, 0x40,
  0x41, 0x08, 0xe0, 0x3d, 0x3b, 0x0a, 0xe0, 0x3c, 0x38, 0x0a, 0xe0, 0x5a,
  0x34, 0x08, 0xe0, 0x19, 0x32, 0x0a, 0xe0, 0x77, 0x2f, 0x0a, 0xe0, 0x37,
  0x2e, 0x0a, 0xe0, 0x36, 0x2d, 0x12, 0xe0, 0x77, 0x2f, 0x0a, 0xe0, 0x1a,
  0x35, 0x0a, 0xe0, 0x7d, 0x3a, 0x0a, 0xe0, 0x1f, 0x3e, 0x08, 0xe0, 0x3f,
  0x3f, 0x0a, 0xe0, 0x00, 0x40, 0x3e, 0xe0, 0x00, 0x41, 0x0a, 0xe0, 0x5e,
  0x3c, 0x0a, 0xe0, 0x5d, 0x3a, 0x0a, 0xe0, 0x7c, 0x38, 0x0a, 0xe0, 0x5b,
  0x37, 0x08, 0xe0, 0x3c, 0x38, 0x0a, 0xe0, 0x5d, 0x3a, 0x0a, 0xe0, 0x5e,
  0x3d, 0x0a, 0xe0, 0x3f, 0x3f, 0x0a, 0xe0, 0x00, 0x40, 0x42, 0xe0, 0x40,
  0x40, 0x0a, 0xe0, 0x21, 0x42, 0x0a, 0xe0, 0x3e, 0x3c, 0x0a, 0xe0, 0x3d,
  0x3b, 0x08, 0xe0, 0x5d, 0x3a, 0x10, 0xe0, 0x3d, 0x3b, 0x0c, 0xe0, 0x1f,
  0x3e, 0x0a, 0xe0, 0x3f, 0x3f, 0x0a, 0xe0, 0x00, 0x40, 0x5e, 0x80, 0x37,
  0x72, 0x82, 0x0d, 0x90, 0x4a, 0x7e, 0x5c, 0x80, 0x4a, 0x7e, 0x5d, 0x90,
  0x4c, 0x7f, 0x04, 0xe0, 0x30, 0x51, 0x06, 0xe0, 0x50, 0x5a, 0x07, 0xe0,
  0x70, 0x65, 0x06, 0xe0, 0x60, 0x6f, 0x06, 0xe0, 0x30, 0x7a, 0x06, 0xe0,
  0x7f, 0x7f, 0x18, 0x80, 0x4c, 0x7f, 0x28, 0x90, 0x4c, 0x7f, 0x64, 0x80,
  0x4c, 0x7f, 0x27, 0xe0, 0x50, 0x7e, 0x07, 0xe0, 0x30, 0x72, 0x05, 0xe0,
  0x70, 0x65, 0x06, 0xe0, 0x60, 0x56, 0x06, 0xe0, 0x00, 0x49, 0x07, 0xe0,
  0x00, 0x40, 0x06, 0x90, 0x4c, 0x7f, 0x82, 0x0f, 0x80, 0x4c, 0x7f, 0x04,
  0x90, 0x4a, 0x7e, 0x3c, 0x80, 0x4a, 0x7e, 0x81, 0x09, 0x90, 0x4a, 0x7f,
  0x81, 0x48, 0x80, 0x4a, 0x7f, 0x03, 0x90, 0x47, 0x7b, 0x32, 0x80, 0x47,
  0x7b, 0x36, 0x90, 0x4a, 0x7f, 0x81, 0x4b, 0x80, 0x4a, 0x7f, 0x3a, 0x90,
  0x45, 0x7b, 0x1f, 0xe0, 0x60, 0x4e, 0x06, 0xe0, 0x30, 0x59, 0x06, 0xe0,
  0x60, 0x63, 0x06, 0xe0, 0x30, 0x70, 0x06, 0xe0, 0x50, 0x7b, 0x07, 0xe0,
  0x7f, 0x7f, 0x81, 0x2c, 0x80, 0x45, 0x7b, 0x15, 0xe0, 0x60, 0x7a, 0x07,
  0xe0, 0x30, 0x70, 0x05, 0xe0, 0x40, 0x63, 0x07, 0xe0, 0x60, 0x53, 0x06,
  0xe0, 0x70, 0x46, 0x06, 0xe0, 0x00, 0x40, 0x82, 0x3a, 0x90, 0x4d, 0x7f,
  0x81, 0x76, 0x80, 0x4d, 0x7f, 0x81, 0x15, 0x90, 0x4c, 0x7f, 0x81, 0x72,
  0x80, 0x4c, 0x7f, 0x81, 0x12, 0x90, 0x4a, 0x7f, 0x81, 0x12, 0x80, 0x4a,
  0x7f, 0x2b, 0x90, 0x4a, 0x7f, 0x57, 0x80, 0x4a, 0x7f, 0x5b, 0xe0, 0x70,
  0x47, 0x04, 0x90, 0x4c, 0x7f, 0x08, 0xe0, 0x20, 0x58, 0x06, 0xe0, 0x40,
  0x60, 0x06, 0xe0, 0x50, 0x68, 0x06, 0xe0, 0x20, 0x71, 0x07, 0xe0, 0x30,
  0x78, 0x06, 0xe0, 0x20, 0x7f, 0x05, 0xe0, 0x7f, 0x7f, 0x09, 0x80, 0x4c,
  0x7f, 0x28, 0x90, 0x4c, 0x7f, 0x66, 0x80, 0x4c, 0x7f, 0x40, 0xe0, 0x00,
  0x79, 0x06, 0xe0, 0x50, 0x6b, 0x06, 0xe0, 0x00, 0x5d, 0x06, 0xe0, 0x30,
  0x4b, 0x06, 0xe0, 0x00, 0x40, 0x00, 0x90, 0x4c, 0x7f, 0x81, 0x7e, 0xb0,
  0x01, 0x09, 0x06, 0xb0, 0x01, 0x14, 0x06, 0xb0, 0x01, 0x20, 0x06, 0xb0,
  0x01, 0x2d, 0x06, 0xb0, 0x01, 0x36, 0x04, 0x90, 0x4a, 0x7f, 0x03, 0xb0,
  0x01, 0x41, 0x08, 0xb0, 0x01, 0x4c, 0x06, 0x80, 0x4c, 0x7f, 0x00, 0xb0,
  0x01, 0x52, 0x06, 0xb0, 0x01, 0x49, 0x06, 0xb0, 0x01, 0x38, 0x06, 0xb0,
  0x01, 0x24, 0x07, 0xb0, 0x01, 0x09, 0x06, 0xb0, 0x01, 0x00, 0x08, 0x80,
  0x4a, 0x7f, 0x81, 0x14, 0x90, 0x4a, 0x7f, 0x81, 0x31, 0x90, 0x4c, 0x7f,
  0x0e, 0x80, 0x4a, 0x7f, 0x3d, 0x90, 0x4a, 0x7e, 0x0f, 0x80, 0x4c, 0x7f,
  0x81, 0x7c, 0xb0, 0x01, 0x0a, 0x07, 0xb0, 0x01, 0x19, 0x06, 0xb0, 0x01,
  0x28, 0x06, 0xb0, 0x01, 0x35, 0x06, 0xb0, 0x01, 0x40, 0x05, 0xb0, 0x01,
  0x4a, 0x06, 0xb0, 0x01, 0x54, 0x07, 0xb0, 0x01, 0x5b, 0x06, 0xb0, 0x01,
  0x5f, 0x0b, 0xb0, 0x01, 0x62, 0x03, 0x90, 0x2b, 0x4d, 0x03, 0xb0, 0x01,
  0x66, 0x0c, 0xb0, 0x01, 0x5f, 0x05, 0xb0, 0x01, 0x52, 0x06, 0xb0, 0x01,
  0x3c, 0x07, 0xb0, 0x01, 0x1f, 0x06, 0xb0, 0x01, 0x00, 0x01, 0x80, 0x4a,
  0x7e, 0x81, 0x18, 0x90, 0x3e, 0x4b, 0x81, 0x62, 0x80, 0x2b, 0x4d, 0x81,
  0x1e, 0x90, 0x2b, 0x4f, 0x30, 0x80, 0x2b, 0x4f, 0x81, 0x0e, 0x90, 0x2b,
  0x52, 0x1e, 0x80, 0x3e, 0x4b, 0x81, 0x24, 0x90, 0x3e, 0x4f, 0x56, 0x80,
  0x2b, 0x52, 0x6a, 0x90, 0x30, 0x4b, 0x60, 0x90, 0x31, 0x4b, 0x10, 0x80,
  0x30, 0x4b, 0x22, 0x80, 0x31, 0x4b, 0x2e, 0x90, 0x32, 0x4b, 0x46, 0x80,
  0x32, 0x4b, 0x2a, 0x80, 0x3e, 0x4f, 0x4f, 0x90, 0x4a, 0x7f, 0x5a, 0x80,
  0x4a, 0x7f, 0x57, 0xe0, 0x30, 0x43, 0x07, 0x90, 0x4c, 0x7f, 0x07, 0x90,
  0x3e, 0x4d, 0x03, 0xe0, 0x60, 0x55, 0x05, 0xe0, 0x60, 0x5b, 0x07, 0xe0,
  0x20, 0x63, 0x06, 0xe0, 0x50, 0x68, 0x06, 0xe0, 0x70, 0x70, 0x06, 0xe0,
  0x60, 0x77, 0x07, 0xe0, 0x7f, 0x7f, 0x4a, 0x80, 0x4c, 0x7f, 0x4b, 0x90,
  0x4c, 0x7f, 0x2b, 0x80, 0x4c, 0x7f, 0x16, 0xe0, 0x40, 0x7f, 0x06, 0xe0,
  0x10, 0x71, 0x06, 0xe0, 0x30, 0x5f, 0x06, 0xe0, 0x70, 0x4c, 0x06, 0xe0,
  0x00, 0x40, 0x0d, 0x90, 0x4c, 0x7f, 0x5d, 0x80, 0x3e, 0x00, 0x60, 0x90,
  0x4a, 0x62, 0x03, 0x80, 0x4c, 0x7f, 0x1f, 0x80, 0x4a, 0x62, 0x25, 0x90,
  0x4a, 0x7f, 0x49, 0x80, 0x4a, 0x7f, 0x7d, 0x90, 0x4a, 0x7f, 0x81, 0x4b,
  0x90, 0x47, 0x7b, 0x01, 0x80, 0x4a, 0x7f, 0x2b, 0x80, 0x47, 0x7b, 0x3c,
  0x90, 0x4a, 0x7f, 0x81, 0x40, 0x90, 0x45, 0x7f, 0x0d, 0x80, 0x4a, 0x7f,
  0x4b, 0xe0, 0x10, 0x43, 0x0a, 0xe0, 0x30, 0x50, 0x06, 0xe0, 0x20, 0x5a,
  0x06, 0xe0, 0x70, 0x60, 0x06, 0xe0, 0x70, 0x68, 0x06, 0xe0, 0x00, 0x70,
  0x07, 0xe0, 0x50, 0x76, 0x06, 0xe0, 0x50, 0x7b, 0x06, 0xe0, 0x20, 0x7f,
  0x05, 0xe0, 0x7f, 0x7f, 0x7e, 0xb0, 0x01, 0x07, 0x07, 0xb0, 0x01, 0x19,
  0x0c, 0xb0, 0x01, 0x36, 0x06, 0xb0, 0x01, 0x52, 0x06, 0xb0, 0x01, 0x64,
  0x06, 0xb0, 0x01, 0x73, 0x06, 0xb0, 0x01, 0x7f, 0x45, 0x80, 0x45, 0x00,
  0x00, 0x90, 0x3e, 0x52, 0x00, 0x90, 0x2b, 0x52, 0x0f, 0xb0, 0x01, 0x6a,
  0x05, 0xb0, 0x01, 0x4c, 0x07, 0xb0, 0x01, 0x2b, 0x06, 0xb0, 0x01, 0x09,
  0x06, 0xb0, 0x01, 0x00, 0x41, 0xe0, 0x50, 0x7e, 0x06, 0xe0, 0x50, 0x75,
  0x06, 0xe0, 0x50, 0x6a, 0x07, 0xe0, 0x00, 0x5f, 0x06, 0xe0, 0x30, 0x51,
  0x06, 0xe0, 0x10, 0x46, 0x06, 0xe0, 0x00, 0x40, 0x33, 0x80, 0x2b, 0x00,
  0x62, 0x90, 0x2b, 0x4f, 0x2e, 0x80, 0x2b, 0x4f, 0x81, 0x10, 0x80, 0x3e,
  0x00, 0x02, 0x90, 0x2b, 0x4d, 0x81, 0x40, 0x90, 0x3e, 0x4f, 0x81, 0x08,
  0x80, 0x2b, 0x4d, 0x38, 0x90, 0x30, 0x4b, 0x4a, 0x80, 0x30, 0x4b, 0x12,
  0x90, 0x31, 0x4b, 0x30, 0x80, 0x31, 0x4b, 0x30, 0x90, 0x32, 0x4b, 0x3c,
  0x80, 0x32, 0x4b, 0x81, 0x06, 0x90, 0x32, 0x4f, 0x0e, 0x80, 0x3e, 0x4f,
  0x50, 0x90, 0x4a, 0x7f, 0x02, 0x80, 0x32, 0x00, 0x2c, 0x80, 0x4a, 0x7f,
  0x29, 0x90, 0x4c, 0x7f, 0x0d, 0xe0, 0x20, 0x47, 0x06, 0xe0, 0x50, 0x56,
  0x06, 0xe0, 0x30, 0x64, 0x07, 0xe0, 0x50, 0x72, 0x06, 0xe0, 0x30, 0x7e,
  0x06, 0xe0, 0x7f, 0x7f, 0x52, 0x80, 0x4c, 0x7f, 0x41, 0x90, 0x4c, 0x7f,
  0x29, 0x80, 0x4c, 0x7f, 0x27, 0xe0, 0x40, 0x7c, 0x06, 0xe0, 0x20, 0x6d,
  0x06, 0xe0, 0x10, 0x5c, 0x04, 0x90, 0x4c, 0x7f, 0x02, 0xe0, 0x10, 0x48,
  0x08, 0xe0, 0x00, 0x40, 0x81, 0x2a, 0x80, 0x4c, 0x7f, 0x03, 0x90, 0x4a,
  0x6d, 0x23, 0x80, 0x4a, 0x6d, 0x2a, 0x90, 0x4a, 0x7f, 0x73, 0x80, 0x4a,
  0x7f, 0x6b, 0x90, 0x4a, 0x7f, 0x81, 0x49, 0x90, 0x4c, 0x7b, 0x0b, 0x80,
  0x4a, 0x7f, 0x24, 0x80, 0x4c, 0x7b, 0x3b, 0x90, 0x4a, 0x7f, 0x81, 0x5e,
  0x80, 0x4a, 0x7f, 0x30, 0x90, 0x4a, 0x7f, 0x50, 0x80, 0x4a, 0x7f, 0x78,
  0x90, 0x4a, 0x7f, 0x81, 0x07, 0x80, 0x4a, 0x7f, 0x32, 0x90, 0x4a, 0x7f,
  0x30, 0x80, 0x4a, 0x7f, 0x33, 0x90, 0x4a, 0x77, 0x81, 0x75, 0xb0, 0x01,
  0x03, 0x07, 0xb0, 0x01, 0x07, 0x05, 0xb0, 0x01, 0x0a, 0x06, 0xb0, 0x01,
  0x10, 0x06, 0xb0, 0x01, 0x14, 0x06, 0xb0, 0x01, 0x17, 0x06, 0xb0, 0x01,
  0x1b, 0x08, 0xb0, 0x01, 0x1f, 0x0b, 0xb0, 0x01, 0x22, 0x05, 0xb0, 0x01,
  0x26, 0x06, 0xb0, 0x01, 0x28, 0x06, 0xb0, 0x01, 0x2a, 0x07, 0xb0, 0x01,
  0x2b, 0x06, 0xb0, 0x01, 0x2f, 0x05, 0xb0, 0x01, 0x31, 0x06, 0xb0, 0x01,
  0x33, 0x06, 0xb0, 0x01, 0x35, 0x06, 0xb0, 0x01, 0x36, 0x07, 0xb0, 0x01,
  0x38, 0x05, 0xb0, 0x01, 0x3c, 0x06, 0xb0, 0x01, 0x3e, 0x07, 0xb0, 0x01,
  0x40, 0x06, 0xb0, 0x01, 0x43, 0x07, 0xb0, 0x01, 0x45, 0x06, 0xb0, 0x01,
  0x49, 0x06, 0xb0, 0x01, 0x4c, 0x05, 0xb0, 0x01, 0x50, 0x06, 0xb0, 0x01,
  0x52, 0x06, 0xb0, 0x01, 0x55, 0x07, 0xb0, 0x01, 0x59, 0x06, 0xb0, 0x01,
  0x5d, 0x06, 0xb0, 0x01, 0x5f, 0x06, 0xb0, 0x01, 0x62, 0x06, 0xb0, 0x01,
  0x64, 0x06, 0xb0, 0x01, 0x68, 0x07, 0xb0, 0x01, 0x6b, 0x05, 0xb0, 0x01,
  0x6f, 0x11, 0xb0, 0x01, 0x73, 0x05, 0xb0, 0x01, 0x78, 0x06, 0xb0, 0x01,
  0x7a, 0x0c, 0xb0, 0x01, 0x7c, 0x06, 0xb0, 0x01, 0x7e, 0x06, 0xb0, 0x01,
  0x7f, 0x4a, 0xb0, 0x01, 0x78, 0x06, 0xb0, 0x01, 0x6d, 0x06, 0xb0, 0x01,
  0x5f, 0x06, 0xb0, 0x01, 0x4a, 0x06, 0xb0, 0x01, 0x33, 0x06, 0xb0, 0x01,
  0x19, 0x06, 0xb0, 0x01, 0x00, 0x17, 0x80, 0x4a, 0x77, 0x17, 0x90, 0x3e,
  0x54, 0x02, 0x90, 0x30, 0x4b, 0x5c, 0x90, 0x31, 0x4b, 0x04, 0x80, 0x30,
  0x4b, 0x36, 0x80, 0x31, 0x4b, 0x28, 0x80, 0x3e, 0x00, 0x00, 0x90, 0x32,
  0x4b, 0x00, 0x90, 0x39, 0x4b, 0x46, 0x80, 0x32, 0x4b, 0x04, 0x80, 0x39,
  0x4b, 0x76, 0x90, 0x32, 0x4d, 0x02, 0x90, 0x39, 0x4b, 0x7a, 0x80, 0x32,
  0x4d, 0x34, 0x80, 0x39, 0x4b, 0x12, 0x90, 0x32, 0x4b, 0x00, 0x90, 0x3b,
  0x4d, 0x0a, 0xe0, 0x60, 0x45, 0x05, 0xe0, 0x00, 0x4c, 0x07, 0xe0, 0x40,
  0x55, 0x06, 0xe0, 0x20, 0x5d, 0x06, 0xe0, 0x50, 0x64, 0x06, 0xe0, 0x20,
  0x6b, 0x07, 0xe0, 0x60, 0x71, 0x06, 0xe0, 0x00, 0x76, 0x01, 0x80, 0x32,
  0x4b, 0x05, 0xe0, 0x00, 0x7b, 0x06, 0xe0, 0x60, 0x7f, 0x06, 0xe0, 0x7f,
  0x7f, 0x19, 0x90, 0x32, 0x4b, 0x00, 0x90, 0x39, 0x4d, 0x02, 0x80, 0x3b,
  0x4d, 0x81, 0x54, 0x80, 0x39, 0x4d, 0x11, 0xe0, 0x20, 0x7b, 0x06, 0xe0,
  0x70, 0x70, 0x07, 0xe0, 0x70, 0x62, 0x06, 0xe0, 0x30, 0x54, 0x06, 0xe0,
  0x10, 0x40, 0x06, 0xe0, 0x00, 0x40, 0x06, 0x80, 0x32, 0x4b, 0x10, 0x90,
  0x37, 0x4b, 0x00, 0x90, 0x3c, 0x4b, 0x36, 0x80, 0x3c, 0x4b, 0x0c, 0x80,
  0x37, 0x4b, 0x7e, 0x90, 0x37, 0x4b, 0x00, 0x90, 0x3c, 0x4b, 0x81, 0x40,
  0x80, 0x37, 0x4b, 0x00, 0x90, 0x39, 0x4b, 0x5a, 0x80, 0x39, 0x4b, 0x06,
  0x90, 0x37, 0x4b, 0x81, 0x3c, 0x80, 0x3c, 0x4b, 0x10, 0x80, 0x37, 0x4b,
  0x54, 0x90, 0x32, 0x4b, 0x00, 0x90, 0x37, 0x4b, 0x32, 0x80, 0x32, 0x4b,
  0x0c, 0x80, 0x37, 0x4b, 0x81, 0x02, 0x90, 0x2b, 0x4b, 0x04, 0x90, 0x37,
  0x4b, 0x12, 0xe0, 0x70, 0x46, 0x07, 0xe0, 0x30, 0x50, 0x06, 0xe0, 0x70,
  0x58, 0x06, 0xe0, 0x20, 0x63, 0x06, 0xe0, 0x00, 0x6b, 0x07, 0xe0, 0x00,
  0x73, 0x06, 0xe0, 0x40, 0x79, 0x06, 0xe0, 0x20, 0x7f, 0x05, 0xe0, 0x7f,
  0x7f, 0x79, 0x80, 0x37, 0x4b, 0x08, 0x80, 0x2b, 0x4b, 0x76, 0xe0, 0x50,
  0x7b, 0x06, 0xe0, 0x20, 0x71, 0x07, 0xe0, 0x40, 0x66, 0x06, 0xe0, 0x70,
  0x5a, 0x06, 0xe0, 0x10, 0x4e, 0x06, 0xe0, 0x60, 0x42, 0x07, 0xe0, 0x00,
  0x40, 0x1c, 0x90, 0x34, 0x4b, 0x00, 0x90, 0x37, 0x4b, 0x81, 0x1c, 0x80,
  0x34, 0x4b, 0x00, 0x80, 0x37, 0x4b, 0x81, 0x62, 0x90, 0x32, 0x4b, 0x00,
  0x90, 0x37, 0x4b, 0x81, 0x16, 0x80, 0x37, 0x4b, 0x02, 0x80, 0x32, 0x4b,
  0x81, 0x0e, 0x90, 0x30, 0x4b, 0x00, 0x90, 0x37, 0x4b, 0x81, 0x56, 0x80,
  0x37, 0x4b, 0x32, 0x80, 0x30, 0x4b, 0x14, 0x90, 0x39, 0x4b, 0x00, 0x90,
  0x3e, 0x4b, 0x3e, 0x80, 0x3e, 0x4b, 0x04, 0x80, 0x39, 0x4b, 0x7e, 0x90,
  0x39, 0x4b, 0x00, 0x90, 0x3e, 0x4b, 0x81, 0x3c, 0x80, 0x39, 0x4b, 0x04,
  0x90, 0x3b, 0x4b, 0x06, 0xe0, 0x20, 0x52, 0x05, 0xe0, 0x00, 0x5f, 0x06,
  0xe0, 0x60, 0x6e, 0x07, 0xe0, 0x70, 0x79, 0x06, 0xe0, 0x7f, 0x7f, 0x30,
  0x80, 0x3b, 0x4b, 0x10, 0x90, 0x39, 0x4b, 0x81, 0x5c, 0x80, 0x39, 0x4b,
  0x2e, 0x80, 0x3e, 0x4b, 0x0d, 0xe0, 0x00, 0x62, 0x09, 0x90, 0x3c, 0x4b,
  0x02, 0x90, 0x37, 0x4b, 0x07, 0xe0, 0x00, 0x40, 0x2f, 0x80, 0x37, 0x4b,
  0x0e, 0x80, 0x3c, 0x4b, 0x7a, 0x90, 0x37, 0x4b, 0x00, 0x90, 0x3c, 0x4b,
  0x81, 0x42, 0x80, 0x37, 0x4b, 0x02, 0x90, 0x39, 0x4b, 0x5c, 0x90, 0x37,
  0x4b, 0x10, 0x80, 0x39, 0x4b, 0x81, 0x1e, 0x80, 0x3c, 0x4b, 0x0e, 0x80,
  0x37, 0x4b, 0x66, 0x90, 0x32, 0x4b, 0x00, 0x90, 0x37, 0x4b, 0x34, 0x80,
  0x32, 0x4b, 0x0c, 0x80, 0x37, 0x4b, 0x81, 0x04, 0x90, 0x2b, 0x4b, 0x00,
  0x90, 0x37, 0x4b, 0x81, 0x34, 0x80, 0x37, 0x4b, 0x0e, 0x80, 0x2b, 0x4b,
  0x81, 0x3c, 0x90, 0x37, 0x4b, 0x02, 0x90, 0x34, 0x4b, 0x81, 0x22, 0x80,
  0x37, 0x4b, 0x0c, 0x80, 0x34, 0x4b, 0x81, 0x4e, 0x90, 0x32, 0x4b, 0x00,
  0x90, 0x37, 0x4b, 0x81, 0x22, 0x80, 0x32, 0x4b, 0x0c, 0x80, 0x37, 0x4b,
  0x81, 0x50, 0x90, 0x30, 0x4b, 0x00, 0x90, 0x37, 0x4b, 0x81, 0x34, 0x80,
  0x37, 0x4b, 0x12, 0x90, 0x39, 0x4b, 0x00, 0x90, 0x3e, 0x4b, 0x02, 0x80,
  0x30, 0x4b, 0x36, 0x80, 0x3e, 0x4b, 0x02, 0x80, 0x39, 0x4b, 0x81, 0x02,
  0x90, 0x39, 0x4b, 0x00, 0x90, 0x3e, 0x4b, 0x81, 0x32, 0x80, 0x39, 0x4b,
  0x0e, 0x90, 0x3b, 0x4b, 0x16, 0xe0, 0x30, 0x48, 0x06, 0xe0, 0x00, 0x54,
  0x06, 0xe0, 0x50, 0x5d, 0x07, 0xe0, 0x10, 0x67, 0x06, 0xe0, 0x40, 0x6f,
  0x06, 0xe0, 0x30, 0x77, 0x05, 0xe0, 0x70, 0x7c, 0x07, 0xe0, 0x7f, 0x7f,
  0x17, 0x80, 0x3b, 0x4b, 0x06, 0x90, 0x39, 0x4b, 0x81, 0x64, 0x80, 0x39,
  0x4b, 0x14, 0xe0, 0x30, 0x78, 0x07, 0xe0, 0x50, 0x6b, 0x06, 0xe0, 0x40,
  0x5b, 0x05, 0xe0, 0x30, 0x4c, 0x0a, 0xe0, 0x00, 0x40, 0x0c, 0x80, 0x3e,
  0x4b, 0x00, 0x90, 0x3c, 0x4b, 0x02, 0x90, 0x37, 0x4b, 0x46, 0x80, 0x37,
  0x4b, 0x02, 0x80, 0x3c, 0x4b, 0x78, 0x90, 0x37, 0x4b, 0x00, 0x90, 0x3c,
  0x4b, 0x81, 0x3a, 0x80, 0x37, 0x4b, 0x0a, 0x90, 0x39, 0x4b, 0x5c, 0x90,
  0x37, 0x4b, 0x02, 0x80, 0x39, 0x4b, 0x81, 0x40, 0x80, 0x3c, 0x4b, 0x00,
  0x80, 0x37, 0x4b, 0x62, 0x90, 0x32, 0x4b, 0x00, 0x90, 0x37, 0x4b, 0x2c,
  0x80, 0x32, 0x4b, 0x02, 0x80, 0x37, 0x4b, 0x81, 0x12, 0x90, 0x2b, 0x4b,
  0x00, 0x90, 0x37, 0x4b, 0x19, 0xe0, 0x70, 0x49, 0x06, 0xe0, 0x50, 0x51,
  0x06, 0xe0, 0x20, 0x5d, 0x05, 0xe0, 0x50, 0x67, 0x07, 0xe0, 0x10, 0x72,
  0x05, 0xe0, 0x50, 0x7b, 0x06, 0xe0, 0x7f, 0x7f, 0x62, 0x80, 0x37, 0x4b,
  0x10, 0x80, 0x2b, 0x4b, 0x3c, 0xe0, 0x10, 0x7a, 0x06, 0xe0, 0x60, 0x6f,
  0x06, 0xe0, 0x20, 0x63, 0x06, 0xe0, 0x30, 0x56, 0x06, 0xe0, 0x20, 0x4a,
  0x07, 0xe0, 0x00, 0x40, 0x73, 0x90, 0x37, 0x4b, 0x04, 0x90, 0x34, 0x4b,
  0x81, 0x22, 0x80, 0x37, 0x4b, 0x00, 0x80, 0x34, 0x4b, 0x81, 0x58, 0x90,
  0x32, 0x4b, 0x00, 0x90, 0x37, 0x4b, 0x81, 0x18, 0x80, 0x32, 0x4b, 0x0a,
  0x80, 0x37, 0x4b, 0x81, 0x04, 0x90, 0x30, 0x4b, 0x00, 0x90, 0x37, 0x4b,
  0x81, 0x5c, 0x80, 0x37, 0x4b, 0x2a, 0x80, 0x30, 0x4b, 0x12, 0x90, 0x39,
  0x4b, 0x02, 0x90, 0x3e, 0x4b, 0x3e, 0x80, 0x3e, 0x4b, 0x0c, 0x80, 0x39,
  0x4b, 0x76, 0x90, 0x39, 0x4b, 0x00, 0x90, 0x3e, 0x4b, 0x81, 0x3c, 0x80,
  0x39, 0x4b, 0x04, 0x90, 0x3b, 0x4b, 0x0c, 0xe0, 0x20, 0x4d, 0x06, 0xe0,
  0x10, 0x53, 0x06, 0xe0, 0x60, 0x5b, 0x06, 0xe0, 0x20, 0x62, 0x07, 0xe0,
  0x50, 0x6a, 0x06, 0xe0, 0x10, 0x72, 0x05, 0xe0, 0x40, 0x79, 0x07, 0xe0,
  0x40, 0x7f, 0x06, 0xe0, 0x7f, 0x7f, 0x17, 0x80, 0x3b, 0x4b, 0x0c, 0x90,
  0x39, 0x4b, 0x81, 0x6e, 0x80, 0x39, 0x4b, 0x14, 0xe0, 0x00, 0x7e, 0x06,
  0xe0, 0x70, 0x70, 0x06, 0xe0, 0x00, 0x5f, 0x14, 0x90, 0x37, 0x4b, 0x00,
  0x90, 0x3c, 0x4b, 0x0d, 0xe0, 0x00, 0x40, 0x19, 0x80, 0x3e, 0x4b, 0x1a,
  0x80, 0x37, 0x4b, 0x02, 0x80, 0x3c, 0x4b, 0x7e, 0x90, 0x37, 0x4b, 0x02,
  0x90, 0x3c, 0x4b, 0x81, 0x3a, 0x80, 0x37, 0x4b, 0x08, 0x90, 0x39, 0x4b,
  0x5c, 0x80, 0x39, 0x4b, 0x00, 0x90, 0x37, 0x4b, 0x81, 0x08, 0x80, 0x3c,
  0x4b, 0x1a, 0x80, 0x37, 0x4b, 0x7e, 0x90, 0x32, 0x4b, 0x00, 0x90, 0x37,
  0x4b, 0x3c, 0x80, 0x32, 0x4b, 0x00, 0x80, 0x37, 0x4b, 0x81, 0x04, 0x90,
  0x32, 0x4b, 0x02, 0x90, 0x37, 0x4b, 0x81, 0x7c, 0x80, 0x37, 0x4b, 0x02,
  0x80, 0x32, 0x4b, 0x82, 0x44, 0x90, 0x35, 0x59, 0x82, 0x74, 0x80, 0x35,
  0x59, 0x08, 0x90, 0x34, 0x4d, 0x82, 0x7e, 0x80, 0x34, 0x4d, 0x04, 0xb0,
  0x01, 0x00, 0x5a, 0x90, 0x42, 0x72, 0x5c, 0x90, 0x4a, 0x72, 0x12, 0x80,
  0x42, 0x72, 0x38, 0x80, 0x4a, 0x72, 0x18, 0x90, 0x4a, 0x72, 0x81, 0x14,
  0xe0, 0x00, 0x41, 0x0c, 0xe0, 0x21, 0x42, 0x08, 0x80, 0x4a, 0x72, 0x02,
  0xe0, 0x61, 0x42, 0x0a, 0xe0, 0x60, 0x41, 0x08, 0xe0, 0x40, 0x40, 0x08,
  0x90, 0x4a, 0x72, 0x04, 0xe0, 0x00, 0x40, 0x5a, 0x80, 0x4a, 0x72, 0x00,
  0x90, 0x42, 0x72, 0x6e, 0x80, 0x42, 0x72, 0x50, 0x90, 0x3f, 0x6c, 0x4e,
  0x80, 0x3f, 0x6c, 0x12, 0x90, 0x40, 0x6d, 0x5c, 0x80, 0x40, 0x6d, 0x0a,
  0x90, 0x48, 0x72, 0x7a, 0x80, 0x48, 0x72, 0x42, 0x90, 0x48, 0x72, 0x81,
  0x04, 0xe0, 0x00, 0x41, 0x0a, 0xe0, 0x61, 0x42, 0x08, 0xe0, 0x02, 0x44,
  0x0a, 0xe0, 0x42, 0x44, 0x08, 0xe0, 0x02, 0x44, 0x08, 0xe0, 0x60, 0x41,
  0x0a, 0xe0, 0x40, 0x40, 0x0a, 0xe0, 0x00, 0x40, 0x24, 0x80, 0x48, 0x72,
  0x81, 0x10, 0x90, 0x39, 0x72, 0x62, 0x90, 0x3a, 0x63, 0x16, 0x80, 0x39,
  0x72, 0x42, 0x80, 0x3a, 0x63, 0x06, 0x90, 0x3b, 0x68, 0x52, 0x80, 0x3b,
  0x68, 0x12, 0x90, 0x43, 0x72, 0x5e, 0x80, 0x43, 0x72, 0x60, 0x90, 0x43,
  0x68, 0x46, 0x80, 0x43, 0x68, 0x1a, 0x90, 0x37, 0x72, 0x81, 0x38, 0xe0,
  0x21, 0x43, 0x0c, 0xe0, 0x5b, 0x37, 0x0a, 0xe0, 0x39, 0x32, 0x0a, 0xe0,
  0x37, 0x2e, 0x08, 0xe0, 0x56, 0x2c, 0x0a, 0xe0, 0x55, 0x2b, 0x0a, 0xe0,
  0x15, 0x2b, 0x0a, 0xe0, 0x16, 0x2c, 0x0a, 0xe0, 0x58, 0x30, 0x0a, 0xe0,
  0x5b, 0x37, 0x08, 0xe0, 0x3e, 0x3c, 0x0a, 0xe0, 0x3f, 0x3e, 0x0a, 0xe0,
  0x00, 0x40, 0x38, 0xe0, 0x40, 0x41, 0x08, 0xe0, 0x5d, 0x3a, 0x0a, 0xe0,
  0x3a, 0x35, 0x08, 0xe0, 0x18, 0x31, 0x0c, 0xe0, 0x76, 0x2d, 0x0a, 0xe0,
  0x16, 0x2c, 0x0a, 0xe0, 0x15, 0x2b, 0x08, 0xe0, 0x16, 0x2c, 0x0a, 0xe0,
  0x58, 0x30, 0x0a, 0xe0, 0x5b, 0x37, 0x08, 0xe0, 0x3e, 0x3c, 0x0a, 0xe0,
  0x3f, 0x3e, 0x0a, 0xe0, 0x00, 0x40, 0x3a, 0xe0, 0x40, 0x41, 0x08, 0xe0,
  0x7d, 0x3a, 0x08, 0xe0, 0x1b, 0x37, 0x0a, 0xe0, 0x59, 0x33, 0x0a, 0xe0,
  0x58, 0x31, 0x08, 0xe0, 0x58, 0x30, 0x14, 0xe0, 0x39, 0x32, 0x0a, 0xe0,
  0x1b, 0x37, 0x0a, 0xe0, 0x3e, 0x3c, 0x08, 0xe0, 0x3f, 0x3e, 0x0a, 0xe0,
  0x00, 0x40, 0x52, 0x80, 0x37, 0x72, 0x81, 0x7c, 0x90, 0x41, 0x72, 0x60,
  0x90, 0x42, 0x70, 0x1a, 0x80, 0x41, 0x72, 0x42, 0x90, 0x4a, 0x72, 0x16,
  0x80, 0x42, 0x70, 0x2a, 0x80, 0x4a, 0x72, 0x28, 0x90, 0x4a, 0x72, 0x81,
  0x0a, 0x80, 0x4a, 0x72, 0x34, 0x90, 0x4a, 0x72, 0x56, 0x80, 0x4a, 0x72,
  0x0a, 0x90, 0x42, 0x72, 0x66, 0x80, 0x42, 0x72, 0x54, 0x90, 0x3f, 0x72,
  0x64, 0x90, 0x40, 0x6b, 0x12, 0x80, 0x3f, 0x72, 0x46, 0x80, 0x40, 0x6b,
  0x06, 0x90, 0x48, 0x72, 0x48, 0x80, 0x48, 0x72, 0x78, 0x90, 0x48, 0x72,
  0x81, 0x7e, 0x80, 0x48, 0x72, 0x7e, 0x90, 0x39, 0x71, 0x60, 0x90, 0x3a,
  0x69, 0x20, 0x80, 0x39, 0x71, 0x40, 0x90, 0x3b, 0x66, 0x0c, 0x80, 0x3a,
  0x69, 0x44, 0x80, 0x3b, 0x66, 0x10, 0x90, 0x43, 0x72, 0x6e, 0x80, 0x43,
  0x72, 0x54, 0x90, 0x43, 0x72, 0x0a, 0x90, 0x37, 0x72, 0x52, 0x80, 0x43,
  0x72, 0x81, 0x16, 0xe0, 0x00, 0x41, 0x08, 0xe0, 0x42, 0x44, 0x0a, 0xe0,
  0x5b, 0x37, 0x0a, 0xe0, 0x1a, 0x34, 0x0a, 0xe0, 0x58, 0x31, 0x0a, 0xe0,
  0x57, 0x2e, 0x0a, 0xe0, 0x16, 0x2c, 0x0a, 0xe0, 0x35, 0x2a, 0x0a, 0xe0,
  0x34, 0x29, 0x08, 0xe0, 0x14, 0x29, 0x0c, 0xe0, 0x35, 0x2a, 0x0a, 0xe0,
  0x76, 0x2d, 0x08, 0xe0, 0x5a, 0x34, 0x0a, 0xe0, 0x7d, 0x3a, 0x0a, 0xe0,
  0x1f, 0x3e, 0x0a, 0xe0, 0x3f, 0x3f, 0x08, 0xe0, 0x00, 0x40, 0x48, 0xe0,
  0x60, 0x41, 0x0a, 0xe0, 0x3d, 0x3b, 0x0a, 0xe0, 0x7c, 0x38, 0x0a, 0xe0,
  0x3a, 0x35, 0x0a, 0xe0, 0x39, 0x33, 0x0a, 0xe0, 0x58, 0x31, 0x08, 0xe0,
  0x58, 0x30, 0x0a, 0xe0, 0x38, 0x30, 0x0a, 0xe0, 0x58, 0x30, 0x08, 0xe0,
  0x39, 0x33, 0x0a, 0xe0, 0x7c, 0x38, 0x0a, 0xe0, 0x5e, 0x3c, 0x08, 0xe0,
  0x7f, 0x3e, 0x0a, 0xe0, 0x00, 0x40, 0x40, 0xe0, 0x40, 0x41, 0x0a, 0xe0,
  0x7d, 0x3b, 0x0a, 0xe0, 0x7c, 0x38, 0x0a, 0xe0, 0x1a, 0x35, 0x0a, 0xe0,
  0x19, 0x32, 0x08, 0xe0, 0x38, 0x30, 0x0a, 0xe0, 0x57, 0x2e, 0x0a, 0xe0,
  0x17, 0x2f, 0x08, 0xe0, 0x79, 0x32, 0x0a, 0xe0, 0x1c, 0x39, 0x08, 0xe0,
  0x1e, 0x3d, 0x0a, 0xe0, 0x7f, 0x3e, 0x0c, 0xe0, 0x00, 0x40, 0x48, 0xe0,
  0x40, 0x41, 0x08, 0xe0, 0x5e, 0x3d, 0x0a, 0xe0, 0x1e, 0x3d, 0x0a, 0x90,
  0x30, 0x4b, 0x02, 0x80, 0x37, 0x00, 0x08, 0xe0, 0x3f, 0x3e, 0x08, 0xe0,
  0x00, 0x40, 0x4e, 0x80, 0x30, 0x4b, 0x00, 0x90, 0x31, 0x4b, 0x56, 0x80,
  0x31, 0x4b, 0x0a, 0x90, 0x32, 0x4b, 0x42, 0x80, 0x32, 0x4b, 0x81, 0x00,
  0x90, 0x4a, 0x7f, 0x53, 0x80, 0x4a, 0x7f, 0x68, 0x90, 0x4c, 0x7f, 0x09,
  0xe0, 0x50, 0x46, 0x07, 0xe0, 0x60, 0x4d, 0x06, 0xe0, 0x60, 0x53, 0x06,
  0xe0, 0x10, 0x5c, 0x06, 0xe0, 0x50, 0x62, 0x06, 0xe0, 0x70, 0x6b, 0x06,
  0xe0, 0x40, 0x74, 0x07, 0xe0, 0x50, 0x7d, 0x02, 0x80, 0x4c, 0x7f, 0x04,
  0xe0, 0x7f, 0x7f, 0x26, 0x90, 0x4c, 0x7f, 0x67, 0x80, 0x4c, 0x7f, 0x39,
  0xe0, 0x60, 0x7a, 0x06, 0xe0, 0x40, 0x6b, 0x06, 0xe0, 0x10, 0x5b, 0x06,
  0xe0, 0x20, 0x49, 0x06, 0xe0, 0x00, 0x40, 0x06, 0x90, 0x4c, 0x7f, 0x82,
  0x14, 0x90, 0x4a, 0x7e, 0x05, 0x80, 0x4c, 0x7f, 0x32, 0x80, 0x4a, 0x7e,
  0x81, 0x12, 0x90, 0x4a, 0x7f, 0x81, 0x3a, 0x80, 0x4a, 0x7f, 0x0e, 0x90,
  0x47, 0x7f, 0x27, 0x80, 0x47, 0x7f, 0x3a, 0x90, 0x4a, 0x7f, 0x81, 0x49,
  0x80, 0x4a, 0x7f, 0x45, 0xe0, 0x40, 0x44, 0x05, 0xe0, 0x20, 0x4c, 0x0c,
  0xe0, 0x30, 0x5f, 0x01, 0x90, 0x45, 0x78, 0x05, 0xe0, 0x10, 0x69, 0x07,
  0xe0, 0x60, 0x72, 0x06, 0xe0, 0x00, 0x79, 0x06, 0xe0, 0x10, 0x7f, 0x06,
  0xe0, 0x7f, 0x7f, 0x81, 0x22, 0x80, 0x45, 0x00, 0x00, 0x90, 0x2b, 0x4d,
  0x02, 0x90, 0x3e, 0x4b, 0x81, 0x0f, 0xe0, 0x20, 0x7c, 0x07, 0xe0, 0x70,
  0x73, 0x06, 0xe0, 0x10, 0x69, 0x07, 0xe0, 0x40, 0x5d, 0x05, 0xe0, 0x40,
  0x4f, 0x07, 0xe0, 0x20, 0x42, 0x06, 0xe0, 0x00, 0x40, 0x69, 0x80, 0x2b,
  0x00, 0x5e, 0x90, 0x2b, 0x4f, 0x30, 0x80, 0x2b, 0x4f, 0x81, 0x02, 0x80,
  0x3e, 0x4b, 0x0e, 0x90, 0x2b, 0x4d, 0x81, 0x44, 0x90, 0x3e, 0x4b, 0x81,
  0x1e, 0x80, 0x2b, 0x4d, 0x22, 0x90, 0x30, 0x4b, 0x5e, 0x80, 0x30, 0x4b,
  0x00, 0x90, 0x31, 0x4b, 0x54, 0x80, 0x31, 0x4b, 0x0e, 0x90, 0x32, 0x4b,
  0x38, 0x80, 0x32, 0x4b, 0x36, 0x80, 0x3e, 0x4b, 0x50, 0x90, 0x32, 0x4f,
  0x60, 0x80, 0x32, 0x00, 0x00, 0x90, 0x4a, 0x72, 0x5c, 0x90, 0x4e, 0x7f,
  0x04, 0x80, 0x4a, 0x00, 0x67, 0x80, 0x4e, 0x7f, 0x51, 0x90, 0x4e, 0x7f,
  0x4c, 0x80, 0x4e, 0x7f, 0x1e, 0x90, 0x4c, 0x7f, 0x81, 0x0f, 0x80, 0x4c,
  0x7f, 0x1f, 0x90, 0x4a, 0x6a, 0x2d, 0x80, 0x4a, 0x6a, 0x31, 0x90, 0x4a,
  0x7f, 0x2a, 0x80, 0x4a, 0x7f, 0x29, 0x90, 0x4a, 0x7f, 0x2d, 0x80, 0x4a,
  0x7f, 0x3f, 0x90, 0x4a, 0x7f, 0x81, 0x57, 0x90, 0x4c, 0x7f, 0x0c, 0x80,
  0x4a, 0x7f, 0x27, 0x80, 0x4c, 0x7f, 0x29, 0x90, 0x4a, 0x7f, 0x81, 0x32,
  0xb0, 0x01, 0x05, 0x06, 0xb0, 0x01, 0x0e, 0x06, 0xb0, 0x01, 0x17, 0x02,
  0x80, 0x4a, 0x00, 0x04, 0xb0, 0x01, 0x22, 0x07, 0xb0, 0x01, 0x2d, 0x06,
  0xb0, 0x01, 0x38, 0x06, 0xb0, 0x01, 0x43, 0x05, 0xb0, 0x01, 0x4a, 0x07,
  0xb0, 0x01, 0x54, 0x06, 0xb0, 0x01, 0x5b, 0x06, 0xb0, 0x01, 0x60, 0x06,
  0xb0, 0x01, 0x64, 0x05, 0xb0, 0x01, 0x68, 0x06, 0xb0, 0x01, 0x6d, 0x06,
  0xb0, 0x01, 0x71, 0x0c, 0xb0, 0x01, 0x66, 0x08, 0xb0, 0x01, 0x50, 0x04,
  0x90, 0x2b, 0x4f, 0x02, 0xb0, 0x01, 0x2b, 0x06, 0xb0, 0x01, 0x07, 0x07,
  0xb0, 0x01, 0x00, 0x81, 0x33, 0x90, 0x3e, 0x4b, 0x00, 0x90, 0x37, 0x4b,
  0x81, 0x7a, 0x80, 0x2b, 0x4f, 0x81, 0x06, 0x80, 0x37, 0x00, 0x02, 0x90,
  0x2b, 0x4f, 0x2e, 0x80, 0x2b, 0x4f, 0x16, 0x80, 0x3e, 0x4b, 0x7c, 0x90,
  0x2b, 0x4b, 0x81, 0x3e, 0x90, 0x3e, 0x4b, 0x81, 0x18, 0x80, 0x2b, 0x4b,
  0x2a, 0x90, 0x30, 0x4b, 0x54, 0x80, 0x30, 0x4b, 0x08, 0x90, 0x31, 0x4b,
  0x4a, 0x80, 0x31, 0x4b, 0x16, 0x90, 0x32, 0x4b, 0x40, 0x80, 0x32, 0x4b,
  0x4e, 0x80, 0x3e, 0x4b, 0x37, 0x90, 0x4a, 0x7f, 0x5c, 0x80, 0x4a, 0x7f,
  0x62, 0xe0, 0x60, 0x42, 0x01, 0x90, 0x4c, 0x7f, 0x05, 0xe0, 0x70, 0x4a,
  0x06, 0xe0, 0x60, 0x50, 0x07, 0xe0, 0x70, 0x5a, 0x06, 0xe0, 0x20, 0x60,
  0x06, 0xe0, 0x10, 0x67, 0x06, 0xe0, 0x20, 0x6d, 0x06, 0xe0, 0x20, 0x73,
  0x06, 0xe0, 0x60, 0x79, 0x07, 0xe0, 0x7f, 0x7f, 0x3b, 0x80, 0x4c, 0x7f,
  0x42, 0x90, 0x4c, 0x7f, 0x2c, 0x80, 0x4c, 0x7f, 0x27, 0xe0, 0x40, 0x7a,
  0x06, 0xe0, 0x70, 0x6b, 0x05, 0xe0, 0x30, 0x5c, 0x07, 0xe0, 0x60, 0x45,
  0x03, 0x90, 0x4c, 0x7f, 0x04, 0xe0, 0x00, 0x40, 0x81, 0x3d, 0x90, 0x4a,
  0x6c, 0x06, 0x80, 0x4c, 0x7f, 0x21, 0x80, 0x4a, 0x6c, 0x1e, 0x90, 0x4a,
  0x7e, 0x5f, 0x80, 0x4a, 0x7e, 0x76, 0x90, 0x4a, 0x7f, 0x81, 0x3c, 0x90,
  0x47, 0x7f, 0x05, 0x80, 0x4a, 0x7f, 0x39, 0x80, 0x47, 0x7f, 0x81, 0x11,
  0x90, 0x4a, 0x7f, 0x81, 0x7b, 0x80, 0x4a, 0x7f, 0x21, 0x90, 0x45, 0x7e,
  0x10, 0xe0, 0x60, 0x40, 0x06, 0xe0, 0x30, 0x49, 0x06, 0xe0, 0x30, 0x54,
  0x06, 0xe0, 0x50, 0x5c, 0x07, 0xe0, 0x00, 0x65, 0x05, 0xe0, 0x20, 0x6b,
  0x06, 0xe0, 0x30, 0x72, 0x06, 0xe0, 0x10, 0x77, 0x07, 0xe0, 0x70, 0x7c,
  0x06, 0xe0, 0x7f, 0x7f, 0x81, 0x59, 0x80, 0x45, 0x00, 0x00, 0x90, 0x3e,
  0x4b, 0x44, 0xb0, 0x01, 0x03, 0x05, 0xb0, 0x01, 0x07, 0x07, 0xb0, 0x01,
  0x09, 0x06, 0xb0, 0x01, 0x0a, 0x06, 0xb0, 0x01, 0x0c, 0x07, 0xb0, 0x01,
  0x0e, 0x06, 0xb0, 0x01, 0x10, 0x06, 0xb0, 0x01, 0x14, 0x06, 0xb0, 0x01,
  0x15, 0x06, 0xb0, 0x01, 0x19, 0x05, 0xb0, 0x01, 0x1f, 0x07, 0xb0, 0x01,
  0x2a, 0x05, 0xb0, 0x01, 0x35, 0x06, 0xb0, 0x01, 0x3e, 0x06, 0xb0, 0x01,
  0x47, 0x06, 0xb0, 0x01, 0x50, 0x06, 0xb0, 0x01, 0x5b, 0x06, 0xb0, 0x01,
  0x66, 0x06, 0xb0, 0x01, 0x73, 0x06, 0xb0, 0x01, 0x7c, 0x08, 0x90, 0x2b,
  0x4f, 0x03, 0xb0, 0x01, 0x7f, 0x1d, 0xb0, 0x01, 0x7a, 0x06, 0xb0, 0x01,
  0x6b, 0x07, 0xb0, 0x01, 0x57, 0x03, 0x80, 0x2b, 0x4f, 0x03, 0xb0, 0x01,
  0x40, 0x06, 0xb0, 0x01, 0x26, 0x05, 0xb0, 0x01, 0x0c, 0x06, 0xb0, 0x01,
  0x00, 0x7c, 0x90, 0x2b, 0x52, 0x02, 0x80, 0x3e, 0x00, 0x07, 0xe0, 0x60,
  0x7a, 0x07, 0xe0, 0x10, 0x71, 0x06, 0xe0, 0x10, 0x66, 0x06, 0xe0, 0x50,
  0x5a, 0x06, 0xe0, 0x60, 0x4e, 0x06, 0xe0, 0x00, 0x43, 0x06, 0xe0, 0x00,
  0x40, 0x81, 0x16, 0x90, 0x3e, 0x4b, 0x81, 0x06, 0x80, 0x2b, 0x52, 0x3a,
  0x90, 0x30, 0x4b, 0x4a, 0x80, 0x30, 0x4b, 0x12, 0x90, 0x31, 0x4b, 0x4a,
  0x80, 0x31, 0x4b, 0x16, 0x90, 0x32, 0x4b, 0x42, 0x80, 0x32, 0x4b, 0x16,
  0x80, 0x3e, 0x4b, 0x6a, 0x90, 0x32, 0x52, 0x60, 0x80, 0x32, 0x00, 0x06,
  0x90, 0x4a, 0x7b, 0x48, 0x80, 0x4a, 0x7b, 0x0f, 0x90, 0x4c, 0x7f, 0x0b,
  0xe0, 0x10, 0x43, 0x07, 0xe0, 0x00, 0x4e, 0x06, 0xe0, 0x70, 0x57, 0x06,
  0xe0, 0x20, 0x63, 0x07, 0xe0, 0x10, 0x6c, 0x06, 0xe0, 0x70, 0x76, 0x05,
  0xe0, 0x10, 0x7f, 0x07, 0xe0, 0x7f, 0x7f, 0x41, 0x80, 0x4c, 0x7f, 0x49,
  0x90, 0x4c, 0x7f, 0x2d, 0x80, 0x4c, 0x7f, 0x01, 0xe0, 0x20, 0x7e, 0x06,
  0xe0, 0x70, 0x76, 0x06, 0xe0, 0x00, 0x6d, 0x06, 0xe0, 0x70, 0x60, 0x06,
  0xe0, 0x30, 0x51, 0x06, 0xe0, 0x50, 0x41, 0x07, 0xe0, 0x00, 0x40, 0x11,
  0x90, 0x4c, 0x7f, 0x81, 0x2a, 0x90, 0x4a, 0x6a, 0x03, 0x80, 0x4c, 0x7f,
  0x2a, 0x80, 0x4a, 0x6a, 0x27, 0x90, 0x4a, 0x7f, 0x6a, 0x80, 0x4a, 0x7f,
  0x67, 0x90, 0x4a, 0x7f, 0x81, 0x4b, 0x90, 0x4c, 0x7f, 0x0d, 0x80, 0x4a,
  0x7f, 0x1e, 0x80, 0x4c, 0x7f, 0x3c, 0x90, 0x4a, 0x7f, 0x81, 0x61, 0x80,
  0x4a, 0x7f, 0x2b, 0x90, 0x4a, 0x7f, 0x5b, 0x80, 0x4a, 0x7f, 0x6d, 0x90,
  0x4a, 0x7f, 0x81, 0x16, 0x80, 0x4a, 0x7f, 0x31, 0x90, 0x4a, 0x6f, 0x2f,
  0x80, 0x4a, 0x6f, 0x33, 0x90, 0x4a, 0x75, 0x82, 0x20, 0x80, 0x4a, 0x00,
  0x00, 0x90, 0x3e, 0x4d, 0x53, 0xb0, 0x01, 0x05, 0x07, 0xb0, 0x01, 0x0e,
  0x05, 0xb0, 0x01, 0x14, 0x07, 0xb0, 0x01, 0x19, 0x06, 0xb0, 0x01, 0x1f,
  0x06, 0xb0, 0x01, 0x24, 0x06, 0xb0, 0x01, 0x2a, 0x06, 0xb0, 0x01, 0x31,
  0x07, 0xb0, 0x01, 0x35, 0x05, 0xb0, 0x01, 0x3c, 0x06, 0xb0, 0x01, 0x43,
  0x06, 0xb0, 0x01, 0x4c, 0x07, 0xb0, 0x01, 0x55, 0x06, 0xb0, 0x01, 0x5d,
  0x05, 0xb0, 0x01, 0x62, 0x07, 0xb0, 0x01, 0x66, 0x05, 0xb0, 0x01, 0x6a,
  0x0c, 0x90, 0x2b, 0x52, 0x06, 0xb0, 0x01, 0x6b, 0x06, 0xb0, 0x01, 0x6f,
  0x0d, 0xb0, 0x01, 0x71, 0x06, 0xb0, 0x01, 0x6f, 0x06, 0xb0, 0x01, 0x68,
  0x06, 0xb0, 0x01, 0x59, 0x06, 0xb0, 0x01, 0x43, 0x06, 0xb0, 0x01, 0x2d,
  0x06, 0xb0, 0x01, 0x15, 0x07, 0xb0, 0x01, 0x00, 0x1c, 0x80, 0x2b, 0x00,
  0x5e, 0x90, 0x2b, 0x4b, 0x02, 0x80, 0x3e, 0x00, 0x81, 0x14, 0x80, 0x2b,
  0x4b, 0x2e, 0x90, 0x39, 0x4b, 0x00, 0x90, 0x3e, 0x4b, 0x3c, 0x80, 0x39,
  0x4b, 0x02, 0x80, 0x3e, 0x4b, 0x81, 0x00, 0x90, 0x3e, 0x4b, 0x00, 0x90,
  0x39, 0x4b, 0x81, 0x3b, 0x90, 0x4c, 0x7f, 0x05, 0x80, 0x3e, 0x00, 0x00,
  0x80, 0x39, 0x00, 0x0f, 0xe0, 0x30, 0x46, 0x07, 0xe0, 0x50, 0x4e, 0x05,
  0xe0, 0x60, 0x56, 0x07, 0xe0, 0x10, 0x5f, 0x06, 0xe0, 0x60, 0x64, 0x07,
  0xe0, 0x00, 0x6b, 0x06, 0xe0, 0x30, 0x70, 0x06, 0xe0, 0x40, 0x76, 0x06,
  0xe0, 0x30, 0x7a, 0x06, 0xe0, 0x30, 0x7e, 0x06, 0xe0, 0x7f, 0x7f, 0x81,
  0x5f, 0x80, 0x4c, 0x7f, 0x24, 0xe0, 0x00, 0x7b, 0x06, 0xe0, 0x70, 0x70,
  0x06, 0xe0, 0x30, 0x64, 0x06, 0xe0, 0x20, 0x57, 0x07, 0xe0, 0x40, 0x48,
  0x06, 0xe0, 0x00, 0x40, 0x10, 0x90, 0x4c, 0x7f, 0x81, 0x3a, 0x90, 0x4a,
  0x75, 0x14, 0x80, 0x4c, 0x7f, 0x53, 0x80, 0x4a, 0x75, 0x5e, 0x90, 0x4a,
  0x7f, 0x82, 0x30, 0x90, 0x47, 0x78, 0x03, 0x80, 0x4a, 0x7f, 0x43, 0x80,
  0x47, 0x78, 0x02, 0x90, 0x4a, 0x7f, 0x81, 0x44, 0x80, 0x4a, 0x7f, 0x0b,
  0x90, 0x45, 0x7f, 0x11, 0xe0, 0x30, 0x49, 0x06, 0xe0, 0x10, 0x53, 0x06,
  0xe0, 0x50, 0x5d, 0x07, 0xe0, 0x50, 0x67, 0x06, 0xe0, 0x40, 0x73, 0x06,
  0xe0, 0x40, 0x7c, 0x07, 0xe0, 0x7f, 0x7f, 0x81, 0x10, 0x80, 0x45, 0x7f,
  0x3c, 0xe0, 0x00, 0x7c, 0x06, 0xe0, 0x30, 0x72, 0x06, 0xe0, 0x70, 0x68,
  0x06, 0xe0, 0x60, 0x5e, 0x07, 0xe0, 0x50, 0x52, 0x05, 0xe0, 0x40, 0x47,
  0x07, 0xe0, 0x00, 0x40, 0x51, 0x90, 0x34, 0x4b, 0x00, 0x90, 0x37, 0x4b,
  0x81, 0x0c, 0x80, 0x37, 0x4b, 0x0c, 0x80, 0x34, 0x4b, 0x81, 0x66, 0x90,
  0x32, 0x4b, 0x00, 0x90, 0x37, 0x4b, 0x81, 0x0e, 0x80, 0x32, 0x4b, 0x0a,
  0x80, 0x37, 0x4b, 0x81, 0x0e, 0x90, 0x30, 0x4b, 0x00, 0x90, 0x37, 0x4b,
  0x81, 0x74, 0x80, 0x30, 0x4b, 0x16, 0x80, 0x37, 0x4b, 0x16, 0x90, 0x39,
  0x4b, 0x00, 0x90, 0x3e, 0x4b, 0x3a, 0x80, 0x3e, 0x4b, 0x02, 0x80, 0x39,
  0x4b, 0x81, 0x00, 0x90, 0x39, 0x4b, 0x02, 0x90, 0x3e, 0x4b, 0x81, 0x3c,
  0x80, 0x39, 0x4b, 0x04, 0x80, 0x3e, 0x00, 0x00, 0x90, 0x4c, 0x7f, 0x04,
  0xe0, 0x70, 0x49, 0x06, 0xe0, 0x00, 0x54, 0x05, 0xe0, 0x00, 0x5d, 0x06,
  0xe0, 0x40, 0x66, 0x06, 0xe0, 0x00, 0x6e, 0x07, 0xe0, 0x70, 0x76, 0x06,
  0xe0, 0x50, 0x7d, 0x06, 0xe0, 0x7f, 0x7f, 0x53, 0x80, 0x4c, 0x7f, 0x41,
  0x90, 0x4c, 0x7f, 0x45, 0x80, 0x4c, 0x7f, 0x49, 0xe0, 0x30, 0x7a, 0x06,
  0xe0, 0x40, 0x6c, 0x07, 0xe0, 0x40, 0x5b, 0x06, 0xe0, 0x30, 0x4b, 0x06,
  0xe0, 0x00, 0x40, 0x01, 0x90, 0x4c, 0x7f, 0x81, 0x4a, 0x90, 0x4a, 0x7f,
  0x0b, 0x80, 0x4c, 0x7f, 0x2e, 0x80, 0x4a, 0x7f, 0x81, 0x04, 0x90, 0x4a,
  0x7f, 0x81, 0x4d, 0x80, 0x4a, 0x7f, 0x00, 0x90, 0x4c, 0x7e, 0x38, 0x80,
  0x4c, 0x7e, 0x2a, 0x90, 0x4a, 0x7f, 0x60, 0x80, 0x4a, 0x00, 0x02, 0x90,
  0x32, 0x4b, 0x00, 0x90, 0x37, 0x4b, 0x2a, 0x80, 0x37, 0x4b, 0x06, 0x80,
  0x32, 0x4b, 0x1f, 0xb0, 0x01, 0x01, 0x05, 0xb0, 0x01, 0x0e, 0x06, 0xb0,
  0x01, 0x1b, 0x06, 0xb0, 0x01, 0x26, 0x06, 0xb0, 0x01, 0x35, 0x06, 0xb0,
  0x01, 0x43, 0x06, 0xb0, 0x01, 0x52, 0x06, 0xb0, 0x01, 0x5b, 0x06, 0xb0,
  0x01, 0x62, 0x07, 0xb0, 0x01, 0x68, 0x06, 0xb0, 0x01, 0x6b, 0x05, 0xb0,
  0x01, 0x71, 0x0c, 0xb0, 0x01, 0x68, 0x06, 0xb0, 0x01, 0x57, 0x07, 0xb0,
  0x01, 0x40, 0x08, 0xb0, 0x01, 0x1f, 0x0f, 0x90, 0x32, 0x4b, 0x00, 0x90,
  0x37, 0x4b, 0x04, 0xb0, 0x01, 0x00, 0x81, 0x2c, 0x80, 0x32, 0x4b, 0x00,
  0x80, 0x37, 0x4b, 0x81, 0x50, 0x90, 0x34, 0x4b, 0x00, 0x90, 0x37, 0x4b,
  0x81, 0x24, 0x80, 0x37, 0x4b, 0x02, 0x80, 0x34, 0x4b, 0x81, 0x54, 0x90,
  0x32, 0x4b, 0x00, 0x90, 0x37, 0x4b, 0x38, 0x80, 0x32, 0x4b, 0x7a, 0x80,
  0x37, 0x4b, 0x81, 0x4c, 0x90, 0x30, 0x4b, 0x00, 0x90, 0x37, 0x4b, 0x81,
  0x42, 0x90, 0x39, 0x4b, 0x02, 0x90, 0x3e, 0x4b, 0x24, 0x80, 0x30, 0x4b,
  0x02, 0x80, 0x37, 0x4b, 0x10, 0x80, 0x39, 0x4b, 0x00, 0x80, 0x3e, 0x4b,
  0x81, 0x0a, 0x90, 0x39, 0x4b, 0x02, 0x90, 0x3e, 0x4b, 0x81, 0x28, 0x80,
  0x39, 0x4b, 0x11, 0x90, 0x4c, 0x7f, 0x07, 0x80, 0x3e, 0x00, 0x09, 0xe0,
  0x00, 0x43, 0x06, 0xe0, 0x50, 0x4c, 0x07, 0xe0, 0x10, 0x59, 0x06, 0xe0,
  0x30, 0x62, 0x07, 0xe0, 0x40, 0x6e, 0x06, 0xe0, 0x00, 0x79, 0x06, 0xe0,
  0x7f, 0x7f, 0x81, 0x7a, 0x80, 0x4c, 0x7f, 0x32, 0xe0, 0x40, 0x74, 0x06,
  0xe0, 0x30, 0x67, 0x06, 0xe0, 0x30, 0x54, 0x06, 0xe0, 0x10, 0x42, 0x01,
  0x90, 0x4c, 0x7f, 0x06, 0xe0, 0x00, 0x40, 0x81, 0x41, 0x90, 0x4a, 0x7f,
  0x18, 0x80, 0x4c, 0x7f, 0x35, 0x80, 0x4a, 0x7f, 0x7a, 0x90, 0x4a, 0x7f,
  0x81, 0x41, 0x90, 0x47, 0x7f, 0x05, 0x80, 0x4a, 0x7f, 0x34, 0x80, 0x47,
  0x7f, 0x22, 0x90, 0x4a, 0x7f, 0x82, 0x07, 0x80, 0x4a, 0x7f, 0x0d, 0x90,
  0x45, 0x7f, 0x21, 0xe0, 0x50, 0x49, 0x06, 0xe0, 0x40, 0x55, 0x06, 0xe0,
  0x70, 0x62, 0x06, 0xe0, 0x60, 0x71, 0x06, 0xe0, 0x30, 0x7d, 0x06, 0xe0,
  0x7f, 0x7f, 0x81, 0x1f, 0x80, 0x45, 0x7f, 0x3d, 0xe0, 0x30, 0x7a, 0x06,
  0xe0, 0x20, 0x70, 0x06, 0xe0, 0x10, 0x64, 0x06, 0xe0, 0x20, 0x58, 0x06,
  0xe0, 0x50, 0x4b, 0x06, 0xe0, 0x60, 0x40, 0x06, 0xe0, 0x00, 0x40, 0x53,
  0x90, 0x34, 0x4b, 0x00, 0x90, 0x37, 0x4b, 0x81, 0x14, 0x80, 0x37, 0x4b,
  0x0e, 0x80, 0x34, 0x4b, 0x81, 0x5a, 0x90, 0x32, 0x4b, 0x00, 0x90, 0x37,
  0x4b, 0x81, 0x18, 0x80, 0x32, 0x4b, 0x0a, 0x80, 0x37, 0x4b, 0x81, 0x02,
  0x90, 0x30, 0x4b, 0x04, 0x90, 0x37, 0x4b, 0x81, 0x5e, 0x80, 0x37, 0x4b,
  0x3a, 0x80, 0x30, 0x4b, 0x08, 0x90, 0x39, 0x4b, 0x00, 0x90, 0x3e, 0x4b,
  0x36, 0x80, 0x39, 0x4b, 0x02, 0x80, 0x3e, 0x4b, 0x81, 0x06, 0x90, 0x3e,
  0x4b, 0x02, 0x90, 0x39, 0x4b, 0x81, 0x2e, 0x80, 0x39, 0x4b, 0x0a, 0x90,
  0x4c, 0x7f, 0x06, 0x80, 0x3e, 0x00, 0x0a, 0xe0, 0x70, 0x52, 0x06, 0xe0,
  0x40, 0x5d, 0x06, 0xe0, 0x00, 0x65, 0x06, 0xe0, 0x20, 0x6b, 0x06, 0xe0,
  0x50, 0x73, 0x07, 0xe0, 0x40, 0x79, 0x06, 0xe0, 0x20, 0x7f, 0x06, 0xe0,
  0x7f, 0x7f, 0x4c, 0x80, 0x4c, 0x7f, 0x3b, 0x90, 0x4c, 0x7f, 0x50, 0x80,
  0x4c, 0x7f, 0x3c, 0xe0, 0x20, 0x7c, 0x06, 0xe0, 0x30, 0x70, 0x06, 0xe0,
  0x60, 0x60, 0x06, 0xe0, 0x40, 0x4f, 0x06, 0xe0, 0x00, 0x40, 0x12, 0x90,
  0x4c, 0x7f, 0x5b, 0x90, 0x4a, 0x7f, 0x17, 0x80, 0x4c, 0x7f, 0x81, 0x13,
  0x80, 0x4a, 0x7f, 0x7c, 0x90, 0x4a, 0x7f, 0x81, 0x4c, 0x90, 0x4c, 0x7f,
  0x0a, 0x80, 0x4a, 0x7f, 0x30, 0x80, 0x4c, 0x7f, 0x22, 0x90, 0x4a, 0x79,
  0x63, 0x90, 0x32, 0x4b, 0x00, 0x90, 0x37, 0x4b, 0x3c, 0x80, 0x37, 0x4b,
  0x02, 0x80, 0x32, 0x4b, 0x5a, 0xb0, 0x01, 0x03, 0x06, 0xb0, 0x01, 0x07,
  0x06, 0xb0, 0x01, 0x09, 0x06, 0xb0, 0x01, 0x0c, 0x06, 0xb0, 0x01, 0x10,
  0x06, 0xb0, 0x01, 0x14, 0x0e, 0x90, 0x32, 0x4b, 0x00, 0x90, 0x37, 0x4b,
  0x07, 0xb0, 0x01, 0x15, 0x06, 0xb0, 0x01, 0x19, 0x07, 0xb0, 0x01, 0x1d,
  0x06, 0xb0, 0x01, 0x1f, 0x06, 0xb0, 0x01, 0x20, 0x06, 0xb0, 0x01, 0x24,
  0x06, 0xb0, 0x01, 0x28, 0x06, 0xb0, 0x01, 0x2b, 0x06, 0xb0, 0x01, 0x2f,
  0x0d, 0xb0, 0x01, 0x31, 0x12, 0xb0, 0x01, 0x2f, 0x06, 0xb0, 0x01, 0x2a,
  0x06, 0xb0, 0x01, 0x22, 0x06, 0xb0, 0x01, 0x19, 0x07, 0xb0, 0x01, 0x0c,
  0x06, 0xb0, 0x01, 0x00, 0x16, 0x80, 0x4a, 0x79, 0x30, 0x80, 0x32, 0x4b,
  0x00, 0x80, 0x37, 0x4b, 0x81, 0x40, 0x90, 0x32, 0x4b, 0x02, 0x90, 0x37,
  0x4b, 0x81, 0x3a, 0x90, 0x4f, 0x72, 0x08, 0x80, 0x37, 0x4b, 0x02, 0x80,
  0x32, 0x4b, 0x0a, 0xe0, 0x44, 0x49, 0x0a, 0xe0, 0x4f, 0x5e, 0x0c, 0xe0,
  0x78, 0x70, 0x08, 0xe0, 0x1d, 0x7a, 0x0c, 0xe0, 0x5f, 0x7e, 0x0a, 0xe0,
  0x7f, 0x7f, 0x81, 0x78, 0x80, 0x4f, 0x72, 0x12, 0xe0, 0x3f, 0x7f, 0x0a,
  0xe0, 0x3a, 0x74, 0x08, 0xe0, 0x30, 0x61, 0x0a, 0xe0, 0x08, 0x50, 0x0a,
  0xe0, 0x43, 0x47, 0x04, 0x90, 0x4f, 0x72, 0x0c, 0xe0, 0x21, 0x43, 0x0c,
  0xe0, 0x00, 0x41, 0x0a, 0xe0, 0x00, 0x40, 0x81, 0x3c, 0x80, 0x4f, 0x72,
  0x81, 0x1e, 0x90, 0x4e, 0x70, 0x64, 0x90, 0x4a, 0x71, 0x12, 0x80, 0x4e,
  0x70, 0x3c, 0x80, 0x4a, 0x71, 0x10, 0x90, 0x45, 0x72, 0x56, 0x80, 0x45,
  0x72, 0x6c, 0x90, 0x4a, 0x72, 0x81, 0x56, 0xe0, 0x40, 0x40, 0x0a, 0xe0,
  0x23, 0x46, 0x0a, 0xe0, 0x46, 0x4d, 0x08, 0xe0, 0x69, 0x53, 0x0a, 0xe0,
  0x0b, 0x56, 0x0a, 0xe0, 0x2a, 0x54, 0x08, 0xe0, 0x47, 0x4f, 0x0a, 0xe0,
  0x05, 0x4a, 0x0a, 0xe0, 0x42, 0x44, 0x0a, 0xe0, 0x60, 0x41, 0x0a, 0xe0,
  0x40, 0x40, 0x0a, 0xe0, 0x21, 0x43, 0x0a, 0xe0, 0x65, 0x4b, 0x08, 0xe0,
  0x0a, 0x55, 0x0a, 0xe0, 0x4d, 0x5b, 0x0a, 0xe0, 0x6e, 0x5c, 0x0a, 0xe0,
  0x2c, 0x59, 0x0a, 0xe0, 0x28, 0x51, 0x0a, 0xe0, 0x24, 0x48, 0x0a, 0xe0,
  0x41, 0x43, 0x0a, 0xe0, 0x40, 0x41, 0x0a, 0xe0, 0x00, 0x40, 0x2c, 0x80,
  0x4a, 0x72, 0x16, 0x90, 0x45, 0x72, 0x4e, 0x80, 0x45, 0x72, 0x12, 0x90,
  0x48, 0x72, 0x5c, 0x90, 0x47, 0x71, 0x0e, 0x80, 0x48, 0x72, 0x28, 0x80,
  0x47, 0x71, 0x2e, 0x90, 0x48, 0x72, 0x5e, 0x90, 0x47, 0x69, 0x1e, 0x80,
  0x48, 0x72, 0x40, 0x90, 0x45, 0x72, 0x08, 0x80, 0x47, 0x69, 0x38, 0x80,
  0x45, 0x72, 0x1a, 0x90, 0x43, 0x72, 0x30, 0x80, 0x43, 0x72, 0x3e, 0x90,
  0x43, 0x72, 0x81, 0x2e, 0x80, 0x43, 0x72, 0x0e, 0x90, 0x40, 0x72, 0x36,
  0x80, 0x40, 0x72, 0x24, 0x90, 0x3e, 0x6b, 0x36, 0x80, 0x3e, 0x6b, 0x32,
  0x90, 0x43, 0x72, 0x52, 0xe0, 0x22, 0x45, 0x0a, 0xe0, 0x6c, 0x59, 0x0a,
  0xe0, 0x37, 0x6e, 0x0a, 0xe0, 0x5c, 0x78, 0x0a, 0xe0, 0x5e, 0x7d, 0x08,
  0xe0, 0x7f, 0x7f, 0x1a, 0xe0, 0x7d, 0x7b, 0x0a, 0xe0, 0x58, 0x71, 0x0c,
  0xe0, 0x0f, 0x5f, 0x0a, 0xe0, 0x67, 0x4e, 0x08, 0x90, 0x3e, 0x4b, 0x02,
  0xe0, 0x63, 0x46, 0x0c, 0xe0, 0x61, 0x42, 0x0a, 0x80, 0x43, 0x72, 0x00,
  0xe0, 0x00, 0x41, 0x0c, 0xe0, 0x00, 0x40, 0x81, 0x1a, 0x90, 0x2b, 0x4b,
  0x30, 0x80, 0x2b, 0x4b, 0x81, 0x10, 0x90, 0x2b, 0x4f, 0x02, 0x80, 0x3e,
  0x00, 0x81, 0x40, 0x90, 0x3e, 0x4d, 0x81, 0x18, 0x80, 0x2b, 0x4f, 0x2a,
  0x90, 0x30, 0x4b, 0x5e, 0x90, 0x31, 0x4b, 0x0e, 0x80, 0x30, 0x4b, 0x36,
  0x80, 0x31, 0x4b, 0x1c, 0x80, 0x3e, 0x00, 0x02, 0x90, 0x32, 0x4b, 0x3e,
  0x80, 0x32, 0x4b, 0x1a, 0x90, 0x42, 0x66, 0x56, 0x80, 0x42, 0x66, 0x06,
  0x90, 0x4a, 0x6f, 0x38, 0x80, 0x4a, 0x6f, 0x2c, 0x90, 0x4a, 0x72, 0x54,
  0xe0, 0x61, 0x42, 0x0a, 0xe0, 0x23, 0x46, 0x0c, 0xe0, 0x24, 0x48, 0x08,
  0xe0, 0x04, 0x49, 0x0a, 0xe0, 0x03, 0x47, 0x0a, 0xe0, 0x41, 0x43, 0x0a,
  0xe0, 0x40, 0x41, 0x08, 0x80, 0x4a, 0x72, 0x02, 0xe0, 0x00, 0x40, 0x24,
  0x90, 0x4a, 0x6c, 0x5e, 0x80, 0x4a, 0x6c, 0x00, 0x90, 0x42, 0x72, 0x60,
  0x80, 0x42, 0x72, 0x60, 0x90, 0x3e, 0x72, 0x60, 0x90, 0x3f, 0x66, 0x18,
  0x80, 0x3e, 0x72, 0x30, 0x80, 0x3f, 0x66, 0x1c, 0x90, 0x48, 0x72, 0x40,
  0x80, 0x48, 0x72, 0x7c, 0x90, 0x48, 0x72, 0x82, 0x04, 0x80, 0x48, 0x72,
  0x7c, 0x90, 0x39, 0x72, 0x64, 0x90, 0x3a, 0x66, 0x22, 0x80, 0x39, 0x72,
  0x38, 0x80, 0x3a, 0x66, 0x00, 0x90, 0x3b, 0x61, 0x52, 0x80, 0x3b, 0x61,
  0x10, 0x90, 0x43, 0x72, 0x56, 0x80, 0x43, 0x72, 0x68, 0x90, 0x43, 0x72,
  0x4e, 0x80, 0x43, 0x72, 0x12, 0x90, 0x37, 0x72, 0x7a, 0xe0, 0x40, 0x40,
  0x0a, 0xe0, 0x62, 0x45, 0x0a, 0xe0, 0x39, 0x32, 0x0a, 0xe0, 0x55, 0x2b,
  0x0a, 0xe0, 0x13, 0x26, 0x08, 0xe0, 0x11, 0x23, 0x0a, 0xe0, 0x30, 0x21,
  0x14, 0xe0, 0x11, 0x23, 0x0a, 0xe0, 0x34, 0x29, 0x0a, 0xe0, 0x39, 0x32,
  0x0a, 0xe0, 0x5c, 0x39, 0x0a, 0xe0, 0x1e, 0x3d, 0x08, 0xe0, 0x7f, 0x3e,
  0x0a, 0xe0, 0x00, 0x40, 0x34, 0xe0, 0x00, 0x41, 0x08, 0xe0, 0x7d, 0x3a,
  0x0a, 0xe0, 0x7a, 0x35, 0x08, 0xe0, 0x19, 0x32, 0x0a, 0xe0, 0x17, 0x2f,
  0x08, 0xe0, 0x76, 0x2d, 0x0a, 0xe0, 0x36, 0x2d, 0x0a, 0xe0, 0x37, 0x2e,
  0x0a, 0xe0, 0x19, 0x32, 0x0a, 0xe0, 0x1c, 0x39, 0x0a, 0xe0, 0x1e, 0x3d,
  0x0a, 0xe0, 0x7f, 0x3e, 0x0a, 0xe0, 0x00, 0x40, 0x2a, 0xe0, 0x00, 0x41,
  0x0a, 0xe0, 0x1e, 0x3d, 0x0a, 0xe0, 0x3e, 0x3c, 0x08, 0xe0, 0x3d, 0x3b,
  0x0a, 0xe0, 0x7d, 0x3b, 0x08, 0xe0, 0x1e, 0x3d, 0x0a, 0xe0, 0x7f, 0x3e,
  0x0a, 0xe0, 0x00, 0x40, 0x81, 0x34, 0x80, 0x37, 0x72, 0x42, 0x90, 0x30,
  0x4b, 0x02, 0x90, 0x3e, 0x49, 0x52, 0x80, 0x30, 0x4b, 0x0c, 0x90, 0x31,
  0x4b, 0x42, 0x80, 0x31, 0x4b, 0x1a, 0x90, 0x41, 0x72, 0x04, 0x90, 0x32,
  0x4b, 0x02, 0x80, 0x3e, 0x00, 0x40, 0x80, 0x32, 0x4b, 0x1a, 0x90, 0x42,
  0x6c, 0x1c, 0x80, 0x41, 0x72, 0x3e, 0x90, 0x4a, 0x66, 0x0a, 0x80, 0x42,
  0x6c, 0x2e, 0x80, 0x4a, 0x66, 0x2a, 0x90, 0x4a, 0x72, 0x81, 0x18, 0x80,
  0x4a, 0x72, 0x2e, 0x90, 0x4a, 0x70, 0x56, 0x80, 0x4a, 0x70, 0x06, 0x90,
  0x42, 0x72, 0x60, 0x80, 0x42, 0x72, 0x5c, 0x90, 0x3f, 0x70, 0x62, 0x90,
  0x40, 0x6c, 0x0a, 0x80, 0x3f, 0x70, 0x50, 0x80, 0x40, 0x6c, 0x02, 0x90,
  0x48, 0x71, 0x52, 0x80, 0x48, 0x71, 0x72, 0x90, 0x48, 0x72, 0x81, 0x6e,
  0x80, 0x48, 0x72, 0x81, 0x10, 0x90, 0x39, 0x72, 0x60, 0x90, 0x3a, 0x69,
  0x10, 0x80, 0x39, 0x72, 0x4e, 0x80, 0x3a, 0x69, 0x02, 0x90, 0x3b, 0x69,
  0x50, 0x80, 0x3b, 0x69, 0x0e, 0x90, 0x43, 0x72, 0x64, 0x80, 0x43, 0x72,
  0x5e, 0x90, 0x43, 0x6f, 0x50, 0x80, 0x43, 0x6f, 0x10, 0x90, 0x37, 0x72,
  0x7c, 0xe0, 0x00, 0x41, 0x0a, 0xe0, 0x22, 0x45, 0x0a, 0xe0, 0x1a, 0x35,
  0x08, 0xe0, 0x77, 0x2f, 0x0a, 0xe0, 0x55, 0x2b, 0x0a, 0xe0, 0x14, 0x29,
  0x0a, 0xe0, 0x14, 0x28, 0x0a, 0xe0, 0x54, 0x28, 0x08, 0x90, 0x2b, 0x4b,
  0x02, 0xe0, 0x15, 0x2b, 0x0a, 0xe0, 0x58, 0x31, 0x0a, 0xe0, 0x7c, 0x38,
  0x08, 0xe0, 0x5e, 0x3c, 0x0c, 0xe0, 0x7f, 0x3e, 0x08, 0x80, 0x2b, 0x4b,
  0x00, 0xe0, 0x00, 0x40, 0x2a, 0xe0, 0x00, 0x41, 0x0a, 0xe0, 0x7d, 0x3b,
  0x08, 0xe0, 0x1c, 0x39, 0x0a, 0xe0, 0x1b, 0x37, 0x0a, 0xe0, 0x3b, 0x36,
  0x08, 0xe0, 0x7a, 0x35, 0x0a, 0xe0, 0x3b, 0x36, 0x08, 0xe0, 0x1c, 0x39,
  0x0a, 0xe0, 0x1e, 0x3d, 0x0a, 0xe0, 0x7f, 0x3e, 0x0a, 0xe0, 0x00, 0x40,
  0x2a, 0xe0, 0x40, 0x40, 0x0a, 0xe0, 0x21, 0x42, 0x08, 0xe0, 0x3d, 0x3b,
  0x0a, 0xe0, 0x1d, 0x3a, 0x0a, 0xe0, 0x1c, 0x39, 0x12, 0xe0, 0x5d, 0x3a,
  0x08, 0xe0, 0x1e, 0x3d, 0x0a, 0xe0, 0x7f, 0x3e, 0x0a, 0xe0, 0x00, 0x40,
  0x28, 0xe0, 0x60, 0x41, 0x08, 0xe0, 0x3e, 0x3c, 0x0a, 0xe0, 0x3d, 0x3b,
  0x0a, 0xe0, 0x7d, 0x3a, 0x12, 0xe0, 0x5e, 0x3c, 0x0a, 0xe0, 0x7f, 0x3e,
  0x0a, 0xe0, 0x00, 0x40, 0x6a, 0x80, 0x37, 0x72, 0x38, 0x90, 0x30, 0x4b,
  0x00, 0x90, 0x3e, 0x4d, 0x5e, 0x80, 0x30, 0x4b, 0x00, 0x90, 0x31, 0x4b,
  0x4c, 0x80, 0x31, 0x4b, 0x0c, 0x90, 0x41, 0x72, 0x08, 0x90, 0x32, 0x4b,
  0x02, 0x80, 0x3e, 0x00, 0x42, 0x80, 0x32, 0x4b, 0x14, 0x90, 0x42, 0x70,
  0x24, 0x80, 0x41, 0x72, 0x3a, 0x90, 0x4a, 0x72, 0x0c, 0x80, 0x42, 0x70,
  0x2c, 0x80, 0x4a, 0x72, 0x2a, 0x90, 0x4a, 0x72, 0x78, 0x80, 0x4a, 0x72,
  0x4c, 0x90, 0x4a, 0x72, 0x5c, 0x90, 0x42, 0x72, 0x16, 0x80, 0x4a, 0x72,
  0x52, 0x80, 0x42, 0x72, 0x58, 0x90, 0x3f, 0x72, 0x60, 0x90, 0x40, 0x6b,
  0x10, 0x80, 0x3f, 0x72, 0x46, 0x80, 0x40, 0x6b, 0x0e, 0x90, 0x48, 0x72,
  0x52, 0x80, 0x48, 0x72, 0x6e, 0x90, 0x48, 0x72, 0x82, 0x0e, 0x80, 0x48,
  0x72, 0x72, 0x90, 0x39, 0x72, 0x60, 0x90, 0x3a, 0x6b, 0x0e, 0x80, 0x39,
  0x72, 0x52, 0x90, 0x3b, 0x6b, 0x02, 0x80, 0x3a, 0x6b, 0x4e, 0x80, 0x3b,
  0x6b, 0x0c, 0x90, 0x43, 0x72, 0x66, 0x80, 0x43, 0x72, 0x58, 0x90, 0x43,
  0x70, 0x56, 0x80, 0x43, 0x70, 0x0c, 0x90, 0x37, 0x72, 0x81, 0x0e, 0xe0,
  0x60, 0x41, 0x08, 0xe0, 0x5c, 0x39, 0x0a, 0xe0, 0x1a, 0x34, 0x0a, 0xe0,
  0x17, 0x2f, 0x0a, 0xe0, 0x16, 0x2c, 0x08, 0xe0, 0x35, 0x2a, 0x0c, 0xe0,
  0x34, 0x29, 0x0a, 0xe0, 0x74, 0x29, 0x0a, 0xe0, 0x55, 0x2b, 0x0a, 0xe0,
  0x38, 0x30, 0x08, 0xe0, 0x7b, 0x36, 0x0a, 0xe0, 0x7d, 0x3b, 0x0a, 0xe0,
  0x3f, 0x3e, 0x0a, 0xe0, 0x00, 0x40, 0x46, 0xe0, 0x21, 0x42, 0x08, 0xe0,
  0x7d, 0x3a, 0x0a, 0xe0, 0x7c, 0x38, 0x08, 0xe0, 0x1b, 0x37, 0x0a, 0xe0,
  0x7b, 0x36, 0x0a, 0xe0, 0x5b, 0x37, 0x0c, 0xe0, 0x3e, 0x3c, 0x0a, 0xe0,
  0x3f, 0x3e, 0x0a, 0xe0, 0x00, 0x40, 0x38, 0xe0, 0x00, 0x41, 0x0a, 0xe0,
  0x1e, 0x3d, 0x0a, 0xe0, 0x7d, 0x3b, 0x0a, 0xe0, 0x3d, 0x3b, 0x08, 0xe0,
  0x7d, 0x3a, 0x0a, 0xe0, 0x3d, 0x3b, 0x0a, 0xe0, 0x1f, 0x3e, 0x08, 0xe0,
  0x3f, 0x3f, 0x0a, 0xe0, 0x00, 0x40, 0x81, 0x52, 0x80, 0x37, 0x72, 0x12,
  0x90, 0x30, 0x4b, 0x02, 0x90, 0x3e, 0x4b, 0x5e, 0x80, 0x30, 0x4b, 0x04,
  0x90, 0x31, 0x4b, 0x30, 0x80, 0x31, 0x4b, 0x28, 0x90, 0x41, 0x72, 0x06,
  0x80, 0x3e, 0x00, 0x02, 0x90, 0x32, 0x52, 0x42, 0x80, 0x32, 0x52, 0x16,
  0x90, 0x42, 0x6c, 0x20, 0x80, 0x41, 0x72, 0x3c, 0x90, 0x4a, 0x6f, 0x16,
  0x80, 0x42, 0x6c, 0x2a, 0x80, 0x4a, 0x6f, 0x24, 0x90, 0x4a, 0x72, 0x6c,
  0x80, 0x4a, 0x72, 0x54, 0x90, 0x4a, 0x72, 0x62, 0x90, 0x42, 0x72, 0x18,
  0x80, 0x4a, 0x72, 0x50, 0x80, 0x42, 0x72, 0x4c, 0x90, 0x3f, 0x6e, 0x5c,
  0x80, 0x3f, 0x6e, 0x0c, 0x90, 0x40, 0x6b, 0x5e, 0x80, 0x40, 0x6b, 0x02,
  0x90, 0x48, 0x72, 0x6a, 0x80, 0x48, 0x72, 0x5a, 0x90, 0x48, 0x72, 0x81,
  0x78, 0x80, 0x48, 0x72, 0x7e, 0x90, 0x39, 0x72, 0x5e, 0x90, 0x3a, 0x64,
  0x12, 0x80, 0x39, 0x72, 0x4e, 0x80, 0x3a, 0x64, 0x00, 0x90, 0x3b, 0x63,
  0x62, 0x80, 0x3b, 0x63, 0x00, 0x90, 0x43, 0x72, 0x64, 0x80, 0x43, 0x72,
  0x5e, 0x90, 0x43, 0x6b, 0x5c, 0x80, 0x43, 0x6b, 0x04, 0x90, 0x37, 0x71,
  0x81, 0x3a, 0xe0, 0x00, 0x41, 0x0c, 0xe0, 0x5e, 0x3d, 0x0a, 0xe0, 0x3e,
  0x3c, 0x0a, 0xe0, 0x7d, 0x3b, 0x12, 0xe0, 0x1e, 0x3d, 0x0a, 0xe0, 0x7f,
  0x3e, 0x08, 0xe0, 0x00, 0x40, 0x54, 0xe0, 0x5d, 0x3a, 0x0a, 0xe0, 0x1a,
  0x34, 0x0a, 0xe0, 0x57, 0x2e, 0x08, 0xe0, 0x55, 0x2b, 0x0a, 0xe0, 0x35,
  0x2a, 0x0c, 0xe0, 0x75, 0x2a, 0x0a, 0xe0, 0x77, 0x2f, 0x0a, 0xe0, 0x5b,
  0x37, 0x08, 0xe0, 0x3e, 0x3c, 0x0c, 0xe0, 0x3f, 0x3e, 0x0a, 0xe0, 0x00,
  0x40, 0x81, 0x50, 0x80, 0x37, 0x71, 0x82, 0x40, 0x90, 0x41, 0x72, 0x60,
  0x90, 0x42, 0x68, 0x14, 0x80, 0x41, 0x72, 0x4c, 0x90, 0x4a, 0x72, 0x0a,
  0x80, 0x42, 0x68, 0x36, 0x80, 0x4a, 0x72, 0x22, 0x90, 0x4a, 0x72, 0x62,
  0x80, 0x4a, 0x72, 0x5e, 0x90, 0x4a, 0x72, 0x5e, 0x90, 0x42, 0x72, 0x14,
  0x80, 0x4a, 0x72, 0x4c, 0x80, 0x42, 0x72, 0x60, 0x90, 0x3f, 0x72, 0x60,
  0x90, 0x40, 0x69, 0x0c, 0x80, 0x3f, 0x72, 0x50, 0x90, 0x48, 0x72, 0x08,
  0x80, 0x40, 0x69, 0x54, 0x80, 0x48, 0x72, 0x68, 0x90, 0x48, 0x72, 0x82,
  0x14, 0x80, 0x48, 0x72, 0x6a, 0x90, 0x39, 0x66, 0x60, 0x80, 0x39, 0x66,
  0x04, 0x90, 0x3a, 0x60, 0x60, 0x90, 0x3b, 0x5f, 0x12, 0x80, 0x3a, 0x60,
  0x36, 0x80, 0x3b, 0x5f, 0x1e, 0x90, 0x43, 0x71, 0x58, 0x80, 0x43, 0x71,
  0x62, 0x90, 0x43, 0x5d, 0x44, 0x80, 0x43, 0x5d, 0x14, 0x90, 0x37, 0x66,
  0x7b, 0x80, 0x37, 0x66, 0x4d, 0x90, 0x4f, 0x72, 0x18, 0xe0, 0x65, 0x4a,
  0x0e, 0xe0, 0x30, 0x61, 0x0a, 0xe0, 0x19, 0x72, 0x0c, 0xe0, 0x5d, 0x7a,
  0x0a, 0xe0, 0x7f, 0x7e, 0x0a, 0xe0, 0x7f, 0x7f, 0x81, 0x6c, 0x80, 0x4f,
  0x72, 0x2c, 0xe0, 0x5e, 0x7d, 0x0a, 0xe0, 0x78, 0x70, 0x0a, 0xe0, 0x6c,
  0x59, 0x04, 0x90, 0x4f, 0x6d, 0x06, 0xe0, 0x26, 0x4c, 0x0e, 0xe0, 0x22,
  0x45, 0x0c, 0xe0, 0x21, 0x42, 0x0a, 0xe0, 0x40, 0x40, 0x0a, 0xe0, 0x00,
  0x40, 0x82, 0x4a, 0x90, 0x4e, 0x61, 0x14, 0x80, 0x4f, 0x6d, 0x8b, 0x6c,
  0x80, 0x4e, 0x61, 0x00, 0xff, 0x2f, 0x00
};